<svg width="54" height="54" viewBox="0 0 54 54" fill="none" xmlns="http://www.w3.org/2000/svg">
<mask id="mask0" mask-type="alpha" maskUnits="userSpaceOnUse" x="0" y="0" width="54" height="54">
<path fill-rule="evenodd" clip-rule="evenodd" d="M53.147 27.0318C53.147 41.4585 41.4517 53.1527 27.0261 53.1527C12.5994 53.1527 0.905273 41.4585 0.905273 27.0318C0.905273 12.6062 12.5994 0.910889 27.0261 0.910889C41.4517 0.910889 53.147 12.6062 53.147 27.0318Z" fill="white"/>
</mask>
<g mask="url(#mask0)">
<path fill-rule="evenodd" clip-rule="evenodd" d="M53.147 27.0318C53.147 41.4585 41.4517 53.1527 27.0261 53.1527C12.5994 53.1527 0.905273 41.4585 0.905273 27.0318C0.905273 12.6062 12.5994 0.910889 27.0261 0.910889C41.4517 0.910889 53.147 12.6062 53.147 27.0318Z" fill="#FCE3C3"/>
<path fill-rule="evenodd" clip-rule="evenodd" d="M64.6384 89.3084C63.9976 87.703 63.3557 86.0976 62.7149 84.4911C62.0995 82.9514 61.5624 81.6237 60.7534 80.1728C60.4203 79.5769 59.9674 78.7967 59.5905 78.2043C57.7892 74.891 55.9879 71.5776 54.1854 68.2642C53.0456 66.1679 51.9058 64.0715 50.766 61.9751C50.0169 60.5979 49.2666 59.2161 48.6962 57.7571C47.9897 55.9477 47.5679 54.0415 47.1864 52.1364C46.9041 50.7362 46.6413 49.3279 46.359 47.9253C45.5372 48.2906 44.7167 48.6594 43.9007 49.0397C42.1513 49.8557 40.411 50.7062 38.6523 51.5095C39.9846 55.3991 41.4402 59.2288 43.4466 62.8107C47.0297 69.2115 52.3426 74.2525 56.6736 80.1728C56.8303 80.3871 56.7612 81.0302 56.7762 81.3033C56.8234 82.1896 56.7497 83.0735 56.858 83.9563C56.9675 84.8495 57.1749 85.73 57.4746 86.5771C57.6106 86.9608 57.9805 87.3135 58.3724 86.9689C58.4081 86.947 58.4415 86.9205 58.4726 86.8848C58.861 86.4733 58.8633 85.9098 58.838 85.3796C58.8103 84.7746 58.8414 84.2018 59.1053 83.6475C59.1768 83.4977 59.2978 83.3559 59.4603 83.3248C59.5594 83.304 59.662 83.3294 59.7588 83.3605C60.0815 83.4711 60.3258 83.6717 60.5229 83.9195C60.6266 84.0485 60.7188 84.1914 60.8006 84.3413C60.8801 84.483 60.9516 84.6294 61.0208 84.7769C61.106 84.9613 61.1867 85.1457 61.272 85.3197C61.2881 85.3566 61.3054 85.3912 61.3239 85.4257C61.3388 85.4569 61.3561 85.4891 61.3711 85.5214C61.4748 85.7265 61.5786 85.9305 61.6823 86.1368C61.8701 86.5102 62.058 86.8836 62.247 87.2582C62.4106 87.5832 62.5754 87.9093 62.7391 88.2355C63.0272 88.8048 63.3349 89.4433 63.8501 89.8466C64.235 90.1486 64.8493 89.8386 64.6384 89.3084Z" fill="#FFCFCA"/>
<path fill-rule="evenodd" clip-rule="evenodd" d="M16.5675 38.0103C10.8189 38.0091 5.31354 56.1629 5.17294 56.398C5.05308 56.5997 -6.38294 73.4374 -6.41636 73.4777C-6.41636 73.4777 -10.2979 77.3835 -11.2464 78.5579C-11.886 79.3542 -12.5545 80.1771 -12.9636 81.1175C-13.3969 82.1132 -13.662 83.1632 -13.9455 84.2084C-13.9904 84.3721 -14.0354 84.5404 -14.0158 84.7086C-13.9789 85.0117 -13.6458 85.2756 -13.3416 85.1373C-12.6812 84.8412 -12.4542 83.9756 -12.2606 83.3464C-12.0808 82.7598 -11.9333 82.1593 -11.6567 81.6096C-11.3858 81.0679 -10.9767 80.6703 -10.4915 80.3108C-10.1423 80.0503 -9.8058 79.7795 -9.44853 79.5271C-9.31369 79.4303 -9.17078 79.3335 -9.02096 79.2574C-8.81812 79.1525 -8.60146 79.0834 -8.37327 79.1007C-8.18311 79.1157 -7.90652 79.2067 -7.79472 79.375C-7.67256 79.5571 -7.80625 79.7726 -7.88231 79.942C-7.97566 80.1437 -8.10935 80.3223 -8.24765 80.4963C-8.48391 80.7902 -8.75935 81.0806 -8.90225 81.4321C-8.92761 81.4921 -8.94835 81.5531 -8.96449 81.6165C-9.13851 82.2896 -8.62912 83.2611 -7.87655 82.6515C-7.71405 82.5212 -7.58843 82.353 -7.46166 82.1893C-6.85546 81.4091 -6.07984 80.7533 -5.62461 79.8717C-5.33304 79.3104 -5.106 78.7204 -4.88127 78.1314C-4.45946 77.032 -4.27737 76.3693 -4.19669 75.8426L-4.19554 75.8403L-4.18286 75.8196C-4.09297 75.7493 6.31965 66.4142 12.4554 58.0495C13.8937 56.0892 17.418 48.3779 19.1237 42.7815C19.4752 41.6279 17.6404 39.1235 16.5675 38.0103Z" fill="#FFCFCA"/>
<path fill-rule="evenodd" clip-rule="evenodd" d="M24.8558 25.0678C26.5938 25.9552 28.364 26.7769 30.1457 27.5756C30.6816 27.8153 31.2233 28.0562 31.7984 28.176L32.0196 34.215C31.9148 34.2842 31.803 34.3418 31.6877 34.3902C31.161 35.7271 29.8599 36.6732 28.3352 36.6732C26.6952 36.6732 25.3122 35.5772 24.8766 34.0779C24.8432 34.0675 24.8109 34.0571 24.7775 34.0479C24.7775 33.9073 24.7763 33.7667 24.7763 33.6261C24.7475 33.4452 24.7325 33.2596 24.7325 33.0706C24.7325 32.8931 24.7464 32.7191 24.7717 32.5474C24.7706 32.3053 24.7694 32.0622 24.7683 31.819C24.7648 30.8901 24.7602 29.9601 24.6634 29.0358C24.6334 28.7523 24.5965 28.4699 24.5504 28.1887C24.4421 27.4891 24.2946 26.7954 24.1471 26.1016C24.0249 25.5311 23.9039 24.9595 23.7817 24.3901C24.1229 24.7002 24.4433 24.8569 24.8558 25.0678Z" fill="#FFCFCA"/>
<path fill-rule="evenodd" clip-rule="evenodd" d="M35.3882 19.4701C35.2038 21.7301 34.2173 23.9267 32.6038 25.5194C31.8651 26.2478 30.9961 26.8528 30.0303 27.2285C28.9689 27.6411 27.8118 27.7702 26.6755 27.7114C26.0036 27.6757 25.3271 27.5743 24.7117 27.3069C23.9729 26.9854 23.3552 26.4414 22.7801 25.8778C21.797 24.9132 20.8912 23.8576 20.2182 22.6555C19.5463 21.4546 19.1141 20.0993 19.1187 18.7221C19.1198 18.2554 19.1729 17.7805 19.3538 17.3495C19.5947 16.7756 20.043 16.3169 20.5028 15.8985C22.0229 14.5133 23.8058 13.3792 25.7869 12.8295C27.836 12.2613 30.0004 12.3374 32.1244 12.4192C32.6626 12.4388 33.1535 12.5448 33.5857 12.8825C33.9384 13.158 34.132 13.6247 34.3256 14.0177C34.8581 15.101 35.2084 16.2754 35.3502 17.4751C35.4285 18.1367 35.4424 18.8062 35.3882 19.4701Z" fill="#534741"/>
<path fill-rule="evenodd" clip-rule="evenodd" d="M31.9171 31.4283C29.929 30.9846 28.0044 30.2586 26.2457 29.2375C25.6856 28.9136 25.1048 28.5656 24.5504 28.1887C24.4421 27.4891 24.2946 26.7954 24.1471 26.1016C24.0249 25.5311 23.9039 24.9595 23.7817 24.3901C24.1229 24.7002 24.4433 24.8569 24.8558 25.0678C26.5938 25.9552 28.364 26.7769 30.1457 27.5756C30.6816 27.8153 31.2233 28.0562 31.7984 28.176L31.9171 31.4283Z" fill="#F9BFBB"/>
<path fill-rule="evenodd" clip-rule="evenodd" d="M35.1511 18.4063C35.0267 17.9038 34.8745 17.4083 34.6982 16.9265C34.1439 15.4064 33.1159 14.0073 31.7479 13.0819C29.1191 11.307 25.4473 11.7415 23.3279 14.0776C22.8254 14.6308 22.4174 15.2647 22.1293 15.9458C21.4159 17.618 21.3779 19.417 21.7674 21.1492C22.1086 22.682 22.7839 24.1618 23.616 25.4595C24.1289 26.2558 24.7224 27.0072 25.4265 27.6549C25.8288 28.0249 26.2736 28.3602 26.7473 28.6438C27.6981 29.2154 28.771 29.583 29.8843 29.6199C30.8904 29.6522 31.915 29.3871 32.7644 28.8581C33.7221 28.26 34.3006 27.3403 34.7167 26.3307C35.7378 23.8425 35.7988 21.0097 35.1511 18.4063Z" fill="#FFCFCA"/>
<path fill-rule="evenodd" clip-rule="evenodd" d="M24.0777 24.9284C23.1211 25.4067 21.911 25.3376 21.0224 24.7394C20.2722 24.2358 19.7824 23.3714 19.7132 22.4725C19.7017 22.3088 19.7028 22.1452 19.719 21.9804C19.7478 21.6934 19.8216 21.4088 19.9575 21.1552C20.2987 20.5294 21.0397 20.1606 21.7485 20.2171C22.4596 20.2759 23.113 20.7346 23.4519 21.3615L24.0777 24.9284Z" fill="#FFCFCA"/>
<path fill-rule="evenodd" clip-rule="evenodd" d="M27.0756 16.5109C28.681 16.209 30.2899 15.8505 31.81 15.2812C33.0455 14.8202 34.4123 13.9317 34.7431 12.5959C35.1568 10.9237 33.7519 9.64215 32.3528 8.98639C29.6226 7.70714 26.247 7.93303 23.7542 9.65713C22.241 10.7024 21.1024 12.2594 20.5791 13.9962C20.2795 14.9931 20.155 16.5005 21.3282 16.9627C22.6916 17.5009 24.3777 16.9961 25.7618 16.7506C26.1975 16.6723 26.6366 16.5939 27.0756 16.5109Z" fill="#534741"/>
<path fill-rule="evenodd" clip-rule="evenodd" d="M17.857 16.8612C17.9964 15.8274 18.4528 14.872 19.2952 14.3361C20.518 13.5582 22.3689 13.7772 23.1122 15.1083C23.5974 15.9772 23.6055 17.0848 23.473 18.0471C23.4119 18.4966 23.2932 18.946 23.0523 19.3356C22.891 19.5972 22.3447 20.2725 21.9805 20.2195C21.8584 20.2011 21.7316 20.1849 21.6267 20.1769C21.606 20.1746 21.5852 20.1734 21.5645 20.1734C21.1911 20.1746 20.843 20.2691 20.5203 20.4558C20.2795 20.586 20.0858 20.7635 19.9406 20.9882C19.4819 21.4895 18.7916 20.624 18.5484 20.2587C17.9607 19.3736 17.6933 18.0644 17.857 16.8612Z" fill="#534741"/>
<path fill-rule="evenodd" clip-rule="evenodd" d="M41.7421 54.4284C41.7271 54.4342 41.7133 54.4423 41.6983 54.448C42.1386 61.802 42.3956 76.4672 42.958 82.6584C34.3755 82.1294 21.6706 82.6111 14.1242 81.6937C13.9202 77.9205 14.1219 68.998 15.1614 57.1909C15.2628 56.0315 15.3804 54.841 15.5152 53.624C15.5198 53.586 15.5233 53.5491 15.5279 53.5099L15.5118 53.4995C14.3939 52.7354 13.1469 52.0486 11.8964 51.3732C10.155 50.4328 8.40789 49.5166 6.98574 48.4505C6.86127 48.356 8.63724 45.3077 8.71445 45.1475C11.137 40.102 15.3204 34.7545 21.0794 33.5202C21.4182 33.4476 24.7304 33.0707 24.7362 32.9209C24.735 32.9705 24.7339 33.02 24.7339 33.0707C24.7339 35.061 26.3462 36.6734 28.3365 36.6734C30.3257 36.6734 31.938 35.061 31.938 33.0707C31.938 33.0223 31.9368 32.9739 31.9345 32.9267C34.9552 33.5409 37.8375 34.9043 40.1759 36.8935C42.3011 38.7006 43.9917 40.9986 45.1073 43.5525C45.3148 44.025 45.5061 44.5044 45.687 44.9885C46.435 47.0007 47.017 49.0694 47.6439 51.1197C46.8902 51.6763 46.0593 52.2122 45.1823 52.7182C44.0886 53.3486 42.9211 53.9294 41.7421 54.4284Z" fill="#150F84"/>
<path fill-rule="evenodd" clip-rule="evenodd" d="M41.6477 47.6691C41.7803 49.9199 41.6201 52.1787 41.7422 54.4284C42.9212 53.9282 44.0875 53.3485 45.1824 52.7181C44.6534 52.1649 44.1947 51.5426 43.8236 50.8695C42.9362 49.2607 42.5697 47.4271 42.0799 45.6569C41.589 43.8855 40.9539 42.1983 39.6274 40.9248C41.0058 42.8644 41.5071 45.2962 41.6477 47.6691Z" fill="black"/>
<path fill-rule="evenodd" clip-rule="evenodd" d="M28.0125 18.0331C28.1555 18.0182 28.2984 18.0297 28.4413 18.0412C28.6925 18.062 28.9449 18.0827 29.1973 18.1034C29.2803 18.1104 29.3851 18.1057 29.422 18.0297C29.4393 17.9928 29.4335 17.9479 29.4174 17.9098C29.3563 17.7635 29.1777 17.7151 29.021 17.6943C28.6337 17.6459 28.2234 17.6724 27.8604 17.8257C27.789 17.8557 27.3833 18.0412 27.4121 18.1369C27.4375 18.221 27.9319 18.0412 28.0125 18.0331Z" fill="#211A17"/>
<path fill-rule="evenodd" clip-rule="evenodd" d="M33.5106 17.8624C33.3677 17.8578 33.226 17.8797 33.0842 17.9016C32.8341 17.9408 32.5841 17.9799 32.3351 18.0191C32.2521 18.0318 32.1473 18.0353 32.1058 17.9627C32.085 17.9258 32.0873 17.8808 32.1 17.8417C32.1507 17.6918 32.3259 17.6296 32.4803 17.5985C32.863 17.5213 33.2744 17.5178 33.6478 17.6446C33.7204 17.6688 34.1399 17.8244 34.118 17.9212C34.0984 18.0076 33.5925 17.8647 33.5106 17.8624Z" fill="#211A17"/>
<path fill-rule="evenodd" clip-rule="evenodd" d="M33.0625 24.4916C32.7802 25.2269 32.2604 25.734 31.63 25.7859C31.0226 25.8366 30.4464 25.4528 30.0476 24.8166C29.7745 24.3799 29.5843 23.8255 29.5244 23.2089L29.6431 23.1986L33.1536 22.9093L33.2838 22.8989C33.3241 23.4821 33.24 24.0318 33.0625 24.4916Z" fill="#CE7872"/>
<path fill-rule="evenodd" clip-rule="evenodd" d="M33.154 22.9092C32.7645 23.4992 32.1675 23.8969 31.4725 23.9545C30.7776 24.0121 30.1253 23.7171 29.6436 23.1985L33.154 22.9092Z" fill="white"/>
<path fill-rule="evenodd" clip-rule="evenodd" d="M33.0627 24.4916C32.7804 25.2269 32.2606 25.734 31.6302 25.7858C31.0228 25.8366 30.4466 25.4528 30.0479 24.8166C30.2196 24.7037 30.3982 24.6046 30.5861 24.5216C31.1266 24.2807 31.7339 24.1758 32.3182 24.2692C32.5787 24.3107 32.8253 24.3879 33.0627 24.4916Z" fill="#EA8C8B"/>
<path fill-rule="evenodd" clip-rule="evenodd" d="M29.4035 20.3069C29.4185 20.7852 29.1557 21.1817 28.818 21.1909C28.4803 21.2012 28.1957 20.8221 28.1807 20.3438C28.1669 19.8644 28.4285 19.4691 28.7662 19.4587C29.1038 19.4483 29.3896 19.8286 29.4035 20.3069Z" fill="#211A17"/>
<path fill-rule="evenodd" clip-rule="evenodd" d="M28.9607 20.0289C28.7636 20.0347 28.7728 20.3401 28.9699 20.3343C29.167 20.3285 29.1577 20.0231 28.9607 20.0289Z" fill="white"/>
<path fill-rule="evenodd" clip-rule="evenodd" d="M32.6666 20.209C32.6805 20.6873 32.9663 21.0665 33.3039 21.0561C33.6416 21.0457 33.9032 20.6504 33.8894 20.1722C33.8744 19.6927 33.5898 19.3136 33.2521 19.3239C32.9144 19.3343 32.6516 19.7296 32.6666 20.209Z" fill="#211A17"/>
<path fill-rule="evenodd" clip-rule="evenodd" d="M33.4583 19.8033C33.2623 19.8091 33.2704 20.1145 33.4675 20.1087C33.6646 20.103 33.6553 19.7964 33.4583 19.8033Z" fill="white"/>
<path fill-rule="evenodd" clip-rule="evenodd" d="M31.6211 21.2842C31.4217 21.1286 31.1117 21.1332 30.9238 21.3026L31.469 22.2454C31.6211 22.2361 31.7455 22.1094 31.8009 21.9676C31.8942 21.7325 31.8205 21.4398 31.6211 21.2842Z" fill="#CE7872"/>
<path fill-rule="evenodd" clip-rule="evenodd" d="M26.806 21.3374C25.907 21.3996 25.219 22.0416 25.2697 22.7722C25.3204 23.5029 26.0903 24.0446 26.9892 23.9823C27.8881 23.9201 28.5762 23.277 28.5255 22.5463C28.4748 21.8157 27.7049 21.2752 26.806 21.3374Z" fill="#F9BFBB"/>
<path fill-rule="evenodd" clip-rule="evenodd" d="M35.459 21.7799C35.4314 21.3707 34.9992 21.0665 34.4944 21.1011C33.9896 21.1368 33.6036 21.4975 33.6324 21.9066C33.6612 22.3169 34.0934 22.6212 34.597 22.5855C35.1018 22.5509 35.4879 22.1902 35.459 21.7799Z" fill="#F9BFBB"/>
<path fill-rule="evenodd" clip-rule="evenodd" d="M16.8948 44.6621C16.2114 47.5664 15.7492 50.5248 15.5118 53.4993C14.3939 52.7352 13.1469 52.0483 11.8965 51.373C12.2676 51.1148 12.6283 50.8417 12.9775 50.5524C14.2268 49.514 15.3159 48.244 15.9532 46.7492C16.2632 46.0163 16.4027 45.2868 16.8948 44.6621Z" fill="black"/>
<path fill-rule="evenodd" clip-rule="evenodd" d="M26.1649 -0.689984C26.0854 -0.689984 26.0185 -0.75337 26.0162 -0.834043C26.0139 -0.917022 26.0785 -0.985018 26.1603 -0.987323C26.4254 -0.99539 26.6939 -0.998848 26.9601 -1C27.0419 -1 27.1088 -0.933156 27.1088 -0.85133C27.1088 -0.769505 27.0431 -0.702661 26.9601 -0.702661C26.6974 -0.701508 26.4311 -0.698051 26.1695 -0.689984H26.1649ZM28.5508 -0.660007H28.5427C28.2788 -0.674989 28.0126 -0.685361 27.7521 -0.692276C27.6703 -0.694581 27.6046 -0.762577 27.6069 -0.844403C27.6092 -0.927382 27.6795 -0.995378 27.7602 -0.989615C28.023 -0.982701 28.2926 -0.971176 28.5589 -0.957346C28.6407 -0.952736 28.7029 -0.882435 28.6995 -0.800609C28.6949 -0.721088 28.6292 -0.660007 28.5508 -0.660007ZM24.5769 -0.598523C24.5008 -0.598523 24.4363 -0.656146 24.4294 -0.733362C24.4225 -0.816341 24.4835 -0.887794 24.5654 -0.894709C24.8316 -0.917759 25.1001 -0.937351 25.3617 -0.952333C25.447 -0.956943 25.515 -0.893557 25.5196 -0.811731C25.5242 -0.729905 25.4608 -0.659604 25.379 -0.654994C25.1197 -0.640012 24.8546 -0.621572 24.5907 -0.598523H24.5769ZM30.1353 -0.526417L30.118 -0.52757C29.8587 -0.556382 29.5936 -0.582889 29.3308 -0.604786C29.249 -0.611701 29.1891 -0.683154 29.1949 -0.76498C29.2018 -0.846806 29.2744 -0.905582 29.3562 -0.900972C29.6213 -0.879075 29.8886 -0.852568 30.1514 -0.822604C30.2332 -0.814536 30.292 -0.740778 30.2828 -0.658952C30.2747 -0.582889 30.2102 -0.526417 30.1353 -0.526417ZM22.9981 -0.416971C22.9255 -0.416971 22.8609 -0.471138 22.8505 -0.544896C22.839 -0.62557 22.8955 -0.701633 22.9762 -0.713158C23.2412 -0.75119 23.5086 -0.785764 23.7691 -0.815728C23.852 -0.824948 23.9247 -0.766172 23.9339 -0.684346C23.9431 -0.60252 23.8843 -0.529914 23.8036 -0.520694C23.5455 -0.49073 23.2816 -0.456156 23.0188 -0.419276L22.9981 -0.416971ZM31.7095 -0.306201L31.6842 -0.308506C31.4272 -0.3523 31.1632 -0.392637 30.9028 -0.429516C30.8221 -0.441041 30.7656 -0.515952 30.7772 -0.597778C30.7887 -0.678451 30.8636 -0.734923 30.9443 -0.723398C31.2082 -0.686519 31.4744 -0.645029 31.7349 -0.601235C31.8155 -0.587406 31.8697 -0.51019 31.8559 -0.429516C31.8444 -0.35691 31.781 -0.306201 31.7095 -0.306201ZM21.4308 -0.146005C21.3616 -0.146005 21.2994 -0.194409 21.2856 -0.26471C21.2695 -0.345383 21.3213 -0.423752 21.4008 -0.439887C21.6601 -0.4929 21.9252 -0.542457 22.1868 -0.587404C22.2686 -0.601233 22.3447 -0.547067 22.3585 -0.466394C22.3724 -0.38572 22.3182 -0.308504 22.2375 -0.294674C21.9782 -0.249728 21.7166 -0.200171 21.4608 -0.14831L21.4308 -0.146005ZM33.2689 0.00605392C33.2586 0.00605392 33.2471 0.00490153 33.2355 0.0025965C32.9797 -0.0561798 32.7204 -0.112651 32.4622 -0.164513C32.3827 -0.179495 32.3297 -0.257863 32.3458 -0.338537C32.3619 -0.41921 32.4403 -0.472224 32.521 -0.456089C32.7814 -0.403075 33.0442 -0.346604 33.3024 -0.287828C33.383 -0.269388 33.4326 -0.189867 33.4142 -0.109194C33.398 -0.0400451 33.3369 0.00605392 33.2689 0.00605392ZM19.8816 0.215883C19.816 0.215883 19.756 0.170936 19.7376 0.105245C19.7168 0.0257238 19.7641 -0.0561022 19.8436 -0.0768467C20.1006 -0.144843 20.3622 -0.209382 20.6204 -0.26931C20.6999 -0.28775 20.7794 -0.238194 20.799 -0.158673C20.8175 -0.0779992 20.7667 0.00152171 20.6872 0.0199614C20.4325 0.0798903 20.1744 0.143276 19.9197 0.21012C19.907 0.213578 19.8943 0.215883 19.8816 0.215883ZM34.8085 0.40719C34.7946 0.40719 34.7808 0.404885 34.767 0.401428C34.5123 0.327669 34.2564 0.256216 34.004 0.190524C33.9245 0.16978 33.8773 0.0891066 33.898 0.00958562C33.9188 -0.0699353 33.9994 -0.118339 34.079 -0.0975948C34.3337 -0.0307511 34.593 0.0407025 34.85 0.115613C34.9283 0.138663 34.9733 0.220489 34.9514 0.30001C34.9318 0.364549 34.873 0.40719 34.8085 0.40719ZM18.3558 0.66529C18.2936 0.66529 18.2359 0.624953 18.2152 0.56272C18.1898 0.484351 18.2325 0.400221 18.3097 0.374866C18.5632 0.291888 18.8202 0.212367 19.0738 0.137456C19.1522 0.114406 19.2351 0.159353 19.2582 0.238874C19.2812 0.317242 19.2363 0.400221 19.1579 0.42327C18.9067 0.497028 18.652 0.575397 18.4019 0.657223C18.3869 0.661833 18.3719 0.66529 18.3558 0.66529ZM36.3241 0.897061C36.308 0.897061 36.2907 0.894756 36.2746 0.887841C36.028 0.800253 35.7756 0.71497 35.5232 0.633144C35.4448 0.60779 35.4022 0.524811 35.4275 0.446443C35.4517 0.368074 35.5359 0.325433 35.6142 0.350787C35.8701 0.432613 36.1248 0.520201 36.3737 0.60779C36.4509 0.635449 36.4912 0.720732 36.4647 0.797948C36.4428 0.85903 36.3852 0.897061 36.3241 0.897061ZM16.8587 1.20106C16.7999 1.20106 16.7434 1.16533 16.7204 1.10655C16.6904 1.03049 16.7284 0.944056 16.8045 0.914091C17.0523 0.817284 17.3047 0.72278 17.5536 0.632887C17.6308 0.605228 17.7161 0.645564 17.7438 0.72278C17.7714 0.799996 17.7311 0.88528 17.6539 0.912939C17.4072 1.00168 17.1583 1.09503 16.9128 1.19069C16.8955 1.1976 16.8771 1.20106 16.8587 1.20106ZM37.8108 1.47318C37.7924 1.47318 37.7728 1.46973 37.7532 1.46166C37.51 1.35909 37.2623 1.25882 37.0179 1.16432C36.9419 1.13436 36.9038 1.04907 36.9338 0.971856C36.9626 0.895793 37.049 0.857761 37.1263 0.886573C37.3729 0.983381 37.623 1.08365 37.8685 1.18852C37.9445 1.21964 37.9803 1.30723 37.948 1.38329C37.9238 1.43976 37.8696 1.47318 37.8108 1.47318ZM15.3999 1.82123C15.3434 1.82123 15.2904 1.78896 15.2651 1.73365C15.2305 1.65989 15.2639 1.57115 15.3388 1.53657C15.5797 1.42593 15.8252 1.3176 16.0672 1.21503C16.1432 1.18276 16.2308 1.21849 16.2619 1.2934C16.2942 1.36946 16.2596 1.45705 16.1836 1.48817C15.9439 1.59074 15.7007 1.69792 15.4621 1.8074C15.4425 1.81662 15.4206 1.82123 15.3999 1.82123ZM39.2617 2.13473C39.2399 2.13473 39.2168 2.13012 39.1961 2.11975C38.9586 2.00335 38.7178 1.88925 38.4792 1.78092C38.4043 1.74634 38.372 1.65876 38.4055 1.58384C38.44 1.50893 38.5288 1.47666 38.6025 1.51009C38.8434 1.61957 39.0877 1.73482 39.3274 1.85237C39.4012 1.88925 39.4312 1.97799 39.3954 2.05175C39.3689 2.10476 39.3159 2.13473 39.2617 2.13473ZM13.9777 2.52299C13.9247 2.52299 13.8728 2.49417 13.8463 2.44346C13.8083 2.37086 13.8359 2.28097 13.9085 2.24293C14.1436 2.11847 14.3822 1.9963 14.6185 1.8799C14.6922 1.84302 14.781 1.87299 14.8178 1.94675C14.8536 2.02051 14.8236 2.1104 14.7498 2.14613C14.517 2.26137 14.2808 2.38238 14.048 2.5057C14.0249 2.51722 14.0019 2.52299 13.9777 2.52299ZM40.6714 2.87808C40.646 2.87808 40.6218 2.87232 40.5976 2.85964C40.3694 2.72941 40.1355 2.60149 39.9027 2.47932C39.8301 2.44129 39.8024 2.3514 39.8404 2.27879C39.8785 2.20619 39.9684 2.17853 40.041 2.21656C40.2761 2.33987 40.5123 2.46895 40.744 2.60033C40.8154 2.64067 40.8408 2.73056 40.8004 2.80202C40.7728 2.85042 40.7232 2.87808 40.6714 2.87808ZM12.5969 3.30543C12.5473 3.30543 12.4978 3.28007 12.4701 3.23397C12.4275 3.16367 12.4494 3.07263 12.5197 3.02998C12.7467 2.89284 12.9784 2.75685 13.2089 2.62662C13.2803 2.58628 13.3702 2.61048 13.4117 2.68194C13.452 2.75339 13.4267 2.84444 13.3552 2.88477C13.127 3.01385 12.8977 3.14869 12.6741 3.28468C12.6499 3.29851 12.6234 3.30543 12.5969 3.30543ZM42.0345 3.70083C42.0069 3.70083 41.9792 3.69276 41.955 3.67663C41.7326 3.53372 41.5056 3.39312 41.282 3.25828C41.2117 3.21564 41.1898 3.12459 41.2324 3.05429C41.2739 2.98399 41.3661 2.96094 41.4364 3.00358C41.6623 3.13957 41.8905 3.28248 42.1152 3.42654C42.1844 3.47149 42.2051 3.56253 42.1602 3.63168C42.1313 3.67663 42.0841 3.70083 42.0345 3.70083ZM11.2636 4.16666C11.2152 4.16666 11.1691 4.14361 11.1402 4.10213C11.0941 4.03413 11.1114 3.94193 11.1783 3.89583C11.3973 3.74486 11.6208 3.59619 11.8433 3.45328C11.9124 3.40833 12.0046 3.42793 12.0496 3.49708C12.0933 3.56622 12.0738 3.65842 12.0046 3.70337C11.7845 3.84512 11.5632 3.99264 11.3465 4.14016C11.3212 4.1586 11.2924 4.16666 11.2636 4.16666ZM43.3496 4.59878C43.3196 4.59878 43.2885 4.58956 43.262 4.57112C43.0511 4.41669 42.8333 4.26341 42.6155 4.11474C42.5475 4.06864 42.5302 3.97529 42.5763 3.90845C42.6224 3.84045 42.7157 3.82316 42.7826 3.86926C43.0039 4.02024 43.224 4.17467 43.4372 4.33025C43.5029 4.37866 43.5179 4.47201 43.4695 4.5377C43.4407 4.57804 43.3957 4.59878 43.3496 4.59878ZM9.97969 5.1023C9.93474 5.1023 9.89095 5.08271 9.86099 5.04468C9.81143 4.97899 9.82296 4.88563 9.88865 4.83608C10.0984 4.67358 10.3128 4.51223 10.5271 4.35665C10.5928 4.30824 10.6862 4.32207 10.7346 4.38892C10.783 4.45461 10.768 4.54796 10.7023 4.59636C10.4902 4.7508 10.277 4.90984 10.0696 5.07118C10.0431 5.09193 10.0108 5.1023 9.97969 5.1023ZM44.6093 5.57002C44.577 5.57002 44.5436 5.55964 44.5159 5.53659C44.3119 5.37064 44.1033 5.20468 43.8959 5.04449C43.8313 4.99493 43.8187 4.90158 43.8694 4.83589C43.9189 4.77135 44.0123 4.75867 44.078 4.80938C44.2877 4.97073 44.4986 5.13784 44.7038 5.3061C44.7672 5.35796 44.7775 5.45246 44.7245 5.51585C44.6957 5.55158 44.6531 5.57002 44.6093 5.57002ZM8.75 6.10973C8.70851 6.10973 8.66702 6.09245 8.63821 6.05787C8.58404 5.99679 8.59096 5.90229 8.65204 5.84812C8.85372 5.6741 9.05886 5.50123 9.26285 5.33296C9.32624 5.2811 9.42074 5.29032 9.4726 5.35371C9.52446 5.41825 9.51524 5.5116 9.45186 5.56346C9.24902 5.72942 9.04619 5.89998 8.84796 6.07285C8.81915 6.09706 8.78457 6.10973 8.75 6.10973ZM45.8136 6.61202C45.7767 6.61202 45.741 6.59819 45.7122 6.57284C45.5197 6.39651 45.3215 6.21903 45.1221 6.04616C45.0599 5.99314 45.053 5.89864 45.1071 5.8364C45.1601 5.77417 45.2547 5.76726 45.3169 5.82142C45.5186 5.9966 45.7191 6.17523 45.9139 6.35387C45.9738 6.40919 45.9784 6.50254 45.9231 6.56362C45.8931 6.59589 45.8528 6.61202 45.8136 6.61202ZM7.57878 7.18484C7.54075 7.18484 7.50157 7.16986 7.47275 7.13989C7.41513 7.08112 7.41628 6.98776 7.47506 6.93014C7.66522 6.74574 7.85999 6.56019 8.05591 6.38041C8.11699 6.32509 8.21034 6.32855 8.26681 6.38963C8.32213 6.44956 8.31752 6.54406 8.25759 6.59938C8.06397 6.77801 7.87036 6.9601 7.6825 7.14335C7.65369 7.17101 7.61681 7.18484 7.57878 7.18484ZM46.9546 7.71983C46.9154 7.71983 46.8773 7.70484 46.8485 7.67488C46.663 7.48472 46.4751 7.29687 46.2884 7.11593C46.2297 7.0583 46.2274 6.96495 46.285 6.90503C46.3426 6.84625 46.436 6.8451 46.4947 6.90272C46.6837 7.08481 46.8739 7.27497 47.0606 7.46743C47.1182 7.52621 47.1171 7.61956 47.0583 7.67719C47.0295 7.70484 46.9914 7.71983 46.9546 7.71983ZM6.47148 8.32581C6.43575 8.32581 6.40003 8.31313 6.37121 8.28662C6.31013 8.2313 6.30667 8.13795 6.36199 8.07687C6.54178 7.88095 6.72618 7.68503 6.91057 7.49602C6.9682 7.43725 7.0627 7.43494 7.12148 7.49257C7.18025 7.55019 7.18141 7.64354 7.12378 7.70232C6.94169 7.89017 6.7596 8.08379 6.58096 8.2774C6.55215 8.30967 6.51182 8.32581 6.47148 8.32581ZM48.0309 8.88926C47.9894 8.88926 47.9479 8.87197 47.9191 8.8374C47.7463 8.64032 47.5688 8.44094 47.3913 8.24848C47.336 8.18855 47.3394 8.09405 47.4005 8.03873C47.4604 7.98341 47.5549 7.98687 47.6103 8.0468C47.79 8.24272 47.9687 8.44325 48.1427 8.64263C48.1969 8.70486 48.19 8.79821 48.1277 8.85238C48.1001 8.87658 48.0655 8.88926 48.0309 8.88926ZM5.4298 9.52915C5.39638 9.52915 5.36295 9.51762 5.33529 9.49573C5.27191 9.44271 5.26269 9.34936 5.31455 9.28598C5.48166 9.08199 5.65453 8.8757 5.82971 8.67401C5.88387 8.61178 5.97722 8.60486 6.03946 8.65903C6.10169 8.7132 6.10861 8.80655 6.05444 8.86878C5.88157 9.06816 5.70985 9.27215 5.54504 9.47383C5.51508 9.51071 5.47244 9.52915 5.4298 9.52915ZM49.0383 10.1179C48.9945 10.1179 48.9507 10.0983 48.9208 10.0603C48.7617 9.85513 48.5969 9.64653 48.4287 9.44254C48.3768 9.37801 48.386 9.28465 48.4494 9.23279C48.5128 9.18093 48.6061 9.19015 48.6592 9.25354C48.8286 9.45983 48.9957 9.67073 49.1559 9.87818C49.2066 9.94272 49.1951 10.0361 49.1294 10.0868C49.1029 10.1075 49.0706 10.1179 49.0383 10.1179ZM4.45713 10.7888C4.42717 10.7888 4.3972 10.7796 4.37069 10.76C4.30385 10.7116 4.28887 10.6194 4.33727 10.5525C4.49401 10.337 4.65536 10.1215 4.8167 9.91292C4.86741 9.84723 4.96076 9.8357 5.0253 9.88526C5.09099 9.93597 5.10252 10.0293 5.05296 10.0939C4.89277 10.3013 4.73257 10.5145 4.57814 10.7277C4.54933 10.7681 4.50323 10.7888 4.45713 10.7888ZM49.9753 11.4007C49.928 11.4007 49.8808 11.3788 49.852 11.3373C49.7045 11.1206 49.5512 10.9039 49.3956 10.6919C49.3472 10.625 49.3622 10.5328 49.429 10.4844C49.4947 10.436 49.5881 10.4499 49.6365 10.5167C49.7932 10.7311 49.9476 10.95 50.0974 11.1679C50.1435 11.2358 50.1274 11.328 50.0594 11.3753C50.0341 11.3926 50.0041 11.4007 49.9753 11.4007ZM3.55788 12.1025C3.53022 12.1025 3.50256 12.0944 3.47836 12.0794C3.40921 12.0345 3.38846 11.9423 3.43341 11.8731C3.57747 11.6496 3.72614 11.4248 3.87596 11.207C3.92206 11.139 4.01426 11.1217 4.08225 11.1678C4.15025 11.2139 4.16754 11.3073 4.12144 11.3741C3.97277 11.5908 3.8264 11.812 3.6835 12.0345C3.65468 12.0783 3.60743 12.1025 3.55788 12.1025ZM50.836 12.7354C50.7865 12.7354 50.7369 12.7101 50.7093 12.664C50.5733 12.4392 50.4315 12.2133 50.2898 11.9944C50.246 11.9252 50.2656 11.833 50.3347 11.7892C50.4039 11.7443 50.496 11.7639 50.5398 11.833C50.6828 12.0554 50.8257 12.2825 50.9628 12.5095C51.0054 12.5798 50.9835 12.6709 50.9132 12.7135C50.889 12.7285 50.8625 12.7354 50.836 12.7354ZM2.73504 13.4659C2.71084 13.4659 2.68548 13.4602 2.66243 13.4475C2.59098 13.4072 2.56562 13.3161 2.60596 13.2447C2.73734 13.013 2.87333 12.7802 3.00933 12.5532C3.05197 12.4829 3.14301 12.4598 3.21447 12.5025C3.28477 12.5451 3.30667 12.6362 3.26402 12.7065C3.12918 12.9312 2.99434 13.1617 2.86411 13.391C2.83761 13.4394 2.7869 13.4659 2.73504 13.4659ZM51.6196 14.1158C51.5666 14.1158 51.5147 14.087 51.4882 14.0363C51.3649 13.8035 51.237 13.5707 51.1079 13.3448C51.0676 13.2733 51.0929 13.1823 51.1644 13.142C51.2358 13.1016 51.3269 13.1258 51.3672 13.1973C51.4975 13.4266 51.6265 13.6617 51.751 13.8968C51.789 13.9694 51.7614 14.0593 51.6888 14.0974C51.6669 14.11 51.6427 14.1158 51.6196 14.1158ZM1.99193 14.8753C1.97003 14.8753 1.94698 14.8707 1.92623 14.8604C1.85248 14.8235 1.82251 14.7347 1.85824 14.661C1.97579 14.4224 2.09795 14.1815 2.22242 13.9476C2.26045 13.875 2.35035 13.8473 2.42295 13.8854C2.49556 13.9234 2.52322 14.0133 2.48519 14.0859C2.36302 14.3175 2.24201 14.5561 2.12561 14.7924C2.09911 14.8454 2.04609 14.8753 1.99193 14.8753ZM52.3227 15.537C52.2663 15.537 52.2121 15.5047 52.1879 15.4505C52.0784 15.2143 51.9643 14.9745 51.8479 14.7383C51.8122 14.6645 51.8422 14.5758 51.9159 14.5401C51.9885 14.5032 52.0784 14.5331 52.1141 14.6069C52.2328 14.8443 52.3481 15.0875 52.4576 15.326C52.4921 15.401 52.4599 15.4897 52.385 15.5243C52.3642 15.5335 52.3435 15.537 52.3227 15.537ZM1.32925 16.3253C1.31081 16.3253 1.29122 16.3218 1.27163 16.3137C1.19672 16.2815 1.16099 16.195 1.19326 16.119C1.29583 15.8735 1.40532 15.6269 1.5148 15.3848C1.54938 15.3111 1.63696 15.2777 1.71187 15.3122C1.78679 15.3456 1.82021 15.4344 1.78563 15.5081C1.67615 15.7479 1.56897 15.9922 1.4664 16.2342C1.44335 16.2918 1.38803 16.3253 1.32925 16.3253ZM52.9429 16.9958C52.883 16.9958 52.8276 16.9601 52.8046 16.9013C52.7101 16.6593 52.6098 16.4138 52.5061 16.1718C52.475 16.0957 52.5096 16.0093 52.5856 15.977C52.6605 15.9448 52.7481 15.9805 52.7804 16.0554C52.8841 16.3009 52.9855 16.5487 53.0812 16.793C53.1112 16.8702 53.0731 16.9555 52.9971 16.9854C52.9798 16.9924 52.9613 16.9958 52.9429 16.9958ZM0.751681 17.8118C0.735546 17.8118 0.718259 17.8095 0.702124 17.8038C0.624908 17.7761 0.584571 17.6908 0.612231 17.6136C0.700972 17.3635 0.795475 17.11 0.89113 16.8622C0.921095 16.7861 1.00753 16.7481 1.08359 16.7769C1.16081 16.8069 1.19884 16.8933 1.16888 16.9694C1.07322 17.216 0.979871 17.4661 0.892283 17.7139C0.870386 17.775 0.812762 17.8118 0.751681 17.8118ZM53.4797 18.4931C53.4175 18.4931 53.3587 18.4539 53.3379 18.3905C53.2573 18.1415 53.1708 17.8903 53.0821 17.6425C53.0544 17.5653 53.0948 17.48 53.172 17.4524C53.2492 17.4247 53.3345 17.465 53.3622 17.5423C53.452 17.7923 53.5385 18.047 53.6215 18.2983C53.6468 18.3767 53.6042 18.4608 53.5258 18.4861C53.5108 18.4907 53.4947 18.4931 53.4797 18.4931ZM0.261954 19.3285C0.248125 19.3285 0.233142 19.3262 0.219313 19.3216C0.140944 19.2985 0.0959978 19.2167 0.119047 19.1372C0.192806 18.8836 0.272327 18.6266 0.354152 18.3731C0.379507 18.2959 0.462485 18.2532 0.540854 18.2774C0.619222 18.3028 0.661864 18.3869 0.636509 18.4653C0.555836 18.7165 0.477467 18.9701 0.403709 19.2213C0.385269 19.2858 0.326493 19.3285 0.261954 19.3285ZM53.9305 20.0188C53.8637 20.0188 53.8038 19.975 53.7865 19.9082C53.7196 19.6535 53.647 19.3976 53.5733 19.1464C53.5502 19.0669 53.5952 18.985 53.6735 18.9608C53.7531 18.9378 53.836 18.9827 53.8591 19.0622C53.934 19.3158 54.0055 19.5751 54.0735 19.8321C54.0953 19.9116 54.0469 19.9923 53.9686 20.013C53.9559 20.0165 53.9432 20.0188 53.9305 20.0188ZM-0.140346 20.8672C-0.150718 20.8672 -0.162243 20.8661 -0.173767 20.8637C-0.253288 20.8442 -0.303997 20.7646 -0.285558 20.6851C-0.225629 20.427 -0.162243 20.1665 -0.0942466 19.9083C-0.0735021 19.8288 0.00717127 19.7816 0.0866921 19.8023C0.166213 19.8231 0.213464 19.9037 0.19272 19.9833C0.127029 20.2391 0.0636426 20.4973 0.00486636 20.752C-0.0112684 20.82 -0.0723496 20.8672 -0.140346 20.8672ZM54.2912 21.5667C54.2221 21.5667 54.1599 21.5182 54.146 21.4479C54.0942 21.1921 54.0377 20.9328 53.9778 20.6758C53.9582 20.5951 54.0077 20.5156 54.0884 20.4972C54.1679 20.4787 54.2486 20.5283 54.267 20.6078C54.3281 20.8671 54.3846 21.1299 54.4376 21.3892C54.4537 21.4698 54.4019 21.5482 54.3212 21.5643L54.2912 21.5667ZM-0.452767 22.4265L-0.478121 22.4241C-0.558794 22.4103 -0.612961 22.3331 -0.599131 22.2524C-0.555337 21.9908 -0.50578 21.7269 -0.453919 21.4664C-0.437784 21.3858 -0.359416 21.3339 -0.278743 21.35C-0.198069 21.3662 -0.146208 21.4445 -0.162343 21.5252C-0.214204 21.7822 -0.262608 22.0438 -0.306402 22.3031C-0.319079 22.3746 -0.381313 22.4265 -0.452767 22.4265ZM54.5643 23.134C54.4906 23.134 54.4272 23.0809 54.4168 23.006C54.3788 22.7456 54.3373 22.4828 54.2923 22.2258C54.2785 22.144 54.3327 22.0679 54.4133 22.0529C54.494 22.0391 54.5712 22.0933 54.5862 22.1739C54.6312 22.4356 54.6738 22.7006 54.7107 22.9645C54.7234 23.0452 54.6669 23.1213 54.5851 23.1328L54.5643 23.134ZM-0.675158 24.0009L-0.692445 23.9998C-0.774271 23.9905 -0.833047 23.9168 -0.823827 23.8361C-0.793863 23.5722 -0.760441 23.306 -0.72241 23.0432C-0.710885 22.9614 -0.635974 22.9061 -0.5553 22.9164C-0.473475 22.928 -0.417003 23.0029 -0.428528 23.0847C-0.465407 23.344 -0.498829 23.6079 -0.527641 23.8684C-0.536861 23.9444 -0.6014 24.0009 -0.675158 24.0009ZM54.7464 24.7139C54.6704 24.7139 54.6047 24.6551 54.5978 24.5779C54.5759 24.3151 54.5482 24.0512 54.5183 23.7908C54.509 23.7089 54.5678 23.6352 54.6496 23.626C54.7315 23.6167 54.8052 23.6755 54.8144 23.7573C54.8444 24.019 54.8709 24.2863 54.894 24.5525C54.902 24.6344 54.8409 24.7058 54.7591 24.7127L54.7464 24.7139ZM-0.808407 25.5855H-0.816474C-0.8983 25.5809 -0.961686 25.5106 -0.957076 25.4287C-0.942094 25.1648 -0.923654 24.8963 -0.901757 24.6312C-0.894842 24.5494 -0.822236 24.4906 -0.740411 24.4952C-0.658585 24.5021 -0.597504 24.5748 -0.604418 24.6566C-0.626315 24.9182 -0.644755 25.1833 -0.659737 25.4449C-0.664347 25.5244 -0.730038 25.5855 -0.808407 25.5855ZM54.8386 26.302C54.7579 26.302 54.6922 26.2375 54.6899 26.1568C54.6819 25.8964 54.6704 25.6301 54.6554 25.3662C54.6508 25.2856 54.713 25.2141 54.7948 25.2095C54.8766 25.2026 54.9469 25.2671 54.9516 25.3501C54.9677 25.6163 54.9792 25.8848 54.9873 26.1488C54.9896 26.2306 54.9251 26.2986 54.8432 26.3009L54.8386 26.302ZM-0.851331 27.1758C-0.933156 27.1758 -1 27.1089 -1 27.0271V27.0006C-1 26.7436 -0.996543 26.4831 -0.989628 26.2273C-0.987323 26.1454 -0.920479 26.0774 -0.837501 26.0832C-0.754523 26.0855 -0.689984 26.1535 -0.692289 26.2353C-0.699204 26.4889 -0.702661 26.7459 -0.702661 27.0006V27.0271C-0.702661 27.1089 -0.769505 27.1758 -0.851331 27.1758ZM54.8399 27.9444H54.8364C54.7534 27.9421 54.6889 27.8729 54.6912 27.7911C54.6993 27.5272 54.7027 27.261 54.7027 27.0005V26.9475C54.7027 26.8657 54.7696 26.7988 54.8514 26.7988C54.9332 26.7988 55.0001 26.8657 55.0001 26.9475V27.0005C55.0001 27.2644 54.9966 27.533 54.9885 27.7992C54.9862 27.8798 54.9205 27.9444 54.8399 27.9444ZM-0.805254 28.7649C-0.883622 28.7649 -0.949313 28.7039 -0.953923 28.6243C-0.968905 28.3593 -0.98043 28.0907 -0.988497 27.8257C-0.990802 27.7439 -0.926264 27.6759 -0.843285 27.6735H-0.839828C-0.759155 27.6735 -0.693464 27.7369 -0.691159 27.8176C-0.683091 28.0792 -0.671566 28.3454 -0.656584 28.6082C-0.651974 28.69 -0.715361 28.7603 -0.797186 28.7649H-0.805254ZM54.751 29.5317H54.7384C54.6565 29.5247 54.5955 29.4533 54.6024 29.3715C54.6254 29.1076 54.6439 28.8425 54.6577 28.582C54.6623 28.5002 54.7338 28.4403 54.8144 28.4414C54.8974 28.446 54.9596 28.5163 54.955 28.5982C54.9401 28.8621 54.9216 29.1306 54.8986 29.3957C54.8928 29.474 54.8271 29.5317 54.751 29.5317ZM-0.669196 30.3495C-0.742954 30.3495 -0.807493 30.2931 -0.816713 30.217C-0.846677 29.9531 -0.873184 29.6846 -0.896234 29.4218C-0.903148 29.34 -0.842067 29.2685 -0.760241 29.2616C-0.678416 29.2535 -0.606962 29.3146 -0.600047 29.3964C-0.576998 29.6569 -0.550491 29.922 -0.520526 30.1836C-0.511306 30.2654 -0.570083 30.3392 -0.651909 30.3484L-0.669196 30.3495ZM54.5712 31.1113L54.5504 31.1102C54.4698 31.0986 54.4133 31.0237 54.4237 30.9419C54.4617 30.6814 54.4951 30.4175 54.5251 30.1582C54.5343 30.0764 54.6069 30.0165 54.6887 30.0268C54.7706 30.0361 54.8293 30.1098 54.8201 30.1916C54.7902 30.4533 54.7556 30.7206 54.7187 30.9845C54.7083 31.0583 54.6449 31.1113 54.5712 31.1113ZM-0.444752 31.9241C-0.515053 31.9241 -0.57844 31.8734 -0.591117 31.8008C-0.636063 31.538 -0.677553 31.2718 -0.715584 31.0113C-0.727109 30.9295 -0.670638 30.8546 -0.588812 30.843C-0.508139 30.8315 -0.433228 30.8868 -0.42055 30.9687C-0.383671 31.2268 -0.342182 31.4896 -0.297235 31.75C-0.283406 31.8307 -0.337572 31.9079 -0.419398 31.9218L-0.444752 31.9241ZM54.3028 32.679L54.2728 32.6767C54.1921 32.6606 54.1403 32.5822 54.1564 32.5015C54.2083 32.2445 54.2567 31.9829 54.3016 31.7236C54.3154 31.6429 54.3938 31.5888 54.4733 31.6026C54.554 31.6164 54.6082 31.6937 54.5943 31.7743C54.5494 32.0359 54.4998 32.301 54.448 32.5603C54.4341 32.6306 54.3719 32.679 54.3028 32.679ZM-0.128859 33.4824C-0.195702 33.4824 -0.256784 33.4363 -0.272918 33.3671C-0.334 33.109 -0.390471 32.8462 -0.443485 32.5869C-0.45962 32.5062 -0.407758 32.4278 -0.327085 32.4117C-0.246411 32.3956 -0.168043 32.4474 -0.151908 32.527C-0.100047 32.784 -0.0435755 33.0444 0.0163532 33.3003C0.0347929 33.3798 -0.0147637 33.4605 -0.0942845 33.4789C-0.105809 33.4812 -0.117334 33.4824 -0.128859 33.4824ZM53.943 34.2289C53.9303 34.2289 53.9188 34.2266 53.9061 34.2243C53.8266 34.2036 53.7781 34.1217 53.7989 34.0422C53.8657 33.7898 53.9291 33.5305 53.9891 33.2747C54.0075 33.194 54.087 33.1445 54.1677 33.1629C54.2472 33.1813 54.2968 33.262 54.2783 33.3415C54.2184 33.6008 54.1539 33.8613 54.087 34.1171C54.0697 34.184 54.0098 34.2289 53.943 34.2289ZM0.275733 35.0208C0.212347 35.0208 0.152418 34.9781 0.133978 34.9136C0.0590674 34.6589 -0.0135387 34.3996 -0.0803823 34.1437C-0.102279 34.0642 -0.0538753 33.9824 0.0256455 33.9616C0.105166 33.9409 0.18584 33.9881 0.206584 34.0677C0.273428 34.3212 0.344881 34.5771 0.41864 34.8295C0.441689 34.909 0.396743 34.9908 0.318374 35.015C0.304545 35.0185 0.290715 35.0208 0.275733 35.0208ZM53.4958 35.7546C53.4808 35.7546 53.4658 35.7523 53.4497 35.7477C53.3725 35.7224 53.3287 35.6382 53.354 35.5599C53.4359 35.3109 53.5142 35.0574 53.588 34.805C53.611 34.7255 53.694 34.6805 53.7724 34.7036C53.8507 34.7266 53.8968 34.8096 53.8738 34.888C53.7989 35.1438 53.7194 35.4008 53.6375 35.6521C53.6168 35.7154 53.5592 35.7546 53.4958 35.7546ZM0.769073 36.5327C0.707992 36.5327 0.650368 36.4947 0.628471 36.4336C0.538578 36.1824 0.452143 35.9288 0.370317 35.6776C0.344962 35.5992 0.387604 35.5151 0.465972 35.4897C0.543188 35.4644 0.627319 35.507 0.652673 35.5854C0.733347 35.8332 0.819782 36.0856 0.908523 36.3345C0.936182 36.4117 0.895846 36.4958 0.81863 36.5235C0.802495 36.5304 0.785208 36.5327 0.769073 36.5327ZM52.9599 37.2577C52.9415 37.2577 52.9242 37.2542 52.9058 37.2473C52.8297 37.2185 52.7917 37.1321 52.8216 37.0549C52.9173 36.8082 53.0106 36.5581 53.0982 36.3115C53.1259 36.2343 53.2112 36.194 53.2884 36.2216C53.3656 36.2493 53.4059 36.3346 53.3783 36.4118C53.2895 36.6607 53.195 36.9142 53.0982 37.1632C53.0752 37.222 53.0199 37.2577 52.9599 37.2577ZM1.34642 38.0113C1.2888 38.0113 1.23348 37.9778 1.20928 37.9214C1.10671 37.6782 1.00529 37.4293 0.908482 37.1826C0.879671 37.1066 0.91655 37.0201 0.993766 36.9902C1.06983 36.9602 1.15626 36.9982 1.18623 37.0743C1.28073 37.3186 1.381 37.5641 1.48357 37.805C1.51468 37.881 1.48011 37.9675 1.40405 37.9997C1.38561 38.0078 1.36602 38.0113 1.34642 38.0113ZM52.3389 38.726C52.3181 38.726 52.2962 38.7225 52.2767 38.7133C52.2017 38.6787 52.1695 38.59 52.2029 38.5162C52.3135 38.2753 52.4207 38.031 52.5233 37.7901C52.5544 37.7141 52.642 37.6795 52.7181 37.7106C52.793 37.7429 52.8287 37.8305 52.7964 37.9054C52.6939 38.1497 52.5844 38.3963 52.4737 38.6395C52.4484 38.6937 52.3954 38.726 52.3389 38.726ZM2.00665 39.4532C1.95249 39.4532 1.89947 39.4233 1.87297 39.3703C1.75657 39.134 1.64132 38.892 1.53068 38.65C1.49611 38.5762 1.52953 38.4875 1.60444 38.4529C1.6782 38.4195 1.76694 38.4517 1.80151 38.5266C1.911 38.7652 2.02509 39.0049 2.14034 39.2389C2.17607 39.3126 2.1461 39.4014 2.07234 39.4383C2.0516 39.4486 2.02855 39.4532 2.00665 39.4532ZM51.6337 40.156C51.6106 40.156 51.5864 40.1503 51.5645 40.1388C51.4919 40.0996 51.4642 40.0097 51.5023 39.9371C51.6256 39.7043 51.7477 39.4669 51.863 39.2318C51.8999 39.158 51.9886 39.128 52.0624 39.1638C52.1361 39.2006 52.1661 39.2894 52.1292 39.3631C52.0128 39.6005 51.8907 39.8403 51.765 40.0765C51.7385 40.1272 51.6867 40.156 51.6337 40.156ZM2.74894 40.8557C2.69708 40.8557 2.64637 40.828 2.61986 40.7796C2.48848 40.5491 2.3594 40.314 2.23609 40.08C2.19806 40.0074 2.22572 39.9175 2.29832 39.8795C2.37093 39.8415 2.46082 39.8691 2.49885 39.9417C2.62101 40.1722 2.74894 40.405 2.87802 40.6332C2.91835 40.7047 2.893 40.7957 2.82155 40.8361C2.7985 40.8487 2.77429 40.8557 2.74894 40.8557ZM50.8489 41.5413C50.8223 41.5413 50.7958 41.5356 50.7716 41.5206C50.7013 41.4779 50.6794 41.3869 50.7221 41.3166C50.8581 41.0919 50.9918 40.8614 51.122 40.632C51.1623 40.5617 51.2534 40.5364 51.3248 40.5767C51.3963 40.617 51.4216 40.7081 51.3813 40.7795C51.2499 41.0112 51.1139 41.2428 50.9756 41.4699C50.948 41.516 50.8996 41.5413 50.8489 41.5413ZM3.57085 42.2144C3.52245 42.2144 3.47404 42.1902 3.44523 42.1452C3.30232 41.9228 3.16057 41.6958 3.02343 41.4687C2.98078 41.3984 3.00268 41.3074 3.07298 41.2647C3.14328 41.2221 3.23433 41.2452 3.27697 41.3155C3.41296 41.539 3.55356 41.7649 3.69532 41.985C3.74027 42.0542 3.72067 42.1452 3.65152 42.1902C3.62617 42.2063 3.59851 42.2144 3.57085 42.2144ZM49.9867 42.8807C49.9568 42.8807 49.9279 42.8715 49.9026 42.8542C49.8346 42.8081 49.8173 42.7159 49.8634 42.6479C50.0121 42.4313 50.1596 42.2088 50.3025 41.9887C50.3463 41.9196 50.4385 41.9 50.5076 41.9438C50.5768 41.9887 50.5964 42.0809 50.5526 42.1489C50.4085 42.3725 50.2587 42.5972 50.1089 42.8162C50.0801 42.8577 50.034 42.8807 49.9867 42.8807ZM4.46856 43.5236C4.42246 43.5236 4.37752 43.5028 4.34755 43.4625C4.19312 43.2505 4.03753 43.0303 3.88771 42.8102C3.84046 42.7434 3.85775 42.65 3.92574 42.6039C3.99374 42.5578 4.08594 42.5751 4.13204 42.6431C4.28186 42.8598 4.43514 43.0776 4.58842 43.2873C4.63682 43.3542 4.62184 43.4475 4.55615 43.4959C4.52964 43.5144 4.49853 43.5236 4.46856 43.5236ZM49.0487 44.1668C49.0175 44.1668 48.9853 44.1564 48.9576 44.1356C48.8931 44.0861 48.8815 43.9927 48.9311 43.927C49.0913 43.7207 49.2515 43.5075 49.4071 43.2943C49.4543 43.2275 49.5477 43.2137 49.6145 43.2621C49.6802 43.3105 49.6952 43.4027 49.6468 43.4695C49.4901 43.685 49.3287 43.9005 49.1662 44.1091C49.1374 44.1472 49.0936 44.1668 49.0487 44.1668ZM5.44007 44.7808C5.39627 44.7808 5.35363 44.7624 5.32482 44.7267C5.15541 44.5204 4.9883 44.3106 4.82695 44.102C4.77739 44.0363 4.78892 43.943 4.85461 43.8934C4.91915 43.8427 5.0125 43.8543 5.06321 43.9199C5.22225 44.1262 5.38705 44.3348 5.55416 44.5388C5.60602 44.6022 5.5968 44.6956 5.53342 44.7474C5.50576 44.7705 5.47234 44.7808 5.44007 44.7808ZM48.0401 45.3975C48.0055 45.3975 47.9709 45.386 47.9433 45.3618C47.881 45.3076 47.8741 45.2131 47.9283 45.152C48.1 44.9527 48.2717 44.7498 48.4388 44.547C48.4907 44.4836 48.584 44.4732 48.6474 44.5262C48.7108 44.5781 48.72 44.6715 48.6682 44.7348C48.4999 44.94 48.327 45.1463 48.153 45.3468C48.1231 45.3802 48.0816 45.3975 48.0401 45.3975ZM6.48072 45.9818C6.44039 45.9818 6.4012 45.9657 6.37124 45.9346C6.1926 45.7398 6.01397 45.5393 5.83995 45.3376C5.78578 45.2754 5.79269 45.182 5.85378 45.1279C5.91601 45.0749 6.01051 45.0806 6.06353 45.1428C6.2364 45.3422 6.41388 45.5405 6.59021 45.7329C6.64553 45.794 6.64207 45.8873 6.58099 45.9427C6.55333 45.9692 6.51645 45.9818 6.48072 45.9818ZM46.9638 46.5686C46.9269 46.5686 46.8889 46.5548 46.8601 46.5271C46.8013 46.4695 46.8002 46.375 46.8578 46.3162C47.041 46.1284 47.2231 45.9348 47.4006 45.7423C47.4571 45.6812 47.5504 45.6778 47.6115 45.7331C47.6714 45.7884 47.6761 45.8829 47.6196 45.9428C47.4409 46.1388 47.2554 46.3335 47.071 46.5237C47.0422 46.5536 47.003 46.5686 46.9638 46.5686ZM7.58929 47.1229C7.55126 47.1229 7.51438 47.1091 7.48557 47.0802C7.29541 46.8958 7.10525 46.7057 6.92085 46.5155C6.86323 46.4568 6.86438 46.3622 6.92316 46.3046C6.98193 46.2482 7.07644 46.2493 7.13406 46.3081C7.3173 46.4971 7.50516 46.6849 7.69301 46.867C7.75179 46.9247 7.75294 47.018 7.69532 47.0779C7.6665 47.1079 7.62847 47.1229 7.58929 47.1229ZM45.8226 47.6772C45.7835 47.6772 45.7431 47.661 45.7132 47.6288C45.6578 47.5677 45.6624 47.4743 45.7224 47.419C45.9148 47.2415 46.1084 47.0595 46.2975 46.8762C46.3562 46.8186 46.4507 46.8197 46.5084 46.8785C46.5648 46.9373 46.5637 47.0318 46.5049 47.0894C46.3136 47.2738 46.1188 47.4594 45.924 47.638C45.8952 47.6634 45.8595 47.6772 45.8226 47.6772ZM8.7603 48.198C8.72688 48.198 8.69115 48.1865 8.66349 48.1623C8.46181 47.9871 8.26128 47.8084 8.06651 47.6287C8.00658 47.5733 8.00197 47.48 8.05844 47.4189C8.11376 47.359 8.20711 47.3544 8.26819 47.4108C8.46065 47.5872 8.65888 47.7647 8.85826 47.9375C8.92049 47.9905 8.92741 48.085 8.87324 48.1473C8.84328 48.1807 8.80294 48.198 8.7603 48.198ZM44.6217 48.7179C44.5791 48.7179 44.5365 48.6994 44.5065 48.6637C44.4546 48.5992 44.4639 48.5058 44.5272 48.454C44.7312 48.2868 44.9352 48.1163 45.1323 47.9446C45.1945 47.8915 45.2879 47.8973 45.342 47.9595C45.3962 48.0218 45.3893 48.1163 45.3271 48.1693C45.1277 48.3422 44.9214 48.5162 44.7163 48.6845C44.6886 48.7063 44.6552 48.7179 44.6217 48.7179ZM9.99242 49.2063C9.96015 49.2063 9.92903 49.1959 9.90137 49.1752C9.69162 49.0127 9.48072 48.8456 9.27558 48.6773C9.21219 48.6254 9.20297 48.5309 9.25484 48.4675C9.3067 48.4042 9.40005 48.3949 9.46343 48.4468C9.66742 48.6128 9.87487 48.7787 10.0835 48.9401C10.148 48.9896 10.1595 49.083 10.11 49.1487C10.0812 49.1855 10.0362 49.2063 9.99242 49.2063ZM43.3646 49.6884C43.3185 49.6884 43.2735 49.6676 43.2436 49.6273C43.1963 49.5604 43.2102 49.4682 43.277 49.4198C43.4891 49.2654 43.7023 49.1052 43.9097 48.9462C43.9743 48.8955 44.0676 48.907 44.1172 48.9727C44.1679 49.0372 44.1563 49.1306 44.0907 49.1813C43.8821 49.3426 43.6665 49.504 43.4522 49.6596C43.4257 49.6791 43.3946 49.6884 43.3646 49.6884ZM11.2784 50.1422C11.2496 50.1422 11.2208 50.1341 11.1955 50.1168C10.9765 49.967 10.7575 49.8114 10.542 49.6547C10.4752 49.6063 10.4602 49.5141 10.5086 49.4472C10.557 49.3804 10.6503 49.3666 10.716 49.415C10.9292 49.5694 11.1471 49.7238 11.3626 49.8713C11.4306 49.9174 11.4479 50.0108 11.4018 50.0776C11.3729 50.1203 11.3257 50.1422 11.2784 50.1422ZM42.054 50.5859C42.0045 50.5859 41.9572 50.5617 41.9284 50.5168C41.8846 50.4476 41.9042 50.3566 41.9734 50.3116C42.1923 50.171 42.4136 50.0235 42.6314 49.8748C42.6983 49.8287 42.7916 49.846 42.8377 49.914C42.8838 49.9809 42.8665 50.0742 42.7997 50.1203C42.5796 50.2713 42.356 50.4188 42.1347 50.5617C42.1094 50.5779 42.0817 50.5859 42.054 50.5859ZM12.6178 51.0045C12.5924 51.0045 12.5659 50.9976 12.5417 50.9838C12.3147 50.8466 12.0865 50.7037 11.8617 50.5597C11.7926 50.5159 11.773 50.4237 11.818 50.3545C11.8617 50.2854 11.9539 50.2658 12.0231 50.3096C12.2455 50.4525 12.4714 50.5942 12.695 50.7291C12.7653 50.7717 12.7883 50.8628 12.7457 50.9331C12.718 50.9792 12.6685 51.0045 12.6178 51.0045ZM40.6955 51.4067C40.6436 51.4067 40.5929 51.379 40.5652 51.3306C40.5249 51.2592 40.5502 51.1681 40.6217 51.1278C40.8499 50.9987 41.0792 50.865 41.3028 50.7302C41.3731 50.6875 41.4653 50.7094 41.508 50.7797C41.5494 50.85 41.5275 50.9422 41.4572 50.9849C41.2302 51.1209 40.9986 51.2569 40.7681 51.3871C40.745 51.3998 40.7197 51.4067 40.6955 51.4067ZM14.004 51.7892C13.981 51.7892 13.9568 51.7834 13.9349 51.7719C13.7021 51.6486 13.4658 51.5195 13.233 51.3881C13.1616 51.3478 13.1362 51.2568 13.1765 51.1853C13.2169 51.1139 13.3079 51.0885 13.3794 51.1288C13.6087 51.2591 13.8427 51.387 14.0743 51.5092C14.1469 51.5472 14.1746 51.6371 14.1366 51.7097C14.1089 51.7604 14.0582 51.7892 14.004 51.7892ZM39.2929 52.1478C39.2376 52.1478 39.1846 52.1178 39.1592 52.0648C39.1224 51.9911 39.1535 51.9023 39.2272 51.8654C39.4623 51.7502 39.6986 51.6292 39.9291 51.507C40.0017 51.469 40.0916 51.4966 40.1308 51.5692C40.1688 51.6418 40.1412 51.7317 40.0685 51.7698C39.8346 51.8942 39.596 52.0153 39.3586 52.1328C39.3367 52.1432 39.3148 52.1478 39.2929 52.1478ZM15.4343 52.4934C15.4135 52.4934 15.3928 52.4888 15.3732 52.4796C15.1312 52.369 14.888 52.2537 14.6483 52.1362C14.5757 52.1004 14.5445 52.0105 14.5814 51.9368C14.6172 51.8642 14.707 51.8331 14.7797 51.8699C15.0159 51.9852 15.2568 52.1004 15.4965 52.2099C15.5714 52.2433 15.6037 52.3321 15.5703 52.4058C15.5449 52.4612 15.4907 52.4934 15.4343 52.4934ZM37.8511 52.8079C37.7923 52.8079 37.737 52.7733 37.7139 52.7169C37.6816 52.6408 37.7174 52.5544 37.7923 52.5221C38.0308 52.4207 38.274 52.3146 38.5137 52.204C38.5886 52.1706 38.6774 52.2029 38.7108 52.2778C38.7454 52.3527 38.712 52.4403 38.6382 52.4748C38.395 52.5855 38.1495 52.6938 37.9087 52.7952C37.8891 52.8033 37.8695 52.8079 37.8511 52.8079ZM16.9037 53.1134C16.8852 53.1134 16.8668 53.1111 16.8495 53.1042C16.6017 53.0074 16.3516 52.906 16.1062 52.8023C16.0313 52.77 15.9955 52.6836 16.0278 52.6075C16.0589 52.5326 16.1465 52.4969 16.2226 52.528C16.4646 52.6306 16.7124 52.732 16.9567 52.8265C17.0339 52.8564 17.0719 52.9429 17.042 53.0189C17.0189 53.0777 16.9625 53.1134 16.9037 53.1134ZM36.3714 53.3843C36.3103 53.3843 36.2527 53.3462 36.2308 53.2863C36.2031 53.2091 36.2435 53.1238 36.3219 53.0961C36.5673 53.0074 36.8163 52.9152 37.0629 52.8196C37.139 52.7896 37.2254 52.8265 37.2554 52.9037C37.2842 52.9797 37.2473 53.0662 37.1701 53.0961C36.9223 53.193 36.6699 53.2875 36.421 53.3762C36.4048 53.382 36.3875 53.3843 36.3714 53.3843ZM18.4067 53.6493C18.3917 53.6493 18.3756 53.647 18.3606 53.6423C18.1082 53.5605 17.8524 53.4729 17.6011 53.3842C17.5239 53.3565 17.4836 53.2713 17.5112 53.194C17.5389 53.1168 17.623 53.0765 17.7014 53.1041C17.9492 53.1917 18.2016 53.2782 18.4516 53.3588C18.53 53.3842 18.5727 53.4683 18.5485 53.5467C18.5277 53.6089 18.4689 53.6493 18.4067 53.6493ZM34.8593 53.8763C34.7948 53.8763 34.7349 53.8337 34.7164 53.7691C34.6934 53.6908 34.7383 53.6078 34.8167 53.5847C35.0702 53.511 35.3238 53.4315 35.5727 53.3508C35.6511 53.3254 35.7352 53.3681 35.7606 53.4464C35.7859 53.5248 35.7433 53.6089 35.6649 53.6343C35.4137 53.715 35.1567 53.7945 34.9008 53.8706C34.887 53.874 34.8732 53.8763 34.8593 53.8763ZM19.9323 54.0964C19.9207 54.0964 19.9081 54.0941 19.8954 54.0907C19.6372 54.0238 19.3779 53.9524 19.1244 53.8775C19.046 53.8544 18.9999 53.7714 19.023 53.6931C19.046 53.6147 19.129 53.5698 19.2085 53.5928C19.4586 53.6654 19.7156 53.7369 19.9703 53.8037C20.0498 53.8245 20.0971 53.9051 20.0763 53.9847C20.059 54.0515 19.9991 54.0964 19.9323 54.0964ZM33.3207 54.2799C33.2527 54.2799 33.1916 54.2338 33.1754 54.1658C33.157 54.0851 33.2066 54.0056 33.2872 53.9872C33.5408 53.9284 33.7989 53.8639 34.0548 53.797C34.1343 53.7763 34.215 53.8235 34.2357 53.903C34.2576 53.9826 34.2092 54.0632 34.1309 54.0851C33.8727 54.152 33.6111 54.2165 33.3541 54.2764C33.3426 54.2788 33.331 54.2799 33.3207 54.2799ZM21.4825 54.4537L21.4525 54.4514C21.1921 54.3984 20.9293 54.3419 20.6711 54.282C20.5916 54.2635 20.5421 54.184 20.5605 54.1033C20.5789 54.0238 20.6573 53.9742 20.738 53.9927C20.9927 54.0515 21.2531 54.1079 21.5113 54.1598C21.592 54.1759 21.6438 54.2543 21.6277 54.335C21.6139 54.4053 21.5516 54.4537 21.4825 54.4537ZM31.7615 54.5944C31.6912 54.5944 31.6278 54.5437 31.6152 54.4711C31.6013 54.3904 31.6555 54.3132 31.7362 54.2993C31.9943 54.2555 32.2559 54.2071 32.5141 54.1541C32.5936 54.1391 32.6731 54.1898 32.6893 54.2705C32.7054 54.3512 32.6535 54.4296 32.5729 54.4457C32.3113 54.4987 32.0473 54.5483 31.7869 54.5932L31.7615 54.5944ZM23.05 54.7224L23.0293 54.7212C22.7665 54.6844 22.5003 54.6417 22.2398 54.5979C22.158 54.5841 22.1038 54.5069 22.1177 54.4262C22.1315 54.3444 22.2087 54.2902 22.2894 54.304C22.5487 54.349 22.8115 54.3893 23.0708 54.4262C23.1526 54.4377 23.2091 54.5138 23.1975 54.5945C23.1872 54.6694 23.1226 54.7224 23.05 54.7224ZM30.1873 54.8201C30.1123 54.8201 30.049 54.7637 30.0397 54.6876C30.0305 54.6069 30.0893 54.5332 30.1711 54.5239C30.4316 54.494 30.6955 54.4606 30.9548 54.4225C31.0366 54.411 31.1115 54.4675 31.1231 54.5493C31.1346 54.63 31.0781 54.706 30.9974 54.7176C30.7347 54.7544 30.4673 54.789 30.2045 54.819L30.1873 54.8201ZM24.63 54.9009H24.6173C24.3534 54.8778 24.086 54.8513 23.8221 54.8225C23.7402 54.8133 23.6815 54.7395 23.6907 54.6577C23.6999 54.5759 23.7748 54.5171 23.8555 54.5263C24.116 54.5563 24.381 54.5817 24.6426 54.6047C24.7245 54.6116 24.7855 54.6831 24.7786 54.7649C24.7717 54.8421 24.7072 54.9009 24.63 54.9009ZM28.6026 54.9551C28.5242 54.9551 28.4597 54.894 28.455 54.8145C28.4504 54.7327 28.5127 54.6624 28.5945 54.6578C28.8561 54.6428 29.1223 54.6244 29.3839 54.6025C29.4635 54.5932 29.5372 54.6555 29.5441 54.7373C29.551 54.8191 29.4911 54.8917 29.4093 54.8987C29.1442 54.9205 28.8757 54.9401 28.6118 54.9551H28.6026ZM26.2181 54.9897H26.2135C25.9484 54.9827 25.6799 54.9712 25.4148 54.9562C25.333 54.9516 25.2707 54.8813 25.2754 54.7995C25.28 54.7177 25.3491 54.6554 25.4321 54.6589C25.6937 54.6739 25.9599 54.6854 26.2215 54.6923C26.3034 54.6946 26.3691 54.7626 26.3667 54.8456C26.3644 54.9263 26.2976 54.9897 26.2181 54.9897ZM27.0131 54.9999C26.9312 54.9999 26.8644 54.9331 26.8644 54.8512C26.8644 54.7694 26.9312 54.7026 27.0131 54.7026C27.2735 54.7026 27.5397 54.6991 27.8037 54.691C27.8855 54.6841 27.9546 54.7533 27.9569 54.8363C27.9592 54.9181 27.8947 54.9861 27.8117 54.9884C27.5455 54.9965 27.277 54.9999 27.0131 54.9999Z" fill="#150F84"/>
</g>
</svg>
