<svg width="474" height="407" viewBox="0 0 474 407" fill="none" xmlns="http://www.w3.org/2000/svg">
<path fill-rule="evenodd" clip-rule="evenodd" d="M276.726 38.2748C224.043 59.2936 142.087 91.9598 94.6007 110.867C47.1156 129.773 6.99005 146.18 5.43244 147.326C-0.356499 151.586 0.00443691 142.965 0.00443691 277.128C0.00443691 411.182 -0.29727 403.816 5.28251 406.115C7.21586 406.912 58.1003 407.12 206.238 406.939L404.604 406.697L406.838 404.1L409.071 401.503V333.676V265.848L439.217 253.958C472.634 240.776 474.498 239.651 473.582 233.213C473.325 231.406 452.869 179.119 428.124 117.018C394.324 32.1897 382.55 3.5902 380.781 2.02612C379.335 0.747089 377.286 -0.034029 375.47 0.0011396C373.844 0.0326063 329.41 17.256 276.726 38.2748ZM410.84 124.141C433.257 180.469 451.713 227.028 451.853 227.604C452.071 228.506 417.15 243.313 411.154 244.862L409.071 245.4V198.953V152.507L406.366 149.802C404.878 148.314 402.839 147.097 401.835 147.097C400.312 147.097 398.44 143.158 390.511 123.265C378.709 93.6543 377.499 91.1842 374.186 89.9135C372.758 89.3656 367.216 88.7233 361.871 88.4855C346.079 87.7821 334.861 82.5929 323.298 70.6392C318.382 65.5573 317.118 64.7281 314.292 64.7281C309.538 64.7281 117.337 141.433 113.943 144.684L111.425 147.097H83.3254C67.8707 147.097 55.421 146.902 55.6597 146.663C56.2317 146.091 369.644 21.2893 369.89 21.5355C369.994 21.64 388.422 67.8128 410.84 124.141ZM313.816 87.5026C323.019 97.4053 341.846 105.946 357.226 107.197L364.185 107.763L371.913 127.028C376.164 137.624 379.459 146.477 379.236 146.699C379.013 146.922 328.683 146.999 267.391 146.869L155.95 146.634L232.765 115.918C275.014 99.025 310.029 85.1768 310.577 85.1454C311.124 85.1148 312.581 86.1754 313.816 87.5026ZM390.562 277.128V388.65H204.538H18.5142V277.128V165.607H204.538H390.562V277.128ZM86.0751 185.309C83.7808 186.464 83.2782 187.295 77.8428 198.924C71.9252 211.585 61.1553 221.568 47.8486 226.729C36.7464 231.034 37.5294 227.42 37.2277 275.771C36.9361 322.699 36.9297 322.647 43.2202 325.373C57.097 331.388 60.7583 333.629 67.0738 339.974C73.5106 346.441 78.8803 355.067 81.431 363.039C82.1528 365.298 83.6197 367.225 85.4763 368.358C88.3073 370.084 91.6669 370.134 205.18 370.136L321.972 370.14L324.412 368.041C325.755 366.886 328.016 362.952 329.437 359.298C334.605 346.015 344.63 335.157 357.047 329.393C368.784 323.945 369.696 323.397 370.874 321.089C371.79 319.293 372.002 309.194 371.821 275.895L371.589 233.015L368.566 230.314C366.904 228.83 364.915 227.615 364.147 227.615C361.73 227.615 350.491 221.427 345.861 217.546C337.715 210.719 330.123 199.485 328.036 191.17C327.7 189.832 326.19 187.698 324.68 186.427L321.934 184.116L205.161 184.13C113.155 184.141 87.8983 184.391 86.0751 185.309ZM315.808 209.34C322.578 222.499 333.669 233.59 346.828 240.36L353.534 243.811L353.538 277.298L353.542 310.784L351.46 311.398C347.386 312.6 336.97 319.295 331.749 324.066C325.04 330.199 318.522 338.784 315.091 346.009L312.421 351.63H204.816H97.2124L94.7719 346.771C87.5559 332.4 74.8646 319.715 60.3927 312.406L55.5339 309.952L55.5376 276.881L55.5422 243.811L62.277 240.353C75.4217 233.605 87.716 221.343 93.6261 209.087L96.7182 202.673L204.538 202.654L312.358 202.635L315.808 209.34ZM192.506 222.58C176.735 225.979 161.763 237.89 154.767 252.603C150.358 261.874 149.008 267.692 149.008 277.423C149.008 301.864 165.841 323.717 190.193 330.888C198.871 333.443 212.347 333.076 221.659 330.03C239.448 324.213 253.993 308.851 258.653 290.962C260.463 284.009 260.468 270.3 258.662 263.209C251.318 234.369 221.83 216.26 192.506 222.58ZM212.128 240.672C223.301 243.01 233.217 250.906 238.508 261.68C240.841 266.431 241.095 267.899 241.095 276.666C241.095 285.684 240.881 286.834 238.125 292.653C232.749 304.003 222.175 311.892 210.133 313.539C191.499 316.088 174.657 305.388 169.242 287.56C163.166 267.556 174.933 246.574 195.283 241.129C201.544 239.454 205.761 239.34 212.128 240.672ZM96.2416 264.866C91.2189 267.412 88.697 271.505 88.697 277.112C88.697 285.019 94.2823 290.548 102.271 290.548C109.559 290.548 114.771 286.019 116.116 278.516C117.007 273.551 113.554 267.504 108.322 264.866C106.051 263.72 103.328 262.783 102.271 262.783C101.214 262.783 98.5007 263.72 96.2416 264.866ZM301.164 264.502C296.034 266.89 293.385 271.347 293.385 277.591C293.385 282.108 293.678 282.755 297.428 286.505C301.202 290.279 301.803 290.548 306.451 290.544C313.045 290.54 316.99 288.118 319.447 282.562C324.655 270.787 312.805 259.081 301.164 264.502ZM104.741 273.195C106.957 274.98 107.356 277.187 105.851 279.336C104.343 281.487 100.955 281.92 99.217 280.182C97.5521 278.517 97.8658 274.121 99.7261 273.038C101.891 271.777 103.025 271.812 104.741 273.195ZM310.044 273.889C312.272 276.118 312.39 277.889 310.441 279.839C308.715 281.565 305.308 281.74 303.75 280.182C301.984 278.416 302.459 275.046 304.697 273.479C307.344 271.624 307.815 271.66 310.044 273.889Z" fill="#5563DA"/>
</svg>
