<svg width="40" height="40" viewBox="0 0 40 40" fill="none" xmlns="http://www.w3.org/2000/svg">
<path d="M0 20C0 8.95431 8.95431 0 20 0V0C31.0457 0 40 8.95431 40 20V20C40 31.0457 31.0457 40 20 40V40C8.95431 40 0 31.0457 0 20V20Z" fill="#FFF1DE"/>
<path d="M31.8485 14.9025C32.1829 14.7442 32.4665 14.4969 32.6678 14.1879C32.8691 13.879 32.9801 13.5205 32.9885 13.1526C32.9969 12.7846 32.9024 12.4216 32.7154 12.1038C32.5284 11.7861 32.2564 11.5262 31.9296 11.3531C31.6028 11.1799 31.234 11.1004 30.8644 11.1232C30.4947 11.1461 30.1387 11.2705 29.836 11.4825C29.5333 11.6946 29.2958 11.986 29.1499 12.3243C29.004 12.6626 28.9554 13.0345 29.0097 13.3986C27.3366 12.2489 24.2727 10.8273 19.3369 10.897L19.3443 12.076C19.4867 12.0681 19.6285 12.0545 19.7735 12.0545C21.2573 12.055 22.7067 12.4987 23.9336 13.3281C25.1605 14.1575 26.1083 15.3342 26.6538 16.7055C28.7155 17.1771 32.1933 18.3603 28.6817 20.5067C28.6817 20.5067 28.5583 23.0287 28.2488 25.2834C28.2488 25.2834 35.2852 21.0307 30.8324 15.0859C31.1822 15.1158 31.5336 15.0525 31.8506 14.9025H31.8485Z" fill="#FFB277"/>
<path d="M24.1371 31.6822C24.2953 32.0166 24.5427 32.3003 24.8516 32.5015C25.1606 32.7028 25.519 32.8138 25.887 32.8222C26.2549 32.8307 26.618 32.7361 26.9357 32.5491C27.2534 32.3622 27.5133 32.0901 27.6865 31.7633C27.8596 31.4365 27.9392 31.0677 27.9163 30.6981C27.8935 30.3285 27.7691 29.9725 27.557 29.6697C27.345 29.367 27.0536 29.1295 26.7153 28.9836C26.377 28.8377 26.0051 28.7892 25.641 28.8434C26.7906 27.1704 28.2122 24.1064 28.1426 19.1707L26.9636 19.178C26.9714 19.3204 26.985 19.4622 26.985 19.6072C26.9845 21.0911 26.5408 22.5405 25.7114 23.7674C24.8821 24.9943 23.7053 25.942 22.334 26.4876C21.8624 28.5492 20.6792 32.0271 18.5329 28.5154C18.5329 28.5154 16.0109 28.3921 13.7561 28.0826C13.7561 28.0826 18.0089 35.119 23.9537 30.6662C23.9238 31.0159 23.9871 31.3674 24.1371 31.6843L24.1371 31.6822Z" fill="#FEC192"/>
<path d="M7.14053 23.8444C6.80613 24.0026 6.5225 24.2499 6.32122 24.5589C6.11994 24.8679 6.00891 25.2263 6.00051 25.5942C5.9921 25.9622 6.08664 26.3253 6.27361 26.643C6.46057 26.9607 6.73261 27.2206 7.05943 27.3937C7.38625 27.5669 7.75502 27.6464 8.12466 27.6236C8.4943 27.6007 8.8503 27.4764 9.15301 27.2643C9.45572 27.0522 9.69325 26.7608 9.83915 26.4225C9.98504 26.0842 10.0336 25.7123 9.97934 25.3482C11.6524 26.4979 14.7163 27.9195 19.6521 27.8498L19.6447 26.6708C19.5024 26.6787 19.3605 26.6923 19.2155 26.6923C17.7317 26.6918 16.2823 26.2481 15.0554 25.4187C13.8285 24.5893 12.8807 23.4126 12.3352 22.0413C10.2736 21.5697 6.79569 20.3865 10.3073 18.2402C10.3073 18.2402 10.4307 15.7182 10.7402 13.4634C10.7402 13.4634 3.70379 17.7162 8.15658 23.661C7.80682 23.6311 7.45536 23.6944 7.13842 23.8444L7.14053 23.8444Z" fill="#FFB277"/>
<path d="M14.9835 7.21377C14.8253 6.87938 14.5779 6.59574 14.269 6.39446C13.96 6.19318 13.6016 6.08216 13.2336 6.07375C12.8657 6.06534 12.5026 6.15988 12.1849 6.34685C11.8672 6.53381 11.6073 6.80585 11.4341 7.13267C11.261 7.45949 11.1814 7.82826 11.2043 8.1979C11.2271 8.56754 11.3515 8.92354 11.5636 9.22625C11.7756 9.52896 12.067 9.76649 12.4053 9.91239C12.7436 10.0583 13.1155 10.1068 13.4796 10.0526C12.33 11.7256 10.9084 14.7896 10.9781 19.7253L12.1571 19.718C12.1492 19.5756 12.1356 19.4338 12.1356 19.2888C12.1361 17.8049 12.5798 16.3555 13.4092 15.1286C14.2385 13.9017 15.4153 12.954 16.7866 12.4084C17.2582 10.3468 18.4414 6.86893 20.5877 10.3805C20.5877 10.3805 23.1097 10.5039 25.3645 10.8134C25.3645 10.8134 21.1117 3.77703 15.1669 8.22982C15.1968 7.88006 15.1335 7.52861 14.9835 7.21166L14.9835 7.21377Z" fill="#FEC192"/>
<path d="M32.9999 13.0976C32.9999 14.2291 32.0826 15.1464 30.9511 15.1464C29.8196 15.1464 28.9023 14.2291 28.9023 13.0976C28.9023 11.9661 29.8196 11.0488 30.9511 11.0488C32.0826 11.0488 32.9999 11.9661 32.9999 13.0976Z" fill="#FFCFCA"/>
<path d="M28.0243 30.8781C28.0243 32.0096 27.107 32.9269 25.9755 32.9269C24.844 32.9269 23.9268 32.0096 23.9268 30.8781C23.9268 29.7466 24.844 28.8293 25.9755 28.8293C27.107 28.8293 28.0243 29.7466 28.0243 30.8781Z" fill="#FFCFCA"/>
<path d="M10.0976 25.6098C10.0976 26.7413 9.18029 27.6586 8.04878 27.6586C6.91727 27.6586 6 26.7413 6 25.6098C6 24.4783 6.91727 23.561 8.04878 23.561C9.18029 23.561 10.0976 24.4783 10.0976 25.6098Z" fill="#FFCFCA"/>
<path d="M15.2194 8.04878C15.2194 9.18029 14.3021 10.0976 13.1706 10.0976C12.0391 10.0976 11.1218 9.18029 11.1218 8.04878C11.1218 6.91727 12.0391 6 13.1706 6C14.3021 6 15.2194 6.91727 15.2194 8.04878Z" fill="#FFCFCA"/>
</svg>
