<svg width="40" height="40" viewBox="0 0 40 40" fill="none" xmlns="http://www.w3.org/2000/svg">
<path d="M0 20C0 8.95431 8.95431 0 20 0V0C31.0457 0 40 8.95431 40 20V20C40 31.0457 31.0457 40 20 40V40C8.95431 40 0 31.0457 0 20V20Z"/>
<path d="M9.06445 22.5148C9.06445 21.9819 9.49651 21.5498 10.0295 21.5498H10.7628C11.2957 21.5498 11.7278 21.9819 11.7278 22.5148V32.3795C11.7278 32.9125 11.2957 33.3445 10.7628 33.3445H10.0295C9.49651 33.3445 9.06445 32.9125 9.06445 32.3795V22.5148Z" fill="#645FB9"/>
<path d="M28.1833 22.5151C28.1833 21.9821 28.6154 21.55 29.1484 21.55H29.8817C30.4146 21.55 30.8467 21.9821 30.8467 22.5151V32.3798C30.8467 32.9127 30.4146 33.3448 29.8817 33.3448H29.1484C28.6154 33.3448 28.1833 32.9127 28.1833 32.3798V22.5151Z" fill="#645FB9"/>
<path d="M29.8895 30.6643C30.4224 30.6643 30.8545 31.0964 30.8545 31.6293L30.8545 32.3626C30.8545 32.8956 30.4224 33.3276 29.8895 33.3276L10.0373 33.3276C9.50434 33.3276 9.07229 32.8956 9.07229 32.3626L9.07229 31.6293C9.07229 31.0964 9.50434 30.6643 10.0373 30.6643L29.8895 30.6643Z" fill="#645FB9"/>
<path fill-rule="evenodd" clip-rule="evenodd" d="M26.4468 26.2917C26.4468 26.723 26.0971 27.0728 25.6657 27.0728C25.4966 27.0728 25.3321 27.0179 25.1969 26.9164L25.0736 26.8239C24.7902 26.6113 24.4131 26.571 24.0912 26.7191L23.7726 26.8656C23.4898 26.9956 23.1617 26.9813 22.8914 26.8271L22.7494 26.7461C22.458 26.58 22.1014 26.577 21.8073 26.7383L21.6705 26.8133C21.3765 26.9745 21.0198 26.9715 20.7285 26.8054L20.6437 26.7571C20.3421 26.5851 19.9713 26.5883 19.6728 26.7657L19.3488 26.9582C19.2225 27.0332 19.0784 27.0728 18.9315 27.0728C18.4802 27.0728 18.1143 26.7069 18.1143 26.2556L18.1143 22.1198C18.5942 21.9961 18.9476 21.5745 18.9476 21.0734C18.9476 20.5722 18.5942 20.1506 18.1143 20.0269L18.1143 16.4557C18.1143 15.9227 18.5464 15.4906 19.0793 15.4906L25.4818 15.4906C26.0147 15.4906 26.4468 15.9227 26.4468 16.4557L26.4468 20.0518C26.0099 20.2005 25.6969 20.6017 25.6969 21.0734C25.6969 21.545 26.0099 21.9462 26.4468 22.0949L26.4468 26.2917Z" fill="#E8904C"/>
<mask id="mask0" mask-type="alpha" maskUnits="userSpaceOnUse" x="18" y="15" width="9" height="13">
<path fill-rule="evenodd" clip-rule="evenodd" d="M26.4604 26.2917C26.4604 26.723 26.1107 27.0728 25.6794 27.0728C25.5103 27.0728 25.3458 27.0179 25.2106 26.9164L25.0873 26.8239C24.8039 26.6113 24.4268 26.571 24.1049 26.7191L23.7863 26.8656C23.5035 26.9956 23.1754 26.9813 22.905 26.8271L22.763 26.7461C22.4717 26.58 22.1151 26.577 21.821 26.7383L21.6842 26.8133C21.3902 26.9745 21.0335 26.9715 20.7422 26.8054L20.6574 26.7571C20.3558 26.5851 19.985 26.5883 19.6865 26.7657L19.3625 26.9582C19.2362 27.0332 19.092 27.0728 18.9451 27.0728C18.4938 27.0728 18.128 26.7069 18.128 26.2556L18.128 22.1198C18.6079 21.9961 18.9612 21.5745 18.9612 21.0734C18.9612 20.5722 18.6079 20.1506 18.128 20.0269L18.128 16.4557C18.128 15.9227 18.56 15.4906 19.093 15.4906L25.4954 15.4906C26.0284 15.4906 26.4604 15.9227 26.4604 16.4557L26.4604 20.0518C26.0235 20.2005 25.7105 20.6017 25.7105 21.0734C25.7105 21.545 26.0235 21.9462 26.4604 22.0949L26.4604 26.2917Z" fill="#FFB277"/>
</mask>
<g mask="url(#mask0)">
<path d="M16.7114 25.9902C16.7114 24.8857 17.6067 23.9904 18.7111 23.9904C19.8156 23.9904 20.7109 24.8857 20.7109 25.9902C20.7109 27.0947 19.8156 27.99 18.7111 27.99C17.6067 27.99 16.7114 27.0947 16.7114 25.9902Z" fill="#FFB277"/>
<path d="M16.7114 16.4912C16.7114 15.3867 17.6067 14.4914 18.7111 14.4914C19.8156 14.4914 20.7109 15.3867 20.7109 16.4912C20.7109 17.5956 19.8156 18.491 18.7111 18.491C17.6067 18.491 16.7114 17.5956 16.7114 16.4912Z" fill="#FFB277"/>
<path d="M23.6274 16.4912C23.6274 15.3867 24.5227 14.4914 25.6272 14.4914C26.7316 14.4914 27.627 15.3867 27.627 16.4912C27.627 17.5956 26.7316 18.491 25.6272 18.491C24.5227 18.491 23.6274 17.5956 23.6274 16.4912Z" fill="#D07F40"/>
<path d="M23.6276 26.1565C23.6276 25.052 24.523 24.1567 25.6274 24.1567C26.7319 24.1567 27.6272 25.052 27.6272 26.1565C27.6272 27.2609 26.7319 28.1562 25.6274 28.1562C24.523 28.1562 23.6276 27.2609 23.6276 26.1565Z" fill="#D07F40"/>
</g>
<path d="M24.4189 20.4067C24.5339 20.4067 24.6272 20.3135 24.6272 20.1984V20.1984C24.6272 20.0834 24.5339 19.9901 24.4189 19.9901L20.1693 19.9901C20.0543 19.9901 19.961 20.0834 19.961 20.1984V20.1984C19.961 20.3135 20.0543 20.4067 20.1693 20.4067L24.4189 20.4067Z" fill="#49569E"/>
<path d="M22.6691 19.2402C22.7842 19.2402 22.8774 19.147 22.8774 19.0319V19.0319C22.8774 18.9169 22.7842 18.8236 22.6691 18.8236L20.1694 18.8236C20.0543 18.8236 19.9611 18.9169 19.9611 19.0319V19.0319C19.9611 19.147 20.0543 19.2402 20.1694 19.2402L22.6691 19.2402Z" fill="#140D7D"/>
<path d="M23.9189 18.157C24.0339 18.157 24.1272 18.0637 24.1272 17.9487V17.9487C24.1272 17.8336 24.0339 17.7404 23.9189 17.7404L20.1693 17.7404C20.0542 17.7404 19.961 17.8336 19.961 17.9487V17.9487C19.961 18.0637 20.0542 18.157 20.1693 18.157L23.9189 18.157Z" fill="#140D7D"/>
<path fill-rule="evenodd" clip-rule="evenodd" d="M24.6199 27.7689C24.6199 28.3018 24.1878 28.7339 23.6548 28.7339L23.6014 28.7339C23.3925 28.7339 23.1892 28.6661 23.0222 28.5408L22.7209 28.3147C22.4375 28.102 22.0604 28.0618 21.7385 28.2098L21.0494 28.5267C20.7667 28.6567 20.4386 28.6424 20.1682 28.4883L19.7274 28.2369C19.4361 28.0708 19.0795 28.0678 18.7854 28.229L18.3379 28.4744C18.0439 28.6356 17.6872 28.6327 17.3959 28.4665L17.0124 28.2478C16.7107 28.0758 16.34 28.0791 16.0415 28.2564L15.4655 28.5985C15.3164 28.6871 15.1462 28.7339 14.9727 28.7339L14.8624 28.7339C14.3294 28.7339 13.8974 28.3018 13.8974 27.7689L13.8974 22.3603C14.5149 22.2011 14.9696 21.6586 14.9696 21.0137C14.9696 20.3688 14.5149 19.8263 13.8974 19.6671L13.8974 14.7947C13.8974 14.2617 14.3294 13.8296 14.8624 13.8296L23.6549 13.8296C24.1878 13.8296 24.6199 14.2617 24.6199 14.7947L24.6199 19.6991C24.0577 19.8904 23.6549 20.4068 23.6549 21.0137C23.6549 21.6206 24.0577 22.1369 24.6199 22.3283L24.6199 27.7689Z" fill="#FEC192"/>
<mask id="mask1" mask-type="alpha" maskUnits="userSpaceOnUse" x="14" y="13" width="11" height="16">
<path fill-rule="evenodd" clip-rule="evenodd" d="M24.7227 27.939C24.7227 28.472 24.2906 28.9041 23.7576 28.9041L23.7041 28.9041C23.4953 28.9041 23.292 28.8363 23.125 28.7109L22.8237 28.4849C22.5403 28.2722 22.1632 28.232 21.8413 28.38L21.1522 28.6969C20.8695 28.8269 20.5413 28.8126 20.271 28.6584L19.8302 28.4071C19.5389 28.241 19.1822 28.238 18.8882 28.3992L18.4407 28.6446C18.1467 28.8058 17.79 28.8028 17.4987 28.6367L17.1151 28.418C16.8135 28.246 16.4428 28.2493 16.1442 28.4266L15.5683 28.7687C15.4192 28.8573 15.2489 28.9041 15.0755 28.9041L14.9652 28.9041C14.4322 28.9041 14.0002 28.472 14.0002 27.939L14.0002 22.5305C14.6177 22.3713 15.0724 21.8287 15.0724 21.1839C15.0724 20.539 14.6177 19.9964 14.0002 19.8372L14.0002 14.9648C14.0002 14.4319 14.4322 13.9998 14.9652 13.9998L23.7576 13.9998C24.2906 13.9998 24.7227 14.4319 24.7227 14.9648L24.7227 19.8693C24.1604 20.0606 23.7576 20.5769 23.7576 21.1839C23.7576 21.7908 24.1604 22.3071 24.7227 22.4985L24.7227 27.939Z" fill="#FFB277"/>
</mask>
<g mask="url(#mask1)">
<path d="M12.0912 27.3394C12.0912 25.9182 13.2434 24.766 14.6646 24.766C16.0859 24.766 17.238 25.9182 17.238 27.3394C17.238 28.7607 16.0859 29.9128 14.6646 29.9128C13.2434 29.9128 12.0912 28.7607 12.0912 27.3394Z" fill="#FFB277"/>
<path d="M12.0912 15.1158C12.0912 13.6946 13.2434 12.5424 14.6646 12.5424C16.0859 12.5424 17.238 13.6946 17.238 15.1158C17.238 16.5371 16.0859 17.6892 14.6646 17.6892C13.2434 17.6892 12.0912 16.5371 12.0912 15.1158Z" fill="#FFB277"/>
<path d="M20.9909 15.1158C20.9909 13.6946 22.1431 12.5424 23.5643 12.5424C24.9855 12.5424 26.1377 13.6946 26.1377 15.1158C26.1377 16.5371 24.9855 17.6892 23.5643 17.6892C22.1431 17.6892 20.9909 16.5371 20.9909 15.1158Z" fill="#FFB277"/>
<path d="M20.9907 27.5543C20.9907 26.133 22.1428 24.9809 23.5641 24.9809C24.9853 24.9809 26.1375 26.133 26.1375 27.5543C26.1375 28.9755 24.9853 30.1277 23.5641 30.1277C22.1428 30.1277 20.9907 28.9755 20.9907 27.5543Z" fill="#FFB277"/>
</g>
<path d="M22.0103 21.1558C22.1583 21.1558 22.2783 21.0357 22.2783 20.8877V20.8877C22.2783 20.7397 22.1583 20.6196 22.0103 20.6196L16.5418 20.6196C16.3937 20.6196 16.2737 20.7397 16.2737 20.8877V20.8877C16.2737 21.0357 16.3937 21.1558 16.5418 21.1558L22.0103 21.1558Z" fill="#49569E"/>
<path d="M19.7588 19.6548C19.9068 19.6548 20.0269 19.5348 20.0269 19.3867V19.3867C20.0269 19.2387 19.9068 19.1187 19.7588 19.1187L16.542 19.1187C16.394 19.1187 16.274 19.2387 16.274 19.3867V19.3867C16.274 19.5348 16.394 19.6548 16.542 19.6548L19.7588 19.6548Z" fill="#49569E"/>
<path d="M21.3672 18.2607C21.5152 18.2607 21.6353 18.1407 21.6353 17.9927V17.9927C21.6353 17.8446 21.5152 17.7246 21.3672 17.7246L16.5421 17.7246C16.394 17.7246 16.274 17.8446 16.274 17.9927V17.9927C16.274 18.1407 16.394 18.2607 16.5421 18.2607L21.3672 18.2607Z" fill="#49569E"/>
<path fill-rule="evenodd" clip-rule="evenodd" d="M16.3407 12.5796C16.8513 12.6978 17.3228 12.2695 17.2541 11.7499L16.5864 6.70289C16.507 6.10254 15.7859 5.83856 15.3377 6.24574L14.2535 7.23057L12.2691 5.04604C11.9904 4.7392 11.5157 4.7164 11.2089 4.99512L10.0977 6.00446C9.79088 6.28318 9.76809 6.75787 10.0468 7.06471L12.0312 9.24924L11.0455 10.1446C10.5972 10.5518 10.7909 11.2948 11.3809 11.4314L16.3407 12.5796Z" fill="#FD5F61"/>
<path fill-rule="evenodd" clip-rule="evenodd" d="M16.6897 11.5744L16.1395 7.82025L15.8899 7.63077C15.4114 7.26763 14.9127 7.68712 15.0205 8.36219L15.4391 10.9848C15.5348 11.584 16.0535 11.9777 16.4317 11.738L16.6897 11.5744Z" fill="#F0B180"/>
</svg>
