<svg width="29" height="29" viewBox="0 0 29 29" fill="none" xmlns="http://www.w3.org/2000/svg">
<rect width="29" height="29" rx="14.5" fill="#F6F6F6"/>
<path d="M16.4106 11.0156L9.80808 17.6187C9.77486 17.652 9.75088 17.6941 9.73945 17.7393L9.00762 20.6767C8.98573 20.7651 9.01172 20.8591 9.07625 20.9237C9.12507 20.9725 9.1916 20.9995 9.25966 20.9995C9.2805 20.9995 9.30182 20.997 9.32257 20.9917L12.26 20.2598C12.3058 20.2484 12.3474 20.2245 12.3806 20.1913L18.9837 13.5887L16.4106 11.0156Z" fill="#5563DA"/>
<path d="M20.6195 10.1152L19.8845 9.3802C19.3933 8.88898 18.5372 8.88946 18.0465 9.3802L17.1462 10.2805L19.7192 12.8535L20.6195 11.9532C20.8649 11.7079 21 11.3814 21 11.0342C21 10.687 20.8649 10.3605 20.6195 10.1152Z" fill="#5563DA"/>
</svg>
