<svg width="40" height="40" viewBox="0 0 40 40" fill="none" xmlns="http://www.w3.org/2000/svg">
<path d="M0 20C0 8.95431 8.95431 0 20 0V0C31.0457 0 40 8.95431 40 20V20C40 31.0457 31.0457 40 20 40V40C8.95431 40 0 31.0457 0 20V20Z" fill="#FFF1DE"/>
<path fill-rule="evenodd" clip-rule="evenodd" d="M28.2451 31.1861C28.2451 32.0727 27.5264 32.7913 26.6399 32.7913L26.5509 32.7913C26.2035 32.7913 25.8654 32.6786 25.5875 32.4701L25.0864 32.094C24.615 31.7403 23.9877 31.6734 23.4523 31.9196L22.3062 32.4467C21.8358 32.663 21.29 32.6392 20.8403 32.3827L20.1072 31.9647C19.6226 31.6883 19.0294 31.6834 18.5403 31.9516L17.7959 32.3597C17.3068 32.6279 16.7135 32.623 16.229 32.3466L15.591 31.9828C15.0893 31.6967 14.4726 31.7022 13.976 31.9971L13.0181 32.5662C12.77 32.7136 12.4868 32.7913 12.1983 32.7913L12.0148 32.7913C11.1283 32.7913 10.4096 32.0727 10.4096 31.1861L10.4096 22.1897C11.4368 21.9249 12.1932 21.0224 12.1932 19.9498C12.1932 18.8771 11.4368 17.9746 10.4096 17.7098L10.4096 9.6052C10.4096 8.71868 11.1283 8.00001 12.0148 8.00001L26.6399 8.00001C27.5265 8.00001 28.2451 8.71868 28.2451 9.6052L28.2451 17.7631C27.3099 18.0814 26.6399 18.9402 26.6399 19.9498C26.6399 20.9593 27.3099 21.8182 28.2451 22.1365L28.2451 31.1861Z" fill="#FEC192"/>
<mask id="mask0" mask-type="alpha" maskUnits="userSpaceOnUse" x="10" y="8" width="19" height="26">
<path fill-rule="evenodd" clip-rule="evenodd" d="M28.4158 31.4692C28.4158 32.3557 27.6971 33.0744 26.8106 33.0744L26.7216 33.0744C26.3742 33.0744 26.0361 32.9616 25.7582 32.7531L25.257 32.3771C24.7857 32.0234 24.1584 31.9564 23.623 32.2027L22.4768 32.7298C22.0065 32.9461 21.4607 32.9222 21.011 32.6658L20.2778 32.2477C19.7933 31.9714 19.2 31.9664 18.7109 32.2346L17.9665 32.6428C17.4774 32.911 16.8842 32.906 16.3996 32.6297L15.7616 32.2659C15.2599 31.9798 14.6432 31.9852 14.1467 32.2802L13.1887 32.8492C12.9406 32.9966 12.6575 33.0744 12.3689 33.0744L12.1855 33.0744C11.299 33.0744 10.5803 32.3557 10.5803 31.4692L10.5803 22.4728C11.6075 22.208 12.3638 21.3055 12.3638 20.2328C12.3638 19.1602 11.6075 18.2577 10.5803 17.9929L10.5803 9.88825C10.5803 9.00172 11.299 8.28305 12.1855 8.28305L26.8106 8.28306C27.6971 8.28306 28.4158 9.00173 28.4158 9.88825L28.4158 18.0461C27.4806 18.3644 26.8106 19.2233 26.8106 20.2328C26.8106 21.2424 27.4806 22.1012 28.4158 22.4195L28.4158 31.4692Z" fill="#FFB277"/>
</mask>
<g mask="url(#mask0)">
<path d="M7.40479 30.4718C7.40479 28.1077 9.32124 26.1913 11.6853 26.1913C14.0494 26.1913 15.9658 28.1077 15.9658 30.4718C15.9658 32.8358 14.0494 34.7523 11.6853 34.7523C9.32124 34.7523 7.40479 32.8358 7.40479 30.4718Z" fill="#FFB882"/>
<path d="M7.40479 10.1393C7.40479 7.77525 9.32124 5.8588 11.6853 5.8588C14.0494 5.8588 15.9658 7.77525 15.9658 10.1393C15.9658 12.5034 14.0494 14.4198 11.6853 14.4198C9.32124 14.4198 7.40479 12.5034 7.40479 10.1393Z" fill="#FFB882"/>
<path d="M22.2087 10.1393C22.2087 7.77525 24.1252 5.8588 26.4893 5.8588C28.8533 5.8588 30.7698 7.77525 30.7698 10.1393C30.7698 12.5034 28.8533 14.4198 26.4893 14.4198C24.1252 14.4198 22.2087 12.5034 22.2087 10.1393Z" fill="#FFB882"/>
<path d="M22.2087 30.8292C22.2087 28.4651 24.1252 26.5487 26.4893 26.5487C28.8533 26.5487 30.7698 28.4651 30.7698 30.8292C30.7698 33.1933 28.8533 35.1097 26.4893 35.1097C24.1252 35.1097 22.2087 33.1933 22.2087 30.8292Z" fill="#FFB882"/>
</g>
<path d="M23.904 20.1861C24.1502 20.1861 24.3499 19.9864 24.3499 19.7402V19.7402C24.3499 19.4939 24.1502 19.2943 23.904 19.2943L14.8079 19.2943C14.5616 19.2943 14.362 19.4939 14.362 19.7402V19.7402C14.362 19.9864 14.5616 20.1861 14.8079 20.1861L23.904 20.1861Z" fill="#49569E"/>
<path d="M20.1588 17.6894C20.4051 17.6894 20.6047 17.4898 20.6047 17.2435V17.2435C20.6047 16.9972 20.4051 16.7976 20.1588 16.7976L14.8082 16.7976C14.562 16.7976 14.3623 16.9972 14.3623 17.2435V17.2435C14.3623 17.4898 14.562 17.6894 14.8082 17.6894L20.1588 17.6894Z" fill="#49569E"/>
<path d="M22.8344 15.3706C23.0806 15.3706 23.2803 15.1709 23.2803 14.9247V14.9247C23.2803 14.6784 23.0806 14.4788 22.8344 14.4788L14.8084 14.4788C14.5622 14.4788 14.3625 14.6784 14.3625 14.9247V14.9247C14.3625 15.1709 14.5622 15.3706 14.8084 15.3706L22.8344 15.3706Z" fill="#49569E"/>
</svg>
