<svg width="21" height="20" viewBox="0 0 21 20" fill="none" xmlns="http://www.w3.org/2000/svg">
<path d="M19.1249 -0.000488281H1.87484C1.62067 -0.000488281 1.37692 0.100523 1.19719 0.280324C1.01747 0.460126 0.916504 0.703989 0.916504 0.958266V15.2058C0.916504 15.4601 1.01747 15.704 1.19719 15.8838C1.37692 16.0636 1.62067 16.1646 1.87484 16.1646H6.40777L12.8957 19.875C13.0418 19.9578 13.207 20.0008 13.3749 19.9996C13.5427 20.0008 13.708 19.9578 13.854 19.875C14.0003 19.7905 14.1216 19.6689 14.2058 19.5224C14.2899 19.3759 14.3339 19.2098 14.3332 19.0409V16.1646H19.1249C19.3791 16.1646 19.6228 16.0636 19.8025 15.8838C19.9823 15.704 20.0832 15.4601 20.0832 15.2058V0.958266C20.0832 0.703989 19.9823 0.460126 19.8025 0.280324C19.6228 0.100523 19.3791 -0.000488281 19.1249 -0.000488281ZM18.1666 14.2471H13.3749C13.1207 14.2471 12.8769 14.3481 12.6972 14.5279C12.5175 14.7077 12.4165 14.9516 12.4165 15.2058V17.3918L7.14569 14.3717C6.99826 14.2924 6.83392 14.2496 6.66652 14.2471H2.83318V1.91702H18.1666V14.2471ZM7.49069 6.46201C7.49069 5.72969 7.78147 5.02736 8.29908 4.50953C8.81668 3.99171 9.5187 3.70079 10.2507 3.70079H10.749C11.481 3.70079 12.183 3.99171 12.7007 4.50953C13.2183 5.02736 13.509 5.72969 13.509 6.46201V6.64417C13.5086 7.22862 13.3228 7.79786 12.9783 8.26994C12.6339 8.74201 12.1486 9.09257 11.5924 9.27116C11.4247 9.32591 11.2787 9.43244 11.1754 9.57542C11.0721 9.71841 11.0168 9.89049 11.0174 10.0669V10.4121C11.0174 10.6664 10.9164 10.9102 10.7367 11.09C10.557 11.2698 10.3132 11.3708 10.059 11.3708C9.80486 11.3708 9.56111 11.2698 9.38138 11.09C9.20166 10.9102 9.10069 10.6664 9.10069 10.4121V10.0669C9.1017 9.48374 9.28789 8.91597 9.63238 8.44552C9.97688 7.97508 10.4619 7.6263 11.0174 7.44952C11.1858 7.39298 11.332 7.28467 11.4353 7.14005C11.5386 6.99543 11.5935 6.82189 11.5924 6.64417V6.46201C11.5937 6.35085 11.5727 6.24056 11.5308 6.13762C11.4889 6.03468 11.4268 5.94116 11.3482 5.86255C11.2697 5.78395 11.1762 5.72185 11.0733 5.67991C10.9704 5.63796 10.8601 5.61702 10.749 5.6183H10.2507C10.1396 5.61702 10.0294 5.63796 9.92645 5.67991C9.82355 5.72185 9.73007 5.78395 9.6515 5.86255C9.57294 5.94116 9.51087 6.03468 9.46894 6.13762C9.42701 6.24056 9.40608 6.35085 9.40736 6.46201C9.40736 6.71628 9.30639 6.96014 9.12667 7.13995C8.94695 7.31975 8.70319 7.42076 8.44902 7.42076C8.19486 7.42076 7.9511 7.31975 7.77138 7.13995C7.59166 6.96014 7.49069 6.71628 7.49069 6.46201ZM10.979 13.2883C10.979 13.478 10.9228 13.6633 10.8175 13.821C10.7122 13.9787 10.5625 14.1015 10.3874 14.1741C10.2123 14.2467 10.0196 14.2657 9.83373 14.2287C9.64783 14.1917 9.47708 14.1004 9.34305 13.9663C9.20902 13.8322 9.11775 13.6614 9.08077 13.4754C9.0438 13.2894 9.06277 13.0966 9.13531 12.9214C9.20784 12.7462 9.33068 12.5965 9.48827 12.4912C9.64587 12.3858 9.83115 12.3296 10.0207 12.3296C10.2749 12.3296 10.5186 12.4306 10.6983 12.6104C10.8781 12.7902 10.979 13.0341 10.979 13.2883Z" fill="#5765DB"/>
</svg>
