<svg width="40" height="40" viewBox="0 0 40 40" fill="none" xmlns="http://www.w3.org/2000/svg">
<path d="M0 20C0 8.95431 8.95431 0 20 0V0C31.0457 0 40 8.95431 40 20V20C40 31.0457 31.0457 40 20 40V40C8.95431 40 0 31.0457 0 20V20Z" fill="#FFF1DE"/>
<path fill-rule="evenodd" clip-rule="evenodd" d="M20.9362 25.4566V24.4554V24.4554C20.9362 21.4354 18.4881 18.9873 15.4681 18.9873C12.4482 18.9873 10 21.4354 10 24.4554V24.4554V25.4566H20.9362Z" fill="#49569E"/>
<path fill-rule="evenodd" clip-rule="evenodd" d="M30.5629 24.4554L30.5629 24.4645V25.4566H19.6267V24.4554H19.6267C19.6267 21.4354 22.0749 18.9873 25.0948 18.9873C28.1148 18.9873 30.5629 21.4355 30.5629 24.4554Z" fill="#5765DE"/>
<path fill-rule="evenodd" clip-rule="evenodd" d="M20.3971 25.8416C23.417 25.8416 25.8652 28.2897 25.8652 31.3097L25.8652 31.3097V32.3109H14.929V31.3315C14.929 31.3242 14.929 31.3169 14.929 31.3097C14.929 28.2897 17.3771 25.8416 20.3971 25.8416Z" fill="#645FB9"/>
<path d="M19.3632 17.8129C19.3632 19.9876 17.6199 21.7505 15.4693 21.7505C13.3188 21.7505 11.5754 19.9876 11.5754 17.8129C11.5754 15.6382 13.3188 13.8752 15.4693 13.8752C17.6199 13.8752 19.3632 15.6382 19.3632 17.8129Z" fill="#FFCFCA"/>
<path d="M24.3508 9.93763C24.3508 12.1123 22.6074 13.8753 20.4569 13.8753C18.3063 13.8753 16.563 12.1123 16.563 9.93763C16.563 7.76294 18.3063 6 20.4569 6C22.6074 6 24.3508 7.76294 24.3508 9.93763Z" fill="#FEC192"/>
<path d="M20.5005 13.8755C22.651 13.8755 24.3944 12.1126 24.3944 9.93788C24.3944 7.76318 22.651 6.00024 20.5005 6.00024V13.8755Z" fill="#FFB277"/>
<path d="M20.6421 11.4114L19.9206 10.1144L19.7402 9.85854H19.8361C20.0685 9.85854 20.2456 9.8267 20.3676 9.76304C20.4925 9.69938 20.7011 9.58451 20.7215 9.41843H19.7402V9.01154H20.7171C20.6881 8.85654 20.5866 8.74547 20.4617 8.67628C20.3398 8.60708 20.0568 8.57144 19.8361 8.57144H19.7402V8.16455H21.9048V8.57144H21.0377C21.1772 8.67939 21.2437 8.82609 21.2698 9.01154H21.9048V9.41843H21.2785C21.2582 9.62049 21.1452 9.81563 21.0029 9.92912C20.8635 10.0398 20.5855 10.1144 20.4617 10.1144L21.1833 11.4114H20.6421Z" fill="#49569E"/>
<path d="M28.9884 17.8129C28.9884 19.9876 27.2451 21.7505 25.0946 21.7505C22.944 21.7505 21.2007 19.9876 21.2007 17.8129C21.2007 15.6382 22.944 13.8752 25.0946 13.8752C27.2451 13.8752 28.9884 15.6382 28.9884 17.8129Z" fill="#FFCFCA"/>
<path d="M24.0693 24.9398C24.0693 27.0318 22.3734 28.7277 20.2813 28.7277C18.1893 28.7277 16.4934 27.0318 16.4934 24.9398C16.4934 22.8478 18.1893 21.1519 20.2813 21.1519C22.3734 21.1519 24.0693 22.8478 24.0693 24.9398Z" fill="#FFCFCA"/>
</svg>
