<svg width="40" height="40" viewBox="0 0 40 40" fill="none" xmlns="http://www.w3.org/2000/svg">
<path d="M0 20C0 8.95431 8.95431 0 20 0C31.0457 0 40 8.95431 40 20C40 31.0457 31.0457 40 20 40C8.95431 40 0 31.0457 0 20Z" fill="#FFF1DE"/>
<path d="M13.9443 21.8147L20.569 19.2527L27.3401 21.8147V32.0628H13.9443V21.8147Z" fill="#FFCFCA"/>
<path d="M20.606 20.0205L21.7406 20.5329L27.3404 21.8139V32.062H20.606V20.0205Z" fill="#FFC0B9"/>
<path d="M16.7988 13.2273C16.7988 12.5801 17.1739 11.9915 17.7605 11.7181L19.9041 10.7191C20.3456 10.5133 20.8551 10.5112 21.2983 10.7133L23.5106 11.7221C24.1041 11.9927 24.4849 12.5848 24.4849 13.2371V17.5871C24.4849 18.5067 23.7394 19.2521 22.8199 19.2521H18.4639C17.5443 19.2521 16.7988 18.5067 16.7988 17.5871V13.2273Z" fill="#FFCFCA"/>
<path d="M20.606 12.5772C20.606 11.5398 21.6619 10.8368 22.619 11.237L23.5628 11.7071C24.1282 11.9887 24.4856 12.5659 24.4856 13.1975V17.5875C24.4856 18.507 23.7401 19.2525 22.8206 19.2525H22.271C21.3514 19.2525 20.606 18.507 20.606 17.5875V12.5772Z" fill="#FFC0B9"/>
<path d="M20.0305 15.0831C20.3556 14.7579 20.8827 14.7579 21.2078 15.0831L22.891 16.7662C23.2161 17.0913 23.2161 17.6185 22.891 17.9436L13.7336 27.101C13.4085 27.4261 12.8813 27.4261 12.5562 27.101L10.8731 25.4178C10.548 25.0927 10.548 24.5656 10.8731 24.2405L20.0305 15.0831Z" fill="#645FB9"/>
<path d="M18.6294 30.0975C18.6294 28.9857 19.5307 28.0845 20.6424 28.0845C21.7542 28.0845 22.6554 28.9857 22.6554 30.0975V31.0491C22.6554 32.1609 21.7542 33.0621 20.6424 33.0621C19.5307 33.0621 18.6294 32.1609 18.6294 31.0491V30.0975Z" fill="#49569E"/>
<path d="M10.2842 31.4763L31 31.4763V33.2331H10.2842V31.4763Z" fill="#FFB277"/>
<path d="M20.0305 5.93292C20.3556 5.6078 20.8827 5.6078 21.2078 5.93292L22.891 7.61607C23.2161 7.94119 23.2161 8.46831 22.891 8.79343L16.4595 15.2249C16.1344 15.55 15.6073 15.55 15.2821 15.2249L13.599 13.5417C13.2739 13.2166 13.2739 12.6895 13.599 12.3644L20.0305 5.93292Z" fill="#49569E"/>
<path d="M30.3942 24.2404C30.7193 24.5655 30.7193 25.0927 30.3942 25.4178L28.7111 27.1009C28.386 27.4261 27.8588 27.4261 27.5337 27.1009L18.3763 17.9435C18.0512 17.6184 18.0512 17.0913 18.3763 16.7662L20.0595 15.083C20.3846 14.7579 20.9117 14.7579 21.2368 15.083L30.3942 24.2404Z" fill="#645FB9"/>
<path d="M27.7048 12.4008C28.0299 12.7259 28.0299 13.2531 27.7048 13.5782L26.0216 15.2613C25.6965 15.5865 25.1694 15.5865 24.8443 15.2613L18.4128 8.82987C18.0877 8.50475 18.0877 7.97763 18.4128 7.65251L20.0959 5.96936C20.4211 5.64424 20.9482 5.64424 21.2733 5.96936L27.7048 12.4008Z" fill="#49569E"/>
</svg>
