<svg width="19" height="18" viewBox="0 0 19 18" fill="none" xmlns="http://www.w3.org/2000/svg">
<path d="M12.3465 11.3469C12.0946 11.3469 11.8531 11.447 11.6749 11.6251C11.4968 11.8032 11.3968 12.0448 11.3968 12.2967V15.1459C11.3968 15.3978 11.2967 15.6393 11.1186 15.8174C10.9405 15.9955 10.6989 16.0956 10.447 16.0956H2.84919C2.59731 16.0956 2.35574 15.9955 2.17763 15.8174C1.99952 15.6393 1.89946 15.3978 1.89946 15.1459V3.7491C1.89946 3.49721 1.99952 3.25564 2.17763 3.07753C2.35574 2.89943 2.59731 2.79936 2.84919 2.79936H10.447C10.6989 2.79936 10.9405 2.89943 11.1186 3.07753C11.2967 3.25564 11.3968 3.49721 11.3968 3.7491V6.59829C11.3968 6.85017 11.4968 7.09174 11.6749 7.26985C11.8531 7.44796 12.0946 7.54802 12.3465 7.54802C12.5984 7.54802 12.84 7.44796 13.0181 7.26985C13.1962 7.09174 13.2962 6.85017 13.2962 6.59829V3.7491C13.2962 2.99344 12.9961 2.26874 12.4617 1.73441C11.9274 1.20008 11.2027 0.899902 10.447 0.899902H2.84919C2.09354 0.899902 1.36884 1.20008 0.83451 1.73441C0.300182 2.26874 0 2.99344 0 3.7491V15.1459C0 15.9015 0.300182 16.6262 0.83451 17.1606C1.36884 17.6949 2.09354 17.9951 2.84919 17.9951H10.447C11.2027 17.9951 11.9274 17.6949 12.4617 17.1606C12.9961 16.6262 13.2962 15.9015 13.2962 15.1459V12.2967C13.2962 12.0448 13.1962 11.8032 13.0181 11.6251C12.84 11.447 12.5984 11.3469 12.3465 11.3469Z" fill="#5765DB"/>
<path d="M18.7188 8.77303L15.8697 5.92384C15.6908 5.745 15.4483 5.64453 15.1953 5.64453C14.9424 5.64453 14.6999 5.745 14.521 5.92384C14.3422 6.10268 14.2417 6.34523 14.2417 6.59815C14.2417 6.85106 14.3422 7.09362 14.521 7.27246L15.7557 8.49761H5.22317C4.97128 8.49761 4.72972 8.59767 4.55161 8.77578C4.3735 8.95389 4.27344 9.19546 4.27344 9.44734C4.27344 9.69923 4.3735 9.94079 4.55161 10.1189C4.72972 10.297 4.97128 10.3971 5.22317 10.3971H15.7557L14.521 11.6222C14.432 11.7105 14.3614 11.8156 14.3131 11.9313C14.2649 12.047 14.2401 12.1712 14.2401 12.2965C14.2401 12.4219 14.2649 12.546 14.3131 12.6618C14.3614 12.7775 14.432 12.8826 14.521 12.9708C14.6093 13.0599 14.7144 13.1305 14.8301 13.1787C14.9458 13.227 15.07 13.2518 15.1953 13.2518C15.3207 13.2518 15.4449 13.227 15.5606 13.1787C15.6763 13.1305 15.7814 13.0599 15.8697 12.9708L18.7188 10.1217C18.8079 10.0334 18.8785 9.92832 18.9267 9.81259C18.975 9.69685 18.9998 9.57272 18.9998 9.44734C18.9998 9.32197 18.975 9.19783 18.9267 9.0821C18.8785 8.96636 18.8079 8.86132 18.7188 8.77303Z" fill="#5765DB"/>
</svg>
