<svg width="60" height="60" viewBox="0 0 60 60" fill="none" xmlns="http://www.w3.org/2000/svg">
<mask id="mask0" style="mask-type:alpha" maskUnits="userSpaceOnUse" x="1" y="2" width="57" height="57">
<path fill-rule="evenodd" clip-rule="evenodd" d="M1.9789 30.0466C1.9789 45.5032 14.5096 58.0333 29.9656 58.0333C45.4229 58.0333 57.9524 45.5032 57.9524 30.0466C57.9524 14.59 45.4229 2.05994 29.9656 2.05994C14.5096 2.05994 1.9789 14.59 1.9789 30.0466" fill="white"/>
</mask>
<g mask="url(#mask0)">
<path fill-rule="evenodd" clip-rule="evenodd" d="M1.9789 30.0466C1.9789 45.5032 14.5096 58.0333 29.9656 58.0333C45.4229 58.0333 57.9524 45.5032 57.9524 30.0466C57.9524 14.59 45.4229 2.05994 29.9656 2.05994C14.5096 2.05994 1.9789 14.59 1.9789 30.0466" fill="#FCE3C3"/>
<path fill-rule="evenodd" clip-rule="evenodd" d="M30.168 34.0258C29.3135 34.0057 28.5405 34.4867 27.7934 34.9027C27.0464 35.3187 26.1796 35.6941 25.3609 35.4492C24.5015 35.1924 23.9816 34.345 23.2741 33.795C22.5023 33.1951 21.5145 32.9573 20.6649 32.4739C19.8648 32.0183 19.1856 31.3269 18.8251 30.4795C18.4658 29.6319 18.4485 28.6269 18.8584 27.8027C18.9671 27.5843 19.1091 27.3616 19.0881 27.1184C19.0696 26.8997 18.9226 26.7146 18.7708 26.5568C18.3657 26.1383 17.8644 25.7929 17.5903 25.2793C17.3767 24.8801 17.3223 24.412 17.352 23.9603C17.4384 22.6626 18.2423 21.4357 19.3968 20.8377C20.5513 20.2397 22.017 20.2918 23.1259 20.9702C24.1742 21.6107 25.4942 21.4465 26.5488 22.0762C28.3121 23.13 29.8753 24.5167 31.1323 26.1415C31.7004 26.8755 32.2128 27.6697 32.4906 28.5549C32.7697 29.4401 32.7981 30.4296 32.4202 31.2773C32.2227 31.7217 31.9226 32.1115 31.625 32.4966C31.2225 33.0198 30.6965 33.6304 30.168 34.0258" fill="#323A40"/>
<path fill-rule="evenodd" clip-rule="evenodd" d="M35.017 40.329C35.4245 41.7816 32.1979 43.7998 31.2348 43.6033C29.7703 43.3041 27.7255 41.7444 26.5882 40.7011C26.5413 39.8405 26.4919 38.9795 26.4438 38.1188C26.3845 37.0425 26.3228 35.964 26.1561 34.8986C26.1042 34.5723 26.0449 34.2469 25.9745 33.9242C25.8066 33.1195 25.5942 32.3251 25.3806 31.5286C25.2053 30.8755 25.0311 30.2205 24.8558 29.5674C25.2695 29.9057 25.651 30.0686 26.1412 30.2883C28.2083 31.2135 30.3099 32.0596 32.4227 32.8779C33.0586 33.1237 33.7007 33.3701 34.3737 33.4753L34.707 37.2374L35.017 40.329" fill="#FFCFCA"/>
<path fill-rule="evenodd" clip-rule="evenodd" d="M34.7074 37.2374C32.3749 36.842 30.1016 36.1156 28.0012 35.038C27.3344 34.696 26.6404 34.3278 25.9749 33.9242C25.807 33.1195 25.5946 32.3251 25.3809 31.5286C25.2056 30.8755 25.0315 30.2205 24.8562 29.5674C25.2698 29.9057 25.6514 30.0686 26.1416 30.2883C28.2086 31.2135 30.3103 32.0596 32.423 32.8779C33.0589 33.1237 33.701 33.3701 34.374 33.4753L34.7074 37.2374" fill="#F9BFBB"/>
<path fill-rule="evenodd" clip-rule="evenodd" d="M38.692 30.8428C38.3636 32.1327 37.8252 33.3396 36.7904 34.2124C35.8717 34.9864 34.7024 35.4654 33.5083 35.58C32.1871 35.7064 30.8597 35.4251 29.6446 34.8773C29.0396 34.6045 28.4605 34.266 27.9258 33.8781C26.9898 33.2003 26.1687 32.379 25.4352 31.4897C24.2436 30.0421 23.2089 28.3478 22.5606 26.5391C21.8234 24.4949 21.5789 22.3038 22.1543 20.1633C22.3877 19.2906 22.7668 18.4591 23.2731 17.7097C25.4031 14.5472 29.6743 13.4551 33.0638 15.2068C34.8296 16.1203 36.2681 17.6627 37.167 19.4242C37.451 19.9824 37.7103 20.5601 37.9388 21.1516C39.1205 24.2146 39.502 27.6645 38.692 30.8428" fill="#FFCFCA"/>
<path fill-rule="evenodd" clip-rule="evenodd" d="M26.2985 30.8599C25.365 31.7271 23.9573 32.0522 22.7422 31.6659C21.7149 31.3403 20.8641 30.5156 20.4863 29.5101C20.4171 29.3274 20.364 29.14 20.327 28.9458C20.264 28.6077 20.2541 28.2574 20.3245 27.9213C20.5048 27.0919 21.2284 26.4221 22.0594 26.2503C22.8916 26.0788 23.7918 26.3857 24.3895 26.9886L25.1242 28.4774L26.2985 30.8599" fill="#FFCFCA"/>
<path fill-rule="evenodd" clip-rule="evenodd" d="M31.6486 25.9976C31.4819 26.0124 31.2424 25.7558 31.1646 25.3638C31.1226 25.1573 31.135 24.9488 31.1992 24.7917C31.2202 24.7374 31.2819 24.6088 31.3832 24.5886L31.3992 24.5863C31.5659 24.5714 31.8055 24.8281 31.8845 25.2201C31.9252 25.4267 31.9129 25.6351 31.8499 25.7923C31.8277 25.8465 31.7659 25.9751 31.6647 25.9954L31.6486 25.9976" fill="#1F3C49"/>
<path fill-rule="evenodd" clip-rule="evenodd" d="M36.6324 25.326C36.4916 25.3385 36.2471 25.1115 36.1669 24.7135C36.1273 24.5134 36.1397 24.3114 36.2002 24.1595C36.2446 24.0497 36.3089 23.979 36.3755 23.9656L36.3904 23.9634C36.5311 23.9509 36.7756 24.178 36.8559 24.576C36.8954 24.7761 36.883 24.9782 36.8225 25.13C36.7781 25.2398 36.7139 25.3104 36.6472 25.3239L36.6324 25.326" fill="#1F3C49"/>
<path fill-rule="evenodd" clip-rule="evenodd" d="M34.1564 26.3275C34.2811 26.179 34.5009 26.1093 34.7108 26.1396C34.9244 26.167 35.1257 26.3113 35.2307 26.5019C35.3418 26.6896 35.3628 26.9365 35.2776 27.1344C35.1973 27.3307 35.0257 27.4835 34.8331 27.5154C34.9627 27.3752 35.0331 27.22 35.0566 27.0683C35.0788 26.9172 35.0467 26.7746 34.9751 26.6476C34.9022 26.5213 34.796 26.4205 34.654 26.3634C34.512 26.3058 34.3429 26.2871 34.1564 26.3275" fill="#1F3C49"/>
<path fill-rule="evenodd" clip-rule="evenodd" d="M30.2612 23.0634C30.2303 23.0632 30.1982 23.0503 30.176 23.0255C30.1327 22.978 30.1365 22.9046 30.1834 22.8614C30.5316 22.5445 31.0193 22.3806 31.4873 22.4207C31.5515 22.4263 31.5985 22.4826 31.5935 22.5465C31.5873 22.6105 31.5318 22.6577 31.4676 22.6522C31.0613 22.616 30.6415 22.7593 30.3402 23.0332C30.318 23.0537 30.2896 23.0637 30.2612 23.0634" fill="#1F3C49"/>
<path fill-rule="evenodd" clip-rule="evenodd" d="M35.2788 22.2462C35.2529 22.2381 35.2294 22.2209 35.2146 22.1961C35.1812 22.1414 35.1985 22.0699 35.2529 22.0364C35.6171 21.8143 36.0789 21.7476 36.4901 21.8578C36.5506 21.8747 36.5889 21.938 36.5729 22.0001C36.5568 22.0621 36.4926 22.0988 36.4309 22.0822C36.0789 21.9881 35.685 22.0451 35.3739 22.2347C35.3442 22.2529 35.3097 22.2561 35.2788 22.2462" fill="#1F3C49"/>
<path fill-rule="evenodd" clip-rule="evenodd" d="M31.5093 24.8419C31.2635 24.8005 31.1993 25.1823 31.445 25.2237C31.6908 25.2652 31.755 24.8834 31.5093 24.8419" fill="white"/>
<path fill-rule="evenodd" clip-rule="evenodd" d="M36.5718 24.1627C36.3261 24.1213 36.2606 24.5031 36.5076 24.5445C36.7521 24.5858 36.8175 24.204 36.5718 24.1627" fill="white"/>
<path fill-rule="evenodd" clip-rule="evenodd" d="M36.8521 28.2214C36.8694 28.7264 36.7472 29.198 36.5249 29.5918C36.1693 30.2237 35.5556 30.6497 34.8456 30.6748C34.1171 30.7004 33.4614 30.2991 33.0662 29.6691C32.8329 29.3006 32.6896 28.8535 32.6723 28.3682C32.6711 28.3508 32.6736 28.3333 32.6723 28.3148L36.8472 28.1682C36.8484 28.1867 36.8509 28.204 36.8521 28.2214" fill="#D55454"/>
<path fill-rule="evenodd" clip-rule="evenodd" d="M36.678 28.1742C36.2273 28.6864 35.5518 29.0227 34.7887 29.0495C34.0244 29.0763 33.3267 28.7881 32.8415 28.3088L36.678 28.1742" fill="white"/>
<path fill-rule="evenodd" clip-rule="evenodd" d="M36.5249 29.5917C36.1693 30.2237 35.5556 30.6497 34.8456 30.6747C34.117 30.7003 33.4614 30.299 33.0662 29.669C33.7738 29.4871 34.5085 29.4069 35.237 29.4334C35.6704 29.4497 36.1014 29.503 36.5249 29.5917" fill="#F37C7C"/>
<path fill-rule="evenodd" clip-rule="evenodd" d="M31.9376 27.6915C31.9944 28.3259 31.3436 28.9034 30.4818 28.9815C29.6199 29.0595 28.8753 28.6086 28.8185 27.9741C28.7604 27.3397 29.4124 26.7622 30.2731 26.684C31.135 26.606 31.8796 27.0571 31.9376 27.6915" fill="#F9BFBB"/>
<path fill-rule="evenodd" clip-rule="evenodd" d="M38.6325 26.2407C38.6721 26.6691 38.2312 27.0591 37.6496 27.1118C37.0681 27.1645 36.5655 26.86 36.5272 26.4316C36.4877 26.0031 36.9273 25.613 37.5101 25.5603C38.0917 25.5076 38.5943 25.8122 38.6325 26.2407" fill="#F9BFBB"/>
<path fill-rule="evenodd" clip-rule="evenodd" d="M23.0051 40.3789C24.3794 39.9854 25.8896 39.2439 26.4391 39.0966C28.5123 42.0654 33.0144 42.5136 35.0036 38.8253C37.0435 39.209 39.7292 39.7071 42.0988 40.3087C42.121 43.3565 43.7053 46.8917 44.0757 49.8719C44.6709 54.6578 45.4698 58.0222 46.3132 62.7755C47.1985 67.7714 47.1973 71.9608 48.1222 78.5999C48.7556 83.1414 49.1236 88.43 49.4508 95.3708C40.6924 98.9726 29.9953 98.7714 13.8527 95.6869C13.9429 87.9065 16.4903 70.8186 17.3238 63.0585C19.1105 55.4721 20.6232 47.8098 23.0051 40.3789" fill="#DD5050"/>
<path fill-rule="evenodd" clip-rule="evenodd" d="M21.7003 26.328C23.5228 26.3206 25.2022 28.4169 25.7628 23.0993C25.8517 22.2625 25.9788 21.4325 26.127 20.6047C26.274 19.777 26.6209 18.921 27.3161 18.498C28.9325 17.5146 30.8896 19.471 32.7357 19.1711C33.5778 19.0343 34.4558 17.9502 35.2682 18.2178C35.6387 18.3397 36.2709 18.839 36.5413 19.129C37.3872 20.0318 37.7428 21.3001 38.375 22.3776C38.5578 21.2103 39.0912 19.5346 38.5825 18.4795C38.2873 17.8675 37.8403 17.1679 37.5341 16.562C36.6525 14.8181 36.8117 13.6129 35.3337 12.3895C34.5101 11.7068 32.5221 11.0196 31.5243 11.3668C31.0292 11.5392 30.5711 11.8395 30.0549 11.9259C29.356 12.043 28.6621 11.7532 27.9916 11.5166C26.9951 11.1652 25.9307 10.9202 24.8947 11.111C23.8587 11.3018 22.8573 12.007 22.5338 13.0555C22.2893 13.8475 22.4251 14.7924 21.9299 15.443C21.4731 16.0416 20.6569 16.1552 20.0358 16.5607C18.7158 17.4234 18.5552 19.382 18.859 20.9793C19.2331 22.9473 20.4568 24.8016 21.7003 26.328" fill="#323A40"/>
<path fill-rule="evenodd" clip-rule="evenodd" d="M34.9027 38.4934C34.9027 38.4934 34.8496 41.1115 34.9299 43.018C35.1299 47.7844 36.0042 49.8548 36.1844 54.6254C36.2561 56.533 36.2301 58.4409 36.1956 60.3486C36.1746 61.5375 36.1499 62.7252 36.1437 63.9133C36.1388 64.9656 36.1474 66.0171 36.1881 67.0703C36.1906 67.1597 36.1943 67.249 36.198 67.3384C36.3153 70.1552 36.5907 72.9646 36.9587 75.7604C37.0402 76.3908 37.1291 77.0188 37.2217 77.6465C37.3242 78.3553 37.4341 79.0604 37.5452 79.7667C37.5514 79.805 37.5575 79.842 37.5637 79.8803C37.5736 79.947 37.5847 80.0149 37.5958 80.0828C37.7773 81.22 37.9638 82.3709 38.1515 83.534C39.2937 90.5736 40.5211 98.028 41.2854 104.938C41.3336 105.375 50.9959 101.683 54.3348 98.7244C54.699 98.4009 52.2109 88.9128 50.8847 83.676C50.6538 82.7672 50.46 81.9868 50.3204 81.404C50.3069 81.3484 50.2945 81.2966 50.2834 81.246L50.2772 81.2225C50.2192 80.9768 50.1735 80.773 50.1414 80.6187C50.134 80.5779 50.1266 80.5409 50.1192 80.5076C50.1142 80.4829 50.1093 80.4594 50.1068 80.4372C50.886 80.3544 52.5776 80.0507 53.3469 79.8247C55.314 79.2481 57.1995 78.1763 58.1738 75.9219C58.5788 74.9825 58.827 73.8375 58.8554 72.4367C58.8714 71.4073 58.8233 70.3586 58.7183 69.2991C58.7084 69.2097 58.6998 69.1191 58.6899 69.0296C58.3911 66.2804 57.7144 63.464 56.7945 60.7201C53.6544 51.3495 47.6841 42.8271 44.2958 40.734C40.2655 38.2457 34.9027 38.4934 34.9027 38.4934" fill="#150F84"/>
<path fill-rule="evenodd" clip-rule="evenodd" d="M14.205 81.1002C14.2 81.1262 14.1976 81.1509 14.1938 81.1768C14.0247 82.3264 13.8296 83.6871 13.6221 85.1541C12.6244 92.2257 11.355 101.764 11.5822 101.951C13.106 103.172 19.8406 105.691 26.264 105.94C26.4653 105.853 27.1741 94.494 27.8483 82.7956C27.9396 81.2188 28.0298 79.6345 28.1187 78.0713C28.3619 73.7707 28.5904 69.6262 28.7756 66.1963C28.8114 65.5304 28.846 64.893 28.8781 64.2853C29.0991 60.1895 29.2374 57.5017 29.2312 57.467C28.1471 51.6767 26.4455 38.6779 26.4455 38.6779C26.4455 38.6779 20.3543 39.6252 14.3272 43.312C10.9327 45.3883 5.81202 56.357 4.24012 68.4627C4.19073 68.8451 4.14504 69.2298 4.10306 69.6158C3.97711 70.7681 3.88697 71.9307 3.83758 73.1C3.60667 78.5714 9.5226 80.3594 14.205 81.1002" fill="#150F84"/>
<path fill-rule="evenodd" clip-rule="evenodd" d="M16.9657 49.8813C17.009 51.2213 17.1485 52.6083 17.1917 53.9482C17.209 54.4967 17.2275 55.0452 17.2448 55.5937C17.3251 58.1225 17.4066 60.6529 17.6251 63.1736L15.7976 63.0932C16.7089 58.763 16.4212 54.2727 16.9657 49.8813" fill="#F4B94E"/>
<path fill-rule="evenodd" clip-rule="evenodd" d="M44.451 50.4708C44.4806 51.8112 44.4164 53.2037 44.4461 54.5441C44.4584 55.0927 44.4708 55.6412 44.4831 56.1898C44.5399 58.7194 44.5967 61.2504 44.5164 63.7792L46.3365 63.5996C45.1907 59.3253 45.2339 54.8261 44.451 50.4708" fill="#F4B94E"/>
<path fill-rule="evenodd" clip-rule="evenodd" d="M41.7211 68.8465C41.5396 68.8624 41.2803 68.8234 41.1222 68.9095C40.9024 69.0296 40.69 69.3277 40.5073 69.5043C39.9973 69.9981 39.4738 70.4796 38.9675 70.9779C38.828 71.1154 38.6909 71.2556 38.5538 71.3953C37.4351 70.0752 36.3349 68.7391 35.2446 67.3945C36.4831 66.4927 37.4289 65.8148 37.8537 65.5291C38.0599 65.3911 38.2661 65.2531 38.4711 65.1152C38.5279 64.5529 38.6329 63.997 38.7946 63.4564C38.9947 62.7917 39.3602 62.2514 39.6232 61.617C40.0764 60.521 40.311 59.3229 40.6863 58.1945C40.8037 57.8445 40.9358 57.4819 41.1963 57.2193L41.226 57.1914C41.489 56.9489 41.9002 56.8312 42.2089 57.0139C42.4459 57.1556 42.5669 57.4378 42.5953 57.7119C42.6435 58.1968 42.5274 58.7197 42.4225 59.1886C42.3546 59.4895 42.2545 59.8101 42.2484 60.1205C42.2385 60.5938 42.5435 60.3001 42.7695 60.0778C43.0152 59.8329 43.2325 59.562 43.435 59.2812C43.8363 58.7257 44.1747 58.1277 44.5525 57.5559L47.1172 53.6834C47.3691 53.3021 48.0174 53.3248 48.2668 53.6962C48.615 54.2124 48.0235 54.8261 47.7864 55.2566C47.3901 55.9763 46.9986 56.6978 46.6072 57.4207C46.3281 57.9395 46.0491 58.4596 45.775 58.98C45.6132 59.2822 45.3329 59.5368 45.1625 59.8456C45.1008 59.9601 44.9032 60.2654 45.0353 60.3973C45.1724 60.5325 45.3897 60.2735 45.491 60.1917C45.7379 59.9933 45.9775 59.7859 46.2145 59.5743C46.6702 59.1644 47.111 58.7353 47.5469 58.303C48.4372 57.4264 49.3188 56.5328 50.3104 55.767C50.3524 55.734 50.3943 55.708 50.4363 55.6857C50.7253 55.4256 51.2266 55.4831 51.4513 55.8025C51.8761 56.405 51.034 57.0496 50.6796 57.4474C50.1042 58.087 49.5053 58.705 48.9286 59.3444C48.4977 59.821 48.0667 60.2973 47.637 60.7752C47.4852 60.9414 46.6171 61.552 46.8233 61.8465C47.0011 62.1045 47.6296 61.5165 47.7901 61.4281C48.1754 61.216 48.5582 60.9997 48.9397 60.7806C49.7041 60.3424 50.4561 59.8866 51.197 59.4099C51.2661 59.3649 51.3377 59.3347 51.4081 59.3163C51.6131 59.1741 51.8181 59.0308 52.0206 58.8846C52.3873 58.6251 52.9244 58.8337 53.0418 59.2658C53.2122 59.8881 52.4577 60.2167 52.0514 60.5012C51.4044 60.9532 50.7524 61.397 50.0943 61.8358C49.63 62.1458 49.1645 62.4515 48.6953 62.7542C48.4458 62.9155 47.2987 63.5344 47.8074 63.9186C47.9075 63.9936 48.1569 63.9088 48.2606 63.8841C48.5903 63.8099 48.8965 63.6599 49.2139 63.5432C50.0609 63.2305 50.9142 62.9293 51.7711 62.6415C52.2404 62.4828 52.7392 62.909 52.6528 63.4042C52.5305 64.1239 51.255 64.2659 50.7018 64.4456C49.8189 64.7312 48.9484 65.0485 48.0902 65.3993C47.9433 65.4607 47.7963 65.5206 47.6679 65.6146C47.5037 65.7341 47.3777 65.8997 47.2444 66.0565C46.0392 67.4813 44.2129 68.423 42.3904 68.7547C42.1693 68.7956 41.9446 68.827 41.7211 68.8465" fill="#FFCFCA"/>
</g>
<path fill-rule="evenodd" clip-rule="evenodd" d="M30.8947 0.331664C30.9799 0.331664 31.0515 0.263504 31.054 0.177192C31.0564 0.0891518 30.9873 0.0158053 30.8996 0.0132122C30.6144 0.00481568 30.3267 0.000370437 30.0427 0C29.9575 0.00333393 29.8834 0.0710004 29.8834 0.159041C29.8834 0.247081 29.9537 0.318452 30.0427 0.318576C30.323 0.318946 30.6082 0.323391 30.8897 0.331664H30.8947ZM28.3387 0.363084L28.3473 0.362837C28.6276 0.347402 28.9129 0.335919 29.1944 0.328386C29.2821 0.32604 29.3524 0.252817 29.35 0.1649C29.3475 0.0769833 29.2746 0.00783511 29.1857 0.00993425C28.9017 0.0174665 28.6128 0.029197 28.33 0.0447553C28.2424 0.049571 28.1757 0.12477 28.1806 0.212563C28.1843 0.297393 28.2547 0.363084 28.3387 0.363084ZM32.5963 0.429753C32.6778 0.429753 32.7469 0.367026 32.7543 0.284048C32.7617 0.196378 32.6975 0.119203 32.6099 0.111671C32.3271 0.0873459 32.0394 0.0667249 31.7554 0.0503022C31.6652 0.0454866 31.5924 0.112289 31.5874 0.200082C31.5813 0.287999 31.6492 0.363198 31.7369 0.368384C32.0184 0.38456 32.3024 0.405057 32.5815 0.429136L32.5963 0.429753ZM26.6408 0.505489L26.6593 0.504501C26.9384 0.473138 27.2224 0.445478 27.5027 0.422141C27.5904 0.414856 27.6546 0.337805 27.6484 0.250135C27.641 0.162465 27.562 0.0973911 27.4755 0.104676C27.1928 0.128261 26.9063 0.156291 26.6235 0.187901C26.5359 0.197656 26.4729 0.276436 26.4828 0.363859C26.4926 0.445355 26.5605 0.505489 26.6408 0.505489ZM34.2879 0.624399C34.3669 0.624399 34.4348 0.567229 34.4459 0.487832C34.4583 0.400779 34.3978 0.320024 34.3114 0.307429C34.0298 0.267051 33.7446 0.230131 33.4618 0.197656C33.3754 0.187778 33.2951 0.250258 33.2852 0.337681C33.2754 0.425104 33.3383 0.504007 33.4248 0.514133C33.7051 0.546237 33.9878 0.582787 34.2657 0.622918L34.2879 0.624399ZM24.9542 0.743536L24.9813 0.74119C25.2579 0.693897 25.5395 0.650186 25.8185 0.610919C25.905 0.598571 25.9655 0.51794 25.9531 0.430887C25.9408 0.343711 25.8605 0.283577 25.7741 0.295431C25.4925 0.335067 25.2073 0.379396 24.927 0.427183C24.8406 0.441877 24.7825 0.524237 24.7973 0.610919C24.8097 0.688588 24.8776 0.743536 24.9542 0.743536ZM35.9671 0.915503C36.0412 0.915503 36.1079 0.863395 36.1227 0.787825C36.1412 0.701637 36.0857 0.617548 35.9992 0.600014C35.7202 0.543584 35.4374 0.490241 35.1571 0.441714C35.0706 0.426526 34.9879 0.484808 34.9731 0.57149C34.9583 0.658173 35.0163 0.740657 35.1028 0.755597C35.3793 0.803631 35.6596 0.856356 35.935 0.912292L35.9671 0.915503ZM23.2831 1.07799C23.2942 1.07799 23.3066 1.07651 23.3189 1.0738C23.593 1.0107 23.8721 0.950687 24.1475 0.895739C24.2327 0.878452 24.2895 0.79461 24.2722 0.708298C24.2549 0.621986 24.1709 0.566297 24.0845 0.583338C23.8066 0.638903 23.5251 0.699531 23.2473 0.76337C23.1608 0.783126 23.1078 0.868574 23.1275 0.954268C23.1448 1.02799 23.2102 1.07799 23.2831 1.07799ZM37.6267 1.30211C37.6971 1.30211 37.7613 1.25482 37.7811 1.18332C37.8033 1.09824 37.7527 1.01107 37.6675 0.988595C37.3921 0.916237 37.113 0.846841 36.8352 0.782262C36.7488 0.762382 36.6648 0.815601 36.6438 0.901296C36.6241 0.98699 36.6784 1.07256 36.7636 1.09256C37.0377 1.1564 37.3143 1.22518 37.586 1.2968C37.5996 1.30038 37.6131 1.30211 37.6267 1.30211ZM21.6338 1.50729C21.6486 1.50729 21.6634 1.50519 21.6795 1.50074C21.9474 1.42246 22.2228 1.34652 22.4957 1.27539C22.5809 1.25317 22.6315 1.16612 22.6093 1.08104C22.587 0.995962 22.5006 0.944965 22.4154 0.967068C22.1388 1.03906 21.861 1.11574 21.5893 1.19501C21.5054 1.21958 21.4572 1.30799 21.4807 1.39245C21.5017 1.46209 21.5646 1.50729 21.6338 1.50729ZM39.2618 1.78371C39.3285 1.78371 39.3903 1.74098 39.4125 1.67381C39.4397 1.59022 39.394 1.5002 39.3112 1.47291C39.0396 1.38475 38.7655 1.2993 38.4926 1.21904C38.4086 1.19447 38.3197 1.24238 38.295 1.32684C38.2703 1.41129 38.3185 1.49983 38.4024 1.52465C38.6716 1.60405 38.9445 1.68851 39.2125 1.77593C39.2285 1.78124 39.2446 1.78371 39.2618 1.78371ZM20.0101 2.03212C20.0274 2.03212 20.0459 2.02915 20.0632 2.02285C20.3287 1.92864 20.5991 1.8369 20.8683 1.74984C20.9523 1.7228 20.998 1.63303 20.9708 1.54944C20.9449 1.46572 20.8547 1.41941 20.7708 1.4467C20.4991 1.53462 20.225 1.62748 19.957 1.72268C19.8743 1.75219 19.8311 1.84319 19.8595 1.92617C19.8829 1.99137 19.9447 2.03212 20.0101 2.03212ZM40.8656 2.35843C40.9285 2.35843 40.989 2.3199 41.0137 2.25705C41.0458 2.17519 41.0051 2.08282 40.9236 2.05072C40.6581 1.94712 40.3889 1.84599 40.121 1.75017C40.0382 1.72054 39.9469 1.76363 39.9172 1.84649C39.8876 1.92934 39.9308 2.02047 40.0135 2.05023C40.2778 2.14493 40.5445 2.24495 40.8075 2.34744C40.826 2.35485 40.8458 2.35843 40.8656 2.35843ZM18.417 2.65003C18.438 2.65003 18.459 2.64596 18.4787 2.63744C18.738 2.52804 19.0035 2.42073 19.2665 2.31862C19.348 2.28676 19.3888 2.19452 19.3567 2.11253C19.3258 2.03029 19.2332 1.98967 19.1505 2.02165C18.885 2.12488 18.617 2.23329 18.3553 2.34393C18.2738 2.37813 18.2355 2.47148 18.2701 2.55261C18.296 2.61336 18.354 2.65003 18.417 2.65003ZM42.4293 3.02214C42.4898 3.02214 42.5466 2.98769 42.5738 2.92928C42.6108 2.84927 42.575 2.75468 42.496 2.71801C42.2379 2.59996 41.9749 2.48389 41.7144 2.37301C41.6341 2.33868 41.5403 2.37646 41.5057 2.45747C41.4711 2.53847 41.5082 2.63194 41.5896 2.66627C41.8477 2.77604 42.1083 2.89075 42.3626 3.00757C42.3836 3.01744 42.4071 3.02214 42.4293 3.02214ZM16.8621 3.35885C16.8856 3.35885 16.9103 3.35354 16.9325 3.34242C17.1844 3.21857 17.4425 3.09621 17.7006 2.97902C17.7808 2.94247 17.8154 2.84801 17.7796 2.768C17.7425 2.68798 17.6475 2.65255 17.5684 2.6891C17.3079 2.80764 17.0473 2.93124 16.7917 3.05657C16.7127 3.09534 16.6806 3.19067 16.7189 3.26969C16.7473 3.32612 16.8041 3.35885 16.8621 3.35885ZM43.9525 3.77468C44.0093 3.77468 44.0648 3.74381 44.0932 3.68985C44.134 3.61218 44.1044 3.51575 44.0266 3.47463C43.7771 3.34201 43.5203 3.211 43.2659 3.0853C43.1881 3.04628 43.0918 3.07863 43.0535 3.15753C43.014 3.23644 43.0461 3.33201 43.1252 3.37091C43.3771 3.49525 43.6302 3.6249 43.8784 3.75616C43.9019 3.76863 43.9265 3.77468 43.9525 3.77468ZM15.3522 4.15501C15.3793 4.15501 15.4065 4.14835 15.4312 4.13452C15.6744 3.99671 15.9251 3.85978 16.1758 3.72778C16.2536 3.68678 16.2832 3.59034 16.2424 3.51255C16.2017 3.43464 16.1041 3.405 16.0276 3.446C15.7745 3.57948 15.5213 3.71778 15.2744 3.85706C15.1978 3.90028 15.1706 3.99745 15.2139 4.07414C15.2435 4.126 15.2966 4.15501 15.3522 4.15501ZM45.4319 4.6131C45.485 4.6131 45.5381 4.58582 45.5677 4.5363C45.6134 4.4611 45.5899 4.36306 45.5146 4.3175C45.2714 4.17068 45.0232 4.02534 44.7762 3.88532C44.6996 3.84173 44.6033 3.86877 44.5589 3.94521C44.5157 4.02176 44.5428 4.11906 44.6194 4.16241C44.8639 4.30095 45.1096 4.44493 45.3491 4.59001C45.3751 4.6057 45.4035 4.6131 45.4319 4.6131ZM13.8916 5.0362C13.9212 5.0362 13.9508 5.02805 13.9768 5.01089C14.2138 4.85876 14.4559 4.70775 14.6979 4.56229C14.7732 4.51698 14.7967 4.41906 14.7522 4.34361C14.7065 4.26817 14.6077 4.24409 14.5336 4.2894C14.2892 4.43647 14.0447 4.58909 13.8051 4.74282C13.731 4.79048 13.71 4.88902 13.757 4.96298C13.7878 5.01027 13.8385 5.0362 13.8916 5.0362ZM46.8609 5.53537C46.9127 5.53537 46.9621 5.51116 46.993 5.46622C47.0424 5.39361 47.0239 5.29458 46.9523 5.2447C46.7176 5.0843 46.4781 4.92489 46.2398 4.77091C46.1657 4.72337 46.0669 4.74436 46.02 4.81845C45.9718 4.89241 45.9928 4.99107 46.0669 5.03861C46.3028 5.19111 46.5398 5.34879 46.772 5.50746C46.7991 5.52635 46.83 5.53537 46.8609 5.53537ZM12.4825 5.99878C12.5146 5.99878 12.548 5.98891 12.5764 5.96828C12.8036 5.80307 13.0369 5.6386 13.2691 5.47968C13.3419 5.42992 13.3605 5.33089 13.3111 5.25816C13.2617 5.18555 13.1629 5.16703 13.09 5.21654C12.8542 5.37731 12.6184 5.54364 12.3887 5.71058C12.3183 5.76232 12.3022 5.86185 12.3541 5.93297C12.385 5.97594 12.4331 5.99878 12.4825 5.99878ZM48.2373 6.53787C48.2843 6.53787 48.3312 6.51663 48.3633 6.476C48.4164 6.40636 48.404 6.30634 48.3349 6.25251C48.1102 6.07939 47.8805 5.90652 47.6496 5.73883C47.5792 5.68697 47.4792 5.70253 47.4273 5.77365C47.3754 5.84478 47.3915 5.94443 47.4619 5.99629C47.6903 6.16224 47.9175 6.33326 48.1398 6.50453C48.1682 6.527 48.2028 6.53787 48.2373 6.53787ZM11.1314 7.03987C11.1672 7.03987 11.203 7.02814 11.2327 7.00394C11.45 6.82625 11.6735 6.64881 11.897 6.47668C11.9661 6.42297 11.9797 6.32295 11.9254 6.25331C11.8723 6.18354 11.7723 6.17058 11.7019 6.22429C11.4759 6.3984 11.2512 6.57769 11.0314 6.75723C10.9622 6.81291 10.9524 6.91318 11.0079 6.98134C11.04 7.01987 11.0857 7.03987 11.1314 7.03987ZM49.5538 7.61706C49.5983 7.61706 49.6428 7.59842 49.6749 7.56211C49.7317 7.49581 49.7243 7.39517 49.6588 7.33738C49.444 7.15093 49.2229 6.96534 49.0044 6.78543C48.9352 6.72974 48.8352 6.73974 48.7796 6.80766C48.7241 6.87569 48.7339 6.97608 48.8019 7.0319C49.0192 7.20983 49.2365 7.39356 49.4489 7.57804C49.4798 7.60422 49.5168 7.61706 49.5538 7.61706ZM9.84378 8.15526C9.88206 8.15526 9.92033 8.14144 9.9512 8.11328C10.1574 7.92399 10.3698 7.73433 10.5834 7.54948C10.6501 7.49181 10.6575 7.3913 10.5995 7.32475C10.5427 7.25819 10.4414 7.25078 10.376 7.30857C10.1599 7.49539 9.9438 7.68728 9.73511 7.87855C9.6709 7.93807 9.66597 8.03882 9.72524 8.10365C9.75734 8.13785 9.80056 8.15526 9.84378 8.15526ZM50.8086 8.76975C50.8493 8.76975 50.8913 8.75358 50.9222 8.72159C50.9839 8.6585 50.9827 8.55761 50.9197 8.49625C50.7172 8.29954 50.5085 8.10148 50.2974 7.90787C50.2332 7.84847 50.1319 7.85255 50.0727 7.91738C50.0122 7.98208 50.0171 8.08284 50.0813 8.14235C50.29 8.33412 50.4974 8.52996 50.6975 8.72456C50.7283 8.75481 50.7678 8.76975 50.8086 8.76975ZM8.62052 9.34179C8.66251 9.34179 8.70325 9.32574 8.73412 9.29363C8.93169 9.091 9.1342 8.88948 9.33424 8.695C9.39721 8.63376 9.39968 8.53288 9.33794 8.46966C9.2762 8.40656 9.17618 8.40508 9.11321 8.46632C8.90947 8.6629 8.70572 8.86652 8.50692 9.07137C8.44518 9.13434 8.44642 9.23523 8.50939 9.29659C8.54026 9.32672 8.58101 9.34179 8.62052 9.34179ZM51.995 9.99196C52.0333 9.99196 52.0728 9.97813 52.1024 9.9501C52.1679 9.89059 52.1716 9.7897 52.1123 9.72488C51.9209 9.51583 51.7233 9.30628 51.5245 9.10193C51.4628 9.03895 51.3628 9.03735 51.2998 9.09872C51.2368 9.15996 51.2344 9.26072 51.2961 9.32382C51.4924 9.52595 51.6875 9.7334 51.8777 9.94035C51.9086 9.97455 51.9518 9.99196 51.995 9.99196ZM7.46695 10.5954C7.5114 10.5954 7.55585 10.5769 7.58672 10.5406C7.77194 10.3284 7.9621 10.116 8.15226 9.90909C8.21153 9.84426 8.20659 9.7435 8.14238 9.68399C8.07817 9.62447 7.97692 9.62867 7.91765 9.69337C7.72502 9.90242 7.53239 10.1171 7.34717 10.3316C7.28914 10.3979 7.29655 10.4987 7.36199 10.5564C7.39286 10.5825 7.4299 10.5954 7.46695 10.5954ZM53.1114 11.2804C53.1472 11.2804 53.183 11.2685 53.2127 11.2443C53.2806 11.1886 53.2904 11.0882 53.2349 11.0202C53.0558 10.8008 52.8694 10.5803 52.6829 10.3647C52.6249 10.2981 52.5249 10.2907 52.4582 10.3485C52.3915 10.406 52.3841 10.5067 52.4421 10.5732C52.6274 10.7866 52.8101 11.0048 52.9879 11.2219C53.02 11.2604 53.0657 11.2804 53.1114 11.2804ZM6.38643 11.9118C6.43459 11.9118 6.48151 11.8906 6.51361 11.8499C6.68402 11.6293 6.86183 11.4065 7.04087 11.1877C7.09644 11.1197 7.08656 11.0193 7.01865 10.9636C6.95073 10.9078 6.85072 10.9177 6.79391 10.9857C6.6124 11.2067 6.43335 11.4321 6.26172 11.6551C6.20738 11.7247 6.21973 11.8247 6.29012 11.8786C6.31852 11.9011 6.35309 11.9118 6.38643 11.9118ZM54.1535 12.6306C54.1856 12.6306 54.2177 12.6207 54.2461 12.6002C54.3177 12.5485 54.3338 12.4488 54.2819 12.3777C54.114 12.1472 53.9411 11.9164 53.7683 11.6914C53.7139 11.6218 53.6139 11.6089 53.5448 11.6626C53.4744 11.7164 53.462 11.8164 53.5151 11.8861C53.6868 12.1085 53.8584 12.337 54.0239 12.5649C54.0547 12.6079 54.1041 12.6306 54.1535 12.6306ZM5.38381 13.2867C5.43443 13.2867 5.48382 13.2625 5.51593 13.2175C5.67398 12.9869 5.83821 12.7545 6.00491 12.5265C6.05677 12.4554 6.04072 12.3559 5.9691 12.304C5.89872 12.2522 5.7987 12.2677 5.74684 12.3389C5.5789 12.5691 5.41221 12.804 5.25292 13.0371C5.20229 13.1097 5.22081 13.2089 5.29367 13.2586C5.32083 13.2775 5.35294 13.2867 5.38381 13.2867ZM55.1166 14.0385C55.1463 14.0385 55.1759 14.0303 55.2018 14.0131C55.2759 13.9655 55.2981 13.8669 55.25 13.793C55.0956 13.5529 54.9363 13.3125 54.7758 13.0784C54.7264 13.0057 54.6276 12.9873 54.5548 13.0369C54.4819 13.0866 54.4634 13.1857 54.5128 13.2583C54.6709 13.49 54.8289 13.7278 54.982 13.9654C55.0129 14.0126 55.0635 14.0385 55.1166 14.0385ZM4.46158 14.7158C4.51467 14.7158 4.56777 14.6885 4.5974 14.6392C4.74311 14.3986 4.89376 14.1572 5.04687 13.9219C5.09379 13.848 5.0728 13.7494 4.99871 13.7017C4.92463 13.654 4.82584 13.6752 4.77892 13.7491C4.62457 13.9871 4.47269 14.2311 4.32451 14.4741C4.28006 14.5493 4.30352 14.6473 4.37885 14.6929C4.40478 14.7084 4.43318 14.7158 4.46158 14.7158ZM55.9981 15.4995C56.024 15.4995 56.0512 15.4927 56.0759 15.4788C56.1525 15.4356 56.1796 15.3383 56.1364 15.2617C55.9969 15.0141 55.8512 14.7648 55.703 14.5209C55.6585 14.4455 55.5598 14.4214 55.4844 14.4669C55.4091 14.5122 55.3857 14.6101 55.4313 14.6855C55.5758 14.9268 55.7203 15.1734 55.8586 15.4185C55.8882 15.4704 55.9425 15.4995 55.9981 15.4995ZM3.62194 16.1947C3.67874 16.1947 3.7343 16.1639 3.7627 16.11C3.89483 15.8619 4.03066 15.6125 4.16895 15.3687C4.21341 15.2922 4.18624 15.195 4.10968 15.1515C4.03313 15.1081 3.93558 15.1349 3.89236 15.2114C3.75283 15.4579 3.61453 15.7099 3.48117 15.9607C3.44042 16.0383 3.47006 16.1349 3.54661 16.176C3.57131 16.1886 3.59601 16.1947 3.62194 16.1947ZM56.7945 17.009C56.8179 17.009 56.8426 17.0037 56.8649 16.9926C56.9439 16.9537 56.976 16.8583 56.9377 16.7794C56.8118 16.523 56.6809 16.2657 56.5475 16.0145C56.5068 15.9367 56.4105 15.9071 56.3327 15.948C56.2549 15.9891 56.2252 16.0855 56.266 16.1633C56.3969 16.4118 56.5265 16.6664 56.6513 16.9199C56.6797 16.9763 56.7365 17.009 56.7945 17.009ZM2.86863 17.7181C2.92913 17.7181 2.98717 17.6837 3.0131 17.6253C3.13041 17.3719 3.25265 17.1153 3.37737 16.8624C3.41564 16.7835 3.38354 16.688 3.30451 16.6491C3.22672 16.6099 3.13041 16.6423 3.09213 16.7213C2.96494 16.9768 2.84146 17.2362 2.72416 17.4923C2.68711 17.5723 2.72169 17.6669 2.80195 17.7036C2.82417 17.7135 2.8464 17.7181 2.86863 17.7181ZM57.5047 18.5629C57.5245 18.5629 57.5455 18.5588 57.5665 18.5503C57.6467 18.5161 57.685 18.4226 57.6504 18.3416C57.5405 18.0786 57.4232 17.8141 57.3059 17.5553C57.2689 17.4754 57.175 17.4402 57.0948 17.4765C57.0145 17.5131 56.9787 17.6075 57.0158 17.6877C57.1331 17.9436 57.2479 18.2053 57.3578 18.4656C57.3825 18.5263 57.4418 18.5629 57.5047 18.5629ZM2.20414 19.2816C2.26835 19.2816 2.32762 19.2432 2.35232 19.1803C2.45357 18.921 2.561 18.6579 2.67213 18.3984C2.7067 18.3174 2.66843 18.2239 2.58693 18.1894C2.50667 18.1549 2.41282 18.1928 2.37825 18.2738C2.26712 18.5362 2.15845 18.8021 2.05596 19.0642C2.02386 19.1461 2.06461 19.2385 2.14611 19.2706C2.16586 19.278 2.18438 19.2816 2.20414 19.2816ZM58.1233 20.1559C58.1406 20.1559 58.1592 20.1528 58.1764 20.1465C58.2592 20.1171 58.3024 20.026 58.2728 19.943C58.1777 19.6748 58.0764 19.4038 57.9739 19.1378C57.9418 19.0557 57.8492 19.0149 57.7677 19.0469C57.685 19.0788 57.6442 19.1711 57.6763 19.2531C57.7788 19.5163 57.8789 19.7845 57.9727 20.0499C57.9962 20.1151 58.0579 20.1559 58.1233 20.1559ZM1.62879 20.8852C1.69547 20.8852 1.75844 20.8426 1.78067 20.7753C1.8671 20.5085 1.95971 20.2388 2.05479 19.9737C2.08443 19.8909 2.04121 19.7997 1.95848 19.7699C1.87575 19.7401 1.78437 19.7833 1.75474 19.866C1.65842 20.1341 1.56581 20.4067 1.47691 20.6765C1.44974 20.7601 1.49543 20.85 1.5794 20.8773C1.59545 20.8827 1.61273 20.8852 1.62879 20.8852ZM58.648 21.7798C58.6628 21.7798 58.6777 21.7777 58.6937 21.7734C58.7777 21.7487 58.8258 21.6603 58.8011 21.5758C58.7221 21.3044 58.6369 21.0289 58.5492 20.757C58.5221 20.6734 58.4332 20.6272 58.3492 20.6545C58.2652 20.6816 58.2196 20.7713 58.2467 20.8551C58.3332 21.124 58.4171 21.3965 58.4961 21.6651C58.5159 21.7346 58.5789 21.7798 58.648 21.7798ZM1.14607 22.5195C1.21645 22.5195 1.2819 22.4724 1.30042 22.4009C1.37204 22.1282 1.4486 21.8536 1.52886 21.5847C1.55356 21.5003 1.5054 21.4117 1.4202 21.3869C1.33623 21.3621 1.24732 21.4101 1.22263 21.4944C1.14237 21.7664 1.06457 22.0439 0.992956 22.3196C0.969495 22.4046 1.02012 22.4919 1.10532 22.5142C1.11891 22.5178 1.13249 22.5195 1.14607 22.5195ZM59.0794 23.4287C59.0905 23.4287 59.1028 23.4273 59.1152 23.4246C59.2004 23.4049 59.2547 23.3193 59.2349 23.2336C59.1707 22.9581 59.1028 22.6782 59.03 22.4017C59.0077 22.3166 58.9213 22.2656 58.8361 22.2877C58.7509 22.31 58.7003 22.3969 58.7225 22.4821C58.7929 22.7556 58.8608 23.0326 58.9238 23.3051C58.9411 23.3788 59.0065 23.4287 59.0794 23.4287ZM0.759518 24.179C0.833606 24.179 0.89905 24.1269 0.915102 24.0513C0.970668 23.7771 1.03117 23.4986 1.09538 23.2234C1.11637 23.1378 1.06204 23.0521 0.976842 23.0321C0.890406 23.0119 0.805205 23.0655 0.785448 23.1509C0.720004 23.4291 0.659499 23.7106 0.602698 23.988C0.585411 24.0742 0.640977 24.1583 0.727413 24.1758L0.759518 24.179ZM59.4139 25.0993L59.441 25.0969C59.5275 25.0823 59.5855 24.9999 59.5707 24.9132C59.5238 24.6346 59.4707 24.3513 59.4151 24.071C59.3978 23.9847 59.3126 23.9288 59.2274 23.946C59.141 23.9633 59.0854 24.0471 59.1027 24.1334C59.1583 24.4109 59.2101 24.6912 59.257 24.9668C59.2706 25.0443 59.3373 25.0993 59.4139 25.0993ZM0.466699 25.8573C0.545727 25.8573 0.613641 25.8002 0.624754 25.7208C0.665502 25.4416 0.709955 25.1601 0.758112 24.8838C0.77293 24.7971 0.714894 24.7147 0.628458 24.6996C0.542022 24.6852 0.459291 24.7426 0.444473 24.8293C0.395081 25.1084 0.349393 25.3932 0.30988 25.6753C0.296297 25.7624 0.356802 25.8431 0.444473 25.8557L0.466699 25.8573ZM59.6522 26.7863L59.6707 26.7853C59.7584 26.7754 59.8214 26.6965 59.8115 26.6092C59.7794 26.3272 59.7436 26.0413 59.7028 25.7594C59.6917 25.6722 59.6102 25.612 59.5238 25.624C59.4361 25.6362 59.3756 25.7169 59.3879 25.804C59.4275 26.0829 59.4633 26.3657 59.4941 26.6448C59.504 26.7261 59.5732 26.7863 59.6522 26.7863ZM0.271743 27.5501C0.354475 27.5501 0.423624 27.4875 0.431033 27.4045C0.454494 27.1236 0.484129 26.8399 0.516234 26.5614C0.526112 26.474 0.463137 26.395 0.375467 26.3848C0.28903 26.3745 0.208768 26.4374 0.19889 26.5249C0.166785 26.8063 0.138385 27.0931 0.113689 27.3771C0.105045 27.4647 0.17049 27.5418 0.25816 27.5495L0.271743 27.5501ZM59.795 28.4843L59.8037 28.484C59.8914 28.4791 59.9593 28.404 59.9543 28.3161C59.9383 28.0328 59.9185 27.7454 59.8938 27.4617C59.8877 27.3741 59.8099 27.3081 59.7222 27.3163C59.6345 27.3236 59.5691 27.4006 59.5765 27.4882C59.5999 27.7688 59.6197 28.0535 59.6358 28.3337C59.6407 28.4186 59.7111 28.4843 59.795 28.4843ZM0.172714 29.2511C0.25915 29.2511 0.329533 29.1828 0.332003 29.0965C0.340647 28.8169 0.352995 28.5321 0.369047 28.2498C0.373986 28.1619 0.307307 28.0866 0.219636 28.0815C0.1332 28.0771 0.0566426 28.1434 0.0517034 28.2312C0.0344162 28.5165 0.0220682 28.8045 0.0134246 29.0871C0.010955 29.175 0.0801038 29.2485 0.167775 29.2511H0.172714ZM59.8407 30.1874C59.9284 30.1874 60 30.1162 60 30.0281V29.9998C60 29.7242 59.9963 29.4455 59.9889 29.1718C59.9864 29.0839 59.9111 29.0147 59.8259 29.0168C59.737 29.0193 59.6678 29.0925 59.6703 29.1804C59.6777 29.4513 59.6814 29.7271 59.6814 29.9998V30.0281C59.6814 30.1162 59.753 30.1874 59.8407 30.1874ZM0.1715 31.0111L0.175205 31.011C0.262875 31.0085 0.333259 30.9352 0.330789 30.8472C0.322146 30.5646 0.318441 30.2795 0.318441 29.9998V29.9437C0.318441 29.8557 0.246823 29.7845 0.159152 29.7845C0.0714813 29.7845 -0.000137099 29.8557 -0.000137099 29.9437V29.9998C-0.000137099 30.2825 0.00356732 30.5705 0.0122109 30.8563C0.0146805 30.9426 0.0850642 31.0111 0.1715 31.0111ZM59.7922 31.8907C59.8762 31.8907 59.9466 31.8252 59.9515 31.7404C59.9676 31.4564 59.9799 31.1684 59.9886 30.8846C59.991 30.7966 59.9219 30.7233 59.8342 30.7208C59.7441 30.7181 59.6725 30.7875 59.67 30.8754C59.6614 31.1562 59.649 31.4412 59.633 31.7222C59.628 31.81 59.6959 31.8853 59.7836 31.8904L59.7922 31.8907ZM0.266939 32.7124L0.280521 32.7119C0.368192 32.7045 0.433637 32.6274 0.426228 32.5398C0.401532 32.258 0.381775 31.9736 0.366957 31.6943C0.360783 31.6065 0.284226 31.54 0.19779 31.5443C0.110119 31.5492 0.0434397 31.6243 0.0483789 31.7121C0.0644313 31.9945 0.0841882 32.2818 0.108884 32.5666C0.115058 32.6497 0.185442 32.7124 0.266939 32.7124ZM59.6461 33.5887C59.7264 33.5887 59.7955 33.5288 59.8054 33.4475C59.8375 33.1635 59.8659 32.8768 59.8894 32.5951C59.898 32.5075 59.8326 32.4304 59.7449 32.4229C59.6572 32.4155 59.5794 32.4804 59.572 32.568C59.5486 32.8465 59.5202 33.1303 59.4881 33.4113C59.4782 33.4988 59.5412 33.5777 59.6288 33.5877L59.6461 33.5887ZM0.459328 34.4056L0.481555 34.404C0.567991 34.3916 0.628496 34.311 0.617383 34.2238C0.576634 33.9436 0.540825 33.6607 0.50872 33.383C0.498842 33.2956 0.419815 33.2324 0.333379 33.2428C0.245708 33.2526 0.182733 33.3317 0.192611 33.4191C0.224716 33.6996 0.26176 33.9855 0.301274 34.2686C0.312387 34.3482 0.380301 34.4056 0.459328 34.4056ZM59.4054 35.275C59.4807 35.275 59.5486 35.2203 59.5622 35.1429C59.6103 34.861 59.6548 34.5763 59.6955 34.2967C59.7079 34.2096 59.6474 34.1288 59.5597 34.1164C59.4733 34.1035 59.3918 34.1645 59.3794 34.2516C59.3399 34.5282 59.2955 34.8098 59.2473 35.0885C59.2325 35.1752 59.2905 35.2577 59.3782 35.2726L59.4054 35.275ZM0.746936 36.0847L0.779041 36.0816C0.865477 36.0642 0.921043 35.9802 0.903756 35.894C0.84819 35.6155 0.795093 35.3352 0.748171 35.0608C0.733353 34.974 0.650622 34.9161 0.564185 34.9307C0.477749 34.9456 0.419714 35.028 0.434531 35.1148C0.481454 35.392 0.53455 35.6752 0.591351 35.9568C0.606169 36.0323 0.672848 36.0847 0.746936 36.0847ZM59.0665 36.9451C59.1381 36.9451 59.2036 36.8953 59.2209 36.8219C59.2851 36.5447 59.3468 36.263 59.4036 35.9847C59.4209 35.8985 59.3641 35.8145 59.2789 35.797C59.1925 35.7796 59.1085 35.8353 59.0912 35.9216C59.0357 36.1968 58.9752 36.4755 58.9109 36.7496C58.8912 36.8355 58.9443 36.921 59.0295 36.9409C59.0418 36.9437 59.0542 36.9451 59.0665 36.9451ZM1.1323 37.7447C1.14464 37.7447 1.15823 37.743 1.17181 37.7394C1.25701 37.7172 1.30887 37.63 1.28665 37.545C1.21503 37.2734 1.14711 36.9967 1.0829 36.7222C1.06315 36.6365 0.977946 36.5829 0.89151 36.6029C0.806309 36.6228 0.753212 36.7084 0.772969 36.7941C0.837179 37.0715 0.906328 37.3513 0.977946 37.6257C0.996468 37.6973 1.06068 37.7447 1.1323 37.7447ZM58.6335 38.593C58.7015 38.593 58.7657 38.548 58.7854 38.4785C58.8657 38.2054 58.9435 37.9278 59.0151 37.6533C59.0386 37.5682 58.9867 37.4812 58.9015 37.4587C58.8163 37.4361 58.7299 37.4872 58.7076 37.5723C58.636 37.8438 58.5595 38.1184 58.4804 38.3887C58.4557 38.4731 58.5039 38.5617 58.5879 38.5864C58.6027 38.5909 58.6187 38.593 58.6335 38.593ZM1.61156 39.38C1.62761 39.38 1.64367 39.3774 1.66095 39.3723C1.74369 39.345 1.79061 39.2552 1.76344 39.1715C1.67577 38.9044 1.59181 38.632 1.51278 38.3616C1.48808 38.2772 1.39918 38.2287 1.31521 38.2535C1.23124 38.2784 1.18185 38.3668 1.20655 38.4514C1.28681 38.7245 1.37201 38.9999 1.45968 39.2698C1.48191 39.3372 1.54365 39.38 1.61156 39.38ZM58.1045 40.2131C58.1699 40.2131 58.2317 40.1725 58.2551 40.1074C58.3514 39.8381 58.444 39.5654 58.5317 39.2967C58.5589 39.213 58.5132 39.1231 58.4292 39.0959C58.3465 39.0686 58.2563 39.1145 58.2292 39.198C58.1427 39.464 58.0501 39.7338 57.9551 40C57.9254 40.0829 57.9686 40.1741 58.0514 40.2038C58.0687 40.2101 58.0872 40.2131 58.1045 40.2131ZM2.18586 40.9901C2.20562 40.9901 2.22414 40.9865 2.2439 40.9791C2.32539 40.9473 2.36614 40.8549 2.33404 40.7729C2.23155 40.5085 2.13153 40.2405 2.03769 39.9765C2.00805 39.8936 1.91668 39.8501 1.83394 39.8799C1.75121 39.9095 1.70799 40.0007 1.73763 40.0835C1.83271 40.3505 1.93396 40.6213 2.03769 40.8885C2.06238 40.9515 2.12165 40.9901 2.18586 40.9901ZM57.4862 41.7978C57.5479 41.7978 57.6072 41.7614 57.6331 41.7007C57.743 41.4404 57.8517 41.1744 57.9542 40.9099C57.9863 40.828 57.9468 40.7357 57.864 40.7036C57.7826 40.6717 57.6899 40.7121 57.6578 40.7941C57.5553 41.0556 57.4492 41.3189 57.3393 41.5763C57.3047 41.6573 57.343 41.7508 57.4245 41.7851C57.4442 41.7938 57.4652 41.7978 57.4862 41.7978ZM2.85099 42.5634C2.87321 42.5634 2.89668 42.5587 2.91767 42.5489C2.99793 42.5122 3.0325 42.4178 2.9967 42.3378C2.87815 42.0799 2.76332 41.8183 2.65342 41.5601C2.62008 41.4792 2.52624 41.4409 2.44474 41.4755C2.36448 41.5098 2.3262 41.6032 2.36077 41.6843C2.47067 41.9452 2.58674 42.2097 2.70652 42.4703C2.73368 42.5288 2.79048 42.5634 2.85099 42.5634ZM56.7782 43.3425C56.8363 43.3425 56.8931 43.3099 56.9215 43.2536C57.0462 42.9997 57.1697 42.7401 57.2882 42.4821C57.3253 42.4021 57.2894 42.3076 57.2092 42.271C57.1289 42.2344 57.0351 42.2695 56.998 42.3494C56.882 42.6047 56.7597 42.8614 56.635 43.1127C56.5967 43.1916 56.6288 43.2871 56.7079 43.326C56.7301 43.3372 56.7548 43.3425 56.7782 43.3425ZM3.60688 44.0952C3.63158 44.0952 3.65751 44.0893 3.68097 44.0767C3.75876 44.0356 3.7884 43.9391 3.74765 43.8615C3.61429 43.6107 3.48464 43.3562 3.36116 43.1052C3.32164 43.0261 3.22656 42.9938 3.14754 43.0326C3.06851 43.0714 3.0364 43.167 3.07468 43.2459C3.20063 43.4997 3.33152 43.7569 3.46611 44.0104C3.49452 44.0643 3.55008 44.0952 3.60688 44.0952ZM55.9833 44.8449C56.0388 44.8449 56.0919 44.8158 56.1215 44.7641C56.2623 44.5171 56.3994 44.2648 56.5327 44.0144C56.5735 43.9366 56.5439 43.8403 56.4661 43.7992C56.3883 43.7581 56.292 43.7876 56.2512 43.8654C56.1191 44.1132 55.9833 44.3628 55.845 44.6071C55.8017 44.6836 55.8277 44.7809 55.9042 44.8242C55.9289 44.8383 55.9561 44.8449 55.9833 44.8449ZM4.44761 45.5801C4.47601 45.5801 4.50441 45.5726 4.53035 45.5571C4.60567 45.5115 4.62913 45.4136 4.58344 45.3384C4.43897 45.098 4.2945 44.8517 4.15497 44.6058C4.11175 44.5292 4.0142 44.5026 3.93764 44.5458C3.86108 44.5891 3.83392 44.6863 3.87837 44.7629C4.0179 45.0113 4.16484 45.2604 4.31179 45.5033C4.34142 45.5528 4.39328 45.5801 4.44761 45.5801ZM55.1029 46.3002C55.1548 46.3002 55.2066 46.2745 55.2375 46.2272C55.3906 45.989 55.5425 45.745 55.6894 45.5018C55.7351 45.4264 55.7117 45.3285 55.6364 45.2829C55.561 45.2374 55.4635 45.2617 55.4178 45.3369C55.2721 45.5776 55.1214 45.8191 54.9696 46.0546C54.9214 46.1285 54.9436 46.2271 55.0165 46.2747C55.0436 46.292 55.0733 46.3002 55.1029 46.3002ZM5.37131 47.0142C5.40342 47.0142 5.43429 47.0051 5.46145 46.9863C5.5343 46.9365 5.55283 46.8373 5.50343 46.7649C5.34415 46.533 5.18609 46.2951 5.03298 46.0582C4.98605 45.9842 4.88727 45.963 4.81318 46.0106C4.73909 46.0583 4.7181 46.1568 4.76502 46.2307C4.91937 46.4704 5.0799 46.7106 5.24042 46.9449C5.27129 46.99 5.32068 47.0142 5.37131 47.0142ZM54.1408 47.7036C54.1902 47.7036 54.2384 47.6809 54.2692 47.6381C54.4359 47.4093 54.6026 47.1741 54.7632 46.9393C54.8138 46.8668 54.7953 46.7677 54.7224 46.7179C54.6496 46.6683 54.5508 46.6867 54.5001 46.7593C54.3409 46.9915 54.1766 47.2242 54.0124 47.4506C53.9605 47.5217 53.9766 47.6214 54.047 47.6731C54.0754 47.6937 54.1087 47.7036 54.1408 47.7036ZM6.37673 48.3928C6.41007 48.3928 6.44464 48.3819 6.47428 48.3594C6.54343 48.3056 6.55577 48.2056 6.50268 48.136C6.33104 47.9148 6.1594 47.6866 5.9927 47.4577C5.94084 47.3864 5.84206 47.3707 5.77044 47.4227C5.70006 47.4744 5.684 47.5741 5.73587 47.6452C5.9038 47.8766 6.07791 48.1073 6.25078 48.3309C6.28165 48.3714 6.32857 48.3928 6.37673 48.3928ZM53.1 49.0508C53.147 49.0508 53.1926 49.0309 53.2235 48.9924C53.405 48.7711 53.5841 48.5458 53.757 48.3225C53.81 48.2529 53.7977 48.1529 53.7273 48.099C53.6582 48.0456 53.5581 48.0583 53.5038 48.1279C53.3334 48.3487 53.1568 48.5716 52.9778 48.7905C52.921 48.8587 52.9321 48.9591 53 49.0148C53.0297 49.039 53.0655 49.0508 53.1 49.0508ZM7.45698 49.7113C7.49403 49.7113 7.53107 49.6985 7.56071 49.6724C7.62739 49.6146 7.63479 49.5141 7.57676 49.4477C7.39154 49.2342 7.20755 49.016 7.02974 48.7995C6.97418 48.7316 6.87416 48.7214 6.80624 48.7773C6.73833 48.833 6.72845 48.9334 6.78402 49.0014C6.96306 49.2202 7.14952 49.4406 7.33597 49.6565C7.36808 49.6928 7.41253 49.7113 7.45698 49.7113ZM51.9852 50.3375C52.0284 50.3375 52.0704 50.3201 52.1025 50.2859C52.2951 50.0764 52.4865 49.8614 52.6718 49.6471C52.7298 49.5807 52.7224 49.4801 52.6557 49.4224C52.5903 49.3647 52.489 49.3722 52.4322 49.4385C52.2482 49.6505 52.0581 49.8631 51.8679 50.0704C51.8086 50.1353 51.8123 50.236 51.8765 50.2955C51.9074 50.3236 51.9457 50.3375 51.9852 50.3375ZM8.61034 50.966C8.64985 50.966 8.68936 50.9511 8.72147 50.921C8.78444 50.8596 8.78568 50.7587 8.72394 50.6957C8.5276 50.4941 8.33251 50.2869 8.14235 50.0797C8.08184 50.0149 7.98182 50.0109 7.91638 50.0703C7.85217 50.1298 7.84723 50.2306 7.90773 50.2953C8.09913 50.5046 8.29793 50.714 8.4955 50.9177C8.52637 50.9498 8.56835 50.966 8.61034 50.966ZM50.7971 51.5592C50.8366 51.5592 50.8773 51.5442 50.9082 51.5142C51.1132 51.3148 51.3169 51.1111 51.5133 50.9085C51.575 50.8454 51.5738 50.7445 51.5108 50.6832C51.4478 50.622 51.3466 50.6233 51.2848 50.6864C51.091 50.887 50.8885 51.0885 50.6859 51.2857C50.623 51.347 50.6217 51.4479 50.6835 51.5109C50.7143 51.5431 50.7551 51.5592 50.7971 51.5592ZM9.83146 52.1529C9.87468 52.1529 9.91789 52.1356 9.95 52.1013C10.0093 52.0366 10.0043 51.9359 9.94012 51.8763C9.73144 51.6857 9.52523 51.49 9.32396 51.2946C9.26098 51.2335 9.15973 51.2349 9.09799 51.298C9.03748 51.3611 9.03872 51.4619 9.10169 51.5232C9.30543 51.7205 9.51411 51.9183 9.72403 52.1111C9.7549 52.1391 9.79318 52.1529 9.83146 52.1529ZM49.5425 52.7116C49.5784 52.7116 49.6166 52.6988 49.6463 52.6727C49.8611 52.4859 50.0772 52.2939 50.2859 52.1021C50.3501 52.0426 50.355 51.9418 50.2945 51.8771C50.2353 51.8122 50.1353 51.8081 50.0698 51.8675C49.8636 52.0572 49.6512 52.2472 49.4376 52.4319C49.3709 52.4896 49.3635 52.5902 49.4215 52.6567C49.4536 52.693 49.4969 52.7116 49.5425 52.7116ZM11.1193 53.2684C11.165 53.2684 11.2107 53.2485 11.2428 53.21C11.2984 53.142 11.2885 53.0416 11.2206 52.9859C11.002 52.8071 10.7834 52.6236 10.5723 52.4404C10.5056 52.3827 10.4044 52.39 10.3476 52.4563C10.2895 52.5228 10.2969 52.6235 10.3636 52.6811C10.5772 52.8664 10.797 53.0518 11.0181 53.2324C11.0477 53.2566 11.0835 53.2684 11.1193 53.2684ZM48.2229 53.7917C48.2575 53.7917 48.2908 53.7808 48.3205 53.7584C48.5452 53.5847 48.7712 53.4052 48.991 53.225C49.0589 53.1692 49.0687 53.0688 49.0132 53.0008C48.9576 52.9329 48.8576 52.9227 48.7897 52.9784C48.5711 53.1567 48.3489 53.3344 48.1254 53.5063C48.0562 53.56 48.0426 53.66 48.097 53.7297C48.1278 53.7704 48.176 53.7917 48.2229 53.7917ZM12.4665 54.3083C12.5159 54.3083 12.5641 54.2856 12.5962 54.2427C12.6468 54.1716 12.632 54.072 12.5604 54.0202C12.3319 53.854 12.1047 53.6833 11.8825 53.5126C11.8133 53.459 11.7133 53.4717 11.659 53.5414C11.6059 53.611 11.6182 53.711 11.6886 53.7648C11.9121 53.9373 12.1418 54.1099 12.3727 54.2778C12.4011 54.2984 12.4344 54.3083 12.4665 54.3083ZM46.8432 54.7954C46.8753 54.7954 46.9061 54.7864 46.9333 54.7676C47.1691 54.6062 47.405 54.4398 47.6334 54.273C47.705 54.2211 47.7211 54.1216 47.6692 54.0505C47.6174 53.9792 47.5174 53.9636 47.447 54.0154C47.2198 54.1804 46.9864 54.3451 46.753 54.5047C46.6814 54.5545 46.6629 54.6535 46.7123 54.7261C46.7431 54.7712 46.7925 54.7954 46.8432 54.7954ZM13.8706 55.2699C13.9224 55.2699 13.9743 55.2441 14.0052 55.1968C14.0521 55.1228 14.0311 55.0242 13.957 54.9766C13.7212 54.8251 13.4841 54.6675 13.2519 54.5085C13.1803 54.4589 13.0803 54.4773 13.0309 54.5499C12.9815 54.6225 13 54.7216 13.0716 54.7714C13.3075 54.9322 13.547 55.0913 13.7841 55.2444C13.8113 55.2616 13.8409 55.2699 13.8706 55.2699ZM45.4098 55.7189C45.437 55.7189 45.4654 55.7117 45.4913 55.696C45.7346 55.5489 45.9803 55.3962 46.2199 55.2419C46.294 55.1943 46.315 55.0958 46.2668 55.0218C46.2199 54.9478 46.1211 54.9266 46.047 54.9741C45.8099 55.1267 45.5679 55.2779 45.3271 55.4233C45.2518 55.4688 45.2271 55.5667 45.2728 55.642C45.3024 55.6917 45.3555 55.7189 45.4098 55.7189ZM15.3261 56.1489C15.3817 56.1489 15.436 56.1199 15.4656 56.068C15.5088 55.9914 15.4817 55.8943 15.4051 55.8509C15.1594 55.7123 14.9137 55.5687 14.6741 55.4239C14.6 55.3784 14.5012 55.4025 14.4556 55.4779C14.4111 55.5532 14.4346 55.6511 14.5099 55.6966C14.7519 55.8429 15.0001 55.9881 15.2483 56.1283C15.273 56.1422 15.3002 56.1489 15.3261 56.1489ZM43.9227 56.5596C43.9487 56.5596 43.9734 56.5537 43.9981 56.5411C44.2487 56.4085 44.5019 56.27 44.7501 56.1293C44.8266 56.086 44.8538 55.9888 44.8106 55.9122C44.7673 55.8356 44.6698 55.8089 44.5932 55.852C44.3475 55.9911 44.0969 56.1282 43.8487 56.2595C43.7709 56.3006 43.7412 56.3969 43.782 56.4747C43.8104 56.5288 43.8659 56.5596 43.9227 56.5596ZM16.8288 56.9434C16.8881 56.9434 16.9449 56.9108 16.9721 56.8545C17.0116 56.7756 16.9783 56.68 16.8992 56.6412C16.6486 56.5175 16.3954 56.3882 16.1472 56.2567C16.0694 56.2157 15.9731 56.2453 15.9311 56.3231C15.8904 56.4009 15.92 56.4972 15.9978 56.5385C16.2497 56.6712 16.5053 56.802 16.7585 56.9269C16.7819 56.9381 16.8054 56.9434 16.8288 56.9434ZM42.3919 57.3136C42.4141 57.3136 42.4364 57.3089 42.4574 57.2991C42.7167 57.1806 42.9784 57.0566 43.2328 56.931C43.3118 56.8921 43.3452 56.7965 43.3057 56.7176C43.2674 56.6387 43.1711 56.6063 43.0933 56.6452C42.8401 56.7695 42.5821 56.892 42.3252 57.0093C42.245 57.0459 42.2104 57.1404 42.2462 57.2203C42.2734 57.279 42.3314 57.3136 42.3919 57.3136ZM18.3737 57.6505C18.4367 57.6505 18.496 57.6139 18.5207 57.5533C18.5552 57.4723 18.517 57.3788 18.4367 57.3445C18.1774 57.2349 17.9169 57.1203 17.6637 57.004C17.5835 56.9675 17.4884 57.0025 17.4526 57.0825C17.4155 57.1625 17.4513 57.257 17.5304 57.2936C17.7872 57.4112 18.0502 57.527 18.312 57.6379C18.333 57.6464 18.354 57.6505 18.3737 57.6505ZM40.8177 57.9787C40.8374 57.9787 40.8572 57.9752 40.8757 57.9678C41.1412 57.8644 41.4091 57.7556 41.6721 57.6448C41.7524 57.6105 41.7907 57.517 41.7561 57.436C41.7228 57.3551 41.6289 57.317 41.5474 57.3514C41.2881 57.4611 41.0226 57.5685 40.7596 57.6709C40.6781 57.7029 40.6374 57.7952 40.6695 57.8771C40.6942 57.9402 40.7547 57.9787 40.8177 57.9787ZM19.9593 58.2687C20.0247 58.2687 20.0865 58.228 20.1099 58.1628C20.1383 58.0801 20.0963 57.989 20.0124 57.9593C19.7481 57.8646 19.4802 57.7649 19.2184 57.6627C19.1369 57.631 19.0443 57.6713 19.0122 57.7533C18.9801 57.8352 19.0208 57.9276 19.1036 57.9596C19.3678 58.0628 19.6382 58.1637 19.9062 58.2594C19.9235 58.2657 19.942 58.2687 19.9593 58.2687ZM39.2074 58.5523C39.2235 58.5523 39.2408 58.5497 39.2568 58.5444C39.5285 58.4563 39.8026 58.3632 40.0705 58.2676C40.1533 58.2381 40.1965 58.1469 40.1669 58.064C40.1372 57.9813 40.0471 57.9381 39.9631 57.9675C39.6976 58.0621 39.4272 58.1543 39.158 58.2413C39.0753 58.2684 39.0284 58.3583 39.0555 58.442C39.0778 58.5093 39.1407 58.5523 39.2074 58.5523ZM21.5797 58.7954C21.6488 58.7954 21.713 58.7504 21.7328 58.681C21.7575 58.5966 21.7093 58.5081 21.6254 58.4832C21.3549 58.4041 21.0833 58.3198 20.8153 58.2329C20.7314 58.2054 20.6425 58.2515 20.6141 58.3351C20.5869 58.4188 20.6326 58.5087 20.7165 58.5358C20.987 58.6238 21.2623 58.709 21.5352 58.789C21.55 58.7933 21.5648 58.7954 21.5797 58.7954ZM37.5726 59.0307C37.5849 59.0307 37.5985 59.029 37.6121 59.0255C37.8887 58.953 38.1665 58.8761 38.4382 58.7968C38.5222 58.772 38.5703 58.6836 38.5469 58.5991C38.5209 58.5147 38.4333 58.4661 38.348 58.491C38.0801 58.5695 37.806 58.6456 37.5318 58.7173C37.4466 58.7395 37.396 58.8266 37.4182 58.9116C37.4368 58.9833 37.501 59.0307 37.5726 59.0307ZM23.2279 59.2278C23.3007 59.2278 23.3662 59.1782 23.3834 59.1046C23.4032 59.0189 23.3501 58.9334 23.2637 58.9133C22.9895 58.8498 22.713 58.7814 22.4413 58.71C22.3561 58.6876 22.2684 58.7385 22.2462 58.8236C22.224 58.9087 22.2758 58.9958 22.3598 59.0182C22.6352 59.0903 22.9155 59.1594 23.1921 59.2238C23.2044 59.2266 23.2167 59.2278 23.2279 59.2278ZM35.9118 59.4147L35.9439 59.4115C36.2217 59.3555 36.5032 59.2947 36.7811 59.2306C36.8663 59.2108 36.9194 59.1252 36.8996 59.0395C36.8798 58.954 36.7946 58.9005 36.7094 58.9203C36.4341 58.9836 36.1563 59.0437 35.8809 59.0991C35.7945 59.1165 35.7389 59.2004 35.7562 59.2866C35.771 59.3623 35.8377 59.4147 35.9118 59.4147ZM24.8984 59.5654C24.9737 59.5654 25.0416 59.5105 25.0552 59.4331C25.07 59.3464 25.012 59.264 24.9255 59.249C24.6477 59.2013 24.3686 59.149 24.092 59.0932C24.0068 59.0756 23.9216 59.1316 23.9044 59.2178C23.8871 59.304 23.9426 59.388 24.0291 59.4055C24.3081 59.4618 24.5909 59.5149 24.8712 59.563L24.8984 59.5654ZM34.2325 59.7021L34.2548 59.7005C34.5363 59.6606 34.8215 59.6159 35.1006 59.568C35.1883 59.5531 35.2463 59.4708 35.2315 59.3841C35.2167 59.2974 35.1339 59.2395 35.0475 59.254C34.7697 59.3015 34.4881 59.3455 34.2103 59.3851C34.1226 59.3974 34.0621 59.4781 34.0745 59.5651C34.0856 59.6446 34.1547 59.7021 34.2325 59.7021ZM26.5852 59.8066C26.6655 59.8066 26.7334 59.7467 26.7433 59.6653C26.7531 59.5779 26.6902 59.499 26.6025 59.4891C26.3234 59.4574 26.0407 59.421 25.7628 59.3812C25.6764 59.3684 25.5949 59.4292 25.5825 59.5163C25.5702 59.6035 25.6307 59.6841 25.7171 59.6966C25.9987 59.7368 26.2851 59.7735 26.5667 59.8056L26.5852 59.8066ZM32.5396 59.8934L32.5532 59.8929C32.836 59.8689 33.1225 59.8408 33.4052 59.8088C33.4929 59.7989 33.5559 59.72 33.546 59.6326C33.5361 59.5452 33.4559 59.4826 33.3694 59.4922C33.0904 59.5238 32.8064 59.5518 32.5261 59.5754C32.4384 59.5827 32.373 59.6598 32.3804 59.7474C32.3878 59.8307 32.4569 59.8934 32.5396 59.8934ZM28.283 59.9511C28.367 59.9511 28.4361 59.8855 28.441 59.8008C28.446 59.7129 28.3793 59.6377 28.2916 59.6327C28.0101 59.6168 27.7261 59.5965 27.4458 59.5727C27.3618 59.5652 27.2816 59.6301 27.2742 59.7179C27.2667 59.8056 27.331 59.8826 27.4186 59.8902C27.7014 59.9143 27.9891 59.9346 28.2731 59.9508L28.283 59.9511ZM30.8378 59.9882H30.8428C31.1268 59.9804 31.4157 59.9683 31.6985 59.9525C31.7862 59.9476 31.8529 59.8725 31.8479 59.7846C31.843 59.6968 31.7676 59.6296 31.68 59.6344C31.4009 59.6501 31.1157 59.662 30.8341 59.6698C30.7452 59.6721 30.6761 59.7454 30.6786 59.8334C30.681 59.9198 30.7514 59.9882 30.8378 59.9882ZM29.9856 60C30.0733 60 30.1449 59.9288 30.1449 59.8407C30.1449 59.7528 30.0733 59.6814 29.9856 59.6814C29.7053 59.6813 29.4201 59.6771 29.1386 59.6691C29.0521 59.6671 28.9768 59.7359 28.9743 59.8238C28.9719 59.9117 29.041 59.9851 29.1287 59.9875C29.4139 59.9957 29.7016 59.9999 29.9856 60V60Z" fill="#FBB03B"/>
</svg>
