<svg width="60" height="60" viewBox="0 0 60 60" fill="none" xmlns="http://www.w3.org/2000/svg">
<mask id="mask0" style="mask-type:alpha" maskUnits="userSpaceOnUse" x="2" y="2" width="57" height="57">
<path fill-rule="evenodd" clip-rule="evenodd" d="M58.0146 30.0342C58.0146 45.4913 45.4838 58.0208 30.0279 58.0208C14.5707 58.0208 2.04126 45.4913 2.04126 30.0342C2.04126 14.5782 14.5707 2.04749 30.0279 2.04749C45.4838 2.04749 58.0146 14.5782 58.0146 30.0342" fill="white"/>
</mask>
<g mask="url(#mask0)">
<path fill-rule="evenodd" clip-rule="evenodd" d="M58.0146 30.0342C58.0146 45.4913 45.4838 58.0208 30.0279 58.0208C14.5707 58.0208 2.04126 45.4913 2.04126 30.0342C2.04126 14.5782 14.5707 2.04749 30.0279 2.04749C45.4838 2.04749 58.0146 14.5782 58.0146 30.0342" fill="#FCE3C3"/>
<path fill-rule="evenodd" clip-rule="evenodd" d="M70.3266 96.759C69.64 95.0389 68.9522 93.3188 68.2657 91.5975C67.6063 89.9478 67.0309 88.5253 66.1641 86.9707C65.8072 86.3323 65.3219 85.4964 64.9181 84.8617C62.9882 81.3117 61.0582 77.7616 59.127 74.2116C57.9057 71.9655 56.6845 69.7194 55.4633 67.4733C54.6607 65.9977 53.8568 64.5172 53.2456 62.9539C52.4887 61.0153 52.0368 58.973 51.628 56.9318C51.3255 55.4316 51.044 53.9226 50.7415 52.4199C49.861 52.8113 48.9819 53.2065 48.1076 53.6139C46.2332 54.4882 44.3687 55.3995 42.4844 56.2601C43.9118 60.4275 45.4713 64.5308 47.6211 68.3685C51.4601 75.2266 57.1525 80.6276 61.7929 86.9707C61.9608 87.2004 61.8867 87.8894 61.9028 88.1821C61.9534 89.1316 61.8744 90.0787 61.9904 91.0246C62.1078 91.9815 62.33 92.9249 62.6511 93.8325C62.7968 94.2437 63.1931 94.6215 63.613 94.2523C63.6512 94.2289 63.6871 94.2005 63.7204 94.1622C64.1365 93.7214 64.139 93.1176 64.1118 92.5495C64.0822 91.9013 64.1155 91.2876 64.3983 90.6936C64.4749 90.5331 64.6045 90.3812 64.7786 90.3479C64.8848 90.3257 64.9947 90.3528 65.0984 90.3862C65.4442 90.5047 65.7059 90.7196 65.9171 90.9851C66.0282 91.1234 66.127 91.2765 66.2147 91.437C66.2999 91.5889 66.3764 91.7457 66.4505 91.9038C66.5419 92.1013 66.6283 92.2989 66.7197 92.4853C66.737 92.5249 66.7555 92.5619 66.7753 92.5989C66.7913 92.6323 66.8099 92.6669 66.8259 92.7014C66.937 92.9212 67.0482 93.1398 67.1593 93.3608C67.3606 93.7609 67.5618 94.161 67.7644 94.5623C67.9397 94.9105 68.1163 95.2599 68.2916 95.6094C68.6003 96.2194 68.93 96.9034 69.482 97.3356C69.8944 97.6591 70.5525 97.327 70.3266 96.759" fill="#FFCFCA"/>
<path fill-rule="evenodd" clip-rule="evenodd" d="M18.8221 41.7968C12.663 41.7955 6.76437 61.2461 6.61372 61.498C6.4853 61.7141 -5.76758 79.7544 -5.80339 79.7977C-5.80339 79.7977 -9.96218 83.9824 -10.9784 85.2406C-11.6637 86.0939 -12.3799 86.9755 -12.8183 87.9831C-13.2825 89.05 -13.5665 90.1749 -13.8703 91.2948C-13.9185 91.4702 -13.9666 91.6505 -13.9456 91.8308C-13.9061 92.1555 -13.5493 92.4383 -13.2233 92.2901C-12.5157 91.9728 -12.2725 91.0454 -12.065 90.3712C-11.8724 89.7427 -11.7144 89.0994 -11.418 88.5104C-11.1278 87.93 -10.6895 87.504 -10.1696 87.1188C-9.79548 86.8397 -9.43492 86.5495 -9.05213 86.2791C-8.90766 86.1754 -8.75455 86.0717 -8.59402 85.9902C-8.3767 85.8778 -8.14456 85.8037 -7.90007 85.8222C-7.69633 85.8383 -7.39998 85.9358 -7.2802 86.1161C-7.14931 86.3112 -7.29255 86.5421 -7.37405 86.7236C-7.47406 86.9397 -7.6173 87.1311 -7.76548 87.3176C-8.01861 87.6324 -8.31373 87.9436 -8.46684 88.3202C-8.49401 88.3844 -8.51623 88.4499 -8.53352 88.5178C-8.71997 89.2389 -8.17419 90.2798 -7.36787 89.6266C-7.19377 89.4871 -7.05917 89.3068 -6.92335 89.1315C-6.27384 88.2955 -5.44283 87.5929 -4.95508 86.6483C-4.64268 86.047 -4.39942 85.4147 -4.15864 84.7838C-3.7067 83.6058 -3.51161 82.8958 -3.42517 82.3315L-3.42393 82.329L-3.41035 82.3068C-3.31404 82.2314 7.84234 72.2296 14.4164 63.2674C15.9574 61.167 19.7334 52.905 21.5609 46.9088C21.9375 45.6728 19.9717 42.9896 18.8221 41.7968" fill="#FFCFCA"/>
<path fill-rule="evenodd" clip-rule="evenodd" d="M27.7025 27.93C29.5645 28.8808 31.4612 29.7612 33.3702 30.6169C33.9444 30.8738 34.5247 31.1318 35.1409 31.2603L35.378 37.7306C35.2656 37.8047 35.1458 37.8664 35.0223 37.9183C34.458 39.3506 33.064 40.3644 31.4303 40.3644C29.6732 40.3644 28.1914 39.1901 27.7247 37.5837C27.6889 37.5725 27.6543 37.5614 27.6185 37.5515C27.6185 37.4009 27.6173 37.2503 27.6173 37.0996C27.5864 36.9057 27.5703 36.7069 27.5703 36.5044C27.5703 36.3143 27.5852 36.1278 27.6123 35.9438C27.6111 35.6845 27.6099 35.424 27.6086 35.1634C27.6049 34.1682 27.6 33.1717 27.4963 32.1814C27.4642 31.8777 27.4246 31.5751 27.3752 31.2738C27.2592 30.5243 27.1011 29.781 26.9431 29.0376C26.8122 28.4264 26.6825 27.8139 26.5516 27.2039C26.9171 27.5361 27.2604 27.704 27.7025 27.93" fill="#FFCFCA"/>
<path fill-rule="evenodd" clip-rule="evenodd" d="M38.9873 21.9324C38.7898 24.3539 37.7328 26.7074 36.0041 28.4139C35.2125 29.1943 34.2815 29.8426 33.2468 30.2451C32.1095 30.6872 30.8698 30.8255 29.6523 30.7625C28.9324 30.7242 28.2075 30.6155 27.5482 30.3291C26.7567 29.9846 26.0948 29.4017 25.4787 28.7979C24.4254 27.7644 23.4548 26.6333 22.7337 25.3454C22.0138 24.0588 21.5508 22.6066 21.5557 21.1311C21.5569 20.631 21.6137 20.1222 21.8076 19.6604C22.0657 19.0455 22.546 18.554 23.0387 18.1058C24.6674 16.6216 26.5776 15.4065 28.7002 14.8175C30.8957 14.2088 33.2146 14.2903 35.4904 14.378C36.067 14.399 36.593 14.5126 37.0561 14.8743C37.4339 15.1695 37.6414 15.6696 37.8488 16.0906C38.4193 17.2513 38.7947 18.5096 38.9466 19.795C39.0305 20.5038 39.0454 21.2212 38.9873 21.9324" fill="#534741"/>
<path fill-rule="evenodd" clip-rule="evenodd" d="M35.2681 34.7449C33.138 34.2695 31.0759 33.4915 29.1916 32.3975C28.5915 32.0505 27.9692 31.6776 27.3752 31.2738C27.2592 30.5243 27.1011 29.781 26.9431 29.0376C26.8122 28.4264 26.6825 27.8139 26.5516 27.2039C26.9171 27.5361 27.2604 27.704 27.7025 27.93C29.5645 28.8808 31.4612 29.7612 33.3702 30.6169C33.9444 30.8738 34.5247 31.1318 35.1409 31.2603L35.2681 34.7449" fill="#F9BFBB"/>
<path fill-rule="evenodd" clip-rule="evenodd" d="M38.7332 20.7927C38.5999 20.2543 38.4369 19.7234 38.248 19.2072C37.654 17.5785 36.5526 16.0795 35.0869 15.0879C32.2703 13.1864 28.3363 13.6519 26.0655 16.1548C25.5271 16.7475 25.09 17.4266 24.7813 18.1564C24.0169 19.9481 23.9762 21.8756 24.3936 23.7315C24.7591 25.3738 25.4827 26.9593 26.3742 28.3497C26.9237 29.2029 27.5596 30.008 28.314 30.7019C28.745 31.0983 29.2216 31.4576 29.7291 31.7614C30.7478 32.3739 31.8974 32.7678 33.0902 32.8073C34.1682 32.8419 35.2659 32.5578 36.176 31.9911C37.2021 31.3502 37.822 30.3648 38.2677 29.2832C39.3618 26.6172 39.4272 23.5821 38.7332 20.7927" fill="#FFCFCA"/>
<path fill-rule="evenodd" clip-rule="evenodd" d="M26.8689 27.7805C25.8441 28.293 24.5475 28.2189 23.5955 27.578C22.7916 27.0384 22.2669 26.1123 22.1928 25.1492C22.1804 24.9738 22.1817 24.7985 22.1989 24.6219C22.2298 24.3145 22.3088 24.0095 22.4545 23.7378C22.82 23.0673 23.614 22.6722 24.3734 22.7327C25.1353 22.7957 25.8354 23.2871 26.1984 23.9588L26.8689 27.7805" fill="#FFCFCA"/>
<path fill-rule="evenodd" clip-rule="evenodd" d="M30.0808 18.7618C31.8008 18.4383 33.5246 18.0542 35.1533 17.4442C36.477 16.9503 37.9415 15.9983 38.2958 14.5672C38.7391 12.7755 37.2339 11.4024 35.7349 10.6998C32.8096 9.32915 29.1929 9.57118 26.5221 11.4184C24.9008 12.5384 23.6808 14.2066 23.1202 16.0674C22.7992 17.1355 22.6658 18.7507 23.9228 19.2458C25.3836 19.8225 27.1901 19.2816 28.6731 19.0186C29.1398 18.9346 29.6103 18.8507 30.0808 18.7618" fill="#534741"/>
<path fill-rule="evenodd" clip-rule="evenodd" d="M20.2037 19.1371C20.3531 18.0295 20.8421 17.0058 21.7448 16.4317C23.0549 15.5982 25.038 15.8328 25.8344 17.259C26.3542 18.19 26.3629 19.3767 26.2209 20.4077C26.1554 20.8893 26.0283 21.3709 25.7702 21.7882C25.5973 22.0685 25.012 22.7921 24.6218 22.7353C24.4909 22.7155 24.3551 22.6983 24.2427 22.6896C24.2205 22.6871 24.1983 22.6859 24.1761 22.6859C23.776 22.6871 23.4031 22.7884 23.0573 22.9884C22.7993 23.128 22.5918 23.3181 22.4362 23.5589C21.9448 24.0961 21.2051 23.1687 20.9446 22.7773C20.3149 21.829 20.0284 20.4262 20.2037 19.1371" fill="#534741"/>
<path fill-rule="evenodd" clip-rule="evenodd" d="M45.795 59.3875C45.7789 59.3936 45.7641 59.4023 45.7481 59.4084C46.2198 67.2877 46.4951 83.0005 47.0977 89.6338C37.9022 89.067 24.2898 89.5832 16.2043 88.6003C15.9858 84.5576 16.2019 74.9978 17.3157 62.3473C17.4243 61.1051 17.5503 59.8295 17.6947 58.5256C17.6997 58.4848 17.7034 58.4453 17.7083 58.4033L17.691 58.3922C16.4933 57.5735 15.1572 56.8376 13.8175 56.114C11.9517 55.1064 10.0797 54.1248 8.55601 52.9826C8.42265 52.8813 10.3255 49.6153 10.4082 49.4436C13.0037 44.0377 17.4861 38.3082 23.6563 36.9858C24.0194 36.908 27.5682 36.5042 27.5743 36.3437C27.5731 36.3968 27.5719 36.4499 27.5719 36.5042C27.5719 38.6367 29.2993 40.3642 31.4318 40.3642C33.5631 40.3642 35.2906 38.6367 35.2906 36.5042C35.2906 36.4523 35.2893 36.4005 35.2869 36.3499C38.5233 37.008 41.6115 38.4688 44.1169 40.6C46.3939 42.5362 48.2053 44.9984 49.4006 47.7347C49.6228 48.2409 49.8278 48.7546 50.0217 49.2732C50.8231 51.4292 51.4466 53.6457 52.1184 55.8424C51.3108 56.4388 50.4205 57.0129 49.4808 57.555C48.309 58.2305 47.0582 58.8528 45.795 59.3875" fill="#150F84"/>
<path fill-rule="evenodd" clip-rule="evenodd" d="M45.6938 52.1456C45.8358 54.5572 45.6641 56.9774 45.795 59.3877C47.0582 58.8518 48.3078 58.2307 49.4809 57.5553C48.9141 56.9626 48.4227 56.2958 48.0251 55.5746C47.0743 53.8509 46.6816 51.8863 46.1568 49.9897C45.6308 48.0918 44.9504 46.284 43.5292 44.9196C45.006 46.9977 45.5431 49.6032 45.6938 52.1456" fill="black"/>
<path fill-rule="evenodd" clip-rule="evenodd" d="M31.085 20.3927C31.2381 20.3767 31.3912 20.389 31.5443 20.4014C31.8135 20.4236 32.0839 20.4458 32.3543 20.468C32.4432 20.4755 32.5556 20.4705 32.5951 20.389C32.6136 20.3495 32.6075 20.3014 32.5902 20.2606C32.5247 20.1038 32.3333 20.0519 32.1654 20.0297C31.7505 19.9778 31.3109 20.0062 30.922 20.1705C30.8454 20.2026 30.4108 20.4014 30.4416 20.5039C30.4688 20.594 30.9985 20.4014 31.085 20.3927" fill="#211A17"/>
<path fill-rule="evenodd" clip-rule="evenodd" d="M36.9757 20.2099C36.8226 20.205 36.6708 20.2284 36.5189 20.2519C36.2509 20.2939 35.983 20.3359 35.7163 20.3778C35.6273 20.3914 35.515 20.3951 35.4705 20.3173C35.4483 20.2778 35.4508 20.2297 35.4644 20.1877C35.5187 20.0272 35.7064 19.9605 35.8718 19.9271C36.2818 19.8444 36.7226 19.8407 37.1227 19.9765C37.2005 20.0025 37.6499 20.1692 37.6265 20.2729C37.6055 20.3655 37.0634 20.2124 36.9757 20.2099" fill="#211A17"/>
<path fill-rule="evenodd" clip-rule="evenodd" d="M36.4957 27.3126C36.1931 28.1004 35.6362 28.6437 34.9608 28.6992C34.3101 28.7536 33.6927 28.3424 33.2654 27.6608C32.9728 27.1928 32.769 26.5988 32.7048 25.9382L32.832 25.9271L36.5932 25.6172L36.7327 25.6061C36.776 26.2309 36.6858 26.8199 36.4957 27.3126" fill="#CE7872"/>
<path fill-rule="evenodd" clip-rule="evenodd" d="M36.5935 25.6171C36.1761 26.2493 35.5365 26.6754 34.7919 26.7371C34.0473 26.7988 33.3484 26.4827 32.8323 25.9271L36.5935 25.6171" fill="white"/>
<path fill-rule="evenodd" clip-rule="evenodd" d="M36.496 27.3123C36.1935 28.1001 35.6366 28.6434 34.9611 28.699C34.3104 28.7533 33.693 28.3421 33.2657 27.6605C33.4497 27.5395 33.6411 27.4333 33.8424 27.3444C34.4215 27.0863 35.0723 26.974 35.6983 27.074C35.9774 27.1184 36.2416 27.2012 36.496 27.3123" fill="#EA8C8B"/>
<path fill-rule="evenodd" clip-rule="evenodd" d="M32.5752 22.8291C32.5913 23.3415 32.3097 23.7663 31.9479 23.7762C31.5861 23.7873 31.2811 23.381 31.2651 22.8686C31.2503 22.3549 31.5306 21.9314 31.8924 21.9203C32.2542 21.9092 32.5604 22.3166 32.5752 22.8291" fill="#211A17"/>
<path fill-rule="evenodd" clip-rule="evenodd" d="M32.1009 22.5312C31.8897 22.5374 31.8996 22.8646 32.1108 22.8584C32.3219 22.8522 32.312 22.525 32.1009 22.5312" fill="white"/>
<path fill-rule="evenodd" clip-rule="evenodd" d="M36.0711 22.7242C36.0859 23.2366 36.3921 23.6429 36.7539 23.6318C37.1157 23.6207 37.396 23.1971 37.3812 22.6847C37.3652 22.171 37.0602 21.7648 36.6984 21.7759C36.3366 21.787 36.055 22.2105 36.0711 22.7242" fill="#211A17"/>
<path fill-rule="evenodd" clip-rule="evenodd" d="M36.9194 22.2894C36.7095 22.2955 36.7181 22.6228 36.9293 22.6166C37.1404 22.6104 37.1305 22.282 36.9194 22.2894" fill="white"/>
<path fill-rule="evenodd" clip-rule="evenodd" d="M34.9512 23.8762C34.7375 23.7095 34.4054 23.7144 34.2041 23.8959L34.7882 24.906C34.9512 24.8961 35.0845 24.7603 35.1438 24.6084C35.2438 24.3565 35.1648 24.0429 34.9512 23.8762" fill="#CE7872"/>
<path fill-rule="evenodd" clip-rule="evenodd" d="M29.792 23.933C28.8289 23.9997 28.0917 24.6875 28.146 25.4703C28.2003 26.2532 29.0252 26.8335 29.9883 26.7669C30.9515 26.7002 31.6886 26.0112 31.6343 25.2283C31.58 24.4454 30.7551 23.8663 29.792 23.933" fill="#F9BFBB"/>
<path fill-rule="evenodd" clip-rule="evenodd" d="M39.063 24.4071C39.0334 23.9688 38.5703 23.6428 38.0295 23.6798C37.4887 23.7181 37.075 24.1046 37.1059 24.543C37.1367 24.9825 37.5998 25.3085 38.1394 25.2702C38.6802 25.2332 39.0939 24.8467 39.063 24.4071" fill="#F9BFBB"/>
<path fill-rule="evenodd" clip-rule="evenodd" d="M19.1727 48.924C18.4405 52.0357 17.9453 55.2054 17.6909 58.3924C16.4932 57.5738 15.1571 56.8378 13.8174 56.1142C14.215 55.8376 14.6015 55.545 14.9756 55.235C16.3141 54.1225 17.481 52.7617 18.1639 51.1602C18.496 50.3749 18.6454 49.5933 19.1727 48.924" fill="black"/>
</g>
<path fill-rule="evenodd" clip-rule="evenodd" d="M29.1053 0.33216C29.0201 0.33216 28.9485 0.264247 28.946 0.177811C28.9435 0.0889054 29.0127 0.0160524 29.1003 0.0135828C29.3843 0.00493919 29.672 0.0012348 29.9573 0C30.045 0 30.1166 0.0716182 30.1166 0.159289C30.1166 0.246959 30.0462 0.318578 29.9573 0.318578C29.6758 0.319812 29.3905 0.323517 29.1102 0.33216H29.1053ZM31.6616 0.364278H31.6529C31.3702 0.348226 31.0849 0.337113 30.8059 0.329704C30.7182 0.327234 30.6478 0.254381 30.6503 0.166711C30.6527 0.0778052 30.7281 0.00495218 30.8145 0.0111262C31.096 0.0185349 31.385 0.0308829 31.6702 0.0457005C31.7579 0.0506397 31.8246 0.125962 31.8209 0.213633C31.8159 0.298834 31.7455 0.364278 31.6616 0.364278ZM27.4038 0.430154C27.3223 0.430154 27.2532 0.368414 27.2458 0.285683C27.2384 0.196777 27.3038 0.12022 27.3915 0.112811C27.6767 0.0881152 27.9644 0.0671236 28.2447 0.0510712C28.3361 0.0461321 28.4089 0.114046 28.4139 0.201716C28.4188 0.289387 28.3509 0.36471 28.2632 0.369649C27.9854 0.385701 27.7014 0.405458 27.4186 0.430154H27.4038ZM33.3592 0.50741L33.3407 0.506176C33.0629 0.475306 32.7789 0.446905 32.4974 0.423444C32.4097 0.416035 32.3455 0.339478 32.3516 0.251808C32.3591 0.164137 32.4368 0.101162 32.5245 0.106102C32.8085 0.129563 33.095 0.157963 33.3765 0.190068C33.4642 0.198711 33.5272 0.277738 33.5173 0.365409C33.5087 0.446905 33.4395 0.50741 33.3592 0.50741ZM25.7122 0.624667C25.6344 0.624667 25.5653 0.566631 25.5542 0.487604C25.5418 0.401168 25.6023 0.319672 25.6887 0.307324C25.9727 0.266576 26.2592 0.229532 26.5383 0.197427C26.6272 0.187549 26.705 0.250523 26.7149 0.338194C26.7247 0.425864 26.6618 0.503657 26.5753 0.513535C26.2987 0.54564 26.016 0.582684 25.7344 0.622197L25.7122 0.624667ZM35.0459 0.743355L35.0187 0.740886C34.7434 0.693964 34.4606 0.650746 34.1815 0.611232C34.0951 0.598884 34.0346 0.518622 34.047 0.430952C34.0593 0.344516 34.1396 0.284011 34.226 0.296359C34.5088 0.335873 34.794 0.380325 35.0731 0.427248C35.1595 0.442065 35.2175 0.524796 35.2027 0.611232C35.1904 0.689024 35.1225 0.743355 35.0459 0.743355ZM24.033 0.914988C23.9589 0.914988 23.8922 0.863127 23.8774 0.787804C23.8601 0.701368 23.9157 0.617402 24.0009 0.600115C24.2787 0.543314 24.5627 0.490218 24.843 0.442061C24.9307 0.427243 25.0122 0.485279 25.027 0.571715C25.0418 0.65815 24.9838 0.740882 24.8974 0.755699C24.6195 0.803856 24.3392 0.856953 24.0651 0.912519L24.033 0.914988ZM36.7167 1.07792C36.7056 1.07792 36.6933 1.07668 36.6809 1.07421C36.4068 1.01124 36.129 0.950731 35.8524 0.895165C35.7672 0.879113 35.7104 0.795147 35.7276 0.708711C35.7449 0.622275 35.8289 0.565474 35.9153 0.582762C36.1944 0.639562 36.4759 0.700067 36.7525 0.763042C36.839 0.782799 36.8921 0.868 36.8723 0.954436C36.855 1.02852 36.7896 1.07792 36.7167 1.07792ZM22.3732 1.30273C22.3028 1.30273 22.2386 1.25457 22.2188 1.18419C22.1966 1.09899 22.2472 1.01132 22.3324 0.989092C22.6078 0.916239 22.8881 0.847091 23.1647 0.782881C23.2499 0.763124 23.3351 0.816221 23.3561 0.901422C23.3758 0.987857 23.3215 1.07306 23.2363 1.09282C22.9634 1.15702 22.6868 1.22494 22.4139 1.29656C22.4004 1.30026 22.3868 1.30273 22.3732 1.30273ZM38.3662 1.5077C38.3514 1.5077 38.3366 1.50523 38.3218 1.50153C38.0489 1.4225 37.7747 1.34595 37.5043 1.27556C37.4191 1.25334 37.3685 1.1669 37.3907 1.0817C37.4129 0.996498 37.4994 0.944636 37.5846 0.966863C37.8575 1.03848 38.1353 1.11504 38.4107 1.1953C38.4946 1.22 38.5428 1.30767 38.5193 1.39287C38.4983 1.46202 38.4354 1.5077 38.3662 1.5077ZM20.7384 1.78423C20.6717 1.78423 20.6099 1.74101 20.5877 1.67434C20.5605 1.59037 20.6062 1.50023 20.689 1.47306C20.9606 1.38416 21.236 1.29896 21.5076 1.2187C21.5916 1.194 21.6805 1.24216 21.7052 1.32736C21.7299 1.41132 21.6817 1.50023 21.5978 1.52493C21.3286 1.60395 21.0557 1.68792 20.7877 1.77559C20.7717 1.78053 20.7556 1.78423 20.7384 1.78423ZM39.9901 2.03257C39.9729 2.03257 39.9543 2.0301 39.937 2.02269C39.6728 1.92884 39.4024 1.83747 39.132 1.7498C39.048 1.72263 39.0023 1.63373 39.0295 1.54976C39.0554 1.46579 39.1455 1.42011 39.2295 1.44727C39.5036 1.53494 39.7765 1.62879 40.0432 1.72263C40.126 1.75227 40.1692 1.84364 40.1408 1.92637C40.1173 1.99182 40.0556 2.03257 39.9901 2.03257ZM19.1343 2.35827C19.0713 2.35827 19.0108 2.31999 18.9861 2.25702C18.954 2.17552 18.9947 2.08291 19.0762 2.05081C19.3417 1.94708 19.6121 1.84583 19.8789 1.74952C19.9616 1.71988 20.053 1.7631 20.0826 1.84583C20.1122 1.92856 20.069 2.01994 19.9863 2.04957C19.722 2.14465 19.4553 2.24467 19.1923 2.34716C19.1738 2.35457 19.154 2.35827 19.1343 2.35827ZM41.583 2.64985C41.5633 2.64985 41.5423 2.64614 41.5213 2.6375C41.2608 2.5276 40.9953 2.42017 40.7335 2.31892C40.652 2.28682 40.6113 2.19544 40.6434 2.11271C40.6742 2.03121 40.7668 1.99046 40.8496 2.02133C41.1138 2.12506 41.3818 2.23248 41.6448 2.34485C41.7263 2.37819 41.7646 2.47204 41.73 2.55353C41.704 2.61404 41.646 2.64985 41.583 2.64985ZM17.5713 3.02274C17.5108 3.02274 17.454 2.98817 17.4268 2.9289C17.3898 2.84987 17.4256 2.75479 17.5059 2.71775C17.7639 2.59921 18.027 2.48314 18.2863 2.37324C18.3678 2.33867 18.4616 2.37695 18.4949 2.45721C18.5295 2.5387 18.4925 2.63255 18.411 2.66589C18.1541 2.77578 17.8936 2.89062 17.638 3.00793C17.617 3.0178 17.5935 3.02274 17.5713 3.02274ZM43.1376 3.35864C43.1141 3.35864 43.0894 3.35371 43.0672 3.34259C42.8128 3.21788 42.5548 3.09563 42.2991 2.97956C42.2189 2.94252 42.1843 2.84867 42.2201 2.76841C42.2572 2.68815 42.3522 2.65358 42.4313 2.68938C42.6893 2.80669 42.9511 2.93017 43.208 3.05612C43.287 3.09563 43.3191 3.19071 43.2808 3.26974C43.2524 3.32654 43.1956 3.35864 43.1376 3.35864ZM16.0475 3.77462C15.9907 3.77462 15.9351 3.74375 15.9067 3.68942C15.866 3.61163 15.8956 3.51531 15.9734 3.47457C16.2253 3.34121 16.4809 3.21032 16.734 3.0856C16.8131 3.04609 16.9081 3.0782 16.9477 3.15722C16.9859 3.23625 16.9538 3.33256 16.8748 3.37084C16.6254 3.49432 16.3722 3.62398 16.1228 3.7561C16.0981 3.76845 16.0734 3.77462 16.0475 3.77462ZM44.6479 4.15508C44.6207 4.15508 44.5948 4.14891 44.5689 4.13532C44.3244 3.99579 44.0737 3.85873 43.8243 3.72784C43.7465 3.68709 43.7169 3.59078 43.7576 3.51299C43.7984 3.43519 43.8947 3.40556 43.9725 3.44631C44.2244 3.57843 44.4775 3.71673 44.7257 3.85749C44.8022 3.90071 44.8294 3.99703 44.7862 4.07358C44.7566 4.12544 44.7035 4.15508 44.6479 4.15508ZM14.5681 4.61296C14.515 4.61296 14.4619 4.58579 14.4323 4.5364C14.3866 4.46108 14.41 4.36353 14.4854 4.31784C14.7286 4.1709 14.9768 4.02519 15.2238 3.88566C15.3003 3.84244 15.3966 3.86837 15.4411 3.94493C15.4843 4.02149 15.4572 4.11904 15.3806 4.16226C15.1361 4.30055 14.8904 4.44503 14.6508 4.59073C14.6249 4.60555 14.5965 4.61296 14.5681 4.61296ZM46.1084 5.0366C46.0788 5.0366 46.0491 5.02796 46.0232 5.01067C45.7849 4.85756 45.5416 4.70691 45.3021 4.56244C45.2268 4.51675 45.2033 4.41921 45.249 4.34388C45.2935 4.26856 45.3922 4.24386 45.4676 4.28955C45.7096 4.43526 45.9541 4.58837 46.1949 4.74272C46.2689 4.79088 46.2912 4.88843 46.243 4.96252C46.2121 5.01067 46.1615 5.0366 46.1084 5.0366ZM13.1395 5.53571C13.0877 5.53571 13.0383 5.51102 13.0074 5.46656C12.958 5.39371 12.9765 5.29493 13.0482 5.24553C13.2828 5.08378 13.5223 4.92449 13.7606 4.77137C13.8347 4.72322 13.9335 4.74421 13.9817 4.8183C14.0286 4.89238 14.0076 4.99117 13.9335 5.03932C13.6977 5.1912 13.4606 5.34926 13.2284 5.50731C13.2013 5.52707 13.1704 5.53571 13.1395 5.53571ZM47.5174 5.99869C47.4853 5.99869 47.452 5.98882 47.4236 5.96906C47.1976 5.8036 46.9642 5.63937 46.7309 5.48008C46.658 5.43069 46.6395 5.33067 46.6889 5.25905C46.7383 5.1862 46.8383 5.16768 46.9099 5.21707C47.147 5.37883 47.3828 5.54429 47.6113 5.71099C47.6817 5.76285 47.6977 5.86287 47.6458 5.93325C47.615 5.97647 47.5668 5.99869 47.5174 5.99869ZM11.764 6.53818C11.7158 6.53818 11.6689 6.51719 11.6368 6.47644C11.5837 6.40606 11.596 6.30604 11.6664 6.25294C11.8911 6.07883 12.1208 5.90596 12.3505 5.73927C12.4209 5.6874 12.5209 5.70222 12.5727 5.77384C12.6246 5.84422 12.6086 5.94424 12.5382 5.9961C12.311 6.16157 12.0825 6.33197 11.8603 6.50484C11.8319 6.52707 11.7973 6.53818 11.764 6.53818ZM48.8671 7.03931C48.8325 7.03931 48.7967 7.0282 48.7671 7.0035C48.5485 6.82569 48.325 6.64788 48.1027 6.47624C48.0336 6.42315 48.02 6.32313 48.0743 6.25274C48.1274 6.1836 48.2275 6.17001 48.2978 6.22434C48.5226 6.39722 48.7485 6.57626 48.9683 6.75654C49.0362 6.81211 49.0474 6.91336 48.9906 6.98127C48.9597 7.01955 48.914 7.03931 48.8671 7.03931ZM10.4464 7.61757C10.402 7.61757 10.3575 7.59904 10.3267 7.562C10.2686 7.49656 10.276 7.3953 10.3415 7.33727C10.5576 7.15081 10.7774 6.96559 10.9959 6.78531C11.0638 6.72975 11.1651 6.73962 11.2207 6.80754C11.2762 6.87669 11.2663 6.97671 11.1984 7.03227C10.9811 7.21008 10.7638 7.39283 10.5514 7.57805C10.5205 7.60398 10.4835 7.61757 10.4464 7.61757ZM50.1574 8.15574C50.1179 8.15574 50.0797 8.14092 50.0488 8.11375C49.8426 7.92483 49.6302 7.73467 49.4166 7.54945C49.3499 7.49265 49.3425 7.3914 49.4005 7.32472C49.4573 7.25804 49.5586 7.25063 49.6253 7.30867C49.8413 7.49636 50.0562 7.68775 50.2649 7.87914C50.3291 7.93841 50.334 8.03843 50.2748 8.10388C50.2427 8.13845 50.1994 8.15574 50.1574 8.15574ZM9.19155 8.76947C9.1508 8.76947 9.10882 8.75342 9.07795 8.72131C9.01621 8.65834 9.01745 8.55832 9.08042 8.49658C9.28416 8.29901 9.49284 8.10021 9.70276 7.90758C9.7682 7.84831 9.86822 7.85201 9.92872 7.91746C9.98799 7.98167 9.98306 8.08292 9.91885 8.14219C9.7114 8.33359 9.50396 8.52868 9.30268 8.72502C9.27181 8.75465 9.2323 8.76947 9.19155 8.76947ZM51.3799 9.34267C51.3379 9.34267 51.2971 9.32662 51.2663 9.29452C51.0675 9.09077 50.8662 8.8895 50.6662 8.69564C50.6032 8.6339 50.6007 8.53388 50.6625 8.46967C50.7242 8.4067 50.8242 8.40546 50.8872 8.4672C51.0897 8.6623 51.2934 8.86604 51.4935 9.07225C51.5552 9.13523 51.554 9.23524 51.491 9.29698C51.4601 9.32662 51.4194 9.34267 51.3799 9.34267ZM8.00516 9.99193C7.96688 9.99193 7.9286 9.97835 7.89773 9.94995C7.83229 9.89068 7.82858 9.79066 7.88785 9.72521C8.08048 9.5153 8.27805 9.30538 8.47561 9.10288C8.53735 9.0399 8.63861 9.03743 8.70158 9.09917C8.76456 9.16091 8.76579 9.26093 8.70405 9.3239C8.50895 9.52518 8.31386 9.73262 8.12246 9.94007C8.09159 9.97464 8.04837 9.99193 8.00516 9.99193ZM52.5331 10.5956C52.4887 10.5956 52.4442 10.5771 52.4133 10.5401C52.2281 10.3289 52.038 10.1153 51.8478 9.90909C51.7885 9.84488 51.7922 9.74363 51.8577 9.68436C51.9219 9.62509 52.0232 9.62879 52.0824 9.693C52.2751 9.90292 52.4664 10.1178 52.6529 10.3314C52.7109 10.3981 52.7035 10.4981 52.6368 10.5561C52.6072 10.5821 52.5702 10.5956 52.5331 10.5956ZM6.88905 11.2812C6.85325 11.2812 6.81744 11.2689 6.7878 11.2454C6.71989 11.1886 6.71001 11.0886 6.76557 11.0207C6.94462 10.8021 7.12984 10.5811 7.31753 10.365C7.37556 10.2983 7.47558 10.2909 7.54226 10.349C7.60894 10.407 7.61635 10.507 7.55831 10.5737C7.37309 10.7873 7.18911 11.0059 7.01253 11.222C6.98043 11.2615 6.93474 11.2812 6.88905 11.2812ZM53.6125 11.912C53.5656 11.912 53.5187 11.891 53.4865 11.8503C53.3161 11.6305 53.1396 11.407 52.9593 11.1884C52.9037 11.1193 52.9136 11.0193 52.9815 10.9637C53.0494 10.9081 53.1495 10.918 53.2063 10.9859C53.3878 11.207 53.5668 11.4329 53.7384 11.6552C53.7928 11.7243 53.7804 11.8244 53.71 11.8787C53.6816 11.9009 53.6471 11.912 53.6125 11.912ZM5.84693 12.6309C5.81482 12.6309 5.78272 12.621 5.75432 12.6C5.6827 12.5481 5.66665 12.4494 5.71851 12.3777C5.88644 12.1468 6.05931 11.9159 6.23218 11.6924C6.28651 11.622 6.38653 11.6097 6.45568 11.6628C6.52606 11.7171 6.53841 11.8171 6.48532 11.8863C6.31368 12.1085 6.14204 12.337 5.97658 12.5654C5.94571 12.6086 5.89632 12.6309 5.84693 12.6309ZM54.6164 13.2864C54.5657 13.2864 54.5151 13.263 54.4843 13.2185C54.3262 12.9864 54.162 12.7542 53.9953 12.527C53.9434 12.4554 53.9595 12.3566 54.0311 12.3048C54.1015 12.2529 54.2015 12.2677 54.2533 12.3393C54.4213 12.569 54.5867 12.8036 54.7473 13.037C54.7967 13.1098 54.7794 13.2086 54.7065 13.2593C54.6793 13.2778 54.6472 13.2864 54.6164 13.2864ZM4.88344 14.0384C4.8538 14.0384 4.82417 14.0297 4.79824 14.0137C4.72415 13.9655 4.70192 13.8667 4.75008 13.7926C4.90443 13.5531 5.06372 13.3123 5.22424 13.0789C5.27364 13.0061 5.37242 12.9875 5.44527 13.0369C5.51812 13.0863 5.53665 13.1863 5.48725 13.258C5.32797 13.4901 5.17115 13.7272 5.01803 13.9655C4.98716 14.0124 4.93654 14.0384 4.88344 14.0384ZM55.5386 14.7165C55.4855 14.7165 55.4324 14.6893 55.4028 14.6399C55.2571 14.3992 55.1052 14.1571 54.9533 13.9225C54.9064 13.8484 54.9274 13.7497 55.0015 13.7027C55.0756 13.6546 55.1743 13.6756 55.2213 13.7497C55.3744 13.988 55.5275 14.2312 55.6744 14.4745C55.7201 14.5498 55.6967 14.6474 55.6213 14.693C55.5954 14.7091 55.567 14.7165 55.5386 14.7165ZM4.00184 15.4992C3.97591 15.4992 3.94875 15.493 3.92405 15.4795C3.84749 15.4362 3.82033 15.3387 3.86354 15.2621C4.00431 15.0139 4.15002 14.7645 4.29572 14.5213C4.34141 14.4459 4.43896 14.4212 4.51552 14.4669C4.59084 14.5126 4.6143 14.6102 4.56861 14.6855C4.42414 14.9263 4.27967 15.1732 4.14014 15.419C4.11174 15.4708 4.05741 15.4992 4.00184 15.4992ZM56.3782 16.1955C56.3214 16.1955 56.2658 16.1646 56.2374 16.1103C56.1053 15.8609 55.9682 15.6114 55.8299 15.3694C55.7867 15.2929 55.8139 15.1953 55.8904 15.1521C55.967 15.1089 56.0645 15.1348 56.1077 15.2114C56.2473 15.4571 56.3856 15.709 56.5189 15.9609C56.5597 16.0387 56.53 16.135 56.4522 16.1757C56.4288 16.1893 56.4029 16.1955 56.3782 16.1955ZM3.20562 17.0093C3.18216 17.0093 3.15746 17.0043 3.13524 16.9932C3.05621 16.9537 3.0241 16.8586 3.06238 16.7796C3.18833 16.524 3.31922 16.2659 3.45258 16.0153C3.49333 15.9375 3.58964 15.9078 3.66743 15.9486C3.74523 15.9893 3.77486 16.0857 3.73411 16.1634C3.60322 16.4116 3.47357 16.6672 3.34886 16.9204C3.32046 16.9772 3.26366 17.0093 3.20562 17.0093ZM57.1315 17.7182C57.071 17.7182 57.013 17.6836 56.987 17.6256C56.8697 17.3724 56.7475 17.1156 56.6228 16.8625C56.5845 16.7834 56.6166 16.6883 56.6956 16.6501C56.7734 16.6106 56.8697 16.6427 56.908 16.7217C57.0352 16.9761 57.1587 17.2366 57.276 17.4922C57.313 17.5725 57.2785 17.6675 57.1982 17.7046C57.176 17.7145 57.1537 17.7182 57.1315 17.7182ZM2.49563 18.5628C2.47587 18.5628 2.45488 18.5591 2.43389 18.5504C2.35363 18.5158 2.31535 18.4232 2.34992 18.3417C2.45982 18.0787 2.57712 17.8145 2.69443 17.5552C2.73147 17.4761 2.82532 17.4403 2.90558 17.4774C2.98584 17.5132 3.02165 17.6083 2.98461 17.6873C2.8673 17.9441 2.75246 18.2059 2.64257 18.4652C2.61787 18.527 2.5586 18.5628 2.49563 18.5628ZM57.796 19.2812C57.7317 19.2812 57.6725 19.243 57.6478 19.18C57.5465 18.9207 57.4391 18.6577 57.328 18.3984C57.2946 18.3169 57.3317 18.2242 57.4132 18.1897C57.4934 18.1551 57.5873 18.1934 57.6218 18.2736C57.733 18.5367 57.8416 18.8021 57.9441 19.0639C57.9762 19.1466 57.9355 19.238 57.854 19.2701C57.8355 19.2775 57.8157 19.2812 57.796 19.2812ZM1.87681 20.1556C1.85953 20.1556 1.84101 20.1531 1.82372 20.1469C1.74099 20.1173 1.69777 20.0259 1.7274 19.9432C1.82248 19.6752 1.92374 19.4036 2.02623 19.1381C2.05833 19.0566 2.15094 19.0158 2.23244 19.0467C2.31517 19.0788 2.35592 19.1714 2.32381 19.2529C2.22132 19.5172 2.1213 19.7851 2.02746 20.0506C2.004 20.116 1.94226 20.1556 1.87681 20.1556ZM58.3711 20.8854C58.3044 20.8854 58.2415 20.8434 58.2192 20.7755C58.1328 20.5088 58.0402 20.2396 57.9451 19.9741C57.9155 19.8914 57.9587 19.8 58.0414 19.7704C58.1242 19.7407 58.2155 19.784 58.2452 19.8667C58.3415 20.1346 58.4341 20.4075 58.523 20.6767C58.5502 20.7607 58.5045 20.8508 58.4205 20.878C58.4045 20.8829 58.3872 20.8854 58.3711 20.8854ZM1.35208 21.7805C1.33726 21.7805 1.32121 21.778 1.30639 21.7731C1.22243 21.7484 1.17427 21.6607 1.19896 21.5755C1.27799 21.3039 1.36319 21.0285 1.45086 20.7569C1.47803 20.6741 1.56693 20.6284 1.6509 20.6544C1.73487 20.6815 1.78055 20.7717 1.75339 20.8557C1.66695 21.1248 1.58299 21.3965 1.50396 21.6657C1.4842 21.7348 1.42123 21.7805 1.35208 21.7805ZM58.8542 22.5202C58.7826 22.5202 58.7183 22.4732 58.6998 22.4016C58.6282 22.1287 58.5504 21.8546 58.4714 21.5854C58.4467 21.5002 58.4948 21.4125 58.5788 21.3866C58.664 21.3619 58.7529 21.4101 58.7776 21.4953C58.8579 21.7669 58.9344 22.0448 59.0073 22.3201C59.0307 22.4053 58.9789 22.4918 58.8949 22.514C58.8813 22.5177 58.8678 22.5202 58.8542 22.5202ZM0.921072 23.4291C0.909959 23.4291 0.897611 23.4279 0.885263 23.4254C0.800062 23.4045 0.745731 23.3193 0.765488 23.2341C0.829698 22.9575 0.897611 22.6784 0.970464 22.4018C0.992691 22.3166 1.07913 22.266 1.16433 22.2882C1.24953 22.3104 1.30015 22.3969 1.27793 22.4821C1.20755 22.7562 1.13963 23.0328 1.07666 23.3057C1.05937 23.3785 0.993925 23.4291 0.921072 23.4291ZM59.2406 24.1786C59.1665 24.1786 59.0999 24.1267 59.085 24.0514C59.0295 23.7772 58.969 23.4994 58.9048 23.2241C58.8838 23.1376 58.9369 23.0524 59.0233 23.0327C59.1085 23.0129 59.1949 23.066 59.2147 23.1512C59.2801 23.429 59.3406 23.7106 59.3974 23.9884C59.4147 24.0748 59.3592 24.1588 59.2727 24.1761L59.2406 24.1786ZM0.586321 25.0998L0.559155 25.0973C0.47272 25.0825 0.414684 24.9998 0.429502 24.9133C0.476424 24.633 0.52952 24.3503 0.585086 24.0712C0.602373 23.9848 0.686339 23.9292 0.772775 23.9465C0.859211 23.9638 0.914777 24.0477 0.89749 24.1342C0.841924 24.4095 0.790062 24.6898 0.74314 24.9676C0.729557 25.0442 0.662878 25.0998 0.586321 25.0998ZM59.5332 25.8578C59.4542 25.8578 59.3863 25.801 59.3751 25.7208C59.3344 25.4417 59.2899 25.1602 59.2418 24.8848C59.227 24.7971 59.285 24.7156 59.3714 24.6996C59.4579 24.6848 59.5406 24.7428 59.5567 24.8292C59.6048 25.1095 59.6505 25.3935 59.69 25.6763C59.7036 25.7627 59.6431 25.8442 59.5554 25.8566L59.5332 25.8578ZM0.34806 26.7867L0.329538 26.7855C0.241867 26.7756 0.178893 26.6965 0.188771 26.6101C0.220876 26.3273 0.256685 26.0421 0.297433 25.7606C0.309781 25.6729 0.390043 25.6136 0.476479 25.6247C0.564149 25.6371 0.624654 25.7174 0.612306 25.805C0.572793 26.0829 0.536984 26.3656 0.506114 26.6447C0.496235 26.7262 0.427087 26.7867 0.34806 26.7867ZM59.7283 27.5506C59.6468 27.5506 59.5764 27.4876 59.569 27.4049C59.5456 27.1234 59.5159 26.8406 59.4838 26.5615C59.474 26.4738 59.5369 26.3948 59.6246 26.3849C59.7123 26.3751 59.7913 26.438 59.8012 26.5257C59.8333 26.806 59.8617 27.0925 59.8864 27.3777C59.895 27.4654 59.8296 27.5419 59.7419 27.5494L59.7283 27.5506ZM0.205293 28.4844H0.19665C0.108979 28.4795 0.0410655 28.4042 0.0460047 28.3165C0.0620571 28.0337 0.0818138 27.746 0.105275 27.462C0.112684 27.3744 0.190476 27.3114 0.278146 27.3163C0.365817 27.3237 0.431261 27.4015 0.423852 27.4892C0.400391 27.7695 0.380634 28.0535 0.364582 28.3338C0.359643 28.419 0.28926 28.4844 0.205293 28.4844ZM59.8271 29.2522C59.7407 29.2522 59.6703 29.183 59.6678 29.0966C59.6592 28.8175 59.6468 28.5323 59.6308 28.2495C59.6258 28.1631 59.6925 28.0865 59.7802 28.0816C59.8678 28.0742 59.9432 28.1433 59.9481 28.2322C59.9654 28.5175 59.9777 28.8052 59.9864 29.088C59.9888 29.1756 59.9197 29.2485 59.832 29.251L59.8271 29.2522ZM0.159289 30.1883C0.0716182 30.1883 0 30.1167 0 30.029V30.0006C0 29.7253 0.00370439 29.4462 0.0111132 29.1721C0.0135828 29.0844 0.0852009 29.0116 0.174106 29.0177C0.263011 29.0202 0.33216 29.093 0.32969 29.1807C0.322282 29.4524 0.318577 29.7277 0.318577 30.0006V30.029C0.318577 30.1167 0.246959 30.1883 0.159289 30.1883ZM59.8284 31.0118H59.8247C59.7358 31.0094 59.6667 30.9353 59.6691 30.8476C59.6778 30.5649 59.6815 30.2796 59.6815 30.0005V29.9437C59.6815 29.8561 59.7531 29.7845 59.8408 29.7845C59.9284 29.7845 60 29.8561 60 29.9437V30.0005C60 30.2833 59.9963 30.571 59.9877 30.8563C59.9852 30.9427 59.9148 31.0118 59.8284 31.0118ZM0.208657 31.891C0.124691 31.891 0.0543078 31.8256 0.0493686 31.7404C0.0333163 31.4564 0.0209683 31.1687 0.0123247 30.8847C0.00985514 30.797 0.0790037 30.7241 0.167909 30.7217H0.171613C0.258049 30.7217 0.328433 30.7896 0.330902 30.876C0.339546 31.1563 0.351894 31.4415 0.367946 31.7231C0.372885 31.8108 0.304971 31.8861 0.217301 31.891H0.208657ZM59.7333 32.7125H59.7197C59.632 32.7051 59.5666 32.6285 59.574 32.5409C59.5987 32.2581 59.6184 31.9741 59.6332 31.695C59.6382 31.6074 59.7147 31.5431 59.8012 31.5444C59.8901 31.5493 59.9567 31.6246 59.9518 31.7123C59.9358 31.9951 59.916 32.2828 59.8913 32.5668C59.8851 32.6508 59.8147 32.7125 59.7333 32.7125ZM0.354432 33.5888C0.275405 33.5888 0.206257 33.5283 0.196379 33.4468C0.164274 33.164 0.135874 32.8763 0.111178 32.5948C0.103769 32.5071 0.169213 32.4305 0.256884 32.4231C0.344554 32.4145 0.421111 32.4799 0.42852 32.5676C0.453216 32.8467 0.481616 33.1307 0.513721 33.411C0.523599 33.4986 0.460625 33.5777 0.372954 33.5876L0.354432 33.5888ZM59.5406 34.405L59.5183 34.4037C59.4319 34.3914 59.3714 34.3111 59.3825 34.2235C59.4232 33.9444 59.4591 33.6616 59.4912 33.3838C59.501 33.2961 59.5788 33.2319 59.6665 33.243C59.7542 33.2529 59.8171 33.3319 59.8073 33.4196C59.7752 33.6999 59.7381 33.9864 59.6986 34.2692C59.6875 34.3482 59.6196 34.405 59.5406 34.405ZM0.594908 35.2758C0.519585 35.2758 0.451672 35.2214 0.438089 35.1437C0.389932 34.8621 0.345479 34.5769 0.304731 34.2978C0.292383 34.2101 0.352888 34.1299 0.440559 34.1175C0.526994 34.1052 0.607256 34.1645 0.620839 34.2521C0.660352 34.5287 0.704805 34.8103 0.752962 35.0893C0.767779 35.1758 0.709744 35.2585 0.622074 35.2733L0.594908 35.2758ZM59.253 36.0847L59.2209 36.0822C59.1344 36.0649 59.0789 35.9809 59.0961 35.8945C59.1517 35.6191 59.2036 35.3388 59.2517 35.061C59.2665 34.9746 59.3505 34.9165 59.4357 34.9314C59.5221 34.9462 59.5802 35.0289 59.5654 35.1153C59.5172 35.3956 59.4641 35.6797 59.4085 35.9575C59.3937 36.0328 59.327 36.0847 59.253 36.0847ZM0.933351 36.9454C0.861733 36.9454 0.796288 36.896 0.779001 36.8219C0.713557 36.5453 0.653052 36.2638 0.596252 35.9859C0.578964 35.8995 0.63453 35.8155 0.720966 35.7983C0.807402 35.781 0.891368 35.8365 0.908655 35.9217C0.964221 36.1971 1.02473 36.4762 1.08894 36.7503C1.10869 36.8355 1.0556 36.9219 0.970395 36.9417C0.958047 36.9441 0.945699 36.9454 0.933351 36.9454ZM58.8674 37.7453C58.8539 37.7453 58.8415 37.7428 58.8279 37.7403C58.7427 37.7181 58.6909 37.6304 58.7131 37.5452C58.7847 37.2748 58.8526 36.997 58.9168 36.7229C58.9366 36.6364 59.0218 36.5833 59.1082 36.6031C59.1934 36.6229 59.2465 36.7093 59.2268 36.7945C59.1626 37.0723 59.0934 37.3514 59.0218 37.6255C59.0033 37.6971 58.9391 37.7453 58.8674 37.7453ZM1.36684 38.5937C1.29893 38.5937 1.23472 38.548 1.21496 38.4788C1.1347 38.2059 1.05691 37.9281 0.98529 37.654C0.961829 37.5688 1.01369 37.4811 1.09889 37.4589C1.18409 37.4367 1.27053 37.4873 1.29275 37.5725C1.36437 37.8442 1.44093 38.1183 1.51996 38.3887C1.54465 38.4739 1.4965 38.5616 1.41253 38.5875C1.39771 38.5912 1.38289 38.5937 1.36684 38.5937ZM58.3883 39.38C58.3723 39.38 58.3562 39.3775 58.3389 39.3726C58.2562 39.3454 58.2093 39.2553 58.2365 39.1713C58.3241 38.9046 58.4081 38.6329 58.4871 38.3625C58.5118 38.2773 58.6007 38.2291 58.6847 38.2538C58.7687 38.2785 58.818 38.3674 58.7933 38.4514C58.7131 38.7255 58.6279 39.0009 58.5402 39.2701C58.518 39.338 58.4562 39.38 58.3883 39.38ZM1.89544 40.2136C1.82999 40.2136 1.76825 40.1729 1.74479 40.1074C1.64848 39.8383 1.55587 39.5666 1.4682 39.2974C1.44103 39.2134 1.48672 39.1233 1.57068 39.0961C1.65342 39.069 1.74356 39.1147 1.77072 39.1986C1.85716 39.4641 1.94977 39.7345 2.04485 40.0012C2.07448 40.084 2.03126 40.1741 1.94853 40.2038C1.93124 40.2112 1.91272 40.2136 1.89544 40.2136ZM57.8142 40.9904C57.7945 40.9904 57.7759 40.9867 57.7562 40.9793C57.6747 40.9484 57.6339 40.8558 57.666 40.7731C57.7685 40.5088 57.8685 40.2409 57.9624 39.9766C57.992 39.8939 58.0834 39.8507 58.1661 39.8803C58.2489 39.9099 58.2921 40.0013 58.2624 40.084C58.1674 40.3508 58.0661 40.6224 57.9624 40.8891C57.9377 40.9521 57.8784 40.9904 57.8142 40.9904ZM2.51401 41.7978C2.45227 41.7978 2.393 41.762 2.36707 41.7015C2.25717 41.4409 2.14851 41.1742 2.04479 40.91C2.01392 40.8285 2.05343 40.7359 2.13616 40.7037C2.21766 40.6716 2.31027 40.7124 2.34237 40.7939C2.44363 41.0557 2.55105 41.3187 2.66095 41.5767C2.69429 41.6582 2.65725 41.7509 2.57575 41.7854C2.55599 41.7941 2.535 41.7978 2.51401 41.7978ZM57.1488 42.5635C57.1266 42.5635 57.1031 42.5598 57.0821 42.5499C57.0019 42.5129 56.9673 42.4178 57.0031 42.3388C57.1216 42.0807 57.2365 41.8189 57.3464 41.5609C57.3797 41.4794 57.4736 41.4423 57.5551 41.4757C57.6353 41.5102 57.6736 41.6041 57.639 41.6843C57.5291 41.9461 57.4118 42.2104 57.2933 42.4709C57.2661 42.5289 57.2093 42.5635 57.1488 42.5635ZM3.2214 43.3428C3.16336 43.3428 3.10656 43.3107 3.07816 43.2539C2.95345 43.0007 2.82997 42.7414 2.71143 42.4821C2.67439 42.4031 2.71019 42.308 2.79046 42.271C2.86948 42.2351 2.96456 42.2697 3.00161 42.35C3.11891 42.6056 3.24116 42.8624 3.36464 43.1131C3.40291 43.1921 3.37081 43.2872 3.29178 43.3267C3.26956 43.3378 3.24486 43.3428 3.2214 43.3428ZM56.3932 44.0958C56.3685 44.0958 56.3426 44.0896 56.3191 44.0772C56.2413 44.0353 56.2117 43.9389 56.2524 43.8612C56.3846 43.6117 56.5154 43.3574 56.6389 43.1055C56.6784 43.0264 56.7735 42.9943 56.8525 43.0326C56.9316 43.0721 56.9637 43.1672 56.9242 43.2462C56.7994 43.5006 56.6686 43.7574 56.534 44.0106C56.5056 44.0649 56.45 44.0958 56.3932 44.0958ZM4.01672 44.8453C3.96116 44.8453 3.90683 44.8157 3.87842 44.7638C3.73766 44.5169 3.59936 44.265 3.46724 44.0143C3.42649 43.9365 3.45612 43.8402 3.53392 43.7995C3.61171 43.7587 3.70802 43.7883 3.74877 43.8661C3.87966 44.1131 4.01672 44.3625 4.15502 44.607C4.19824 44.6836 4.17107 44.7811 4.09451 44.8243C4.06982 44.8379 4.04389 44.8453 4.01672 44.8453ZM55.5524 45.58C55.524 45.58 55.4956 45.5738 55.4696 45.5578C55.3943 45.5121 55.3708 45.4145 55.4165 45.3392C55.5622 45.0984 55.7055 44.8515 55.845 44.6057C55.8882 44.5304 55.9858 44.5033 56.0623 44.5465C56.1389 44.5897 56.1661 44.6872 56.1228 44.7638C55.9821 45.012 55.8364 45.2602 55.6882 45.5034C55.6586 45.5528 55.6067 45.58 55.5524 45.58ZM4.89734 46.3011C4.84548 46.3011 4.79362 46.2752 4.76275 46.227C4.60963 45.9887 4.45775 45.7455 4.31081 45.5022C4.26512 45.4269 4.28859 45.3293 4.36391 45.2837C4.43923 45.238 4.53678 45.2627 4.58247 45.338C4.72817 45.5775 4.87882 45.8196 5.0307 46.0554C5.07886 46.1295 5.05786 46.227 4.98378 46.2752C4.95661 46.2925 4.92698 46.3011 4.89734 46.3011ZM54.6286 47.0151C54.5965 47.0151 54.5656 47.0052 54.5385 46.9867C54.4656 46.9373 54.4471 46.8385 54.4965 46.7657C54.6558 46.5335 54.8138 46.2952 54.9669 46.0593C55.0139 45.9853 55.1127 45.9643 55.1867 46.0112C55.2608 46.0593 55.2818 46.1581 55.2349 46.231C55.0805 46.4705 54.92 46.7113 54.7595 46.9459C54.7286 46.9904 54.6792 47.0151 54.6286 47.0151ZM5.85917 47.7038C5.80978 47.7038 5.76162 47.6816 5.72952 47.6384C5.56406 47.4112 5.39736 47.1754 5.23683 46.9395C5.18621 46.8679 5.20473 46.7679 5.27758 46.7185C5.35044 46.6691 5.44922 46.6876 5.49861 46.7605C5.65914 46.9926 5.82336 47.226 5.98759 47.4507C6.03945 47.5223 6.0234 47.6223 5.95302 47.6742C5.92462 47.694 5.89128 47.7038 5.85917 47.7038ZM53.6236 48.393C53.5902 48.393 53.5556 48.3818 53.526 48.3596C53.4569 48.3065 53.4445 48.2065 53.4976 48.1361C53.6692 47.9151 53.8409 47.6866 54.0076 47.4582C54.0582 47.3866 54.1582 47.3718 54.2298 47.4236C54.3002 47.4755 54.3163 47.5743 54.2644 47.6459C54.0965 47.8768 53.9236 48.1077 53.7495 48.3312C53.7186 48.372 53.6717 48.393 53.6236 48.393ZM6.90006 49.0509C6.85314 49.0509 6.80745 49.0312 6.77658 48.9929C6.59506 48.7718 6.41602 48.5471 6.24315 48.3236C6.19005 48.2532 6.2024 48.1532 6.27278 48.1001C6.34193 48.0458 6.44195 48.0581 6.49628 48.1285C6.66668 48.3495 6.84326 48.573 7.0223 48.7916C7.07787 48.8595 7.06799 48.9595 7.00008 49.0151C6.97044 49.0398 6.93463 49.0509 6.90006 49.0509ZM52.5429 49.7116C52.5059 49.7116 52.4688 49.6993 52.4392 49.6733C52.3725 49.6153 52.3651 49.5141 52.4232 49.4486C52.6071 49.235 52.7911 49.0177 52.9702 48.8003C53.0257 48.7324 53.1258 48.7213 53.1937 48.7781C53.2616 48.8337 53.2715 48.9337 53.2159 49.0016C53.0356 49.2214 52.8504 49.4424 52.6639 49.6573C52.6318 49.6931 52.5874 49.7116 52.5429 49.7116ZM8.01506 50.3377C7.97184 50.3377 7.92986 50.3204 7.89775 50.2871C7.70636 50.0784 7.51497 49.8635 7.32851 49.6475C7.27048 49.5808 7.27789 49.4808 7.34333 49.4227C7.41001 49.3659 7.51126 49.3721 7.56806 49.4388C7.75328 49.6524 7.94344 49.8648 8.13237 50.071C8.19164 50.1364 8.18793 50.2365 8.12249 50.2957C8.09285 50.3241 8.05334 50.3377 8.01506 50.3377ZM51.3898 50.9664C51.3503 50.9664 51.3096 50.9516 51.2787 50.9219C51.2157 50.8602 51.2145 50.7589 51.2762 50.696C51.4726 50.4947 51.6677 50.2873 51.8578 50.081C51.9183 50.0156 52.0183 50.0119 52.0838 50.0712C52.148 50.1304 52.1529 50.2317 52.0924 50.2959C51.901 50.5058 51.7022 50.7145 51.5047 50.9182C51.4738 50.9503 51.4318 50.9664 51.3898 50.9664ZM9.20281 51.5602C9.16206 51.5602 9.12255 51.5454 9.09168 51.5145C8.88793 51.317 8.68419 51.1132 8.48663 50.9095C8.42489 50.8465 8.42612 50.7453 8.4891 50.6835C8.55207 50.623 8.65332 50.6243 8.71506 50.6872C8.9114 50.8897 9.11267 51.091 9.31394 51.2861C9.37691 51.3478 9.37815 51.4479 9.31641 51.5121C9.28554 51.5442 9.24479 51.5602 9.20281 51.5602ZM50.1671 52.1541C50.1251 52.1541 50.0819 52.1368 50.0498 52.1023C49.9905 52.0368 49.9955 51.9368 50.0597 51.8775C50.2659 51.6874 50.4734 51.4923 50.6759 51.2959C50.7388 51.2342 50.8401 51.2354 50.9018 51.2984C50.9623 51.3614 50.9611 51.4626 50.8981 51.5244C50.6931 51.7219 50.4845 51.9207 50.2758 52.1121C50.2449 52.1393 50.2066 52.1541 50.1671 52.1541ZM10.4574 52.7121C10.4216 52.7121 10.3834 52.6998 10.3537 52.6738C10.1376 52.4862 9.92278 52.2948 9.7141 52.1021C9.64989 52.0429 9.64495 51.9428 9.70546 51.8774C9.76473 51.8132 9.86475 51.8083 9.93019 51.8688C10.1364 52.0577 10.3488 52.2478 10.5624 52.4331C10.6291 52.4899 10.6365 52.5911 10.5785 52.6578C10.5464 52.6936 10.5031 52.7121 10.4574 52.7121ZM48.8804 53.2691C48.8348 53.2691 48.7891 53.2494 48.757 53.2111C48.7014 53.142 48.7113 53.0419 48.7792 52.9864C48.9978 52.8073 49.2163 52.6246 49.4275 52.4406C49.4941 52.3838 49.5942 52.39 49.6522 52.4567C49.7102 52.5233 49.7028 52.6246 49.6361 52.6814C49.4225 52.8666 49.2015 53.0531 48.9817 53.2333C48.9521 53.2568 48.9163 53.2691 48.8804 53.2691ZM11.7776 53.7924C11.743 53.7924 11.7097 53.7813 11.68 53.7591C11.4553 53.585 11.2293 53.406 11.0096 53.2257C10.9416 53.1701 10.9318 53.0689 10.9873 53.0009C11.0429 52.933 11.1429 52.9232 11.2108 52.9787C11.4294 53.1565 11.6516 53.3343 11.8751 53.5072C11.9443 53.5603 11.9566 53.6603 11.9035 53.7307C11.8727 53.7702 11.8245 53.7924 11.7776 53.7924ZM47.5335 54.309C47.4841 54.309 47.4359 54.2867 47.4038 54.2435C47.3532 54.1719 47.368 54.0731 47.4396 54.0213C47.6669 53.8558 47.8953 53.6842 48.1176 53.5138C48.1867 53.4594 48.2867 53.4718 48.3398 53.5422C48.3941 53.6113 48.3818 53.7113 48.3114 53.7657C48.0879 53.9385 47.857 54.1114 47.6273 54.2781C47.5989 54.2991 47.5656 54.309 47.5335 54.309ZM13.1555 54.7952C13.1246 54.7952 13.0937 54.7865 13.0666 54.768C12.832 54.6075 12.5973 54.4408 12.3664 54.2729C12.2948 54.221 12.2788 54.1222 12.3306 54.0506C12.3825 53.979 12.4825 53.9642 12.5529 54.016C12.7813 54.1815 13.0147 54.347 13.2456 54.505C13.3185 54.5544 13.337 54.6544 13.2876 54.726C13.2567 54.7717 13.2061 54.7952 13.1555 54.7952ZM46.1294 55.2706C46.0763 55.2706 46.0256 55.2447 45.9948 55.1965C45.9478 55.1225 45.9688 55.0249 46.0429 54.9768C46.2775 54.8261 46.5146 54.6681 46.748 54.5088C46.8196 54.4594 46.9196 54.4779 46.969 54.5507C47.0184 54.6224 46.9999 54.7224 46.9283 54.7718C46.6924 54.9335 46.4529 55.0916 46.2158 55.2447C46.1886 55.262 46.159 55.2706 46.1294 55.2706ZM14.5905 55.7191C14.5633 55.7191 14.5349 55.7117 14.509 55.6969C14.2657 55.55 14.0212 55.3968 13.7804 55.2425C13.7064 55.1956 13.6854 55.0968 13.7335 55.0227C13.7804 54.9486 13.8792 54.9276 13.9533 54.9745C14.1916 55.1277 14.4337 55.2795 14.6732 55.424C14.7485 55.4697 14.7732 55.5672 14.7275 55.6426C14.6979 55.692 14.6448 55.7191 14.5905 55.7191ZM44.6737 56.15C44.6181 56.15 44.5638 56.1204 44.5342 56.0685C44.4909 55.992 44.5181 55.8944 44.5947 55.8512C44.8392 55.7129 45.0849 55.5697 45.3244 55.4252C45.3998 55.3795 45.4985 55.403 45.5442 55.4783C45.5887 55.5536 45.5652 55.6524 45.4899 55.6981C45.2466 55.8438 44.9984 55.9895 44.7515 56.129C44.7268 56.1426 44.6996 56.15 44.6737 56.15ZM16.0758 56.5599C16.0511 56.5599 16.0251 56.5537 16.0017 56.5413C15.7522 56.4092 15.4991 56.2709 15.2497 56.1302C15.1731 56.0869 15.146 55.9894 15.1892 55.9128C15.2324 55.8363 15.3299 55.8091 15.4065 55.8523C15.6522 55.9919 15.9029 56.1289 16.1511 56.2598C16.2289 56.3006 16.2585 56.3969 16.2178 56.4747C16.1881 56.529 16.1338 56.5599 16.0758 56.5599ZM43.171 56.9441C43.1117 56.9441 43.0549 56.912 43.0278 56.8552C42.9882 56.7761 43.0216 56.681 43.1006 56.6415C43.3525 56.5181 43.6056 56.3884 43.8526 56.2575C43.9304 56.2168 44.0267 56.2464 44.0687 56.3242C44.1094 56.402 44.0798 56.4983 44.002 56.539C43.7514 56.6724 43.4957 56.8021 43.2414 56.928C43.2179 56.9391 43.1945 56.9441 43.171 56.9441ZM17.6081 57.3144C17.5859 57.3144 17.5637 57.3094 17.5427 57.2996C17.2834 57.181 17.0228 57.0575 16.766 56.9316C16.6882 56.8933 16.6549 56.797 16.6944 56.718C16.7327 56.6402 16.829 56.6068 16.9068 56.6464C17.1599 56.7698 17.418 56.8933 17.6748 57.0106C17.7551 57.0464 17.7897 57.1415 17.7538 57.2205C17.7267 57.2798 17.6686 57.3144 17.6081 57.3144ZM41.6261 57.6513C41.5632 57.6513 41.5039 57.6143 41.4792 57.5538C41.4446 57.4723 41.4829 57.3797 41.5632 57.3451C41.8188 57.2364 42.0793 57.1228 42.3361 57.0043C42.4164 56.9685 42.5115 57.0031 42.5473 57.0833C42.5843 57.1636 42.5485 57.2574 42.4695 57.2945C42.209 57.413 41.9459 57.5291 41.6879 57.6378C41.6669 57.6464 41.6459 57.6513 41.6261 57.6513ZM19.1825 57.9787C19.1628 57.9787 19.143 57.9762 19.1245 57.9688C18.859 57.8651 18.5911 57.7564 18.3281 57.6453C18.2478 57.6107 18.2095 57.5181 18.2441 57.4366C18.2774 57.3563 18.3713 57.3181 18.4528 57.3514C18.7121 57.4613 18.9776 57.57 19.2393 57.6712C19.3221 57.7033 19.3628 57.7959 19.3307 57.8774C19.306 57.9404 19.2455 57.9787 19.1825 57.9787ZM40.0408 58.2688C39.9754 58.2688 39.9136 58.2281 39.8902 58.1639C39.8605 58.0812 39.9037 57.9898 39.9877 57.9601C40.2507 57.8651 40.5174 57.7663 40.7817 57.6638C40.8632 57.6317 40.9558 57.6712 40.9879 57.7539C41.0188 57.8354 40.9792 57.928 40.8965 57.9601C40.631 58.0639 40.3606 58.1651 40.0939 58.2602C40.0766 58.2664 40.0581 58.2688 40.0408 58.2688ZM20.7929 58.5528C20.7768 58.5528 20.7596 58.5503 20.7435 58.5454C20.4731 58.4577 20.199 58.3639 19.9298 58.2688C19.847 58.2391 19.8038 58.1478 19.8335 58.065C19.8631 57.9823 19.9532 57.9391 20.0372 57.9687C20.3027 58.0626 20.5731 58.1552 20.841 58.2416C20.925 58.2688 20.9707 58.3589 20.9448 58.4429C20.9225 58.5096 20.8596 58.5528 20.7929 58.5528ZM38.4207 58.7961C38.3515 58.7961 38.2873 58.7504 38.2676 58.6812C38.2429 58.5973 38.291 58.5083 38.375 58.4837C38.6467 58.4046 38.9183 58.3194 39.185 58.233C39.269 58.2058 39.3591 58.2515 39.3863 58.3355C39.4135 58.4194 39.3678 58.5096 39.2838 58.5367C39.0146 58.6232 38.7393 58.7084 38.4651 58.7899C38.4503 58.7936 38.4355 58.7961 38.4207 58.7961ZM22.4274 59.0319C22.4151 59.0319 22.4015 59.0294 22.3879 59.0257C22.1113 58.9541 21.8335 58.8776 21.5618 58.7973C21.4779 58.7726 21.4285 58.6837 21.4532 58.5997C21.4779 58.5158 21.5668 58.4676 21.652 58.4923C21.9199 58.5701 22.1953 58.6467 22.4682 58.7183C22.5534 58.7405 22.604 58.8269 22.5818 58.9121C22.5632 58.9838 22.499 59.0319 22.4274 59.0319ZM36.7721 59.2285C36.6993 59.2285 36.6338 59.1791 36.6165 59.1062C36.5968 59.0198 36.6499 58.9346 36.7363 58.9148C37.008 58.8519 37.2846 58.7827 37.5587 58.7111C37.6439 58.6889 37.7303 58.7395 37.7525 58.8247C37.776 58.9099 37.7241 58.9963 37.6402 59.0198C37.3636 59.0914 37.0833 59.1606 36.8079 59.2248C36.7956 59.2272 36.7832 59.2285 36.7721 59.2285ZM24.0884 59.4147L24.0562 59.4122C23.7772 59.3554 23.4957 59.2949 23.2191 59.2307C23.1339 59.2109 23.0808 59.1257 23.1005 59.0393C23.1203 58.9541 23.2042 58.901 23.2907 58.9207C23.5636 58.9837 23.8426 59.0442 24.1192 59.0998C24.2057 59.1171 24.2612 59.201 24.2439 59.2875C24.2291 59.3628 24.1624 59.4147 24.0884 59.4147ZM35.1016 59.5654C35.0263 59.5654 34.9584 59.5111 34.9448 59.4333C34.93 59.3468 34.988 59.2641 35.0745 59.2493C35.3511 59.2024 35.6313 59.1505 35.9079 59.0937C35.9931 59.0777 36.0783 59.132 36.0956 59.2184C36.1129 59.3049 36.0574 59.3888 35.9709 59.4061C35.6906 59.4629 35.4079 59.516 35.1288 59.5642L35.1016 59.5654ZM25.7679 59.7026L25.7457 59.7013C25.4641 59.6618 25.1789 59.6161 24.8998 59.5692C24.8122 59.5544 24.7541 59.4717 24.7689 59.3852C24.7838 59.2976 24.8665 59.2395 24.9529 59.2543C25.2308 59.3025 25.5123 59.3457 25.7901 59.3852C25.8778 59.3976 25.9383 59.4791 25.9259 59.5655C25.9148 59.6458 25.8457 59.7026 25.7679 59.7026ZM33.4149 59.8073C33.3346 59.8073 33.2667 59.7468 33.2568 59.6653C33.247 59.5789 33.3099 59.4998 33.3976 59.4899C33.6767 59.4578 33.9594 59.422 34.2373 59.3813C34.3249 59.3689 34.4052 59.4294 34.4176 59.5171C34.4299 59.6035 34.3694 59.685 34.283 59.6974C34.0014 59.7369 33.715 59.7739 33.4334 59.8061L33.4149 59.8073ZM27.4607 59.8938H27.4471C27.1643 59.8691 26.8778 59.8407 26.5951 59.8099C26.5074 59.8 26.4444 59.7209 26.4543 59.6333C26.4642 59.5456 26.5444 59.4826 26.6309 59.4925C26.9099 59.5246 27.1939 59.5518 27.4742 59.5765C27.5619 59.5839 27.6273 59.6604 27.6199 59.7481C27.6125 59.8308 27.5434 59.8938 27.4607 59.8938ZM31.717 59.9519C31.633 59.9519 31.5639 59.8865 31.559 59.8013C31.554 59.7136 31.6207 59.6383 31.7084 59.6333C31.9887 59.6173 32.2739 59.5975 32.5542 59.5741C32.6394 59.5642 32.7184 59.6309 32.7258 59.7185C32.7333 59.8062 32.669 59.884 32.5814 59.8914C32.2974 59.9149 32.0097 59.9359 31.7269 59.9519H31.717ZM29.1622 59.9889H29.1573C28.8733 59.9815 28.5856 59.9692 28.3016 59.9531C28.2139 59.9482 28.1472 59.8728 28.1522 59.7852C28.1571 59.6975 28.2312 59.6308 28.3201 59.6345C28.6004 59.6506 28.8856 59.6629 29.1659 59.6703C29.2536 59.6728 29.324 59.7457 29.3215 59.8346C29.319 59.921 29.2474 59.9889 29.1622 59.9889ZM30.014 59.9999C29.9263 59.9999 29.8547 59.9283 29.8547 59.8406C29.8547 59.7529 29.9263 59.6813 30.014 59.6813C30.2931 59.6813 30.5783 59.6776 30.8611 59.669C30.9487 59.6616 31.0228 59.7357 31.0253 59.8246C31.0278 59.9122 30.9586 59.9851 30.8697 59.9876C30.5845 59.9962 30.2968 59.9999 30.014 59.9999V59.9999Z" fill="#FBB03B"/>
</svg>
