<svg width="40" height="40" viewBox="0 0 40 40" fill="none" xmlns="http://www.w3.org/2000/svg">
<mask id="mask0_8_1063" style="mask-type:alpha" maskUnits="userSpaceOnUse" x="1" y="1" width="38" height="38">
<path fill-rule="evenodd" clip-rule="evenodd" d="M1.3322 20.0052C1.3322 30.31 9.68519 38.6638 19.9901 38.6638C30.2945 38.6638 38.6479 30.31 38.6479 20.0052C38.6479 9.70124 30.2945 1.34743 19.9901 1.34743C9.68519 1.34743 1.3322 9.70124 1.3322 20.0052Z" fill="white"/>
</mask>
<g mask="url(#mask0_8_1063)">
<path fill-rule="evenodd" clip-rule="evenodd" d="M1.33224 20.006C1.33224 30.31 9.68523 38.6638 19.9901 38.6638C30.2946 38.6638 38.6481 30.31 38.6481 20.006C38.6481 9.70124 30.2946 1.34743 19.9901 1.34743C9.68523 1.34743 1.33224 9.70124 1.33224 20.006Z" fill="#FCE3C3"/>
<path fill-rule="evenodd" clip-rule="evenodd" d="M23.5682 26.115C23.6014 25.6523 24.0038 25.2852 24.4831 25.4177C27.3592 26.2121 30.332 27.5515 31.6708 30.3915C32.1942 31.502 32.3803 32.7384 32.6359 33.9312C32.9219 35.2665 33.1877 36.6058 33.4331 37.9484C33.7436 39.6483 33.9973 41.3573 34.2377 43.0679C34.4563 44.6221 34.4155 46.5319 35.1325 47.9297C36.4698 50.5368 37.8649 53.1924 39.2318 55.8143C39.9329 57.1586 40.6317 58.5045 41.3234 59.8537C41.6611 60.5123 41.9968 61.1725 42.3311 61.8335C42.4938 62.1546 42.778 62.5365 42.605 62.9053C42.2654 63.6273 41.2889 64.0257 40.6498 64.4463C40.4615 64.5706 40.2695 64.6966 40.0521 64.7575C39.0618 65.0349 38.2257 63.4289 37.7537 62.8057C36.9466 61.7397 36.1529 60.6629 35.3728 59.5771C33.6539 57.1841 31.8863 54.7408 30.3759 52.1799C29.7793 51.1682 29.1434 50.1392 28.6653 49.069C27.5321 46.5311 27.1089 43.7322 26.1882 41.1136C25.2163 38.3493 24.0249 35.5546 23.6979 32.6174C23.4577 30.4598 23.4122 28.28 23.5682 26.115Z" fill="#D23A64"/>
<path fill-rule="evenodd" clip-rule="evenodd" d="M0.574893 66.0146C1.50922 66.2525 4.58387 65.9372 4.695 65.8697C5.19551 65.5668 5.23008 49.2164 5.99648 47.8722C6.41878 47.1313 8.066 44.4188 9.7552 41.5558C11.3489 38.8507 12.9821 36.0099 13.6547 34.5693C14.9142 31.875 14.383 25.5149 14.1921 24.807C12.4462 25.2523 11.2633 25.7668 11.139 25.8212L11.1283 25.8269C9.95606 26.3645 8.53934 27.3745 7.94746 27.9228C3.97223 31.6091 0.231619 43.0844 -0.401421 46.1838C-1.15959 49.8956 -0.0853128 65.8458 0.574893 66.0146Z" fill="#D23A64"/>
<path fill-rule="evenodd" clip-rule="evenodd" d="M6.93574 60.882C9.00443 62.4337 31.8726 62.5449 31.8726 61.4607C31.8726 57.3242 30.9386 52.6542 30.6438 48.5225C30.3922 45.0066 29.5306 33.9289 29.415 31.9705C29.3355 30.6106 29.1259 27.4166 29.1259 27.4166C29.1259 27.4166 27.0818 26.1875 26.0178 25.6821C24.5484 24.984 23.0341 24.5485 21.4382 24.3041C18.7819 23.899 16.1372 24.3106 14.1921 24.807C12.4462 25.2524 11.2633 25.7669 11.139 25.8212L11.1283 25.827C11.1283 25.827 12.2297 26.3003 12.5014 28.0677C13.658 35.5843 9.75766 41.5031 9.75766 41.5031C9.75766 41.5031 8.69903 48.0196 8.09233 51.3412C7.70707 53.451 6.64679 60.6655 6.93574 60.882Z" fill="#150F84"/>
<path fill-rule="evenodd" clip-rule="evenodd" d="M25.3821 11.797C25.2233 11.2068 24.9664 10.661 24.629 10.2264C23.7265 9.06483 22.198 8.21035 20.6953 8.42767C19.3301 8.62442 18.1089 9.18254 17.3922 10.4157C16.6421 11.7048 16.6669 13.4418 17.5618 14.656C18.0968 15.382 18.8294 15.9682 19.6489 16.3427C19.8948 16.4547 20.1495 16.5477 20.4103 16.6185C21.7934 16.9955 23.6044 16.835 24.6563 15.7632C25.6531 14.7482 25.7336 13.101 25.3821 11.797Z" fill="#32334C"/>
<path fill-rule="evenodd" clip-rule="evenodd" d="M16.9055 17.557C16.9727 17.9291 17.0385 18.3011 17.1049 18.6732C17.1094 18.6954 17.113 18.7185 17.1166 18.7407C17.1185 18.7506 17.1205 18.7605 17.1224 18.7704C17.2106 19.2635 17.2981 19.7557 17.3585 20.2505C17.3837 20.4497 17.4035 20.6497 17.4176 20.8498C17.4337 21.0737 17.4424 21.2992 17.4447 21.5231C17.4512 21.9528 17.4394 22.3834 17.4262 22.8131C17.4105 23.3366 17.3955 23.8602 17.3799 24.3829C17.6882 24.7171 18.1197 25.137 18.5811 25.5091C19.4793 25.7585 20.5249 25.9239 21.4323 25.9569C22.0464 25.5988 22.591 25.0736 22.4994 24.592L22.4711 22.7052L22.4698 22.3957L22.4675 21.5775L22.4631 20.4118C22.0616 20.3139 21.6856 20.1311 21.3131 19.95C20.0775 19.3458 18.8499 18.7259 17.6463 18.0591C17.6139 18.0418 17.5829 18.0245 17.5527 18.0073C17.3107 17.8731 17.1127 17.7578 16.9055 17.557Z" fill="#FFCFCA"/>
<path fill-rule="evenodd" clip-rule="evenodd" d="M22.4714 22.7052C21.0808 22.3463 19.7429 21.7898 18.5277 21.0292C18.1411 20.788 17.7402 20.5295 17.3587 20.2513C17.2988 19.7557 17.2108 19.2635 17.123 18.7712C17.0507 18.367 16.9786 17.9612 16.9063 17.557C17.139 17.7833 17.3613 17.9011 17.6468 18.0599C18.8499 18.7259 20.0778 19.3458 21.3136 19.95C21.686 20.1319 22.0618 20.3139 22.4639 20.4118L22.4714 22.7052Z" fill="#F9BFBB"/>
<path fill-rule="evenodd" clip-rule="evenodd" d="M25.2121 19.0419C24.9465 19.805 24.559 20.508 23.8875 20.983C23.2919 21.4037 22.5601 21.6334 21.8317 21.6408C21.0255 21.649 20.2371 21.4111 19.5296 21.0168C19.1775 20.82 18.8451 20.5862 18.5413 20.3236C18.0102 19.8651 17.5553 19.3259 17.1574 18.7505C16.5111 17.8129 15.9721 16.7345 15.673 15.6067C15.3327 14.3316 15.298 12.9931 15.7565 11.7278C15.942 11.2117 16.2147 10.7285 16.5593 10.3012C18.0116 8.4976 20.6516 8.05719 22.6123 9.29116C23.6337 9.9349 24.4241 10.9425 24.8771 12.0546C25.021 12.407 25.148 12.77 25.2552 13.1396C25.8125 15.0535 25.8657 17.1609 25.2121 19.0419Z" fill="#FFCFCA"/>
<path fill-rule="evenodd" clip-rule="evenodd" d="M17.7122 18.4139C17.1027 18.8906 16.2342 19.014 15.5187 18.7177C14.9142 18.4683 14.4422 17.925 14.2648 17.2977C14.2328 17.1833 14.2106 17.0672 14.1983 16.9478C14.1773 16.7395 14.1889 16.5272 14.2491 16.3279C14.4008 15.8349 14.8734 15.4669 15.3846 15.406C15.897 15.3451 16.4263 15.5772 16.757 15.9732L17.7122 18.4139Z" fill="#FFCFCA"/>
<path fill-rule="evenodd" clip-rule="evenodd" d="M21.1171 15.7972C21.0162 15.8079 20.8678 15.654 20.8163 15.4169C20.7892 15.2918 20.7947 15.165 20.8314 15.0695C20.8441 15.0357 20.8803 14.9575 20.9417 14.9444L20.9513 14.9427C21.0522 14.932 21.2005 15.0851 21.252 15.3222C21.2791 15.4473 21.2737 15.5741 21.237 15.6704C21.2242 15.7034 21.1881 15.7824 21.1266 15.7956L21.1171 15.7972Z" fill="#1F3C49"/>
<path fill-rule="evenodd" clip-rule="evenodd" d="M24.136 15.3384C24.0506 15.3475 23.8996 15.2117 23.8473 14.9713C23.821 14.8503 23.8263 14.7276 23.8618 14.6346C23.8875 14.5671 23.9255 14.5235 23.9663 14.5152L23.9751 14.5136C24.0604 14.5045 24.2115 14.6395 24.2638 14.8807C24.29 15.0017 24.2848 15.1244 24.2493 15.2174C24.2236 15.2849 24.1855 15.3277 24.1448 15.3368L24.136 15.3384Z" fill="#1F3C49"/>
<path fill-rule="evenodd" clip-rule="evenodd" d="M22.6427 15.9716C22.7174 15.8802 22.8495 15.8358 22.9774 15.8522C23.1073 15.8662 23.2311 15.9518 23.2971 16.0663C23.3662 16.179 23.3817 16.3289 23.332 16.4499C23.2849 16.57 23.1822 16.6647 23.066 16.6861C23.1433 16.5997 23.1841 16.505 23.1966 16.412C23.2091 16.3206 23.1879 16.2342 23.1433 16.1576C23.098 16.0819 23.0324 16.0218 22.9457 15.9889C22.8587 15.9551 22.7556 15.9452 22.6427 15.9716Z" fill="#1F3C49"/>
<path fill-rule="evenodd" clip-rule="evenodd" d="M20.198 13.898C20.18 13.8922 20.1645 13.879 20.1561 13.8601C20.1402 13.8247 20.1561 13.7827 20.1917 13.7671C20.4523 13.6502 20.7647 13.6477 21.0275 13.7597C21.0633 13.7753 21.08 13.8165 21.0646 13.8527C21.0493 13.8881 21.0079 13.9046 20.972 13.8897C20.7446 13.7918 20.4747 13.7951 20.2494 13.8955C20.2325 13.9037 20.2142 13.9037 20.198 13.898Z" fill="#1F3C49"/>
<path fill-rule="evenodd" clip-rule="evenodd" d="M23.2302 13.4353C23.214 13.432 23.1991 13.4237 23.1884 13.4097C23.1646 13.3785 23.1705 13.334 23.2014 13.3101C23.4067 13.1529 23.6818 13.0829 23.9373 13.1233C23.9747 13.1299 24.002 13.1653 23.996 13.2039C23.99 13.2426 23.9538 13.269 23.9153 13.2624C23.6973 13.2286 23.4625 13.2879 23.2873 13.4221C23.2703 13.4353 23.2495 13.4394 23.2302 13.4353Z" fill="#1F3C49"/>
<path fill-rule="evenodd" clip-rule="evenodd" d="M21.0202 15.0965C20.8706 15.0735 20.8352 15.3064 20.9851 15.3286C21.1346 15.3517 21.17 15.1187 21.0202 15.0965Z" fill="white"/>
<path fill-rule="evenodd" clip-rule="evenodd" d="M24.0871 14.633C23.9374 14.61 23.9021 14.8421 24.052 14.8652C24.2015 14.8882 24.2369 14.6553 24.0871 14.633Z" fill="white"/>
<path fill-rule="evenodd" clip-rule="evenodd" d="M24.2983 17.0944C24.3142 17.4006 24.245 17.6879 24.1141 17.9291C23.9047 18.3168 23.5363 18.5819 23.1051 18.6041C22.6634 18.6272 22.2613 18.3901 22.0149 18.0114C21.8692 17.79 21.7775 17.52 21.7623 17.2253C21.7617 17.2154 21.7626 17.2047 21.762 17.1932L24.2952 17.0615C24.2957 17.073 24.2977 17.0837 24.2983 17.0944Z" fill="#D55454"/>
<path fill-rule="evenodd" clip-rule="evenodd" d="M24.1924 17.0673C23.9241 17.3826 23.5175 17.5942 23.0541 17.618C22.5905 17.6419 22.1644 17.474 21.8649 17.1875L24.1924 17.0673Z" fill="white"/>
<path fill-rule="evenodd" clip-rule="evenodd" d="M24.1143 17.9292C23.9048 18.317 23.5364 18.582 23.1053 18.6043C22.6635 18.6273 22.2614 18.3902 22.015 18.0116C22.4426 17.8938 22.8875 17.8379 23.3308 17.8461C23.5939 17.8519 23.856 17.8798 24.1143 17.9292Z" fill="#F37C7C"/>
<path fill-rule="evenodd" clip-rule="evenodd" d="M21.3093 16.822C21.3506 17.2073 20.9608 17.5645 20.4386 17.6205C19.9164 17.6765 19.4595 17.4098 19.4182 17.0253C19.3769 16.6409 19.7667 16.2836 20.2889 16.2277C20.8111 16.1717 21.2679 16.4376 21.3093 16.822Z" fill="#F9BFBB"/>
<path fill-rule="evenodd" clip-rule="evenodd" d="M25.36 15.8736C25.388 16.1329 25.1248 16.3741 24.7721 16.4119C24.4194 16.4506 24.1109 16.2703 24.083 16.011C24.0551 15.7509 24.3183 15.5097 24.671 15.4718C25.0236 15.434 25.3321 15.6134 25.36 15.8736Z" fill="#F9BFBB"/>
<path fill-rule="evenodd" clip-rule="evenodd" d="M25.3689 10.1818C25.4624 9.21375 23.9667 8.15841 21.1817 7.6719C19.0293 7.2957 16.1637 8.03246 14.6829 9.62041C13.811 10.5564 13.2841 11.829 13.3952 13.1091C13.4858 14.1562 13.946 15.1852 14.3699 16.1401C14.6775 15.5408 15.5356 15.3071 16.1916 15.5194C16.5747 15.6429 16.8882 15.8899 17.1372 16.1945C17.147 14.9737 17.4558 13.7932 17.4553 12.5708C17.4595 12.5954 19.4774 12.3238 19.6204 12.3057C20.7879 12.155 21.9467 12.0069 23.0801 11.6792C23.5632 11.5393 24.0391 11.3763 24.5054 11.1902C24.8472 11.0536 25.3411 10.47 25.3689 10.1818Z" fill="#32334C"/>
<path fill-rule="evenodd" clip-rule="evenodd" d="M19.8979 16.3345C20.097 16.5131 20.3534 16.6325 20.6405 16.6605C20.8441 16.6802 21.0415 16.6514 21.2216 16.5831C21.6714 16.4143 22.0113 16.0011 22.0606 15.4907C22.1295 14.7762 21.6043 14.139 20.8906 14.0707C20.1762 14.0015 19.5395 14.5259 19.4705 15.2404C19.4293 15.6677 19.6005 16.0678 19.8979 16.3345ZM22.1681 15.0229L22.6633 14.948C22.6618 14.934 22.6587 14.9208 22.6571 14.9077L22.1564 14.9785C22.1608 14.9933 22.1645 15.0081 22.1681 15.0229ZM23.9683 16.0381C24.0086 16.0414 24.0484 16.0431 24.0883 16.0439C24.1876 16.0447 24.2853 16.0332 24.3796 16.011C24.6721 15.946 24.9307 15.7797 25.1135 15.5483C25.264 15.359 25.3634 15.126 25.3884 14.8676C25.3994 14.754 25.3955 14.6437 25.3776 14.5358L25.3777 14.535C25.2852 13.9653 24.8185 13.506 24.2184 13.4475C23.504 13.3784 22.8673 13.9036 22.7983 14.6173C22.7294 15.3318 23.2539 15.969 23.9683 16.0381ZM15.4151 15.3311L15.6034 15.3278L17.1898 15.3006L18.1099 15.285L19.3245 15.2652C19.3258 15.2521 19.3256 15.2397 19.3268 15.2266C19.4035 14.433 20.1111 13.8502 20.9048 13.9267C21.4638 13.9802 21.9176 14.349 22.1106 14.8396L22.648 14.7631C22.6474 14.7096 22.6495 14.6569 22.6547 14.6042C22.7313 13.8107 23.4391 13.227 24.2326 13.3036C24.7038 13.3497 25.1004 13.6197 25.329 13.9967L25.3575 13.8057C25.362 13.7753 25.3844 13.7539 25.4127 13.7464C25.4216 13.7448 25.431 13.744 25.4404 13.7448C25.4798 13.7514 25.5068 13.7876 25.5007 13.8279L25.4722 14.0173L25.4407 14.2231C25.4454 14.2354 25.4499 14.2486 25.4545 14.2609C25.523 14.4544 25.5535 14.6643 25.5325 14.8816C25.505 15.1656 25.3968 15.4225 25.2328 15.6324C24.9768 15.9584 24.5854 16.1699 24.1524 16.1872L24.1319 16.188C24.0737 16.1897 24.0144 16.1872 23.9546 16.1815C23.3287 16.1214 22.8352 15.6678 22.6921 15.0899L22.196 15.1648C22.2115 15.2759 22.2159 15.3887 22.2047 15.504C22.1504 16.0662 21.7796 16.5231 21.2854 16.7141C21.2386 16.733 21.1906 16.7486 21.1414 16.7618C20.9781 16.8054 20.8045 16.8211 20.6268 16.8046C20.2901 16.7717 19.992 16.6252 19.7654 16.4078C19.7566 16.4004 19.7481 16.3914 19.7395 16.3823C19.4888 16.1288 19.3333 15.7839 19.3215 15.4093L18.261 15.4274L17.1766 15.4455L15.9939 15.4661H15.9684L15.6382 15.4719L15.4178 15.4752H15.4092C15.4013 15.4743 15.3934 15.4719 15.3865 15.4686C15.3642 15.4587 15.3482 15.4373 15.3449 15.4109L15.3441 15.4035C15.3436 15.3648 15.3751 15.3311 15.4151 15.3311Z" fill="black"/>
<path fill-rule="evenodd" clip-rule="evenodd" d="M16.6966 24.6703C16.7424 25.1716 17.6982 25.5775 18.9013 25.822C19.8146 26.008 20.8692 26.1002 21.7767 26.0706C22.6148 26.0434 23.3262 25.9125 23.6838 25.654C24.0356 25.3997 23.9181 22.3349 22.6858 22.446C22.6582 22.4485 22.6178 22.4485 22.5651 22.446C22.2407 22.4353 21.4709 22.3431 20.5946 22.2394C19.507 22.1093 18.2557 21.9612 17.4917 21.9241C17.1061 21.9052 16.8441 21.9142 16.7884 21.9686C16.3978 22.3489 16.6215 23.8397 16.6966 24.6703Z" fill="#D23A64"/>
</g>
<path fill-rule="evenodd" clip-rule="evenodd" d="M20.5962 0.22144C20.6534 0.22144 20.7006 0.176164 20.7023 0.11854C20.704 0.0592702 20.6579 0.0107016 20.5992 0.00905517C20.4105 0.00329279 20.2183 0.000823197 20.0283 0H20.0281C19.9695 0 19.922 0.0477454 19.9219 0.106192C19.9218 0.164639 19.9693 0.212385 20.0279 0.212385C20.216 0.213208 20.4062 0.215678 20.593 0.22144H20.5962ZM18.8925 0.24227H18.8985C19.0866 0.231569 19.2766 0.22416 19.463 0.219221C19.5216 0.217574 19.5679 0.169006 19.5663 0.110559C19.5648 0.0521118 19.5176 0.00683594 19.4602 0.00683594H19.4573C19.269 0.0117751 19.077 0.0200071 18.8869 0.0298855C18.8282 0.0331783 18.7835 0.0833933 18.7867 0.14184C18.7897 0.198641 18.8366 0.24227 18.8925 0.24227ZM21.7302 0.286407C21.7848 0.286407 21.8311 0.245247 21.8359 0.189269C21.8409 0.130822 21.7976 0.0797841 21.7392 0.0748449C21.5486 0.0583809 21.357 0.0443866 21.1696 0.033685C21.1107 0.0320386 21.0609 0.0748449 21.0575 0.134115C21.0542 0.192562 21.0989 0.242777 21.1574 0.24607C21.3428 0.256772 21.5324 0.269943 21.721 0.286407H21.7302ZM17.7603 0.337494L17.7723 0.33667C17.958 0.316091 18.1472 0.297157 18.3346 0.281516C18.393 0.276577 18.4365 0.225539 18.4316 0.167092C18.4268 0.108645 18.3758 0.0658385 18.317 0.0699545C18.1275 0.0855952 17.9364 0.104529 17.7486 0.125932C17.6903 0.131694 17.6484 0.184379 17.6549 0.242826C17.661 0.297157 17.707 0.337494 17.7603 0.337494ZM22.8587 0.416479C22.9106 0.416479 22.956 0.377789 22.9636 0.325104C22.972 0.267481 22.9318 0.21315 22.8736 0.204918C22.6842 0.177752 22.4937 0.153056 22.3073 0.131653C22.2495 0.124244 22.1963 0.16705 22.1896 0.225497C22.183 0.283945 22.2249 0.335806 22.2832 0.342392C22.4675 0.363795 22.656 0.388491 22.8434 0.414833L22.8587 0.416479ZM16.6355 0.495559L16.6534 0.493912C16.8377 0.462631 17.0255 0.433819 17.2117 0.407477C17.2698 0.399245 17.3103 0.345737 17.302 0.28729C17.2939 0.229666 17.2405 0.189329 17.1821 0.197561C16.9939 0.223904 16.8041 0.253539 16.6178 0.28482C16.5599 0.294699 16.5211 0.349853 16.5309 0.407477C16.5398 0.459338 16.5847 0.495559 16.6355 0.495559ZM23.9778 0.609965C24.0272 0.609965 24.0715 0.575391 24.0817 0.525176C24.0933 0.467552 24.0563 0.411574 23.9988 0.40005C23.8135 0.362183 23.6247 0.326785 23.4375 0.29468C23.3798 0.284802 23.3248 0.323492 23.3148 0.381116C23.3048 0.43874 23.3435 0.493894 23.4013 0.503772C23.5864 0.535877 23.7733 0.571275 23.9565 0.608319L23.9778 0.609965ZM15.5215 0.718751C15.5294 0.718751 15.5374 0.717928 15.5455 0.716282C15.7284 0.674299 15.9142 0.633962 16.0978 0.596918C16.1554 0.586217 16.1927 0.530239 16.1811 0.472615C16.1696 0.414992 16.1134 0.377125 16.0562 0.388649C15.8705 0.426516 15.6827 0.466853 15.4978 0.508836C15.4407 0.522007 15.4049 0.578808 15.4181 0.636432C15.4294 0.685824 15.4732 0.718751 15.5215 0.718751ZM25.0842 0.868587C25.1312 0.868587 25.1742 0.836483 25.1868 0.788737C25.2017 0.73276 25.1679 0.674313 25.1112 0.659495C24.9275 0.610926 24.741 0.564827 24.5568 0.522021C24.4997 0.50885 24.4427 0.544247 24.4293 0.601048C24.416 0.657849 24.4516 0.715472 24.5087 0.728644C24.6909 0.77145 24.8753 0.816726 25.057 0.864471C25.0661 0.866941 25.0752 0.868587 25.0842 0.868587ZM14.4223 1.005C14.4322 1.005 14.4423 1.00335 14.4521 1.00088C14.6331 0.948197 14.8164 0.897159 14.9968 0.850237C15.0536 0.835419 15.0876 0.777796 15.0728 0.720995C15.058 0.664194 15.0001 0.630443 14.9433 0.644438C14.7608 0.692183 14.5756 0.743221 14.3928 0.796729C14.3365 0.813193 14.304 0.87164 14.3205 0.928441C14.334 0.97454 14.3764 1.005 14.4223 1.005ZM26.1739 1.18947C26.2186 1.18947 26.2603 1.16066 26.2748 1.11621C26.2931 1.06023 26.2627 1.00014 26.2069 0.982028C26.0264 0.922758 25.8428 0.865957 25.6614 0.812449C25.6049 0.795985 25.5461 0.82809 25.5295 0.884891C25.513 0.940868 25.5452 1.00014 25.6014 1.0166C25.7809 1.06929 25.9625 1.12526 26.141 1.18371C26.1519 1.187 26.1631 1.18947 26.1739 1.18947ZM13.34 1.35494C13.3516 1.35494 13.3639 1.35329 13.3754 1.34835C13.5516 1.28579 13.7319 1.22487 13.9122 1.16642C13.9681 1.14831 13.9986 1.08904 13.9805 1.03307C13.9624 0.977088 13.9031 0.94663 13.8471 0.96474C13.6652 1.02319 13.4825 1.08493 13.3038 1.14831C13.2487 1.16807 13.2199 1.22899 13.2396 1.28414C13.2553 1.32777 13.2964 1.35494 13.34 1.35494ZM27.2432 1.57235C27.2857 1.57235 27.3258 1.54683 27.3421 1.50485C27.3636 1.45051 27.3365 1.38877 27.2819 1.36737C27.1051 1.29822 26.9251 1.23072 26.7471 1.16651C26.692 1.14675 26.6312 1.17557 26.6113 1.23072C26.5916 1.28587 26.6203 1.34679 26.6754 1.36655C26.8516 1.42993 27.0297 1.49661 27.2046 1.56494C27.2173 1.56988 27.2304 1.57235 27.2432 1.57235ZM12.2772 1.76653C12.2911 1.76653 12.3051 1.76406 12.3183 1.7583C12.4928 1.68503 12.6698 1.61342 12.8435 1.54591C12.8987 1.52451 12.9258 1.46359 12.9044 1.40844C12.883 1.35411 12.8221 1.32694 12.767 1.34835C12.5908 1.41667 12.4122 1.48829 12.236 1.5632C12.1825 1.58543 12.157 1.64799 12.1792 1.70232C12.1965 1.74266 12.236 1.76653 12.2772 1.76653ZM28.2855 2.01507C28.3257 2.01507 28.3642 1.99202 28.382 1.9525C28.4065 1.89982 28.3831 1.83643 28.3298 1.81174C28.1571 1.73271 27.9818 1.65533 27.8089 1.58206C27.755 1.55902 27.6926 1.58453 27.6696 1.63804C27.6467 1.69237 27.672 1.75494 27.7259 1.77716C27.897 1.85043 28.0704 1.92698 28.2413 2.00519C28.2556 2.01177 28.2706 2.01507 28.2855 2.01507ZM11.2416 2.23898C11.2573 2.23898 11.2729 2.23569 11.2877 2.22828C11.4581 2.14514 11.6302 2.06364 11.7997 1.98626C11.8533 1.96156 11.8771 1.899 11.8524 1.84549C11.8286 1.79198 11.7652 1.76893 11.7117 1.79281C11.5404 1.87101 11.3659 1.95333 11.1947 2.0373C11.142 2.06364 11.1198 2.12702 11.1461 2.17971C11.1642 2.21758 11.2021 2.23898 11.2416 2.23898ZM29.3013 2.51646C29.3393 2.51646 29.3761 2.49588 29.3952 2.45966C29.4227 2.4078 29.4029 2.34359 29.3511 2.31643C29.183 2.22752 29.0123 2.14026 28.8439 2.05712C28.7914 2.03078 28.7277 2.05218 28.7017 2.10486C28.6757 2.15755 28.6974 2.22176 28.7499 2.24728C28.9165 2.3296 29.0854 2.41603 29.2516 2.50411C29.2674 2.51235 29.2845 2.51646 29.3013 2.51646ZM10.2347 2.77002C10.252 2.77002 10.2701 2.7659 10.2866 2.75685C10.4512 2.66383 10.6184 2.57245 10.7838 2.48519C10.8357 2.45803 10.8554 2.39382 10.8283 2.34196C10.8003 2.2901 10.7361 2.27034 10.6842 2.29751C10.5179 2.38559 10.3483 2.47779 10.1821 2.57163C10.131 2.60044 10.1129 2.66547 10.1417 2.71651C10.1615 2.75109 10.1977 2.77002 10.2347 2.77002ZM30.2873 3.07537C30.3232 3.07537 30.3583 3.05726 30.3783 3.02433C30.4087 2.97411 30.3926 2.90908 30.3424 2.87862C30.1812 2.78066 30.0157 2.68352 29.8507 2.5905C29.7996 2.56169 29.7348 2.57898 29.706 2.63002C29.677 2.68106 29.6949 2.74609 29.7459 2.7749C29.9092 2.86792 30.0728 2.96341 30.2324 3.06055C30.2496 3.07043 30.2686 3.07537 30.2873 3.07537ZM9.26016 3.35772C9.27992 3.35772 9.29967 3.35196 9.31779 3.34043C9.47666 3.23836 9.63801 3.13793 9.79771 3.04161C9.84793 3.01115 9.86439 2.94612 9.83393 2.89591C9.80347 2.84569 9.73844 2.82923 9.68822 2.85969C9.52688 2.95682 9.36306 3.0589 9.20254 3.1618C9.15314 3.1939 9.13915 3.25894 9.17126 3.30833C9.19101 3.34043 9.22559 3.35772 9.26016 3.35772ZM31.2405 3.69045C31.2744 3.69045 31.3076 3.67398 31.3282 3.64435C31.3613 3.59578 31.349 3.52992 31.3007 3.497C31.1444 3.38916 30.9846 3.28297 30.826 3.18089C30.7766 3.14878 30.711 3.16278 30.6791 3.21299C30.6473 3.26156 30.6615 3.32742 30.7108 3.35952C30.8679 3.46078 31.0259 3.56532 31.1805 3.67151C31.1989 3.68469 31.2199 3.69045 31.2405 3.69045ZM8.32191 3.99899C8.34332 3.99899 8.36554 3.99241 8.38365 3.97924C8.53512 3.86893 8.6907 3.75944 8.84629 3.65325C8.89486 3.62032 8.90721 3.55447 8.87428 3.5059C8.84135 3.45733 8.77467 3.44498 8.72693 3.47791C8.56969 3.58493 8.41246 3.69606 8.25935 3.80719C8.2116 3.84176 8.2009 3.90844 8.23548 3.95536C8.25688 3.98418 8.28898 3.99899 8.32191 3.99899ZM32.1575 4.35894C32.1893 4.35894 32.2207 4.34495 32.2416 4.31778C32.2775 4.27086 32.2689 4.20418 32.2225 4.16878C32.0724 4.05271 31.9188 3.93746 31.7663 3.82633C31.7189 3.79176 31.6524 3.80164 31.618 3.84938C31.5834 3.8963 31.5938 3.96298 31.6412 3.99756C31.7921 4.10786 31.944 4.22147 32.0926 4.33671C32.112 4.35153 32.1348 4.35894 32.1575 4.35894ZM7.42103 4.69307C7.4449 4.69307 7.46878 4.68566 7.48771 4.66919C7.63342 4.55065 7.78242 4.43211 7.93142 4.31769C7.97752 4.28229 7.98575 4.21561 7.95035 4.16869C7.91413 4.12259 7.84745 4.11353 7.80135 4.14976C7.65153 4.26583 7.50089 4.38519 7.35353 4.50455C7.30825 4.54242 7.30167 4.6091 7.33871 4.65438C7.35929 4.67989 7.39058 4.69307 7.42103 4.69307ZM33.0357 5.07845C33.0655 5.07845 33.0949 5.0661 33.1159 5.0414C33.1544 4.99695 33.1497 4.93027 33.1054 4.89158C32.962 4.76728 32.8152 4.6438 32.6692 4.52361C32.6238 4.48657 32.5568 4.49315 32.5198 4.53843C32.4825 4.58453 32.4892 4.65121 32.5346 4.68825C32.679 4.80679 32.8243 4.92863 32.9662 5.0521C32.9863 5.06939 33.011 5.07845 33.0357 5.07845ZM6.56193 5.43718C6.58745 5.43718 6.61379 5.42813 6.63354 5.40919C6.77184 5.28242 6.91343 5.15647 7.05585 5.03299C7.1003 4.99513 7.10524 4.92762 7.06655 4.88317C7.02786 4.83872 6.96118 4.8346 6.91673 4.87247C6.77349 4.99677 6.62943 5.12519 6.49031 5.25279C6.44668 5.2923 6.44421 5.35898 6.48372 5.40261C6.5043 5.42566 6.53312 5.43718 6.56193 5.43718ZM33.8717 5.84627C33.8994 5.84627 33.927 5.83556 33.9478 5.81416C33.9887 5.77218 33.9878 5.70468 33.9457 5.66434C33.8093 5.5318 33.6697 5.39927 33.5309 5.27167C33.4878 5.23216 33.4205 5.23463 33.3809 5.27826C33.3412 5.32107 33.344 5.38857 33.3872 5.42808C33.5245 5.55485 33.6627 5.68492 33.7977 5.81663C33.8183 5.83639 33.845 5.84627 33.8717 5.84627ZM5.74683 6.22827C5.774 6.22827 5.80199 6.21757 5.82257 6.19616C5.95428 6.06116 6.08846 5.92698 6.22264 5.79691C6.26463 5.75575 6.26545 5.68907 6.22511 5.64627C6.18395 5.60429 6.11645 5.60346 6.07447 5.64462C5.93946 5.77551 5.80281 5.91134 5.67028 6.04799C5.62994 6.08997 5.63076 6.15665 5.67275 6.19781C5.69333 6.21757 5.71967 6.22827 5.74683 6.22827ZM34.6632 6.66122C34.6889 6.66122 34.7146 6.65216 34.735 6.63323C34.7782 6.59372 34.7812 6.52704 34.7415 6.48341C34.6133 6.34346 34.4814 6.20434 34.3494 6.06852C34.3085 6.02653 34.2412 6.02489 34.1992 6.06605C34.1571 6.10721 34.1562 6.17389 34.1971 6.21587C34.3277 6.35087 34.4582 6.48917 34.5849 6.62664C34.6059 6.64969 34.6345 6.66122 34.6632 6.66122ZM4.97808 7.06392C5.00772 7.06392 5.03735 7.05157 5.05793 7.02687C5.18141 6.88528 5.30736 6.74369 5.43414 6.60622C5.47447 6.56341 5.47118 6.49591 5.42837 6.4564C5.38474 6.41606 5.31806 6.41935 5.27855 6.46216C5.15013 6.60128 5.02171 6.74451 4.89741 6.88775C4.85954 6.9322 4.86366 6.99971 4.90811 7.03757C4.92869 7.05486 4.95339 7.06392 4.97808 7.06392ZM35.4074 7.52067C35.4311 7.52067 35.4548 7.51244 35.4746 7.4968C35.52 7.45893 35.5267 7.39225 35.4895 7.34698C35.3699 7.20045 35.2461 7.05392 35.1215 6.90986C35.0832 6.86541 35.0161 6.86047 34.9718 6.89916C34.9274 6.93785 34.9227 7.00453 34.9611 7.04898C35.0842 7.19139 35.2067 7.33628 35.3251 7.48116C35.3461 7.5075 35.3766 7.52067 35.4074 7.52067ZM4.25762 7.94147C4.28972 7.94147 4.32101 7.92747 4.34158 7.90031C4.45601 7.75213 4.57455 7.60313 4.69391 7.45907C4.73096 7.41297 4.72437 7.34629 4.6791 7.30925C4.633 7.27221 4.56632 7.27879 4.52927 7.32407C4.40909 7.4706 4.28972 7.62042 4.17365 7.77024C4.13743 7.81634 4.14649 7.88302 4.19258 7.91924C4.21234 7.93406 4.23457 7.94147 4.25762 7.94147ZM36.1016 8.42055C36.1232 8.42055 36.145 8.41396 36.1639 8.39997C36.2113 8.36539 36.2218 8.29954 36.1873 8.25179C36.0759 8.09868 35.9606 7.94474 35.8447 7.79492C35.8088 7.74799 35.7421 7.73976 35.6957 7.77516C35.6493 7.81138 35.6407 7.87806 35.6765 7.92416C35.7912 8.07316 35.9053 8.22545 36.0155 8.37692C36.0363 8.40573 36.0687 8.42055 36.1016 8.42055ZM3.5895 8.85845C3.62325 8.85845 3.65617 8.84198 3.67675 8.81235C3.78377 8.65676 3.89326 8.502 4.00274 8.35136C4.03732 8.30444 4.02744 8.23776 3.97969 8.20318C3.93195 8.16861 3.86609 8.17931 3.83152 8.22623C3.72039 8.37852 3.60925 8.53493 3.50142 8.69134C3.46849 8.73991 3.48083 8.80659 3.5294 8.83951C3.54751 8.85186 3.56892 8.85845 3.5895 8.85845ZM36.7439 9.35878C36.7635 9.35878 36.7835 9.35302 36.8012 9.34232C36.8506 9.31021 36.8648 9.24436 36.8331 9.19497C36.7308 9.03609 36.6244 8.87557 36.517 8.71916C36.4838 8.67059 36.4178 8.65824 36.3694 8.69117C36.321 8.7241 36.3086 8.78995 36.3417 8.83852C36.448 8.99411 36.5532 9.15298 36.6545 9.31021C36.6747 9.3415 36.709 9.35878 36.7439 9.35878ZM2.97329 9.81089C3.00951 9.81089 3.04491 9.79278 3.06467 9.75986C3.1618 9.60016 3.26223 9.43881 3.36349 9.28158C3.39559 9.23219 3.3816 9.16633 3.33221 9.13505C3.28281 9.10295 3.21696 9.11694 3.18568 9.16633C3.08278 9.32521 2.9807 9.4882 2.88274 9.64955C2.85228 9.69976 2.86874 9.76562 2.91896 9.79525C2.93624 9.80596 2.95518 9.81089 2.97329 9.81089ZM37.3317 10.3328C37.3494 10.3328 37.3674 10.3287 37.3839 10.3197C37.435 10.2909 37.453 10.2258 37.4241 10.1748C37.3307 10.0093 37.2335 9.84303 37.1356 9.68086C37.1053 9.63065 37.04 9.61418 36.9898 9.64464C36.9396 9.6751 36.9234 9.74013 36.9538 9.79035C37.0506 9.95087 37.1467 10.1155 37.2392 10.2793C37.2587 10.3139 37.2947 10.3328 37.3317 10.3328ZM2.41475 10.797C2.45262 10.797 2.48966 10.7764 2.50859 10.7402C2.59668 10.5739 2.68805 10.4076 2.77943 10.2463C2.80824 10.1952 2.79095 10.1302 2.73991 10.1014C2.68887 10.0726 2.62384 10.0898 2.59503 10.1409C2.50201 10.3047 2.40981 10.4726 2.3209 10.6406C2.29292 10.6924 2.31267 10.7566 2.36454 10.7846C2.381 10.7929 2.39746 10.797 2.41475 10.797ZM37.863 11.3394C37.8787 11.3394 37.8947 11.3361 37.9098 11.3287C37.9624 11.3023 37.9841 11.239 37.9582 11.1863C37.8745 11.0159 37.7871 10.8446 37.6983 10.6767C37.671 10.6249 37.6068 10.6051 37.5548 10.6323C37.503 10.6594 37.4831 10.7236 37.5106 10.7755C37.5983 10.9418 37.6848 11.1114 37.7676 11.2801C37.7861 11.318 37.8238 11.3394 37.863 11.3394ZM1.91243 11.8122C1.95276 11.8122 1.99063 11.79 2.00874 11.7505C2.08694 11.5801 2.16844 11.4089 2.25158 11.2426C2.2771 11.1899 2.2557 11.1257 2.20301 11.1002C2.15033 11.0738 2.08694 11.0952 2.0606 11.1479C1.97746 11.3167 1.89514 11.4895 1.81611 11.6624C1.79141 11.7151 1.81446 11.7785 1.86797 11.8032C1.88197 11.8098 1.89761 11.8122 1.91243 11.8122ZM38.3358 12.3752C38.3497 12.3752 38.3637 12.3727 38.3772 12.3669C38.4312 12.3439 38.4564 12.2821 38.4336 12.2278C38.36 12.0533 38.2825 11.8771 38.2034 11.7034C38.1791 11.6507 38.1162 11.6269 38.0627 11.6516C38.0093 11.6754 37.9858 11.7388 38.0102 11.7915C38.0885 11.9636 38.165 12.1381 38.238 12.3101C38.2551 12.3513 38.2944 12.3752 38.3358 12.3752ZM1.46964 12.8543C1.51162 12.8543 1.55196 12.8288 1.56842 12.7868C1.63593 12.6139 1.70755 12.4386 1.78081 12.2657C1.80386 12.2122 1.77916 12.1496 1.72483 12.1266C1.67133 12.1035 1.60876 12.1291 1.58571 12.1826C1.51162 12.3571 1.43918 12.5341 1.37086 12.7094C1.34945 12.7646 1.3758 12.8263 1.43095 12.8477C1.4433 12.8518 1.45647 12.8543 1.46964 12.8543ZM38.7484 13.4371C38.7602 13.4371 38.7722 13.4355 38.784 13.4314C38.8393 13.4116 38.8681 13.3507 38.8485 13.2955C38.7846 13.1161 38.7173 12.9358 38.6487 12.7588C38.6274 12.7045 38.566 12.6773 38.5112 12.6979C38.4565 12.7193 38.4295 12.781 38.4508 12.8354C38.5186 13.0107 38.5851 13.1893 38.6484 13.3672C38.6638 13.4108 38.7047 13.4371 38.7484 13.4371ZM1.08587 13.9236C1.13032 13.9236 1.17148 13.8956 1.18629 13.8503C1.24474 13.6725 1.30648 13.4922 1.36987 13.316C1.38963 13.2609 1.36081 13.2 1.30566 13.1802C1.25051 13.1605 1.18959 13.1893 1.16983 13.2444C1.10562 13.4222 1.04388 13.6042 0.984612 13.7844C0.966503 13.8404 0.99696 13.9005 1.05212 13.9186C1.06364 13.9219 1.07434 13.9236 1.08587 13.9236ZM39.0987 14.5204C39.1085 14.5204 39.1186 14.5188 39.1285 14.5155C39.1849 14.499 39.2171 14.4405 39.2007 14.3837C39.1474 14.2018 39.0908 14.0174 39.0327 13.838C39.0146 13.7828 38.9545 13.7524 38.899 13.7696C38.8431 13.7878 38.8126 13.8478 38.8306 13.9038C38.8881 14.0816 38.9441 14.2627 38.9968 14.4438C39.0103 14.4899 39.0527 14.5204 39.0987 14.5204ZM0.763779 15.0134C0.810699 15.0134 0.853508 14.9821 0.86668 14.9343C0.914425 14.7524 0.965462 14.5697 1.01815 14.3902C1.03543 14.3334 1.00333 14.275 0.946529 14.2577C0.890553 14.2412 0.83128 14.2733 0.814816 14.3301C0.761311 14.5112 0.70945 14.6964 0.660881 14.88C0.646061 14.9368 0.679813 14.9944 0.736614 15.0093C0.74567 15.0117 0.754723 15.0134 0.763779 15.0134ZM39.3857 15.6193C39.3936 15.6193 39.4017 15.6184 39.4097 15.6168C39.4668 15.6028 39.5026 15.546 39.4893 15.4892C39.4465 15.3031 39.4006 15.1163 39.3531 14.9344C39.3382 14.8776 39.2805 14.8438 39.2234 14.8586C39.1667 14.8734 39.1327 14.9311 39.1476 14.9879C39.1947 15.1681 39.24 15.3534 39.2824 15.5369C39.2937 15.5855 39.3374 15.6193 39.3857 15.6193ZM0.505547 16.12C0.554939 16.12 0.599392 16.0846 0.610096 16.0344C0.647137 15.8508 0.687473 15.6648 0.730282 15.4829C0.743454 15.4252 0.708054 15.3684 0.651253 15.3553C0.593632 15.3421 0.536831 15.3775 0.523659 15.4343C0.480854 15.6187 0.439693 15.8064 0.401825 15.9924C0.390301 16.05 0.427345 16.106 0.484146 16.1175L0.505547 16.12ZM39.609 16.7333L39.6271 16.7316C39.6849 16.7217 39.7238 16.6666 39.7139 16.609C39.682 16.4221 39.6468 16.2328 39.6097 16.0475C39.5981 15.9899 39.5424 15.9529 39.4847 15.9644C39.4271 15.9759 39.3899 16.0319 39.4014 16.0895C39.4382 16.2731 39.4729 16.46 39.5045 16.6452C39.5134 16.6962 39.5583 16.7333 39.609 16.7333ZM0.311241 17.2387C0.363102 17.2387 0.408379 17.2008 0.416611 17.1481C0.442951 16.9612 0.473408 16.7736 0.504692 16.59C0.515392 16.5324 0.476704 16.4772 0.418255 16.4673C0.36063 16.4566 0.305477 16.4953 0.295597 16.5538C0.263493 16.739 0.233036 16.9291 0.205872 17.1176C0.197639 17.1753 0.237976 17.2296 0.295597 17.2378L0.311241 17.2387ZM39.7683 17.8577L39.7803 17.8569C39.8386 17.8503 39.8805 17.7976 39.874 17.74C39.8526 17.5506 39.8284 17.3605 39.802 17.1736C39.7937 17.1152 39.7399 17.0748 39.6819 17.0831C39.6239 17.0913 39.5835 17.1448 39.5917 17.2032C39.6179 17.3876 39.6418 17.5762 39.6628 17.763C39.669 17.8173 39.7149 17.8577 39.7683 17.8577ZM0.181011 18.3673C0.23534 18.3673 0.282265 18.3253 0.286381 18.2702C0.302845 18.0825 0.321777 17.8931 0.343182 17.7079C0.349766 17.6495 0.308605 17.5968 0.25016 17.5902C0.192535 17.5836 0.139027 17.6256 0.132442 17.684C0.111038 17.8709 0.0912819 18.0619 0.0748177 18.252C0.0698776 18.3105 0.113506 18.3615 0.171955 18.3665L0.181011 18.3673ZM39.8628 18.9894H39.8689C39.9274 18.9861 39.9722 18.9359 39.969 18.8775C39.9585 18.6873 39.9451 18.4963 39.9294 18.3078C39.9245 18.2494 39.8728 18.2074 39.8147 18.2107C39.7562 18.2156 39.7129 18.2675 39.7177 18.3259C39.7334 18.512 39.7465 18.7013 39.7569 18.889C39.76 18.9458 39.8069 18.9894 39.8628 18.9894ZM0.115154 19.5015C0.171955 19.5015 0.2197 19.4554 0.221348 19.3978C0.227112 19.2109 0.235344 19.0208 0.246044 18.8339C0.249336 18.7755 0.204884 18.7244 0.146439 18.7211C0.0879898 18.7178 0.036953 18.7623 0.0336571 18.8216C0.0229568 19.0101 0.0147247 19.2019 0.00896454 19.392C0.00731659 19.4505 0.0534172 19.4991 0.111862 19.5015H0.115154ZM39.8939 20.1255C39.9526 20.1255 40.0001 20.0778 40.0001 20.0193V20.0004C40.0001 19.8168 39.9977 19.6308 39.9927 19.448C39.9911 19.3896 39.9399 19.341 39.8836 19.3451C39.825 19.3468 39.7788 19.3953 39.7803 19.4538C39.7853 19.6349 39.7877 19.8185 39.7877 20.0004V20.0193C39.7877 20.0778 39.8352 20.1255 39.8939 20.1255ZM0.113613 20.6747H0.116905C0.175354 20.673 0.221451 20.6236 0.219807 20.5652C0.214867 20.3783 0.212399 20.1881 0.212399 20.0005V19.9634C0.212399 19.905 0.16465 19.8572 0.106205 19.8572C0.0477562 19.8572 1.14441e-05 19.9041 1.14441e-05 19.9626V20.0005C1.14441e-05 20.1898 0.00248337 20.3816 0.00741959 20.5709C0.00906754 20.6286 0.0568123 20.6747 0.113613 20.6747ZM39.8618 21.2606C39.9177 21.2606 39.9644 21.217 39.9677 21.1602C39.9785 20.9717 39.9867 20.7799 39.9923 20.5897C39.994 20.5313 39.9478 20.4827 39.8892 20.4811C39.832 20.4753 39.7817 20.5255 39.78 20.584C39.7745 20.7716 39.7663 20.9618 39.7557 21.1487C39.7523 21.2071 39.7971 21.2573 39.8556 21.2606H39.8618ZM0.177971 21.8083H0.187027C0.245476 21.8033 0.289104 21.7523 0.284164 21.693C0.2677 21.507 0.254528 21.3176 0.243828 21.13C0.240536 21.0715 0.190319 21.0287 0.131874 21.0295C0.0734253 21.0328 0.0289726 21.083 0.0322647 21.1415C0.0429688 21.3316 0.0561371 21.5234 0.0717812 21.7111C0.0767174 21.7671 0.123642 21.8083 0.177971 21.8083ZM39.7641 22.3926C39.8172 22.3926 39.8632 22.3523 39.8694 22.2988C39.8908 22.1111 39.9099 21.9201 39.9262 21.7299C39.9313 21.6715 39.888 21.6204 39.8295 21.6155C39.7715 21.6097 39.7197 21.6534 39.7147 21.7118C39.6985 21.8995 39.6796 22.0888 39.6584 22.2741C39.6517 22.3325 39.6935 22.3852 39.7518 22.3918L39.7641 22.3926ZM0.305309 22.9367L0.32095 22.9359C0.378571 22.9276 0.418907 22.8741 0.410675 22.8157C0.384335 22.6313 0.360462 22.4428 0.339058 22.2559C0.332474 22.1975 0.279789 22.1547 0.222164 22.1621C0.163719 22.1686 0.121735 22.2213 0.128319 22.2798C0.149723 22.4683 0.173595 22.6593 0.20076 22.8461C0.208172 22.8988 0.253445 22.9367 0.305309 22.9367ZM39.603 23.5172C39.6536 23.5172 39.6986 23.481 39.7075 23.4291C39.7396 23.2431 39.7695 23.0537 39.7966 22.8652C39.805 22.8068 39.7647 22.7533 39.7066 22.745C39.6487 22.736 39.5948 22.7771 39.5865 22.8348C39.5596 23.0216 39.5299 23.2093 39.4982 23.3929C39.4882 23.4505 39.5269 23.5057 39.5847 23.5155L39.603 23.5172ZM0.498211 24.057L0.519615 24.0545C0.57724 24.043 0.614285 23.987 0.602757 23.9294C0.565716 23.7458 0.530315 23.5589 0.499035 23.3737C0.489155 23.3161 0.434002 23.2774 0.376377 23.2873C0.318756 23.2972 0.27924 23.3523 0.28912 23.4099C0.322048 23.5968 0.356621 23.7853 0.394489 23.9714C0.404366 24.0216 0.448818 24.057 0.498211 24.057ZM39.3773 24.63C39.4256 24.63 39.4692 24.5971 39.4806 24.5477C39.5235 24.3633 39.5644 24.1756 39.602 23.9904C39.6137 23.9328 39.5764 23.8768 39.5189 23.8653C39.4615 23.8529 39.4054 23.8908 39.3938 23.9476C39.3566 24.132 39.3162 24.3172 39.2738 24.5C39.2605 24.5568 39.2961 24.6144 39.3531 24.6276C39.3613 24.6292 39.3693 24.63 39.3773 24.63ZM0.754086 25.1635C0.763142 25.1635 0.772198 25.1619 0.781254 25.1602C0.838055 25.1454 0.871803 25.0869 0.856987 25.0301C0.810066 24.849 0.763966 24.6638 0.721981 24.4819C0.708813 24.4243 0.651188 24.3889 0.594387 24.402C0.537586 24.4152 0.501366 24.4728 0.515358 24.5296C0.557343 24.714 0.603443 24.9009 0.652012 25.0837C0.66436 25.1314 0.707165 25.1635 0.754086 25.1635ZM39.0884 25.729C39.1344 25.729 39.1767 25.6986 39.1903 25.6525C39.2438 25.4705 39.2954 25.2853 39.3435 25.1026C39.3584 25.0458 39.3245 24.9873 39.2678 24.9725C39.2109 24.9577 39.153 24.9914 39.1381 25.0482C39.0905 25.2294 39.0395 25.4129 38.9865 25.5924C38.97 25.6492 39.0022 25.7076 39.0585 25.7249C39.0684 25.7274 39.0785 25.729 39.0884 25.729ZM1.07415 26.2532C1.08485 26.2532 1.09556 26.2516 1.10626 26.2483C1.16224 26.2302 1.1927 26.1701 1.17458 26.1141C1.11696 25.9363 1.06098 25.7552 1.0083 25.5749C0.991833 25.5181 0.932564 25.486 0.876587 25.5025C0.819786 25.5189 0.787682 25.5782 0.804146 25.6342C0.857655 25.8169 0.914455 26.0005 0.9729 26.18C0.987717 26.2253 1.02888 26.2532 1.07415 26.2532ZM38.7364 26.809C38.78 26.809 38.8209 26.7819 38.8364 26.7383C38.9002 26.5604 38.9623 26.3785 39.021 26.1982C39.0392 26.1423 39.0087 26.0822 38.9529 26.0641C38.8973 26.0459 38.8372 26.0764 38.819 26.1324C38.7609 26.311 38.6995 26.4905 38.6364 26.6675C38.6166 26.7226 38.6454 26.7827 38.7006 26.8025C38.7124 26.8074 38.7245 26.809 38.7364 26.809ZM1.45725 27.3268C1.4696 27.3268 1.48277 27.3243 1.49594 27.3194C1.55027 27.298 1.57743 27.2371 1.55603 27.1819C1.48771 27.0074 1.42103 26.8287 1.35764 26.6509C1.33789 26.5958 1.27697 26.567 1.22181 26.5867C1.16666 26.6065 1.13785 26.6674 1.1576 26.7226C1.22181 26.902 1.28932 27.0823 1.35847 27.2593C1.37493 27.3013 1.41444 27.3268 1.45725 27.3268ZM38.324 27.8653C38.3653 27.8653 38.4046 27.8414 38.4218 27.8011C38.4955 27.6266 38.5677 27.4496 38.6364 27.2734C38.6577 27.2191 38.6308 27.1573 38.5761 27.1359C38.5215 27.1145 38.4599 27.1417 38.4386 27.196C38.3706 27.3705 38.2992 27.5459 38.2263 27.7179C38.2033 27.7723 38.2285 27.834 38.2826 27.857C38.2961 27.8628 38.3101 27.8653 38.324 27.8653ZM1.90074 28.3756C1.91556 28.3756 1.93038 28.3724 1.94519 28.3666C1.9987 28.3419 2.02175 28.2785 1.99706 28.2258C1.91967 28.0554 1.84229 27.8809 1.76903 27.7072C1.74598 27.6529 1.68424 27.6282 1.62991 27.6504C1.57558 27.6735 1.55088 27.736 1.57311 27.7895C1.64802 27.9657 1.7254 28.1419 1.80443 28.3139C1.82171 28.3526 1.8604 28.3756 1.90074 28.3756ZM37.852 28.8951C37.8911 28.8951 37.9288 28.8737 37.9473 28.8358C38.0305 28.6671 38.1128 28.4942 38.1919 28.3213C38.2163 28.2686 38.1928 28.2052 38.1396 28.1805C38.0861 28.1567 38.0232 28.1797 37.9987 28.2332C37.9205 28.4036 37.8391 28.5749 37.7568 28.742C37.7308 28.7947 37.7524 28.858 37.805 28.8844C37.8201 28.8918 37.8362 28.8951 37.852 28.8951ZM2.40438 29.3971C2.42085 29.3971 2.43813 29.393 2.45377 29.3848C2.50563 29.3568 2.52539 29.2926 2.4974 29.2407C2.41014 29.0753 2.32371 28.9057 2.24056 28.7369C2.21422 28.6842 2.15083 28.6628 2.09815 28.6884C2.04546 28.7147 2.02406 28.7781 2.04958 28.8308C2.13355 29.002 2.22163 29.1732 2.30971 29.3403C2.32947 29.3765 2.36569 29.3971 2.40438 29.3971ZM37.322 29.8968C37.359 29.8968 37.3949 29.877 37.4145 29.8425C37.5078 29.6778 37.5999 29.5099 37.6882 29.3428C37.7156 29.2909 37.6959 29.2267 37.644 29.1995C37.5921 29.1716 37.5279 29.1921 37.5005 29.244C37.4131 29.4086 37.322 29.5749 37.2297 29.7379C37.2008 29.789 37.2187 29.854 37.2697 29.8828C37.2862 29.8919 37.3042 29.8968 37.322 29.8968ZM2.9653 30.3868C2.98341 30.3868 3.00317 30.3818 3.01963 30.3719C3.06985 30.3415 3.08631 30.2765 3.05585 30.2262C2.95872 30.0649 2.8624 29.9011 2.7702 29.7373C2.74139 29.6862 2.67636 29.6689 2.62532 29.6978C2.57428 29.7266 2.55617 29.7916 2.58498 29.8426C2.67883 30.0073 2.77597 30.1736 2.87393 30.3357C2.89451 30.3687 2.92908 30.3868 2.9653 30.3868ZM36.7353 30.8674C36.7702 30.8674 36.8044 30.8501 36.8247 30.818C36.9271 30.6591 37.0286 30.497 37.1266 30.3348C37.157 30.2846 37.1409 30.2195 37.0907 30.1891C37.0404 30.1586 36.9752 30.1751 36.9449 30.2245C36.8479 30.385 36.7474 30.5464 36.6462 30.7036C36.6144 30.753 36.6286 30.818 36.6779 30.8501C36.6957 30.8616 36.7156 30.8674 36.7353 30.8674ZM3.58088 31.3431C3.60146 31.3431 3.62286 31.3366 3.64097 31.3242C3.68954 31.2913 3.70189 31.2254 3.66896 31.1769C3.56194 31.0213 3.45657 30.8632 3.35532 30.706C3.32404 30.6566 3.25818 30.6426 3.20879 30.6739C3.1594 30.706 3.1454 30.7718 3.17669 30.8204C3.27958 30.9801 3.38578 31.1398 3.49361 31.297C3.51419 31.3267 3.54712 31.3431 3.58088 31.3431ZM36.0938 31.8027C36.1266 31.8027 36.159 31.7879 36.1797 31.7591C36.2909 31.6068 36.4017 31.4496 36.5088 31.2932C36.542 31.2454 36.5297 31.1787 36.4813 31.1458C36.4329 31.1129 36.3668 31.1252 36.3337 31.1738C36.2276 31.3277 36.1181 31.4833 36.008 31.634C35.9735 31.6817 35.984 31.7484 36.0314 31.783C36.0502 31.7961 36.0721 31.8027 36.0938 31.8027ZM4.25014 32.2619C4.27319 32.2619 4.29624 32.2553 4.31517 32.2397C4.36209 32.2043 4.37033 32.1376 4.33493 32.0907C4.21968 31.9417 4.10526 31.7902 3.99495 31.6388C3.96038 31.591 3.89452 31.5811 3.84678 31.6157C3.79903 31.6503 3.78915 31.7161 3.82372 31.7639C3.93486 31.9162 4.05011 32.0701 4.16618 32.2208C4.18758 32.2479 4.21886 32.2619 4.25014 32.2619ZM35.4001 32.7006C35.4309 32.7006 35.4614 32.6874 35.4824 32.6619C35.6016 32.5162 35.7211 32.3664 35.8375 32.2157C35.8735 32.1688 35.8649 32.1021 35.8185 32.0667C35.7721 32.0305 35.7054 32.0396 35.6696 32.0857C35.5543 32.2347 35.436 32.3837 35.318 32.5277C35.2808 32.573 35.2875 32.6397 35.3329 32.6767C35.3527 32.6932 35.3765 32.7006 35.4001 32.7006ZM4.97049 33.1412C4.99519 33.1412 5.02071 33.1329 5.04047 33.1156C5.08492 33.077 5.08986 33.0094 5.05117 32.9658C4.92851 32.8242 4.80585 32.6785 4.68649 32.5336C4.64944 32.4884 4.58277 32.4818 4.53749 32.5188C4.49221 32.5559 4.48481 32.6225 4.52267 32.6678C4.64286 32.8144 4.76634 32.9617 4.89064 33.1049C4.91205 33.1288 4.94086 33.1412 4.97049 33.1412ZM34.6564 33.5586C34.6851 33.5586 34.7137 33.547 34.7347 33.5248C34.8616 33.3865 34.9895 33.2433 35.1148 33.0984C35.1532 33.0539 35.1484 32.9873 35.1041 32.9486C35.0599 32.9107 34.9928 32.9148 34.9543 32.9593C34.8304 33.1025 34.7038 33.2441 34.5782 33.3808C34.5385 33.4244 34.5413 33.4911 34.5845 33.5306C34.605 33.5495 34.6307 33.5586 34.6564 33.5586ZM5.73925 33.9774C5.76641 33.9774 5.79276 33.9676 5.81334 33.9478C5.85614 33.9066 5.85696 33.8391 5.8158 33.7972C5.68574 33.6638 5.55485 33.5255 5.42725 33.3872C5.38774 33.3436 5.32106 33.3411 5.27743 33.3806C5.23463 33.4201 5.23133 33.4876 5.27085 33.5304C5.40009 33.6704 5.5318 33.8103 5.66351 33.9453C5.68409 33.9667 5.71208 33.9774 5.73925 33.9774ZM33.8646 34.3734C33.8912 34.3734 33.918 34.3635 33.9386 34.3429C34.0732 34.212 34.2091 34.0762 34.3423 33.9395C34.3833 33.8976 34.3823 33.8301 34.3403 33.7889C34.2982 33.7486 34.231 33.7494 34.1901 33.7914C34.0582 33.9272 33.9237 34.0614 33.7905 34.1906C33.7485 34.2318 33.7476 34.2985 33.7884 34.3413C33.8092 34.3627 33.8369 34.3734 33.8646 34.3734ZM6.5545 34.7694C6.58332 34.7694 6.61213 34.7579 6.63271 34.7348C6.67304 34.6912 6.66975 34.6245 6.62612 34.585C6.48865 34.4582 6.35035 34.3282 6.21535 34.1973C6.17336 34.1561 6.10668 34.1569 6.06553 34.1989C6.02436 34.2409 6.02601 34.3084 6.06799 34.3496C6.20382 34.4813 6.34377 34.6138 6.48288 34.7414C6.50346 34.7595 6.52898 34.7694 6.5545 34.7694ZM33.0276 35.1415C33.0523 35.1415 33.0771 35.1332 33.0972 35.1159C33.2403 34.9916 33.3837 34.8632 33.5233 34.7348C33.5666 34.6953 33.5694 34.6286 33.5298 34.585C33.4901 34.5422 33.4229 34.5389 33.3797 34.5792C33.2416 34.706 33.0997 34.8319 32.958 34.9554C32.9137 34.9933 32.9089 35.0608 32.9474 35.1052C32.9683 35.1291 32.9979 35.1415 33.0276 35.1415ZM7.41286 35.5126C7.44331 35.5126 7.47377 35.4994 7.49435 35.4731C7.53222 35.4278 7.52481 35.3611 7.47953 35.3241C7.33465 35.2056 7.18977 35.0829 7.04818 34.9602C7.00373 34.9224 6.93622 34.9265 6.89836 34.971C6.85966 35.0154 6.8646 35.0829 6.90906 35.1208C7.05147 35.2451 7.19882 35.3686 7.34535 35.4887C7.36511 35.5044 7.38898 35.5126 7.41286 35.5126ZM32.1486 35.8616C32.1712 35.8616 32.194 35.8542 32.2134 35.8394C32.363 35.7233 32.5135 35.604 32.6606 35.4838C32.7061 35.4467 32.7127 35.3792 32.6755 35.334C32.6385 35.2887 32.5715 35.2821 32.5261 35.3191C32.3805 35.4385 32.2316 35.557 32.0836 35.6715C32.0371 35.7069 32.0286 35.7735 32.0645 35.8205C32.0854 35.8468 32.1167 35.8616 32.1486 35.8616ZM8.31093 36.2059C8.34386 36.2059 8.37596 36.191 8.39654 36.1622C8.43111 36.1145 8.42124 36.0486 8.37349 36.0141C8.22202 35.9037 8.07055 35.7901 7.92155 35.6757C7.87546 35.6395 7.80878 35.6477 7.77256 35.6947C7.73716 35.7408 7.74539 35.8074 7.79231 35.8437C7.94213 35.9597 8.09607 36.075 8.24837 36.1853C8.2673 36.1993 8.28952 36.2059 8.31093 36.2059ZM31.2289 36.5301C31.2496 36.5301 31.2704 36.5244 31.2888 36.512C31.4439 36.4058 31.601 36.2947 31.7557 36.1819C31.8032 36.1473 31.8136 36.0815 31.7791 36.0337C31.7446 35.986 31.6784 35.9761 31.6308 36.0107C31.4777 36.1218 31.3222 36.2313 31.1688 36.3367C31.1204 36.3696 31.108 36.4363 31.1412 36.484C31.1617 36.5145 31.195 36.5301 31.2289 36.5301ZM9.24702 36.8472C9.2816 36.8472 9.31617 36.8299 9.33675 36.7978C9.36803 36.7484 9.35404 36.6834 9.30465 36.6513C9.14824 36.5509 8.99018 36.4455 8.8346 36.3393C8.78603 36.3064 8.72018 36.3187 8.68725 36.3673C8.6535 36.415 8.66585 36.4817 8.71441 36.5147C8.87164 36.6217 9.03135 36.7279 9.1894 36.8299C9.20751 36.8415 9.22727 36.8472 9.24702 36.8472ZM30.2727 37.146C30.2914 37.146 30.3104 37.1411 30.3275 37.1312C30.489 37.0332 30.6523 36.932 30.8126 36.8283C30.862 36.797 30.8763 36.7311 30.8446 36.6817C30.8128 36.6323 30.7471 36.6183 30.6978 36.6496C30.5391 36.7517 30.3776 36.853 30.2177 36.9493C30.1675 36.9797 30.1514 37.0448 30.1817 37.095C30.2017 37.1279 30.2368 37.146 30.2727 37.146ZM10.2175 37.4332C10.2545 37.4332 10.2908 37.4134 10.3097 37.3788C10.3385 37.3278 10.3212 37.2628 10.2702 37.2339C10.1072 37.1426 9.9442 37.0463 9.78285 36.9499C9.73264 36.9195 9.6676 36.9351 9.63715 36.9853C9.60669 37.0356 9.62315 37.1014 9.67337 37.1319C9.83554 37.2298 10.001 37.3261 10.1656 37.4192C10.1821 37.4282 10.2002 37.4332 10.2175 37.4332ZM29.2824 37.7065C29.2992 37.7065 29.3161 37.7024 29.3319 37.6942C29.499 37.6061 29.6679 37.5139 29.8339 37.4201C29.8849 37.3913 29.9029 37.3262 29.8741 37.2752C29.8451 37.2241 29.7804 37.206 29.7294 37.2348C29.5651 37.3279 29.398 37.4192 29.2327 37.5065C29.1809 37.5337 29.161 37.5979 29.1884 37.6497C29.2074 37.686 29.2443 37.7065 29.2824 37.7065ZM11.2193 37.9625C11.2588 37.9625 11.2959 37.9411 11.3148 37.9033C11.3403 37.8506 11.3189 37.7872 11.2662 37.7608C11.0983 37.6785 10.9296 37.5921 10.7641 37.5048C10.7122 37.4777 10.648 37.4974 10.6209 37.5493C10.5937 37.6012 10.6134 37.6654 10.6653 37.6925C10.8316 37.7806 11.0028 37.8679 11.1724 37.9518C11.188 37.9592 11.2037 37.9625 11.2193 37.9625ZM28.2609 38.2096C28.2757 38.2096 28.2907 38.2063 28.305 38.1997C28.4772 38.1215 28.6513 38.0383 28.8222 37.9544C28.8748 37.9289 28.8964 37.8647 28.8706 37.812C28.8447 37.7593 28.781 37.7379 28.7284 37.7642C28.5593 37.8474 28.3872 37.9289 28.2167 38.0071C28.1634 38.0309 28.1399 38.0943 28.1643 38.147C28.1821 38.1865 28.2206 38.2096 28.2609 38.2096ZM12.2494 38.4343C12.2914 38.4343 12.33 38.4096 12.3473 38.3692C12.3704 38.3149 12.3449 38.2523 12.2914 38.2301C12.121 38.1577 11.9473 38.0819 11.7752 38.0029C11.7225 37.979 11.6591 38.0021 11.6353 38.0556C11.6106 38.1091 11.6336 38.1717 11.6871 38.1964C11.8608 38.2754 12.0362 38.3528 12.2082 38.4252C12.2222 38.431 12.2362 38.4343 12.2494 38.4343ZM27.2118 38.6524C27.2246 38.6524 27.2376 38.6507 27.2503 38.6458C27.4271 38.5766 27.6056 38.5042 27.7809 38.4301C27.835 38.4071 27.8603 38.3453 27.8374 38.291C27.8146 38.2366 27.7522 38.212 27.6983 38.2342C27.5248 38.3083 27.3482 38.3799 27.1732 38.4474C27.1186 38.4688 27.0915 38.5305 27.1128 38.5849C27.1291 38.6268 27.1693 38.6524 27.2118 38.6524ZM13.3062 38.8459C13.3498 38.8459 13.3909 38.8187 13.4058 38.7751C13.4255 38.7199 13.3967 38.6598 13.3415 38.6401C13.1662 38.5767 12.9884 38.5108 12.8122 38.4425C12.7579 38.4211 12.6962 38.4474 12.6748 38.5026C12.6534 38.5569 12.6805 38.6187 12.7357 38.6401C12.9127 38.7092 13.0929 38.7767 13.2699 38.8401C13.2823 38.8442 13.2938 38.8459 13.3062 38.8459ZM26.1382 39.0352C26.149 39.0352 26.1601 39.0335 26.1709 39.0302C26.3518 38.9718 26.5343 38.9092 26.7135 38.8458C26.7687 38.8261 26.7976 38.7652 26.7779 38.71C26.7582 38.6549 26.6975 38.6261 26.6421 38.6458C26.4649 38.7084 26.2844 38.7701 26.1055 38.8277C26.0497 38.8458 26.0191 38.9059 26.0372 38.9619C26.0517 39.0064 26.0934 39.0352 26.1382 39.0352ZM14.3866 39.1975C14.4326 39.1975 14.4749 39.167 14.4885 39.1209C14.505 39.0649 14.4727 39.0057 14.4165 38.9892C14.2364 38.9365 14.0546 38.8805 13.8768 38.8221C13.8208 38.804 13.7608 38.8344 13.7426 38.8904C13.7245 38.9464 13.755 39.0065 13.811 39.0246C13.9912 39.083 14.1747 39.1398 14.3567 39.1933C14.3666 39.1958 14.3768 39.1975 14.3866 39.1975ZM25.0479 39.3544C25.0568 39.3544 25.0657 39.3528 25.0748 39.3503C25.2585 39.3026 25.4437 39.2515 25.6252 39.198C25.6814 39.1816 25.7138 39.1223 25.6972 39.0663C25.6808 39.0103 25.6219 38.9782 25.5655 38.9947C25.386 39.0466 25.2028 39.0976 25.021 39.1454C24.9643 39.1602 24.9303 39.2178 24.9452 39.2746C24.9576 39.3223 25.0007 39.3544 25.0479 39.3544ZM15.4853 39.4856C15.5336 39.4856 15.5773 39.4527 15.5886 39.4033C15.602 39.3465 15.5663 39.2897 15.5092 39.2765C15.3276 39.2337 15.143 39.1885 14.9608 39.1407C14.904 39.1259 14.8459 39.1596 14.831 39.2164C14.8161 39.2733 14.8501 39.3309 14.9068 39.3465C15.0911 39.3943 15.2776 39.4404 15.4612 39.4832C15.4693 39.4848 15.4773 39.4856 15.4853 39.4856ZM23.9411 39.6097L23.9622 39.608C24.1482 39.5702 24.336 39.5298 24.5204 39.487C24.5775 39.4739 24.6131 39.4171 24.5999 39.3594C24.5867 39.3026 24.5295 39.2672 24.4725 39.2804C24.2902 39.3224 24.1043 39.3627 23.9203 39.3998C23.8627 39.4113 23.8255 39.4673 23.837 39.5249C23.8472 39.5751 23.8915 39.6097 23.9411 39.6097ZM16.5989 39.7101C16.6496 39.7101 16.6945 39.6739 16.7034 39.622C16.7133 39.5644 16.6745 39.5092 16.6167 39.4994C16.4331 39.4681 16.2462 39.4335 16.0614 39.3956C16.0039 39.3841 15.9479 39.4211 15.9363 39.4788C15.9247 39.5364 15.9619 39.5924 16.0193 39.6039C16.2062 39.6418 16.395 39.6772 16.5808 39.7093L16.5989 39.7101ZM22.8216 39.8015L22.8366 39.8007C23.0239 39.7743 23.2137 39.7439 23.4008 39.7126C23.4586 39.7027 23.4975 39.6475 23.4876 39.5899C23.4776 39.5315 23.4225 39.4928 23.3649 39.5027C23.1799 39.5348 22.992 39.5644 22.8067 39.5899C22.7487 39.5982 22.7083 39.6525 22.7165 39.7101C22.7241 39.7636 22.7695 39.8015 22.8216 39.8015ZM17.7235 39.8716C17.7767 39.8716 17.8227 39.8313 17.8288 39.777C17.8354 39.7193 17.7936 39.6666 17.7353 39.6601C17.5493 39.6387 17.3608 39.6148 17.175 39.5876C17.1171 39.5794 17.0631 39.6197 17.0548 39.6782C17.0465 39.7358 17.0868 39.7901 17.1449 39.7984C17.3327 39.8247 17.5233 39.8494 17.7113 39.8708L17.7235 39.8716ZM21.6927 39.9293H21.7018C21.8903 39.9128 22.0814 39.8939 22.27 39.8733C22.3283 39.8667 22.3702 39.814 22.3637 39.7556C22.357 39.6971 22.3042 39.6551 22.2462 39.6617C22.0596 39.6831 21.8705 39.7012 21.6839 39.7177C21.6255 39.7226 21.5821 39.7737 21.587 39.8321C21.5917 39.8873 21.6381 39.9293 21.6927 39.9293ZM18.855 39.9679C18.9108 39.9679 18.9578 39.9243 18.9609 39.8675C18.9642 39.809 18.9194 39.7588 18.8609 39.7555C18.6739 39.7448 18.4843 39.7317 18.2973 39.716C18.2387 39.7103 18.1875 39.7539 18.1825 39.8123C18.1775 39.8708 18.2208 39.9226 18.2793 39.9276C18.4683 39.9432 18.6599 39.9572 18.8489 39.9679H18.855ZM20.5586 39.9926H20.5616C20.7507 39.9877 20.9427 39.9795 21.132 39.9687C21.1906 39.9655 21.2354 39.9152 21.2321 39.8568C21.2289 39.7983 21.179 39.7555 21.1203 39.7564C20.9328 39.7671 20.7429 39.7753 20.5556 39.7802C20.497 39.7819 20.4508 39.8305 20.4524 39.8897C20.454 39.9473 20.5013 39.9926 20.5586 39.9926ZM19.9906 40C20.0492 40 20.0968 39.9523 20.0968 39.8938C20.0968 39.8354 20.0492 39.7876 19.9906 39.7876C19.8041 39.7876 19.614 39.7851 19.4256 39.7794C19.3669 39.7744 19.3181 39.8238 19.3164 39.8831C19.3147 39.9416 19.3609 39.9901 19.4195 39.9918C19.61 39.9975 19.8021 40 19.9906 40Z" fill="#FBB03B"/>
</svg>
