<svg width="40" height="40" viewBox="0 0 40 40" fill="none" xmlns="http://www.w3.org/2000/svg">
<path d="M0 20C0 8.95431 8.95431 0 20 0C31.0457 0 40 8.95431 40 20C40 31.0457 31.0457 40 20 40C8.95431 40 0 31.0457 0 20Z" fill="#FFF1DE"/>
<path d="M19.7666 19.9724C19.7666 19.5912 20.0756 19.2822 20.4568 19.2822C20.838 19.2822 21.147 19.5912 21.147 19.9724V32.682C21.147 33.0632 20.838 33.3722 20.4568 33.3722C20.0756 33.3722 19.7666 33.0632 19.7666 32.682V19.9724Z" fill="#49569E"/>
<path d="M15.8033 10.8986C15.9044 9.82247 16.8077 9 17.8886 9L23.073 9C24.1538 9 25.0572 9.82247 25.1583 10.8986L25.8826 18.61C25.998 19.8387 25.0314 20.9003 23.7973 20.9003H17.1642C15.9301 20.9003 14.9635 19.8387 15.0789 18.61L15.8033 10.8986Z" fill="#645FB9"/>
<path fill-rule="evenodd" clip-rule="evenodd" d="M23.0132 10.7835L24.0663 17.9612C24.2494 19.2098 23.6009 20.3564 22.5786 20.9003H23.7971C25.0312 20.9003 25.9978 19.8387 25.8824 18.61L25.1581 10.8986C25.057 9.82247 24.1536 9 23.0728 9H22.011C22.5384 9.43773 22.9075 10.0635 23.0132 10.7835Z" fill="#49569E"/>
<path fill-rule="evenodd" clip-rule="evenodd" d="M13.2875 23.0138C13.1469 22.8409 13.0311 22.5654 13.0311 22.0905L13.0311 20.3292C13.0311 20.0138 12.7754 19.758 12.4599 19.758C12.1444 19.758 11.8887 20.0138 11.8887 20.3292L11.8887 22.0905C11.8887 22.758 12.0555 23.3096 12.4013 23.7347C12.7433 24.1552 13.2091 24.3884 13.6877 24.5212C14.1623 24.6528 14.6872 24.696 15.1956 24.7098C15.5289 24.7189 15.8824 24.7153 16.2216 24.712C16.393 24.7102 16.5607 24.7086 16.7202 24.7086C17.0357 24.7086 17.2914 24.4528 17.2914 24.1373C17.2914 23.8219 17.0357 23.5661 16.7202 23.5661C16.5353 23.5661 16.3553 23.568 16.1785 23.5698C15.854 23.5731 15.5403 23.5763 15.2266 23.5678C14.7488 23.5549 14.3335 23.5147 13.993 23.4203C13.6564 23.3269 13.432 23.1913 13.2875 23.0138Z" fill="#49569E"/>
<path d="M13.0554 20.545C13.0554 19.4006 12.1277 18.4729 10.9833 18.4729H10.4283C9.72103 18.4729 9.12031 18.9906 9.0159 19.6901C8.88708 20.5532 9.55566 21.329 10.4283 21.329H13.0554V20.545Z" fill="#FFB0A8"/>
<path fill-rule="evenodd" clip-rule="evenodd" d="M27.6739 23.2037C27.8145 23.0308 27.9303 22.7554 27.9303 22.2804L27.9303 20.5192C27.9303 20.2037 28.1861 19.948 28.5015 19.948C28.817 19.948 29.0728 20.2037 29.0728 20.5192L29.0728 22.2804C29.0728 22.9479 28.9059 23.4996 28.5601 23.9246C28.2181 24.3451 27.7523 24.5784 27.2738 24.7111C26.7991 24.8428 26.2743 24.886 25.7658 24.8998C25.4326 24.9088 25.079 24.9053 24.7398 24.9019C24.5684 24.9002 24.4008 24.8985 24.2412 24.8985C23.9257 24.8985 23.67 24.6428 23.67 24.3273C23.67 24.0118 23.9257 23.7561 24.2412 23.7561C24.4261 23.7561 24.6061 23.7579 24.7829 23.7597C25.1074 23.7631 25.4211 23.7663 25.7348 23.7578C26.2126 23.7448 26.6279 23.7047 26.9684 23.6102C27.305 23.5169 27.5295 23.3813 27.6739 23.2037Z" fill="#49569E"/>
<path d="M27.906 20.7349C27.906 19.5905 28.8337 18.6628 29.9781 18.6628H30.5331C31.2404 18.6628 31.8411 19.1806 31.9455 19.8801C32.0743 20.7432 31.4058 21.5189 30.5331 21.5189H27.906V20.7349Z" fill="#FFB0A8"/>
<path d="M13.7611 25.3463C14.0712 25.9486 14.6918 26.3271 15.3693 26.3271H25.5928C26.2702 26.3271 26.8909 25.9486 27.201 25.3463L27.5612 24.6467C27.8711 24.0448 27.4341 23.3283 26.7571 23.3283H14.2049C13.5279 23.3283 13.0909 24.0448 13.4008 24.6467L13.7611 25.3463Z" fill="#645FB9"/>
<path fill-rule="evenodd" clip-rule="evenodd" d="M16.501 31.5125C16.2094 31.7997 16.0541 32.2273 16.0541 32.8004C16.0541 33.1159 15.7983 33.3716 15.4828 33.3716C15.1674 33.3716 14.9116 33.1159 14.9116 32.8004C14.9116 32.0272 15.1243 31.2648 15.6994 30.6985C16.2739 30.1328 17.1224 29.8491 18.2135 29.8491H22.7488C23.9614 29.8491 24.8561 30.1226 25.441 30.6985C26.0296 31.2781 26.1932 32.0543 26.1932 32.8004C26.1932 33.1159 25.9374 33.3716 25.6219 33.3716C25.3065 33.3716 25.0507 33.1159 25.0507 32.8004C25.0507 32.2002 24.9175 31.7864 24.6394 31.5125C24.3575 31.235 23.8157 30.9916 22.7488 30.9916H18.2135C17.31 30.9916 16.7932 31.2248 16.501 31.5125Z" fill="#49569E"/>
<path fill-rule="evenodd" clip-rule="evenodd" d="M23.6917 26.3268H25.5921C26.2695 26.3268 26.8902 25.9482 27.2003 25.346L27.5605 24.6463C27.8704 24.0444 27.4334 23.3279 26.7564 23.3279H24.7218C24.8847 23.7244 24.8977 24.1873 24.7046 24.6273L24.2647 25.6294C24.1387 25.9166 23.938 26.1551 23.6917 26.3268Z" fill="#49569E"/>
</svg>
