<svg width="40" height="40" viewBox="0 0 40 40" fill="none" xmlns="http://www.w3.org/2000/svg">
<path d="M0 20C0 8.95431 8.95431 0 20 0V0C31.0457 0 40 8.95431 40 20V20C40 31.0457 31.0457 40 20 40V40C8.95431 40 0 31.0457 0 20V20Z"/>
<path fill-rule="evenodd" clip-rule="evenodd" d="M28.2451 31.1861C28.2451 32.0726 27.5264 32.7913 26.6399 32.7913L26.5509 32.7913C26.2035 32.7913 25.8654 32.6785 25.5875 32.47L25.0864 32.094C24.615 31.7403 23.9877 31.6733 23.4523 31.9196L22.3062 32.4466C21.8358 32.6629 21.29 32.6391 20.8403 32.3827L20.1072 31.9646C19.6226 31.6883 19.0294 31.6833 18.5403 31.9515L17.7959 32.3597C17.3068 32.6278 16.7135 32.6229 16.229 32.3466L15.591 31.9828C15.0893 31.6967 14.4726 31.7021 13.976 31.9971L13.0181 32.5661C12.77 32.7135 12.4868 32.7913 12.1983 32.7913L12.0148 32.7913C11.1283 32.7913 10.4096 32.0726 10.4096 31.1861L10.4096 22.1896C11.4368 21.9249 12.1932 21.0223 12.1932 19.9497C12.1932 18.8771 11.4368 17.9746 10.4096 17.7098L10.4096 9.60514C10.4096 8.71862 11.1283 7.99995 12.0148 7.99995L26.6399 7.99995C27.5265 7.99995 28.2451 8.71862 28.2451 9.60514L28.2451 17.763C27.3099 18.0813 26.6399 18.9402 26.6399 19.9497C26.6399 20.9593 27.3099 21.8181 28.2451 22.1364L28.2451 31.1861Z" fill="#FEC192"/>
<mask id="mask0" mask-type="alpha" maskUnits="userSpaceOnUse" x="10" y="8" width="19" height="26">
<path fill-rule="evenodd" clip-rule="evenodd" d="M28.4155 31.4693C28.4155 32.3558 27.6969 33.0745 26.8103 33.0745L26.7213 33.0745C26.3739 33.0745 26.0359 32.9617 25.758 32.7532L25.2568 32.3772C24.7854 32.0235 24.1581 31.9565 23.6227 32.2028L22.4766 32.7298C22.0062 32.9461 21.4604 32.9223 21.0107 32.6659L20.2776 32.2478C19.793 31.9715 19.1998 31.9665 18.7107 32.2347L17.9663 32.6429C17.4772 32.9111 16.8839 32.9061 16.3994 32.6298L15.7614 32.266C15.2597 31.9799 14.643 31.9853 14.1464 32.2803L13.1885 32.8493C12.9404 32.9967 12.6572 33.0745 12.3687 33.0745L12.1852 33.0745C11.2987 33.0745 10.58 32.3558 10.58 31.4693L10.5801 22.4728C11.6072 22.2081 12.3636 21.3056 12.3636 20.2329C12.3636 19.1603 11.6072 18.2578 10.5801 17.993L10.58 9.88834C10.58 9.00181 11.2987 8.28315 12.1852 8.28315L26.8103 8.28315C27.6969 8.28315 28.4155 9.00182 28.4155 9.88834L28.4155 18.0462C27.4803 18.3645 26.8103 19.2234 26.8103 20.2329C26.8103 21.2425 27.4803 22.1013 28.4155 22.4196L28.4155 31.4693Z" fill="#FFB277"/>
</mask>
<g mask="url(#mask0)">
<path d="M7.40479 30.4719C7.40479 28.1079 9.32124 26.1914 11.6853 26.1914C14.0494 26.1914 15.9658 28.1079 15.9658 30.4719C15.9658 32.836 14.0494 34.7524 11.6853 34.7524C9.32124 34.7524 7.40479 32.836 7.40479 30.4719Z" fill="#FFB882"/>
<path d="M7.40479 10.1394C7.40479 7.77534 9.32124 5.85889 11.6853 5.85889C14.0494 5.85889 15.9658 7.77534 15.9658 10.1394C15.9658 12.5035 14.0494 14.4199 11.6853 14.4199C9.32124 14.4199 7.40479 12.5035 7.40479 10.1394Z" fill="#FFB882"/>
<path d="M22.2085 10.1394C22.2085 7.77534 24.125 5.85889 26.489 5.85889C28.8531 5.85889 30.7695 7.77534 30.7695 10.1394C30.7695 12.5035 28.8531 14.4199 26.489 14.4199C24.125 14.4199 22.2085 12.5035 22.2085 10.1394Z" fill="#FFB882"/>
<path d="M22.2085 30.8293C22.2085 28.4653 24.125 26.5488 26.489 26.5488C28.8531 26.5488 30.7695 28.4653 30.7695 30.8293C30.7695 33.1934 28.8531 35.1099 26.489 35.1099C24.125 35.1099 22.2085 33.1934 22.2085 30.8293Z" fill="#FFB882"/>
</g>
<path d="M23.9042 20.186C24.1505 20.186 24.3501 19.9864 24.3501 19.7401V19.7401C24.3501 19.4939 24.1505 19.2943 23.9042 19.2943L14.8081 19.2943C14.5619 19.2943 14.3622 19.4939 14.3622 19.7401V19.7401C14.3622 19.9864 14.5619 20.186 14.8081 20.186L23.9042 20.186Z" fill="#49569E"/>
<path d="M20.1591 17.6895C20.4053 17.6895 20.605 17.4898 20.605 17.2436V17.2436C20.605 16.9973 20.4053 16.7977 20.1591 16.7977L14.8085 16.7977C14.5622 16.7977 14.3626 16.9973 14.3626 17.2436V17.2436C14.3626 17.4898 14.5622 17.6895 14.8085 17.6895L20.1591 17.6895Z" fill="#49569E"/>
<path d="M22.8344 15.3706C23.0806 15.3706 23.2803 15.171 23.2803 14.9247V14.9247C23.2803 14.6785 23.0806 14.4788 22.8344 14.4788L14.8084 14.4788C14.5622 14.4788 14.3625 14.6785 14.3625 14.9247V14.9247C14.3625 15.171 14.5622 15.3706 14.8084 15.3706L22.8344 15.3706Z" fill="#49569E"/>
<path d="M33.4466 23.7361C31.5929 26.561 27.8314 27.3689 25.045 25.5405C22.2586 23.7122 21.5024 19.9399 23.3561 17.115C25.2097 14.2901 28.9712 13.4822 31.7576 15.3105C34.5441 17.1389 35.3002 20.9112 33.4466 23.7361Z" fill="#6FB627"/>
<path fill-rule="evenodd" clip-rule="evenodd" d="M25.3501 25.0755C27.8737 26.7315 31.2925 26.0051 32.9816 23.431C34.6707 20.8568 33.9761 17.4315 31.4525 15.7755C28.9289 14.1196 25.5102 14.846 23.8211 17.4201C22.132 19.9943 22.8265 23.4196 25.3501 25.0755ZM25.045 25.5405C27.8314 27.3689 31.5929 26.561 33.4466 23.7361C35.3002 20.9112 34.5441 17.1389 31.7576 15.3105C28.9712 13.4822 25.2097 14.2901 23.3561 17.115C21.5024 19.9399 22.2586 23.7122 25.045 25.5405Z" fill="white"/>
<path fill-rule="evenodd" clip-rule="evenodd" d="M27.5292 25.7223C29.5652 26.041 31.7065 25.1621 32.924 23.3066C34.5758 20.7894 33.902 17.4281 31.4191 15.7989C30.3018 15.0658 29.0087 14.8084 27.7736 14.9763C28.4997 15.0899 29.2124 15.3559 29.865 15.7841C32.3479 17.4133 33.0217 20.7746 31.37 23.2918C30.4615 24.6763 29.0388 25.5171 27.5292 25.7223Z" fill="#579718"/>
<path fill-rule="evenodd" clip-rule="evenodd" d="M31.1199 19.1045C30.965 18.9339 30.7012 18.9213 30.5307 19.0762L27.8107 21.5468L26.6967 20.3871C26.5371 20.2209 26.273 20.2156 26.1069 20.3752C25.9407 20.5348 25.9354 20.7988 26.095 20.965L27.4901 22.4173C27.6466 22.5802 27.9042 22.589 28.0714 22.4371L31.0916 19.6937C31.2621 19.5388 31.2748 19.275 31.1199 19.1045Z" fill="white"/>
</svg>
