<svg width="40" height="40" viewBox="0 0 40 40" fill="none" xmlns="http://www.w3.org/2000/svg">
<path d="M0 20C0 8.95431 8.95431 0 20 0V0C31.0457 0 40 8.95431 40 20V20C40 31.0457 31.0457 40 20 40V40C8.95431 40 0 31.0457 0 20V20Z" fill="#FFF1DE"/>
<path d="M30.0591 23.4053C27.0981 27.9177 21.0897 29.2081 16.6389 26.2876C12.188 23.3671 10.9801 17.3415 13.941 12.8291C16.902 8.31671 22.9104 7.02625 27.3612 9.94678C31.8121 12.8673 33.02 18.8929 30.0591 23.4053Z" fill="#FD5F61"/>
<path fill-rule="evenodd" clip-rule="evenodd" d="M21.4691 26.9121C24.8627 27.3877 28.4057 25.9024 30.4323 22.8139C33.22 18.5655 32.0828 12.8925 27.8923 10.1428C25.9981 8.8999 23.8043 8.46707 21.7112 8.75834C22.9856 8.93697 24.239 9.39215 25.383 10.1428C29.5735 12.8925 30.7106 18.5655 27.923 22.8139C26.3954 25.1419 24.0063 26.559 21.4691 26.9121Z" fill="#D75456"/>
<path fill-rule="evenodd" clip-rule="evenodd" d="M12.9705 21.6846C12.0779 19.3364 12.1607 16.7391 13.1343 14.4565L23.1783 27.7647C20.4015 28.1144 17.5522 27.2644 15.44 25.3249L10.6539 28.7999C9.67146 29.5133 8.29676 29.2951 7.58343 28.3127C6.87009 27.3302 7.08826 25.9555 8.0707 25.2422L12.9705 21.6846Z" fill="#FDC091"/>
<path d="M31.0002 27C31.0002 29.2091 29.2094 31 27.0002 31C24.7911 31 23.0002 29.2091 23.0002 27C23.0002 24.7909 24.7911 23 27.0002 23C29.2094 23 31.0002 24.7909 31.0002 27Z" fill="#FFCFCA"/>
<path fill-rule="evenodd" clip-rule="evenodd" d="M26.6902 30.9811C28.1295 31.1828 29.6323 30.5528 30.4918 29.2428C31.6742 27.4409 31.1919 25.0346 29.4145 23.8684C28.6111 23.3412 27.6806 23.1576 26.7929 23.2811C27.3334 23.3569 27.8651 23.55 28.3504 23.8684C30.1277 25.0346 30.6101 27.4409 29.4277 29.2428C28.7798 30.2302 27.7664 30.8313 26.6902 30.9811Z" fill="#FFB0A8"/>
</svg>
