<svg width="40" height="40" viewBox="0 0 40 40" fill="none" xmlns="http://www.w3.org/2000/svg">
<path d="M0 20C0 8.95431 8.95431 0 20 0V0C31.0457 0 40 8.95431 40 20V20C40 31.0457 31.0457 40 20 40V40C8.95431 40 0 31.0457 0 20V20Z" fill="#FFF1DE"/>
<path d="M21.7874 20.5198C22.1615 20.5198 22.4648 20.8231 22.4648 21.1973L22.4648 29.327C22.4648 29.7011 22.1615 30.0045 21.7874 30.0045L9.67745 30.0045C9.30329 30.0045 8.99998 29.7011 8.99998 29.327L8.99998 21.1973C8.99998 20.8231 9.30329 20.5198 9.67745 20.5198L21.7874 20.5198Z" fill="#645FB9"/>
<path d="M18.4844 17.2166C18.8585 17.2166 19.1619 17.5199 19.1619 17.894L19.1619 18.6562C19.1619 19.0304 18.8585 19.3337 18.4844 19.3337L13.9961 19.3337C13.6219 19.3337 13.3186 19.0304 13.3186 18.6562L13.3186 17.894C13.3186 17.5199 13.6219 17.2166 13.9961 17.2166L18.4844 17.2166Z" fill="#49569E"/>
<path d="M13.5728 20.5198L13.5728 30.0045L12.3025 30.0045L12.3025 20.5198L13.5728 20.5198Z" fill="#49569E"/>
<path d="M15.2671 19.3337L15.2671 20.5193L14.3356 20.5193L14.3356 19.3337L15.2671 19.3337Z" fill="#CCCCCC"/>
<path d="M23.3965 7.81714L23.3965 14.5072L22.465 14.5072L22.465 7.81714L23.3965 7.81714Z" fill="#CCCCCC"/>
<path d="M28.5627 7.81714L22.4654 7.81714V7.81714C22.4654 7.30267 22.8825 6.88561 23.397 6.88561L27.6312 6.88561C28.1457 6.88561 28.5627 7.30267 28.5627 7.81714V7.81714Z" fill="#CCCCCC"/>
<path d="M26.4453 7.05493C26.8195 7.05493 27.1228 7.35825 27.1228 7.73241L27.1228 7.81709L23.9895 7.81709L23.9895 7.73241C23.9895 7.35825 24.2928 7.05493 24.6669 7.05493L26.4453 7.05493Z" fill="#E39354"/>
<path d="M24.6665 7.64746C24.2923 7.64746 23.989 7.34414 23.989 6.96998L23.989 6.8853L27.1223 6.8853L27.1223 6.96998C27.1223 7.34414 26.819 7.64746 26.4449 7.64746L24.6665 7.64746Z" fill="#E39354"/>
<path d="M18.3999 19.3337L18.3999 20.5193L17.4684 20.5193L17.4684 19.3337L18.3999 19.3337Z" fill="#CCCCCC"/>
<path d="M28.5627 7.81714L28.5627 14.5072L27.6312 14.5072L27.6312 7.81714L28.5627 7.81714Z" fill="#CCCCCC"/>
<path d="M20.686 30.0042L20.686 30.7663L19.6698 30.7663L19.6698 30.0042L20.686 30.0042Z" fill="#49569E"/>
<path d="M11.2866 30.0042L11.2866 30.7663L10.2704 30.7663L10.2704 30.0042L11.2866 30.0042Z" fill="#49569E"/>
<path d="M23.9048 30.0042L23.9048 30.7663L22.8886 30.7663L22.8886 30.0042L23.9048 30.0042Z" fill="#E39354"/>
<path d="M27.6306 30.0042L27.6306 30.7663L26.6144 30.7663L26.6144 30.0042L27.6306 30.0042Z" fill="#E39354"/>
<path d="M20.9402 20.5198L20.9402 30.0045L17.2987 30.0045L17.2987 20.5198L20.9402 20.5198Z" fill="#49569E"/>
<path d="M28.9007 14.5071C29.7426 14.5071 30.425 15.1895 30.425 16.0314L30.425 28.4801C30.425 29.3219 29.7426 30.0044 28.9007 30.0044L21.7025 30.0044C20.8607 30.0044 20.1782 29.3219 20.1782 28.4801L20.1782 16.0314C20.1782 15.1895 20.8607 14.5071 21.7025 14.5071L28.9007 14.5071Z" fill="#FDC091"/>
<path fill-rule="evenodd" clip-rule="evenodd" d="M28.8662 30.0044H28.9007C29.7426 30.0044 30.4251 29.3219 30.4251 28.4801L30.4251 16.0314C30.4251 15.1895 29.7426 14.5071 28.9007 14.5071L28.7524 14.5071C28.9516 14.7647 29.0701 15.0878 29.0701 15.4386L29.0701 29.2422C29.0701 29.5199 28.9959 29.7802 28.8662 30.0044Z" fill="#EDAE7D"/>
<path d="M22.9307 16.624C23.188 16.624 23.3965 16.8326 23.3965 17.0898L23.3965 27.0826C23.3965 27.3398 23.188 27.5483 22.9307 27.5483V27.5483C22.6735 27.5483 22.465 27.3398 22.465 27.0826L22.465 17.0898C22.465 16.8326 22.6735 16.624 22.9307 16.624V16.624Z" fill="#F0B180"/>
<path d="M27.5887 16.624C27.8459 16.624 28.0544 16.8326 28.0544 17.0898L28.0544 27.0826C28.0544 27.3398 27.8459 27.5483 27.5887 27.5483V27.5483C27.3314 27.5483 27.1229 27.3398 27.1229 27.0826L27.1229 17.0898C27.1229 16.8326 27.3314 16.624 27.5887 16.624V16.624Z" fill="#F0B180"/>
<path d="M25.471 16.624C25.7282 16.624 25.9368 16.8326 25.9368 17.0898L25.9368 20.0538C25.9368 20.311 25.7282 20.5195 25.471 20.5195V20.5195C25.2138 20.5195 25.0052 20.311 25.0052 20.0538L25.0052 17.0898C25.0052 16.8326 25.2138 16.624 25.471 16.624V16.624Z" fill="#F0B180"/>
<path d="M25.471 22.1289C25.7282 22.1289 25.9368 22.3374 25.9368 22.5947L25.9368 25.5586C25.9368 25.8159 25.7282 26.0244 25.471 26.0244V26.0244C25.2138 26.0244 25.0052 25.8159 25.0052 25.5586L25.0052 22.5947C25.0052 22.3374 25.2138 22.1289 25.471 22.1289V22.1289Z" fill="#F0B180"/>
</svg>
