<svg width="90" height="78" viewBox="0 0 90 78" fill="none" xmlns="http://www.w3.org/2000/svg">
<path d="M25 30C25 18.9543 33.9543 10 45 10V10C56.0457 10 65 18.9543 65 30V30C65 41.0457 56.0457 50 45 50V50C33.9543 50 25 41.0457 25 30V30Z" fill="#FCE3C3"/>
<g opacity="0.443816" filter="url(#filter0_d)">
<path d="M62 37.4097C62 43.2586 54.3888 48.0001 45 48.0001C35.6112 48.0001 28 43.2586 28 37.4097C28 31.5608 35.6112 26.8193 45 26.8193C54.3888 26.8193 62 31.5608 62 37.4097Z" fill="#D28E5C"/>
</g>
<path fill-rule="evenodd" clip-rule="evenodd" d="M49.9988 29.7762L48.8109 29.852C48.348 29.8815 47.9145 30.1064 47.6219 30.4688L38.7976 41.484C38.5561 41.7812 38.1993 41.962 37.7919 41.9947C37.7486 41.9983 37.7051 42 37.6616 42C37.2553 42 36.8488 41.8497 36.5531 41.5858C36.2258 41.2938 36.0195 40.8493 36.0013 40.3968C35.9848 39.9858 36.1204 39.6076 36.383 39.332L46.19 29.1895C46.5116 28.8544 46.6814 28.3943 46.655 27.928L46.5873 26.7318L46.587 26.7254C46.5565 25.8706 46.9057 25.0576 47.5454 24.4947L48.8007 23.3898C49.8934 22.4282 51.2932 21.9367 52.7435 22.0065C53.0283 22.0202 53.3025 22.1326 53.5158 22.323C53.729 22.5133 53.8728 22.774 53.9204 23.0569C54.1631 24.4975 53.8464 25.956 53.029 27.1635L52.0899 28.5505C51.6115 29.2574 50.8516 29.7038 50.0051 29.7757L49.9988 29.7762ZM38.3273 41.0992L47.1508 30.0849C47.5505 29.5899 48.1413 29.2833 48.7725 29.243L49.9571 29.1675C50.6198 29.1102 51.2144 28.7603 51.5891 28.2069L52.5282 26.8197C53.2569 25.7432 53.5391 24.4432 53.3229 23.1588C53.2982 23.0127 53.224 22.8779 53.1137 22.7796C53.0034 22.6811 52.8618 22.623 52.7147 22.6159C51.4223 22.5541 50.1738 22.9918 49.1996 23.8492L47.9443 24.9541C47.4434 25.3949 47.1696 26.0311 47.1926 26.7003L47.2603 27.8933C47.2961 28.5291 47.0647 29.1563 46.6251 29.6142L36.8189 39.7559C36.673 39.9091 36.5972 40.1285 36.6071 40.3721C36.6187 40.662 36.7489 40.945 36.9552 41.1293C37.1616 41.3135 37.4562 41.4098 37.7436 41.3866C37.9852 41.3672 38.1925 41.265 38.3273 41.0992Z" fill="black"/>
<path d="M53.588 39.2096L47.5171 33.0809C47.4028 32.9655 47.226 32.9747 47.1217 33.1013C47.0178 33.2279 47.026 33.4241 47.1402 33.5394L53.2096 39.6667C53.354 39.8146 53.4359 40.0326 53.4403 40.2804C53.4456 40.5753 53.3412 40.8703 53.161 41.07C52.981 41.2695 52.7153 41.3855 52.4487 41.3795C52.2251 41.3746 52.0284 41.2839 51.8964 41.1255L46.4867 34.5427C46.3826 34.416 46.2056 34.407 46.0914 34.5222C45.9771 34.6376 45.9689 34.8338 46.073 34.9604L51.484 41.5448C51.7218 41.8298 52.0605 41.9915 52.4377 41.9997C52.4475 41.9998 52.4572 42 52.4671 42C52.8725 42 53.278 41.8177 53.5567 41.5086C53.8423 41.192 54.008 40.7284 53.9997 40.2683C53.9923 39.8501 53.8466 39.4748 53.588 39.2096Z" fill="black"/>
<path d="M37.6842 30.0284C38.1896 30.4933 38.8462 30.7584 39.533 30.7748L40.7385 30.7787C41.2059 30.7801 41.6552 30.9783 41.9705 31.3214L42.4987 31.9004C42.559 31.9665 42.6415 32 42.7245 32C42.7979 32 42.8715 31.9738 42.93 31.9205C43.0547 31.8071 43.0638 31.6142 42.9502 31.4898L42.4212 30.91C41.9904 30.441 41.3778 30.171 40.7405 30.1688L39.5447 30.1651C39.0134 30.1516 38.5054 29.9485 38.1117 29.5926L34.6368 25.4675C34.6014 25.4253 34.604 25.3641 34.643 25.3252C34.6698 25.2983 34.7011 25.2945 34.7175 25.2945C34.7338 25.2945 34.7652 25.2983 34.7921 25.3252L37.9551 28.484C38.2678 28.7962 38.7765 28.7962 39.0892 28.4838L39.4609 28.1128L40.1209 27.4535L40.4928 27.0822C40.8055 26.77 40.8055 26.2619 40.4928 25.9496L37.3298 22.791C37.2887 22.75 37.2887 22.6832 37.3298 22.6422C37.3688 22.6032 37.43 22.6006 37.4723 22.636L41.6031 26.1062C41.9596 26.4992 42.1631 27.0066 42.1766 27.537L42.1801 28.7313C42.1823 29.3676 42.4529 29.9793 42.9231 30.4104L43.4891 30.9252C43.6139 31.0386 43.8069 31.0296 43.9205 30.9052C44.0339 30.7806 44.0249 30.5878 43.9003 30.4744L43.3352 29.9604C42.9907 29.6448 42.7924 29.196 42.7909 28.7293L42.7871 27.5319C42.7871 27.5297 42.7871 27.5276 42.787 27.5254C42.7705 26.8395 42.5051 26.1838 42.0395 25.6792C42.0308 25.6697 42.0215 25.6607 42.0115 25.6523L37.8653 22.1693C37.5787 21.9285 37.1629 21.9465 36.8981 22.2109C36.6188 22.4898 36.6188 22.9434 36.8981 23.2221L40.0611 26.3809C40.1357 26.4554 40.1357 26.5766 40.0611 26.6511L39.9052 26.8066L36.3799 23.2864C36.2608 23.1672 36.0674 23.1672 35.9482 23.2864C35.8291 23.4054 35.8291 23.5984 35.9482 23.7175L39.4735 27.2378L39.2451 27.4658L35.7198 23.9456C35.6006 23.8266 35.4073 23.8266 35.2881 23.9456C35.1687 24.0646 35.1687 24.2577 35.2881 24.3767L38.8132 27.8971L38.6575 28.0527C38.5829 28.1272 38.4615 28.1272 38.387 28.0527L35.2238 24.8941C35.0886 24.7591 34.9088 24.6846 34.7175 24.6846C34.5262 24.6846 34.3464 24.7591 34.2112 24.8941C33.9464 25.1585 33.9285 25.5738 34.1695 25.8601L37.6575 30.0004C37.6657 30.0104 37.6748 30.0197 37.6842 30.0284Z" fill="black"/>
<defs>
<filter id="filter0_d" x="0" y="0.819336" width="90" height="77.1808" filterUnits="userSpaceOnUse" color-interpolation-filters="sRGB">
<feFlood flood-opacity="0" result="BackgroundImageFix"/>
<feColorMatrix in="SourceAlpha" type="matrix" values="0 0 0 0 0 0 0 0 0 0 0 0 0 0 0 0 0 0 127 0"/>
<feOffset dy="2"/>
<feGaussianBlur stdDeviation="14"/>
<feColorMatrix type="matrix" values="0 0 0 0 0.779541 0 0 0 0 0.779541 0 0 0 0 0.779541 0 0 0 0.5 0"/>
<feBlend mode="normal" in2="BackgroundImageFix" result="effect1_dropShadow"/>
<feBlend mode="normal" in="SourceGraphic" in2="effect1_dropShadow" result="shape"/>
</filter>
</defs>
</svg>
