<svg width="60" height="60" viewBox="0 0 60 60" fill="none" xmlns="http://www.w3.org/2000/svg">
<mask id="mask0" style="mask-type:alpha" maskUnits="userSpaceOnUse" x="1" y="2" width="57" height="57">
<path fill-rule="evenodd" clip-rule="evenodd" d="M1.99163 30.0212C1.99163 45.4778 14.5211 58.0078 29.9782 58.0078C45.4354 58.0078 57.9648 45.4778 57.9648 30.0212C57.9648 14.5646 45.4354 2.0343 29.9782 2.0343C14.5211 2.0343 1.99163 14.5646 1.99163 30.0212" fill="white"/>
</mask>
<g mask="url(#mask0)">
<path fill-rule="evenodd" clip-rule="evenodd" d="M1.99163 30.0212C1.99163 45.4778 14.5211 58.0078 29.9782 58.0078C45.4354 58.0078 57.9648 45.4778 57.9648 30.0212C57.9648 14.5644 45.4354 2.03442 29.9782 2.03442C14.5211 2.03442 1.99163 14.5644 1.99163 30.0212" fill="#FCE3C3"/>
<path fill-rule="evenodd" clip-rule="evenodd" d="M8.88082 43.2227C8.88082 39.2717 12.0839 36.0688 16.034 36.0688C16.5427 36.0688 17.0379 36.1226 17.5157 36.2233C18.0912 33.3393 17.5935 29.8235 17.4515 27.6922C17.1243 22.7526 17.2836 16.3283 21.6004 12.788C24.1021 10.7366 27.9633 10.173 31.054 11.2889C34.5818 12.5627 36.7143 15.8153 37.7194 19.0796C38.364 21.1712 38.5887 23.329 39.1407 25.4052C39.5309 25.2234 39.9643 25.1211 40.4224 25.1211C41.8597 25.1211 43.0612 26.1192 43.376 27.4593C43.6872 27.42 44.0033 27.3975 44.3256 27.3975C48.456 27.3975 51.8047 30.7459 51.8047 34.8765C51.8047 35.7574 51.6504 36.6021 51.3713 37.3869C53.384 38.6011 54.7312 40.8087 54.7312 43.3311C54.7312 46.8229 52.1505 49.7111 48.7931 50.1955C48.0411 53.4052 45.1628 55.7963 41.7239 55.7963C41.5732 55.7963 41.4251 55.7902 41.2769 55.7812C40.1162 58.7099 37.2613 60.7822 33.9187 60.7822C30.8528 60.7822 28.1942 59.036 26.8817 56.4845C25.6135 57.3494 24.0811 57.8557 22.4302 57.8557C18.1504 57.8557 14.6671 54.459 14.5238 50.2154C11.2986 49.5218 8.88082 46.6553 8.88082 43.2227" fill="#602826"/>
<path fill-rule="evenodd" clip-rule="evenodd" d="M-12.2713 105.632C-11.5564 103.842 -10.8415 102.052 -10.1253 100.261C-9.43996 98.5431 -8.84108 97.0626 -7.93845 95.4438C-7.56677 94.7795 -7.06174 93.9102 -6.64315 93.2496C-4.6329 89.5551 -2.62389 85.8594 -0.614882 82.1649C0.656956 79.8262 1.92756 77.4887 3.19816 75.151C4.03412 73.6156 4.87131 72.075 5.50723 70.4471C6.29503 68.4297 6.76425 66.3036 7.19149 64.1801C8.06572 59.8211 8.78067 55.4059 10.2587 51.2129C11.3848 48.0196 12.9925 44.9219 15.4535 42.5954C19.1011 39.1462 24.2354 37.8246 29.1622 38.1591C30.013 38.2169 30.8613 38.3262 31.6997 38.4873C34.0038 38.9306 36.2314 39.7659 38.2663 40.9364C40.3729 42.1488 42.0942 43.635 43.4586 45.6554C43.8871 46.2892 44.2736 46.9502 44.6267 47.6282C45.9677 50.2016 46.8407 52.9874 47.9323 55.6762C49.8697 60.4523 52.6517 64.9722 53.5543 70.0469C54.4915 75.3165 52.2022 88.0869 52.217 95.5586C52.3664 98.3986 53.4135 102.015 53.6642 103.585C53.8581 104.821 54.0655 106.104 53.9309 107.356C53.7889 108.684 53.4358 109.969 53.1061 111.258C53.0542 111.459 53.0011 111.666 52.8789 111.836C52.6591 112.139 52.1503 112.222 51.9133 111.892C51.3971 111.177 51.6774 110.113 51.8528 109.324C52.0158 108.588 52.222 107.855 52.2627 107.1C52.3022 106.358 52.1108 105.686 51.817 105.01C51.6058 104.523 51.4144 104.029 51.1921 103.545C51.1304 103.412 51.065 103.275 50.9909 103.145C50.9637 103.095 50.9341 103.048 50.9032 102.999C50.7526 102.765 50.5649 102.561 50.3167 102.444C50.1068 102.345 49.7598 102.277 49.5425 102.391C49.3054 102.514 49.3153 102.823 49.2955 103.051C49.2696 103.323 49.3041 103.596 49.3449 103.864C49.4017 104.223 49.4844 104.595 49.4881 104.962C49.4894 105.062 49.4844 105.162 49.4708 105.26C49.4622 105.338 49.4461 105.417 49.4264 105.495C49.2041 106.321 48.0842 107.056 47.6582 105.951C47.568 105.714 47.5372 105.458 47.5013 105.207C47.3322 104.007 46.9111 102.839 46.9605 101.623C46.9926 100.847 47.1087 100.078 47.226 99.3112C47.4198 98.0344 47.9903 96.1723 48.1237 95.5586C47.3272 87.9388 46.9272 81.4672 46.4888 73.8762C46.4419 73.0726 46.3937 72.2605 46.1653 71.4888C45.8714 70.502 45.296 69.6273 44.7329 68.7658C41.2656 63.4626 37.97 58.048 34.8509 52.5329C33.7593 50.6035 32.6591 48.5428 32.7097 46.3269C29.7981 48.4428 25.7825 48.9382 22.4424 47.5937C18.2861 56.9107 16.345 67.1817 11.3614 76.0835C7.36436 83.2206 1.43982 88.8426 -3.38946 95.4438C-3.56481 95.6833 -3.48702 96.4008 -3.50307 96.7058C-3.55616 97.6936 -3.47343 98.6789 -3.59444 99.6643C-3.71792 100.66 -3.94759 101.641 -4.28222 102.586C-4.4341 103.014 -4.84652 103.407 -5.28364 103.023C-5.32315 102.999 -5.3602 102.97 -5.39601 102.93C-5.82818 102.471 -5.83066 101.841 -5.80349 101.25C-5.77262 100.577 -5.80719 99.9372 -6.10108 99.3186C-6.18134 99.1519 -6.31593 98.9951 -6.49744 98.9592C-6.60734 98.937 -6.72218 98.9642 -6.8296 99C-7.19016 99.1222 -7.46182 99.3457 -7.68161 99.6223C-7.79768 99.7668 -7.90017 99.9261 -7.99155 100.093C-8.08045 100.251 -8.15948 100.415 -8.23603 100.579C-8.33235 100.784 -8.42249 100.989 -8.51633 101.184C-8.53609 101.225 -8.55461 101.265 -8.57437 101.302C-8.59166 101.337 -8.61018 101.373 -8.6287 101.409C-8.74354 101.638 -8.85837 101.866 -8.97444 102.096C-9.18436 102.512 -9.39427 102.928 -9.60418 103.345C-9.78693 103.708 -9.97092 104.073 -10.1537 104.436C-10.4747 105.07 -10.818 105.783 -11.3922 106.232C-11.8219 106.569 -12.5072 106.224 -12.2713 105.632" fill="#FFCFCA"/>
<path fill-rule="evenodd" clip-rule="evenodd" d="M22.6138 40.4747C23.1953 40.8319 23.8979 40.912 24.5746 40.9826C25.3908 41.0692 26.2082 41.1555 27.0281 41.1223C28.626 41.058 30.0756 40.4898 31.5907 39.9816C31.5648 39.0602 31.5413 38.1385 31.5142 37.2172C31.4821 36.0649 31.4512 34.9102 31.5351 33.7601C31.5611 33.4077 31.5957 33.0558 31.6413 32.7059C31.7475 31.8334 31.9044 30.9678 32.0599 30.1002C32.1884 29.3887 32.3168 28.6752 32.4452 27.9636C32.0352 28.3609 31.6426 28.5685 31.14 28.8462C29.0199 30.0163 26.8553 31.105 24.6783 32.1652C24.0214 32.4837 23.3596 32.8036 22.6508 32.9757L22.6138 40.4747" fill="#FFCFCA"/>
<path fill-rule="evenodd" clip-rule="evenodd" d="M22.631 37.0141C25.0809 36.3852 27.4393 35.4085 29.5805 34.0732C30.2621 33.6491 30.9684 33.195 31.6413 32.7059C31.7475 31.8334 31.9044 30.9678 32.0599 30.1002C32.1884 29.3887 32.3168 28.6752 32.4452 27.9636C32.0352 28.3609 31.6426 28.5685 31.14 28.8462C29.0199 30.0163 26.8553 31.105 24.6783 32.1652C24.0214 32.4837 23.3596 32.8036 22.6508 32.9757L22.631 37.0141" fill="#F9BFBB"/>
<path fill-rule="evenodd" clip-rule="evenodd" d="M18.4426 21.5951C18.5674 21.0145 18.7242 20.4418 18.9082 19.8833C19.4885 18.1208 20.6146 16.4794 22.1495 15.3693C25.0957 13.2402 29.3199 13.6045 31.834 16.204C32.4304 16.8199 32.9194 17.5305 33.2762 18.3016C34.1542 20.1916 34.2628 22.2521 33.88 24.2514C33.5454 26.0196 32.8243 27.7407 31.918 29.2573C31.3598 30.1892 30.7066 31.0717 29.9238 31.8389C29.4755 32.278 28.9791 32.6778 28.4469 33.0211C27.3764 33.7105 26.1601 34.1704 24.8858 34.253C23.735 34.3274 22.5508 34.0612 21.558 33.4849C20.4393 32.8349 19.7416 31.8014 19.2292 30.6597C17.9685 27.8463 17.7956 24.6024 18.4426 21.5951" fill="#FFCFCA"/>
<path fill-rule="evenodd" clip-rule="evenodd" d="M31.3699 28.6652C32.4825 29.1787 33.8679 29.0548 34.8632 28.3378C35.7041 27.7328 36.235 26.7242 36.2807 25.6916C36.2881 25.5041 36.2807 25.3168 36.256 25.1282C36.2128 24.8002 36.1189 24.4766 35.9523 24.1905C35.5398 23.486 34.6779 23.0904 33.8667 23.1818C33.0542 23.274 32.3232 23.8242 31.9565 24.5543L31.3699 28.6652" fill="#FFCFCA"/>
<path fill-rule="evenodd" clip-rule="evenodd" d="M21.7101 14.3459C22.6658 17.0586 24.66 19.351 27.1024 20.8711C29.5436 22.3912 32.4095 23.1641 35.2817 23.314C35.4854 23.3247 34.8927 19.5325 34.7841 19.1686C34.2012 17.2338 32.9343 15.5129 31.2624 14.3777C31.0118 14.2075 30.7525 14.0504 30.4857 13.9079C28.8323 13.0273 26.8925 12.7108 25.0415 12.9791C24.2797 13.0897 23.5351 13.2862 22.8547 13.6442C22.7226 13.7135 21.652 14.1823 21.7101 14.3459" fill="#602826"/>
<path fill-rule="evenodd" clip-rule="evenodd" d="M17.4992 69.933C16.9608 65.6447 16.5534 61.3654 15.6853 57.1254C14.9148 53.3641 14.0331 49.3832 15.4643 45.6745C16.0669 45.0375 16.7941 44.5127 17.5449 44.0499C23.9658 40.0893 32.0266 40.4942 39.1439 42.9939C39.5242 48.883 38.7587 54.7983 38.2647 60.695C38.1166 61.5407 38.0104 62.3938 37.9116 63.2471C37.2893 68.582 36.9546 73.9418 36.5941 79.3002C36.4249 79.2767 36.252 79.2619 36.0755 79.2558C34.8715 79.215 33.6738 79.4138 32.4859 79.6138C29.4286 80.125 26.3724 80.6362 23.3163 81.1474C22.1322 81.3463 20.9418 81.5463 19.7762 81.8291C19.0921 78.7544 18.3636 75.6882 17.6375 72.6237C17.6573 71.736 17.6141 70.8419 17.4992 69.933" fill="#FFCFCA"/>
<path fill-rule="evenodd" clip-rule="evenodd" d="M7.45804 58.0556C8.436 59.2826 9.60164 60.0967 10.9389 60.6472C11.3131 60.8006 11.6514 60.9292 11.9712 61.0372C13.3048 61.4909 14.2914 61.6013 15.9423 61.7843L17.2672 75.0538C18.9601 75.5609 20.7271 75.7748 22.4892 75.8362C25.2218 75.9305 27.9865 75.7634 30.7092 75.5406C33.2196 75.3358 35.7743 74.9287 38.0414 73.7733C37.9822 70.562 38.0501 67.3484 38.2378 64.1405C38.3143 62.8009 38.4119 61.4625 38.5304 60.1252C38.5329 60.1093 38.5341 60.0934 38.5353 60.0774C38.865 60.5494 39.2021 60.911 39.4763 61.417C42.7275 59.2643 45.6144 56.7058 48.168 53.7742C48.1124 53.6422 48.0581 53.5092 48.0037 53.3739C47.6889 52.5926 47.3061 51.8672 46.8825 51.1383C45.9787 49.5758 45.0575 48.0144 44.0808 46.4952C43.8993 46.2121 43.7128 45.9323 43.5202 45.656C42.2298 43.7956 40.6888 42.1001 38.8255 40.8004C37.829 40.1056 36.7609 39.53 35.6299 39.0866C35.0446 38.857 31.7822 37.962 31.7489 38.0177C31.3513 38.6749 30.9488 38.932 30.2165 39.1582C28.4545 39.7029 26.5665 39.7507 24.7377 39.5097C23.7215 39.3754 22.3101 38.4726 22.3101 38.4726C22.3101 38.4726 19.1256 39.3824 17.4982 40.3648C16.7894 40.7913 16.1251 41.2892 15.4904 41.8192C13.5592 43.4295 12.0947 45.4229 11.0365 47.6972C9.94985 50.0306 9.25837 52.5164 8.45081 54.9534C8.11001 55.9836 7.77415 57.0174 7.45804 58.0556" fill="#150F84"/>
<path fill-rule="evenodd" clip-rule="evenodd" d="M15.2273 55.4354C15.194 54.8384 15.168 54.2392 15.2113 53.6421C15.2607 52.936 15.4076 52.2435 15.5731 51.5611C15.9423 50.0442 16.4053 48.5568 16.9585 47.1149C16.8363 47.3514 16.7004 47.5823 16.5646 47.8097C15.5903 49.462 14.6655 51.2189 14.3704 53.1804C14.1444 54.6747 14.2938 56.2338 13.9419 57.6962C13.6332 58.9709 12.9479 60.1116 12.0564 60.9586C12.028 60.9848 11.9996 61.0121 11.9712 61.0372C13.3047 61.4908 14.2913 61.6012 15.9423 61.7842C15.6027 59.5441 15.3557 57.7019 15.2273 55.4354" fill="black"/>
<path fill-rule="evenodd" clip-rule="evenodd" d="M35.9587 56.5146C36.4674 59.1256 37.0058 61.8092 38.2381 64.1404C38.3147 62.8008 38.4122 61.4624 38.5308 60.1251C37.4577 59.0801 36.3427 57.9611 35.9587 56.5146" fill="#EF5D30"/>
<path fill-rule="evenodd" clip-rule="evenodd" d="M26.6381 21.146C26.48 21.1296 26.3195 21.1424 26.1614 21.1554C25.8799 21.1781 25.5984 21.2009 25.3181 21.2237C25.2242 21.2312 25.1082 21.2265 25.0674 21.1423C25.0476 21.1007 25.0538 21.0503 25.0711 21.0076C25.1403 20.8456 25.3391 20.7905 25.5132 20.7684C25.9466 20.7136 26.4035 20.7441 26.8085 20.915C26.8875 20.9482 27.3407 21.1549 27.3086 21.261C27.2802 21.3556 26.7294 21.1554 26.6381 21.146" fill="#211A17"/>
<path fill-rule="evenodd" clip-rule="evenodd" d="M20.5072 20.9552C20.6665 20.9506 20.8246 20.9751 20.9826 20.9997C21.2605 21.043 21.5395 21.0864 21.8186 21.1297C21.9112 21.144 22.0273 21.148 22.0742 21.0669C22.0977 21.0269 22.0952 20.9762 22.0804 20.9324C22.0236 20.7657 21.8285 20.6962 21.6568 20.6612C21.2284 20.5748 20.7703 20.5716 20.3541 20.7122C20.2726 20.7397 19.8059 20.9125 19.8293 21.0207C19.8516 21.1171 20.4159 20.958 20.5072 20.9552" fill="#211A17"/>
<path fill-rule="evenodd" clip-rule="evenodd" d="M21.0061 28.348C21.3222 29.1687 21.9013 29.7335 22.6052 29.7921C23.2818 29.8478 23.9239 29.42 24.3685 28.7109C24.6735 28.2241 24.8858 27.6048 24.9525 26.9174L24.8204 26.9065L20.9049 26.5839L20.7592 26.5715C20.7147 27.2222 20.8098 27.8347 21.0061 28.348" fill="#CE7872"/>
<path fill-rule="evenodd" clip-rule="evenodd" d="M20.9048 26.5836C21.3407 27.2417 22.005 27.685 22.7804 27.7493C23.5546 27.8135 24.2832 27.484 24.8203 26.9062L20.9048 26.5836" fill="white"/>
<path fill-rule="evenodd" clip-rule="evenodd" d="M21.0064 28.3479C21.3225 29.1686 21.9017 29.7333 22.6055 29.792C23.2822 29.8477 23.9242 29.4198 24.3688 28.7108C24.1786 28.5845 23.9786 28.4737 23.7699 28.381C23.1661 28.1127 22.4882 27.9955 21.8374 28.1C21.5473 28.1458 21.2719 28.2331 21.0064 28.3479" fill="#EA8C8B"/>
<path fill-rule="evenodd" clip-rule="evenodd" d="M25.0872 23.6813C25.0712 24.215 25.3638 24.6567 25.7404 24.6681C26.117 24.6794 26.4344 24.256 26.4504 23.7224C26.4665 23.1889 26.1751 22.7471 25.7984 22.7357C25.4218 22.7244 25.1033 23.1478 25.0872 23.6813" fill="#211A17"/>
<path fill-rule="evenodd" clip-rule="evenodd" d="M25.5813 23.3715C25.7999 23.3782 25.79 23.7191 25.5702 23.7126C25.3516 23.7059 25.3615 23.3649 25.5813 23.3715" fill="white"/>
<path fill-rule="evenodd" clip-rule="evenodd" d="M21.4494 23.5719C21.4334 24.1054 21.1148 24.5288 20.7382 24.5175C20.3616 24.5061 20.0702 24.0643 20.0862 23.5308C20.1023 22.9972 20.4196 22.5738 20.7962 22.5852C21.1728 22.5965 21.4655 23.0382 21.4494 23.5719" fill="#211A17"/>
<path fill-rule="evenodd" clip-rule="evenodd" d="M20.5657 23.1196C20.7855 23.1262 20.7756 23.4671 20.5558 23.4606C20.336 23.454 20.3459 23.113 20.5657 23.1196" fill="white"/>
<path fill-rule="evenodd" clip-rule="evenodd" d="M22.6153 24.7714C22.8375 24.5984 23.1833 24.6037 23.3932 24.7924L22.7844 25.8433C22.6153 25.8324 22.477 25.6918 22.414 25.5335C22.3103 25.2715 22.393 24.9444 22.6153 24.7714" fill="#CE7872"/>
<path fill-rule="evenodd" clip-rule="evenodd" d="M26.0677 26.4065C26.0109 27.221 26.7777 27.9377 27.7803 28.0073C28.7818 28.0768 29.6412 27.4729 29.6967 26.6584C29.7535 25.8439 28.9867 25.1273 27.9841 25.0576C26.9827 24.9881 26.1233 25.592 26.0677 26.4065" fill="#F9BFBB"/>
<path fill-rule="evenodd" clip-rule="evenodd" d="M18.3355 25.5519C18.3034 26.009 18.7332 26.4112 19.2962 26.4502C19.8593 26.4892 20.3409 26.1502 20.3717 25.6933C20.4038 25.2361 19.9741 24.834 19.4111 24.7949C18.848 24.7559 18.3664 25.0949 18.3355 25.5519" fill="#F9BFBB"/>
</g>
<path fill-rule="evenodd" clip-rule="evenodd" d="M30.8933 0.331664C30.9797 0.331664 31.0501 0.263504 31.0526 0.177192C31.055 0.0891518 30.9859 0.0158053 30.8982 0.0132122C30.6142 0.00481568 30.3253 0.000370437 30.0425 0H30.0413C29.9536 0 29.882 0.0712473 29.882 0.159041C29.882 0.247081 29.9536 0.318452 30.0413 0.318576C30.3228 0.318946 30.608 0.323391 30.8883 0.331664H30.8933ZM28.3385 0.363084L28.3471 0.362837C28.6274 0.347402 28.9114 0.335919 29.1942 0.328386C29.2819 0.32604 29.351 0.252817 29.3486 0.1649C29.3461 0.0769833 29.272 0.00783511 29.1856 0.00993425C28.9003 0.0174665 28.6126 0.029197 28.3299 0.0447553C28.2422 0.049571 28.1743 0.12477 28.1792 0.212563C28.1842 0.297393 28.2545 0.363084 28.3385 0.363084ZM32.5949 0.429766C32.6764 0.429766 32.7467 0.367038 32.7541 0.284061C32.7616 0.196391 32.6961 0.119216 32.6084 0.111684C32.3269 0.0873587 32.0392 0.0667377 31.754 0.050315C31.6663 0.0453759 31.591 0.112178 31.586 0.200095C31.5811 0.288012 31.6478 0.363211 31.7354 0.368397C32.017 0.384572 32.3022 0.40507 32.5813 0.429148L32.5949 0.429766ZM26.6406 0.50549L26.6579 0.504502C26.9382 0.473138 27.221 0.445479 27.5013 0.422141C27.5889 0.414856 27.6544 0.337805 27.647 0.250135C27.6396 0.162465 27.5618 0.0973919 27.4753 0.104677C27.1926 0.128262 26.9049 0.156291 26.6233 0.187902C26.5357 0.197657 26.4727 0.276436 26.4826 0.363859C26.4912 0.445355 26.5604 0.50549 26.6406 0.50549ZM34.2877 0.624489C34.3655 0.624489 34.4334 0.567318 34.4457 0.487921C34.4581 0.400868 34.3976 0.320113 34.3099 0.307518C34.0296 0.267141 33.7431 0.230097 33.4604 0.197746C33.3739 0.187373 33.2949 0.250348 33.2838 0.337771C33.2739 0.425194 33.3369 0.504097 33.4246 0.514222C33.7036 0.546327 33.9864 0.582876 34.2655 0.623007L34.2877 0.624489ZM24.9528 0.743535L24.9799 0.741189C25.2578 0.693897 25.5393 0.650185 25.8171 0.610919C25.9048 0.598571 25.9653 0.517939 25.953 0.430887C25.9406 0.34371 25.8591 0.283576 25.7727 0.29543C25.4924 0.335067 25.2071 0.379396 24.9268 0.427182C24.8404 0.441876 24.7811 0.524237 24.796 0.610919C24.8095 0.688587 24.8775 0.743535 24.9528 0.743535ZM35.9669 0.915508C36.041 0.915508 36.1077 0.8634 36.1225 0.787831C36.1398 0.701519 36.0842 0.617553 35.9978 0.600019C35.7188 0.543342 35.436 0.490123 35.1557 0.441719C35.0705 0.426531 34.9865 0.48469 34.9717 0.571495C34.9569 0.658178 35.0149 0.740538 35.1014 0.755603C35.3779 0.803512 35.6582 0.856238 35.9348 0.912297L35.9669 0.915508ZM23.2818 1.07799C23.2942 1.07799 23.3053 1.07651 23.3176 1.0738C23.593 1.0107 23.8708 0.950687 24.1462 0.895739C24.2326 0.878452 24.2882 0.79461 24.2709 0.708298C24.2536 0.621986 24.1709 0.566297 24.0844 0.583337C23.8054 0.638903 23.5238 0.699531 23.246 0.763369C23.1608 0.783126 23.1077 0.868573 23.1275 0.954268C23.1435 1.02798 23.209 1.07799 23.2818 1.07799ZM37.6266 1.30219C37.697 1.30219 37.7612 1.2549 37.7797 1.1834C37.802 1.09832 37.7513 1.01115 37.6661 0.988675C37.392 0.916316 37.1117 0.846921 36.8351 0.782341C36.7499 0.762214 36.6635 0.815681 36.6437 0.901252C36.624 0.987069 36.6771 1.07264 36.7623 1.09264C37.0364 1.15648 37.313 1.22526 37.5859 1.29688C37.5995 1.30046 37.613 1.30219 37.6266 1.30219ZM21.6336 1.50729C21.6485 1.50729 21.6633 1.50519 21.6781 1.50074C21.9473 1.42246 22.2226 1.34652 22.4955 1.2754C22.5807 1.25317 22.6314 1.16612 22.6091 1.08104C22.5869 0.995963 22.5005 0.944966 22.4153 0.967069C22.1387 1.03906 21.8608 1.11574 21.5892 1.19501C21.504 1.21958 21.4558 1.30799 21.4805 1.39245C21.5015 1.4621 21.5645 1.50729 21.6336 1.50729ZM39.2604 1.78339C39.3271 1.78339 39.39 1.74066 39.4123 1.67349C39.4394 1.58989 39.3937 1.5 39.3098 1.47259C39.0394 1.3843 38.764 1.29898 38.4923 1.21872C38.4071 1.1939 38.3182 1.24218 38.2935 1.32651C38.2688 1.41097 38.317 1.49951 38.4022 1.52433C38.6714 1.6036 38.943 1.68818 39.211 1.77548C39.227 1.78092 39.2443 1.78339 39.2604 1.78339ZM20.01 2.03212C20.0273 2.03212 20.0446 2.02915 20.0631 2.02285C20.3286 1.92864 20.599 1.8369 20.8682 1.74984C20.9521 1.7228 20.9978 1.63303 20.9707 1.54944C20.9435 1.46572 20.8546 1.41941 20.7706 1.4467C20.4977 1.53462 20.2249 1.62747 19.9557 1.72268C19.8729 1.75219 19.8297 1.84319 19.8594 1.92617C19.8828 1.99137 19.9446 2.03212 20.01 2.03212ZM40.8644 2.35844C40.9286 2.35844 40.9879 2.32004 41.0126 2.25707C41.0447 2.1752 41.0052 2.08284 40.9225 2.05073C40.6582 1.94726 40.3878 1.84613 40.1211 1.75018C40.0383 1.72055 39.947 1.76352 39.9173 1.8465C39.8877 1.92923 39.9297 2.02048 40.0136 2.05011C40.2779 2.14495 40.5446 2.24496 40.8064 2.34745C40.8261 2.35486 40.8459 2.35844 40.8644 2.35844ZM18.4157 2.65003C18.4367 2.65003 18.4576 2.64596 18.4774 2.63744C18.7379 2.52804 19.0022 2.42073 19.2652 2.31862C19.3479 2.28676 19.3887 2.19452 19.3566 2.11253C19.3245 2.03029 19.2331 1.98967 19.1504 2.02165C18.8849 2.12488 18.6169 2.23329 18.3539 2.34393C18.2737 2.37813 18.2354 2.47148 18.2687 2.55261C18.2947 2.61336 18.3539 2.65003 18.4157 2.65003ZM42.4273 3.02215C42.4878 3.02215 42.5458 2.98758 42.573 2.92918C42.6088 2.84916 42.5742 2.7547 42.494 2.71803C42.2371 2.59986 41.9741 2.48379 41.7136 2.37303C41.6321 2.3387 41.5382 2.37636 41.5037 2.45736C41.4691 2.53836 41.5074 2.63196 41.5889 2.66629C41.8469 2.77581 42.1062 2.89065 42.3618 3.00758C42.3828 3.01746 42.4051 3.02215 42.4273 3.02215ZM16.8624 3.35885C16.8858 3.35885 16.9093 3.35354 16.9327 3.34242C17.1846 3.21857 17.4427 3.09621 17.6996 2.97903C17.7798 2.94248 17.8156 2.84801 17.7786 2.768C17.7428 2.68799 17.6477 2.65255 17.5674 2.6891C17.3081 2.80764 17.0463 2.93124 16.792 3.05657C16.713 3.09534 16.6796 3.19067 16.7191 3.26969C16.7463 3.32612 16.8031 3.35885 16.8624 3.35885ZM43.951 3.7746C44.0091 3.7746 44.0634 3.74373 44.0918 3.68977C44.1338 3.6121 44.1041 3.51567 44.0263 3.47455C43.7757 3.34193 43.5201 3.21092 43.2657 3.08522C43.1867 3.04632 43.0916 3.07867 43.0521 3.15758C43.0126 3.23648 43.0459 3.33193 43.1249 3.37082C43.3756 3.49529 43.63 3.62482 43.8769 3.75608C43.9004 3.76867 43.9263 3.7746 43.951 3.7746ZM15.3521 4.15502C15.378 4.15502 15.4052 4.14835 15.4299 4.13452C15.6743 3.99672 15.925 3.85978 16.1757 3.72778C16.2535 3.68678 16.2831 3.59035 16.2424 3.51255C16.2004 3.43464 16.1041 3.405 16.0263 3.446C15.7731 3.57948 15.52 3.71778 15.273 3.85706C15.1965 3.90028 15.1693 3.99746 15.2125 4.07414C15.2422 4.126 15.2965 4.15502 15.3521 4.15502ZM45.4303 4.61304C45.4847 4.61304 45.5365 4.58575 45.5674 4.53624C45.6131 4.46104 45.5884 4.36312 45.5131 4.31743C45.2711 4.17099 45.0229 4.02553 44.7759 3.88526C44.6993 3.84179 44.6018 3.86871 44.5586 3.94527C44.5154 4.0217 44.5425 4.119 44.6191 4.16235C44.8636 4.30126 45.1093 4.44511 45.3488 4.58995C45.3735 4.60563 45.4019 4.61304 45.4303 4.61304ZM13.8902 5.0362C13.9198 5.0362 13.9495 5.02805 13.9766 5.01089C14.2137 4.85876 14.4557 4.70775 14.6965 4.56229C14.7718 4.51697 14.7965 4.41906 14.7508 4.34361C14.7052 4.26816 14.6076 4.24409 14.5323 4.2894C14.289 4.43647 14.0433 4.58909 13.8038 4.74282C13.7297 4.79048 13.7087 4.88902 13.7568 4.96298C13.7865 5.01027 13.8383 5.0362 13.8902 5.0362ZM46.8603 5.53539C46.9109 5.53539 46.9616 5.51119 46.9924 5.46624C47.0418 5.39364 47.0233 5.29461 46.9504 5.24472C46.7171 5.0842 46.4775 4.92479 46.2392 4.77093C46.1651 4.72327 46.0663 4.74451 46.0182 4.81847C45.9713 4.89244 45.9922 4.9911 46.0663 5.03876C46.3022 5.19088 46.5393 5.34857 46.7702 5.50748C46.7986 5.52638 46.8294 5.53539 46.8603 5.53539ZM12.4825 5.99878C12.5146 5.99878 12.5479 5.9889 12.5763 5.96828C12.8035 5.80307 13.0369 5.63859 13.269 5.47968C13.3419 5.42991 13.3604 5.33088 13.311 5.25816C13.2604 5.18555 13.1616 5.16703 13.0887 5.21654C12.8541 5.37731 12.6183 5.54364 12.3886 5.71058C12.317 5.76232 12.3009 5.86184 12.3528 5.93297C12.3849 5.97594 12.4331 5.99878 12.4825 5.99878ZM48.2362 6.53782C48.2843 6.53782 48.3312 6.51659 48.3621 6.47596C48.4164 6.40644 48.4029 6.30642 48.3337 6.25259C48.109 6.07898 47.8793 5.90611 47.6496 5.73879C47.578 5.68693 47.4792 5.70261 47.4274 5.77374C47.3755 5.84486 47.3903 5.94451 47.4619 5.99637C47.6891 6.16183 47.9163 6.33285 48.1386 6.50461C48.1682 6.52708 48.2028 6.53782 48.2362 6.53782ZM11.1316 7.03987C11.1674 7.03987 11.2032 7.02814 11.2316 7.00394C11.4502 6.82625 11.6724 6.64881 11.8959 6.47668C11.9663 6.42297 11.9787 6.32295 11.9256 6.25331C11.8712 6.18354 11.7712 6.17058 11.7021 6.22429C11.4761 6.3984 11.2501 6.57769 11.0303 6.75723C10.9624 6.81291 10.9526 6.91318 11.0081 6.98134C11.039 7.01987 11.0859 7.03987 11.1316 7.03987ZM49.5535 7.61706C49.598 7.61706 49.6424 7.59842 49.6733 7.56211C49.7313 7.49581 49.7239 7.39505 49.6572 7.33738C49.4424 7.15093 49.2226 6.96534 49.0028 6.78543C48.9349 6.72974 48.8349 6.73975 48.7793 6.80766C48.7237 6.8757 48.7336 6.97608 48.8015 7.0319C49.0188 7.20983 49.2362 7.39357 49.4485 7.57804C49.4794 7.60422 49.5165 7.61706 49.5535 7.61706ZM9.84248 8.15527C9.88076 8.15527 9.92028 8.14144 9.94991 8.11328C10.1561 7.92399 10.3697 7.73433 10.5834 7.54948C10.65 7.49181 10.6574 7.3913 10.5994 7.32475C10.5426 7.25819 10.4414 7.25078 10.3747 7.30857C10.1586 7.49539 9.94374 7.68728 9.73506 7.87855C9.67085 7.93807 9.66591 8.03883 9.72518 8.10365C9.75728 8.13786 9.79927 8.15527 9.84248 8.15527ZM50.8067 8.7698C50.8486 8.7698 50.8894 8.75375 50.9215 8.72164C50.982 8.65855 50.9808 8.55766 50.9178 8.49642C50.7141 8.29823 50.5054 8.10017 50.2955 7.90792C50.2312 7.8484 50.13 7.8526 50.0707 7.91742C50.0115 7.98225 50.0152 8.08301 50.0806 8.14253C50.2868 8.33281 50.4943 8.52865 50.6955 8.72473C50.7264 8.75486 50.7671 8.7698 50.8067 8.7698ZM8.61985 9.34179C8.6606 9.34179 8.70258 9.32574 8.73345 9.29363C8.93102 9.091 9.13229 8.88948 9.33356 8.69501C9.39654 8.63376 9.39777 8.53288 9.33727 8.46966C9.27553 8.40656 9.17427 8.40508 9.1113 8.46632C8.90879 8.6629 8.70505 8.86652 8.50501 9.07137C8.44451 9.13434 8.44574 9.23523 8.50872 9.29659C8.53959 9.32672 8.5791 9.34179 8.61985 9.34179ZM51.9947 9.9919C52.033 9.9919 52.0713 9.97807 52.1022 9.95004C52.1664 9.89053 52.1713 9.78977 52.1121 9.72494C51.9194 9.51589 51.7219 9.30622 51.5231 9.10199C51.4626 9.03889 51.3613 9.03741 51.2983 9.09865C51.2353 9.1599 51.2341 9.26078 51.2946 9.32388C51.491 9.52601 51.6873 9.73334 51.8774 9.94041C51.9083 9.97449 51.9515 9.9919 51.9947 9.9919ZM7.46673 10.5954C7.51118 10.5954 7.55563 10.5769 7.5865 10.5406C7.77049 10.3284 7.96064 10.116 8.1508 9.90909C8.21131 9.84426 8.20637 9.7435 8.14216 9.68398C8.07671 9.62447 7.9767 9.62867 7.91619 9.69337C7.7248 9.90242 7.53217 10.1171 7.34572 10.3316C7.28892 10.3979 7.29509 10.4987 7.36177 10.5564C7.3914 10.5825 7.42968 10.5954 7.46673 10.5954ZM53.1111 11.2802C53.1456 11.2802 53.1814 11.2685 53.2111 11.2443C53.279 11.1885 53.2901 11.0882 53.2333 11.0201C53.0543 10.8 52.8678 10.5795 52.6814 10.3645C52.6246 10.298 52.5233 10.2909 52.4566 10.3483C52.3912 10.406 52.3838 10.5065 52.4406 10.5732C52.6258 10.7858 52.8085 11.004 52.9876 11.2218C53.0185 11.2602 53.0641 11.2802 53.1111 11.2802ZM6.3864 11.9118C6.43456 11.9118 6.48148 11.8906 6.51235 11.8499C6.68275 11.6293 6.86056 11.4065 7.04084 11.1877C7.09641 11.1197 7.08653 11.0193 7.01861 10.9636C6.9507 10.9078 6.84945 10.9177 6.79388 10.9857C6.61237 11.2067 6.43332 11.4321 6.26045 11.6551C6.20735 11.7247 6.2197 11.8247 6.28885 11.8786C6.31849 11.9011 6.35183 11.9118 6.3864 11.9118ZM54.152 12.6305C54.1854 12.6305 54.2175 12.6207 54.2459 12.6002C54.3175 12.5484 54.3323 12.4488 54.2804 12.3776C54.1137 12.148 53.9409 11.9171 53.7668 11.6915C53.7137 11.6217 53.6136 11.609 53.5433 11.6626C53.4741 11.7163 53.4605 11.8163 53.5149 11.886C53.6865 12.1093 53.8581 12.3378 54.0236 12.5648C54.0545 12.6078 54.1026 12.6305 54.152 12.6305ZM5.38347 13.2867C5.4341 13.2867 5.48349 13.2625 5.51436 13.2175C5.67241 12.9869 5.83788 12.7545 6.00334 12.5265C6.0552 12.4554 6.03915 12.3559 5.96876 12.304C5.89838 12.2522 5.79836 12.2677 5.7465 12.3389C5.57857 12.5691 5.41187 12.804 5.25135 13.0371C5.20196 13.1097 5.22048 13.2089 5.29333 13.2586C5.3205 13.2775 5.35137 13.2867 5.38347 13.2867ZM55.1149 14.0384C55.1445 14.0384 55.1741 14.0303 55.2013 14.0131C55.2754 13.9655 55.2964 13.8669 55.2495 13.793C55.0951 13.5543 54.9358 13.3137 54.7753 13.0784C54.7247 13.0059 54.6259 12.9871 54.553 13.0369C54.4814 13.0865 54.4629 13.1857 54.5123 13.2583C54.6716 13.4912 54.8296 13.7291 54.9815 13.9653C55.0111 14.0126 55.063 14.0384 55.1149 14.0384ZM4.45991 14.7158C4.51424 14.7158 4.56734 14.6885 4.59697 14.6392C4.74268 14.3986 4.89332 14.1572 5.0452 13.9219C5.09336 13.848 5.07237 13.7494 4.99828 13.7017C4.92419 13.654 4.82541 13.6752 4.77725 13.7491C4.62414 13.9871 4.47102 14.2311 4.32408 14.4741C4.2784 14.5493 4.30309 14.6473 4.37841 14.6929C4.40311 14.7084 4.43275 14.7158 4.45991 14.7158ZM55.9965 15.4995C56.0237 15.4995 56.0509 15.4929 56.0756 15.4789C56.1521 15.4357 56.1793 15.3384 56.1361 15.2618C55.9953 15.0141 55.8496 14.7648 55.7027 14.5209C55.657 14.4455 55.5594 14.4214 55.4841 14.4669C55.4088 14.5123 55.3841 14.6102 55.4298 14.6855C55.5755 14.9269 55.7199 15.1735 55.8582 15.4185C55.8879 15.4704 55.941 15.4995 55.9965 15.4995ZM3.6205 16.1947C3.67854 16.1947 3.73287 16.1639 3.7625 16.11C3.89339 15.8619 4.03045 15.6125 4.16875 15.3687C4.21197 15.2922 4.18604 15.195 4.10948 15.1515C4.03292 15.1081 3.93537 15.1349 3.89216 15.2114C3.75139 15.4579 3.61309 15.7099 3.48097 15.9607C3.43899 16.0383 3.46862 16.1349 3.54641 16.176C3.56988 16.1886 3.59581 16.1947 3.6205 16.1947ZM56.7941 17.009C56.8176 17.009 56.8411 17.0037 56.8645 16.9926C56.9436 16.9538 56.9757 16.8582 56.9374 16.7793C56.8114 16.524 56.6805 16.2666 56.5472 16.0145C56.5064 15.9367 56.4101 15.9071 56.3323 15.9481C56.2545 15.9891 56.2237 16.0855 56.2657 16.1633C56.3965 16.4127 56.5262 16.6673 56.6509 16.9198C56.6781 16.9763 56.7349 17.009 56.7941 17.009ZM2.86796 17.7181C2.92723 17.7181 2.98527 17.6837 3.01243 17.6253C3.1285 17.3719 3.25075 17.1153 3.37546 16.8624C3.41498 16.7835 3.38287 16.688 3.30384 16.6491C3.22482 16.6099 3.12974 16.6423 3.09022 16.7213C2.96428 16.9768 2.8408 17.2362 2.72226 17.4923C2.68645 17.5723 2.72102 17.6669 2.80128 17.7036C2.82227 17.7135 2.84574 17.7181 2.86796 17.7181ZM57.5032 18.563C57.5242 18.563 57.5452 18.5589 57.5649 18.5504C57.6464 18.5162 57.6847 18.4227 57.6501 18.3417C57.539 18.0797 57.4229 17.8152 57.3044 17.5554C57.2686 17.4753 57.1735 17.4401 57.0932 17.4766C57.0142 17.5132 56.9784 17.6077 57.0154 17.6878C57.1327 17.9446 57.2476 18.2064 57.3562 18.4657C57.3822 18.5265 57.4414 18.563 57.5032 18.563ZM2.20408 19.2816C2.26705 19.2816 2.32756 19.2432 2.35225 19.1803C2.4535 18.921 2.56093 18.6579 2.67083 18.3984C2.7054 18.3174 2.66836 18.2239 2.58686 18.1894C2.50537 18.1549 2.41276 18.1928 2.37818 18.2738C2.26582 18.5362 2.15839 18.8021 2.0559 19.0642C2.0238 19.1461 2.06331 19.2385 2.14604 19.2706C2.16456 19.278 2.18432 19.2816 2.20408 19.2816ZM58.1218 20.1561C58.1403 20.1561 58.1576 20.1532 58.1761 20.1469C58.2588 20.1174 58.302 20.0262 58.2724 19.9434C58.1761 19.674 58.0761 19.403 57.9723 19.1381C57.9415 19.0559 57.8489 19.0154 57.7661 19.0473C57.6846 19.0792 57.6439 19.1715 57.676 19.2535C57.7772 19.5157 57.8773 19.7836 57.9723 20.0502C57.9958 20.1154 58.0563 20.1561 58.1218 20.1561ZM1.62878 20.8853C1.69546 20.8853 1.7572 20.8426 1.77943 20.7754C1.8671 20.5087 1.95847 20.2389 2.05479 19.9737C2.08442 19.8909 2.0412 19.7997 1.95847 19.7699C1.87574 19.7401 1.78437 19.7833 1.75473 19.866C1.65842 20.1342 1.56457 20.407 1.4769 20.6765C1.44974 20.7602 1.49542 20.8501 1.57939 20.8774C1.59544 20.8827 1.61149 20.8853 1.62878 20.8853ZM58.6477 21.7797C58.6625 21.7797 58.6773 21.7776 58.6921 21.7733C58.7773 21.7486 58.8255 21.6602 58.8008 21.5757C58.7205 21.3021 58.6353 21.0266 58.5489 20.7569C58.5217 20.6731 58.4316 20.6275 58.3476 20.6544C58.2649 20.6815 58.218 20.7712 58.2451 20.855C58.3316 21.1218 58.4155 21.3943 58.4946 21.665C58.5156 21.7345 58.5785 21.7797 58.6477 21.7797ZM1.14584 22.5195C1.21622 22.5195 1.28043 22.4724 1.30019 22.4009C1.3718 22.1282 1.44836 21.8536 1.52739 21.5847C1.55208 21.5003 1.50393 21.4117 1.41996 21.3869C1.33599 21.3621 1.24709 21.4101 1.22239 21.4944C1.14213 21.7664 1.06434 22.0439 0.991487 22.3196C0.96926 22.4046 1.01989 22.4919 1.10509 22.5142C1.11867 22.5178 1.13225 22.5195 1.14584 22.5195ZM59.0775 23.4286C59.0898 23.4286 59.1022 23.4274 59.1133 23.4246C59.1997 23.4048 59.2528 23.3192 59.2331 23.2336C59.1689 22.9552 59.1009 22.6753 59.0293 22.4017C59.0071 22.3166 58.9194 22.2655 58.8342 22.2878C58.749 22.3101 58.6984 22.397 58.7206 22.4821C58.791 22.7529 58.8589 23.0297 58.9231 23.3052C58.9404 23.3789 59.0059 23.4286 59.0775 23.4286ZM0.758308 24.1789C0.832396 24.1789 0.899075 24.1268 0.913892 24.0512C0.970693 23.7771 1.0312 23.4985 1.09541 23.2234C1.11516 23.1378 1.06207 23.0521 0.976867 23.0321C0.890431 23.0119 0.80523 23.0653 0.785474 23.1509C0.720029 23.429 0.65829 23.7106 0.602724 23.9879C0.584202 24.074 0.641003 24.1581 0.726203 24.1757L0.758308 24.1789ZM59.4135 25.0993L59.4394 25.0969C59.5271 25.0823 59.5851 24.9999 59.5703 24.9132C59.5222 24.6328 59.4703 24.3494 59.4135 24.0708C59.3962 23.9847 59.3123 23.9288 59.2258 23.946C59.1406 23.9634 59.0838 24.0473 59.1011 24.1334C59.1567 24.409 59.2085 24.6895 59.2567 24.9668C59.269 25.0443 59.3369 25.0993 59.4135 25.0993ZM0.466519 25.8573C0.544311 25.8573 0.612225 25.8002 0.624573 25.7209C0.664086 25.4417 0.708539 25.1602 0.756696 24.884C0.772748 24.7973 0.713478 24.7148 0.627043 24.6997C0.540607 24.6848 0.457876 24.7427 0.443058 24.8294C0.394901 25.1086 0.349214 25.3932 0.308466 25.6753C0.296118 25.7625 0.356623 25.8433 0.443058 25.8559L0.466519 25.8573ZM59.6516 26.7863L59.6701 26.7853C59.7566 26.7754 59.8195 26.6965 59.8097 26.6092C59.7775 26.3259 59.7417 26.04 59.7022 25.7593C59.6899 25.6722 59.6084 25.612 59.5219 25.624C59.4355 25.6363 59.3738 25.7169 59.3861 25.804C59.4256 26.0817 59.4614 26.3645 59.4935 26.6448C59.5022 26.7261 59.5713 26.7863 59.6516 26.7863ZM0.271505 27.55C0.353001 27.55 0.42215 27.4875 0.429558 27.4046C0.454254 27.1235 0.482655 26.8398 0.514759 26.5613C0.524638 26.474 0.462898 26.3949 0.375228 26.3849C0.287557 26.3744 0.20853 26.4375 0.198652 26.5249C0.166547 26.8063 0.136912 27.093 0.112216 27.377C0.104808 27.4647 0.170252 27.5419 0.257922 27.5495L0.271505 27.55ZM59.7939 28.4844L59.8026 28.4841C59.8915 28.4793 59.9582 28.4041 59.9532 28.3162C59.9372 28.0323 59.9174 27.7448 59.894 27.4618C59.8866 27.374 59.81 27.3083 59.7223 27.3162C59.6347 27.3237 59.5692 27.4007 59.5766 27.4883C59.6001 27.7684 59.6198 28.0529 59.6359 28.3338C59.6396 28.4187 59.71 28.4844 59.7939 28.4844ZM0.172722 29.2511C0.257923 29.2511 0.328307 29.1828 0.332011 29.0965C0.33942 28.8169 0.351768 28.5321 0.369055 28.2498C0.373994 28.1619 0.307315 28.0866 0.21841 28.0815C0.131974 28.0771 0.055417 28.1434 0.0504779 28.2312C0.0344255 28.5165 0.0208428 28.8045 0.013434 29.0871C0.0109644 29.175 0.0801129 29.2485 0.167783 29.2511H0.172722ZM59.8407 30.1874C59.9284 30.1874 60 30.1161 60 30.0281V29.9998C60 29.725 59.9963 29.4463 59.9889 29.1718C59.9864 29.0837 59.9074 29.0151 59.8247 29.0168C59.737 29.0193 59.6678 29.0925 59.6703 29.1804C59.6777 29.4521 59.6814 29.7278 59.6814 29.9998V30.0281C59.6814 30.1161 59.7518 30.1874 59.8407 30.1874ZM0.170409 31.0111L0.175348 31.011C0.263018 31.0085 0.332167 30.9352 0.329697 30.8472C0.322289 30.5646 0.318584 30.2795 0.318584 29.9998V29.9437C0.318584 29.8557 0.246966 29.7845 0.159296 29.7845C0.0703906 29.7845 7.36836e-06 29.8557 7.36836e-06 29.9437V29.9998C7.36836e-06 30.2825 0.00371174 30.5705 0.0111205 30.8563C0.0135901 30.9426 0.0852081 31.0111 0.170409 31.0111ZM59.7923 31.8911C59.8763 31.8911 59.9467 31.8255 59.9516 31.7408C59.9677 31.4573 59.98 31.1693 59.9874 30.8851C59.9911 30.797 59.9207 30.7237 59.8331 30.7212C59.7466 30.7185 59.6725 30.7879 59.6701 30.8757C59.6614 31.1572 59.6491 31.4421 59.633 31.7226C59.6281 31.8104 59.6948 31.8858 59.7824 31.8907L59.7923 31.8911ZM0.266341 32.7124L0.279924 32.7119C0.367594 32.7045 0.431803 32.6275 0.424395 32.5398C0.400934 32.258 0.381177 31.9736 0.365125 31.6943C0.360185 31.6065 0.283628 31.54 0.197193 31.5443C0.109522 31.5492 0.0428433 31.6243 0.0465477 31.7121C0.0626 31.9945 0.0835915 32.2818 0.107053 32.5666C0.114461 32.6497 0.18361 32.7124 0.266341 32.7124ZM59.6456 33.5884C59.7258 33.5884 59.795 33.5283 59.8036 33.4471C59.8357 33.1662 59.8641 32.8795 59.8888 32.5948C59.8962 32.5072 59.832 32.43 59.7444 32.4225C59.6567 32.4152 59.5789 32.4799 59.5715 32.5677C59.5468 32.8491 59.5184 33.1328 59.4875 33.4109C59.4776 33.4983 59.5394 33.5772 59.627 33.5872L59.6456 33.5884ZM0.457951 34.4056L0.480177 34.404C0.567848 34.3916 0.628353 34.311 0.616005 34.2238C0.576491 33.9436 0.539447 33.6608 0.508578 33.383C0.498699 33.2956 0.419672 33.2324 0.332002 33.2428C0.245566 33.2527 0.182592 33.3317 0.19247 33.4191C0.22334 33.6996 0.260384 33.9855 0.301132 34.2686C0.312245 34.3482 0.380159 34.4056 0.457951 34.4056ZM59.4032 35.2752C59.4798 35.2752 59.5465 35.2205 59.5601 35.143C59.6082 34.8642 59.6539 34.5796 59.6934 34.2969C59.707 34.2099 59.6465 34.1291 59.5588 34.1166C59.4711 34.1044 59.3909 34.1646 59.3785 34.2516C59.339 34.5313 59.2933 34.8129 59.2464 35.0888C59.2316 35.1755 59.2896 35.2578 59.3761 35.2728L59.4032 35.2752ZM0.746707 36.0847L0.777577 36.0816C0.864012 36.0642 0.919578 35.9802 0.902291 35.894C0.846725 35.6155 0.794864 35.3352 0.747942 35.0608C0.733124 34.974 0.649158 34.9161 0.563957 34.9307C0.476287 34.9456 0.418251 35.028 0.433069 35.1148C0.481226 35.392 0.534322 35.6752 0.589888 35.9568C0.60594 36.0323 0.672619 36.0847 0.746707 36.0847ZM59.065 36.9451C59.1379 36.9451 59.2033 36.8953 59.2206 36.8219C59.2848 36.5453 59.3453 36.2636 59.4021 35.9847C59.4194 35.8986 59.3638 35.8145 59.2774 35.797C59.1922 35.7796 59.107 35.8353 59.0897 35.9216C59.0342 36.1974 58.9737 36.476 58.9107 36.7496C58.8897 36.8355 58.944 36.921 59.0292 36.9409C59.0416 36.9437 59.0539 36.9451 59.065 36.9451ZM1.13112 37.7447C1.1447 37.7447 1.15828 37.743 1.17186 37.7394C1.25706 37.7172 1.30769 37.63 1.28546 37.545C1.21385 37.2734 1.14593 36.9967 1.08296 36.7222C1.0632 36.6365 0.976766 36.5829 0.891566 36.6029C0.806365 36.6228 0.752034 36.7084 0.771791 36.7941C0.836 37.0715 0.905148 37.3513 0.976766 37.6257C0.996523 37.6973 1.06073 37.7447 1.13112 37.7447ZM58.632 38.5932C58.7012 38.5932 58.7641 38.5482 58.7851 38.4788C58.8654 38.2062 58.9419 37.9286 59.0148 37.6536C59.037 37.5685 58.9864 37.4813 58.9012 37.459C58.816 37.4367 58.7296 37.4875 58.7061 37.5725C58.6357 37.8446 58.5592 38.1192 58.4789 38.3889C58.4542 38.4734 58.5023 38.5619 58.5876 38.5867C58.6024 38.5911 58.6172 38.5932 58.632 38.5932ZM1.60998 39.38C1.62727 39.38 1.64332 39.3774 1.65937 39.3723C1.74334 39.345 1.78903 39.2552 1.76186 39.1715C1.67543 38.9044 1.59146 38.632 1.51243 38.3616C1.48774 38.2772 1.39883 38.2287 1.31487 38.2535C1.22967 38.2784 1.18151 38.3668 1.2062 38.4514C1.28647 38.7245 1.37167 38.9999 1.45934 39.2698C1.48033 39.3372 1.5433 39.38 1.60998 39.38ZM58.1041 40.2135C58.1696 40.2135 58.2301 40.1729 58.2535 40.1078C58.3498 39.8408 58.4424 39.5681 58.5314 39.2971C58.5585 39.2134 58.5128 39.1235 58.4289 39.0964C58.3449 39.069 58.2548 39.1148 58.2276 39.1985C58.1412 39.4664 58.0485 39.7362 57.9535 40.0005C57.9238 40.0832 57.9671 40.1745 58.0498 40.2041C58.0683 40.2105 58.0856 40.2135 58.1041 40.2135ZM2.18587 40.9901C2.20439 40.9901 2.22415 40.9865 2.24267 40.9791C2.3254 40.9473 2.36615 40.8549 2.33405 40.7729C2.23156 40.5085 2.13154 40.2405 2.03646 39.9765C2.00683 39.8936 1.91545 39.8501 1.83272 39.8799C1.74999 39.9095 1.70677 40.0007 1.73641 40.0835C1.83148 40.3505 1.93274 40.6213 2.03646 40.8885C2.06116 40.9515 2.12166 40.9901 2.18587 40.9901ZM57.4856 41.7978C57.5474 41.7978 57.6066 41.7614 57.6313 41.7006C57.7425 41.44 57.8511 41.1739 57.9536 40.91C57.9857 40.8281 57.945 40.7358 57.8635 40.7037C57.782 40.6716 57.6894 40.7122 57.6573 40.7941C57.5548 41.0551 57.4474 41.3184 57.3387 41.5763C57.3041 41.6573 57.3424 41.7508 57.4227 41.7852C57.4437 41.7937 57.4646 41.7978 57.4856 41.7978ZM2.85095 42.5634C2.87317 42.5634 2.8954 42.5587 2.91639 42.5489C2.99665 42.5122 3.03246 42.4178 2.99542 42.3378C2.87811 42.0799 2.76204 41.8183 2.65338 41.5601C2.61881 41.4792 2.52496 41.4409 2.4447 41.4755C2.3632 41.5098 2.32493 41.6032 2.3595 41.6843C2.47063 41.9452 2.5867 42.2097 2.70524 42.4703C2.73241 42.5288 2.79044 42.5634 2.85095 42.5634ZM56.7782 43.3425C56.8362 43.3425 56.893 43.3099 56.9202 43.2537C57.0461 42.9997 57.1696 42.7402 57.2869 42.4822C57.324 42.4022 57.2894 42.3076 57.2091 42.271C57.1289 42.2344 57.035 42.2695 56.998 42.3495C56.8807 42.6047 56.7584 42.8614 56.6349 43.1127C56.5954 43.1916 56.6288 43.2871 56.7078 43.3261C56.73 43.3372 56.7535 43.3425 56.7782 43.3425ZM3.60531 44.0952C3.63124 44.0952 3.65594 44.0893 3.68063 44.0767C3.75843 44.0356 3.78806 43.9391 3.74608 43.8615C3.61396 43.6107 3.4843 43.3562 3.36082 43.1052C3.32131 43.0261 3.225 42.9938 3.1472 43.0326C3.06818 43.0715 3.03607 43.167 3.07435 43.2459C3.19907 43.4997 3.33119 43.7569 3.46455 44.0104C3.49295 44.0643 3.54851 44.0952 3.60531 44.0952ZM55.9821 44.8445C56.0377 44.8445 56.092 44.8155 56.1216 44.7637C56.2612 44.5168 56.3994 44.2645 56.5316 44.0141C56.5736 43.9364 56.5439 43.84 56.4661 43.7989C56.3883 43.7575 56.292 43.7874 56.25 43.8651C56.1192 44.1129 55.9821 44.3624 55.8438 44.6068C55.8006 44.6834 55.8277 44.7805 55.9043 44.8239C55.929 44.838 55.9562 44.8445 55.9821 44.8445ZM4.44757 45.5801C4.47473 45.5801 4.50313 45.5726 4.52906 45.5571C4.60438 45.5115 4.62908 45.4136 4.58339 45.3384C4.43769 45.098 4.29322 44.8517 4.15492 44.6058C4.11047 44.5292 4.01292 44.5026 3.93759 44.5458C3.86104 44.5891 3.83387 44.6863 3.87709 44.7629C4.01786 45.0113 4.16356 45.2604 4.3105 45.5033C4.34014 45.5528 4.39323 45.5801 4.44757 45.5801ZM55.1026 46.3C55.1544 46.3 55.2063 46.2743 55.2359 46.227C55.389 45.9891 55.5421 45.7451 55.6891 45.5016C55.7348 45.4264 55.7101 45.3285 55.6347 45.2829C55.5594 45.2375 55.4619 45.2616 55.4162 45.3368C55.2705 45.5777 55.1198 45.8191 54.968 46.0544C54.921 46.1284 54.942 46.2269 55.0161 46.2746C55.0433 46.2919 55.0729 46.3 55.1026 46.3ZM5.37158 47.0142C5.40245 47.0142 5.43455 47.0051 5.46172 46.9863C5.53457 46.9365 5.55309 46.8373 5.50247 46.7649C5.34441 46.533 5.18636 46.2951 5.03325 46.0582C4.98509 45.9842 4.8863 45.963 4.81345 46.0106C4.73936 46.0583 4.71714 46.1568 4.7653 46.2307C4.91964 46.4704 5.07893 46.7106 5.24069 46.9449C5.27156 46.99 5.32095 47.0142 5.37158 47.0142ZM54.1411 47.7037C54.1905 47.7037 54.2386 47.681 54.2695 47.6382C54.4362 47.4084 54.6029 47.1733 54.7634 46.9394C54.8128 46.8668 54.7943 46.7678 54.7214 46.718C54.6498 46.6681 54.5498 46.6868 54.5004 46.7593C54.3423 46.9907 54.1769 47.2233 54.0114 47.4506C53.9608 47.5219 53.9756 47.6214 54.0472 47.6732C54.0756 47.6939 54.1077 47.7037 54.1411 47.7037ZM6.37506 48.3928C6.40963 48.3928 6.44421 48.3819 6.47261 48.3594C6.54299 48.3056 6.55534 48.2056 6.50101 48.136C6.33061 47.9148 6.15897 47.6866 5.99227 47.4577C5.94041 47.3864 5.84039 47.3707 5.77001 47.4227C5.69839 47.4744 5.68358 47.5741 5.7342 47.6452C5.90337 47.8766 6.07624 48.1073 6.24911 48.3309C6.28122 48.3714 6.32814 48.3928 6.37506 48.3928ZM53.1 49.0509C53.1457 49.0509 53.1913 49.031 53.2234 48.9925C53.4025 48.7734 53.5815 48.5481 53.7556 48.3226C53.81 48.2531 53.7964 48.153 53.7272 48.0992C53.6581 48.0455 53.5581 48.0582 53.5037 48.1279C53.3309 48.3509 53.1543 48.574 52.9765 48.7906C52.9209 48.8588 52.9308 48.9592 52.9987 49.0148C53.0284 49.039 53.0642 49.0509 53.1 49.0509ZM7.45584 49.7113C7.49289 49.7113 7.52993 49.6985 7.5608 49.6724C7.62748 49.6146 7.63365 49.5141 7.57685 49.4477C7.39163 49.2342 7.20765 49.016 7.02984 48.7995C6.97427 48.7316 6.87425 48.7214 6.8051 48.7773C6.73719 48.833 6.72731 48.9334 6.78288 49.0014C6.96316 49.2202 7.14838 49.4406 7.33607 49.6565C7.36694 49.6928 7.41139 49.7113 7.45584 49.7113ZM51.9837 50.3375C52.0269 50.3375 52.0701 50.3202 52.101 50.286C52.2936 50.0771 52.485 49.8621 52.6714 49.6472C52.7295 49.5808 52.7221 49.4801 52.6554 49.4225C52.5887 49.3649 52.4887 49.3719 52.4307 49.4385C52.2467 49.6512 52.0565 49.8639 51.8663 50.0706C51.8071 50.1354 51.812 50.236 51.8762 50.2955C51.9071 50.3236 51.9454 50.3375 51.9837 50.3375ZM8.60903 50.966C8.64977 50.966 8.68929 50.9511 8.72016 50.921C8.78313 50.8596 8.78437 50.7587 8.72386 50.6957C8.52753 50.4941 8.3312 50.2869 8.14104 50.0797C8.08177 50.0149 7.98052 50.0109 7.91631 50.0703C7.85086 50.1298 7.84716 50.2306 7.90643 50.2953C8.09906 50.5046 8.29662 50.714 8.49543 50.9177C8.5263 50.9498 8.56828 50.966 8.60903 50.966ZM50.797 51.5592C50.8365 51.5592 50.876 51.5442 50.9069 51.5142C51.1119 51.3161 51.3156 51.1123 51.5132 50.9085C51.5749 50.8455 51.5725 50.7446 51.5095 50.6832C51.4465 50.622 51.3465 50.6233 51.2847 50.6864C51.0884 50.8881 50.8871 51.0897 50.6859 51.2857C50.6229 51.3471 50.6204 51.4479 50.6822 51.5109C50.713 51.5431 50.755 51.5592 50.797 51.5592ZM9.83147 52.1529C9.87469 52.1529 9.91791 52.1356 9.94878 52.1013C10.008 52.0366 10.0043 51.9359 9.9389 51.8763C9.73145 51.6857 9.52401 51.49 9.32274 51.2946C9.25976 51.2335 9.15851 51.2349 9.09801 51.298C9.03627 51.3611 9.0375 51.4619 9.10171 51.5232C9.30422 51.7205 9.51413 51.9183 9.72405 52.1111C9.75368 52.1391 9.79319 52.1529 9.83147 52.1529ZM49.5409 52.7115C49.5779 52.7115 49.615 52.6987 49.6459 52.6726C49.8595 52.4863 50.0756 52.2944 50.2842 52.1022C50.3497 52.0425 50.3534 51.9418 50.2941 51.8771C50.2348 51.8124 50.1336 51.808 50.0694 51.8674C49.8619 52.0577 49.6496 52.2476 49.4359 52.4318C49.3705 52.4895 49.3631 52.5901 49.4211 52.6566C49.452 52.6929 49.4964 52.7115 49.5409 52.7115ZM11.1178 53.2684C11.1647 53.2684 11.2104 53.2485 11.2413 53.21C11.2968 53.142 11.287 53.0416 11.219 52.9859C11.0005 52.8071 10.7832 52.6236 10.5708 52.4404C10.5041 52.3827 10.4041 52.39 10.346 52.4563C10.2892 52.5228 10.2966 52.6235 10.3621 52.6811C10.5757 52.8664 10.7967 53.0518 11.0178 53.2324C11.0474 53.2566 11.0832 53.2684 11.1178 53.2684ZM48.2226 53.7918C48.256 53.7918 48.2905 53.7809 48.3189 53.7586C48.5437 53.5853 48.7696 53.4058 48.9907 53.2252C49.0586 53.1693 49.0685 53.069 49.0129 53.0009C48.9573 52.9329 48.8573 52.9226 48.7882 52.9786C48.5696 53.1574 48.3473 53.3349 48.1251 53.5064C48.0547 53.5602 48.0423 53.6602 48.0967 53.7298C48.1275 53.7706 48.1745 53.7918 48.2226 53.7918ZM12.4663 54.3083C12.5157 54.3083 12.5639 54.2856 12.5948 54.2427C12.6466 54.1716 12.6306 54.072 12.5602 54.0202C12.3317 53.854 12.1033 53.6833 11.8823 53.5126C11.8131 53.459 11.7131 53.4717 11.6588 53.5414C11.6057 53.611 11.618 53.711 11.6872 53.7648C11.9107 53.9373 12.1416 54.1099 12.3725 54.2778C12.4009 54.2984 12.433 54.3083 12.4663 54.3083ZM46.8429 54.7955C46.8738 54.7955 46.9047 54.7864 46.9331 54.7677C47.1677 54.6069 47.4035 54.4405 47.6332 54.273C47.7048 54.2212 47.7196 54.1216 47.6678 54.0505C47.6172 53.9793 47.5171 53.9636 47.4455 54.0154C47.2183 54.1811 46.9849 54.3457 46.7528 54.5048C46.6799 54.5545 46.6614 54.6536 46.7108 54.7262C46.7417 54.7713 46.7923 54.7955 46.8429 54.7955ZM13.8704 55.2699C13.9223 55.2699 13.9742 55.2441 14.0038 55.1968C14.052 55.1228 14.031 55.0242 13.9569 54.9766C13.721 54.8251 13.484 54.6676 13.2518 54.5085C13.179 54.4589 13.0802 54.4773 13.0308 54.5499C12.9802 54.6225 12.9987 54.7216 13.0715 54.7714C13.3061 54.9322 13.5457 55.0913 13.784 55.2444C13.8112 55.2616 13.8408 55.2699 13.8704 55.2699ZM45.4085 55.7189C45.4369 55.7189 45.4653 55.7117 45.4912 55.696C45.7345 55.549 45.979 55.3964 46.2185 55.2419C46.2926 55.1943 46.3136 55.0958 46.2667 55.0218C46.2185 54.9478 46.1198 54.9266 46.0469 54.9741C45.8086 55.1269 45.5666 55.278 45.3258 55.4233C45.2505 55.4688 45.227 55.5667 45.2727 55.642C45.3023 55.6917 45.3554 55.7189 45.4085 55.7189ZM15.3261 56.1489C15.3817 56.1489 15.4348 56.1199 15.4644 56.068C15.5077 55.9915 15.4805 55.8943 15.4039 55.8509C15.1594 55.7123 14.9137 55.5687 14.6742 55.4239C14.5988 55.3784 14.5013 55.4025 14.4556 55.4779C14.4099 55.5532 14.4346 55.6511 14.5099 55.6966C14.752 55.8429 15.0001 55.9881 15.2471 56.1283C15.2718 56.1422 15.299 56.1489 15.3261 56.1489ZM43.9225 56.5593C43.9472 56.5593 43.9731 56.5533 43.9966 56.5408C44.2485 56.4078 44.5016 56.2692 44.7498 56.1289C44.8263 56.0856 44.8535 55.9884 44.8103 55.9119C44.7671 55.8353 44.6695 55.8084 44.593 55.8516C44.3472 55.9905 44.0966 56.1276 43.8484 56.2591C43.7706 56.3002 43.741 56.3965 43.7817 56.4743C43.8101 56.5284 43.8657 56.5593 43.9225 56.5593ZM16.8289 56.9434C16.8882 56.9434 16.9438 56.9108 16.9722 56.8545C17.0104 56.7756 16.9783 56.68 16.8993 56.6412C16.6486 56.5175 16.3955 56.3882 16.1461 56.2567C16.0683 56.2157 15.972 56.2453 15.9312 56.3231C15.8905 56.4009 15.9201 56.4972 15.9979 56.5385C16.2486 56.6712 16.5054 56.802 16.7585 56.9269C16.7808 56.9381 16.8055 56.9434 16.8289 56.9434ZM42.3906 57.3135C42.4128 57.3135 42.4351 57.3088 42.4573 57.2991C42.7166 57.1806 42.9771 57.0569 43.2327 56.931C43.3118 56.8921 43.3439 56.7966 43.3056 56.7176C43.2661 56.6387 43.171 56.6063 43.092 56.6451C42.8388 56.7697 42.5808 56.8922 42.3252 57.0092C42.2449 57.0458 42.2091 57.1404 42.2461 57.2203C42.2733 57.2789 42.3301 57.3135 42.3906 57.3135ZM18.3736 57.6505C18.4354 57.6505 18.4947 57.6139 18.5206 57.5533C18.5552 57.4723 18.5169 57.3788 18.4354 57.3445C18.1773 57.2349 17.9168 57.1203 17.6624 57.004C17.5834 56.9675 17.4883 57.0025 17.4513 57.0825C17.4154 57.1625 17.45 57.257 17.5303 57.2936C17.7871 57.4112 18.0501 57.527 18.3119 57.6379C18.3317 57.6464 18.3527 57.6505 18.3736 57.6505ZM40.8174 57.9787C40.836 57.9787 40.8557 57.9753 40.8755 57.9679C41.1409 57.8645 41.4089 57.7557 41.6707 57.6448C41.7522 57.6105 41.7904 57.517 41.7559 57.436C41.7213 57.355 41.6275 57.3171 41.5472 57.3513C41.2866 57.4612 41.0224 57.5686 40.7594 57.6709C40.6779 57.7029 40.6371 57.7952 40.6693 57.8771C40.6927 57.9402 40.7532 57.9787 40.8174 57.9787ZM19.9592 58.2687C20.0246 58.2687 20.0851 58.228 20.1086 58.1628C20.1382 58.0801 20.095 57.989 20.0123 57.9593C19.7468 57.8646 19.4801 57.7649 19.2183 57.6627C19.1368 57.631 19.0442 57.6713 19.0121 57.7533C18.98 57.8352 19.0207 57.9276 19.1022 57.9596C19.3677 58.0628 19.6369 58.1637 19.9048 58.2594C19.9233 58.2657 19.9406 58.2687 19.9592 58.2687ZM39.2072 58.5523C39.2232 58.5523 39.2393 58.5497 39.2566 58.5444C39.5282 58.4563 39.8011 58.3632 40.0703 58.2677C40.153 58.2382 40.1963 58.1469 40.1666 58.064C40.137 57.9812 40.0456 57.9381 39.9629 57.9675C39.6974 58.0621 39.427 58.1542 39.1578 58.2414C39.0738 58.2684 39.0281 58.3583 39.0553 58.442C39.0775 58.5093 39.1393 58.5523 39.2072 58.5523ZM21.5795 58.7954C21.6487 58.7954 21.7117 58.7504 21.7327 58.681C21.7574 58.5966 21.7092 58.5081 21.624 58.4832C21.3548 58.4041 21.0819 58.3198 20.8152 58.2329C20.7312 58.2054 20.6411 58.2515 20.6139 58.3351C20.5868 58.4188 20.6325 58.5087 20.7164 58.5358C20.9868 58.6238 21.2622 58.709 21.5351 58.789C21.5499 58.7933 21.5647 58.7954 21.5795 58.7954ZM37.5711 59.0307C37.5847 59.0307 37.5983 59.0289 37.6118 59.0255C37.8884 58.9531 38.1663 58.8762 38.4379 58.7968C38.5219 58.772 38.57 58.6836 38.5453 58.5991C38.5207 58.5148 38.433 58.4661 38.3478 58.4909C38.0786 58.5696 37.8045 58.6457 37.5316 58.7173C37.4464 58.7395 37.3945 58.8266 37.4167 58.9116C37.4365 58.9833 37.5007 59.0307 37.5711 59.0307ZM23.2278 59.2278C23.2995 59.2278 23.3661 59.1782 23.3822 59.1046C23.4032 59.0189 23.3488 58.9334 23.2636 58.9134C22.9895 58.8498 22.7129 58.7814 22.4413 58.71C22.3548 58.6876 22.2684 58.7385 22.2462 58.8236C22.2239 58.9087 22.2746 58.9958 22.3598 59.0182C22.6351 59.0903 22.9142 59.1594 23.192 59.2238C23.2031 59.2266 23.2155 59.2278 23.2278 59.2278ZM35.9116 59.4144L35.9424 59.4112C36.2202 59.3552 36.5018 59.2943 36.7796 59.2303C36.866 59.2105 36.9191 59.1249 36.8994 59.0392C36.8796 58.9535 36.7932 58.9002 36.708 58.9198C36.4339 58.9833 36.1548 59.0436 35.8794 59.0988C35.793 59.1162 35.7374 59.2001 35.7547 59.2863C35.7708 59.362 35.8362 59.4144 35.9116 59.4144ZM24.8972 59.5654C24.9737 59.5654 25.0416 59.5105 25.054 59.4331C25.07 59.3464 25.0108 59.264 24.9243 59.249C24.6477 59.2013 24.3674 59.149 24.0921 59.0932C24.0057 59.0756 23.9217 59.1316 23.9044 59.2178C23.8859 59.304 23.9427 59.388 24.0291 59.4055C24.3069 59.4618 24.5909 59.5149 24.87 59.563L24.8972 59.5654ZM34.2311 59.7022L34.2546 59.7006C34.5349 59.6607 34.8201 59.6161 35.1004 59.5681C35.1869 59.5532 35.2461 59.4709 35.2313 59.3842C35.2165 59.2974 35.1325 59.2392 35.0473 59.2541C34.7695 59.3016 34.488 59.3457 34.2089 59.3852C34.1225 59.3975 34.062 59.4782 34.0743 59.5652C34.0854 59.6447 34.1533 59.7022 34.2311 59.7022ZM26.5836 59.8066C26.6638 59.8066 26.733 59.7467 26.7416 59.6653C26.7515 59.5779 26.6898 59.499 26.6021 59.4891C26.323 59.4574 26.0402 59.421 25.7612 59.3812C25.6747 59.3684 25.5933 59.4292 25.5809 59.5163C25.5686 59.6035 25.6291 59.6841 25.7167 59.6966C25.9983 59.7368 26.2835 59.7735 26.5663 59.8056L26.5836 59.8066ZM32.5376 59.8933L32.5512 59.8928C32.834 59.869 33.1217 59.8407 33.4044 59.8087C33.4909 59.7989 33.5539 59.72 33.544 59.6325C33.5341 59.5452 33.4551 59.4829 33.3686 59.4921C33.0883 59.5238 32.8043 59.5518 32.5253 59.5754C32.4376 59.5827 32.3722 59.6597 32.3796 59.7474C32.387 59.8306 32.4561 59.8933 32.5376 59.8933ZM28.2816 59.9511C28.3655 59.9511 28.4359 59.8855 28.4409 59.8008C28.4458 59.7129 28.3791 59.6377 28.2902 59.6327C28.0099 59.6168 27.7259 59.5965 27.4456 59.5727C27.3604 59.5652 27.2814 59.6301 27.2728 59.7179C27.2653 59.8056 27.3308 59.8826 27.4185 59.8902C27.7012 59.9143 27.9889 59.9346 28.2729 59.9508L28.2816 59.9511ZM30.8377 59.9882H30.8414C31.1266 59.9804 31.4143 59.9683 31.6971 59.9525C31.7848 59.9476 31.8527 59.8725 31.8477 59.7846C31.8428 59.6968 31.7675 59.6296 31.6798 59.6344C31.3995 59.6501 31.1155 59.662 30.8327 59.6698C30.7451 59.6721 30.6759 59.7454 30.6784 59.8334C30.6808 59.9198 30.7512 59.9882 30.8377 59.9882ZM29.9855 60C30.0731 60 30.1447 59.9288 30.1447 59.8407C30.1447 59.7528 30.0731 59.6814 29.9855 59.6814C29.7039 59.6813 29.4187 59.6771 29.1371 59.6691C29.0507 59.6671 28.9766 59.7359 28.9742 59.8238C28.9717 59.9117 29.0408 59.9851 29.1285 59.9875C29.4125 59.9957 29.7014 59.9999 29.9855 60V60Z" fill="#FBB03B"/>
</svg>
