<svg width="60" height="60" viewBox="0 0 60 60" fill="none" xmlns="http://www.w3.org/2000/svg">
<mask id="mask0" style="mask-type:alpha" maskUnits="userSpaceOnUse" x="1" y="2" width="57" height="56">
<path fill-rule="evenodd" clip-rule="evenodd" d="M1.99834 30.0078C1.99834 45.4644 14.5278 57.9945 29.9851 57.9945C45.4417 57.9945 57.9718 45.4644 57.9718 30.0078C57.9718 14.5512 45.4417 2.02114 29.9851 2.02114C14.5278 2.02114 1.99834 14.5512 1.99834 30.0078" fill="white"/>
</mask>
<g mask="url(#mask0)">
<path fill-rule="evenodd" clip-rule="evenodd" d="M1.99833 30.0078C1.99833 45.4644 14.5278 57.9945 29.9851 57.9945C45.4417 57.9945 57.9719 45.4644 57.9719 30.0078C57.9719 14.5512 45.4417 2.02102 29.9851 2.02102C14.5278 2.02102 1.99833 14.5512 1.99833 30.0078" fill="#FCE3C3"/>
<path fill-rule="evenodd" clip-rule="evenodd" d="M19.52 40.7986C20.4325 45.6449 21.4115 50.4568 22.0333 55.3485C22.6223 59.9807 23.1896 64.6181 23.9268 69.2291C27.7232 69.3139 31.508 69.1543 35.2938 68.8601C39.063 68.5663 42.7898 68.0426 46.3298 66.6636C48.2074 65.9328 50.0269 65.037 51.755 63.991C50.0604 61.5304 49.0222 58.6941 47.8905 55.9502C46.678 53.0095 45.6373 49.9979 44.7726 46.9372C42.8865 40.2567 42.1361 33.5673 41.6871 26.6694C41.4315 22.7448 40.308 18.6193 37.6676 15.6064C35.0147 12.577 30.5704 10.8475 26.6662 12.3224C24.2549 13.2341 22.2903 15.123 20.9783 17.3429C20.3547 18.398 19.8694 19.527 19.4953 20.6947C19.394 21.0053 19.3026 21.3195 19.2174 21.6354C18.9507 22.6252 18.7532 23.6359 18.6087 24.6499C18.3864 26.226 18.2852 27.8074 18.279 29.3897C18.2666 33.2156 18.8124 37.0438 19.52 40.7986" fill="#345668"/>
<path fill-rule="evenodd" clip-rule="evenodd" d="M22.6918 41.5888C23.2149 41.9981 23.885 42.1527 24.5322 42.2952C25.3122 42.4687 26.0942 42.6421 26.8905 42.7C28.443 42.8132 29.9075 42.4228 31.4295 42.0975C31.5053 41.2035 31.5832 40.3092 31.659 39.4152C31.7542 38.297 31.8514 37.1766 32.0581 36.0734C32.1221 35.7353 32.1943 35.3987 32.2767 35.0651C32.476 34.2329 32.7223 33.4128 32.9684 32.5908C33.1708 31.9166 33.3731 31.2404 33.5753 30.5662C33.1347 30.9055 32.7331 31.0632 32.2157 31.2766C30.036 32.1756 27.8234 32.9911 25.6004 33.7774C24.9306 34.0136 24.255 34.2502 23.5509 34.3388L22.6918 41.5888" fill="#FFCFCA"/>
<path fill-rule="evenodd" clip-rule="evenodd" d="M23.0885 38.2431C25.5272 37.9037 27.915 37.2179 30.1336 36.1614C30.8391 35.8261 31.5725 35.4645 32.2767 35.0651C32.476 34.2329 32.7223 33.4128 32.9684 32.5908C33.1708 31.9166 33.3731 31.2404 33.5753 30.5662C33.1347 30.9055 32.7331 31.0632 32.2157 31.2766C30.036 32.1756 27.8234 32.9911 25.6004 33.7774C24.9306 34.0136 24.255 34.2502 23.5509 34.3388L23.0885 38.2431" fill="#F9BFBB"/>
<path fill-rule="evenodd" clip-rule="evenodd" d="M19.3535 31.9588C19.7301 33.2921 20.3228 34.5334 21.4242 35.4136C22.4009 36.194 23.6302 36.6607 24.8759 36.7473C26.2546 36.843 27.6281 36.5141 28.8784 35.911C29.5006 35.6107 30.0933 35.2427 30.6396 34.8245C31.5947 34.0936 32.4276 33.2167 33.1665 32.2715C34.3669 30.7326 35.3981 28.9412 36.0235 27.0415C36.7344 24.8941 36.9288 22.6074 36.2716 20.3956C36.0061 19.4939 35.5883 18.6389 35.0415 17.8728C32.7381 14.6399 28.2645 13.6196 24.7847 15.5346C22.972 16.5333 21.5178 18.1775 20.6302 20.0348C20.3487 20.6235 20.0943 21.2318 19.8745 21.8534C18.7274 25.0731 18.4237 28.6735 19.3535 31.9588" fill="#FFCFCA"/>
<path fill-rule="evenodd" clip-rule="evenodd" d="M19.4954 20.6947C20.5869 19.0773 21.6818 17.3921 23.1217 16.1135C24.4121 14.9676 26.0158 14.1867 27.7449 14.0284C31.0207 13.7287 34.84 14.9714 36.921 17.6166C37.9712 18.9514 38.449 20.6261 38.5187 22.2878C38.5885 23.9494 38.2468 25.4188 37.8301 27.0415C34.6658 26.7406 31.9078 24.735 30.2728 22.2109C29.0557 20.3318 28.3929 18.1937 28.0494 16.0049C27.0703 17.2721 25.9848 18.4577 24.7109 19.4294C23.1232 20.6402 21.2135 21.5058 19.2176 21.6353C19.3028 21.3193 19.3941 21.0052 19.4954 20.6947" fill="#345668"/>
<path fill-rule="evenodd" clip-rule="evenodd" d="M7.25347 77.6375C8.27218 76.1803 10.5035 73.3535 10.5035 73.3535C10.5035 73.3535 9.11925 54.8868 12.9212 46.9988C15.3377 44.4992 17.6887 42.252 21.1474 41.6086C23.6786 45.8523 24.4497 49.68 24.8663 54.6036C25.4187 61.1326 25.5781 68.0205 22.6311 73.8725C21.8149 75.4932 20.7782 76.9918 19.7249 78.4685C16.9441 82.368 13.8226 86.1304 10.3454 89.489C9.40942 90.3916 8.00052 90.5954 6.85216 89.9829L3.50464 88.1974C2.40937 87.6134 1.99942 86.2477 2.59212 85.1574C4.06153 82.4581 5.53958 80.0873 7.25347 77.6375" fill="#150F84"/>
<path fill-rule="evenodd" clip-rule="evenodd" d="M17.3333 43.8616C17.5185 43.3688 19.0163 42.3026 19.0163 42.3026C19.0163 42.3026 27.9753 40.4948 32.2276 41.0362C34.3539 41.3067 36.4545 41.7818 38.4886 42.4584C40.7205 43.2007 42.6711 44.0831 44.5121 45.5686C46.3907 47.0845 48.0536 48.8539 49.6302 50.6759C50.3917 51.5561 51.1329 52.4533 51.8698 53.3539C53.9871 55.9415 56.2067 58.5382 57.9776 61.3905C60.5323 65.5052 62.3856 70.763 59.9146 75.3605C58.4371 78.1091 56.0077 80.2391 53.6188 82.1839C50.7763 84.4979 47.6591 86.5773 44.3182 88.1257C43.3793 88.5616 42.257 88.2307 41.7223 87.3453C41.0112 86.1673 40.415 84.9288 39.8721 83.6619C39.5434 82.8951 39.6028 82.0184 40.0168 81.2936C42.2799 77.3299 45.0904 73.6148 48.564 69.9955C46.0111 67.564 43.4719 64.9923 41.4172 62.1593C41.2236 64.6063 41.1442 67.0566 41.2691 69.5124C41.3049 70.2185 41.3486 70.9679 41.0101 71.5887C40.5815 72.3747 39.6644 72.7379 38.811 73.0088C32.5967 74.9814 25.8511 75.2186 19.4966 73.7582C18.2137 73.4632 16.8714 73.0465 16.0688 71.9305C15.3403 70.9176 15.1637 69.614 14.96 68.4153C14.6155 66.3698 14.4068 64.3011 14.3339 62.228C14.1166 55.9885 15.1304 49.7046 17.3333 43.8616" fill="#150F84"/>
<path fill-rule="evenodd" clip-rule="evenodd" d="M20.9595 40.7174C21.0089 40.5264 21.0669 40.3345 21.1027 40.1525C21.247 39.403 21.1089 38.446 21.9357 37.9289C22.3419 37.6749 22.8432 37.7187 23.3125 37.7123C23.8662 37.7048 24.419 37.7148 24.9727 37.7029C26.1334 37.6783 27.2956 37.5599 28.4396 37.3511C29.0232 37.2445 29.6022 37.1144 30.1737 36.9613C30.6888 36.8231 31.2095 36.5911 31.7439 36.538C32.1281 36.4998 32.5468 36.5944 32.7677 36.8579C32.911 37.0286 32.9552 37.2466 32.9953 37.4568C33.1977 38.5197 33.3841 39.6032 33.213 40.6832C33.1603 41.0157 33.063 41.3638 32.794 41.614C32.1872 42.1786 30.8605 42.3541 30.0423 42.5283C27.3393 43.1037 24.4456 43.1805 21.9071 42.249C21.6009 42.1367 21.293 42.0048 21.0805 41.7859C20.7755 41.4704 20.8632 41.0955 20.9595 40.7174" fill="#DD5050"/>
<path fill-rule="evenodd" clip-rule="evenodd" d="M31.9667 41.7985C32.0102 41.7929 32.0467 41.763 32.0539 41.7238C32.3432 40.1389 32.3667 38.5378 32.1235 36.9653C32.1164 36.9193 32.0675 36.8883 32.0137 36.8953L32.0117 36.8956C31.9571 36.9036 31.9187 36.948 31.926 36.9946C32.1665 38.5509 32.1434 40.1353 31.8572 41.7039C31.8486 41.751 31.8856 41.7936 31.9401 41.7989L31.9667 41.7985" fill="#83B2A3"/>
<path fill-rule="evenodd" clip-rule="evenodd" d="M31.1192 42.0988L31.1209 42.0986C31.1755 42.0905 31.2139 42.0462 31.2069 41.9995C31.097 41.2805 31.114 40.5357 31.1303 39.8156L31.1851 37.4171C31.1867 37.3473 31.1988 37.3256 31.2086 37.3196C31.2544 37.2917 31.2665 37.2381 31.236 37.1998C31.2053 37.1616 31.1438 37.1531 31.0977 37.1811C30.9898 37.2471 30.9871 37.3643 30.9858 37.4206L30.9311 39.8191C30.9146 40.5456 30.8974 41.2968 31.0093 42.0287C31.0162 42.0747 31.0654 42.1059 31.1192 42.0988" fill="#83B2A3"/>
<path fill-rule="evenodd" clip-rule="evenodd" d="M30.0776 42.3131C30.1273 42.3066 30.1658 42.2692 30.166 42.2253C30.1744 40.672 30.1278 39.0999 30.0272 37.5528C30.0242 37.5058 29.9771 37.4712 29.9222 37.4758C29.8684 37.4811 29.8251 37.5222 29.8283 37.5693C29.9285 39.113 29.9751 40.6817 29.9667 42.2314C29.9665 42.2787 30.0108 42.3157 30.0659 42.3141L30.0776 42.3131" fill="#83B2A3"/>
<path fill-rule="evenodd" clip-rule="evenodd" d="M29.2286 42.4873C29.2813 42.4803 29.3205 42.4391 29.3168 42.3933C29.1956 40.8624 29.1719 39.305 29.2463 37.7641C29.2485 37.7168 29.2058 37.6784 29.1508 37.6784C29.0953 37.6791 29.0494 37.7167 29.0472 37.764C28.9726 39.3109 28.9963 40.8748 29.118 42.4118C29.1217 42.4589 29.1692 42.4928 29.2242 42.4877L29.2286 42.4873" fill="#83B2A3"/>
<path fill-rule="evenodd" clip-rule="evenodd" d="M28.2869 42.7508H28.2871C28.3418 42.7436 28.381 42.6999 28.3748 42.653C28.2827 41.9554 28.2619 41.1991 28.3069 40.2004L28.3113 40.1062C28.3273 39.7648 28.3437 39.4116 28.2938 39.0665C28.2766 38.9475 28.2515 38.8293 28.2264 38.7113C28.1784 38.4856 28.1331 38.2723 28.141 38.0525C28.1427 38.0052 28.0995 37.9673 28.0444 37.9676C27.9901 37.9674 27.9437 38.0067 27.9418 38.0542C27.9333 38.2919 27.9827 38.5242 28.0303 38.7487C28.0547 38.8636 28.0792 38.9785 28.096 39.0944C28.1439 39.4258 28.1278 39.7717 28.1122 40.1062L28.1079 40.2007C28.0623 41.2084 28.0836 41.9727 28.1769 42.6791C28.1831 42.7259 28.2324 42.7579 28.2869 42.7508" fill="#83B2A3"/>
<path fill-rule="evenodd" clip-rule="evenodd" d="M27.4706 42.6783L27.4741 42.6777C27.5285 42.6691 27.5661 42.6241 27.5582 42.5777C27.3071 41.1251 27.2253 39.639 27.3149 38.1604C27.3179 38.1131 27.2755 38.0743 27.2207 38.0737C27.1645 38.0728 27.1188 38.1112 27.116 38.1584C27.0256 39.6483 27.1081 41.1458 27.361 42.6096C27.3689 42.655 27.4175 42.6853 27.4706 42.6783" fill="#83B2A3"/>
<path fill-rule="evenodd" clip-rule="evenodd" d="M26.3759 42.644L26.3804 42.6434C26.4347 42.6341 26.4719 42.589 26.4634 42.5426C26.402 42.2088 26.4366 41.8567 26.4698 41.5161C26.4853 41.356 26.5015 41.1906 26.5081 41.0274C26.5223 40.6655 26.4892 40.2992 26.4573 39.9451C26.4042 39.3557 26.3493 38.7464 26.5187 38.1663C26.5321 38.12 26.4999 38.0745 26.4466 38.0648C26.3931 38.0549 26.339 38.0845 26.3255 38.1309C26.1481 38.7386 26.2042 39.362 26.2586 39.9651C26.2901 40.3147 26.3227 40.6761 26.3089 41.0285C26.3026 41.1874 26.2867 41.3507 26.2712 41.5086C26.2369 41.8594 26.2015 42.2219 26.2665 42.5759C26.2747 42.6211 26.3232 42.6509 26.3759 42.644" fill="#83B2A3"/>
<path fill-rule="evenodd" clip-rule="evenodd" d="M25.5142 42.5789C25.5673 42.5719 25.6064 42.53 25.6022 42.4841C25.4702 41.0527 25.4289 39.5957 25.4795 38.1533C25.4811 38.106 25.4379 38.068 25.3829 38.0685C25.3279 38.0684 25.2819 38.1076 25.2802 38.155C25.2296 39.6037 25.2711 41.0669 25.4037 42.5043C25.408 42.5514 25.4559 42.585 25.5107 42.5793L25.5142 42.5789" fill="#83B2A3"/>
<path fill-rule="evenodd" clip-rule="evenodd" d="M24.542 42.363C24.5957 42.3559 24.6351 42.3133 24.6302 42.267C24.4917 40.963 24.3485 39.6144 24.6083 38.2896C24.6176 38.2426 24.5811 38.1997 24.5268 38.1937C24.4721 38.1878 24.4211 38.2209 24.4119 38.2678C24.1478 39.6147 24.2921 40.9744 24.4316 42.2894C24.4367 42.3363 24.4851 42.3694 24.5399 42.3632L24.542 42.363" fill="#83B2A3"/>
<path fill-rule="evenodd" clip-rule="evenodd" d="M23.6989 42.5072C23.7487 42.5007 23.7875 42.4629 23.7872 42.4187L23.7703 38.2886C23.7701 38.2413 23.7254 38.2046 23.6703 38.2067C23.617 38.2078 23.5708 38.2488 23.571 38.2961L23.5881 42.4264C23.5883 42.4737 23.633 42.5102 23.6881 42.5081L23.6989 42.5072" fill="#83B2A3"/>
<path fill-rule="evenodd" clip-rule="evenodd" d="M22.6968 42.2447C22.7481 42.238 22.7871 42.1985 22.7852 42.1536C22.7325 40.8722 22.7669 39.5712 22.8871 38.2867C22.8916 38.2394 22.8507 38.1995 22.7959 38.1975C22.7414 38.195 22.693 38.2324 22.6884 38.2797C22.5676 39.5709 22.5331 40.8785 22.5861 42.1665C22.5882 42.2137 22.6342 42.249 22.6892 42.2454L22.6968 42.2447" fill="#83B2A3"/>
<path fill-rule="evenodd" clip-rule="evenodd" d="M21.7275 41.8716L21.7481 41.8669C21.8003 41.8501 21.8285 41.8006 21.8109 41.7563C21.6889 41.448 21.7438 41.1146 21.8018 40.7615C21.8286 40.5991 21.8563 40.4312 21.865 40.2658C21.8721 40.1336 21.867 40.0011 21.8622 39.8729C21.8573 39.7444 21.8522 39.6114 21.8598 39.4822C21.8847 39.0586 22.0457 38.6401 22.2015 38.2355C22.2189 38.19 22.1908 38.1425 22.1387 38.1292C22.0863 38.1159 22.03 38.1421 22.0125 38.1876C21.8524 38.6034 21.687 39.0334 21.6607 39.4805C21.6528 39.6168 21.658 39.7534 21.663 39.8855C21.6678 40.0102 21.6726 40.1394 21.6661 40.2648C21.6576 40.422 21.6307 40.5859 21.6046 40.7443C21.5458 41.1015 21.485 41.4711 21.622 41.8172C21.6372 41.8557 21.6819 41.8775 21.7275 41.8716" fill="#83B2A3"/>
<path fill-rule="evenodd" clip-rule="evenodd" d="M32.2511 31.6394C33.246 32.5164 34.7198 32.8166 35.9741 32.3814C37.0338 32.0147 37.8963 31.1332 38.2632 30.0766C38.3294 29.8848 38.3791 29.6882 38.4123 29.4851C38.469 29.1316 38.4707 28.7667 38.3876 28.419C38.1778 27.5607 37.406 26.8835 36.5373 26.7274C35.6666 26.5714 34.7373 26.9154 34.1317 27.559L32.2511 31.6394" fill="#FFCFCA"/>
<path fill-rule="evenodd" clip-rule="evenodd" d="M17.937 73.3075C17.4456 73.0235 16.9405 72.7773 16.4775 72.4928C16.0144 72.2102 15.602 71.8689 15.3439 71.417C15.2143 71.1927 15.118 70.9465 15.0538 70.6895C14.9871 70.4311 14.9587 70.1843 14.9871 69.92C15.0118 69.6556 15.0624 69.3773 15.1007 69.0989C15.1414 68.8201 15.1735 68.539 15.2032 68.2586C15.2575 67.697 15.2884 67.1351 15.3069 66.5736C15.3279 66.0122 15.3267 65.4485 15.3143 64.8881C15.2933 63.7661 15.2316 62.648 15.1686 61.5306C15.0427 59.2959 14.8698 57.0659 14.9192 54.8304C14.9575 52.5959 15.139 50.3622 15.4699 48.1493C15.1019 50.3564 14.8834 52.5893 14.808 54.8276C14.7204 57.0677 14.8562 59.3084 14.9451 61.5415C14.9896 62.6587 15.0328 63.776 15.0352 64.8912C15.039 65.4493 15.0303 66.0047 14.9994 66.5609C14.9735 67.117 14.934 67.6722 14.8698 68.223C14.8364 68.4984 14.8006 68.7728 14.7562 69.0467C14.713 69.3214 14.6586 69.5933 14.6265 69.8854C14.5883 70.1778 14.6179 70.4962 14.6883 70.7793C14.7549 71.0659 14.8599 71.3477 15.0056 71.6101C15.1526 71.8716 15.3427 72.1105 15.5588 72.3137C15.7761 72.5174 16.0132 72.6905 16.2565 72.845C16.7417 73.1538 17.2406 73.4058 17.7135 73.6897L17.937 73.3075" fill="#97C6B7"/>
<path fill-rule="evenodd" clip-rule="evenodd" d="M41.4615 44.8908C40.918 45.2861 40.4559 45.8012 40.0949 46.3784C39.7295 46.9546 39.463 47.5898 39.2611 48.2398C39.0573 48.8905 38.9313 49.5627 38.8432 50.2346C38.7557 50.907 38.718 51.5843 38.7038 52.261C38.6972 52.938 38.7257 53.6147 38.7834 54.2882C38.8469 54.9612 38.9355 55.6318 39.0646 56.2947C39.316 57.6216 39.7246 58.9277 40.3548 60.1158C39.8943 58.854 39.59 57.5538 39.4055 56.2382C39.3188 55.5789 39.2394 54.9187 39.2014 54.2555C39.1574 53.5932 39.1327 52.9294 39.1463 52.2665C39.1517 51.6037 39.1873 50.9411 39.2584 50.2828C39.2894 49.9527 39.3356 49.6264 39.3888 49.3006C39.4478 48.9763 39.5116 48.6527 39.5924 48.3332C39.6754 48.0147 39.7696 47.6984 39.8848 47.3902C39.9371 47.2337 40.0056 47.0841 40.0665 46.9306C40.1378 46.7827 40.2021 46.6301 40.2823 46.4862C40.5813 45.8971 40.9813 45.3608 41.4615 44.8908" fill="#97C6B7"/>
<path fill-rule="evenodd" clip-rule="evenodd" d="M33.3265 42.486C33.3721 42.486 33.4148 42.4576 33.4308 42.4122C33.4513 42.3546 33.4211 42.2912 33.3635 42.2709C33.2243 42.2215 33.085 42.1725 32.9456 42.1234C32.8878 42.1032 32.8247 42.1336 32.8044 42.1912C32.7842 42.2489 32.8146 42.3121 32.8722 42.3324C33.0115 42.3813 33.1505 42.4303 33.2896 42.4795C33.3018 42.4839 33.3143 42.486 33.3265 42.486" fill="#97C6B7"/>
<path fill-rule="evenodd" clip-rule="evenodd" d="M35.0022 43.0891C35.0472 43.0891 35.0897 43.0612 35.106 43.0164C35.127 42.959 35.0975 42.8954 35.0401 42.8744C34.7611 42.7724 34.482 42.6711 34.2024 42.5706C34.145 42.55 34.0814 42.5797 34.0608 42.6373C34.0401 42.6948 34.0699 42.7582 34.1274 42.7789C34.4065 42.8793 34.6854 42.9804 34.9641 43.0823C34.9766 43.0869 34.9895 43.0891 35.0022 43.0891ZM36.6718 43.7092C36.7165 43.7092 36.7587 43.6818 36.7754 43.6374C36.797 43.5803 36.7681 43.5163 36.7108 43.4948C36.4328 43.39 36.1546 43.2859 35.8762 43.1825C35.8189 43.1614 35.7551 43.1904 35.7338 43.2479C35.7126 43.3052 35.7418 43.3689 35.7991 43.3902C36.0772 43.4935 36.355 43.5973 36.6327 43.7019C36.6456 43.7068 36.6588 43.7092 36.6718 43.7092ZM38.3347 44.3465C38.3788 44.3465 38.4206 44.3199 38.4377 44.2763C38.4602 44.2194 38.4322 44.1552 38.3754 44.1327C38.1829 44.0568 37.9899 43.9822 37.7972 43.9081L37.5437 43.8109C37.4867 43.7891 37.4226 43.8176 37.4008 43.8748C37.379 43.9319 37.4075 43.9959 37.4646 44.0178L37.7178 44.1148C37.91 44.1887 38.1022 44.263 38.2941 44.3387C38.3075 44.344 38.3212 44.3465 38.3347 44.3465ZM39.971 45.0493C40.0121 45.0493 40.0517 45.0262 40.0707 44.9866C40.0973 44.9314 40.0741 44.8653 40.019 44.8388C39.766 44.7171 39.499 44.5966 39.2028 44.4704C39.1465 44.4465 39.0814 44.4727 39.0575 44.5288C39.0336 44.5851 39.0597 44.6501 39.116 44.674C39.409 44.7989 39.673 44.918 39.9229 45.0383C39.9385 45.0457 39.9548 45.0493 39.971 45.0493ZM41.5185 45.9279C41.5539 45.9279 41.5886 45.9109 41.6101 45.8795C41.6446 45.8289 41.6314 45.76 41.5809 45.7257C41.3429 45.5639 41.0855 45.4048 40.8157 45.2528C40.7624 45.2226 40.6949 45.2416 40.6649 45.2949C40.6349 45.3481 40.6536 45.4156 40.707 45.4456C40.9714 45.5947 41.2235 45.7505 41.4563 45.9088C41.4754 45.9218 41.497 45.9279 41.5185 45.9279ZM42.8908 47.0594C42.9197 47.0594 42.9486 47.0482 42.9702 47.0258C43.0128 46.982 43.0118 46.912 42.968 46.8693C42.7447 46.6523 42.52 46.4498 42.3002 46.2674C42.253 46.2285 42.1834 46.235 42.1442 46.2819C42.1053 46.3291 42.1118 46.3988 42.1588 46.4378C42.3743 46.6165 42.5944 46.8151 42.8137 47.0281C42.8352 47.0489 42.863 47.0594 42.8908 47.0594ZM44.0985 48.3676C44.124 48.3676 44.1494 48.3589 44.1703 48.3411C44.2168 48.3015 44.2225 48.2317 44.1829 48.1852C43.9704 47.9355 43.777 47.7158 43.5917 47.5137C43.5504 47.4686 43.4803 47.4657 43.4352 47.5069C43.3901 47.5483 43.3871 47.6183 43.4284 47.6634C43.6119 47.8634 43.8034 48.081 44.0142 48.3285C44.0362 48.3543 44.0672 48.3676 44.0985 48.3676ZM45.2339 49.7395C45.2586 49.7395 45.2834 49.7314 45.304 49.7145C45.3513 49.6757 45.3582 49.6059 45.3193 49.5586L44.7544 48.8701C44.7155 48.8231 44.6456 48.8161 44.5986 48.8549C44.5513 48.8938 44.5445 48.9636 44.5834 49.0109L45.1482 49.699C45.17 49.7257 45.2019 49.7395 45.2339 49.7395ZM46.3622 51.1179C46.3868 51.1179 46.4115 51.1098 46.4321 51.093C46.4794 51.0544 46.4866 50.9846 46.4479 50.9372C46.2601 50.7071 46.0723 50.4773 45.8842 50.2477C45.8455 50.2002 45.7757 50.1933 45.7284 50.232C45.6811 50.2708 45.6742 50.3405 45.7128 50.3878C45.9009 50.6175 46.0887 50.8473 46.2763 51.0772C46.2983 51.104 46.33 51.1179 46.3622 51.1179ZM47.4845 52.5009C47.5091 52.5009 47.5335 52.4927 47.554 52.4763C47.6016 52.4379 47.6091 52.3683 47.5707 52.3206C47.3841 52.0896 47.1973 51.8588 47.0101 51.6283C46.9715 51.5808 46.9018 51.5737 46.8544 51.6121C46.8069 51.6506 46.7997 51.7204 46.8382 51.7678C47.0253 51.9982 47.212 52.2289 47.3983 52.4596C47.4203 52.4868 47.4523 52.5009 47.4845 52.5009ZM48.5978 53.8912C48.6219 53.8912 48.6462 53.8833 48.6666 53.8671C48.7145 53.8292 48.7225 53.7596 48.6845 53.7117C48.5 53.479 48.3148 53.2468 48.1291 53.0149C48.0908 52.9671 48.0213 52.9596 47.9735 52.9977C47.9257 53.0359 47.9181 53.1056 47.9562 53.1533C48.1417 53.3849 48.3267 53.6168 48.511 53.8492C48.533 53.8768 48.5652 53.8912 48.5978 53.8912ZM49.6972 55.2923C49.7209 55.2923 49.7448 55.2848 49.765 55.2691C49.8133 55.2316 49.8222 55.1621 49.7846 55.1138C49.6027 54.879 49.42 54.6448 49.2365 54.4111C49.1988 54.3628 49.1292 54.3545 49.0812 54.3923C49.033 54.43 49.0246 54.4996 49.0624 54.5476C49.2455 54.7811 49.428 55.015 49.6097 55.2494C49.6315 55.2776 49.6641 55.2923 49.6972 55.2923ZM50.7792 56.7072C50.8023 56.7072 50.8257 56.7001 50.8456 56.685C50.8944 56.6482 50.9041 56.5788 50.8675 56.5299C50.6888 56.2926 50.5092 56.0559 50.3287 55.8198C50.2917 55.7713 50.2224 55.7618 50.1735 55.799C50.125 55.8362 50.1157 55.9056 50.1529 55.9543C50.3329 56.19 50.5122 56.4262 50.6905 56.6631C50.7122 56.692 50.7455 56.7072 50.7792 56.7072ZM51.8377 58.1396C51.8603 58.1396 51.883 58.1326 51.9027 58.1183C51.9522 58.0825 51.9632 58.0132 51.9272 57.9637C51.7526 57.7233 51.5769 57.4836 51.4001 57.2447C51.3638 57.1956 51.2944 57.1853 51.2454 57.2215C51.1962 57.2579 51.1859 57.3272 51.2222 57.3763C51.3985 57.6148 51.5738 57.8538 51.7481 58.0939C51.7697 58.1236 51.8035 58.1396 51.8377 58.1396ZM52.8697 59.5913C52.8916 59.5913 52.9136 59.5849 52.9328 59.5716C52.9831 59.5366 52.9954 59.4676 52.9605 59.4175C52.7908 59.1735 52.6198 58.9304 52.4476 58.6881C52.4121 58.6383 52.3431 58.6266 52.2931 58.662C52.2433 58.6975 52.2317 58.7666 52.267 58.8165C52.4389 59.058 52.6096 59.3004 52.7787 59.5438C52.8003 59.5748 52.8348 59.5913 52.8697 59.5913ZM53.8706 61.0647C53.8916 61.0647 53.9128 61.0588 53.9316 61.0463C53.9826 61.0126 53.9965 60.9439 53.9628 60.8929C53.7987 60.645 53.6331 60.3981 53.4661 60.1522C53.4317 60.1015 53.363 60.0885 53.3125 60.1228C53.2618 60.1571 53.2486 60.226 53.2831 60.2765C53.4495 60.5217 53.6146 60.768 53.7781 61.015C53.7995 61.0473 53.8347 61.0647 53.8706 61.0647ZM54.8341 62.5623C54.8542 62.5623 54.8744 62.5569 54.8926 62.5454C54.9445 62.5131 54.9603 62.4448 54.9279 62.3929C54.7702 62.1408 54.6109 61.8896 54.4501 61.6397C54.4168 61.5883 54.3484 61.5735 54.2971 61.6066C54.2456 61.6397 54.2309 61.7082 54.2639 61.7596C54.4242 62.0087 54.583 62.2589 54.7401 62.5102C54.7611 62.5438 54.7972 62.5623 54.8341 62.5623ZM55.7497 64.0894C55.7681 64.0894 55.7868 64.0848 55.8039 64.0752C55.8573 64.045 55.8759 63.9775 55.8459 63.9243C55.7069 63.6781 55.5593 63.4257 55.3948 63.1527C55.3635 63.1004 55.2953 63.0834 55.243 63.115C55.1906 63.1466 55.1737 63.2145 55.2053 63.267C55.3685 63.5382 55.5151 63.7888 55.6532 64.0332C55.6735 64.0692 55.7111 64.0894 55.7497 64.0894ZM56.5644 65.6729C56.5797 65.6729 56.5954 65.6697 56.6103 65.6629C56.6659 65.6373 56.6904 65.5716 56.665 65.516C56.5458 65.2556 56.4137 64.9847 56.2721 64.7108C56.2442 64.6566 56.1773 64.6351 56.1229 64.6633C56.0687 64.6913 56.0474 64.7581 56.0755 64.8125C56.2154 65.0833 56.3459 65.351 56.4636 65.6082C56.4823 65.6488 56.5224 65.6729 56.5644 65.6729ZM57.2022 67.3345L57.2344 67.3297C57.2931 67.3118 57.326 67.25 57.3081 67.1915C57.224 66.9151 57.1252 66.6294 57.0142 66.3423C56.9923 66.2853 56.9282 66.257 56.8711 66.2791C56.8141 66.3011 56.7857 66.3652 56.8078 66.4222C56.9168 66.7042 57.0139 66.9847 57.0963 67.2559C57.1108 67.3037 57.1548 67.3345 57.2022 67.3345ZM57.5636 69.0756L57.5753 69.075C57.6361 69.0686 57.6801 69.0142 57.6738 68.9534C57.6435 68.6626 57.596 68.3631 57.5329 68.063C57.5204 68.0032 57.4616 67.965 57.4018 67.9775C57.342 67.99 57.3036 68.0488 57.3164 68.1085C57.3779 68.4013 57.424 68.6932 57.4537 68.9763C57.4596 69.0333 57.5076 69.0756 57.5636 69.0756ZM57.5378 70.8523C57.5921 70.8523 57.6396 70.8123 57.6473 70.7568C57.6527 70.7183 57.6578 70.6797 57.6626 70.6409C57.6946 70.3836 57.7125 70.1192 57.7158 69.8554C57.7167 69.7943 57.6678 69.7441 57.6067 69.7432C57.5438 69.747 57.4952 69.7914 57.4944 69.8525C57.4911 70.1082 57.4737 70.3643 57.4428 70.6136C57.4381 70.6513 57.4332 70.6888 57.428 70.7263C57.4196 70.787 57.4618 70.8429 57.5223 70.8513L57.5378 70.8523ZM57.0909 72.5712C57.1356 72.5712 57.1776 72.544 57.1944 72.4997C57.3024 72.2148 57.3949 71.9261 57.4694 71.6415C57.4849 71.5824 57.4495 71.522 57.3903 71.5064C57.3312 71.4911 57.2706 71.5264 57.2551 71.5856C57.1826 71.8625 57.0926 72.1437 56.9874 72.4211C56.9657 72.4783 56.9945 72.5423 57.0516 72.5639C57.0646 72.5688 57.0778 72.5712 57.0909 72.5712ZM56.3118 74.17C56.3496 74.17 56.3864 74.1506 56.4071 74.1159C56.5635 73.8526 56.7078 73.5868 56.8358 73.3254C56.8628 73.2705 56.84 73.2042 56.7851 73.1773C56.73 73.1503 56.6638 73.1732 56.637 73.2281C56.5116 73.484 56.3701 73.7446 56.2168 74.0026C56.1856 74.0553 56.2028 74.1232 56.2554 74.1544C56.2732 74.1649 56.2927 74.17 56.3118 74.17ZM55.3038 75.636C55.3368 75.636 55.3694 75.6213 55.3912 75.5933C55.5793 75.3516 55.758 75.1086 55.9219 74.871C55.9566 74.8208 55.944 74.7518 55.8938 74.7171C55.8435 74.6821 55.7745 74.6948 55.7398 74.7452C55.578 74.9793 55.4021 75.2189 55.2165 75.4572C55.179 75.5055 55.1875 75.575 55.2358 75.6127C55.256 75.6283 55.28 75.636 55.3038 75.636ZM54.1462 76.9893C54.1759 76.9893 54.2056 76.9775 54.2274 76.9539C54.4365 76.7284 54.6372 76.5039 54.8235 76.2866C54.8634 76.2402 54.858 76.1703 54.8115 76.1305C54.7652 76.0907 54.6953 76.0958 54.6556 76.1425C54.471 76.3576 54.2723 76.58 54.065 76.8034C54.0235 76.8482 54.0261 76.9182 54.0709 76.9598C54.0923 76.9796 54.1192 76.9893 54.1462 76.9893ZM52.8949 78.2576C52.9227 78.2576 52.9502 78.2478 52.9717 78.2268C53.1952 78.0119 53.4093 77.8008 53.6083 77.5995C53.6513 77.5563 53.6508 77.4859 53.6074 77.4427C53.5639 77.3995 53.4938 77.4007 53.4508 77.4439C53.2531 77.6439 53.0403 77.8539 52.8181 78.0675C52.7741 78.1107 52.7728 78.1798 52.8152 78.2243C52.837 78.2465 52.8659 78.2576 52.8949 78.2576ZM51.5907 79.4712C51.6172 79.4712 51.6439 79.4626 51.665 79.4428C51.8832 79.2453 52.1029 79.044 52.3228 78.8402C52.3676 78.7983 52.3702 78.7279 52.3286 78.6834C52.287 78.639 52.2168 78.6365 52.1721 78.6773C51.953 78.881 51.7338 79.081 51.5163 79.2786C51.471 79.3193 51.4676 79.3897 51.5087 79.4354C51.5305 79.4589 51.5605 79.4712 51.5907 79.4712ZM50.2569 80.6517C50.2822 80.6517 50.3076 80.6431 50.3285 80.6258C50.5583 80.4307 50.785 80.2331 51.0024 80.0393C51.048 79.9985 51.0521 79.9294 51.0114 79.8837C50.9707 79.838 50.9008 79.833 50.855 79.8738C50.6389 80.0664 50.4136 80.2628 50.1852 80.4566C50.1386 80.4961 50.1329 80.5665 50.1724 80.6134C50.1944 80.6381 50.2255 80.6517 50.2569 80.6517ZM48.8738 81.7743C48.8976 81.7743 48.9215 81.7669 48.9417 81.7508C49.1779 81.5669 49.4133 81.3804 49.641 81.1964C49.6884 81.1569 49.6957 81.0878 49.6573 81.0396C49.6187 80.9927 49.549 80.9853 49.5014 81.0235C49.275 81.2075 49.041 81.394 48.8059 81.5755C48.7576 81.6138 48.7488 81.6829 48.7864 81.7311C48.8082 81.7595 48.8408 81.7743 48.8738 81.7743ZM47.4485 82.8424C47.4709 82.8424 47.4937 82.835 47.5132 82.8202C47.7543 82.6461 47.994 82.4707 48.2321 82.2917C48.281 82.2559 48.291 82.1855 48.2543 82.1373C48.2177 82.0879 48.1483 82.0781 48.0993 82.1151C47.8622 82.2929 47.6236 82.4682 47.3835 82.6411C47.3339 82.6769 47.3228 82.7461 47.3587 82.7955C47.3803 82.8263 47.4141 82.8424 47.4485 82.8424ZM45.9908 83.866C46.0124 83.866 46.034 83.8586 46.0533 83.8462C46.2986 83.6783 46.5431 83.5091 46.7864 83.3387C46.8364 83.3029 46.8486 83.2338 46.8134 83.1844C46.7783 83.1337 46.7092 83.1214 46.6592 83.1572C46.4167 83.3276 46.1729 83.4955 45.9282 83.6635C45.8777 83.698 45.8648 83.7672 45.8994 83.8166C45.9208 83.8487 45.9555 83.866 45.9908 83.866ZM44.511 84.8565C44.5319 84.8565 44.553 84.8503 44.5718 84.838C44.8201 84.675 45.0678 84.5107 45.3147 84.3453C45.3656 84.3119 45.3792 84.2428 45.3452 84.1922C45.3113 84.1415 45.2425 84.1279 45.1916 84.1613C44.9453 84.3268 44.698 84.491 44.4501 84.6527C44.3991 84.6873 44.3848 84.7552 44.4185 84.8071C44.4398 84.8392 44.4751 84.8565 44.511 84.8565ZM43.0169 85.8253C43.0374 85.8253 43.0581 85.8204 43.0767 85.808C43.3265 85.6475 43.576 85.487 43.8252 85.3252C43.8764 85.2919 43.8911 85.2228 43.8578 85.1721C43.8246 85.1203 43.756 85.1055 43.7048 85.1388C43.4557 85.3005 43.2064 85.4611 42.9569 85.6216C42.9054 85.6549 42.8906 85.7241 42.9237 85.7747C42.9448 85.808 42.9805 85.8253 43.0169 85.8253V85.8253Z" fill="#97C6B7"/>
<path fill-rule="evenodd" clip-rule="evenodd" d="M26.8095 26.6355C26.9136 26.0137 27.3274 25.565 27.7339 25.6329C28.1404 25.7009 28.3856 26.26 28.2817 26.8817C28.1777 27.5034 27.7638 27.9523 27.3573 27.8843C26.9508 27.8162 26.7056 27.2571 26.8095 26.6355" fill="#1F3C49"/>
<path fill-rule="evenodd" clip-rule="evenodd" d="M21.1819 26.0849C21.2831 25.4784 21.6869 25.0405 22.0834 25.1069C22.4799 25.1732 22.7191 25.7186 22.6177 26.3252C22.5162 26.9316 22.1124 27.3694 21.7159 27.3031C21.3195 27.2368 21.0806 26.6914 21.1819 26.0849" fill="#1F3C49"/>
<path fill-rule="evenodd" clip-rule="evenodd" d="M29.0566 24.2321C29.1217 24.2321 29.1861 24.2036 29.2298 24.1488C29.3061 24.0532 29.2905 23.9139 29.1948 23.8376C28.5956 23.3595 27.7218 23.2469 27.0209 23.5572C26.909 23.6068 26.8585 23.7375 26.908 23.8493C26.9576 23.9612 27.0883 24.0118 27.2002 23.9622C27.7545 23.7167 28.445 23.8059 28.9188 24.1838C28.9595 24.2163 29.0083 24.2321 29.0566 24.2321" fill="#1F3C49"/>
<path fill-rule="evenodd" clip-rule="evenodd" d="M23.264 23.7142C23.3316 23.7142 23.3986 23.6832 23.4419 23.6247C23.5147 23.5264 23.4941 23.3877 23.396 23.3148C22.8289 22.8945 22.0199 22.8161 21.3829 23.1197C21.2725 23.1723 21.2257 23.3045 21.2783 23.4149C21.3309 23.5253 21.463 23.5722 21.5734 23.5196C22.0668 23.2842 22.6932 23.3451 23.1322 23.6706C23.1718 23.7 23.218 23.7142 23.264 23.7142" fill="#1F3C49"/>
<path fill-rule="evenodd" clip-rule="evenodd" d="M24.6083 28.13C24.4617 27.9669 24.2125 27.896 23.9768 27.9376C23.7368 27.976 23.5149 28.1458 23.4026 28.3644C23.2846 28.5799 23.2689 28.8591 23.3721 29.0793C23.4702 29.2979 23.6691 29.4641 23.8867 29.4932C23.7355 29.3397 23.6512 29.1672 23.6198 28.9968C23.5885 28.8274 23.6199 28.6654 23.6961 28.5197C23.7734 28.3746 23.8897 28.2573 24.0477 28.188C24.2062 28.118 24.3965 28.091 24.6083 28.13" fill="#1F3C49"/>
<path fill-rule="evenodd" clip-rule="evenodd" d="M21.2901 30.3003L21.2875 30.3156C21.1735 31.0003 21.3288 31.6703 21.6773 32.2189C22.0916 32.8715 22.7777 33.354 23.6097 33.4927C24.5063 33.6421 25.3728 33.359 25.986 32.7978C26.4237 32.4005 26.7334 31.8618 26.837 31.2404L26.8396 31.2251L21.2901 30.3003" fill="#EA5353"/>
<path fill-rule="evenodd" clip-rule="evenodd" d="M21.6773 32.2189C22.0915 32.8715 22.7777 33.354 23.6097 33.4927C24.5063 33.6421 25.3728 33.359 25.986 32.7978C25.7732 32.6737 25.5513 32.5638 25.3263 32.4656C24.4664 32.09 23.5156 31.8687 22.5844 31.9951C22.2743 32.0377 21.9726 32.1166 21.6773 32.2189" fill="#FF948F"/>
<path fill-rule="evenodd" clip-rule="evenodd" d="M21.8062 30.3864C21.871 30.4555 21.9385 30.5218 22.0084 30.5873C23.0402 31.5483 25.0777 32.1382 26.2452 31.1263L21.8062 30.3864" fill="white"/>
<path fill-rule="evenodd" clip-rule="evenodd" d="M27.3802 26.2941C27.724 26.2941 27.7247 26.8287 27.3802 26.8287C27.0361 26.8287 27.0355 26.2941 27.3802 26.2941" fill="white"/>
<path fill-rule="evenodd" clip-rule="evenodd" d="M21.7254 25.7002C22.0695 25.7002 22.07 26.2347 21.7254 26.2347C21.3816 26.2347 21.3809 25.7002 21.7254 25.7002" fill="white"/>
</g>
<path fill-rule="evenodd" clip-rule="evenodd" d="M30.8942 0.331664C30.9799 0.331664 31.0508 0.263381 31.0533 0.177069C31.0559 0.0891518 30.9867 0.0156818 30.8987 0.0130888C30.6144 0.0046922 30.3262 0.000370437 30.0423 0H30.042C29.9541 0 29.8829 0.0711239 29.8828 0.159041C29.8826 0.247081 29.9539 0.318452 30.0418 0.318576C30.3228 0.318946 30.608 0.323268 30.8892 0.331541L30.8942 0.331664ZM28.3387 0.362983L28.3476 0.362736C28.6275 0.347301 28.9124 0.335818 29.1944 0.328285C29.2823 0.325939 29.3517 0.252716 29.3494 0.164799C29.3472 0.0768822 29.2778 0.00415313 29.1859 0.00983316C28.9009 0.0173654 28.6129 0.0290959 28.3301 0.0446542C28.2423 0.0494699 28.175 0.124669 28.1799 0.212462C28.1845 0.297292 28.2549 0.362983 28.3387 0.362983ZM32.5955 0.429753C32.6773 0.429753 32.7469 0.367149 32.7541 0.284171C32.7616 0.196501 32.6967 0.119327 32.6091 0.111795C32.3268 0.0874694 32.0392 0.0667249 31.7547 0.0503022C31.6673 0.0454866 31.5916 0.112289 31.5865 0.200206C31.5813 0.287999 31.6484 0.363321 31.7363 0.368384C32.018 0.384683 32.3023 0.405057 32.5816 0.429259L32.5955 0.429753ZM26.6404 0.50527L26.6583 0.504282C26.9381 0.472918 27.2219 0.445259 27.5018 0.421921C27.5895 0.414636 27.6546 0.337585 27.6474 0.249915C27.6401 0.162245 27.5634 0.095937 27.4754 0.104457C27.1925 0.128042 26.9056 0.155948 26.6229 0.187682C26.5354 0.197437 26.4725 0.276216 26.4823 0.363639C26.4913 0.445135 26.5604 0.50527 26.6404 0.50527ZM34.2881 0.62421C34.3662 0.62421 34.4342 0.566915 34.4457 0.487518C34.4582 0.400466 34.3978 0.319711 34.3106 0.307239C34.0295 0.266738 33.7437 0.229818 33.4612 0.197343C33.3743 0.186971 33.2948 0.250068 33.2848 0.337368C33.2746 0.424791 33.3375 0.503818 33.4248 0.513819C33.7043 0.545924 33.9871 0.582597 34.2653 0.622604L34.2881 0.62421ZM24.9531 0.743562L24.98 0.741216C25.2576 0.693923 25.5393 0.650212 25.8174 0.610946C25.9046 0.598598 25.9652 0.517966 25.953 0.430913C25.9407 0.343737 25.8599 0.283479 25.773 0.295457C25.4918 0.335094 25.2071 0.379423 24.9265 0.427209C24.8398 0.441903 24.7816 0.524263 24.7962 0.610946C24.8095 0.688614 24.8769 0.743562 24.9531 0.743562ZM35.9669 0.915108C36.0411 0.915108 36.1075 0.863 36.1228 0.787431C36.1403 0.701119 36.0847 0.617153 35.9983 0.599619C35.7193 0.542942 35.436 0.489723 35.1566 0.441319C35.0698 0.426131 34.9873 0.48429 34.9724 0.571096C34.9574 0.657778 35.0155 0.740138 35.1021 0.755203C35.3787 0.803112 35.6589 0.855838 35.935 0.911897L35.9669 0.915108ZM23.2825 1.07766C23.2944 1.07766 23.3064 1.07618 23.3184 1.07346C23.5933 1.01024 23.8722 0.950352 24.147 0.895403C24.2333 0.878116 24.2893 0.794274 24.272 0.707962C24.2548 0.621774 24.1711 0.565715 24.0845 0.583002C23.8067 0.638567 23.5249 0.699072 23.247 0.763034C23.1613 0.782667 23.1077 0.868238 23.1275 0.953932C23.1444 1.02765 23.2101 1.07766 23.2825 1.07766ZM37.6265 1.30179C37.697 1.30179 37.7615 1.2545 37.7804 1.183C37.8028 1.09792 37.752 1.01075 37.667 0.988274C37.392 0.915916 37.1123 0.846521 36.8356 0.781941C36.7501 0.761814 36.6643 0.81528 36.6442 0.900851C36.6243 0.986669 36.6775 1.07224 36.7632 1.09224C37.0371 1.15608 37.3138 1.22486 37.5857 1.29648C37.5993 1.30006 37.613 1.30179 37.6265 1.30179ZM21.6336 1.50725C21.6484 1.50725 21.6633 1.50516 21.6783 1.50071C21.9467 1.42242 22.2216 1.34661 22.4951 1.27536C22.5803 1.25314 22.6314 1.16608 22.6092 1.08101C22.5869 0.995805 22.5001 0.945055 22.4148 0.967034C22.1382 1.03902 21.8604 1.1157 21.5891 1.19498C21.5046 1.21955 21.456 1.30796 21.4807 1.39242C21.5009 1.46206 21.5645 1.50725 21.6336 1.50725ZM39.2608 1.78339C39.3278 1.78339 39.3903 1.74066 39.4121 1.67349C39.4396 1.58989 39.3939 1.49988 39.3102 1.47259C39.0395 1.3843 38.7641 1.29886 38.492 1.21872C38.4074 1.1939 38.319 1.24218 38.2942 1.32651C38.2693 1.41097 38.3176 1.49951 38.402 1.52433C38.6713 1.6036 38.9437 1.68806 39.2114 1.77548C39.2278 1.78079 39.2445 1.78339 39.2608 1.78339ZM20.01 2.03173C20.0273 2.03173 20.0458 2.02876 20.0631 2.02247C20.3286 1.92813 20.6002 1.83626 20.8682 1.74945C20.9521 1.72241 20.9978 1.63264 20.9707 1.54905C20.9435 1.46521 20.8546 1.41902 20.7706 1.44631C20.499 1.53398 20.2249 1.62684 19.9569 1.72229C19.8729 1.7518 19.8297 1.8428 19.8594 1.92578C19.8828 1.99098 19.9446 2.03173 20.01 2.03173ZM40.8648 2.35804C40.9284 2.35804 40.9886 2.31964 41.0131 2.25666C41.0452 2.1748 41.0047 2.08244 40.9228 2.05033C40.6581 1.94686 40.3882 1.84573 40.1206 1.74978C40.0378 1.72015 39.9466 1.76312 39.9168 1.8461C39.8872 1.92883 39.9303 2.02008 40.0132 2.04971C40.2779 2.14455 40.5449 2.24456 40.8068 2.34705C40.8258 2.35446 40.8454 2.35804 40.8648 2.35804ZM18.4157 2.65C18.4367 2.65 18.4576 2.64593 18.4774 2.63741C18.7379 2.52801 19.0034 2.4207 19.2652 2.31858C19.3479 2.28685 19.3887 2.19449 19.3566 2.1125C19.3245 2.03051 19.2331 1.98964 19.1504 2.02162C18.8849 2.12472 18.6169 2.23326 18.3539 2.3439C18.2737 2.3781 18.2354 2.47145 18.2687 2.55258C18.2947 2.61345 18.3539 2.65 18.4157 2.65ZM42.4281 3.0217C42.4883 3.0217 42.5461 2.98713 42.5729 2.92872C42.6096 2.84871 42.5745 2.75425 42.4945 2.71757C42.2369 2.5994 41.9742 2.48333 41.7132 2.37257C41.6324 2.33837 41.5388 2.37591 41.5043 2.45691C41.47 2.53791 41.5078 2.63151 41.5887 2.66584C41.8469 2.77549 42.1069 2.89032 42.3618 3.00713C42.3832 3.01701 42.4058 3.0217 42.4281 3.0217ZM16.8624 3.35867C16.8858 3.35867 16.9093 3.35336 16.9327 3.34225C17.1846 3.21827 17.444 3.09591 17.6996 2.97885C17.7798 2.94242 17.8156 2.84796 17.7786 2.76795C17.7428 2.68793 17.6477 2.65262 17.5674 2.68904C17.3081 2.80721 17.0476 2.93082 16.792 3.05639C16.713 3.09517 16.6808 3.19049 16.7191 3.26952C16.7463 3.32595 16.8031 3.35867 16.8624 3.35867ZM43.9518 3.7746C44.0088 3.7746 44.0641 3.74373 44.0927 3.68977C44.1339 3.6121 44.1043 3.51567 44.0265 3.47455C43.7762 3.34193 43.5202 3.21092 43.2658 3.08522C43.1872 3.04632 43.0915 3.07867 43.0525 3.15758C43.0134 3.23648 43.0459 3.33193 43.1248 3.37082C43.3765 3.49529 43.6297 3.62482 43.8774 3.75608C43.9011 3.76867 43.9266 3.7746 43.9518 3.7746ZM15.3521 4.15469C15.378 4.15469 15.4052 4.14802 15.4299 4.13407C15.6756 3.9954 15.9262 3.85859 16.1757 3.72733C16.2535 3.68633 16.2831 3.59002 16.2424 3.5121C16.2004 3.43444 16.1041 3.40455 16.0263 3.44555C15.7756 3.57829 15.5212 3.71659 15.273 3.85661C15.1965 3.89983 15.1693 3.99701 15.2125 4.07369C15.2422 4.12555 15.2965 4.15469 15.3521 4.15469ZM45.4312 4.61304C45.4852 4.61304 45.5377 4.58575 45.5677 4.53624C45.6133 4.46104 45.5892 4.36312 45.5139 4.31743C45.272 4.17099 45.0238 4.02553 44.7763 3.88526C44.6996 3.84179 44.6025 3.86871 44.5592 3.94527C44.5158 4.0217 44.5427 4.119 44.6191 4.16234C44.864 4.30126 45.1096 4.44511 45.3489 4.58995C45.3747 4.60563 45.4032 4.61304 45.4312 4.61304ZM13.8902 5.03611C13.9198 5.03611 13.9495 5.02796 13.9766 5.01079C14.2125 4.85879 14.4557 4.70802 14.6965 4.56232C14.7718 4.51688 14.7965 4.41896 14.7508 4.34364C14.7064 4.26831 14.6076 4.24399 14.5323 4.28943C14.2878 4.43661 14.0433 4.58923 13.8038 4.74284C13.7309 4.79038 13.7087 4.88892 13.7568 4.96301C13.7865 5.0103 13.8383 5.03611 13.8902 5.03611ZM46.8609 5.53499C46.9117 5.53499 46.9616 5.51079 46.9925 5.46584C47.0422 5.39324 47.0238 5.29408 46.9512 5.24432C46.7172 5.08368 46.4775 4.92426 46.2391 4.77053C46.165 4.72287 46.0666 4.74411 46.0188 4.81807C45.9713 4.89204 45.9924 4.99057 46.0665 5.03823C46.3025 5.19036 46.5394 5.34817 46.7711 5.50696C46.7985 5.52598 46.83 5.53499 46.8609 5.53499ZM12.4828 5.99877C12.5149 5.99877 12.5483 5.98901 12.5767 5.96839C12.8039 5.80268 13.0372 5.63833 13.2694 5.47966C13.3422 5.43002 13.3608 5.33087 13.3114 5.25826C13.262 5.18566 13.162 5.16689 13.0903 5.21665C12.8557 5.37705 12.6199 5.54325 12.389 5.71057C12.3174 5.7623 12.3013 5.86183 12.3532 5.93308C12.3853 5.97605 12.4334 5.99877 12.4828 5.99877ZM48.2362 6.53739C48.2838 6.53739 48.3309 6.51615 48.3622 6.47553C48.4161 6.40601 48.4032 6.30599 48.3337 6.25215C48.1092 6.07854 47.879 5.90567 47.6493 5.73836C47.5783 5.6865 47.4786 5.7023 47.4268 5.7733C47.375 5.84442 47.3907 5.94407 47.4617 5.99593C47.6889 6.1614 47.9167 6.33241 48.1389 6.50417C48.1679 6.52665 48.2021 6.53739 48.2362 6.53739ZM11.1315 7.03943C11.1673 7.03943 11.2031 7.0277 11.2328 7.0035C11.4501 6.82532 11.6736 6.648 11.8971 6.47624C11.9662 6.42253 11.9786 6.32251 11.9255 6.25287C11.8711 6.18323 11.7711 6.17014 11.702 6.22385C11.4772 6.39746 11.2513 6.57676 11.0303 6.75679C10.9623 6.81248 10.9525 6.91274 11.008 6.9809C11.0401 7.01943 11.0858 7.03943 11.1315 7.03943ZM49.5535 7.61663C49.5981 7.61663 49.6423 7.59811 49.6738 7.56181C49.7314 7.49537 49.7244 7.39474 49.658 7.33707C49.4432 7.15062 49.2231 6.96491 49.0036 6.78512C48.9356 6.72931 48.8352 6.73931 48.7794 6.80735C48.7237 6.87539 48.7336 6.97578 48.8016 7.03146C49.0187 7.2094 49.2365 7.39326 49.4492 7.57774C49.4793 7.60391 49.5165 7.61663 49.5535 7.61663ZM9.84285 8.15515C9.88113 8.15515 9.92064 8.14132 9.95028 8.11329C10.1577 7.92314 10.3713 7.73347 10.5837 7.54937C10.6504 7.4917 10.6578 7.39119 10.5998 7.32464C10.5417 7.2582 10.4417 7.25079 10.375 7.30858C10.1602 7.49454 9.94534 7.6863 9.73542 7.87831C9.67122 7.93783 9.66628 8.03859 9.72555 8.10342C9.75765 8.13774 9.79963 8.15515 9.84285 8.15515ZM50.8077 8.7698C50.8492 8.7698 50.8907 8.75362 50.922 8.72152C50.9833 8.65855 50.9819 8.55766 50.9189 8.49629C50.7151 8.29811 50.5058 8.10017 50.2967 7.90792C50.232 7.8484 50.1311 7.8526 50.0716 7.91742C50.012 7.98213 50.0162 8.08301 50.0811 8.14253C50.288 8.33268 50.4951 8.52852 50.6967 8.72461C50.7277 8.75486 50.7677 8.7698 50.8077 8.7698ZM8.62022 9.34148C8.66096 9.34148 8.70295 9.32543 8.73382 9.29332C8.93015 9.09156 9.13266 8.89016 9.33393 8.69457C9.3969 8.63333 9.39814 8.53257 9.33763 8.46935C9.27589 8.40613 9.17464 8.40465 9.11166 8.46601C8.90792 8.66358 8.70418 8.8672 8.50538 9.07106C8.44488 9.13403 8.44611 9.23492 8.50909 9.29629C8.53996 9.32641 8.57947 9.34148 8.62022 9.34148ZM51.9947 9.99196C52.0332 9.99196 52.0717 9.97813 52.1023 9.9501C52.1672 9.89059 52.1715 9.7897 52.1121 9.72488C51.9201 9.51583 51.7223 9.30628 51.524 9.10193C51.4627 9.03895 51.3618 9.03735 51.2987 9.09872C51.2356 9.15996 51.2342 9.26084 51.2954 9.32394C51.4917 9.52608 51.6875 9.7334 51.8772 9.94035C51.9087 9.97455 51.9516 9.99196 51.9947 9.99196ZM7.46709 10.5953C7.51154 10.5953 7.556 10.5768 7.58687 10.5405C7.77209 10.3281 7.96224 10.1156 8.15117 9.90904C8.21167 9.84434 8.20673 9.74358 8.14252 9.68394C8.07708 9.62443 7.97706 9.62875 7.91779 9.69333C7.72516 9.90225 7.53377 10.1169 7.34608 10.3316C7.28928 10.398 7.29546 10.4987 7.36213 10.5563C7.393 10.5825 7.43005 10.5953 7.46709 10.5953ZM53.1109 11.2802C53.1465 11.2802 53.182 11.2685 53.2117 11.2443C53.2798 11.1885 53.2898 11.0882 53.2342 11.0201C53.0541 10.8 52.8685 10.5795 52.6822 10.3645C52.6245 10.298 52.524 10.2909 52.4575 10.3483C52.391 10.406 52.3838 10.5065 52.4414 10.5732C52.6258 10.7858 52.8095 11.004 52.9876 11.2218C53.0191 11.2602 53.0647 11.2802 53.1109 11.2802ZM6.3864 11.9116C6.43456 11.9116 6.48148 11.8903 6.51235 11.8497C6.68522 11.6268 6.86303 11.4041 7.04084 11.1874C7.09641 11.1195 7.08653 11.0191 7.01861 10.9633C6.9507 10.9073 6.84945 10.9173 6.79388 10.9854C6.61484 11.2043 6.43456 11.4295 6.26045 11.6547C6.20735 11.7243 6.2197 11.8244 6.28885 11.8782C6.31849 11.9007 6.35306 11.9116 6.3864 11.9116ZM54.1526 12.6305C54.185 12.6305 54.2177 12.6206 54.246 12.6002C54.3171 12.5484 54.333 12.4488 54.2812 12.3776C54.1143 12.148 53.9413 11.9171 53.7673 11.6915C53.7135 11.6217 53.6136 11.609 53.5439 11.6626C53.4742 11.7163 53.4613 11.8163 53.515 11.8859C53.6873 12.1093 53.8583 12.3378 54.0235 12.5648C54.0546 12.6078 54.1033 12.6305 54.1526 12.6305ZM5.38422 13.2867C5.43484 13.2867 5.48423 13.2625 5.5151 13.2175C5.67439 12.9853 5.83985 12.7528 6.00408 12.5265C6.05594 12.4555 6.04113 12.3559 5.96951 12.304C5.89913 12.2522 5.79911 12.2677 5.74725 12.3389C5.58055 12.5675 5.41385 12.8025 5.25333 13.0371C5.2027 13.1096 5.22122 13.2089 5.29408 13.2586C5.32124 13.2775 5.35335 13.2867 5.38422 13.2867ZM55.1157 14.0381C55.1451 14.0381 55.1751 14.0298 55.2017 14.0128C55.2757 13.9651 55.297 13.8666 55.2495 13.7925C55.0959 13.5538 54.9364 13.3134 54.7752 13.078C54.7257 13.0054 54.6267 12.9868 54.5538 13.0365C54.4814 13.0862 54.4627 13.1853 54.5124 13.2579C54.6718 13.4908 54.8296 13.7286 54.9815 13.9649C55.012 14.0123 55.0633 14.0381 55.1157 14.0381ZM4.45991 14.7158C4.51424 14.7158 4.56734 14.6885 4.59697 14.6392C4.74268 14.3995 4.89332 14.1582 5.0452 13.9219C5.09336 13.848 5.07237 13.7494 4.99828 13.7016C4.92419 13.654 4.82541 13.6753 4.77849 13.7491C4.62414 13.9878 4.47102 14.2318 4.32408 14.4741C4.2784 14.5493 4.30309 14.6472 4.37841 14.6927C4.40435 14.7084 4.43275 14.7158 4.45991 14.7158ZM55.9975 15.4991C56.024 15.4991 56.0508 15.4925 56.0757 15.4785C56.1522 15.4353 56.1793 15.338 56.136 15.2614C55.9961 15.0137 55.8504 14.7646 55.7032 14.5206C55.6578 14.4453 55.5598 14.4209 55.4846 14.4665C55.4092 14.5119 55.3849 14.6098 55.4305 14.6852C55.5761 14.9266 55.7202 15.1732 55.8586 15.4181C55.888 15.47 55.9419 15.4991 55.9975 15.4991ZM3.6221 16.1946C3.6789 16.1946 3.73447 16.1638 3.76287 16.11C3.89376 15.8618 4.03082 15.6125 4.16912 15.3686C4.21233 15.2921 4.1864 15.1949 4.10985 15.1514C4.03329 15.1081 3.93574 15.1349 3.89252 15.2114C3.75299 15.4578 3.61469 15.7099 3.48134 15.9606C3.43935 16.0384 3.46899 16.1348 3.54678 16.1761C3.57148 16.1887 3.59617 16.1946 3.6221 16.1946ZM56.7942 17.0091C56.8179 17.0091 56.8418 17.0038 56.8644 16.9927C56.9433 16.9538 56.9759 16.8584 56.9372 16.7795C56.8116 16.5241 56.6804 16.2668 56.5473 16.0146C56.5062 15.9369 56.4099 15.907 56.3321 15.9481C56.2543 15.9892 56.2246 16.0856 56.2656 16.1634C56.3973 16.4129 56.527 16.6674 56.6512 16.92C56.6788 16.9764 56.7354 17.0091 56.7942 17.0091ZM2.86861 17.718C2.92788 17.718 2.98592 17.6837 3.01309 17.6253C3.13039 17.3698 3.25264 17.1132 3.37735 16.8623C3.41563 16.7834 3.38352 16.6879 3.3045 16.6489C3.22547 16.6101 3.13039 16.6421 3.09088 16.7211C2.96616 16.9746 2.84145 17.2342 2.72291 17.4921C2.6871 17.5722 2.72167 17.6667 2.80194 17.7035C2.82293 17.7133 2.84639 17.718 2.86861 17.718ZM57.5036 18.563C57.5243 18.563 57.5453 18.5589 57.5655 18.5504C57.6465 18.5162 57.6844 18.4227 57.6503 18.3417C57.5397 18.0797 57.4235 17.8151 57.305 17.5553C57.2684 17.4753 57.1741 17.4401 57.0938 17.4766C57.0138 17.5132 56.9786 17.6077 57.0152 17.6877C57.1323 17.9446 57.2473 18.2063 57.3568 18.4656C57.3825 18.5265 57.4414 18.563 57.5036 18.563ZM2.20444 19.2816C2.26742 19.2816 2.32792 19.2431 2.35262 19.1802C2.45387 18.9201 2.5613 18.6569 2.67119 18.3984C2.70577 18.3174 2.66873 18.2239 2.58723 18.1894C2.50697 18.1549 2.41312 18.1927 2.37855 18.2737C2.26742 18.5352 2.15876 18.801 2.05627 19.0642C2.02416 19.146 2.06368 19.2384 2.14641 19.2705C2.16493 19.278 2.18469 19.2816 2.20444 19.2816ZM58.1225 20.1558C58.1401 20.1558 58.1581 20.1528 58.1758 20.1465C58.2586 20.1171 58.302 20.026 58.2725 19.943C58.1767 19.6737 58.0759 19.4027 57.9728 19.1377C57.9411 19.0557 57.8488 19.0149 57.7666 19.0469C57.6847 19.0788 57.644 19.1712 57.6759 19.2531C57.7778 19.5153 57.8775 19.7834 57.9723 20.0498C57.9955 20.115 58.057 20.1558 58.1225 20.1558ZM1.62878 20.8853C1.69546 20.8853 1.7572 20.8426 1.77943 20.7754C1.8671 20.5082 1.95971 20.2384 2.05479 19.9735C2.08442 19.8908 2.0412 19.7995 1.95847 19.7699C1.87574 19.7401 1.78437 19.7831 1.75473 19.866C1.65842 20.1337 1.56457 20.4063 1.4769 20.6765C1.44974 20.7601 1.49542 20.85 1.57939 20.8773C1.59544 20.8827 1.61149 20.8853 1.62878 20.8853ZM58.6479 21.7796C58.6626 21.7796 58.6777 21.7776 58.6925 21.7733C58.7771 21.7485 58.8255 21.6602 58.8008 21.5758C58.7209 21.302 58.6361 21.0265 58.5489 20.7568C58.5217 20.6731 58.4316 20.6276 58.3483 20.6544C58.2645 20.6815 58.2187 20.7713 58.2458 20.855C58.3321 21.1217 58.416 21.3942 58.4949 21.665C58.5153 21.7346 58.5789 21.7796 58.6479 21.7796ZM1.14607 22.5193C1.21646 22.5193 1.2819 22.4721 1.30042 22.4007C1.37204 22.1285 1.4486 21.8538 1.52886 21.5845C1.55356 21.5002 1.5054 21.4115 1.4202 21.3865C1.33623 21.3615 1.24733 21.4099 1.22263 21.4942C1.14237 21.7666 1.06458 22.0442 0.991724 22.3193C0.969498 22.4043 1.02012 22.4916 1.10532 22.514C1.11891 22.5176 1.13249 22.5193 1.14607 22.5193ZM59.0785 23.4282C59.0903 23.4282 59.1023 23.427 59.1144 23.4241C59.2001 23.4044 59.2536 23.3189 59.2338 23.2331C59.1696 22.9548 59.1008 22.6749 59.0293 22.4012C59.0071 22.316 58.9201 22.2652 58.835 22.2874C58.7498 22.3096 58.6989 22.3965 58.7211 22.4818C58.7919 22.7525 58.8599 23.0294 58.9234 23.3047C58.9403 23.3785 59.006 23.4282 59.0785 23.4282ZM0.758308 24.1788C0.832396 24.1788 0.899075 24.1266 0.915127 24.0511C0.970693 23.7753 1.0312 23.4967 1.09541 23.2232C1.11516 23.1375 1.06207 23.0519 0.976867 23.0319C0.890431 23.0123 0.80523 23.0652 0.785474 23.1507C0.721264 23.4272 0.659525 23.7087 0.602724 23.9877C0.585437 24.0739 0.641003 24.1579 0.726203 24.1755L0.758308 24.1788ZM59.4134 25.0993L59.4404 25.097C59.5271 25.0821 59.5855 24.9999 59.5707 24.9131C59.5228 24.6328 59.4702 24.3494 59.4144 24.0708C59.397 23.9845 59.3129 23.9288 59.2268 23.946C59.1405 23.9633 59.0847 24.0473 59.102 24.1334C59.1573 24.4091 59.2093 24.6894 59.2566 24.9667C59.2699 25.0444 59.3373 25.0993 59.4134 25.0993ZM0.466845 25.8575C0.544637 25.8575 0.61255 25.8003 0.624898 25.7209C0.664412 25.4429 0.708864 25.1613 0.757021 24.884C0.773074 24.7973 0.715038 24.7148 0.627368 24.6997C0.540932 24.6848 0.458201 24.7427 0.443384 24.8294C0.395227 25.1098 0.349539 25.3944 0.308791 25.6753C0.296443 25.7624 0.356948 25.8433 0.444618 25.8557L0.466845 25.8575ZM59.6522 26.7859L59.6702 26.7851C59.7577 26.7751 59.8205 26.6963 59.8108 26.6089C59.7788 26.3257 59.7425 26.0398 59.7028 25.759C59.6905 25.6719 59.6106 25.6113 59.5227 25.6236C59.4356 25.636 59.375 25.7166 59.3874 25.8038C59.4266 26.0815 59.4626 26.3644 59.494 26.6444C59.5033 26.7259 59.5722 26.7859 59.6522 26.7859ZM0.27127 27.55C0.352767 27.55 0.42315 27.4875 0.429324 27.4045C0.45402 27.1247 0.48242 26.841 0.514525 26.5613C0.525638 26.474 0.462663 26.3948 0.374993 26.3847C0.288557 26.3751 0.208296 26.4373 0.198418 26.5247C0.166313 26.8074 0.136678 27.0941 0.111982 27.377C0.104573 27.4645 0.170017 27.5418 0.257688 27.5494L0.27127 27.55ZM59.7941 28.4842L59.803 28.484C59.8909 28.4792 59.9581 28.4041 59.9532 28.3162C59.9376 28.0323 59.9177 27.7448 59.8939 27.4618C59.8866 27.374 59.8091 27.3083 59.7218 27.3162C59.6342 27.3237 59.5691 27.4007 59.5765 27.4883C59.5998 27.7683 59.6196 28.0528 59.6352 28.3338C59.6399 28.4187 59.7101 28.4842 59.7941 28.4842ZM0.172722 29.2511C0.257923 29.2511 0.329541 29.1828 0.332011 29.0966C0.340654 28.8151 0.353002 28.5302 0.369055 28.2497C0.373994 28.1619 0.307315 28.0865 0.219645 28.0815C0.131974 28.0773 0.055417 28.1435 0.0504778 28.2313C0.0344255 28.5146 0.0220776 28.8026 0.013434 29.087C0.0109644 29.175 0.0801129 29.2484 0.167783 29.2511H0.172722ZM59.8407 30.1873C59.9288 30.1873 60 30.116 60 30.028V29.9998C60 29.7248 59.9963 29.4461 59.9889 29.1718C59.9865 29.0837 59.9096 29.0151 59.8253 29.0168C59.7374 29.0191 59.668 29.0924 59.6703 29.1803C59.6777 29.4519 59.6814 29.7277 59.6814 29.9998V30.028C59.6814 30.116 59.7528 30.1873 59.8407 30.1873ZM0.170409 31.011L0.175348 31.0109C0.263018 31.0084 0.332167 30.935 0.329697 30.8471C0.322289 30.5663 0.318584 30.2811 0.318584 29.9997V29.9441C0.318584 29.8562 0.246966 29.7846 0.159296 29.7845C0.0716254 29.7845 7.36836e-06 29.8555 7.36836e-06 29.9433V29.9997C7.36836e-06 30.2841 0.00371174 30.5723 0.0111205 30.8561C0.0135901 30.9424 0.0852081 31.011 0.170409 31.011ZM59.7924 31.8907C59.8762 31.8907 59.9465 31.8252 59.9513 31.7404C59.9675 31.4569 59.9799 31.1689 59.9882 30.8847C59.9907 30.7966 59.9215 30.7233 59.8335 30.7208C59.7478 30.7182 59.6722 30.7875 59.6696 30.8754C59.6615 31.1568 59.6493 31.4417 59.6332 31.7222C59.6282 31.81 59.6953 31.8853 59.7832 31.8904L59.7924 31.8907ZM0.266947 32.712L0.28053 32.7115C0.3682 32.7041 0.433644 32.6271 0.426235 32.5394C0.40154 32.26 0.381783 31.9756 0.365731 31.6939C0.360791 31.6061 0.285469 31.5393 0.197799 31.5439C0.110128 31.5489 0.0434493 31.6239 0.0483885 31.7118C0.0644408 31.9965 0.0841975 32.2839 0.107659 32.5662C0.115067 32.6493 0.185451 32.712 0.266947 32.712ZM59.6462 33.5882C59.7261 33.5882 59.795 33.5283 59.8042 33.4471C59.8363 33.1662 59.8651 32.8795 59.8896 32.5948C59.897 32.5072 59.8321 32.43 59.7445 32.4225C59.6573 32.4152 59.5796 32.4799 59.5721 32.5676C59.5479 32.8491 59.5195 33.1328 59.4878 33.4109C59.4776 33.4982 59.5405 33.5772 59.6279 33.5872L59.6462 33.5882ZM0.45795 34.4052L0.481411 34.4036C0.567847 34.3911 0.628352 34.3105 0.616004 34.2234C0.57649 33.9456 0.540681 33.6628 0.508577 33.3828C0.498698 33.2953 0.419672 33.232 0.333236 33.2424C0.245566 33.2523 0.182591 33.3312 0.192469 33.4186C0.224574 33.7017 0.260383 33.9876 0.301131 34.2684C0.312244 34.3478 0.380158 34.4052 0.45795 34.4052ZM59.4043 35.2747C59.4803 35.2747 59.5477 35.2201 59.561 35.1426C59.6092 34.8638 59.6543 34.5791 59.6948 34.2966C59.7073 34.2094 59.6468 34.1288 59.5598 34.1162C59.4725 34.1041 59.392 34.1641 59.3795 34.2512C59.3393 34.5309 59.2948 34.8125 59.2471 35.0884C59.2321 35.175 59.2902 35.2574 59.3769 35.2724L59.4043 35.2747ZM0.747303 36.0847L0.779408 36.0815C0.865843 36.0642 0.921409 35.9801 0.904122 35.8939C0.848556 35.6185 0.79546 35.3382 0.748538 35.0608C0.73372 34.974 0.650989 34.916 0.564553 34.9307C0.478118 34.9456 0.418848 35.028 0.433665 35.1148C0.483057 35.3951 0.534918 35.6784 0.591719 35.9568C0.606536 36.0325 0.673215 36.0847 0.747303 36.0847ZM59.0658 36.9451C59.1382 36.9451 59.2036 36.8953 59.2208 36.8218C59.2851 36.5452 59.3462 36.2635 59.4028 35.9847C59.4203 35.8985 59.3644 35.8145 59.2782 35.797C59.1921 35.7796 59.1079 35.8353 59.0905 35.9216C59.0347 36.1974 58.9741 36.476 58.9105 36.7496C58.8906 36.8353 58.9439 36.9209 59.0295 36.9409C59.0417 36.9437 59.0538 36.9451 59.0658 36.9451ZM1.13112 37.7447C1.1447 37.7447 1.15828 37.743 1.17186 37.7394C1.25706 37.7172 1.30769 37.63 1.28546 37.545C1.21385 37.2724 1.14593 36.9955 1.08296 36.7222C1.0632 36.6364 0.976766 36.5829 0.891566 36.6029C0.806365 36.6228 0.752034 36.7084 0.773025 36.7941C0.836 37.0703 0.905148 37.3502 0.978001 37.6257C0.996523 37.6973 1.06073 37.7447 1.13112 37.7447ZM58.6322 38.5929C58.7009 38.5929 58.7645 38.5479 58.7849 38.4785C58.8651 38.2059 58.9425 37.9282 59.0147 37.6532C59.0372 37.5681 58.9863 37.4811 58.9012 37.4586C58.8159 37.4362 58.7291 37.4871 58.7066 37.5722C58.6351 37.8442 58.5587 38.119 58.4793 38.3886C58.4545 38.473 58.5028 38.5615 58.5871 38.5863C58.6022 38.5908 58.6172 38.5929 58.6322 38.5929ZM1.61122 39.3797C1.62727 39.3797 1.64332 39.3771 1.65937 39.3719C1.74334 39.3446 1.78903 39.2548 1.76186 39.1711C1.67543 38.904 1.59146 38.6317 1.51243 38.3612C1.48774 38.2769 1.39883 38.2282 1.31487 38.2532C1.22967 38.278 1.18151 38.3664 1.2062 38.451C1.28647 38.7241 1.37167 38.9995 1.45934 39.2695C1.48156 39.3368 1.5433 39.3797 1.61122 39.3797ZM58.1044 40.2132C58.1698 40.2132 58.2311 40.1725 58.2543 40.1075C58.3499 39.8404 58.4431 39.5677 58.5313 39.2967C58.5586 39.2131 58.5128 39.1231 58.4292 39.0959C58.3457 39.0686 58.2556 39.1143 58.2284 39.198C58.1411 39.4661 58.049 39.7359 57.9544 40C57.9248 40.0829 57.9679 40.1741 58.0507 40.2037C58.0685 40.2101 58.0865 40.2132 58.1044 40.2132ZM2.18586 40.99C2.20438 40.99 2.22413 40.9864 2.24389 40.979C2.32539 40.947 2.36614 40.8547 2.33403 40.7727C2.23154 40.5104 2.13152 40.2426 2.03645 39.9764C2.00681 39.8934 1.91544 39.8503 1.8327 39.8798C1.74997 39.9095 1.70676 40.0005 1.73639 40.0833C1.8327 40.3525 1.93396 40.6234 2.03768 40.8885C2.06238 40.9515 2.12165 40.99 2.18586 40.99ZM57.4854 41.7978C57.5475 41.7978 57.6064 41.7614 57.632 41.7006C57.7427 41.44 57.851 41.1739 57.954 40.91C57.9861 40.8281 57.9456 40.7358 57.8637 40.7037C57.7815 40.6716 57.6893 40.7122 57.6574 40.7941C57.5552 41.0551 57.4482 41.3184 57.3388 41.5763C57.3045 41.6573 57.3422 41.7508 57.4232 41.7852C57.4435 41.7937 57.4646 41.7978 57.4854 41.7978ZM2.85109 42.5631C2.87332 42.5631 2.89555 42.5584 2.91777 42.5487C2.99803 42.512 3.03261 42.4175 2.99556 42.3375C2.87949 42.0817 2.76342 41.82 2.65353 41.56C2.61895 41.4788 2.52511 41.4413 2.44485 41.4753C2.36335 41.5096 2.32631 41.6031 2.35965 41.6841C2.47201 41.9471 2.58808 42.2114 2.70662 42.47C2.73255 42.5287 2.79059 42.5631 2.85109 42.5631ZM56.7778 43.3421C56.8366 43.3421 56.893 43.3095 56.9208 43.2532C57.046 42.9993 57.1695 42.7397 57.2877 42.4817C57.3242 42.4017 57.2891 42.3072 57.2093 42.2706C57.129 42.234 57.0347 42.2691 56.998 42.349C56.8812 42.6043 56.7589 42.861 56.6351 43.1123C56.5961 43.1912 56.6285 43.2867 56.7074 43.3256C56.73 43.3368 56.7541 43.3421 56.7778 43.3421ZM3.60655 44.0948C3.63124 44.0948 3.65717 44.0889 3.68063 44.0763C3.75843 44.0352 3.78806 43.9387 3.74608 43.861C3.61519 43.6121 3.48554 43.3577 3.36082 43.1048C3.32131 43.0257 3.22623 42.9933 3.1472 43.0323C3.06818 43.0712 3.03607 43.1666 3.07435 43.2455C3.2003 43.5011 3.33242 43.7583 3.46455 44.01C3.49418 44.064 3.54851 44.0948 3.60655 44.0948ZM55.9829 44.8446C56.0383 44.8446 56.0923 44.8155 56.1216 44.7638C56.2615 44.5167 56.3996 44.2646 56.5321 44.0142C56.5732 43.9364 56.5437 43.8401 56.4658 43.7988C56.388 43.7576 56.2917 43.7873 56.2506 43.8651C56.1195 44.1128 55.9828 44.3624 55.8443 44.6067C55.801 44.6833 55.8279 44.7805 55.9045 44.8238C55.9293 44.8379 55.9562 44.8446 55.9829 44.8446ZM4.44793 45.5797C4.4751 45.5797 4.50473 45.5723 4.52943 45.5568C4.60475 45.5113 4.62945 45.4133 4.58376 45.3381C4.43805 45.0973 4.29358 44.8508 4.15529 44.6055C4.11207 44.5291 4.01452 44.502 3.93796 44.5455C3.8614 44.5888 3.83424 44.686 3.87746 44.7626C4.01822 45.0105 4.16393 45.2596 4.31087 45.5029C4.34174 45.5524 4.3936 45.5797 4.44793 45.5797ZM55.1028 46.3002C55.1552 46.3002 55.2064 46.2744 55.2369 46.2271C55.3903 45.989 55.5426 45.7449 55.6898 45.5018C55.7353 45.4265 55.7112 45.3284 55.6359 45.283C55.5607 45.2374 55.4627 45.2616 55.4172 45.3368C55.2716 45.5775 55.1208 45.819 54.9691 46.0546C54.9214 46.1286 54.9428 46.2271 55.0167 46.2748C55.0434 46.2919 55.0733 46.3002 55.1028 46.3002ZM5.37128 47.0142C5.40215 47.0142 5.43426 47.0052 5.46142 46.9863C5.53428 46.9366 5.5528 46.8375 5.50341 46.7649C5.34288 46.5322 5.18483 46.2945 5.03295 46.0583C4.98603 45.9842 4.88725 45.9629 4.81316 46.0107C4.73907 46.0584 4.71808 46.1569 4.765 46.2308C4.91935 46.4696 5.07864 46.7099 5.2404 46.945C5.27127 46.99 5.32066 47.0142 5.37128 47.0142ZM54.1405 47.7037C54.1898 47.7037 54.2383 47.681 54.2694 47.6381C54.4369 47.4081 54.603 47.173 54.7631 46.9393C54.8129 46.8667 54.7943 46.7677 54.7217 46.7179C54.6491 46.6682 54.5501 46.6867 54.5003 46.7593C54.3419 46.9905 54.1776 47.2231 54.0119 47.4507C53.9601 47.5218 53.9758 47.6214 54.0469 47.6732C54.0752 47.6938 54.108 47.7037 54.1405 47.7037ZM6.37518 48.3923C6.40976 48.3923 6.44433 48.3814 6.47273 48.359C6.54311 48.3052 6.55546 48.2052 6.50237 48.1355C6.32949 47.9128 6.15786 47.6846 5.9924 47.4573C5.94053 47.386 5.84175 47.3704 5.77013 47.4222C5.69851 47.4741 5.6837 47.5736 5.73556 47.6448C5.90226 47.8746 6.07513 48.1053 6.24923 48.3304C6.28134 48.371 6.32826 48.3923 6.37518 48.3923ZM53.1001 49.0509C53.1463 49.0509 53.1919 49.031 53.2234 48.9925C53.4027 48.7734 53.582 48.5481 53.7561 48.3226C53.81 48.2531 53.7972 48.153 53.7276 48.0992C53.6578 48.0455 53.5578 48.0582 53.5041 48.1279C53.3317 48.3509 53.1544 48.574 52.9768 48.7906C52.9212 48.8588 52.9312 48.9592 52.9993 49.0148C53.0288 49.039 53.0645 49.0509 53.1001 49.0509ZM7.45694 49.711C7.49399 49.711 7.53103 49.6982 7.56066 49.6721C7.62734 49.6143 7.63475 49.5138 7.57672 49.4472C7.3915 49.2342 7.20751 49.0161 7.0297 48.7992C6.97414 48.7311 6.87412 48.7211 6.80621 48.777C6.73829 48.8327 6.72841 48.9331 6.78398 49.0011C6.96302 49.2203 7.14948 49.4407 7.33593 49.6562C7.36804 49.6925 7.41249 49.711 7.45694 49.711ZM51.9841 50.3376C52.0272 50.3376 52.0702 50.3204 52.1015 50.286C52.2936 50.0769 52.4854 49.8619 52.6716 49.6473C52.7293 49.5808 52.7221 49.4802 52.6557 49.4225C52.5894 49.3649 52.4887 49.3719 52.431 49.4386C52.2467 49.651 52.0569 49.8635 51.8668 50.0706C51.8074 50.1354 51.8116 50.2361 51.8764 50.2957C51.907 50.3237 51.9457 50.3376 51.9841 50.3376ZM8.61029 50.966C8.6498 50.966 8.68931 50.9511 8.72142 50.921C8.78439 50.8595 8.78563 50.7587 8.72389 50.6956C8.52879 50.4947 8.33246 50.2875 8.14107 50.0797C8.0818 50.015 7.98054 50.0108 7.91633 50.0703C7.85212 50.1298 7.84719 50.2306 7.90646 50.2953C8.10032 50.5053 8.29789 50.7146 8.49545 50.9179C8.52632 50.9499 8.5683 50.966 8.61029 50.966ZM50.7968 51.5592C50.8368 51.5592 50.8768 51.5443 50.9078 51.5141C51.1115 51.3161 51.3153 51.1123 51.5135 50.9085C51.5747 50.8454 51.5733 50.7445 51.5102 50.6832C51.4472 50.622 51.3464 50.6234 51.285 50.6863C51.0889 50.8881 50.8874 51.0897 50.6858 51.2857C50.6227 51.3471 50.6212 51.4478 50.6826 51.5109C50.7137 51.543 50.7553 51.5592 50.7968 51.5592ZM9.83159 52.1529C9.87481 52.1529 9.91802 52.1356 9.94889 52.1013C10.0094 52.0366 10.0045 51.9357 9.94025 51.8763C9.73157 51.6856 9.52412 51.49 9.32285 51.2946C9.25988 51.2335 9.15986 51.2349 9.09812 51.298C9.03638 51.3611 9.03885 51.4619 9.10182 51.5232C9.30433 51.7205 9.51425 51.9183 9.72416 52.1111C9.75503 52.1391 9.79331 52.1529 9.83159 52.1529ZM49.5413 52.7115C49.5783 52.7115 49.6155 52.6987 49.6456 52.6726C49.8603 52.4863 50.0754 52.2944 50.2849 52.1022C50.3497 52.0425 50.354 51.9418 50.2945 51.8771C50.235 51.8124 50.1342 51.808 50.0694 51.8674C49.8622 52.0577 49.6494 52.2476 49.4368 52.4318C49.3704 52.4895 49.3632 52.5901 49.4209 52.6566C49.4524 52.6929 49.4967 52.7115 49.5413 52.7115ZM11.1192 53.268C11.1649 53.268 11.2106 53.2481 11.2415 53.2096C11.2983 53.1415 11.2872 53.0411 11.2193 52.9854C11.0019 52.8073 10.7834 52.6236 10.5722 52.4399C10.5055 52.3824 10.4043 52.3895 10.3475 52.4558C10.2895 52.5224 10.2969 52.623 10.3635 52.6807C10.5772 52.8664 10.7982 53.0519 11.018 53.232C11.0476 53.2562 11.0834 53.268 11.1192 53.268ZM48.2226 53.7914C48.2566 53.7914 48.2909 53.7805 48.3199 53.7582C48.5444 53.5849 48.77 53.4054 48.9908 53.2248C49.0589 53.1689 49.0689 53.0686 49.0131 53.0005C48.9573 52.9325 48.8572 52.9222 48.7889 52.9782C48.5706 53.157 48.3472 53.3345 48.1252 53.506C48.0555 53.5598 48.0427 53.6598 48.0964 53.7294C48.1278 53.7702 48.1749 53.7914 48.2226 53.7914ZM12.4663 54.308C12.5157 54.308 12.5639 54.2852 12.5948 54.2424C12.6466 54.1713 12.6318 54.0716 12.5602 54.0199C12.333 53.8547 12.1046 53.6838 11.8823 53.5123C11.8131 53.4585 11.7131 53.4714 11.6588 53.541C11.6057 53.6107 11.618 53.7107 11.6884 53.7644C11.9119 53.9378 12.1428 54.1104 12.3725 54.2775C12.4009 54.2981 12.4342 54.308 12.4663 54.308ZM46.8432 54.7951C46.8742 54.7951 46.9055 54.7861 46.933 54.7672C47.1677 54.6065 47.4035 54.4401 47.6334 54.2727C47.7045 54.2208 47.7203 54.1212 47.6686 54.0501C47.6168 53.9789 47.5173 53.9631 47.4459 54.015C47.2184 54.1807 46.9852 54.3453 46.753 54.5045C46.6804 54.5541 46.6618 54.6533 46.7116 54.7259C46.7425 54.7709 46.7924 54.7951 46.8432 54.7951ZM13.8705 55.2694C13.9223 55.2694 13.9742 55.2436 14.0051 55.1963C14.052 55.1224 14.031 55.0237 13.9569 54.9762C13.7211 54.8244 13.484 54.667 13.2518 54.5081C13.179 54.4584 13.0802 54.477 13.0308 54.5496C12.9802 54.622 12.9987 54.7212 13.0716 54.771C13.3062 54.9315 13.5457 55.0906 13.784 55.244C13.8112 55.2612 13.8408 55.2694 13.8705 55.2694ZM45.4089 55.7187C45.4369 55.7187 45.4654 55.7112 45.4911 55.6957C45.7344 55.5488 45.9792 55.396 46.2189 55.2417C46.293 55.194 46.3142 55.0953 46.2667 55.0215C46.219 54.9475 46.1204 54.926 46.0464 54.9738C45.8092 55.1265 45.5669 55.2777 45.3264 55.4229C45.2511 55.4685 45.2269 55.5664 45.2724 55.6417C45.3024 55.6912 45.355 55.7187 45.4089 55.7187ZM15.3262 56.1489C15.3818 56.1489 15.4361 56.1198 15.4645 56.068C15.5077 55.9914 15.4818 55.8942 15.4052 55.8509C15.1607 55.7129 14.915 55.5692 14.6742 55.4239C14.5989 55.3783 14.5014 55.4026 14.4557 55.4779C14.41 55.5532 14.4347 55.6511 14.51 55.6966C14.7533 55.8435 15.0014 55.9887 15.2484 56.1282C15.2731 56.1422 15.3003 56.1489 15.3262 56.1489ZM43.9235 56.5593C43.9486 56.5593 43.974 56.5533 43.9977 56.5408C44.2494 56.4078 44.5026 56.2692 44.7507 56.1289C44.8273 56.0856 44.8542 55.9884 44.811 55.9119C44.7676 55.8353 44.6703 55.8084 44.5938 55.8516C44.3484 55.9905 44.0978 56.1276 43.8489 56.2591C43.7711 56.3002 43.7414 56.3965 43.7825 56.4743C43.811 56.5284 43.8663 56.5593 43.9235 56.5593ZM16.8289 56.9434C16.8882 56.9434 16.9438 56.9107 16.9722 56.8545C17.0104 56.7755 16.9783 56.6799 16.8993 56.6411C16.6486 56.5173 16.3943 56.388 16.1461 56.2568C16.0683 56.2156 15.972 56.2454 15.9312 56.3231C15.8905 56.4009 15.9201 56.4973 15.9979 56.5384C16.2486 56.671 16.5042 56.8017 16.7585 56.9269C16.782 56.9381 16.8055 56.9434 16.8289 56.9434ZM42.3912 57.3135C42.4134 57.3135 42.4359 57.3088 42.4574 57.2991C42.7163 57.1806 42.9773 57.0569 43.2331 56.931C43.312 56.8921 43.3445 56.7966 43.3057 56.7176C43.2669 56.6387 43.1714 56.6063 43.0925 56.6451C42.8393 56.7697 42.5811 56.8922 42.3249 57.0092C42.2449 57.0458 42.2097 57.1404 42.2464 57.2203C42.273 57.2789 42.3308 57.3135 42.3912 57.3135ZM18.374 57.6506C18.437 57.6506 18.495 57.614 18.5209 57.5534C18.5555 57.4724 18.5172 57.3789 18.437 57.3446C18.1777 57.2351 17.9184 57.1205 17.6628 57.0041C17.5837 56.9674 17.4886 57.0026 17.4528 57.0826C17.4158 57.1626 17.4504 57.2571 17.5306 57.2937C17.7875 57.4114 18.0505 57.5272 18.3123 57.638C18.3332 57.6465 18.3542 57.6506 18.374 57.6506ZM40.8176 57.9783C40.8368 57.9783 40.8564 57.9749 40.8754 57.9675C41.141 57.8641 41.4088 57.7553 41.6713 57.6444C41.7523 57.6101 41.7902 57.5166 41.756 57.4356C41.7218 57.3546 41.6282 57.3167 41.5472 57.3509C41.2875 57.4608 41.0226 57.5682 40.7598 57.6705C40.6778 57.7025 40.6372 57.7948 40.669 57.8767C40.6936 57.9398 40.7539 57.9783 40.8176 57.9783ZM19.9592 58.2684C20.0246 58.2684 20.0851 58.2278 20.1086 58.1626C20.1382 58.0797 20.095 57.9886 20.0123 57.959C19.748 57.8643 19.4801 57.7646 19.2183 57.6625C19.1368 57.6304 19.0442 57.671 19.0121 57.7529C18.98 57.835 19.0207 57.9274 19.1022 57.9592C19.3677 58.0624 19.6369 58.1633 19.9048 58.259C19.9233 58.2653 19.9406 58.2684 19.9592 58.2684ZM39.2071 58.5523C39.2234 58.5523 39.24 58.5497 39.2563 58.5444C39.5281 58.4563 39.8018 58.3632 40.0701 58.2677C40.1529 58.2382 40.1962 58.1469 40.1667 58.064C40.1372 57.9812 40.0462 57.9381 39.9631 57.9675C39.6977 58.0621 39.4269 58.1542 39.1581 58.2414C39.0744 58.2684 39.0286 58.3583 39.0558 58.442C39.0775 58.5093 39.14 58.5523 39.2071 58.5523ZM21.5798 58.7954C21.6488 58.7954 21.7123 58.7503 21.7327 58.6809C21.7574 58.5966 21.7091 58.5079 21.6246 58.4832C21.3556 58.4042 21.0832 58.32 20.8152 58.2328C20.7312 58.2056 20.6411 58.2513 20.6139 58.335C20.5868 58.4188 20.6325 58.5087 20.7164 58.5358C20.9881 58.6239 21.2628 58.7091 21.535 58.789C21.5499 58.7933 21.565 58.7954 21.5798 58.7954ZM37.5717 59.0307C37.585 59.0307 37.5985 59.0289 37.6121 59.0255C37.8883 58.9531 38.1661 58.8762 38.4377 58.7968C38.522 58.772 38.5705 58.6836 38.5457 58.5991C38.5211 58.5148 38.4327 58.4661 38.3481 58.4909C38.0794 58.5696 37.8047 58.6457 37.5314 58.7173C37.4464 58.7395 37.3954 58.8266 37.4177 58.9116C37.4364 58.9833 37.5009 59.0307 37.5717 59.0307ZM23.228 59.2278C23.3004 59.2278 23.3658 59.1782 23.3829 59.1046C23.4029 59.0189 23.3495 58.9334 23.2638 58.9133C22.9896 58.8498 22.7129 58.7814 22.4411 58.71C22.3561 58.6876 22.2688 58.7385 22.2466 58.8236C22.2243 58.9087 22.2751 58.9958 22.3602 59.0182C22.6348 59.0903 22.9146 59.1594 23.1917 59.2238C23.2039 59.2266 23.216 59.2278 23.228 59.2278ZM35.9115 59.4144L35.9431 59.4112C36.2211 59.3552 36.5027 59.2943 36.7804 59.2303C36.8661 59.2105 36.9196 59.1249 36.8997 59.0392C36.88 58.9535 36.7941 58.9002 36.7087 58.9198C36.4341 58.9833 36.1553 59.0436 35.8803 59.0988C35.794 59.1162 35.7382 59.2001 35.7554 59.2863C35.7708 59.362 35.8372 59.4144 35.9115 59.4144ZM24.8979 59.5654C24.974 59.5654 25.0414 59.5105 25.0546 59.433C25.0696 59.3463 25.0114 59.264 24.9247 59.249C24.6481 59.2013 24.3679 59.149 24.0918 59.0932C24.0056 59.0756 23.9215 59.1316 23.9041 59.2178C23.8867 59.304 23.9425 59.388 24.0287 59.4055C24.3078 59.4618 24.5911 59.5149 24.8707 59.563L24.8979 59.5654ZM34.2318 59.7018L34.2544 59.7002C34.5355 59.6603 34.8202 59.6157 35.1008 59.5677C35.1876 59.5528 35.2457 59.4705 35.2309 59.3838C35.2161 59.297 35.1334 59.2388 35.0471 59.2537C34.7694 59.3012 34.4877 59.3453 34.2097 59.3848C34.1226 59.3971 34.0621 59.4778 34.0744 59.5648C34.0856 59.6443 34.1538 59.7018 34.2318 59.7018ZM26.585 59.8061C26.6649 59.8061 26.7338 59.7462 26.7431 59.6649C26.753 59.5774 26.6902 59.4985 26.6028 59.4887C26.3239 59.4568 26.041 59.4205 25.7623 59.3807C25.6755 59.3683 25.5945 59.4288 25.582 59.5158C25.5695 59.603 25.63 59.6836 25.7171 59.6961C25.999 59.7363 26.2847 59.773 26.5669 59.8051L26.585 59.8061ZM32.539 59.8933L32.5526 59.8928C32.8353 59.869 33.1221 59.8407 33.4051 59.8087C33.4925 59.7989 33.5552 59.72 33.5455 59.6325C33.5355 59.5452 33.4562 59.4829 33.3693 59.4921C33.0893 59.5238 32.8056 59.5518 32.5258 59.5754C32.4381 59.5827 32.373 59.6597 32.3804 59.7474C32.3875 59.8306 32.4571 59.8933 32.539 59.8933ZM28.2823 59.9513C28.3662 59.9513 28.4364 59.8858 28.4412 59.8011C28.4462 59.7131 28.379 59.6379 28.2912 59.633C28.0102 59.6171 27.7257 59.5968 27.4457 59.573C27.3578 59.5663 27.281 59.6305 27.2735 59.7182C27.2661 59.8058 27.331 59.8829 27.4187 59.8905C27.7016 59.9145 27.9891 59.9349 28.2731 59.9511L28.2823 59.9513ZM30.8378 59.9882H30.8422C31.1272 59.9804 31.4152 59.9683 31.6979 59.9525C31.7859 59.9476 31.853 59.8725 31.8481 59.7846C31.8433 59.6968 31.7683 59.6296 31.6802 59.6344C31.4004 59.6501 31.1155 59.662 30.8335 59.6698C30.7455 59.6721 30.6761 59.7454 30.6785 59.8334C30.681 59.9198 30.7518 59.9882 30.8378 59.9882ZM29.9858 60C30.0737 60 30.1451 59.9288 30.1451 59.8407C30.1451 59.7528 30.0739 59.6814 29.9858 59.6814C29.7049 59.6813 29.4198 59.6771 29.1383 59.6691C29.0502 59.6671 28.977 59.7359 28.9745 59.8238C28.9719 59.9117 29.0412 59.9851 29.1291 59.9875C29.4136 59.9957 29.7018 59.9999 29.9858 60V60Z" fill="#FBB03B"/>
</svg>
