<svg width="41" height="40" viewBox="0 0 41 40" fill="none" xmlns="http://www.w3.org/2000/svg">
<mask id="mask0_36_3044" style="mask-type:alpha" maskUnits="userSpaceOnUse" x="1" y="1" width="39" height="38">
<path fill-rule="evenodd" clip-rule="evenodd" d="M39.6475 20.0316C39.6475 30.3356 31.0849 38.6894 20.5233 38.6894C9.96093 38.6894 1.39912 30.3356 1.39912 20.0316C1.39912 9.72686 9.96093 1.37305 20.5233 1.37305C31.0849 1.37305 39.6475 9.72686 39.6475 20.0316" fill="white"/>
</mask>
<g mask="url(#mask0_36_3044)">
<path fill-rule="evenodd" clip-rule="evenodd" d="M39.6475 20.0316C39.6475 30.3356 31.0849 38.6894 20.5233 38.6894C9.96093 38.6894 1.39912 30.3356 1.39912 20.0316C1.39912 9.72686 9.96093 1.37305 20.5233 1.37305C31.0849 1.37305 39.6475 9.72686 39.6475 20.0316" fill="#FFF6EE"/>
<path fill-rule="evenodd" clip-rule="evenodd" d="M28.0574 29.0169C28.0565 29.0811 28.0557 29.1453 28.0531 29.2095C28.0405 29.7561 28.0109 30.3068 27.9671 30.8592C27.8751 32.0289 27.7198 33.2086 27.5232 34.3891C27.0904 36.9854 26.455 39.5793 25.8433 42.0522C25.4771 42.2926 24.8729 42.6704 24.4553 42.8079C20.8456 43.9941 18.472 43.7645 14.7215 43.1158C14.1806 40.9895 13.8979 38.8121 13.7528 36.6257C13.595 34.2508 13.4389 31.8709 13.4617 29.4919C13.5368 29.2556 13.6161 29.0193 13.6996 28.7847C13.7148 28.7419 13.73 28.6983 13.746 28.6555C13.7781 28.5723 13.8102 28.4892 13.8439 28.4069C13.9325 28.1854 14.0262 27.9656 14.1241 27.7483C14.2557 27.4561 14.3974 27.168 14.5468 26.8848C15.1197 26.2386 15.7365 25.6294 16.3921 25.063C17.1001 24.4506 17.8747 23.876 18.7792 23.6027C19.401 23.4142 20.0634 23.3771 20.7148 23.4092C21.1207 23.4298 21.5248 23.4776 21.9231 23.5517C23.4073 23.8283 24.8198 24.4703 25.9952 25.3973C26.3656 25.6879 26.7115 26.0073 27.0288 26.3522C27.0853 26.4139 27.141 26.4765 27.1959 26.5399C27.5241 26.9169 27.8253 27.3334 27.9603 27.8109C28.0709 28.2011 28.0649 28.6127 28.0574 29.0169" fill="#FFCFCA"/>
<path fill-rule="evenodd" clip-rule="evenodd" d="M25.9766 10.4859C25.7843 10.2192 25.5792 9.96069 25.3607 9.71291C24.9101 9.20088 24.3726 8.75141 23.7854 8.38756C21.5797 7.02187 18.602 7.24414 16.7153 9.03212C15.8353 9.8652 15.2657 10.9609 14.8995 12.0936C14.2372 14.1466 14.0642 16.3141 14.0144 18.4495C14.0018 18.9846 14.0009 19.5197 13.9883 20.0539C13.9849 20.2087 13.9073 21.497 14.0153 21.539C14.395 21.6855 14.7806 21.8139 15.1679 21.9341C17.2722 22.5894 19.4661 23.0108 21.6607 22.9261C23.8537 22.8413 26.0543 22.228 27.8405 20.9545C27.914 20.3643 27.9502 19.7913 27.9536 19.2167C27.9629 17.4822 28.0296 15.7107 27.611 14.0108C27.3005 12.7522 26.7436 11.5486 25.9766 10.4859" fill="#3A374C"/>
<path fill-rule="evenodd" clip-rule="evenodd" d="M23.2477 17.7324L23.3304 24.0793L18.1665 24.388L18.4104 19.5492L23.2477 17.7324" fill="#FFCFCA"/>
<path fill-rule="evenodd" clip-rule="evenodd" d="M23.2479 17.7324L23.2733 19.6768C22.7265 20.2028 22.1384 20.6836 21.4794 21.0647C20.5225 21.6163 19.3936 21.9439 18.2958 21.8221L18.4106 19.5492L23.2479 17.7324" fill="#FCB9B4"/>
<path fill-rule="evenodd" clip-rule="evenodd" d="M25.3473 14.7194L25.3482 14.7203C25.1153 15.8406 24.6588 16.919 24.0437 17.8311C23.0489 19.3071 21.3976 20.6284 19.5312 20.7757C18.5777 20.8506 17.6158 20.546 16.9239 19.8924C16.756 19.7335 16.6016 19.5565 16.4641 19.3623C15.2203 17.6064 15.0389 15.2767 15.5916 13.1842C15.8312 12.277 16.2076 11.4159 16.6961 10.6644C17.2277 9.84528 18.004 9.12992 18.8908 8.64671C20.3615 7.84656 22.1385 7.68356 23.6193 8.74137C24.2884 9.21883 24.7786 9.91196 25.0807 10.6668C25.0925 10.6948 25.1035 10.7228 25.1136 10.7508C25.5836 11.9922 25.625 13.385 25.3473 14.7194" fill="#FFCFCA"/>
<path fill-rule="evenodd" clip-rule="evenodd" d="M19.3336 9.46433C19.2948 9.91462 19.0636 10.327 18.7987 10.6991C18.7404 10.7806 18.6805 10.8621 18.6181 10.9412C17.8528 11.9208 16.8124 12.6954 15.6395 13.1547C15.6227 13.1613 15.6033 13.1695 15.5813 13.1786C15.821 12.2698 16.1981 11.4063 16.6875 10.6539C17.2208 9.83313 17.9979 9.11612 18.8872 8.63208C18.9885 8.66912 19.0796 8.7251 19.1522 8.80331C19.2433 8.90127 19.2956 9.02475 19.321 9.15563C19.3404 9.25689 19.3429 9.36226 19.3336 9.46433" fill="#FCB9B4"/>
<path fill-rule="evenodd" clip-rule="evenodd" d="M25.3472 14.7195L25.3481 14.7203C24.9532 15.006 24.5608 15.3023 24.0925 15.4341C23.858 15.5007 23.6124 15.523 23.3677 15.523C22.6235 15.5238 21.8801 15.3237 21.2414 14.95C20.3352 14.4191 19.6652 13.5596 19.2189 12.6245C18.9624 12.0878 18.7742 11.5247 18.6223 10.9509C18.5084 10.5261 18.4156 10.094 18.3295 9.66179C18.5616 9.33333 18.9244 9.2362 19.3235 9.16952C19.3488 9.16458 19.3733 9.16046 19.3994 9.15635C20.8828 8.91844 22.4294 9.21891 23.7727 9.87747C24.2318 10.103 24.668 10.3681 25.0806 10.6669C25.0924 10.6949 25.1034 10.7229 25.1135 10.7509C25.5835 11.9923 25.6248 13.3851 25.3472 14.7195" fill="#FCB9B4"/>
<path fill-rule="evenodd" clip-rule="evenodd" d="M40.7756 36.7169C38.6678 36.7696 33.8119 33.9748 31.8054 32.9746C31.4282 32.7853 30.7136 32.4001 29.8892 31.9424C29.2783 31.6032 28.6075 31.2262 27.9671 30.859C26.855 30.221 25.8357 29.616 25.3885 29.3114C25.0349 29.0694 24.6755 28.7961 24.327 28.4948C23.1103 27.4452 22.037 26.0606 21.8691 24.5179C21.8606 24.4373 21.8598 23.8594 21.9231 23.5515C21.9467 23.4346 21.9796 23.3572 22.0252 23.3605C25.623 23.6215 28.9914 25.1534 32.1412 26.8706C33.1512 27.4214 33.7022 27.8066 34.5257 28.3326C34.7021 28.4462 34.8911 28.5656 35.0995 28.694L35.1122 28.7014C35.1029 28.68 35.0936 28.6586 35.0843 28.6372C34.9561 28.3302 34.8396 28.0124 34.7358 27.7152C34.6295 27.4107 34.5376 27.1266 34.4574 26.8929C34.2583 26.31 34.0212 25.5099 34.0212 25.5099C34.0212 25.5099 33.2677 23.5523 33.1706 23.5128C32.9192 23.4107 32.6779 23.2873 32.4509 23.1407C32.1724 22.9604 31.975 22.7225 31.7193 22.5176C31.2772 22.1644 30.7583 21.8952 30.2908 21.5725C30.1465 21.4721 29.9972 21.3643 29.9128 21.2103L29.9044 21.1939C29.8293 21.0424 29.8318 20.8415 29.9601 20.7279C30.0579 20.6407 30.2048 20.6242 30.3355 20.6489C30.5651 20.6934 30.7903 20.8168 30.992 20.928C31.1211 20.9996 31.2544 21.0885 31.397 21.1329C31.613 21.2029 31.5211 21.0251 31.4502 20.8934C31.3709 20.7493 31.2772 20.6143 31.1759 20.4851C30.976 20.2291 30.7473 19.9961 30.5372 19.7483L29.1112 18.0665C28.9712 17.9011 29.0716 17.6129 29.2774 17.552C29.5643 17.4656 29.7643 17.8155 29.9297 17.9809C30.2056 18.2567 30.484 18.5316 30.7617 18.8058C30.9616 19.0017 31.1624 19.1984 31.3641 19.3927C31.4805 19.5063 31.559 19.6668 31.678 19.7862C31.721 19.8298 31.8349 19.9591 31.9134 19.9179C31.9953 19.8751 31.9058 19.7426 31.883 19.6849C31.8257 19.5466 31.7641 19.4116 31.6991 19.2758C31.5742 19.0149 31.4384 18.7588 31.3 18.5036C31.0207 17.9834 30.7321 17.4648 30.5178 16.9149C30.5085 16.8918 30.5018 16.8696 30.4975 16.8474C30.4182 16.6819 30.5144 16.4646 30.6933 16.407C31.0308 16.2983 31.2097 16.7642 31.343 16.9783C31.5573 17.3248 31.759 17.678 31.9733 18.0245C32.1319 18.283 32.2914 18.5415 32.4517 18.8C32.5066 18.8914 32.6669 19.3647 32.8314 19.312C32.9749 19.2676 32.7918 18.9054 32.7741 18.8206C32.7302 18.6181 32.6838 18.4164 32.6365 18.2155C32.5412 17.8122 32.4365 17.4121 32.3201 17.0137C32.3091 16.9766 32.3049 16.9404 32.3066 16.9058C32.2695 16.7947 32.2324 16.6827 32.1935 16.5716C32.1252 16.3716 32.2965 16.1584 32.5116 16.1649C32.8222 16.1724 32.8686 16.5568 32.9428 16.7782C33.0601 17.1314 33.174 17.4845 33.2837 17.8402C33.3622 18.0904 33.4373 18.3423 33.5115 18.5942C33.5512 18.7284 33.6761 19.3285 33.9241 19.1523C33.9722 19.1178 33.9688 18.9935 33.9714 18.9441C33.9832 18.7852 33.957 18.6271 33.9478 18.4691C33.9224 18.0451 33.9022 17.6204 33.8895 17.1964C33.8819 16.9634 34.1486 16.798 34.3646 16.9034C34.6793 17.0573 34.5662 17.65 34.5713 17.9233C34.5797 18.3588 34.6042 18.7934 34.6456 19.2272C34.654 19.3013 34.6607 19.3754 34.6861 19.4462C34.7181 19.5368 34.7763 19.6158 34.8303 19.6973L34.832 19.6989C35.1366 20.1591 35.3155 20.6925 35.3872 21.2334C35.4235 21.505 35.432 21.7808 35.4134 22.0541C35.394 22.3307 35.275 22.851 35.275 22.851C35.275 22.851 35.4834 23.1753 35.5788 23.2988C35.6885 23.4395 35.7897 23.5869 35.8935 23.731C36.1104 24.0306 36.3272 24.3294 36.5432 24.6291C37.2942 25.6663 38.0654 26.6912 38.7767 27.7556C40.6187 30.51 41.3705 31.9193 42.1805 33.8176C42.626 34.8606 42.2919 36.679 40.7756 36.7169" fill="#FFCFCA"/>
<path fill-rule="evenodd" clip-rule="evenodd" d="M29.8893 31.9425C29.2784 31.6033 28.6076 31.2263 27.9671 30.8592C27.8752 32.0289 27.7199 33.2086 27.5233 34.389C26.6584 34.3676 25.7952 34.3232 24.9354 34.2343C24.3887 34.1775 23.7938 34.0779 23.4318 33.6737C23.1736 33.3847 23.0842 32.988 23.0563 32.606C22.9694 31.4124 23.3998 30.2368 23.9558 29.17C24.0748 28.9428 24.1988 28.718 24.3271 28.4949C24.7979 27.6726 25.3067 26.8691 25.694 26.0072C25.7851 25.8039 25.8779 25.5882 25.9952 25.3973C26.1269 25.1824 26.2889 24.9972 26.5167 24.8877L26.6863 24.9404C26.7901 25.4121 26.9023 25.8846 27.0288 26.3522C27.2854 27.3046 27.6001 28.2414 28.0186 29.137C28.0304 29.1609 28.0414 29.1848 28.0532 29.2095C28.524 30.2014 29.1299 31.1424 29.8893 31.9425" fill="#FCB9B4"/>
<path fill-rule="evenodd" clip-rule="evenodd" d="M34.8388 21.4014C34.7924 21.0861 34.7105 20.7651 34.5097 20.5148C34.3089 20.2646 33.9646 20.1016 33.6508 20.1897C33.4947 20.2333 33.3613 20.3329 33.2128 20.3996C32.8424 20.5651 32.3733 20.5239 32.0695 20.789C32.0273 20.8252 31.9894 20.8688 31.9767 20.9215C31.9539 21.0227 32.0307 21.1174 32.1024 21.194C32.2037 21.3026 32.3159 21.4171 32.4636 21.4467C32.5834 21.4697 32.7057 21.4327 32.8272 21.4179C33.1285 21.3825 33.4272 21.4887 33.6997 21.6187C33.8431 21.6862 33.9832 21.762 34.1123 21.8534C34.3739 22.0378 34.5848 22.2831 34.7924 22.5251C34.8194 22.5572 34.8363 22.5876 34.8388 22.6288C34.9038 22.2205 34.8996 21.8097 34.8388 21.4014" fill="#F9BFBB"/>
<path fill-rule="evenodd" clip-rule="evenodd" d="M24.2012 9.0477C23.5464 8.5472 22.7895 8.18581 21.9626 7.99483C21.518 7.89111 21.0623 7.82937 20.6058 7.81538C20.0228 7.79644 19.6912 8.00718 19.4127 8.50028C19.1967 8.88306 19.0913 9.31854 19.0702 9.75318C19.0643 9.88819 19.0651 10.024 19.0735 10.1615C19.1579 11.5041 19.9055 12.9497 20.7383 13.707C21.4117 14.3203 22.2715 14.7418 23.1642 14.9517C24.0544 15.1616 25.1665 15.1953 25.9942 14.7525C26.7764 14.3335 26.8819 13.4568 26.6633 12.6829C26.3925 11.7223 25.8035 10.7435 25.1631 9.97298C24.8754 9.62723 24.553 9.31771 24.2012 9.0477" fill="#3A374C"/>
<path fill-rule="evenodd" clip-rule="evenodd" d="M20.725 8.45837C20.7014 8.3637 20.6727 8.26821 20.617 8.18671C20.4896 7.99902 20.244 7.92164 20.0137 7.90024C19.2003 7.82698 18.4459 8.29126 17.7929 8.77118C17.3879 9.06918 16.9896 9.38447 16.6757 9.77302C16.4614 10.0397 16.2901 10.3369 16.1348 10.639C15.6606 11.5651 15.3273 12.5587 15.1485 13.5787L15.2497 14.1615C15.3434 13.1037 15.7189 12.0228 16.5255 11.3099C17.5608 10.3954 19.0619 10.2587 20.4204 9.94342C20.5098 9.92284 20.6043 9.89732 20.6651 9.82982C20.7115 9.77713 20.7301 9.70634 20.7444 9.63801C20.8246 9.24946 20.8178 8.84445 20.725 8.45837" fill="#3A374C"/>
<path fill-rule="evenodd" clip-rule="evenodd" d="M26.0696 15.6647C25.9016 15.2679 25.4916 14.9888 24.9676 14.9773C24.3702 14.9649 23.9027 15.4514 23.5205 15.8984L22.789 18.6084C22.7695 18.6825 23.5036 18.6619 23.5914 18.643C23.8867 18.5788 24.1862 18.4281 24.447 18.2816C24.9853 17.977 25.4519 17.5514 25.792 17.0427C26.0603 16.6426 26.2695 16.1331 26.0696 15.6647" fill="#FFCFCA"/>
<path fill-rule="evenodd" clip-rule="evenodd" d="M19.3918 8.04592C19.4028 8.15788 19.4062 8.27066 19.4036 8.38261C19.4028 8.4213 19.4019 8.45999 19.3986 8.49868C19.3724 8.92921 19.2543 9.35234 19.067 9.74089C19.0062 9.86684 18.9379 9.98949 18.8636 10.1072C18.8459 10.136 18.8273 10.1648 18.8071 10.1928C18.3987 10.8053 17.8241 11.2926 17.1955 11.6746C16.8698 11.8721 16.5238 12.0442 16.1517 12.124C16.0732 12.1405 15.9948 12.152 15.9155 12.1594C15.9062 12.1611 15.8977 12.1619 15.8885 12.1619C15.8049 12.1685 15.7205 12.1701 15.6362 12.1652C15.4387 12.1553 15.2447 12.1117 15.0641 12.0269C15.1797 11.6762 15.313 11.3313 15.4683 10.9954C16.2032 9.40502 17.4216 8.2937 18.9007 7.78003C19.0636 7.80143 19.2239 7.84012 19.3707 7.88458C19.3792 7.93808 19.3868 7.99241 19.3918 8.04592" fill="#3A374C"/>
<path fill-rule="evenodd" clip-rule="evenodd" d="M19.8939 17.3489C19.9192 17.6362 19.8796 17.9111 19.7876 18.154C19.7682 18.2067 19.7463 18.2569 19.7226 18.3063C19.5108 18.7368 19.1278 19.0381 18.6688 19.0768C18.3034 19.1072 17.9566 18.9656 17.6874 18.7105C17.6663 18.6907 17.6453 18.6701 17.6258 18.6487C17.371 18.3804 17.1972 18.0042 17.1592 17.5786C17.155 17.5275 17.1525 17.4773 17.1516 17.4271L19.8745 17.1982C19.8829 17.2476 19.8897 17.2978 19.8939 17.3489" fill="#D55454"/>
<path fill-rule="evenodd" clip-rule="evenodd" d="M19.7227 18.306C19.5109 18.7365 19.1278 19.0378 18.6688 19.0765C18.3034 19.107 17.9566 18.9654 17.6875 18.7102C17.7347 18.632 17.7921 18.5587 17.8588 18.4904C18.0824 18.264 18.4072 18.1084 18.7793 18.0771C19.0586 18.0533 19.3244 18.1035 19.5497 18.2089C19.6104 18.2377 19.6678 18.2698 19.7227 18.306" fill="#F37C7C"/>
<path fill-rule="evenodd" clip-rule="evenodd" d="M19.5182 17.2278C19.4668 17.2953 19.406 17.3578 19.3377 17.4155C19.1174 17.6007 18.8162 17.7266 18.477 17.7555C18.115 17.7859 17.7767 17.6987 17.5202 17.534C17.4611 17.4961 17.4071 17.455 17.3582 17.4097L19.5182 17.2278" fill="white"/>
<path fill-rule="evenodd" clip-rule="evenodd" d="M13.8448 15.5485C13.5613 14.4883 14.2136 13.4008 15.2995 13.1242C16.3854 12.8468 17.5009 13.4831 17.7844 14.5434C18.0688 15.6029 17.4157 16.6903 16.3297 16.9677C15.2438 17.2443 14.1292 16.608 13.8448 15.5485ZM17.0597 13.335L19.3337 13.1481C18.9835 13.442 18.7321 13.833 18.6148 14.2668L17.8368 14.3286C17.6841 13.9162 17.4073 13.5754 17.0597 13.335ZM17.9227 14.6332C17.9143 14.5937 17.9075 14.5542 17.8974 14.5147C17.8898 14.4892 17.8805 14.4653 17.8729 14.4398L18.5876 14.383C18.5741 14.4464 18.5632 14.5097 18.5556 14.5748L17.9227 14.6332ZM18.7241 15.359C18.4246 14.2387 19.1139 13.0887 20.2623 12.7964C21.4107 12.5034 22.5886 13.1759 22.889 14.2963C23.1894 15.4167 22.5 16.5659 21.3516 16.8589C20.2033 17.152 19.0245 16.4794 18.7241 15.359ZM13.7326 15.5765C14.033 16.6969 15.2109 17.3702 16.3593 17.0772C17.4284 16.8047 18.0992 15.788 17.9439 14.7451L18.5447 14.6899C18.5295 14.9187 18.5497 15.1534 18.6122 15.388C18.9286 16.5684 20.1706 17.278 21.3815 16.9693C22.5914 16.6606 23.3188 15.4489 23.0024 14.2676C22.6859 13.0871 21.4431 12.3775 20.2331 12.6862C19.9622 12.7554 19.7175 12.8715 19.5015 13.0205L16.901 13.2337C16.4251 12.9628 15.8438 12.8673 15.27 13.0139C14.1224 13.3069 13.4322 14.4569 13.7326 15.5765V15.5765Z" fill="#999999"/>
<path fill-rule="evenodd" clip-rule="evenodd" d="M18.5757 16.4515C18.5065 16.3733 18.3977 16.3239 18.2829 16.3222C18.1673 16.3181 18.0467 16.3733 17.9724 16.463C17.8973 16.5519 17.8636 16.6844 17.9091 16.7948C17.9496 16.9026 18.0534 16.9866 18.1623 16.9857C18.0678 16.9388 18.0138 16.854 17.996 16.7692C17.9792 16.6853 18.0062 16.6005 18.0627 16.5354C18.1175 16.4679 18.1969 16.4235 18.288 16.4103C18.3791 16.3971 18.4787 16.412 18.5757 16.4515" fill="#B53434"/>
<path fill-rule="evenodd" clip-rule="evenodd" d="M20.3243 13.7317C20.3505 13.7251 20.369 13.7012 20.3673 13.6732C20.3657 13.6419 20.3387 13.6181 20.3066 13.6197L19.4476 13.6642C19.4156 13.6658 19.3903 13.693 19.3928 13.7243C19.3945 13.7555 19.4215 13.7794 19.4535 13.7778L20.3125 13.7333L20.3243 13.7317" fill="#24404C"/>
<path fill-rule="evenodd" clip-rule="evenodd" d="M17.1914 14.0173C17.2184 14.0107 17.2369 13.986 17.2344 13.958C17.2327 13.9268 17.2049 13.9037 17.1728 13.9062L16.3619 13.963C16.3307 13.9655 16.3062 13.9926 16.3088 14.0239C16.3104 14.0552 16.3383 14.0782 16.3704 14.0766L17.1812 14.019L17.1914 14.0173" fill="#24404C"/>
<path fill-rule="evenodd" clip-rule="evenodd" d="M19.4052 15.2259C19.3942 15.2259 19.3824 15.2235 19.3714 15.2185C19.3301 15.2004 19.3123 15.1527 19.3309 15.1132C19.4305 14.9 19.6363 14.7518 19.8802 14.7164C20.0751 14.6884 20.3316 14.7872 20.5037 14.9576C20.5358 14.9889 20.5358 15.0391 20.5037 15.0704C20.4717 15.1008 20.4194 15.1008 20.3882 15.0695C20.254 14.9378 20.0464 14.8539 19.9047 14.8744C19.7148 14.9016 19.5562 15.0152 19.4794 15.179C19.4659 15.2087 19.4364 15.2259 19.4052 15.2259" fill="#FCB9B4"/>
<path fill-rule="evenodd" clip-rule="evenodd" d="M16.4181 15.3238C16.4013 15.3238 16.3844 15.3188 16.3692 15.3081C16.3329 15.2818 16.3253 15.2316 16.3523 15.1962C16.4983 15.0052 16.7362 14.8718 16.9328 14.8718H16.9354C17.1826 14.8735 17.407 14.992 17.537 15.1888C17.5606 15.2266 17.5496 15.2752 17.5117 15.2991C17.4737 15.3229 17.4231 15.3122 17.3986 15.2752C17.2999 15.1237 17.1261 15.0323 16.9345 15.0315C16.7886 15.0315 16.597 15.1427 16.484 15.2917C16.4679 15.3122 16.4435 15.3238 16.4181 15.3238" fill="#FCB9B4"/>
<path fill-rule="evenodd" clip-rule="evenodd" d="M19.3505 15.1204C19.3395 15.1204 19.3277 15.118 19.3167 15.113C19.2762 15.0949 19.2577 15.048 19.2762 15.0077C19.3758 14.7945 19.5817 14.6463 19.8264 14.6109C20.0213 14.5829 20.2778 14.6825 20.4499 14.8521C20.4811 14.8834 20.4811 14.9336 20.4491 14.9649C20.417 14.9953 20.3655 14.9953 20.3335 14.964C20.2002 14.8323 19.9926 14.7484 19.85 14.7689C19.6601 14.7961 19.5015 14.9097 19.4256 15.0735C19.4112 15.1032 19.3817 15.1204 19.3505 15.1204" fill="#24404C"/>
<path fill-rule="evenodd" clip-rule="evenodd" d="M16.3642 15.2184C16.3465 15.2184 16.3296 15.2135 16.3153 15.2028C16.279 15.1765 16.2714 15.1271 16.2984 15.0917C16.4435 14.8999 16.6823 14.7673 16.8789 14.7673H16.8806C17.1278 14.7682 17.3531 14.8867 17.4822 15.0843C17.5067 15.1213 17.4957 15.1707 17.4578 15.1946C17.4189 15.2176 17.3683 15.2069 17.3447 15.1699C17.2451 15.0184 17.0713 14.9279 16.8798 14.927C16.7338 14.927 16.5423 15.0373 16.4292 15.1863C16.4132 15.2077 16.3887 15.2184 16.3642 15.2184" fill="#24404C"/>
<path fill-rule="evenodd" clip-rule="evenodd" d="M19.9808 26.144C19.9437 26.1852 19.9057 26.2255 19.8669 26.2659C19.1708 26.9763 18.1414 27.5138 17.4048 28.016C16.4589 28.6589 15.8682 29.3084 15.3358 30.2839C15.2295 30.479 15.1274 30.6782 15.0287 30.8799C14.9587 31.0223 14.8912 31.1664 14.8253 31.3113C14.4743 32.0785 14.1689 32.8844 13.8845 33.7002C13.3605 35.1918 12.9024 36.718 12.3497 38.1142C11.6797 39.805 10.9195 41.4218 9.99725 42.9957C9.09356 44.5409 8.1325 46.0539 7.11659 47.5324C6.60864 48.2716 6.08634 49.0026 5.55223 49.7237C5.36913 49.9707 4.85105 50.7058 4.53294 51.1297C4.46291 51.2228 4.403 51.301 4.35744 51.3553L4.35238 51.3693V51.3709C4.37516 51.6986 4.35322 52.1217 4.24437 52.8387C4.187 53.2231 4.12793 53.6084 4.02583 53.9846C3.86636 54.5756 3.47822 55.0737 3.21159 55.6236C3.15674 55.7397 3.1019 55.8574 3.02005 55.9578C2.64035 56.4246 2.19231 55.9092 2.20749 55.4812C2.20834 55.4408 2.2134 55.4013 2.22015 55.3626C2.25981 55.1313 2.38975 54.9206 2.49522 54.7115C2.55682 54.5888 2.6142 54.4637 2.64373 54.3295C2.6682 54.2176 2.72051 54.0702 2.6201 53.9764C2.52813 53.8908 2.34503 53.8726 2.22606 53.8891C2.08262 53.9097 1.95942 53.9805 1.84805 54.0702C1.7662 54.1361 1.69195 54.2134 1.62191 54.29C1.43628 54.49 1.26584 54.6975 1.08696 54.9008C0.8372 55.1823 0.639757 55.4762 0.546941 55.8376C0.452438 56.2056 0.444 56.5867 0.413624 56.9629C0.381561 57.3671 0.359623 57.9178 -0.00657674 58.1854C-0.174488 58.308 -0.415809 58.1944 -0.479936 58.0174C-0.515374 57.9187 -0.510312 57.8116 -0.506093 57.7071C-0.474873 57.0411 -0.455466 56.3735 -0.325525 55.7166C-0.202333 55.0976 0.0963641 54.5131 0.380717 53.9484C0.803449 53.1153 2.68676 50.2711 2.68676 50.2711C2.70195 50.2423 3.49679 48.4535 4.03005 47.3282C4.43169 46.4803 4.77173 45.8292 5.15059 44.973C5.89311 43.2937 6.86514 41.1674 7.49629 39.4453C7.5486 39.3029 7.59839 39.1629 7.64395 39.0254C7.6988 38.8649 7.74774 38.7077 7.79414 38.5513C8.19072 37.2325 8.36707 36.0364 8.69361 34.5942C9.03871 33.0721 9.41082 31.559 9.76352 30.0386C10.3229 27.6217 11.3363 26.1885 12.1894 25.6765C13.3715 24.9685 14.5629 24.4013 15.8075 23.9766C15.9121 23.9403 16.0168 23.9058 16.1214 23.872C16.5947 23.7197 17.0765 23.588 17.5676 23.4761C17.6545 23.4571 17.7423 23.4374 17.83 23.4193C18.3911 23.3007 18.9658 23.2077 19.5589 23.1394C19.7741 23.1155 19.9825 23.2299 20.1538 23.4053C20.358 23.6119 20.5124 23.9025 20.5681 24.1445C20.7554 24.9512 20.4711 25.5983 19.9808 26.144" fill="#FFCFCA"/>
<path fill-rule="evenodd" clip-rule="evenodd" d="M23.284 31.8167C22.1222 32.9173 20.5502 33.5652 18.9411 33.7463C18.4652 33.7998 17.9801 33.8146 17.5109 33.7216C16.3069 33.482 15.3323 32.5329 14.8691 31.4216C14.8539 31.3854 14.8395 31.3483 14.8252 31.3113C14.794 31.2306 14.7653 31.1491 14.7391 31.0668C14.4075 30.0493 14.4235 28.9363 14.6176 27.8802C14.7087 27.3813 14.8378 26.8915 14.9863 26.4058C15.188 25.7415 15.4251 25.0862 15.6479 24.4293C15.6993 24.2787 15.7508 24.1272 15.8073 23.9766C15.912 23.9404 16.0166 23.9058 16.1212 23.872C16.5946 23.7197 17.0764 23.588 17.5675 23.4761C17.5928 23.6852 17.6383 23.8893 17.7025 24.0885C17.7708 24.3001 17.8611 24.5042 17.9716 24.6993C18.3581 25.3785 18.9833 25.9374 19.7284 26.2173C19.7739 26.2346 19.8195 26.2511 19.8668 26.2659C19.9283 26.2856 19.9916 26.3046 20.0558 26.3202C20.6363 26.4684 21.2463 26.4618 21.8446 26.4248C22.9744 26.3564 24.1574 26.1605 25.0298 25.4592C24.9016 26.1539 25.0788 26.8644 25.1066 27.5707C25.169 29.1504 24.4476 30.7161 23.284 31.8167" fill="#FCB9B4"/>
<path fill-rule="evenodd" clip-rule="evenodd" d="M26.9739 24.239C27.1014 25.5067 27.1039 26.7983 27.2431 28.0619C27.4481 29.9289 27.8641 31.7671 28.1519 33.6242C28.3155 34.6755 28.4033 35.7629 28.3923 36.8454C28.3839 37.676 28.3172 38.5025 28.1831 39.3068C24.3835 41.117 19.9529 41.6307 15.8251 40.7408C15.4007 40.6494 14.978 40.5432 14.5687 40.3975C13.9401 40.1736 13.3959 39.8525 12.7571 39.6566C12.7335 37.8793 12.7099 36.0963 12.8128 34.3231C12.8736 33.2801 12.9774 32.2404 13.1512 31.209C13.6051 28.5155 14.4818 26.5488 14.8784 23.8479C15.129 23.7977 15.5357 23.6109 15.7981 23.5623C16.2833 23.4726 16.7693 23.331 17.284 23.2873C17.2646 24.0208 17.3937 24.7642 17.7531 25.4054C18.1548 26.12 18.8703 26.6904 19.6981 26.8065C20.0853 26.8608 20.4802 26.8164 20.8642 26.7448C21.5729 26.6122 22.2825 26.3743 22.82 25.9043C23.3162 25.4705 23.6275 24.8736 23.8714 24.2686C24.0359 23.8619 24.1093 23.6619 24.2215 23.2388C24.4975 23.3112 25.4459 23.6281 25.5944 23.7047C25.6982 23.7582 26.8718 24.1846 26.9739 24.239" fill="#150F84"/>
<path fill-rule="evenodd" clip-rule="evenodd" d="M28.3923 36.8455C28.3839 37.6761 28.3172 38.5026 28.1831 39.3069C24.3835 41.1171 19.9529 41.6308 15.8251 40.7409C15.4007 40.6495 14.978 40.5433 14.5687 40.3976C13.9401 40.1737 13.3959 39.8527 12.7571 39.6567C12.7335 37.8795 12.7099 36.0964 12.8128 34.3232C13.1411 34.7744 13.5292 35.1695 14.0245 35.437C14.7847 35.8462 15.6943 35.8906 16.5609 35.8322C17.4266 35.7729 18.2906 35.619 19.1572 35.6692C20.7317 35.7589 22.1813 36.5088 23.7186 36.8546C24.4072 37.0093 25.1151 37.0834 25.8222 37.0933C26.6845 37.1057 27.5477 37.0217 28.3923 36.8455" fill="#FBB03B"/>
<path fill-rule="evenodd" clip-rule="evenodd" d="M8.78712 39.5043C8.46395 39.245 8.06147 39.0787 7.6438 39.0252C7.6978 38.8647 7.74758 38.7074 7.79399 38.551C7.9425 38.6128 8.08256 38.6893 8.22938 38.7889C8.50192 38.9733 8.67827 39.2014 8.78712 39.5043" fill="#FCB9B4"/>
<path fill-rule="evenodd" clip-rule="evenodd" d="M36.1551 30.9308C35.8412 30.6163 35.491 30.1652 35.2725 29.7808C35.0033 29.3083 34.7544 28.825 34.5257 28.3328C34.7021 28.4464 34.8911 28.5657 35.0995 28.6941C35.3155 29.5009 35.6302 30.2796 36.1551 30.9308" fill="#FCB9B4"/>
</g>
<path fill-rule="evenodd" clip-rule="evenodd" d="M19.8886 0.22144C19.8304 0.22144 19.7814 0.176164 19.7797 0.11854C19.7781 0.0592702 19.8253 0.0107016 19.8852 0.00905518C20.0793 0.00329279 20.2759 0.000823198 20.4708 0C20.5307 0 20.5797 0.0477455 20.5797 0.106193C20.5797 0.16464 20.5316 0.212385 20.4708 0.212385C20.2784 0.213208 20.0835 0.215678 19.892 0.22144H19.8886ZM21.6354 0.242853H21.6295C21.4363 0.232151 21.2414 0.224743 21.0507 0.219804C20.9908 0.218157 20.9427 0.169588 20.9444 0.111141C20.946 0.0518712 20.9958 0.00330249 21.0566 0.00741848C21.2498 0.0123577 21.4464 0.0205896 21.6413 0.030468C21.7012 0.0337608 21.7468 0.0839759 21.7443 0.142423C21.7409 0.199224 21.6928 0.242853 21.6354 0.242853ZM18.7259 0.286771C18.6703 0.286771 18.623 0.245611 18.6179 0.190457C18.6129 0.131187 18.6576 0.0801487 18.7175 0.0752095C18.9124 0.0587455 19.109 0.0447511 19.3006 0.0340496C19.3613 0.0307568 19.4128 0.0760327 19.4162 0.13448C19.4195 0.192927 19.3731 0.243142 19.3132 0.246435C19.1234 0.257136 18.9293 0.270307 18.7361 0.286771H18.7259ZM22.7955 0.338272L22.7828 0.337449C22.593 0.316869 22.3989 0.297935 22.2065 0.282295C22.1466 0.277355 22.1027 0.226317 22.1069 0.16787C22.112 0.109423 22.1652 0.0674399 22.2251 0.0707327C22.4191 0.0863734 22.6149 0.105307 22.8073 0.12671C22.8672 0.132473 22.9102 0.185157 22.9035 0.243604C22.8976 0.297935 22.8503 0.338272 22.7955 0.338272ZM17.57 0.416446C17.5169 0.416446 17.4696 0.377755 17.462 0.325071C17.4536 0.267447 17.4949 0.213116 17.554 0.204884C17.748 0.177718 17.9438 0.153022 18.1345 0.131619C18.1961 0.125034 18.2484 0.167017 18.2552 0.225464C18.2619 0.283911 18.2189 0.335772 18.1598 0.342358C17.9708 0.363761 17.7776 0.388457 17.5852 0.414799L17.57 0.416446ZM23.948 0.495572L23.9295 0.493926C23.7413 0.462644 23.5481 0.433832 23.3574 0.40749C23.2983 0.399258 23.257 0.34575 23.2654 0.287303C23.2739 0.229679 23.3295 0.189343 23.3878 0.197575C23.581 0.223917 23.7759 0.253552 23.9666 0.284834C24.0257 0.294712 24.0653 0.349866 24.0552 0.40749C24.0468 0.459351 24.0004 0.495572 23.948 0.495572ZM16.4226 0.609992C16.3719 0.609992 16.3264 0.575418 16.3162 0.525203C16.3044 0.467579 16.3424 0.411602 16.4006 0.400077C16.5905 0.36221 16.7845 0.326812 16.9761 0.294708C17.036 0.284829 17.0917 0.32352 17.1018 0.381143C17.1128 0.438767 17.0723 0.493921 17.0132 0.5038C16.8233 0.535905 16.6318 0.571302 16.4445 0.608346L16.4226 0.609992ZM25.0898 0.718609C25.0822 0.718609 25.0737 0.717785 25.0653 0.716139C24.8788 0.674156 24.6881 0.633819 24.5 0.596775C24.4409 0.586074 24.4021 0.530096 24.4139 0.472472C24.4257 0.414849 24.4831 0.376982 24.5421 0.388506C24.7328 0.426373 24.9252 0.46671 25.1142 0.508693C25.1733 0.521864 25.2096 0.578665 25.1961 0.636289C25.1843 0.685681 25.1395 0.718609 25.0898 0.718609ZM15.2883 0.86849C15.2402 0.86849 15.1963 0.836385 15.1836 0.789463C15.1676 0.732662 15.2022 0.674215 15.2604 0.659397C15.4486 0.610829 15.6401 0.56473 15.8291 0.521923C15.8873 0.508752 15.9456 0.54415 15.9599 0.60095C15.9734 0.658574 15.9363 0.715375 15.8781 0.728546C15.6916 0.771352 15.5026 0.816628 15.3161 0.864374C15.3068 0.866843 15.2975 0.86849 15.2883 0.86849ZM26.2169 1.00514C26.2068 1.00514 26.1967 1.00349 26.1865 1.00102C26.0009 0.948335 25.8127 0.897297 25.628 0.850374C25.5697 0.835557 25.5351 0.777933 25.5503 0.721132C25.5655 0.664332 25.6246 0.629757 25.6828 0.644575C25.8693 0.692321 26.0591 0.743359 26.2473 0.796867C26.3047 0.813331 26.3376 0.871778 26.3215 0.928578C26.3072 0.974677 26.2642 1.00514 26.2169 1.00514ZM14.1712 1.18949C14.1256 1.18949 14.0834 1.16068 14.0683 1.11623C14.0497 1.06025 14.0809 1.00015 14.1383 0.982044C14.3231 0.922774 14.5112 0.865973 14.6969 0.812465C14.7542 0.796001 14.815 0.828106 14.8319 0.884907C14.8488 0.940884 14.8158 1.00015 14.7585 1.01662C14.5745 1.0693 14.3881 1.12528 14.2058 1.18373C14.194 1.18702 14.183 1.18949 14.1712 1.18949ZM27.3266 1.35504C27.3148 1.35504 27.3021 1.3534 27.2903 1.34846C27.1098 1.28589 26.925 1.22498 26.7402 1.16653C26.6828 1.14842 26.6516 1.08915 26.6701 1.03317C26.6879 0.977195 26.7495 0.946737 26.8068 0.964847C26.9942 1.02329 27.1806 1.08586 27.3629 1.14842C27.4194 1.16818 27.449 1.22909 27.4295 1.28425C27.4135 1.32788 27.3713 1.35504 27.3266 1.35504ZM13.0751 1.57218C13.032 1.57218 12.9907 1.54666 12.9738 1.50468C12.9519 1.45035 12.9797 1.38861 13.0354 1.36721C13.2168 1.29806 13.4016 1.23055 13.5839 1.16635C13.6404 1.14659 13.7029 1.1754 13.7231 1.23055C13.7434 1.28571 13.7138 1.34663 13.6573 1.36638C13.4767 1.42977 13.2945 1.49645 13.1147 1.56477C13.1021 1.56971 13.0886 1.57218 13.0751 1.57218ZM28.4151 1.76656C28.4016 1.76656 28.3872 1.76409 28.3729 1.75833C28.1948 1.68507 28.0134 1.61345 27.8346 1.54595C27.7789 1.52454 27.751 1.46363 27.773 1.40847C27.7941 1.35414 27.8573 1.32698 27.9139 1.34756C28.0944 1.4167 28.2775 1.48832 28.4573 1.56323C28.513 1.58546 28.5391 1.64802 28.5155 1.70235C28.4978 1.74269 28.4581 1.76656 28.4151 1.76656ZM12.0071 2.01516C11.9666 2.01516 11.9269 1.99212 11.9083 1.9526C11.883 1.89992 11.9075 1.83653 11.9623 1.81184C12.1387 1.73281 12.3184 1.65543 12.4956 1.58216C12.5513 1.55911 12.6154 1.58463 12.6382 1.63814C12.6618 1.69247 12.6365 1.75503 12.5808 1.77726C12.4053 1.85053 12.2273 1.92708 12.0526 2.00529C12.0383 2.01187 12.0223 2.01516 12.0071 2.01516ZM29.4774 2.2391C29.4613 2.2391 29.4444 2.2358 29.4293 2.22839C29.2554 2.14525 29.0791 2.06375 28.9044 1.98637C28.8496 1.96168 28.826 1.89911 28.8504 1.84561C28.8757 1.7921 28.9407 1.76905 28.9947 1.79292C29.1711 1.87113 29.3499 1.95345 29.5254 2.03741C29.5794 2.06375 29.6014 2.12714 29.5752 2.17983C29.5558 2.21769 29.517 2.2391 29.4774 2.2391ZM10.9658 2.51642C10.927 2.51642 10.889 2.49584 10.8696 2.45962C10.8418 2.40775 10.862 2.34354 10.9152 2.31638C11.0873 2.22747 11.262 2.14021 11.4349 2.05707C11.4889 2.03073 11.5539 2.05213 11.5809 2.10482C11.6071 2.1575 11.5851 2.22171 11.5311 2.24723C11.3607 2.32955 11.1877 2.41599 11.0173 2.50407C11.0004 2.5123 10.9835 2.51642 10.9658 2.51642ZM30.5094 2.77005C30.4908 2.77005 30.4731 2.76594 30.4562 2.75688C30.2883 2.66386 30.117 2.57249 29.9466 2.48523C29.8934 2.45806 29.8732 2.39385 29.901 2.34199C29.9289 2.29013 29.9947 2.27037 30.0479 2.29754C30.22 2.38562 30.393 2.47782 30.5626 2.57166C30.6149 2.60047 30.6334 2.66468 30.6039 2.71572C30.5837 2.7503 30.5474 2.77005 30.5094 2.77005ZM9.95488 3.0753C9.9186 3.0753 9.88232 3.05719 9.86207 3.02426C9.83085 2.97405 9.84772 2.90902 9.89835 2.87856C10.0646 2.7806 10.2342 2.68346 10.4029 2.59044C10.4552 2.56163 10.5211 2.57891 10.5514 2.62995C10.581 2.68099 10.5624 2.74602 10.5101 2.77484C10.343 2.86703 10.1751 2.96335 10.0114 3.06048C9.9937 3.07036 9.97429 3.0753 9.95488 3.0753ZM31.5074 3.35774C31.4872 3.35774 31.4669 3.35197 31.4492 3.34045C31.2864 3.23837 31.1201 3.13794 30.9564 3.04163C30.905 3.01117 30.8889 2.94614 30.9202 2.89592C30.9505 2.84571 31.018 2.82924 31.0695 2.8597C31.2349 2.95684 31.402 3.05891 31.5665 3.16181C31.6171 3.19392 31.6323 3.25895 31.5994 3.30834C31.5783 3.34045 31.5437 3.35774 31.5074 3.35774ZM8.97868 3.69047C8.94324 3.69047 8.90949 3.67401 8.8884 3.64437C8.85465 3.59581 8.8673 3.52995 8.91624 3.49702C9.07656 3.38918 9.24025 3.28299 9.4031 3.18091C9.45373 3.14881 9.52123 3.1628 9.55414 3.2122C9.5862 3.26159 9.57186 3.32744 9.52123 3.35955C9.36007 3.4608 9.19806 3.56617 9.03943 3.67154C9.02087 3.68471 8.99978 3.69047 8.97868 3.69047ZM32.4702 3.99913C32.4483 3.99913 32.4255 3.99254 32.4061 3.97937C32.2517 3.86906 32.0922 3.75958 31.9328 3.65338C31.883 3.62046 31.8703 3.55378 31.9041 3.50603C31.9378 3.45746 32.0062 3.44512 32.0551 3.47804C32.2171 3.58588 32.3783 3.69619 32.5344 3.80732C32.5825 3.8419 32.5934 3.90858 32.558 3.9555C32.5369 3.98431 32.504 3.99913 32.4702 3.99913ZM8.03871 4.35879C8.0058 4.35879 7.97373 4.34479 7.9518 4.31763C7.91551 4.2707 7.92395 4.20403 7.97205 4.16863C8.12561 4.05256 8.28256 3.93731 8.4395 3.82618C8.48759 3.7916 8.55594 3.80148 8.59138 3.84923C8.62682 3.89615 8.61585 3.96283 8.56775 3.9974C8.4125 4.10771 8.25724 4.22131 8.10452 4.33656C8.08511 4.35138 8.06149 4.35879 8.03871 4.35879ZM33.3933 4.69287C33.3689 4.69287 33.3444 4.68546 33.3242 4.669C33.1748 4.55046 33.0221 4.43192 32.8702 4.31749C32.8229 4.2821 32.8137 4.21542 32.8508 4.1685C32.8871 4.1224 32.9554 4.11334 33.0035 4.14956C33.1571 4.26481 33.3115 4.38417 33.4617 4.50436C33.5081 4.5414 33.5157 4.60891 33.4769 4.65418C33.4558 4.6797 33.4246 4.69287 33.3933 4.69287ZM7.1384 5.07838C7.10802 5.07838 7.07764 5.06603 7.05655 5.04133C7.01689 4.9977 7.02196 4.9302 7.06668 4.89151C7.21434 4.76721 7.36453 4.64373 7.51388 4.52354C7.56113 4.4865 7.62947 4.49308 7.66744 4.53836C7.70541 4.58446 7.69866 4.65114 7.65226 4.68818C7.50375 4.80672 7.35525 4.92856 7.21012 5.05204C7.18902 5.06932 7.16371 5.07838 7.1384 5.07838ZM34.2742 5.43716C34.2472 5.43716 34.2211 5.42728 34.2 5.40917C34.0591 5.28322 33.914 5.15645 33.768 5.03297C33.7224 4.9951 33.7174 4.9276 33.757 4.88315C33.7958 4.83869 33.865 4.83375 33.9106 4.87244C34.0582 4.99757 34.2051 5.12517 34.3477 5.25276C34.3915 5.29227 34.3949 5.35895 34.3544 5.40258C34.3325 5.42563 34.3029 5.43716 34.2742 5.43716ZM6.28183 5.84631C6.25315 5.84631 6.22446 5.83561 6.20336 5.81421C6.16117 5.77222 6.16286 5.70555 6.20505 5.66439C6.34427 5.53267 6.48687 5.40014 6.63031 5.27172C6.67503 5.23221 6.74338 5.23468 6.78473 5.27831C6.82523 5.32111 6.82185 5.38861 6.77798 5.42813C6.63622 5.55572 6.49447 5.68579 6.35693 5.81668C6.33584 5.83643 6.30884 5.84631 6.28183 5.84631ZM35.1096 6.22845C35.0809 6.22845 35.0531 6.21774 35.032 6.19634C34.8961 6.06051 34.7586 5.92633 34.6219 5.79709C34.5789 5.75593 34.5772 5.68925 34.6194 5.64645C34.6615 5.60446 34.7299 5.60364 34.7729 5.6448C34.9113 5.77486 35.0505 5.91069 35.1872 6.04817C35.2294 6.09015 35.2286 6.15683 35.1855 6.19799C35.1644 6.21774 35.1374 6.22845 35.1096 6.22845ZM5.47019 6.66129C5.44403 6.66129 5.41788 6.65223 5.39678 6.6333C5.35206 6.59379 5.34953 6.52711 5.39003 6.48348C5.52166 6.34353 5.65666 6.20359 5.79167 6.06859C5.83386 6.0266 5.90305 6.02496 5.94608 6.06612C5.98911 6.10728 5.98996 6.17395 5.94777 6.21594C5.81445 6.35012 5.68113 6.48842 5.55035 6.62671C5.52925 6.64976 5.49972 6.66129 5.47019 6.66129ZM35.8977 7.06376C35.8674 7.06376 35.837 7.05141 35.8159 7.02671C35.6893 6.88595 35.5594 6.74354 35.4295 6.60606C35.389 6.56325 35.3923 6.49575 35.4362 6.45624C35.4801 6.41673 35.5493 6.4192 35.5898 6.462C35.7214 6.60194 35.853 6.74518 35.9796 6.88759C36.0192 6.93205 36.0142 6.99873 35.9695 7.03742C35.9484 7.0547 35.9231 7.06376 35.8977 7.06376ZM4.70746 7.52082C4.68299 7.52082 4.65852 7.51259 4.63911 7.49695C4.59186 7.45908 4.58511 7.3924 4.62308 7.34713C4.74543 7.20142 4.87199 7.05407 5.00025 6.91001C5.03991 6.86556 5.10825 6.86062 5.15382 6.89931C5.19938 6.938 5.20444 7.00468 5.16478 7.04913C5.03822 7.19154 4.9125 7.33725 4.79184 7.48131C4.77074 7.50765 4.73868 7.52082 4.70746 7.52082ZM36.636 7.94135C36.6031 7.94135 36.5711 7.92736 36.5491 7.90019C36.4335 7.75366 36.312 7.60467 36.1888 7.45896C36.1509 7.41286 36.1576 7.34618 36.204 7.30914C36.2504 7.27209 36.3188 7.27868 36.3576 7.32396C36.4816 7.47131 36.604 7.62195 36.7213 7.77013C36.7584 7.81623 36.75 7.88291 36.7019 7.91913C36.6825 7.93395 36.6588 7.94135 36.636 7.94135ZM3.99624 8.42058C3.97346 8.42058 3.95152 8.41399 3.93212 8.4C3.88318 8.36542 3.87221 8.29957 3.90765 8.25182C4.0224 8.09788 4.14053 7.94394 4.25866 7.79495C4.29578 7.74802 4.36413 7.73979 4.41138 7.77519C4.45948 7.81141 4.46791 7.87809 4.43163 7.92419C4.31435 8.07236 4.19706 8.22466 4.084 8.37695C4.0629 8.40576 4.02915 8.42058 3.99624 8.42058ZM37.3212 8.85761C37.2866 8.85761 37.2528 8.84197 37.2309 8.81234C37.1229 8.65758 37.0107 8.50281 36.8968 8.35135C36.8613 8.3036 36.8723 8.23775 36.9212 8.20317C36.9693 8.1686 37.0377 8.17847 37.0731 8.22622C37.1879 8.37933 37.3009 8.53574 37.4106 8.69133C37.4452 8.7399 37.4326 8.80575 37.3828 8.8395C37.3642 8.85185 37.3423 8.85761 37.3212 8.85761ZM3.33701 9.35891C3.31676 9.35891 3.29651 9.35314 3.27879 9.34244C3.22817 9.31034 3.21298 9.24448 3.24589 9.19509C3.35136 9.03539 3.46021 8.87487 3.5699 8.71928C3.60365 8.67071 3.67115 8.65837 3.72093 8.69129C3.77072 8.72422 3.78337 8.7909 3.74962 8.83865C3.64077 8.99341 3.53361 9.15146 3.42899 9.31034C3.40789 9.34162 3.3733 9.35891 3.33701 9.35891ZM37.9514 9.811C37.9151 9.811 37.8788 9.79289 37.8586 9.75996C37.759 9.59944 37.6552 9.43809 37.5514 9.28168C37.5194 9.23229 37.5337 9.16644 37.5843 9.13516C37.635 9.10305 37.7025 9.11705 37.7345 9.16644C37.8392 9.32531 37.9438 9.48748 38.045 9.64965C38.0754 9.69987 38.0594 9.7649 38.0079 9.79536C37.9902 9.80606 37.9708 9.811 37.9514 9.811ZM2.73458 10.3328C2.71686 10.3328 2.6983 10.3287 2.68142 10.3196C2.62911 10.2908 2.61055 10.2258 2.64008 10.1748C2.73627 10.0093 2.83583 9.84301 2.9354 9.68084C2.96662 9.63062 3.03328 9.61416 3.08559 9.64462C3.13706 9.67508 3.1531 9.74011 3.12188 9.79032C3.02315 9.95085 2.92443 10.1155 2.82993 10.2793C2.80968 10.3139 2.77255 10.3328 2.73458 10.3328ZM38.525 10.797C38.4862 10.797 38.4482 10.7764 38.4288 10.7402C38.3385 10.5739 38.2449 10.4076 38.1512 10.2463C38.1208 10.1952 38.1394 10.1302 38.1917 10.1014C38.244 10.0726 38.3107 10.0899 38.3402 10.1409C38.4356 10.3047 38.5301 10.4727 38.6212 10.6406C38.6491 10.6925 38.6288 10.7567 38.5765 10.7838C38.5596 10.7929 38.5427 10.797 38.525 10.797ZM2.19052 11.3395C2.17448 11.3395 2.15761 11.3362 2.14242 11.3288C2.08842 11.3025 2.06648 11.2391 2.09264 11.1864C2.1787 11.016 2.26814 10.844 2.35927 10.6769C2.38712 10.625 2.45293 10.6052 2.50609 10.6324C2.55925 10.6596 2.5795 10.7238 2.55165 10.7756C2.46221 10.9411 2.37362 11.1115 2.28839 11.2803C2.26899 11.3181 2.23017 11.3395 2.19052 11.3395ZM39.0399 11.8121C38.9985 11.8121 38.9597 11.7891 38.9411 11.7504C38.861 11.5816 38.7774 11.4104 38.6922 11.2416C38.6661 11.1889 38.688 11.1256 38.742 11.1C38.7952 11.0737 38.861 11.0951 38.888 11.1478C38.974 11.3174 39.0584 11.4911 39.1386 11.6615C39.1639 11.715 39.1403 11.7784 39.0854 11.8031C39.0702 11.8096 39.055 11.8121 39.0399 11.8121ZM1.70535 12.3752C1.69185 12.3752 1.6775 12.3727 1.66316 12.367C1.60831 12.3439 1.58216 12.2822 1.60578 12.2278C1.68088 12.0525 1.76104 11.8763 1.8412 11.7035C1.86651 11.6508 1.93064 11.6269 1.98548 11.6516C2.04033 11.6755 2.0648 11.7389 2.03948 11.7915C1.95933 11.9628 1.88085 12.1373 1.80576 12.3101C1.78888 12.3513 1.74838 12.3752 1.70535 12.3752ZM39.4939 12.8542C39.4509 12.8542 39.4095 12.8286 39.3926 12.7867C39.3235 12.6138 39.25 12.4384 39.1741 12.2656C39.1513 12.2112 39.1766 12.1495 39.2323 12.1264C39.288 12.1034 39.3513 12.1289 39.3749 12.1824C39.4509 12.3578 39.5251 12.5348 39.5952 12.7093C39.6171 12.7644 39.5892 12.8253 39.5336 12.8467C39.5209 12.8517 39.5074 12.8542 39.4939 12.8542ZM1.28248 13.437C1.27067 13.437 1.25801 13.4354 1.2462 13.4313C1.18967 13.4115 1.16014 13.3506 1.18039 13.2954C1.24536 13.1168 1.31455 12.9357 1.38458 12.7587C1.40652 12.7044 1.4698 12.6772 1.52549 12.6978C1.58203 12.7192 1.60987 12.7809 1.58793 12.8353C1.5179 13.0114 1.44955 13.1901 1.38543 13.3671C1.36939 13.4107 1.3272 13.437 1.28248 13.437ZM39.8869 13.9236C39.8414 13.9236 39.7983 13.8956 39.7831 13.8503C39.7241 13.6725 39.6608 13.4931 39.5958 13.3161C39.5756 13.2609 39.6051 13.2 39.6616 13.1803C39.7182 13.1605 39.7806 13.1893 39.8009 13.2445C39.8667 13.4231 39.9308 13.605 39.9907 13.7845C40.0093 13.8405 39.9781 13.9006 39.9207 13.9187C39.9097 13.922 39.8979 13.9236 39.8869 13.9236ZM0.923923 14.5203C0.913797 14.5203 0.903672 14.5187 0.893547 14.5154C0.835326 14.4989 0.802419 14.4405 0.819294 14.3837C0.873296 14.2026 0.931517 14.019 0.991425 13.8379C1.00999 13.7828 1.07074 13.7523 1.12812 13.7696C1.18549 13.7877 1.21671 13.8478 1.19815 13.9038C1.13909 14.0832 1.08171 14.2643 1.02771 14.4438C1.01421 14.4899 0.971174 14.5203 0.923923 14.5203ZM40.217 15.0134C40.1689 15.0134 40.1242 14.9822 40.1115 14.9344C40.0626 14.7525 40.0103 14.5697 39.9554 14.3903C39.9386 14.3335 39.9715 14.275 40.0297 14.2577C40.0871 14.2413 40.1478 14.2734 40.1647 14.3302C40.2195 14.5113 40.2727 14.6965 40.3216 14.8801C40.3377 14.9369 40.3031 14.9945 40.2448 15.0093C40.2356 15.0118 40.2263 15.0134 40.217 15.0134ZM0.629394 15.6194C0.6218 15.6194 0.613362 15.6186 0.604924 15.617C0.546704 15.603 0.509578 15.5462 0.523078 15.4894C0.566954 15.305 0.614206 15.1189 0.663145 14.9345C0.678333 14.8777 0.737397 14.844 0.795618 14.8588C0.853839 14.8736 0.888434 14.9312 0.873246 14.988C0.82515 15.1708 0.778743 15.3552 0.73571 15.5371C0.723897 15.5857 0.679177 15.6194 0.629394 15.6194ZM40.4811 16.119C40.4305 16.119 40.3849 16.0845 40.3748 16.0342C40.3368 15.8515 40.2955 15.6663 40.2516 15.4827C40.2372 15.4251 40.2735 15.3683 40.3326 15.3551C40.3917 15.3419 40.4499 15.3773 40.4634 15.4341C40.5081 15.6194 40.5494 15.807 40.5883 15.9923C40.6001 16.0499 40.5621 16.1059 40.503 16.1174L40.4811 16.119ZM0.40086 16.7332L0.382296 16.7315C0.323232 16.7217 0.283574 16.6665 0.2937 16.6089C0.325763 16.422 0.362046 16.2335 0.400016 16.0475C0.411829 15.9898 0.469205 15.9528 0.52827 15.9643C0.587334 15.9758 0.625304 16.0318 0.613491 16.0894C0.576365 16.273 0.540083 16.4599 0.508019 16.6451C0.498738 16.6961 0.453174 16.7332 0.40086 16.7332ZM40.681 17.2385C40.6279 17.2385 40.5806 17.2007 40.573 17.1472C40.546 16.9611 40.5148 16.7734 40.4819 16.5899C40.4718 16.5314 40.5114 16.4771 40.5705 16.4664C40.6295 16.4565 40.6861 16.4952 40.6971 16.5528C40.73 16.7397 40.7612 16.929 40.789 17.1175C40.7975 17.1752 40.7561 17.2295 40.6962 17.2377L40.681 17.2385ZM0.237833 17.8578L0.225176 17.857C0.165268 17.8504 0.122235 17.7977 0.128986 17.7401C0.150924 17.5516 0.175393 17.3614 0.203238 17.1737C0.211676 17.1153 0.267365 17.0758 0.325586 17.0832C0.385494 17.0914 0.426839 17.1449 0.418401 17.2033C0.3914 17.3886 0.366931 17.5771 0.345836 17.7631C0.339086 17.8175 0.291835 17.8578 0.237833 17.8578ZM40.8143 18.3671C40.7586 18.3671 40.7105 18.3251 40.7055 18.2699C40.6894 18.0822 40.6692 17.8937 40.6481 17.7077C40.6405 17.6492 40.6835 17.5965 40.7434 17.59C40.8033 17.5834 40.8573 17.6254 40.8641 17.6838C40.886 17.8707 40.9063 18.0617 40.9223 18.2518C40.9282 18.3103 40.8835 18.3613 40.8236 18.3662L40.8143 18.3671ZM0.14048 18.9896H0.134573C0.074665 18.9863 0.0282572 18.9361 0.0316323 18.8777C0.0426014 18.6892 0.0561019 18.4974 0.0729774 18.308C0.0771963 18.2496 0.130354 18.2076 0.190262 18.2109C0.250171 18.2158 0.294891 18.2677 0.289828 18.3261C0.273796 18.513 0.260296 18.7023 0.249327 18.8892C0.245952 18.946 0.197856 18.9896 0.14048 18.9896ZM40.8818 19.5015C40.8228 19.5015 40.7747 19.4554 40.773 19.3977C40.7671 19.2117 40.7587 19.0215 40.7477 18.833C40.7443 18.7754 40.7899 18.7244 40.8498 18.7211C40.9088 18.7161 40.9612 18.7622 40.9645 18.8215C40.9763 19.0117 40.9848 19.2035 40.9907 19.392C40.9924 19.4504 40.9451 19.499 40.8852 19.5006L40.8818 19.5015ZM0.108847 20.1255C0.0489391 20.1255 0 20.0778 0 20.0193V20.0004C0 19.8168 0.00253133 19.6308 0.00759399 19.448C0.00928155 19.3896 0.0607519 19.341 0.118973 19.3451C0.179725 19.3468 0.226976 19.3954 0.225288 19.4538C0.220226 19.6349 0.217694 19.8185 0.217694 20.0004V20.0193C0.217694 20.0778 0.168755 20.1255 0.108847 20.1255ZM40.8828 20.6746H40.8802C40.8203 20.6729 40.7722 20.6235 40.7739 20.5651C40.7798 20.3766 40.7823 20.1864 40.7823 20.0004V19.9625C40.7823 19.9041 40.8313 19.8563 40.8912 19.8563C40.9511 19.8563 41 19.9041 41 19.9625V20.0004C41 20.1889 40.9975 20.3807 40.9916 20.5708C40.9899 20.6285 40.9418 20.6746 40.8828 20.6746ZM0.142575 21.2607C0.0851981 21.2607 0.0371028 21.217 0.0337277 21.1602C0.0227586 20.9709 0.0143208 20.7791 0.00841436 20.5898C0.00672681 20.5313 0.0539783 20.4828 0.11473 20.4811H0.117262C0.176326 20.4811 0.224421 20.5264 0.226109 20.584C0.232015 20.7709 0.240453 20.961 0.251422 21.1487C0.254797 21.2072 0.20839 21.2574 0.148481 21.2607H0.142575ZM40.8177 21.8083H40.8084C40.7485 21.8034 40.7038 21.7524 40.7089 21.6939C40.7258 21.5054 40.7393 21.3161 40.7494 21.13C40.7536 21.0716 40.8059 21.0288 40.865 21.0296C40.9249 21.0329 40.9705 21.0831 40.9671 21.1415C40.9561 21.3301 40.9426 21.5219 40.9257 21.7112C40.9215 21.7672 40.8734 21.8083 40.8177 21.8083ZM0.242945 22.3925C0.188099 22.3925 0.140848 22.3522 0.134098 22.2979C0.112159 22.1093 0.0927526 21.9175 0.0767209 21.7299C0.0708144 21.6714 0.115535 21.6204 0.175443 21.6154C0.235351 21.6097 0.288509 21.6533 0.293572 21.7117C0.309603 21.8978 0.32901 22.0871 0.350948 22.274C0.357699 22.3324 0.314666 22.3851 0.254758 22.3917L0.242945 22.3925ZM40.686 22.9367L40.6709 22.9358C40.6118 22.9276 40.5704 22.8741 40.578 22.8156C40.6059 22.6296 40.6303 22.4411 40.6523 22.2559C40.659 22.1974 40.713 22.1546 40.7721 22.162C40.832 22.1686 40.875 22.2213 40.8683 22.2797C40.8464 22.4666 40.821 22.6576 40.794 22.8461C40.7864 22.8988 40.74 22.9367 40.686 22.9367ZM0.406521 23.5172C0.35505 23.5172 0.308643 23.481 0.299361 23.4291C0.266454 23.2414 0.236078 23.0513 0.208233 22.8652C0.199795 22.8068 0.241141 22.7533 0.301049 22.745C0.360113 22.7368 0.414959 22.7763 0.42424 22.8348C0.451241 23.0192 0.481617 23.2068 0.514524 23.3929C0.52465 23.4505 0.484992 23.5057 0.425084 23.5155L0.406521 23.5172ZM40.4895 24.0564L40.4676 24.0548C40.4085 24.0433 40.3706 23.9873 40.3824 23.9297C40.4203 23.7461 40.4558 23.5592 40.4887 23.374C40.4988 23.3164 40.5553 23.2777 40.6144 23.2876C40.6735 23.2975 40.7131 23.3526 40.703 23.4102C40.6701 23.5971 40.6338 23.7864 40.5958 23.9717C40.5857 24.0219 40.5401 24.0564 40.4895 24.0564ZM0.637797 24.6303C0.588858 24.6303 0.544138 24.5973 0.532325 24.5479C0.488449 24.3635 0.44626 24.1758 0.407446 23.9906C0.395633 23.933 0.433603 23.877 0.492668 23.8655C0.551732 23.854 0.609109 23.891 0.620922 23.9478C0.658892 24.1314 0.700237 24.3174 0.744113 24.5002C0.757614 24.557 0.721331 24.6146 0.663111 24.6278C0.654673 24.6294 0.646235 24.6303 0.637797 24.6303ZM40.2261 25.1635C40.2177 25.1635 40.2084 25.1619 40.1991 25.1602C40.1409 25.1454 40.1054 25.087 40.1206 25.0302C40.1696 24.8499 40.216 24.6647 40.2598 24.4819C40.2733 24.4243 40.3316 24.3889 40.3906 24.4021C40.4488 24.4152 40.4851 24.4729 40.4716 24.5297C40.4278 24.7149 40.3805 24.9009 40.3316 25.0837C40.3189 25.1314 40.275 25.1635 40.2261 25.1635ZM0.934138 25.7291C0.887731 25.7291 0.843854 25.6987 0.830354 25.6526C0.775508 25.4706 0.72235 25.2854 0.673411 25.1027C0.658223 25.0459 0.692818 24.9874 0.751039 24.9726C0.809259 24.9578 0.868324 24.9915 0.883512 25.0483C0.932451 25.2294 0.984765 25.4122 1.03877 25.5925C1.05564 25.6493 1.02274 25.7077 0.965358 25.725C0.955233 25.7275 0.945108 25.7291 0.934138 25.7291ZM39.8989 26.2533C39.8879 26.2533 39.877 26.2517 39.8652 26.2484C39.8086 26.2303 39.7766 26.1702 39.7951 26.1142C39.855 25.9364 39.9124 25.7553 39.9664 25.575C39.9833 25.5182 40.044 25.4861 40.1014 25.5026C40.1588 25.519 40.1925 25.5783 40.1757 25.6343C40.1208 25.817 40.0626 26.0006 40.0027 26.18C39.9875 26.2253 39.9453 26.2533 39.8989 26.2533ZM1.29521 26.8091C1.25049 26.8091 1.20831 26.7819 1.19227 26.7383C1.12646 26.5588 1.06318 26.3777 1.00327 26.1983C0.984705 26.1423 1.01592 26.0822 1.0733 26.0641C1.12983 26.046 1.19143 26.0764 1.20999 26.1324C1.2699 26.3094 1.33234 26.4897 1.39731 26.6675C1.41756 26.7227 1.38803 26.7827 1.3315 26.8025C1.31968 26.8074 1.30703 26.8091 1.29521 26.8091ZM39.5064 27.3269C39.4929 27.3269 39.4802 27.3245 39.4667 27.3195C39.411 27.2989 39.3832 27.2372 39.4051 27.182C39.4752 27.0059 39.5435 26.8272 39.6076 26.6511C39.6279 26.5959 39.6903 26.5671 39.7469 26.5869C39.8034 26.6066 39.8329 26.6675 39.8127 26.7227C39.7477 26.9005 39.6785 27.0816 39.6076 27.2594C39.5908 27.3014 39.5503 27.3269 39.5064 27.3269ZM1.71792 27.8652C1.67573 27.8652 1.63523 27.8413 1.61751 27.801C1.54241 27.6273 1.46816 27.4495 1.39728 27.2733C1.37619 27.219 1.40319 27.1572 1.45972 27.1358C1.51541 27.1144 1.57869 27.1416 1.60063 27.1959C1.66982 27.3704 1.74323 27.5458 1.81832 27.7178C1.84195 27.7722 1.81579 27.8339 1.7601 27.857C1.7466 27.8627 1.73226 27.8652 1.71792 27.8652ZM39.0517 28.3757C39.0365 28.3757 39.0205 28.3732 39.0061 28.3666C38.9513 28.3419 38.9276 28.2785 38.9521 28.2259C39.0331 28.0538 39.1116 27.8793 39.1867 27.7072C39.2095 27.6529 39.2736 27.6282 39.3293 27.6504C39.3841 27.6735 39.4103 27.7361 39.3867 27.7896C39.3116 27.9641 39.2314 28.1402 39.1504 28.3139C39.1318 28.3526 39.093 28.3757 39.0517 28.3757ZM2.2013 28.8952C2.16164 28.8952 2.12283 28.8738 2.10342 28.8359C2.0182 28.6671 1.93382 28.4943 1.85282 28.3214C1.8275 28.2687 1.85197 28.2053 1.90682 28.1806C1.96082 28.1568 2.02579 28.1798 2.0511 28.2333C2.13126 28.4037 2.2148 28.5749 2.29918 28.7421C2.32533 28.7947 2.30339 28.8581 2.24939 28.8845C2.2342 28.8919 2.21733 28.8952 2.2013 28.8952ZM38.5354 29.3972C38.5185 29.3972 38.5008 29.3931 38.4847 29.3848C38.4316 29.3568 38.4113 29.2926 38.4392 29.2408C38.5294 29.0745 38.6189 28.9049 38.7033 28.737C38.7303 28.6843 38.7952 28.6629 38.8492 28.6884C38.9032 28.7147 38.9252 28.7781 38.899 28.8308C38.813 29.0004 38.7235 29.1716 38.6315 29.3404C38.6121 29.3766 38.5742 29.3972 38.5354 29.3972ZM2.74476 29.8969C2.70679 29.8969 2.66966 29.8771 2.65025 29.8426C2.55406 29.6779 2.4604 29.51 2.36928 29.3429C2.34143 29.291 2.36168 29.2268 2.41484 29.1996C2.468 29.1725 2.53381 29.1922 2.56166 29.2441C2.6511 29.4087 2.74476 29.575 2.83926 29.738C2.86879 29.7891 2.85107 29.8541 2.79791 29.8829C2.78104 29.892 2.76332 29.8969 2.74476 29.8969ZM37.9608 30.3867C37.9414 30.3867 37.922 30.3825 37.9042 30.3718C37.8528 30.3414 37.8367 30.2764 37.868 30.2261C37.9675 30.0656 38.0662 29.901 38.1607 29.7372C38.1903 29.6869 38.2569 29.6688 38.3092 29.6976C38.3616 29.7265 38.3801 29.7915 38.3506 29.8425C38.2544 30.008 38.1548 30.1735 38.0536 30.3356C38.0333 30.3686 37.9979 30.3867 37.9608 30.3867ZM3.34652 30.8674C3.31108 30.8674 3.27564 30.8501 3.25454 30.818C3.14992 30.6591 3.04613 30.497 2.94572 30.3348C2.9145 30.2846 2.93053 30.2196 2.982 30.1891C3.03348 30.1586 3.10013 30.1751 3.13135 30.2253C3.23092 30.385 3.33386 30.5464 3.43764 30.7036C3.47055 30.753 3.45621 30.818 3.40558 30.8501C3.38702 30.8617 3.36677 30.8674 3.34652 30.8674ZM37.3296 31.3434C37.3076 31.3434 37.2865 31.3368 37.268 31.3245C37.2182 31.2915 37.2055 31.2257 37.2393 31.1771C37.3481 31.0223 37.4561 30.8635 37.5608 30.7062C37.5928 30.6568 37.6603 30.6428 37.7109 30.6741C37.7616 30.7062 37.7759 30.7721 37.7439 30.8207C37.6384 30.9804 37.5287 31.1409 37.419 31.2973C37.3979 31.3269 37.3642 31.3434 37.3296 31.3434ZM4.00377 31.8026C3.97002 31.8026 3.93711 31.7877 3.91517 31.7589C3.80211 31.6075 3.6882 31.4502 3.57851 31.293C3.54391 31.2453 3.55657 31.1786 3.60635 31.1457C3.65613 31.1127 3.72364 31.1251 3.75823 31.1736C3.86708 31.3284 3.9793 31.484 4.09152 31.6338C4.12696 31.6816 4.11599 31.7482 4.0679 31.7828C4.04849 31.796 4.02571 31.8026 4.00377 31.8026ZM36.6427 32.262C36.6199 32.262 36.5963 32.2546 36.5769 32.2397C36.5288 32.2043 36.5204 32.1377 36.5566 32.0907C36.6739 31.9434 36.7912 31.7911 36.9051 31.6388C36.9406 31.5911 37.0081 31.5812 37.057 31.6158C37.1051 31.6503 37.1161 31.7162 37.0806 31.7639C36.9659 31.9179 36.8477 32.0718 36.7288 32.2208C36.7077 32.248 36.6756 32.262 36.6427 32.262ZM4.71505 32.7006C4.68299 32.7006 4.65177 32.6874 4.63067 32.6619C4.50664 32.5146 4.38429 32.3647 4.26616 32.2157C4.22988 32.1688 4.23832 32.1021 4.28641 32.0667C4.33366 32.0305 4.40201 32.0388 4.43913 32.0857C4.55558 32.233 4.67624 32.382 4.79858 32.5277C4.8374 32.573 4.8298 32.6397 4.7834 32.6767C4.76314 32.6932 4.73868 32.7006 4.71505 32.7006ZM35.9045 33.1411C35.8792 33.1411 35.8539 33.1329 35.8337 33.1156C35.7881 33.0769 35.783 33.0094 35.8227 32.9657C35.9484 32.8233 36.0741 32.6784 36.1965 32.5336C36.2345 32.4883 36.3028 32.4809 36.3492 32.5187C36.3956 32.5558 36.4024 32.6225 36.3644 32.6677C36.2412 32.8143 36.1146 32.9616 35.9872 33.1049C35.9653 33.1287 35.9349 33.1411 35.9045 33.1411ZM5.47696 33.5585C5.44742 33.5585 5.41874 33.5469 5.3968 33.5247C5.26601 33.3856 5.13523 33.2424 5.00782 33.0983C4.96816 33.0538 4.97322 32.9872 5.01794 32.9485C5.06351 32.9106 5.1327 32.9147 5.17151 32.9592C5.29808 33.1016 5.42802 33.2432 5.55712 33.3807C5.59762 33.4243 5.59509 33.491 5.55121 33.5305C5.53011 33.5494 5.50311 33.5585 5.47696 33.5585ZM35.1164 33.9776C35.0894 33.9776 35.0615 33.9677 35.0404 33.948C34.9974 33.9068 34.9966 33.8393 35.0387 33.7973C35.1729 33.6631 35.3062 33.5248 35.4362 33.3874C35.4775 33.3437 35.5459 33.3413 35.5906 33.3808C35.6344 33.4203 35.6378 33.4878 35.5965 33.5306C35.4657 33.6705 35.3298 33.8097 35.1948 33.9455C35.1737 33.9669 35.1451 33.9776 35.1164 33.9776ZM6.28879 34.3735C6.26095 34.3735 6.23395 34.3636 6.21285 34.343C6.07447 34.2113 5.93441 34.0755 5.7994 33.9397C5.75721 33.8977 5.75806 33.8302 5.80109 33.789C5.84412 33.7487 5.91331 33.7495 5.9555 33.7915C6.08966 33.9265 6.2272 34.0607 6.36473 34.1907C6.40777 34.2319 6.40861 34.2986 6.36642 34.3414C6.34533 34.3628 6.31748 34.3735 6.28879 34.3735ZM34.2817 34.7694C34.2522 34.7694 34.2226 34.7579 34.2007 34.7348C34.1602 34.6912 34.1636 34.6245 34.2074 34.585C34.3492 34.4582 34.4901 34.3282 34.6285 34.1973C34.6715 34.1561 34.7407 34.157 34.7829 34.1989C34.8242 34.2409 34.8234 34.3084 34.7804 34.3496C34.6403 34.4813 34.4977 34.6138 34.3551 34.7414C34.334 34.7595 34.3079 34.7694 34.2817 34.7694ZM7.14593 35.1414C7.12146 35.1414 7.09531 35.1332 7.07506 35.1159C6.92824 34.9908 6.78058 34.8632 6.63798 34.7348C6.5941 34.6952 6.59073 34.6286 6.63207 34.5849C6.67257 34.5421 6.74092 34.5388 6.78564 34.5792C6.92655 34.7051 7.07168 34.8319 7.21765 34.9554C7.26322 34.9932 7.26828 35.0607 7.22862 35.1052C7.20668 35.1291 7.17715 35.1414 7.14593 35.1414ZM33.4016 35.5128C33.3704 35.5128 33.3392 35.4996 33.3173 35.4741C33.2793 35.428 33.286 35.3613 33.3325 35.3243C33.4818 35.2049 33.6311 35.0831 33.7754 34.9604C33.821 34.9225 33.8902 34.9267 33.929 34.9711C33.9687 35.0156 33.9636 35.0831 33.918 35.1209C33.7721 35.2444 33.621 35.3687 33.4708 35.4889C33.4506 35.5045 33.4261 35.5128 33.4016 35.5128ZM8.04802 35.8616C8.0244 35.8616 8.00161 35.8542 7.98136 35.8394C7.8278 35.7233 7.67338 35.604 7.52319 35.4838C7.47678 35.4467 7.47003 35.3792 7.508 35.334C7.54597 35.2887 7.61432 35.2821 7.66073 35.3191C7.81008 35.4377 7.96196 35.5562 8.11468 35.6715C8.16193 35.7069 8.17121 35.7735 8.13409 35.8205C8.11299 35.8468 8.08009 35.8616 8.04802 35.8616ZM32.4812 36.206C32.4475 36.206 32.4146 36.1912 32.3926 36.1624C32.358 36.1146 32.3681 36.0488 32.4171 36.0142C32.5723 35.9039 32.7284 35.7894 32.8803 35.6758C32.9276 35.6396 32.9959 35.6479 33.0331 35.6948C33.0693 35.7409 33.0609 35.8076 33.0128 35.8438C32.8601 35.959 32.7023 36.0743 32.5453 36.1854C32.5259 36.1994 32.5032 36.206 32.4812 36.206ZM8.98957 36.5301C8.96848 36.5301 8.94739 36.5244 8.92882 36.512C8.76935 36.405 8.60819 36.2939 8.4504 36.1819C8.40146 36.1473 8.39049 36.0815 8.42593 36.0337C8.46137 35.986 8.52972 35.9761 8.57781 36.0107C8.73391 36.121 8.89338 36.2313 9.05201 36.3367C9.10095 36.3696 9.11361 36.4363 9.07986 36.484C9.05876 36.5145 9.02501 36.5301 8.98957 36.5301ZM31.5217 36.8471C31.4854 36.8471 31.4508 36.8298 31.4297 36.7977C31.3977 36.7483 31.412 36.6833 31.4627 36.6512C31.623 36.5507 31.785 36.4454 31.9445 36.3392C31.9934 36.3062 32.0617 36.3186 32.0955 36.3672C32.1292 36.4149 32.1166 36.4816 32.0676 36.5145C31.9065 36.6224 31.7428 36.7277 31.5808 36.8298C31.5622 36.8413 31.542 36.8471 31.5217 36.8471ZM9.97016 37.1461C9.95159 37.1461 9.93219 37.1411 9.91447 37.1313C9.74824 37.0333 9.58118 36.9312 9.41664 36.8283C9.36601 36.797 9.35167 36.7312 9.38458 36.6818C9.41664 36.6324 9.48414 36.6184 9.53477 36.6497C9.69762 36.7518 9.863 36.853 10.0267 36.9493C10.0782 36.9798 10.095 37.0448 10.0638 37.095C10.0436 37.128 10.0073 37.1461 9.97016 37.1461ZM30.527 37.4333C30.4891 37.4333 30.4519 37.4136 30.4317 37.379C30.4021 37.328 30.4207 37.2629 30.473 37.2341C30.6401 37.1419 30.808 37.0464 30.9725 36.9501C31.0232 36.9197 31.0907 36.9353 31.1219 36.9855C31.1523 37.0357 31.1362 37.1016 31.0848 37.1321C30.9194 37.2292 30.7489 37.3263 30.5802 37.4193C30.5633 37.4284 30.5447 37.4333 30.527 37.4333ZM10.9861 37.7066C10.9684 37.7066 10.9515 37.7025 10.9347 37.6942C10.7642 37.6061 10.5913 37.514 10.4208 37.4201C10.3685 37.3913 10.3499 37.3263 10.3795 37.2752C10.409 37.2242 10.4757 37.2061 10.528 37.2349C10.6959 37.3279 10.8672 37.4193 11.0368 37.5065C11.0899 37.5337 11.1102 37.5979 11.0823 37.6498C11.0629 37.686 11.025 37.7066 10.9861 37.7066ZM29.5002 37.9627C29.4597 37.9627 29.4209 37.9413 29.4023 37.9034C29.3753 37.8507 29.3981 37.7874 29.4521 37.761C29.6242 37.6787 29.7972 37.5923 29.9659 37.505C30.0191 37.4778 30.0849 37.4976 30.1136 37.5495C30.1415 37.6013 30.1212 37.6655 30.068 37.6927C29.8968 37.7816 29.7221 37.868 29.5483 37.952C29.5322 37.9594 29.5162 37.9627 29.5002 37.9627ZM12.0322 38.2096C12.017 38.2096 12.0018 38.2063 11.9875 38.1997C11.8103 38.1207 11.6323 38.0384 11.4576 37.9544C11.4036 37.9289 11.3808 37.8647 11.4078 37.812C11.434 37.7601 11.4998 37.7379 11.5529 37.7642C11.7259 37.8466 11.9023 37.9289 12.0778 38.0071C12.1326 38.031 12.1562 38.0943 12.1318 38.147C12.1132 38.1865 12.0735 38.2096 12.0322 38.2096ZM28.4445 38.4342C28.4015 38.4342 28.361 38.4095 28.3441 38.3692C28.3205 38.3149 28.3466 38.2531 28.4015 38.2301C28.5762 38.1576 28.7542 38.0819 28.9297 38.0029C28.9845 37.979 29.0495 38.002 29.074 38.0555C29.0993 38.1091 29.0748 38.1716 29.0208 38.1963C28.8428 38.2753 28.6631 38.3527 28.4867 38.4252C28.4724 38.4309 28.458 38.4342 28.4445 38.4342ZM13.1081 38.6525C13.0946 38.6525 13.0811 38.6508 13.0684 38.6459C12.887 38.5767 12.7039 38.5043 12.5242 38.4302C12.4693 38.4071 12.4432 38.3454 12.4668 38.2911C12.4896 38.2376 12.5537 38.212 12.6094 38.2343C12.7866 38.3075 12.968 38.38 13.1469 38.4475C13.2034 38.4689 13.2312 38.5306 13.2093 38.585C13.1924 38.6269 13.1511 38.6525 13.1081 38.6525ZM27.3611 38.8459C27.3164 38.8459 27.2742 38.8187 27.2581 38.7759C27.2387 38.7208 27.2674 38.6599 27.3248 38.6401C27.5045 38.5767 27.6868 38.5109 27.8673 38.4425C27.923 38.4211 27.9863 38.4475 28.0083 38.5026C28.0302 38.557 28.0024 38.6187 27.9458 38.6401C27.7644 38.7093 27.5796 38.7768 27.3974 38.8401C27.3856 38.8443 27.3729 38.8459 27.3611 38.8459ZM14.2085 39.0352C14.1975 39.0352 14.1857 39.0335 14.1747 39.0303C13.9899 38.9718 13.8026 38.9092 13.6187 38.8459C13.5621 38.8261 13.5326 38.7652 13.5529 38.71C13.5731 38.6549 13.6347 38.6261 13.6921 38.6458C13.8735 38.7084 14.0591 38.7701 14.2422 38.8277C14.2988 38.8459 14.3308 38.9059 14.3123 38.9619C14.2971 39.0064 14.254 39.0352 14.2085 39.0352ZM26.2542 39.1974C26.2069 39.1974 26.163 39.1669 26.1495 39.1208C26.1326 39.0648 26.1656 39.0056 26.2229 38.9891C26.4086 38.9364 26.5942 38.8796 26.7764 38.822C26.8338 38.8039 26.8954 38.8343 26.914 38.8903C26.9325 38.9463 26.9013 39.0064 26.844 39.0245C26.66 39.0821 26.4718 39.1389 26.2845 39.1933C26.2744 39.1957 26.2643 39.1974 26.2542 39.1974ZM15.3255 39.3546C15.3171 39.3546 15.3078 39.353 15.2985 39.3505C15.1095 39.3027 14.9197 39.2517 14.734 39.1982C14.6767 39.1817 14.6437 39.1225 14.6598 39.0665C14.6775 39.0105 14.7374 38.9784 14.7956 38.9949C14.9787 39.0467 15.1669 39.0978 15.3534 39.1455C15.4116 39.1603 15.4462 39.218 15.431 39.2748C15.4183 39.3225 15.3745 39.3546 15.3255 39.3546ZM25.1276 39.4856C25.0778 39.4856 25.0331 39.4527 25.0213 39.4041C25.0078 39.3465 25.0441 39.2897 25.1032 39.2766C25.2888 39.2346 25.4786 39.1885 25.6651 39.1407C25.7233 39.1259 25.7832 39.1597 25.7984 39.2165C25.8136 39.2733 25.7782 39.3309 25.7208 39.3465C25.5318 39.3943 25.3403 39.4404 25.1521 39.4832C25.1437 39.4848 25.1352 39.4856 25.1276 39.4856ZM16.4604 39.6098L16.4384 39.6081C16.2477 39.5703 16.0554 39.5299 15.8664 39.4871C15.8081 39.4739 15.7719 39.4171 15.7854 39.3595C15.7989 39.3027 15.8571 39.2673 15.9153 39.2805C16.1026 39.3225 16.2925 39.3628 16.4815 39.3999C16.5405 39.4114 16.5785 39.4674 16.5667 39.525C16.5566 39.5752 16.511 39.6098 16.4604 39.6098ZM23.9861 39.7103C23.9346 39.7103 23.8882 39.674 23.879 39.6222C23.8688 39.5646 23.9085 39.5094 23.9684 39.4995C24.1566 39.4682 24.3481 39.4337 24.5371 39.3958C24.5953 39.3851 24.6535 39.4213 24.6654 39.4789C24.6772 39.5366 24.6392 39.5925 24.5801 39.6041C24.3886 39.6419 24.1954 39.6773 24.0047 39.7094L23.9861 39.7103ZM17.6081 39.8017L17.5929 39.8009C17.4005 39.7745 17.2056 39.7441 17.0149 39.7128C16.955 39.7029 16.9153 39.6478 16.9254 39.5902C16.9356 39.5317 16.9921 39.493 17.0512 39.5029C17.241 39.535 17.4334 39.5638 17.6232 39.5902C17.6831 39.5984 17.7245 39.6527 17.7161 39.7103C17.7085 39.7638 17.6612 39.8017 17.6081 39.8017ZM22.8335 39.8715C22.7787 39.8715 22.7323 39.8312 22.7255 39.7769C22.7188 39.7192 22.7618 39.6665 22.8217 39.66C23.0124 39.6386 23.2056 39.6147 23.3955 39.5875C23.4554 39.5793 23.5102 39.6196 23.5187 39.6781C23.5271 39.7357 23.4858 39.79 23.4267 39.7983C23.2343 39.8246 23.0386 39.8493 22.8462 39.8707L22.8335 39.8715ZM18.7648 39.9292H18.7555C18.5623 39.9127 18.3665 39.8938 18.1733 39.8732C18.1134 39.8666 18.0704 39.814 18.0771 39.7555C18.0839 39.6971 18.1387 39.6551 18.1978 39.6617C18.3885 39.6831 18.5825 39.7012 18.7741 39.7176C18.834 39.7226 18.8787 39.7736 18.8736 39.8321C18.8686 39.8872 18.8213 39.9292 18.7648 39.9292ZM21.6733 39.9679C21.6159 39.9679 21.5687 39.9243 21.5653 39.8675C21.5619 39.8091 21.6075 39.7589 21.6674 39.7556C21.8589 39.7449 22.0538 39.7317 22.2454 39.716C22.3028 39.7095 22.3576 39.7539 22.3627 39.8124C22.3677 39.8708 22.3239 39.9227 22.2639 39.9276C22.0699 39.9432 21.8733 39.9572 21.68 39.9679H21.6733ZM19.9275 39.9926H19.9241C19.7301 39.9877 19.5335 39.9794 19.3394 39.9687C19.2795 39.9654 19.2339 39.9152 19.2373 39.8568C19.2407 39.7983 19.2896 39.7539 19.3521 39.7564C19.5436 39.7671 19.7385 39.7753 19.9301 39.7802C19.9908 39.7819 20.0381 39.8304 20.0364 39.8897C20.0347 39.9473 19.9857 39.9926 19.9275 39.9926ZM20.5096 39.9999C20.4497 39.9999 20.4007 39.9522 20.4007 39.8937C20.4007 39.8353 20.4497 39.7875 20.5096 39.7875C20.7003 39.7875 20.8952 39.7851 21.0884 39.7793C21.1475 39.7744 21.1989 39.8238 21.2006 39.883C21.2023 39.9415 21.1551 39.9901 21.0951 39.9917C20.8994 39.9975 20.7028 39.9999 20.5096 39.9999Z" fill="#FBB03B"/>
</svg>
