<svg width="16" height="16" viewBox="0 0 16 16" fill="none" xmlns="http://www.w3.org/2000/svg">
<path d="M15.3298 14.9318V15.9996L0.671875 16.0001V14.9321C0.671875 14.7045 0.786008 14.5218 0.926986 14.5218H1.64201V6.50106C1.64201 6.29703 1.74441 6.1306 1.87116 6.1306H2.80539C2.93214 6.1306 3.03472 6.29703 3.03472 6.50106V14.5218H5.16874V6.43047C5.16874 6.22874 5.27132 6.06116 5.3979 6.06116H6.3323C6.45888 6.06116 6.56145 6.22874 6.56145 6.43047V14.5218H9.55188V6.50106C9.55188 6.29703 9.65375 6.1306 9.77979 6.1306H10.7147C10.8409 6.1306 10.9437 6.29703 10.9437 6.50106V14.5218H12.9663V6.43047C12.9663 6.22874 13.0694 6.06116 13.1958 6.06116H14.1305C14.2569 6.06116 14.359 6.22874 14.359 6.43047V14.5212H15.0738C15.2146 14.5212 15.3298 14.7037 15.3298 14.9318Z" fill="#666666"/>
<path d="M0.0156465 6.50495L0.607338 6.40545C0.593903 6.32556 0.599798 6.24456 0.617828 6.18054C0.631279 6.13277 0.645928 6.11233 0.648174 6.10895L6.62822 1.04277C7.08733 0.679136 8.34373 0.173525 9.61464 1.2502L15.3295 6.09166L15.3468 6.10629L15.353 6.11081C15.3562 6.11562 15.3619 6.12515 15.3686 6.14094C15.3851 6.17998 15.4 6.24037 15.4 6.31655C15.4 6.38221 15.3892 6.43402 15.3769 6.47041H0.62334C0.617286 6.4524 0.611586 6.4306 0.60727 6.40504L0.0156465 6.50495ZM0.0156465 6.50495C0.0717755 6.83733 0.267507 7.07041 0.492203 7.07041H15.506H15.5082C15.7805 7.07041 16 6.73279 16 6.31655C16 6.01424 15.884 5.75468 15.7174 5.63386L10.0025 0.792393C8.43876 -0.532331 6.84743 0.098277 6.24723 0.579171L0.254375 5.6562M0.0156465 6.50495C-0.0404825 6.17119 0.0579231 5.82281 0.254375 5.6562M0.254375 5.6562L0.642214 6.114L0.642451 6.1138L0.254375 5.6562Z" stroke="#666666" stroke-width="1.2"/>
</svg>
