<svg width="14" height="16" viewBox="0 0 14 16" fill="none" xmlns="http://www.w3.org/2000/svg">
<path d="M12.7339 2.28369H9.718V1.92515C9.718 1.41452 9.51679 0.924909 9.1585 0.563823C8.80021 0.202737 8.31432 0 7.80777 0H6.0931C5.58656 0 5.1007 0.202772 4.74238 0.563823C4.38406 0.924875 4.18287 1.41452 4.18287 1.92515V2.28369H1.16658C0.910724 2.28369 0.67419 2.42116 0.546264 2.64458C0.418172 2.86799 0.418172 3.14313 0.546264 3.36653C0.67419 3.58995 0.91072 3.72742 1.16658 3.72742L1.18347 12.8717C1.18347 13.7014 1.51061 14.497 2.09276 15.0837C2.67491 15.6703 3.46463 16 4.28784 16H9.61296C10.4362 16 11.2258 15.6703 11.808 15.0837C12.3902 14.497 12.7172 13.7014 12.7172 12.8717L12.7338 3.72742C12.9897 3.72742 13.2262 3.58995 13.3541 3.36653C13.4822 3.14312 13.4822 2.86798 13.3541 2.64458C13.2262 2.42116 12.9898 2.28369 12.7339 2.28369ZM5.61543 1.92515C5.61543 1.65926 5.8293 1.44374 6.09297 1.44374H7.80765C7.93424 1.44374 8.05567 1.49443 8.14529 1.58474C8.2349 1.67505 8.2852 1.79741 8.2852 1.92515V2.28369H5.61544L5.61543 1.92515ZM11.2847 12.8621C11.2847 13.3088 11.1086 13.7373 10.7951 14.0533C10.4817 14.3692 10.0564 14.5466 9.61315 14.5466H4.28803C3.84477 14.5466 3.41954 14.3691 3.10604 14.0533C2.79255 13.7373 2.61651 13.3088 2.61651 12.8621L2.59985 3.7179H11.3014L11.2847 12.8621Z" fill="#333333"/>
<path d="M5.55013 5.86421C5.36732 5.86421 5.19189 5.93757 5.06248 6.06781C4.93324 6.19822 4.8606 6.375 4.8606 6.55922V11.1692C4.8606 11.4174 4.99193 11.6469 5.20536 11.771C5.41879 11.8953 5.68163 11.8953 5.89505 11.771C6.10832 11.6469 6.23981 11.4174 6.23981 11.1692V6.55922C6.23981 6.37501 6.16717 6.19822 6.03792 6.06781C5.90852 5.93757 5.7331 5.86421 5.55013 5.86421Z" fill="#333333"/>
<path d="M8.41528 5.89014C8.23232 5.89014 8.05689 5.9635 7.92747 6.09374C7.79823 6.22415 7.72559 6.40093 7.72559 6.58515V11.1952C7.72559 11.4434 7.85707 11.6728 8.07035 11.7969C8.28378 11.9212 8.54662 11.9212 8.76004 11.7969C8.97347 11.6728 9.1048 11.4434 9.1048 11.1952V6.58515C9.1048 6.40094 9.03216 6.22415 8.90291 6.09374C8.77351 5.9635 8.59809 5.89014 8.41528 5.89014Z" fill="#333333"/>
</svg>
