<svg width="17" height="17" viewBox="0 0 17 17" fill="none" xmlns="http://www.w3.org/2000/svg">
<path d="M6.47869 8.15566L6.03465 9.78375C5.94302 10.1212 6.03562 10.4701 6.28278 10.7173C6.46742 10.9017 6.70804 11 6.95852 11C7.04402 11 7.13103 10.9885 7.21653 10.9652L8.8444 10.5213H8.84483C9.24755 10.4114 9.61693 10.1968 9.91254 9.90123L15.4182 4.3958C16.1937 3.62015 16.1937 2.35793 15.4182 1.5819C14.642 0.806034 13.3796 0.806034 12.6043 1.5819L7.09864 7.08761C6.80358 7.38288 6.58917 7.7523 6.47874 8.15575L6.47869 8.15566ZM14.7381 2.26222C15.1384 2.66287 15.1384 3.31467 14.7381 3.71523L9.23237 9.22067C9.05471 9.39812 8.83343 9.52659 8.59185 9.59264L6.96343 10.0368L7.40747 8.40914C7.47375 8.1667 7.602 7.94477 7.77925 7.76766L13.2852 2.26222C13.4855 2.062 13.7486 1.96189 14.0118 1.96189C14.2749 1.96189 14.538 2.062 14.7382 2.26222H14.7381Z" fill="black" stroke="black" stroke-width="0.3"/>
<path d="M3.52918 16H11.4708C12.8654 16 14 14.8654 14 13.4708V8.60987C14 8.33053 13.7737 8.10404 13.4942 8.10404C13.2146 8.10404 12.9883 8.33053 12.9883 8.60987V13.4708C12.9883 14.3076 12.3076 14.9883 11.4708 14.9883H3.52918C2.69241 14.9883 2.01167 14.3076 2.01167 13.4708V5.52918C2.01167 4.69241 2.69241 4.01167 3.52918 4.01167H8.39042C8.66998 4.01167 8.89625 3.78518 8.89625 3.50584C8.89625 3.2265 8.66998 3 8.39042 3H3.52918C2.13463 3 1 4.13463 1 5.52918V13.4708C1 14.8654 2.13463 16 3.52918 16Z" fill="black" stroke="black" stroke-width="0.3"/>
</svg>
