<svg width="16" height="16" viewBox="0 0 16 16" fill="none" xmlns="http://www.w3.org/2000/svg">
<path d="M8 0C3.57333 0 0 3.57333 0 8C0 12.4267 3.57333 16 8 16C12.4267 16 16 12.4267 16 8C16 3.57333 12.4267 0 8 0ZM8.88889 11.7156C8.88889 12.1956 8.48003 12.5867 8 12.5867C7.51997 12.5867 7.11111 12.1956 7.11111 11.7156V7.16444C7.11111 6.68441 7.51997 6.2933 8 6.2933C8.48003 6.2933 8.88889 6.68441 8.88889 7.16444V11.7156ZM8.01775 5.15556C7.53771 5.15556 7.1466 4.76444 7.1466 4.28441C7.1466 3.80438 7.53771 3.41327 8.01775 3.41327C8.49778 3.41327 8.88889 3.80438 8.88889 4.28441C8.88889 4.76444 8.49778 5.15556 8.01775 5.15556Z" fill="#FBB03B"/>
</svg>
