<svg width="15" height="18" viewBox="0 0 15 18" fill="none" xmlns="http://www.w3.org/2000/svg">
<path d="M14.2242 5.11378C14.2242 4.6892 14.204 4.26477 14.204 3.88069C14.204 3.57753 13.9615 3.31469 13.638 3.31469C11.2528 3.31469 9.41316 2.62743 7.89707 1.15165C7.6747 0.949449 7.33106 0.949449 7.1087 1.15165C5.59261 2.62728 3.77337 3.31469 1.36776 3.31469C1.0646 3.31469 0.801749 3.55722 0.801749 3.88069C0.801749 4.26481 0.801749 4.6892 0.781586 5.11378C0.700789 9.13649 0.599688 14.6349 7.29068 16.9595C7.35132 16.9797 7.41195 17 7.47258 17C7.53321 17 7.59385 17 7.65448 16.9595C14.3856 14.6348 14.2848 9.13649 14.2242 5.11378Z" fill="#3EC66C" stroke="#333333"/>
<path d="M7.12886 10.9356L10.2217 7.84266C10.4441 7.62044 10.4441 7.27669 10.2217 7.05447C9.99936 6.8321 9.65572 6.8321 9.43335 7.05447L8.07899 8.40883L6.72464 9.76319L5.57233 8.61089C5.34997 8.38852 5.00633 8.38852 4.78396 8.61089C4.5616 8.83325 4.5616 9.17689 4.78396 9.39926L6.32034 10.9356C6.4416 11.0367 6.58303 11.0974 6.7246 11.0974C6.88632 11.0974 7.02775 11.0367 7.12886 10.9356Z" fill="#333333" stroke="#333333" stroke-width="0.1"/>
</svg>
