<svg width="28" height="34" viewBox="0 0 28 34" fill="none" xmlns="http://www.w3.org/2000/svg">
<path d="M13.7754 14.5391H13.7637C12.7896 14.5391 12 15.3287 12 16.3027V16.3145C12 17.2886 12.7896 18.0782 13.7637 18.0782H13.7754C14.7495 18.0782 15.5391 17.2886 15.5391 16.3145V16.3027C15.5391 15.3287 14.7495 14.5391 13.7754 14.5391Z" fill="#333333"/>
<path d="M13.7754 7H13.7637C12.7896 7 12 7.78962 12 8.76368V8.77543C12 9.74949 12.7896 10.5391 13.7637 10.5391H13.7754C14.7495 10.5391 15.5391 9.74949 15.5391 8.77543V8.76368C15.5391 7.78962 14.7495 7 13.7754 7Z" fill="#333333"/>
<path d="M13.7754 22.0781H13.7637C12.7896 22.0781 12 22.8677 12 23.8418V23.8536C12 24.8276 12.7896 25.6172 13.7637 25.6172H13.7754C14.7495 25.6172 15.5391 24.8276 15.5391 23.8536V23.8418C15.5391 22.8677 14.7495 22.0781 13.7754 22.0781Z" fill="#333333"/>
</svg>
