<svg width="16" height="16" viewBox="0 0 16 16" fill="none" xmlns="http://www.w3.org/2000/svg">
<path fill-rule="evenodd" clip-rule="evenodd" d="M8.00202 0C3.5914 0 0 3.59112 0 8.00202C0 12.4129 3.59111 16 8.00202 16C12.4129 16 16 12.4127 16 8.00202C16 3.5914 12.4127 0 8.00202 0ZM8.00202 1.33347C11.6921 1.33347 14.6667 4.3119 14.6667 8.00182C14.6667 11.6919 11.6923 14.6665 8.00202 14.6665C4.31178 14.6665 1.33367 11.6921 1.33367 8.00182C1.33367 4.31158 4.31211 1.33347 8.00202 1.33347ZM11.3199 4.78814C11.1422 4.80111 10.9773 4.88459 10.8617 5.01993L6.94872 9.56169L5.11405 7.66707C4.99009 7.53995 4.8206 7.4677 4.64304 7.46596C4.46564 7.46422 4.29488 7.53331 4.16854 7.6579C4.04284 7.78154 3.97138 7.94977 3.96932 8.12588C3.96743 8.30201 4.03525 8.47182 4.15811 8.59815L6.49683 11.0137C6.62711 11.1484 6.80814 11.2218 6.99532 11.2164C7.18268 11.2111 7.35897 11.1269 7.48135 10.985L11.8709 5.88584C11.9864 5.75208 12.0441 5.57784 12.0311 5.40155C12.0181 5.2251 11.9358 5.0613 11.8018 4.94571C11.6684 4.83172 11.4951 4.77518 11.3199 4.78814Z" fill="black"/>
<path fill-rule="evenodd" clip-rule="evenodd" d="M8.00202 1.33347C11.6921 1.33347 14.6667 4.3119 14.6667 8.00182C14.6667 11.6919 11.6923 14.6665 8.00202 14.6665C4.31178 14.6665 1.33367 11.6921 1.33367 8.00182C1.33367 4.31158 4.31211 1.33347 8.00202 1.33347ZM11.3199 4.78814C11.4951 4.77518 11.6684 4.83172 11.8018 4.94571C11.9358 5.0613 12.0181 5.2251 12.0311 5.40155C12.0441 5.57784 11.9864 5.75208 11.8709 5.88584L7.48135 10.985C7.35897 11.1269 7.18268 11.2111 6.99532 11.2164C6.80814 11.2218 6.62711 11.1484 6.49683 11.0137L4.15811 8.59815C4.03525 8.47182 3.96743 8.30201 3.96932 8.12588C3.97138 7.94977 4.04284 7.78154 4.16854 7.6579C4.29488 7.53331 4.46564 7.46422 4.64304 7.46596C4.8206 7.4677 4.99009 7.53995 5.11405 7.66707L6.94872 9.56169L10.8617 5.01993C10.9773 4.88459 11.1422 4.80111 11.3199 4.78814Z" fill="#F7F7FD"/>
</svg>
