<svg width="30" height="30" viewBox="0 0 30 30" fill="none" xmlns="http://www.w3.org/2000/svg">
<rect width="30" height="30" rx="15" fill="#C1C1C1" fill-opacity="0.21"/>
<path d="M14.725 21.4431C15.7497 21.4431 16.5834 20.6267 16.6355 19.6194H12.8145C12.8666 20.6267 13.7002 21.4431 14.725 21.4431Z" fill="white"/>
<path d="M18.1467 12.9326C18.1467 11.4389 17.2088 10.1016 15.8714 9.59789C15.9061 9.47631 15.9409 9.33736 15.9409 9.21578C15.9409 8.53842 15.4025 8 14.7251 8C14.0477 8 13.544 8.53842 13.544 9.21578C13.544 9.35473 13.5614 9.47631 13.6135 9.59789C12.2762 10.1016 11.3383 11.4389 11.3383 12.9326C11.3383 14.8258 10.8346 16.0242 9.35828 17.5005C8.5246 18.3342 9.25407 19.0984 10.4351 19.0984H14.7251H19.0498C20.2309 19.0984 20.9603 18.3342 20.1266 17.5005C18.6677 16.0242 18.1467 14.8084 18.1467 12.9326Z" fill="white"/>
<circle cx="24.5" cy="4.5" r="4.5" fill="#EC3232"/>
</svg>
