<svg width="24" height="20" viewBox="0 0 24 20" fill="none" xmlns="http://www.w3.org/2000/svg">
<path fill-rule="evenodd" clip-rule="evenodd" d="M18.1552 0.662267C19.7989 0.225245 21.4091 1.47012 21.4091 3.17797V3.96015C22.8401 3.96015 24 5.12526 24 6.56249V16.9719C24 18.4091 22.8401 19.5742 21.4091 19.5742H7.59091C6.15999 19.5742 5 18.4091 5 16.9719V6.16302C5 4.98225 5.79148 3.94946 6.92791 3.64731L18.1552 0.662267ZM21.4091 5.69505H7.59091C7.11394 5.69505 6.72727 6.08342 6.72727 6.56249V16.9719C6.72727 17.451 7.11394 17.8393 7.59091 17.8393H21.4091C21.8861 17.8393 22.2727 17.451 22.2727 16.9719V14.3696H19.6818C18.2509 14.3696 17.0909 13.2045 17.0909 11.7673C17.0909 10.33 18.2509 9.16493 19.6818 9.16493H22.2727V6.56249C22.2727 6.08343 21.8861 5.69506 21.4091 5.69505ZM22.2727 10.8998H19.6818C19.2048 10.8998 18.8182 11.2882 18.8182 11.7673C18.8182 12.2463 19.2048 12.6347 19.6818 12.6347H22.2727V10.8998Z" fill="#5563DA"/>
<path fill-rule="evenodd" clip-rule="evenodd" d="M12 7.07422C12 10.1119 9.53744 12.5742 6.5 12.5742C3.46232 12.5742 1 10.1119 1 7.07422C1 4.03678 3.46232 1.57422 6.5 1.57422C9.53744 1.57422 12 4.03678 12 7.07422Z" fill="#5563DA"/>
<path d="M12 7.07422C12 10.1119 9.53744 12.5742 6.5 12.5742C3.46232 12.5742 1 10.1119 1 7.07422C1 4.03678 3.46232 1.57422 6.5 1.57422C9.53744 1.57422 12 4.03678 12 7.07422" stroke="white" stroke-width="1.5"/>
<path d="M6.5 4.57422V9.57422" stroke="white" stroke-width="1.5" stroke-linecap="round" stroke-linejoin="round"/>
<path d="M9 7.07422L4 7.07422" stroke="white" stroke-width="1.5" stroke-linecap="round" stroke-linejoin="round"/>
</svg>

