<svg width="31" height="32" viewBox="0 0 31 32" fill="none" xmlns="http://www.w3.org/2000/svg">
<path d="M0.476318 16C0.476318 24.2842 7.1924 31 15.4763 31C23.7609 31 30.4763 24.2842 30.4763 16C30.4763 7.71571 23.7609 1 15.4763 1C7.1924 1 0.476318 7.71571 0.476318 16" stroke="#CCCCCC" stroke-width="0.5"/>
<path fill-rule="evenodd" clip-rule="evenodd" d="M19.3039 7.93227C20.6016 7.58726 21.8728 8.57005 21.8728 9.91836V10.5359C23.0025 10.5359 23.9182 11.4557 23.9182 12.5903V20.8083C23.9182 21.943 23.0025 22.8628 21.8728 22.8628H10.9637C9.834 22.8628 8.91821 21.943 8.91821 20.8083V12.275C8.91821 11.3428 9.54307 10.5274 10.4402 10.2889L19.3039 7.93227ZM21.8728 11.9055H10.9637C10.5871 11.9055 10.2818 12.2121 10.2818 12.5903V20.8083C10.2818 21.1865 10.5871 21.4931 10.9637 21.4931H21.8728C22.2493 21.4931 22.5546 21.1865 22.5546 20.8083V18.7539H20.5091C19.3794 18.7539 18.4637 17.834 18.4637 16.6994C18.4637 15.5647 19.3794 14.6449 20.5091 14.6449H22.5546V12.5903C22.5546 12.2121 22.2493 11.9055 21.8728 11.9055ZM22.5546 16.0146H20.5091C20.1326 16.0146 19.8273 16.3212 19.8273 16.6994C19.8273 17.0775 20.1326 17.3842 20.5091 17.3842H22.5546V16.0146Z" fill="#5563DA"/>
<path fill-rule="evenodd" clip-rule="evenodd" d="M14.4445 12.9944C14.4445 15.3926 12.5003 17.3365 10.1024 17.3365C7.70419 17.3365 5.76025 15.3926 5.76025 12.9944C5.76025 10.5964 7.70419 8.65231 10.1024 8.65231C12.5003 8.65231 14.4445 10.5964 14.4445 12.9944Z" fill="#5563DA"/>
<path d="M14.4445 12.9944C14.4445 15.3926 12.5003 17.3365 10.1024 17.3365C7.70419 17.3365 5.76025 15.3926 5.76025 12.9944C5.76025 10.5964 7.70419 8.65231 10.1024 8.65231C12.5003 8.65231 14.4445 10.5964 14.4445 12.9944" stroke="white"/>
<path d="M10.1021 11.021V14.9683" stroke="white" stroke-linecap="round" stroke-linejoin="round"/>
<path d="M12.0758 12.9946L8.12844 12.9946" stroke="white" stroke-linecap="round" stroke-linejoin="round"/>
</svg>
