<svg width="30" height="24" viewBox="0 0 30 24" fill="none" xmlns="http://www.w3.org/2000/svg">
<path d="M21.8743 22.0945V23.603L0.958252 23.6038V22.0949C0.958252 21.7734 1.12111 21.5152 1.32228 21.5152H2.34258V10.1841C2.34258 9.89585 2.4887 9.66073 2.66957 9.66073H4.00266C4.18353 9.66073 4.3299 9.89585 4.3299 10.1841V21.5152L7.37503 21.5152V10.0844C7.37503 9.79937 7.52141 9.56262 7.70203 9.56262H9.03536C9.21598 9.56262 9.36236 9.79937 9.36236 10.0844V21.5152L13.6295 21.5152V10.1841C13.6295 9.89585 13.7749 9.66073 13.9547 9.66073H15.2888C15.469 9.66073 15.6156 9.89585 15.6156 10.1841V21.5152H18.5017V10.0844C18.5017 9.79937 18.6488 9.56262 18.8292 9.56262H20.163C20.3434 9.56262 20.489 9.79937 20.489 10.0844V21.5144H21.5091C21.71 21.5144 21.8743 21.7722 21.8743 22.0945Z" fill="#5563DA"/>
<path d="M14.273 2.11944L22.4278 8.95915C22.6655 9.12983 22.8311 9.49652 22.8311 9.92361C22.8311 10.5116 22.5179 10.9886 22.1293 10.9886H22.1262H0.702347C0.381718 10.9886 0.10242 10.6593 0.0223267 10.1898C-0.0577663 9.71825 0.082653 9.22608 0.362979 8.99071L8.91445 1.81822C9.7709 1.13884 12.0416 0.247958 14.273 2.11944Z" fill="#5563DA"/>
<path d="M26.4468 11.7361C24.5932 14.561 20.8317 15.3689 18.0453 13.5405C15.2588 11.7122 14.5027 7.93993 16.3563 5.115C18.21 2.29006 21.9715 1.48218 24.7579 3.31055C27.5443 5.13891 28.3005 8.91116 26.4468 11.7361Z" fill="#6FB627"/>
<path fill-rule="evenodd" clip-rule="evenodd" d="M18.3504 13.0755C20.874 14.7315 24.2927 14.0051 25.9818 11.431C27.6709 8.85681 26.9764 5.43146 24.4528 3.77555C21.9292 2.11963 18.5104 2.84595 16.8213 5.42012C15.1322 7.99428 15.8268 11.4196 18.3504 13.0755ZM18.0453 13.5405C20.8317 15.3689 24.5932 14.561 26.4468 11.7361C28.3005 8.91116 27.5443 5.13891 24.7579 3.31055C21.9715 1.48218 18.21 2.29006 16.3563 5.115C14.5027 7.93993 15.2588 11.7122 18.0453 13.5405Z" fill="white"/>
<path fill-rule="evenodd" clip-rule="evenodd" d="M20.5294 13.7225C22.5655 14.0412 24.7068 13.1623 25.9243 11.3067C27.576 8.78955 26.9022 5.42825 24.4193 3.79906C23.3021 3.06595 22.0089 2.8085 20.7738 2.97642C21.4999 3.09007 22.2126 3.35601 22.8653 3.78427C25.3481 5.41346 26.0219 8.77476 24.3702 11.292C23.4618 12.6764 22.039 13.5172 20.5294 13.7225Z" fill="#579718"/>
<path fill-rule="evenodd" clip-rule="evenodd" d="M24.1199 7.10447C23.965 6.93395 23.7012 6.92128 23.5307 7.07617L20.8107 9.54683L19.6967 8.38705C19.5371 8.22091 19.273 8.2156 19.1069 8.37519C18.9407 8.53478 18.9354 8.79884 19.095 8.96498L20.4901 10.4173C20.6466 10.5802 20.9042 10.589 21.0714 10.4371L24.0916 7.6937C24.2621 7.5388 24.2748 7.275 24.1199 7.10447Z" fill="white"/>
</svg>
