<svg width="76" height="64" viewBox="0 0 76 64" fill="none" xmlns="http://www.w3.org/2000/svg">
<g filter="url(#filter0_d)">
<rect x="18" y="3" width="40" height="40" rx="20" fill="#FCE3C3"/>
<g opacity="0.443816" filter="url(#filter1_d)">
<ellipse cx="38" cy="30.4097" rx="17" ry="10.5904" fill="#D25C6B"/>
</g>
<g opacity="0.713631">
<path fill-rule="evenodd" clip-rule="evenodd" d="M42.9988 22.7762L41.8109 22.852C41.348 22.8815 40.9145 23.1064 40.6219 23.4688L31.7976 34.484C31.5561 34.7812 31.1993 34.962 30.7919 34.9947C30.7486 34.9983 30.7051 35 30.6616 35C30.2553 35 29.8488 34.8497 29.5531 34.5858C29.2258 34.2938 29.0195 33.8493 29.0013 33.3968C28.9848 32.9858 29.1204 32.6076 29.383 32.332L39.19 22.1895C39.5116 21.8544 39.6814 21.3943 39.655 20.928L39.5873 19.7318L39.587 19.7254C39.5565 18.8706 39.9057 18.0576 40.5454 17.4947L41.8007 16.3898C42.8934 15.4282 44.2932 14.9367 45.7435 15.0065C46.0283 15.0202 46.3025 15.1326 46.5158 15.323C46.729 15.5133 46.8728 15.774 46.9204 16.0569C47.1631 17.4975 46.8464 18.956 46.029 20.1635L45.0899 21.5505C44.6115 22.2574 43.8516 22.7038 43.0051 22.7757L42.9988 22.7762ZM31.3273 34.0992L40.1508 23.0849C40.5505 22.5899 41.1413 22.2833 41.7725 22.243L42.9571 22.1675C43.6198 22.1102 44.2144 21.7603 44.5891 21.2069L45.5282 19.8197C46.2569 18.7432 46.5391 17.4432 46.3229 16.1588C46.2982 16.0127 46.224 15.8779 46.1137 15.7796C46.0034 15.6811 45.8618 15.623 45.7147 15.6159C44.4223 15.5541 43.1738 15.9918 42.1996 16.8492L40.9443 17.9541C40.4434 18.3949 40.1696 19.0311 40.1926 19.7003L40.2603 20.8933C40.2961 21.5291 40.0647 22.1563 39.6251 22.6142L29.8189 32.7559C29.673 32.9091 29.5972 33.1285 29.6071 33.3721C29.6187 33.662 29.7489 33.945 29.9552 34.1293C30.1616 34.3135 30.4562 34.4098 30.7436 34.3866C30.9852 34.3672 31.1925 34.265 31.3273 34.0992Z" fill="black"/>
<path d="M46.588 32.2096L40.5171 26.0809C40.4028 25.9655 40.226 25.9747 40.1217 26.1013C40.0178 26.2279 40.026 26.4241 40.1402 26.5394L46.2096 32.6667C46.354 32.8146 46.4359 33.0326 46.4403 33.2804C46.4456 33.5753 46.3412 33.8703 46.161 34.07C45.981 34.2695 45.7153 34.3855 45.4487 34.3795C45.2251 34.3746 45.0284 34.2839 44.8964 34.1255L39.4867 27.5427C39.3826 27.416 39.2056 27.407 39.0914 27.5222C38.9771 27.6376 38.9689 27.8338 39.073 27.9604L44.484 34.5448C44.7218 34.8298 45.0605 34.9915 45.4377 34.9997C45.4475 34.9998 45.4572 35 45.4671 35C45.8725 35 46.278 34.8177 46.5567 34.5086C46.8423 34.192 47.008 33.7284 46.9997 33.2683C46.9923 32.8501 46.8466 32.4748 46.588 32.2096V32.2096Z" fill="black"/>
<path d="M30.6842 23.0284C31.1896 23.4933 31.8462 23.7584 32.533 23.7748L33.7385 23.7787C34.2059 23.7801 34.6552 23.9783 34.9705 24.3214L35.4987 24.9004C35.559 24.9665 35.6415 25 35.7245 25C35.7979 25 35.8715 24.9738 35.93 24.9205C36.0547 24.8071 36.0638 24.6142 35.9502 24.4898L35.4212 23.91C34.9904 23.441 34.3778 23.171 33.7405 23.1688L32.5447 23.1651C32.0134 23.1516 31.5054 22.9485 31.1117 22.5926L27.6368 18.4675C27.6014 18.4253 27.604 18.3641 27.643 18.3252C27.6698 18.2983 27.7011 18.2945 27.7175 18.2945C27.7338 18.2945 27.7652 18.2983 27.7921 18.3252L30.9551 21.484C31.2678 21.7962 31.7765 21.7962 32.0892 21.4838L32.4609 21.1128L33.1209 20.4535L33.4928 20.0822C33.8055 19.77 33.8055 19.2619 33.4928 18.9496L30.3298 15.791C30.2887 15.75 30.2887 15.6832 30.3298 15.6422C30.3688 15.6032 30.43 15.6006 30.4723 15.636L34.6031 19.1062C34.9596 19.4992 35.1631 20.0066 35.1766 20.537L35.1801 21.7313C35.1823 22.3676 35.4529 22.9793 35.9231 23.4104L36.4891 23.9252C36.6139 24.0386 36.8069 24.0296 36.9205 23.9052C37.0339 23.7806 37.0249 23.5878 36.9003 23.4744L36.3352 22.9604C35.9907 22.6448 35.7924 22.196 35.7909 21.7293L35.7871 20.5319C35.7871 20.5297 35.7871 20.5276 35.787 20.5254C35.7705 19.8395 35.5051 19.1838 35.0395 18.6792C35.0308 18.6697 35.0215 18.6607 35.0115 18.6523L30.8653 15.1693C30.5787 14.9285 30.1629 14.9465 29.8981 15.2109C29.6188 15.4898 29.6188 15.9434 29.8981 16.2221L33.0611 19.3809C33.1357 19.4554 33.1357 19.5766 33.0611 19.6511L32.9052 19.8066L29.3799 16.2864C29.2608 16.1672 29.0674 16.1672 28.9482 16.2864C28.8291 16.4054 28.8291 16.5984 28.9482 16.7175L32.4735 20.2378L32.2451 20.4658L28.7198 16.9456C28.6006 16.8266 28.4073 16.8266 28.2881 16.9456C28.1687 17.0646 28.1687 17.2577 28.2881 17.3767L31.8132 20.8971L31.6575 21.0527C31.5829 21.1272 31.4615 21.1272 31.387 21.0527L28.2238 17.8941C28.0886 17.7591 27.9088 17.6846 27.7175 17.6846C27.5262 17.6846 27.3464 17.7591 27.2112 17.8941C26.9464 18.1585 26.9285 18.5738 27.1695 18.8601L30.6575 23.0004C30.6657 23.0104 30.6748 23.0197 30.6842 23.0284Z" fill="black"/>
</g>
</g>
<defs>
<filter id="filter0_d" x="14" y="3" width="48" height="48" filterUnits="userSpaceOnUse" color-interpolation-filters="sRGB">
<feFlood flood-opacity="0" result="BackgroundImageFix"/>
<feColorMatrix in="SourceAlpha" type="matrix" values="0 0 0 0 0 0 0 0 0 0 0 0 0 0 0 0 0 0 127 0"/>
<feOffset dy="4"/>
<feGaussianBlur stdDeviation="2"/>
<feColorMatrix type="matrix" values="0 0 0 0 0 0 0 0 0 0 0 0 0 0 0 0 0 0 0.25 0"/>
<feBlend mode="normal" in2="BackgroundImageFix" result="effect1_dropShadow"/>
<feBlend mode="normal" in="SourceGraphic" in2="effect1_dropShadow" result="shape"/>
</filter>
<filter id="filter1_d" x="0" y="0.819336" width="76" height="63.1808" filterUnits="userSpaceOnUse" color-interpolation-filters="sRGB">
<feFlood flood-opacity="0" result="BackgroundImageFix"/>
<feColorMatrix in="SourceAlpha" type="matrix" values="0 0 0 0 0 0 0 0 0 0 0 0 0 0 0 0 0 0 127 0"/>
<feMorphology radius="7" operator="erode" in="SourceAlpha" result="effect1_dropShadow"/>
<feOffset dy="2"/>
<feGaussianBlur stdDeviation="14"/>
<feColorMatrix type="matrix" values="0 0 0 0 0.779541 0 0 0 0 0.779541 0 0 0 0 0.779541 0 0 0 0.5 0"/>
<feBlend mode="normal" in2="BackgroundImageFix" result="effect1_dropShadow"/>
<feBlend mode="normal" in="SourceGraphic" in2="effect1_dropShadow" result="shape"/>
</filter>
</defs>
</svg>
