<svg width="14" height="10" viewBox="0 0 14 10" fill="none" xmlns="http://www.w3.org/2000/svg">
<path d="M13.3843 1.90341H12.2237V0.665014C12.2237 0.298183 11.9476 0 11.608 0H0.61544C0.27608 0 0 0.298485 0 0.665316V7.43188C0 7.79871 0.27608 8.09689 0.61544 8.09689H1.77632V9.33559C1.77632 9.70212 2.0524 10 2.39176 10H13.3843C13.7239 10 14 9.70212 14 9.33559V5.22696V3.7167V2.56842C14 2.20189 13.7239 1.90341 13.3843 1.90341ZM13.44 2.56812V3.41398H2.33632V2.56812C2.33632 2.53516 2.36124 2.50824 2.39176 2.50824H13.3843C13.4148 2.50824 13.44 2.53516 13.44 2.56812ZM13.44 4.92455H2.33632V4.01911H13.44V4.92455ZM0.61544 7.49206C0.58436 7.49206 0.56 7.46545 0.56 7.43188V0.665316C0.56 0.63205 0.58492 0.605135 0.61544 0.605135H11.608C11.6385 0.605135 11.6637 0.63205 11.6637 0.665316V1.90371H2.39176C2.0524 1.90371 1.77632 2.20189 1.77632 2.56842V3.7167V5.22696V7.49236H0.61544V7.49206ZM13.3843 9.39517H2.39176C2.36124 9.39517 2.33632 9.36825 2.33632 9.33559V5.52908H13.44V9.33559C13.44 9.36825 13.4148 9.39517 13.3843 9.39517Z" fill="black"/>
</svg>
