<svg width="23" height="24" viewBox="0 0 23 24" fill="none" xmlns="http://www.w3.org/2000/svg">
<path d="M3.40055 17.5306C3.44781 17.8832 3.38245 18.2415 3.21371 18.5551C3.04497 18.8687 2.78136 19.1217 2.46011 19.2784C2.13887 19.4351 1.77622 19.4875 1.42337 19.4283C1.07053 19.3691 0.745312 19.2012 0.493655 18.9484C0.241999 18.6955 0.0766155 18.3705 0.0208591 18.0192C-0.0348973 17.668 0.0217905 17.3082 0.182918 16.9906C0.344045 16.6731 0.60147 16.4139 0.918841 16.2496C1.23621 16.0853 1.59749 16.0242 1.95167 16.075C-1.58492 11.0756 4.30096 7.5205 4.30096 7.5205C4.03621 9.45114 3.92869 11.6135 3.92869 11.6135C0.887711 13.4763 3.9707 14.4897 5.72725 14.8852C6.17489 16.0953 6.98516 17.1398 8.04877 17.8779C9.11239 18.6161 10.3782 19.0123 11.6755 19.0132C11.7622 19.0132 11.8458 19.0038 11.9316 19.0006L11.9366 19.8474C7.45398 19.9098 4.76675 18.5391 3.40055 17.5306ZM8.27984 2.81737C8.32273 2.49282 8.26968 2.16287 8.12714 1.86777C7.99218 1.58775 7.7828 1.34969 7.52162 1.17933C7.26043 1.00896 6.95736 0.912754 6.64516 0.901103C6.33296 0.889452 6.02349 0.962799 5.75018 1.11322C5.47688 1.26364 5.25012 1.48542 5.09441 1.75459C4.9387 2.02377 4.85996 2.33011 4.86669 2.64052C4.87343 2.95093 4.96537 3.25362 5.13261 3.51587C5.29984 3.77813 5.536 3.98999 5.81558 4.12857C6.09515 4.26715 6.40752 4.32718 6.71892 4.30217C5.70014 5.64509 4.28695 8.32374 4.35066 12.8329L5.33736 12.8262C5.33736 12.7858 5.33103 12.7467 5.33103 12.7058C5.33188 11.4497 5.71031 10.2224 6.41779 9.18135C7.12527 8.14035 8.12954 7.33312 9.30179 6.86319C9.66321 5.17006 10.6888 1.73128 12.636 4.87463C12.636 4.87463 14.8109 4.98149 16.7554 5.24459C16.7554 5.24459 13.2382 -0.502429 8.27984 2.81737ZM22.0227 8.84142C22.3093 8.70586 22.5523 8.49391 22.7248 8.22918C22.8972 7.96445 22.9924 7.65734 22.9996 7.34205C23.0068 7.02676 22.9258 6.71568 22.7656 6.44344C22.6054 6.17121 22.3723 5.94852 22.0922 5.80017C21.8122 5.65182 21.4962 5.58363 21.1795 5.60322C20.8628 5.6228 20.5577 5.72937 20.2984 5.91107C20.039 6.09277 19.8355 6.34246 19.7104 6.63233C19.5854 6.9222 19.5439 7.24086 19.5903 7.55283C18.1568 6.56776 15.5315 5.34966 11.3023 5.40937L11.3086 6.41959C11.4306 6.41286 11.5521 6.40118 11.6764 6.40118C12.9478 6.40161 14.1897 6.78182 15.241 7.49246C16.2922 8.2031 17.1043 9.21136 17.5717 10.3864C19.3382 10.7905 22.3182 11.8043 19.3093 13.6433C19.3093 13.6433 19.2036 15.8043 18.9384 17.7363C18.9384 17.7363 24.9675 14.0923 21.1521 8.99857C21.4518 9.02418 21.753 8.96994 22.0245 8.84142H22.0227ZM16.8493 20.4913C17.8175 19.0339 18.9465 16.4643 18.8887 12.4248L18.0068 12.4311C18.0104 12.5236 18.0204 12.6138 18.0204 12.7072C18.0197 13.9919 17.6238 15.2458 16.8858 16.3007C16.1479 17.3555 15.1031 18.161 13.8915 18.6091C13.4917 20.3579 12.4711 23.398 10.6038 20.3822C10.6038 20.3822 8.42984 20.2771 6.48399 20.0131C6.48399 20.0131 10.0947 25.9101 15.1538 22.3029C15.167 22.5211 15.2229 22.7346 15.3182 22.9315C15.4507 23.2068 15.6552 23.4417 15.9102 23.6116C16.1653 23.7815 16.4617 23.8801 16.7683 23.8972C17.0749 23.9143 17.3804 23.8492 17.653 23.7087C17.9257 23.5683 18.1553 23.3576 18.3179 23.0987C18.4805 22.8398 18.5701 22.5423 18.5774 22.2372C18.5846 21.9321 18.5093 21.6307 18.3592 21.3645C18.2091 21.0982 17.9898 20.877 17.7241 20.7238C17.4585 20.5707 17.1564 20.4913 16.8493 20.494V20.4913Z" fill="#FF9C02"/>
</svg>
