<svg width="166" height="158" viewBox="0 0 166 158" fill="none" xmlns="http://www.w3.org/2000/svg">
<path d="M158.921 52.2377C160.977 51.3093 162.721 49.8578 163.958 48.0449C165.196 46.2321 165.878 44.1289 165.93 41.9698C165.982 39.8107 165.4 37.6803 164.251 35.816C163.101 33.9517 161.429 32.4267 159.419 31.4108C157.41 30.3949 155.143 29.9279 152.87 30.062C150.598 30.1961 148.409 30.926 146.548 32.1703C144.687 33.4146 143.226 35.1245 142.329 37.1095C141.432 39.0946 141.134 41.2768 141.467 43.4132C131.181 36.6673 112.344 28.3256 81.9976 28.7346L82.0429 35.6527C82.9182 35.6065 83.7902 35.5266 84.6817 35.5266C93.8045 35.5296 102.716 38.1333 110.259 42.9998C117.802 47.8663 123.629 54.771 126.983 62.8177C139.658 65.585 161.041 72.5277 139.451 85.1217C139.451 85.1217 138.692 99.9203 136.789 113.151C136.789 113.151 180.051 88.1964 152.674 53.3138C154.824 53.4892 156.985 53.1178 158.934 52.2377H158.921Z" fill="#FFB277"/>
<path d="M111.51 150.698C112.483 152.66 114.004 154.324 115.903 155.505C117.803 156.686 120.007 157.338 122.269 157.387C124.531 157.436 126.763 156.882 128.717 155.785C130.67 154.688 132.268 153.091 133.333 151.174C134.397 149.256 134.886 147.092 134.746 144.923C134.605 142.754 133.841 140.665 132.537 138.889C131.233 137.113 129.441 135.719 127.362 134.863C125.282 134.007 122.995 133.722 120.757 134.04C127.825 124.223 136.565 106.245 136.137 77.2829L128.888 77.3262C128.936 78.1616 129.02 78.9938 129.02 79.8446C129.017 88.5514 126.289 97.0562 121.19 104.255C116.091 111.455 108.856 117.016 100.425 120.217C97.5252 132.314 90.2508 152.721 77.0549 132.116C77.0549 132.116 61.5491 131.392 47.6864 129.576C47.6864 129.576 73.8333 170.864 110.383 144.736C110.199 146.788 110.588 148.85 111.51 150.71L111.51 150.698Z" fill="#FEC192"/>
<path d="M7.01323 104.707C4.95733 105.635 3.21351 107.087 1.976 108.899C0.73849 110.712 0.0558914 112.815 0.0042024 114.975C-0.0474865 117.134 0.53378 119.264 1.68326 121.128C2.83274 122.993 4.50529 124.518 6.51464 125.534C8.52399 126.55 10.7912 127.016 13.0639 126.882C15.3365 126.748 17.5252 126.018 19.3863 124.774C21.2474 123.53 22.7078 121.82 23.6048 119.835C24.5018 117.85 24.8002 115.668 24.4668 113.531C34.7528 120.277 53.5906 128.619 83.9365 128.21L83.8911 121.292C83.0159 121.338 82.1438 121.418 81.2524 121.418C72.1295 121.415 63.2183 118.811 55.6751 113.945C48.1319 109.078 42.3051 102.173 38.9509 94.1267C26.2757 91.3594 4.89314 84.4167 26.4831 71.8227C26.4831 71.8227 27.2417 57.0241 29.1446 43.7937C29.1446 43.7937 -14.1164 68.748 13.2601 103.631C11.1097 103.455 8.94892 103.827 7.00027 104.707L7.01323 104.707Z" fill="#FFB277"/>
<path d="M55.2323 7.1219C54.2595 5.15977 52.7387 3.49549 50.8392 2.31442C48.9397 1.13335 46.736 0.481884 44.4737 0.432552C42.2114 0.383221 39.9792 0.937977 38.0258 2.03503C36.0725 3.13209 34.4745 4.72835 33.4101 6.64605C32.3456 8.56376 31.8564 10.7276 31.9969 12.8966C32.1374 15.0655 32.9021 17.1545 34.2059 18.9307C35.5096 20.7069 37.3013 22.1007 39.3812 22.9568C41.4611 23.8128 43.7476 24.0976 45.9861 23.7794C38.9178 33.5963 30.1775 51.5749 30.606 80.5368L37.8547 80.4935C37.8064 79.6581 37.7226 78.8259 37.7226 77.9751C37.7257 69.2683 40.4538 60.7635 45.5529 53.5643C50.6521 46.3652 57.8867 40.8041 66.3179 37.6029C69.2174 25.5058 76.4919 5.0985 89.6878 25.7038C89.6878 25.7038 105.194 26.4278 119.056 28.2439C119.056 28.2439 92.9094 -13.0441 56.3598 13.0838C56.5436 11.0316 56.1544 8.9693 55.2323 7.10953L55.2323 7.1219Z" fill="#FEC192"/>
<path d="M166 41.6467C166 48.2861 160.36 53.6684 153.403 53.6684C146.447 53.6684 140.807 48.2861 140.807 41.6467C140.807 35.0073 146.447 29.6249 153.403 29.6249C160.36 29.6249 166 35.0073 166 41.6467Z" fill="#FFCFCA"/>
<path d="M135.409 145.978C135.409 152.618 129.77 158 122.813 158C115.856 158 110.217 152.618 110.217 145.978C110.217 139.339 115.856 133.957 122.813 133.957C129.77 133.957 135.409 139.339 135.409 145.978Z" fill="#FFCFCA"/>
<path d="M25.1925 115.065C25.1925 121.705 19.553 127.087 12.5963 127.087C5.63953 127.087 0 121.705 0 115.065C0 108.426 5.63953 103.043 12.5963 103.043C19.553 103.043 25.1925 108.426 25.1925 115.065Z" fill="#FFCFCA"/>
<path d="M56.6842 12.0217C56.6842 18.6612 51.0447 24.0435 44.0879 24.0435C37.1312 24.0435 31.4917 18.6612 31.4917 12.0217C31.4917 5.38232 37.1312 0 44.0879 0C51.0447 0 56.6842 5.38232 56.6842 12.0217Z" fill="#FFCFCA"/>
</svg>
