<svg width="174" height="210" viewBox="0 0 174 210" fill="none" xmlns="http://www.w3.org/2000/svg">
<path d="M8.104 135.051C8.104 131.363 11.3934 128.373 15.4511 128.373H21.0338C25.0915 128.373 28.3809 131.363 28.3809 135.051V203.319C28.3809 207.008 25.0915 209.998 21.0338 209.998H15.4511C11.3934 209.998 8.104 207.008 8.104 203.319V135.051Z" fill="#4D4D4D"/>
<path d="M153.666 135.053C153.666 131.365 156.955 128.375 161.013 128.375H166.595C170.653 128.375 173.942 131.365 173.942 135.053V203.322C173.942 207.01 170.653 210 166.595 210H161.013C156.955 210 153.666 207.01 153.666 203.322V135.053Z" fill="#4D4D4D"/>
<path d="M166.652 191.449C170.71 191.449 174 194.439 174 198.127L174 203.202C174 206.89 170.71 209.88 166.652 209.88L15.5105 209.88C11.4528 209.88 8.16338 206.89 8.16338 203.202L8.16338 198.127C8.16338 194.439 11.4528 191.449 15.5105 191.449L166.652 191.449Z" fill="#4D4D4D"/>
<path fill-rule="evenodd" clip-rule="evenodd" d="M140.442 161.189C140.442 164.174 137.78 166.594 134.496 166.594C133.208 166.594 131.956 166.215 130.926 165.513L129.988 164.872C127.83 163.401 124.959 163.122 122.509 164.147L120.083 165.161C117.93 166.061 115.432 165.962 113.374 164.895L112.293 164.334C110.075 163.185 107.359 163.164 105.121 164.28L104.079 164.799C101.84 165.915 99.125 165.894 96.9071 164.744L96.2616 164.41C93.9653 163.219 91.1425 163.242 88.8698 164.469L86.4028 165.801C85.4414 166.32 84.3438 166.594 83.2256 166.594C79.7896 166.594 77.0043 164.063 77.0042 160.939L77.0042 132.318C80.6578 131.462 83.3482 128.544 83.3482 125.076C83.3482 121.608 80.6578 118.69 77.0042 117.834L77.0042 93.1194C77.0042 89.431 80.2937 86.441 84.3513 86.441L133.095 86.441C137.153 86.441 140.442 89.431 140.442 93.1194L140.442 118.006C137.116 119.035 134.733 121.812 134.733 125.076C134.733 128.34 137.116 131.117 140.442 132.146L140.442 161.189Z" fill="#E8904C"/>
<mask id="mask0" style="mask-type:alpha" maskUnits="userSpaceOnUse" x="77" y="86" width="64" height="81">
<path fill-rule="evenodd" clip-rule="evenodd" d="M140.546 161.189C140.546 164.174 137.884 166.594 134.6 166.594C133.312 166.594 132.06 166.215 131.03 165.513L130.092 164.872C127.934 163.401 125.063 163.122 122.612 164.147L120.187 165.161C118.034 166.061 115.536 165.962 113.478 164.895L112.397 164.334C110.179 163.185 107.463 163.164 105.225 164.28L104.183 164.799C101.944 165.915 99.229 165.894 97.0111 164.744L96.3655 164.41C94.0692 163.219 91.2465 163.242 88.9738 164.469L86.5068 165.801C85.5454 166.32 84.4478 166.594 83.3295 166.594C79.8936 166.594 77.1082 164.063 77.1082 160.939L77.1082 132.318C80.7617 131.462 83.452 128.544 83.452 125.076C83.452 121.608 80.7617 118.69 77.1082 117.834L77.1082 93.1194C77.1082 89.431 80.3976 86.441 84.4553 86.441L133.199 86.441C137.257 86.441 140.546 89.431 140.546 93.1194L140.546 118.006C137.22 119.035 134.837 121.812 134.837 125.076C134.837 128.34 137.22 131.117 140.546 132.146L140.546 161.189Z" fill="#FFB277"/>
</mask>
<g mask="url(#mask0)">
<path d="M66.3182 159.102C66.3182 151.459 73.1348 145.263 81.5434 145.263C89.952 145.263 96.7686 151.459 96.7686 159.102C96.7686 166.746 89.952 172.942 81.5434 172.942C73.1348 172.942 66.3182 166.746 66.3182 159.102Z" fill="#FFB277"/>
<path d="M66.3182 93.3648C66.3182 85.7215 73.1348 79.5254 81.5434 79.5254C89.952 79.5254 96.7686 85.7215 96.7686 93.3648C96.7686 101.008 89.952 107.204 81.5434 107.204C73.1348 107.204 66.3182 101.008 66.3182 93.3648Z" fill="#FFB277"/>
<path d="M118.971 93.3648C118.971 85.7215 125.788 79.5254 134.196 79.5254C142.605 79.5254 149.421 85.7215 149.421 93.3648C149.421 101.008 142.605 107.204 134.196 107.204C125.788 107.204 118.971 101.008 118.971 93.3648Z" fill="#D07F40"/>
<path d="M118.975 160.253C118.975 152.61 125.792 146.413 134.201 146.413C142.609 146.413 149.426 152.61 149.426 160.253C149.426 167.896 142.609 174.092 134.201 174.092C125.792 174.092 118.975 167.896 118.975 160.253Z" fill="#D07F40"/>
</g>
<path d="M125.002 120.463C125.878 120.463 126.588 119.817 126.588 119.021V119.021C126.588 118.225 125.878 117.579 125.002 117.579L92.6485 117.579C91.7726 117.579 91.0625 118.225 91.0625 119.021V119.021C91.0625 119.817 91.7726 120.463 92.6485 120.463L125.002 120.463Z" fill="#49569E"/>
<path d="M111.681 112.39C112.557 112.39 113.267 111.744 113.267 110.948V110.948C113.267 110.152 112.557 109.507 111.681 109.507L92.6497 109.507C91.7738 109.507 91.0637 110.152 91.0637 110.948V110.948C91.0637 111.744 91.7738 112.39 92.6497 112.39L111.681 112.39Z" fill="#140D7D"/>
<path d="M121.197 104.893C122.073 104.893 122.783 104.248 122.783 103.452V103.452C122.783 102.656 122.073 102.01 121.197 102.01L92.6496 102.01C91.7737 102.01 91.0636 102.656 91.0636 103.452V103.452C91.0636 104.248 91.7737 104.893 92.6496 104.893L121.197 104.893Z" fill="#140D7D"/>
<path fill-rule="evenodd" clip-rule="evenodd" d="M126.537 171.411C126.537 175.099 123.247 178.089 119.19 178.089L118.782 178.089C117.192 178.089 115.645 177.62 114.373 176.753L112.079 175.188C109.921 173.717 107.05 173.438 104.6 174.463L99.3536 176.656C97.2008 177.555 94.7027 177.456 92.6443 176.389L89.2887 174.65C87.0708 173.5 84.3554 173.48 82.1167 174.596L78.7097 176.294C76.471 177.409 73.7556 177.389 71.5378 176.239L68.6177 174.726C66.3214 173.535 63.4986 173.558 61.2259 174.785L56.8412 177.153C55.7058 177.766 54.4096 178.089 53.089 178.089L52.2494 178.089C48.1917 178.089 44.9023 175.099 44.9023 171.411L44.9023 133.981C49.6037 132.88 53.0657 129.125 53.0657 124.662C53.0657 120.199 49.6037 116.445 44.9023 115.343L44.9023 81.6236C44.9023 77.9352 48.1917 74.9452 52.2494 74.9452L119.19 74.9452C123.247 74.9452 126.537 77.9352 126.537 81.6236L126.537 115.565C122.256 116.889 119.19 120.462 119.19 124.662C119.19 128.862 122.256 132.436 126.537 133.76L126.537 171.411Z" fill="#FEC192"/>
<mask id="mask1" style="mask-type:alpha" maskUnits="userSpaceOnUse" x="45" y="76" width="83" height="104">
<path fill-rule="evenodd" clip-rule="evenodd" d="M127.317 172.589C127.317 176.278 124.027 179.268 119.97 179.268L119.563 179.268C117.972 179.268 116.425 178.799 115.153 177.931L112.859 176.367C110.702 174.895 107.83 174.617 105.38 175.641L100.134 177.834C97.9811 178.734 95.483 178.635 93.4246 177.568L90.069 175.829C87.8511 174.679 85.1357 174.658 82.897 175.774L79.49 177.472C77.2513 178.588 74.5359 178.567 72.3181 177.418L69.3979 175.904C67.1016 174.714 64.2789 174.737 62.0062 175.964L57.6215 178.331C56.4861 178.944 55.1899 179.268 53.8693 179.268L53.0297 179.268C48.972 179.268 45.6826 176.278 45.6826 172.589L45.6826 135.16C50.384 134.058 53.846 130.303 53.846 125.841C53.846 121.378 50.384 117.623 45.6826 116.521L45.6826 82.8021C45.6826 79.1137 48.972 76.1237 53.0297 76.1237L119.97 76.1237C124.027 76.1237 127.317 79.1137 127.317 82.8021L127.317 116.743C123.037 118.067 119.97 121.64 119.97 125.841C119.97 130.041 123.037 133.614 127.317 134.938L127.317 172.589Z" fill="#FFB277"/>
</mask>
<g mask="url(#mask1)">
<path d="M31.1471 168.44C31.1471 158.604 39.9188 150.631 50.7393 150.631C61.5598 150.631 70.3315 158.604 70.3315 168.44C70.3315 178.275 61.5598 186.249 50.7393 186.249C39.9188 186.249 31.1471 178.275 31.1471 168.44Z" fill="#FFB277"/>
<path d="M31.1471 83.8466C31.1471 74.0109 39.9188 66.0375 50.7393 66.0375C61.5598 66.0375 70.3315 74.0109 70.3315 83.8466C70.3315 93.6823 61.5598 101.656 50.7393 101.656C39.9188 101.656 31.1471 93.6823 31.1471 83.8466Z" fill="#FFB277"/>
<path d="M98.9059 83.8466C98.9059 74.0109 107.678 66.0375 118.498 66.0375C129.319 66.0375 138.09 74.0109 138.09 83.8466C138.09 93.6823 129.319 101.656 118.498 101.656C107.678 101.656 98.9059 93.6823 98.9059 83.8466Z" fill="#FFB277"/>
<path d="M98.9024 169.927C98.9024 160.091 107.674 152.118 118.495 152.118C129.315 152.118 138.087 160.091 138.087 169.927C138.087 179.763 129.315 187.736 118.495 187.736C107.674 187.736 98.9024 179.763 98.9024 169.927Z" fill="#FFB277"/>
</g>
<path d="M106.665 125.646C107.792 125.646 108.706 124.815 108.706 123.791V123.791C108.706 122.766 107.792 121.936 106.665 121.936L65.0317 121.936C63.9046 121.936 62.9908 122.766 62.9908 123.791V123.791C62.9908 124.815 63.9046 125.646 65.0317 125.646L106.665 125.646Z" fill="#49569E"/>
<path d="M89.5251 115.258C90.6522 115.258 91.5659 114.428 91.5659 113.403V113.403C91.5659 112.379 90.6522 111.548 89.5251 111.548L65.0348 111.548C63.9076 111.548 62.9939 112.379 62.9939 113.403V113.403C62.9939 114.428 63.9076 115.258 65.0348 115.258L89.5251 115.258Z" fill="#49569E"/>
<path d="M101.771 105.611C102.898 105.611 103.812 104.78 103.812 103.756V103.756C103.812 102.731 102.898 101.901 101.771 101.901L65.0352 101.901C63.9081 101.901 62.9944 102.731 62.9944 103.756V103.756C62.9944 104.78 63.9081 105.611 65.0352 105.611L101.771 105.611Z" fill="#49569E"/>
<path fill-rule="evenodd" clip-rule="evenodd" d="M63.5013 66.2945C67.3889 67.1125 70.9785 64.1487 70.4552 60.5528L65.372 25.625C64.7673 21.4703 59.2774 19.6435 55.8647 22.4614L47.6105 29.2768L32.5029 14.1589C30.3809 12.0354 26.7669 11.8777 24.4308 13.8065L15.9711 20.7916C13.635 22.7205 13.4615 26.0055 15.5835 28.129L30.6911 43.2469L23.1867 49.4431C19.774 52.261 21.2485 57.4033 25.7402 58.3485L63.5013 66.2945Z" fill="#FD5F61"/>
<path fill-rule="evenodd" clip-rule="evenodd" d="M66.158 59.3383L61.9693 33.3577L60.0685 32.0464C56.4254 29.5333 52.6293 32.4363 53.4496 37.1081L56.6366 55.2575C57.3648 59.4048 61.3142 62.1292 64.1933 60.4703L66.158 59.3383Z" fill="#F0B180"/>
</svg>
