<svg width="36" height="36" viewBox="0 0 36 36" fill="none" xmlns="http://www.w3.org/2000/svg">
<rect width="36" height="36" rx="18" fill="#F6F6F6"/>
<path d="M18.0743 10.5H12.9752C11.6138 10.5 10.5 11.6138 10.5 12.9753V18.0743C10.5 19.4357 11.6138 20.5495 12.9752 20.5495H18.0743C19.4357 20.5495 20.5495 19.4357 20.5495 18.0743V12.9753C20.5495 11.6138 19.4357 10.5 18.0743 10.5ZM19.5595 18.0743C19.5595 18.8911 18.8911 19.5595 18.0743 19.5595H12.9752C12.1584 19.5595 11.49 18.8912 11.49 18.0743V12.9753C11.49 12.1584 12.1584 11.49 12.9752 11.49H18.0743C18.8911 11.49 19.5595 12.1584 19.5595 12.9753V18.0743Z" fill="#4D4D4D"/>
<path d="M23.0247 24.5099H17.9257C17.1089 24.5099 16.4404 23.8415 16.4404 23.0247V22.0347H15.4504V23.0247C15.4504 24.3861 16.5643 25.4999 17.9257 25.4999H23.0247C24.3861 25.4999 25.4999 24.3861 25.4999 23.0247V17.9257C25.4999 16.5642 24.3861 15.4504 23.0247 15.4504H22.0347V16.4404H23.0247C23.8415 16.4404 24.5099 17.1088 24.5099 17.9257V23.0247C24.5099 23.8415 23.8416 24.5099 23.0247 24.5099V24.5099Z" fill="#4D4D4D"/>
</svg>
