<svg width="22" height="22" viewBox="0 0 22 22" fill="none" xmlns="http://www.w3.org/2000/svg">
<path d="M11.0693 4H6.31024C5.03957 4 4 5.03957 4 6.31025V11.0693C4 12.34 5.03957 13.3796 6.31024 13.3796H11.0693C12.34 13.3796 13.3796 12.34 13.3796 11.0693V6.31025C13.3796 5.03957 12.34 4 11.0693 4ZM12.4556 11.0693C12.4556 11.8317 11.8318 12.4556 11.0693 12.4556H6.31024C5.54786 12.4556 4.92402 11.8318 4.92402 11.0693V6.31025C4.92402 5.54786 5.54782 4.92402 6.31024 4.92402H11.0693C11.8317 4.92402 12.4556 5.54782 12.4556 6.31025V11.0693Z" fill="white" fill-opacity="0.5"/>
<path d="M11.0693 3.75H6.31024C4.9015 3.75 3.75 4.9015 3.75 6.31025V11.0693C3.75 12.4781 4.9015 13.6296 6.31024 13.6296H11.0693C12.4781 13.6296 13.6296 12.4781 13.6296 11.0693V6.31025C13.6296 4.9015 12.4781 3.75 11.0693 3.75ZM12.2056 11.0693C12.2056 11.6937 11.6937 12.2056 11.0693 12.2056H6.31024C5.68593 12.2056 5.17402 11.6937 5.17402 11.0693V6.31025C5.17402 5.68593 5.6859 5.17402 6.31024 5.17402H11.0693C11.6937 5.17402 12.2056 5.6859 12.2056 6.31025V11.0693Z" stroke="white" stroke-opacity="0.5" stroke-width="0.5"/>
<path d="M15.6898 17.0759H10.9307C10.1683 17.0759 9.54444 16.4521 9.54444 15.6897V14.7657H8.62042V15.6897C8.62042 16.9604 9.65999 18 10.9307 18H15.6898C16.9604 18 18 16.9604 18 15.6897V10.9306C18 9.65993 16.9604 8.62036 15.6898 8.62036H14.7658V9.54438H15.6898C16.4522 9.54438 17.076 10.1682 17.076 10.9306V15.6897C17.076 16.4521 16.4522 17.0759 15.6898 17.0759Z" fill="white" fill-opacity="0.5"/>
<path d="M9.79444 14.7657V14.5157H9.54444H8.62042H8.37042V14.7657V15.6897C8.37042 17.0985 9.52192 18.25 10.9307 18.25H15.6898C17.0985 18.25 18.25 17.0985 18.25 15.6897V10.9306C18.25 9.52186 17.0985 8.37036 15.6898 8.37036H14.7658H14.5158V8.62036V9.54438V9.79438H14.7658H15.6898C16.3141 9.79438 16.826 10.3063 16.826 10.9306V15.6897C16.826 16.314 16.3141 16.8259 15.6898 16.8259H10.9307C10.3064 16.8259 9.79444 16.3141 9.79444 15.6897V14.7657Z" stroke="white" stroke-opacity="0.5" stroke-width="0.5"/>
</svg>
