<svg
  width="29"
  height="29"
  viewBox="0 0 29 29"
  fill="none"
  xmlns="http://www.w3.org/2000/svg">
  <rect width="29" height="29" rx="14.5" fill="white" />
  <path
    d="M13.8308 6.95485H16.4745V7.39968H17.4292V6.89257C17.4294 6.40043 17.0292 6 16.5373 6H13.7681C13.2762 6 12.876 6.40043 12.876 6.89257V7.39968H13.8308V6.95485Z"
    fill="currentColor"
  />
  <path
    d="M19.634 11.1826H10.6711C10.4255 11.1826 10.2322 11.3921 10.252 11.637L11.0013 20.9026C11.0431 21.4198 11.4745 21.8182 11.9929 21.8182H18.3122C18.8305 21.8182 19.262 21.4198 19.3037 20.9024L20.053 11.637C20.073 11.3921 19.8796 11.1826 19.634 11.1826Z"
    fill="currentColor"
  />
  <path
    d="M21.2853 9.70928L20.9718 8.7694C20.8891 8.52164 20.6571 8.35449 20.3959 8.35449H9.90981C9.64866 8.35449 9.41658 8.52164 9.33403 8.7694L9.0205 9.70928C8.96004 9.89055 9.03872 10.0754 9.18559 10.1676C9.24545 10.2052 9.31629 10.2277 9.39413 10.2277H20.9117C20.9895 10.2277 21.0605 10.2052 21.1202 10.1675C21.2671 10.0753 21.3457 9.89043 21.2853 9.70928Z"
    fill="currentColor"
  />
</svg>
