<svg width="8" height="9" viewBox="0 0 8 9" fill="none" xmlns="http://www.w3.org/2000/svg">
<path d="M4.94042 1.39307L0.538718 5.9837C0.516573 6.00686 0.500583 6.03611 0.492968 6.06754L0.00508184 8.10972C-0.00951225 8.17119 0.00781031 8.23657 0.0508311 8.28143C0.0833823 8.31538 0.127736 8.33417 0.173104 8.33417C0.187 8.33417 0.201214 8.33238 0.215046 8.32874L2.17332 7.81989C2.20384 7.81194 2.23157 7.79534 2.25371 7.77224L6.65579 3.18194L4.94042 1.39307Z" fill="#5563DA"/>
<path d="M7.74617 0.766983L7.25619 0.256008C6.92871 -0.0855015 6.35796 -0.0851707 6.03086 0.256008L5.43066 0.881922L7.14597 2.67073L7.74617 2.04482C7.90975 1.87429 7.99985 1.64733 7.99985 1.40593C7.99985 1.16454 7.90975 0.937573 7.74617 0.766983Z" fill="#5563DA"/>
</svg>
