<svg width="29" height="29" viewBox="0 0 29 29" fill="none" xmlns="http://www.w3.org/2000/svg">
<path d="M0 14.5C0 6.49187 6.49187 0 14.5 0V0C22.5081 0 29 6.49187 29 14.5V14.5C29 22.5081 22.5081 29 14.5 29V29C6.49187 29 0 22.5081 0 14.5V14.5Z" fill="white"/>
<path d="M22.0678 12.6541L20.7361 12.4848C20.6263 12.1469 20.491 11.8211 20.333 11.5115L21.1554 10.4526C21.4884 10.024 21.4494 9.41912 21.069 9.05079L19.9533 7.93517C19.5814 7.55125 18.9765 7.513 18.5472 7.84521L17.4896 8.66758C17.1801 8.50963 16.8542 8.37433 16.5156 8.26454L16.3463 6.935C16.2826 6.40162 15.83 6 15.2937 6H13.707C13.1708 6 12.7181 6.40162 12.6544 6.93287L12.4851 8.26454C12.1465 8.37433 11.8206 8.50892 11.5111 8.66758L10.4528 7.84521C10.0249 7.513 9.41998 7.55125 9.05092 7.93163L7.93525 9.04654C7.55131 9.41912 7.51235 10.024 7.84529 10.4533L8.66769 11.5115C8.50902 11.8211 8.37443 12.1469 8.26464 12.4848L6.93504 12.6541C6.40164 12.7178 6 13.1705 6 13.7067V15.2933C6 15.8295 6.40164 16.2822 6.93291 16.3459L8.26464 16.5152C8.37443 16.8531 8.50973 17.1789 8.66769 17.4885L7.84529 18.5474C7.51235 18.976 7.55131 19.5809 7.93171 19.9492L9.04738 21.0648C9.41998 21.448 10.0242 21.4863 10.4535 21.1541L11.5118 20.3317C11.8213 20.4904 12.1472 20.6257 12.4851 20.7347L12.6544 22.0636C12.7181 22.5984 13.1708 23 13.707 23H15.2937C15.83 23 16.2826 22.5984 16.3463 22.0671L16.5156 20.7355C16.8535 20.6257 17.1794 20.4904 17.4889 20.3324L18.5479 21.1548C18.9765 21.4877 19.5814 21.4488 19.9498 21.0684L21.0655 19.9527C21.4494 19.5802 21.4884 18.976 21.1554 18.5467L20.333 17.4885C20.4917 17.1789 20.627 16.8531 20.7361 16.5152L22.065 16.3459C22.5984 16.2822 23 15.8295 23 15.2933V13.7067C23.0007 13.1705 22.5991 12.7178 22.0678 12.6541ZM14.5004 18.0417C12.5474 18.0417 10.9585 16.4529 10.9585 14.5C10.9585 12.5471 12.5474 10.9583 14.5004 10.9583C16.4533 10.9583 18.0422 12.5471 18.0422 14.5C18.0422 16.4529 16.4533 18.0417 14.5004 18.0417Z" fill="#5765DB"/>
</svg>
