<svg width="29" height="30" viewBox="0 0 29 30" fill="none" xmlns="http://www.w3.org/2000/svg">
<rect y="0.5" width="29" height="29" rx="14.5" fill="#F6F6F6"/>
<path d="M21.7011 17.3146H20.6724C20.6719 16.9055 20.5092 16.5132 20.2199 16.2239C19.9306 15.9347 19.5384 15.7719 19.1293 15.7715H18.6149C18.2058 15.7719 17.8135 15.9347 17.5242 16.2239C17.2349 16.5132 17.0722 16.9055 17.0718 17.3146V18.3433C17.0722 18.7525 17.2349 19.1447 17.5242 19.434C17.8135 19.7233 18.2058 19.886 18.6149 19.8865H19.1293C19.5384 19.886 19.9306 19.7233 20.2199 19.434C20.5092 19.1447 20.6719 18.7525 20.6724 18.3433H21.7011C21.8375 18.3433 21.9684 18.2891 22.0648 18.1927C22.1613 18.0962 22.2155 17.9654 22.2155 17.829C22.2155 17.6925 22.1613 17.5617 22.0648 17.4653C21.9684 17.3688 21.8375 17.3146 21.7011 17.3146Z" fill="#5563DA"/>
<path d="M7.2988 18.3437H16.0431V17.3149H7.2988C7.16238 17.3149 7.03154 17.3691 6.93508 17.4656C6.83862 17.5621 6.78442 17.6929 6.78442 17.8293C6.78442 17.9657 6.83862 18.0966 6.93508 18.193C7.03154 18.2895 7.16238 18.3437 7.2988 18.3437Z" fill="#5563DA"/>
<path d="M22.2155 12.1711C22.2151 12.0348 22.1608 11.9042 22.0644 11.8078C21.968 11.7115 21.8374 11.6571 21.7011 11.6567H17.0718V12.6855H21.7011C21.8374 12.6851 21.968 12.6308 22.0644 12.5344C22.1608 12.438 22.2151 12.3074 22.2155 12.1711Z" fill="#5563DA"/>
<path d="M7.2988 12.6856H12.4425C12.443 13.0947 12.6057 13.487 12.895 13.7763C13.1843 14.0656 13.5765 14.2283 13.9856 14.2287H14.5C14.9091 14.2283 15.3013 14.0656 15.5906 13.7763C15.8799 13.487 16.0427 13.0947 16.0431 12.6856V11.6569C16.0427 11.2478 15.8799 10.8555 15.5906 10.5662C15.3013 10.2769 14.9091 10.1142 14.5 10.1138H13.9856C13.5765 10.1142 13.1843 10.2769 12.895 10.5662C12.6057 10.8555 12.443 11.2478 12.4425 11.6569H7.2988C7.16238 11.6569 7.03154 11.7111 6.93508 11.8075C6.83862 11.904 6.78442 12.0348 6.78442 12.1713C6.78442 12.3077 6.83862 12.4385 6.93508 12.535C7.03154 12.6314 7.16238 12.6856 7.2988 12.6856Z" fill="#5563DA"/>
</svg>
