<svg width="21" height="27" viewBox="0 0 21 27" fill="none" xmlns="http://www.w3.org/2000/svg">
<path fill-rule="evenodd" clip-rule="evenodd" d="M10.9362 19.4566V18.4554V18.4554C10.9362 15.4354 8.48806 12.9873 5.46812 12.9873C2.44817 12.9873 1.42513e-05 15.4354 0 18.4554V18.4554V19.4566H10.9362Z" fill="#434343"/>
<path fill-rule="evenodd" clip-rule="evenodd" d="M20.5629 18.4554L20.5629 18.4645V19.4566H9.62671V18.4554H9.62672C9.62673 15.4354 12.0749 12.9873 15.0948 12.9873C18.1148 12.9873 20.5629 15.4355 20.5629 18.4554Z" fill="#FD5F61"/>
<path fill-rule="evenodd" clip-rule="evenodd" d="M10.3971 19.8416C13.417 19.8416 15.8652 22.2897 15.8652 25.3097L15.8652 25.3097V26.3109H4.929V25.3315C4.92897 25.3242 4.92896 25.3169 4.92896 25.3097C4.92896 22.2897 7.37711 19.8416 10.3971 19.8416Z" fill="#FBB03B"/>
<path d="M9.3632 11.8129C9.3632 13.9876 7.61985 15.7505 5.46932 15.7505C3.31879 15.7505 1.57544 13.9876 1.57544 11.8129C1.57544 9.63818 3.31879 7.87524 5.46932 7.87524C7.61985 7.87524 9.3632 9.63818 9.3632 11.8129Z" fill="#FFCFCA"/>
<path d="M14.3508 3.93763C14.3508 6.11233 12.6074 7.87527 10.4569 7.87527C8.30634 7.87527 6.56299 6.11233 6.56299 3.93763C6.56299 1.76294 8.30634 0 10.4569 0C12.6074 0 14.3508 1.76294 14.3508 3.93763Z" fill="#FEC192"/>
<path d="M10.5005 7.87551C12.651 7.87551 14.3944 6.11257 14.3944 3.93788C14.3944 1.76318 12.651 0.000244141 10.5005 0.000244141V7.87551Z" fill="#FFB277"/>
<path d="M10.6421 5.41135L9.92061 4.1144L9.74023 3.85854H9.83609C10.0685 3.85854 10.2456 3.8267 10.3676 3.76304C10.4925 3.69938 10.7011 3.58451 10.7215 3.41843H9.74023V3.01154H10.7171C10.6881 2.85654 10.5866 2.74547 10.4617 2.67628C10.3398 2.60708 10.0568 2.57144 9.83609 2.57144H9.74023V2.16455H11.9048V2.57144H11.0377C11.1772 2.67939 11.2437 2.82609 11.2698 3.01154H11.9048V3.41843H11.2785C11.2582 3.62049 11.1452 3.81563 11.0029 3.92912C10.8635 4.03984 10.5855 4.1144 10.4617 4.1144L11.1833 5.41135H10.6421Z" fill="#49569E"/>
<path d="M18.9884 11.8129C18.9884 13.9876 17.2451 15.7505 15.0946 15.7505C12.944 15.7505 11.2007 13.9876 11.2007 11.8129C11.2007 9.63818 12.944 7.87524 15.0946 7.87524C17.2451 7.87524 18.9884 9.63818 18.9884 11.8129Z" fill="#FFCFCA"/>
<path d="M14.0693 18.9398C14.0693 21.0318 12.3734 22.7277 10.2813 22.7277C8.18933 22.7277 6.49341 21.0318 6.49341 18.9398C6.49341 16.8478 8.18933 15.1519 10.2813 15.1519C12.3734 15.1519 14.0693 16.8478 14.0693 18.9398Z" fill="#FFCFCA"/>
</svg>
