<svg width="19" height="18" viewBox="0 0 19 18" fill="none" xmlns="http://www.w3.org/2000/svg">
<path d="M8.8239 4.5H10.6074V6.3H8.8239V4.5Z" fill="black" fill-opacity="0.54"/>
<path d="M8.8239 8.1H10.6074V13.5H8.8239V8.1Z" fill="black" fill-opacity="0.54"/>
<path fill-rule="evenodd" clip-rule="evenodd" d="M0.798218 9C0.798218 4.032 4.79321 0 9.71565 0C14.6381 0 18.6331 4.032 18.6331 9C18.6331 13.968 14.6381 18 9.71565 18C4.79321 18 0.798218 13.968 0.798218 9ZM2.5817 9C2.5817 12.969 5.78303 16.2 9.71565 16.2C13.6483 16.2 16.8496 12.969 16.8496 9C16.8496 5.031 13.6483 1.8 9.71565 1.8C5.78303 1.8 2.5817 5.031 2.5817 9Z" fill="black" fill-opacity="0.54"/>
</svg>
