<svg width="110" height="193" viewBox="0 0 110 193" fill="none" xmlns="http://www.w3.org/2000/svg">
<path d="M65.6134 5.27925L17.346 99.5515H39.2171L9.8042 176.478L99.5514 67.1219H61.0883L99.5514 5.27925H65.6134Z" fill="#FFD80C"/>
<path d="M88.2387 68.6302L17.346 156.115L9.8042 181.757L107.093 68.6302H88.2387Z" fill="#FD8D0A"/>
<path fill-rule="evenodd" clip-rule="evenodd" d="M49.105 1.31981C46.6976 4.03636 -0.461907 99.4987 0.00342078 100.712C0.848855 102.916 3.95381 103.322 19.9228 103.322C28.6064 103.322 35.7115 103.568 35.7115 103.867C35.7115 104.166 27.7074 123.493 17.925 146.814C8.14251 170.136 0.2523 189.793 0.390315 190.497C0.719136 192.169 2.76824 193.428 4.2404 192.863C5.19669 192.496 35.1443 157.219 101.539 78.249C105.984 72.9622 109.621 68.2954 109.621 67.8791C109.621 67.4627 108.942 66.4431 108.113 65.6135C106.683 64.1843 105.599 64.1051 87.4263 64.1051H68.249L86.7912 34.8807C96.99 18.8077 105.49 4.89085 105.681 3.95491C106.482 0.0248875 106.303 0 77.2162 0C52.5063 0 50.1782 0.109356 49.105 1.31981ZM90.6549 16.4034C87.2875 21.6924 78.6386 35.2518 71.4347 46.5358C64.2308 57.8198 58.3368 67.3549 58.3368 67.7244C58.3368 68.094 58.9508 68.9522 59.7012 69.631C60.8747 70.6936 63.7021 70.8943 79.8965 71.0677L98.7276 71.2698L59.2524 118.029C37.5411 143.746 18.7704 165.976 17.5388 167.428L15.3004 170.067L16.5237 167.05C18.2583 162.774 30.7022 132.775 37.9137 115.488C41.2653 107.454 44.0075 100.31 44.0075 99.6126C44.0075 96.7505 42.7012 96.5348 25.3793 96.5348C16.1293 96.5348 8.56108 96.3644 8.56108 96.1555C8.56108 95.9465 18.5736 75.7534 30.8108 51.2819L53.0599 6.7876H74.919H96.7773L90.6549 16.4034Z" fill="black"/>
</svg>
