<svg xmlns="http://www.w3.org/2000/svg" width="100" height="100" fill="none" xmlns:v="https://vecta.io/nano"><style><![CDATA[.B{fill-rule:evenodd}.C{fill:#ffcfca}.D{fill:#534741}.E{fill:#211a17}]]></style><mask id="A" mask-type="alpha" maskUnits="userSpaceOnUse" x="1" y="1" width="38" height="38"><path d="M38.676 20.023c0 10.305-8.354 18.658-18.658 18.658A18.66 18.66 0 0 1 1.361 20.023c0-10.304 8.353-18.658 18.658-18.658s18.658 8.354 18.658 18.658z" fill="#fff" class="B"/></mask><g mask="url(#A)" class="B"><path d="M38.676 20.023c0 10.305-8.354 18.658-18.658 18.658A18.66 18.66 0 0 1 1.361 20.023c0-10.304 8.353-18.658 18.658-18.658s18.658 8.354 18.658 18.658z" fill="#fce3c3"/><path d="M46.884 64.506l-1.374-3.441-1.401-3.085-.831-1.406-3.861-7.1-2.442-4.492-1.478-3.013c-.505-1.292-.806-2.654-1.078-4.015l-.591-3.008-1.756.796-3.749 1.764c.952 2.778 1.991 5.514 3.424 8.072 2.559 4.572 6.354 8.173 9.448 12.401.112.153.063.612.073.808.034.633-.019 1.264.058 1.895.078.638.226 1.267.44 1.872.097.274.361.526.641.28a.3.3 0 0 0 .072-.06c.277-.294.279-.696.261-1.075-.02-.432.002-.841.191-1.237.051-.107.137-.208.253-.23.071-.015.144.003.213.025a1.18 1.18 0 0 1 .546.399c.074.092.14.194.198.301.057.101.108.206.157.311l.179.388a1.78 1.78 0 0 0 .037.076l.034.068.222.44.403.801.352.698c.206.407.426.863.794 1.151.275.216.714-.006.563-.385zM12.548 27.865c-4.106-.001-8.038 12.966-8.139 13.134a5307.71 5307.71 0 0 1-8.278 12.2s-2.773 2.79-3.45 3.629c-.457.569-.934 1.157-1.227 1.828-.31.711-.499 1.461-.701 2.208a.95.95 0 0 0-.05.357c.026.216.264.405.482.306.472-.212.634-.83.772-1.279.128-.419.234-.848.431-1.241.193-.387.486-.671.832-.928.249-.186.49-.38.745-.56.096-.069.198-.138.305-.193.145-.075.3-.124.463-.112.136.011.333.076.413.196.087.13-.008.284-.063.405-.067.144-.162.272-.261.396-.169.21-.365.417-.468.668a.92.92 0 0 0-.044.132c-.124.481.24 1.175.777.739.116-.093.206-.213.296-.33.433-.557.987-1.026 1.312-1.655.208-.401.37-.822.531-1.243.301-.785.431-1.259.489-1.635v-.002l.009-.015c.064-.05 7.502-6.718 11.885-12.693 1.027-1.4 3.545-6.908 4.763-10.906.251-.824-1.059-2.613-1.826-3.408zm5.92-9.245l3.778 1.791c.383.171.77.343 1.18.429l.158 4.314a1.45 1.45 0 0 1-.237.125c-.376.955-1.306 1.631-2.395 1.631-1.171 0-2.159-.783-2.47-1.854l-.071-.021v-.301a2.52 2.52 0 0 1-.031-.397c0-.127.01-.251.028-.374l-.003-.52-.075-1.988-.081-.605-.288-1.491-.261-1.222c.244.221.473.333.767.484z" class="C"/><path d="M25.992 14.622c-.132 1.614-.836 3.183-1.989 4.321-.528.52-1.148.953-1.838 1.221-.758.295-1.585.387-2.396.345-.48-.026-.963-.098-1.403-.289-.528-.23-.969-.618-1.38-1.021-.702-.689-1.349-1.443-1.83-2.302s-.789-1.826-.785-2.81c.001-.333.039-.673.168-.98.172-.41.492-.738.821-1.036 1.086-.99 2.359-1.799 3.774-2.192 1.464-.406 3.01-.352 4.527-.293.384.014.735.09 1.044.331.252.197.39.53.529.811a7.65 7.65 0 0 1 .732 2.47c.056.473.066.951.027 1.425z" class="D"/><path d="M23.512 23.163c-1.42-.317-2.795-.836-4.051-1.565l-1.211-.749-.288-1.491-.261-1.222c.244.221.473.333.767.484l3.778 1.791c.383.171.77.343 1.18.429l.085 2.323z" fill="#f9bfbb"/><path d="M25.822 13.862a10.24 10.24 0 0 0-.323-1.057c-.396-1.086-1.13-2.085-2.107-2.746-1.878-1.268-4.5-.957-6.014.711-.359.395-.65.848-.856 1.334-.51 1.194-.537 2.48-.258 3.717.244 1.095.726 2.152 1.32 3.079.366.569.79 1.106 1.293 1.568a5.8 5.8 0 0 0 .943.706c.679.408 1.445.671 2.241.697.719.023 1.451-.166 2.057-.544.684-.427 1.097-1.084 1.395-1.805.729-1.777.773-3.801.31-5.66z" class="C"/><path d="M17.913 18.52c-.683.342-1.548.292-2.182-.135-.536-.36-.886-.977-.935-1.619-.008-.117-.007-.234.004-.352a1.58 1.58 0 0 1 .17-.589c.244-.447.773-.71 1.279-.67s.975.37 1.217.817l.447 2.548z" class="C"/><path d="M20.054 12.508c1.147-.216 2.296-.472 3.382-.878.882-.329 1.859-.964 2.095-1.918.296-1.194-.708-2.11-1.707-2.578-1.95-.914-4.361-.752-6.142.479-1.081.747-1.894 1.859-2.268 3.099-.214.712-.303 1.789.535 2.119.974.384 2.178.024 3.167-.152l.938-.171z" class="D"/><path d="M13.469 12.758c.1-.738.425-1.421 1.027-1.804.873-.556 2.196-.399 2.726.552.347.621.352 1.412.258 2.099-.044.321-.128.642-.3.92-.115.187-.505.669-.765.631l-.253-.03a.39.39 0 0 0-.044-.002c-.267.001-.515.068-.746.202-.172.093-.31.22-.414.38-.328.358-.821-.26-.994-.521-.42-.632-.611-1.567-.494-2.427z" class="D"/><path d="M30.53 39.592l-.031.014c.314 5.253.498 15.728.9 20.15-6.13-.378-15.205-.034-20.596-.689-.146-2.695-.002-9.068.741-17.502l.253-2.548.009-.081-.011-.008c-.799-.546-1.689-1.036-2.582-1.519-1.244-.672-2.492-1.326-3.508-2.088-.089-.068 1.18-2.245 1.235-2.359 1.73-3.604 4.719-7.424 8.832-8.305.242-.052 2.608-.321 2.612-.428l-.002.107c0 1.422 1.152 2.573 2.573 2.573s2.573-1.152 2.573-2.573a2.06 2.06 0 0 0-.003-.103c2.158.439 4.216 1.413 5.887 2.834 1.518 1.291 2.726 2.932 3.522 4.756.148.338.285.68.414 1.026.534 1.437.95 2.915 1.398 4.379a18.71 18.71 0 0 1-1.758 1.142c-.781.45-1.615.865-2.457 1.222z" fill="#150f84"/><path d="M30.463 34.764l.068 4.828c.842-.357 1.675-.771 2.457-1.222a6.35 6.35 0 0 1-.971-1.32c-.634-1.149-.896-2.459-1.245-3.723s-.804-2.471-1.752-3.38c.985 1.386 1.343 3.122 1.443 4.817z" fill="#000"/><path d="M20.723 13.595a1.65 1.65 0 0 1 .306.006l.54.044c.059.005.134.002.16-.053.012-.026.008-.058-.003-.086-.044-.104-.171-.139-.283-.154-.277-.035-.57-.016-.829.094-.051.021-.341.154-.32.222.018.06.371-.068.429-.074zm3.928-.122c-.102-.003-.203.012-.305.028l-.535.084c-.059.009-.134.011-.164-.04-.015-.026-.013-.059-.004-.087.036-.107.161-.151.272-.174.273-.055.567-.058.834.033.052.017.352.128.336.197-.014.062-.375-.04-.434-.042z" class="E"/><path d="M24.33 18.208c-.202.525-.573.887-1.023.924-.434.036-.845-.238-1.13-.692-.195-.312-.331-.708-.374-1.148l.085-.007 2.507-.207.093-.007c.029.417-.031.809-.158 1.138z" fill="#ce7872"/><path d="M24.396 17.078c-.278.422-.705.706-1.201.747s-.962-.17-1.306-.54l2.507-.207z" fill="#fff"/><path d="M24.331 18.208c-.202.525-.573.887-1.023.924-.434.036-.845-.238-1.13-.692a2.65 2.65 0 0 1 .384-.211c.386-.172.82-.247 1.237-.18.186.03.362.085.532.159z" fill="#ea8c8b"/><path d="M21.717 15.219c.011.342-.177.625-.418.631s-.445-.263-.455-.605.177-.625.418-.632.445.264.455.606z" class="E"/><path d="M21.401 15.021c-.141.004-.134.222.006.218s.134-.222-.006-.218z" fill="#fff"/><path d="M24.047 15.15c.01.342.214.612.455.605s.428-.29.418-.631-.214-.613-.455-.606-.429.29-.418.632z" class="E"/><path d="M24.613 14.86c-.14.004-.134.222.007.218s.134-.223-.007-.218z" fill="#fff"/><path d="M23.301 15.918a.4.4 0 0 0-.498.013l.389.673c.109-.006.198-.097.237-.198.067-.168.014-.377-.128-.488z" fill="#ce7872"/><path d="M19.861 15.955c-.642.044-1.133.503-1.097 1.025s.586.909 1.228.864 1.134-.504 1.097-1.026-.586-.908-1.228-.864zm6.181.316c-.02-.292-.328-.509-.689-.485s-.636.283-.616.575.329.51.689.485.636-.282.616-.576z" fill="#f9bfbb"/><path d="M12.782 32.616c-.488 2.074-.818 4.188-.988 6.312-.799-.546-1.689-1.036-2.582-1.519l.772-.586c.892-.742 1.67-1.649 2.125-2.717.221-.524.321-1.045.673-1.491z" fill="#000"/></g><path d="M19.404.221c-.057 0-.105-.045-.106-.103s.044-.108.103-.109L19.972 0c.059 0 .106.048.106.106s-.047.106-.106.106l-.565.009h-.003zm1.704.021h-.006L20.537.22c-.058-.002-.105-.05-.104-.109s.052-.108.11-.104l.57.023c.058.003.103.054.1.112s-.05.1-.106.1zm-2.838.044c-.054 0-.1-.041-.105-.096s.039-.11.097-.115l.569-.041c.061-.003.11.042.113.1s-.042.109-.1.112l-.563.04h-.01zm3.97.052l-.012-.001-.562-.055c-.058-.005-.101-.056-.097-.114s.057-.1.115-.097l.568.056c.058.006.1.058.094.117s-.052.095-.105.095zm-5.098.078c-.052 0-.098-.039-.105-.091s.032-.112.09-.12l.566-.073c.059-.007.111.035.118.094s-.035.11-.093.117l-.561.072-.015.002zm6.222.079l-.018-.002-.558-.086c-.058-.008-.098-.062-.09-.12s.062-.098.119-.09l.565.087c.058.01.096.065.086.123-.008.052-.053.088-.105.088zM16.022.61c-.049 0-.094-.035-.104-.085-.011-.058.025-.114.082-.125l.561-.105c.058-.01.113.029.123.086s-.029.113-.087.123l-.555.105-.021.002zm8.456.109c-.007 0-.016-.001-.024-.002l-.552-.119c-.057-.011-.095-.067-.083-.124s.067-.095.125-.084l.558.12c.058.013.093.07.08.128-.011.049-.055.082-.104.082zm-9.562.15c-.047 0-.09-.032-.103-.079-.015-.057.019-.115.076-.13l.555-.137c.057-.013.114.022.128.079s-.023.114-.08.128l-.548.136c-.009.002-.018.004-.027.004zm10.662.137c-.01 0-.02-.002-.03-.004L25.003.85c-.057-.015-.091-.072-.076-.129S25 .63 25.056.645l.551.152c.056.016.088.075.073.132-.014.046-.056.077-.102.077zm-11.752.184c-.044 0-.086-.029-.101-.073-.018-.056.012-.116.068-.134l.546-.17c.056-.016.115.016.132.072s-.016.115-.072.132l-.54.167c-.011.003-.021.006-.033.006zm12.835.166a.09.09 0 0 1-.035-.007l-.537-.182c-.056-.018-.087-.077-.068-.133s.077-.086.133-.068l.543.184c.055.02.084.081.065.136-.016.044-.057.071-.1.071zm-13.904.217c-.042 0-.082-.026-.099-.067-.021-.054.006-.116.06-.137l.535-.201c.055-.02.116.009.136.064s-.009.116-.064.136l-.529.198c-.012.005-.026.007-.039.007zm14.966.194c-.013 0-.027-.002-.041-.008l-.525-.212c-.054-.021-.081-.082-.06-.137s.082-.081.137-.061l.53.216c.054.022.08.085.057.139-.017.04-.056.064-.098.064zm-16.008.249c-.04 0-.078-.023-.096-.063-.025-.053-.001-.116.053-.141l.52-.23c.054-.023.117.002.139.056s-.002.117-.056.139l-.515.228c-.014.007-.03.01-.044.01zm17.044.224c-.016 0-.032-.003-.047-.011l-.512-.242c-.053-.025-.076-.087-.053-.141s.088-.077.141-.053l.518.244c.053.026.074.09.049.142-.019.038-.057.059-.095.059zm-18.06.277c-.038 0-.075-.021-.094-.057-.027-.052-.007-.116.044-.143l.507-.259c.053-.026.116-.005.143.048s.004.117-.049.142l-.501.257c-.016.008-.033.012-.05.012zm19.067.254c-.018 0-.035-.004-.053-.013l-.496-.272c-.052-.027-.072-.091-.044-.143s.091-.072.143-.044l.502.274c.051.029.069.093.04.144-.02.035-.055.054-.092.054zm-20.053.305c-.035 0-.071-.018-.091-.051-.03-.05-.015-.115.035-.146l.492-.288c.051-.029.115-.012.145.04s.011.116-.04.145l-.486.286c-.017.01-.036.015-.055.015zm21.027.282c-.02 0-.04-.006-.057-.017l-.481-.299c-.05-.03-.066-.095-.035-.146s.096-.067.146-.036l.485.302c.049.032.064.097.032.147-.021.032-.054.049-.09.049zM8.76 3.69c-.035 0-.068-.016-.088-.046-.033-.049-.021-.114.027-.147l.475-.316c.049-.032.115-.018.147.031s.017.115-.032.147l-.47.312c-.018.013-.039.019-.059.019zm22.919.309c-.021 0-.044-.007-.063-.02l-.462-.326c-.049-.033-.061-.1-.028-.147s.1-.061.147-.028l.468.329c.047.035.058.101.023.148-.021.029-.053.044-.086.044zm-23.836.36c-.032 0-.063-.014-.085-.041-.035-.047-.027-.114.02-.149l.456-.342c.047-.035.114-.025.148.023s.024.114-.023.148l-.452.339c-.019.015-.042.022-.064.022zm24.735.334c-.023 0-.047-.007-.067-.024l-.443-.352c-.046-.035-.055-.102-.019-.149s.102-.055.149-.019l.447.355c.045.037.053.105.015.15-.021.026-.051.039-.082.039zm-25.614.386c-.03 0-.059-.012-.08-.037-.039-.044-.034-.111.01-.15l.436-.368c.045-.037.113-.03.15.015s.03.113-.015.15l-.431.364c-.021.017-.045.026-.07.026zm26.474.359a.11.11 0 0 1-.072-.028l-.421-.376c-.044-.038-.049-.105-.011-.15s.105-.049.15-.011l.426.38c.043.04.046.106.007.15-.021.023-.05.035-.078.035zm-27.311.409c-.027 0-.055-.011-.076-.032-.041-.042-.04-.109.002-.15l.415-.393c.044-.04.11-.037.151.007s.036.11-.007.15l-.411.389c-.021.02-.047.03-.074.03zm28.126.382c-.028 0-.055-.011-.076-.032l-.4-.399c-.042-.041-.044-.108-.003-.151s.108-.043.15-.002l.404.403c.041.042.04.109-.002.15-.02.02-.048.03-.074.03zm-28.917.433c-.026 0-.051-.009-.072-.028-.044-.04-.046-.106-.007-.15l.392-.415c.041-.042.109-.044.151-.002s.043.108.002.15l-.388.411c-.021.023-.049.035-.078.035zm29.685.402c-.03 0-.059-.012-.08-.037l-.377-.421c-.039-.043-.037-.11.007-.15s.11-.037.15.006l.38.426c.039.044.034.111-.011.15-.02.017-.044.026-.069.026zm-30.429.457c-.024 0-.048-.008-.067-.024-.045-.038-.052-.105-.015-.15l.368-.437c.039-.044.105-.049.15-.011s.049.105.011.15l-.364.432c-.021.026-.052.04-.082.04zm31.149.421c-.031 0-.063-.014-.084-.041l-.352-.441c-.037-.046-.03-.113.015-.15s.112-.03.15.015l.355.446c.036.046.028.113-.019.149-.019.015-.042.022-.065.022zm-31.844.479c-.021 0-.043-.007-.062-.021-.048-.035-.058-.1-.024-.148l.342-.457c.036-.047.103-.055.149-.02s.055.103.02.149l-.339.453c-.021.029-.054.044-.086.044zm32.513.437c-.034 0-.067-.016-.088-.045l-.326-.461c-.035-.048-.024-.114.024-.148s.114-.025.148.023l.329.465c.033.049.021.114-.027.148-.018.012-.039.018-.06.018zm-33.155.501c-.02 0-.04-.006-.057-.016-.049-.032-.064-.098-.032-.147l.316-.476c.033-.049.099-.061.147-.028s.061.1.028.147l-.313.472c-.021.031-.054.049-.09.049zm33.77.452c-.035 0-.071-.018-.09-.051l-.3-.478c-.031-.049-.017-.115.032-.147s.115-.018.147.031l.302.483c.03.05.015.115-.035.146-.017.011-.036.016-.055.016zm-34.358.522c-.017 0-.035-.004-.052-.013-.051-.029-.069-.094-.04-.145l.288-.494c.03-.05.095-.067.147-.036s.066.095.035.146l-.286.489c-.019.035-.055.054-.092.054zm34.918.464c-.038 0-.075-.021-.094-.057l-.272-.494c-.029-.051-.011-.116.04-.145s.116-.011.145.04l.274.5c.027.052.007.116-.044.143-.016.009-.033.013-.049.013zm-35.448.542c-.016 0-.032-.003-.047-.011-.053-.026-.074-.09-.049-.142l.26-.51c.027-.052.091-.072.143-.044s.072.091.044.143l-.257.505c-.019.038-.057.059-.095.059zm35.951.473c-.04 0-.079-.023-.096-.062l-.243-.509c-.026-.053-.004-.116.049-.142s.116-.005.142.048l.245.514c.025.053.002.117-.052.142-.015.006-.03.009-.044.009zm-36.424.563c-.013 0-.027-.002-.041-.008-.054-.023-.079-.085-.056-.139l.23-.524c.025-.053.087-.077.141-.052s.077.087.053.14l-.228.519c-.016.041-.056.065-.098.065zm36.867.479c-.043 0-.082-.026-.099-.068l-.213-.521c-.022-.054.002-.116.057-.139s.116.002.139.056l.215.527c.021.055-.006.116-.06.137-.012.005-.026.008-.039.008zm-37.279.583c-.012 0-.024-.002-.035-.006-.055-.02-.084-.081-.064-.136l.199-.537c.021-.054.083-.082.137-.061s.082.083.061.137l-.198.532c-.016.044-.057.07-.1.07zm37.663.487c-.044 0-.087-.028-.101-.073l-.183-.534c-.02-.055.009-.116.064-.136s.116.009.136.064l.185.54c.018.056-.012.116-.068.134-.011.003-.022.005-.033.005zM.901 14.52c-.01 0-.021-.002-.03-.005-.056-.016-.088-.075-.072-.132l.168-.546c.018-.055.077-.086.133-.068s.086.078.068.134l-.166.54c-.013.046-.055.077-.101.077zm38.335.493c-.048 0-.09-.031-.103-.079l-.152-.544c-.016-.057.016-.115.072-.133s.116.016.133.072l.153.55c.016.057-.019.114-.075.129-.009.002-.018.004-.027.004zm-38.622.606c-.007 0-.016-.001-.024-.002-.057-.014-.093-.071-.08-.128l.137-.555c.015-.057.072-.091.129-.076s.091.072.076.129l-.134.549c-.012.049-.055.082-.104.082zm38.88.5c-.049 0-.094-.035-.104-.085l-.12-.551c-.014-.058.021-.114.079-.128s.114.022.128.079l.122.558c.011.058-.026.114-.083.125l-.021.002zm-39.103.614l-.018-.002c-.058-.01-.096-.065-.086-.123l.104-.561c.012-.058.068-.095.125-.083s.095.068.083.125l-.103.556c-.009.051-.054.088-.105.088zm39.298.505c-.053 0-.098-.038-.105-.091l-.089-.557c-.01-.058.029-.113.087-.123s.113.029.123.086l.089.565c.009.058-.031.112-.09.12l-.015.001zm-39.457.619l-.012-.001c-.058-.007-.1-.059-.094-.117l.072-.566c.008-.058.062-.098.119-.09s.099.062.091.12l-.071.56c-.007.054-.053.095-.105.095zm39.587.509c-.054 0-.101-.042-.106-.097l-.057-.562c-.007-.058.035-.111.094-.118s.111.035.118.094l.057.568c.006.059-.038.11-.096.114l-.009.001zM.137 18.99H.131c-.058-.003-.104-.053-.1-.112l.04-.57c.005-.058.057-.1.115-.097s.102.057.097.115l-.04.563c-.003.057-.05.1-.106.1zm39.748.512c-.058 0-.105-.046-.106-.104l-.025-.565c-.003-.058.041-.109.1-.112s.109.041.112.1l.026.57c.002.058-.044.107-.103.109l-.003.001zm-39.779.624c-.058 0-.106-.048-.106-.106V20l.007-.552c.002-.058.049-.107.109-.103s.105.05.104.109L.212 20v.019c0 .058-.048.106-.106.106zm39.779.549h-.002c-.059-.002-.105-.051-.104-.11l.008-.565v-.038c0-.058.048-.106.106-.106s.106.048.106.106V20l-.008.57c-.002.058-.049.104-.106.104zm-39.746.586c-.056 0-.103-.044-.106-.101l-.025-.57c-.002-.058.044-.107.104-.109h.002c.058 0 .105.045.106.103l.025.565c.003.058-.042.109-.1.112H.139zm39.683.548h-.009c-.058-.005-.102-.056-.097-.114l.039-.564c.003-.058.054-.101.112-.1s.104.054.1.112l-.04.57c-.004.056-.051.097-.105.097zm-39.586.584c-.053 0-.099-.04-.105-.095l-.057-.568c-.005-.059.039-.11.097-.114s.109.038.114.096l.057.562c.007.058-.035.111-.094.118l-.012.001zm39.457.544l-.015-.001c-.058-.008-.098-.062-.091-.12l.073-.56c.007-.059.058-.101.117-.094s.1.059.094.118l-.072.566c-.007.053-.053.091-.105.091zm-39.297.581c-.05 0-.095-.036-.105-.088l-.089-.564c-.008-.058.032-.112.091-.12s.111.031.12.09l.088.558c.01.058-.029.113-.087.123l-.018.002zm39.105.539l-.021-.002c-.058-.012-.095-.067-.083-.125l.104-.556c.01-.058.066-.096.123-.086s.096.065.086.123l-.105.561c-.01.05-.054.085-.104.085zm-38.88.574c-.048 0-.091-.033-.103-.082l-.122-.557c-.012-.058.026-.114.083-.125s.114.025.125.082l.12.552c.013.057-.022.114-.079.128-.008.002-.016.002-.025.002zm38.623.533c-.009 0-.017-.002-.026-.003-.057-.015-.091-.073-.077-.13l.136-.548c.013-.058.07-.093.128-.08s.092.071.079.128l-.137.554c-.012.048-.055.08-.103.08zm-38.334.566c-.045 0-.088-.03-.101-.076l-.153-.55c-.016-.057.019-.115.076-.13s.114.019.129.076l.151.544c.016.057-.016.115-.072.133-.01.002-.02.004-.03.004zm38.014.524c-.011 0-.021-.002-.033-.005-.055-.018-.086-.078-.068-.134l.167-.539c.017-.057.076-.089.132-.072s.089.076.072.132l-.169.546c-.015.045-.056.073-.101.073zm-37.662.556c-.044 0-.085-.027-.1-.071l-.184-.54c-.018-.056.012-.116.068-.134s.115.012.133.068l.183.535c.02.055-.009.115-.064.135-.012.005-.024.007-.035.007zm37.279.518c-.013 0-.026-.002-.039-.007-.054-.021-.081-.082-.06-.138l.198-.531c.02-.055.081-.084.136-.064s.084.081.064.136l-.2.537c-.016.042-.056.067-.099.067zm-36.867.538c-.041 0-.081-.024-.098-.064l-.215-.528c-.021-.054.006-.116.061-.137s.116.006.137.06l.212.522c.022.054-.002.116-.057.139-.013.006-.027.008-.041.008zm36.423.51c-.015 0-.031-.002-.045-.009-.053-.025-.076-.088-.053-.141l.229-.519c.022-.054.085-.079.139-.057s.079.086.056.139l-.23.524c-.018.039-.056.062-.096.062zm-35.952.52c-.039 0-.077-.021-.095-.059l-.244-.514c-.025-.053-.001-.116.053-.141s.116-.001.141.053l.242.509c.026.053.004.116-.049.142-.015.007-.031.011-.047.011zm35.448.502c-.017 0-.034-.004-.049-.012-.052-.028-.072-.092-.044-.144l.258-.504c.026-.053.09-.074.142-.049s.074.09.048.142l-.26.51c-.019.036-.056.057-.094.057zm-34.918.5c-.037 0-.073-.02-.092-.054l-.274-.5c-.027-.052-.007-.116.044-.143s.116-.007.143.044l.271.494c.029.051.011.116-.04.145-.016.009-.034.014-.052.014zm34.357.49c-.019 0-.038-.004-.055-.015-.05-.03-.066-.095-.035-.146l.286-.489c.029-.05.094-.068.145-.04s.069.094.04.145l-.29.493c-.02.033-.054.051-.091.051zm-33.77.481c-.035 0-.069-.017-.09-.049l-.301-.483c-.03-.05-.015-.115.035-.146s.115-.014.146.036l.299.478c.032.049.018.114-.031.146-.018.012-.038.017-.058.017zm33.154.476c-.021 0-.042-.007-.06-.019-.049-.033-.061-.099-.028-.147l.314-.471c.031-.049.097-.063.147-.032s.063.098.032.147l-.317.477c-.021.03-.053.046-.087.046zm-32.513.459c-.033 0-.065-.015-.086-.044l-.328-.466c-.034-.048-.021-.114.027-.147s.114-.021.147.028l.326.46c.035.048.024.114-.023.149a.11.11 0 0 1-.063.02zm31.843.459c-.022 0-.045-.007-.065-.022-.046-.035-.054-.102-.019-.149l.34-.452c.034-.048.1-.058.148-.023s.058.1.023.148l-.343.457c-.021.027-.052.041-.084.041zM4.6 32.701c-.031 0-.062-.013-.082-.039l-.356-.446c-.035-.047-.027-.114.02-.149s.113-.028.149.019l.351.442c.037.045.03.112-.015.149-.02.017-.044.024-.067.024zm30.429.441c-.025 0-.049-.008-.069-.026-.044-.039-.049-.106-.011-.15l.365-.432c.037-.045.104-.053.149-.015s.052.104.015.149l-.368.437c-.021.024-.051.036-.081.036zm-29.685.417c-.029 0-.057-.012-.078-.034l-.38-.426c-.039-.044-.034-.111.01-.15s.112-.034.15.011l.376.421c.04.044.037.11-.007.15-.02.019-.046.028-.072.028zm28.917.419c-.026 0-.053-.01-.074-.03-.042-.041-.043-.109-.002-.151l.388-.41c.04-.044.107-.046.151-.007s.046.107.006.15l-.392.415c-.02.021-.048.032-.076.032zm-28.125.396c-.027 0-.054-.01-.074-.03l-.403-.403c-.041-.042-.04-.11.002-.151s.109-.04.151.002l.399.399c.042.041.043.108.002.151-.021.021-.048.032-.076.032zm27.309.396c-.028 0-.057-.011-.078-.035-.04-.044-.036-.11.007-.15l.411-.388c.042-.041.109-.04.151.002s.04.109-.002.151l-.415.392a.11.11 0 0 1-.073.028zm-26.473.372c-.024 0-.049-.008-.069-.025l-.426-.381c-.043-.04-.046-.106-.006-.15s.106-.046.15-.006l.421.376c.044.038.049.105.011.15-.021.024-.05.036-.081.036zm25.615.371c-.031 0-.061-.013-.082-.039-.037-.046-.03-.113.015-.15l.432-.364c.044-.038.111-.034.15.011s.034.112-.011.15l-.436.368a.11.11 0 0 1-.067.024zm-24.735.349c-.023 0-.045-.007-.065-.022l-.447-.356c-.045-.037-.052-.105-.015-.15s.104-.052.149-.015l.443.352c.046.035.054.102.019.149-.021.026-.053.041-.084.041zm23.837.344c-.033 0-.065-.015-.086-.044-.034-.048-.024-.114.024-.148l.452-.338c.046-.036.113-.028.148.019s.028.113-.019.149l-.456.342c-.019.014-.041.021-.063.021zM8.77 36.53c-.021 0-.041-.006-.059-.018l-.467-.33c-.048-.035-.058-.1-.024-.148s.101-.058.148-.023l.462.326c.049.033.061.1.028.147-.021.03-.054.046-.088.046zm21.983.317c-.035 0-.069-.017-.09-.049-.031-.049-.017-.114.032-.146l.47-.312c.048-.033.114-.021.147.028s.021.114-.027.147l-.475.315c-.018.011-.038.017-.058.017zm-21.026.299c-.018 0-.037-.005-.054-.015l-.486-.303c-.049-.031-.063-.097-.031-.146s.097-.063.147-.032l.48.3c.05.03.067.096.036.146-.02.033-.055.051-.091.051zm20.056.287c-.037 0-.073-.02-.093-.054-.029-.051-.011-.116.04-.145l.486-.284c.05-.03.116-.015.146.035s.014.116-.036.147l-.492.287c-.016.009-.034.014-.052.014zm-19.065.273c-.017 0-.034-.004-.049-.012l-.501-.274c-.051-.029-.069-.094-.04-.145s.094-.069.145-.04l.496.272c.052.027.072.091.044.143-.02.036-.056.057-.095.057zm18.063.256c-.04 0-.077-.021-.096-.059-.026-.053-.004-.116.049-.142l.501-.256c.052-.027.116-.007.144.044s.007.116-.044.143l-.507.259c-.016.007-.031.011-.047.011zm-17.042.247c-.015 0-.03-.003-.044-.01l-.518-.245c-.052-.026-.074-.09-.048-.142s.09-.074.142-.048l.512.243c.053.024.077.087.053.14-.018.04-.057.063-.097.063zm16.012.225c-.042 0-.082-.025-.098-.065-.023-.054.003-.116.056-.139l.515-.227c.053-.024.117-.001.141.053s.001.116-.052.141l-.521.229c-.014.006-.028.009-.041.009zm-14.963.218c-.013 0-.026-.002-.039-.007l-.531-.216c-.053-.023-.079-.085-.056-.139s.085-.079.139-.057l.524.213c.055.021.082.083.061.138-.016.042-.057.068-.099.068zm13.906.193c-.044 0-.085-.027-.101-.07-.02-.055.009-.116.065-.136l.529-.198c.054-.021.116.005.137.06s-.006.116-.061.137l-.535.2c-.012.004-.024.006-.035.006zm-12.832.189c-.011 0-.022-.002-.033-.005l-.543-.184c-.055-.02-.084-.081-.064-.136s.08-.084.136-.064l.536.182c.056.018.086.078.069.134-.015.044-.057.073-.101.073zm11.752.162c-.046 0-.089-.031-.102-.077-.016-.056.016-.115.072-.132l.54-.167c.056-.018.116.012.134.068s-.012.116-.068.134l-.546.169c-.01.002-.02.004-.03.004zm-10.662.157c-.008 0-.017-.002-.026-.004l-.551-.152c-.056-.017-.089-.076-.072-.132s.076-.088.133-.072l.544.151c.057.015.091.073.076.129-.012.048-.055.08-.103.08zm9.563.131c-.049 0-.092-.033-.104-.081-.013-.058.022-.114.08-.127l.548-.136c.057-.015.114.019.129.076s-.019.114-.075.13l-.555.137c-.008.002-.016.002-.024.002zm-8.456.124l-.021-.002-.558-.121c-.057-.013-.092-.07-.079-.128s.069-.092.127-.079l.552.119c.058.011.095.067.083.125-.01.05-.054.085-.104.085zm7.342.1c-.05 0-.096-.036-.105-.088-.01-.058.029-.113.086-.123l.556-.104c.057-.011.114.026.125.083s-.026.114-.083.125l-.561.105-.018.001zm-6.222.091l-.015-.001-.564-.088c-.059-.01-.097-.065-.087-.123s.065-.097.123-.087l.558.087c.058.008.099.063.091.12s-.054.091-.105.091zm5.098.07c-.053 0-.099-.04-.105-.095s.035-.11.094-.117l.56-.072c.058-.008.112.032.12.091s-.032.112-.09.12l-.566.072-.012.001zm-3.969.058h-.009l-.568-.056c-.058-.007-.1-.059-.094-.118s.06-.1.118-.094l.562.056c.058.005.102.056.097.114s-.051.097-.106.097zm2.838.039c-.056 0-.102-.044-.105-.1s.041-.109.1-.112l.564-.04c.057-.007.11.038.114.096s-.038.11-.096.115l-.57.04h-.007zm-1.703.025h-.003l-.57-.024c-.058-.003-.103-.053-.1-.112s.053-.103.112-.1l.564.024c.058.002.105.05.104.109s-.049.103-.106.103zm.568.007c-.058 0-.106-.048-.106-.106s.048-.106.106-.106l.565-.008c.058-.005.108.044.109.104s-.044.107-.104.109l-.57.008z" fill="#fbb03b" class="B"/></svg>