<svg width="194" height="202" viewBox="0 0 194 202" fill="none" xmlns="http://www.w3.org/2000/svg">
<mask id="mask0" mask-type="alpha" maskUnits="userSpaceOnUse" x="6" y="6" width="182" height="190">
<path fill-rule="evenodd" clip-rule="evenodd" d="M187.58 101.115C187.58 153.154 147.064 195.337 97.0903 195.337C47.1121 195.337 6.6001 153.154 6.6001 101.115C6.6001 49.0801 47.1121 6.89331 97.0903 6.89331C147.064 6.89331 187.58 49.0801 187.58 101.115" fill="white"/>
</mask>
<g mask="url(#mask0)">
<path fill-rule="evenodd" clip-rule="evenodd" d="M187.58 101.115C187.58 153.154 147.064 195.337 97.0903 195.337C47.1121 195.337 6.6001 153.154 6.6001 101.115C6.6001 49.0801 47.1121 6.89331 97.0903 6.89331C147.064 6.89331 187.58 49.0801 187.58 101.115" fill="#FCE3C3"/>
<path fill-rule="evenodd" clip-rule="evenodd" d="M227.389 325.755C225.169 319.964 222.945 314.173 220.725 308.378C218.593 302.824 216.733 298.035 213.93 292.801C212.776 290.652 211.207 287.838 209.902 285.701C203.662 273.749 197.421 261.797 191.177 249.846C187.228 242.284 183.28 234.722 179.331 227.16C176.736 222.192 174.137 217.208 172.161 211.945C169.713 205.418 168.252 198.542 166.93 191.67C165.952 186.62 165.042 181.539 164.064 176.48C161.217 177.798 158.375 179.128 155.548 180.5C149.487 183.443 143.459 186.511 137.366 189.409C141.981 203.439 147.024 217.254 153.975 230.174C166.387 253.263 184.793 271.446 199.797 292.801C200.34 293.575 200.1 295.894 200.152 296.88C200.316 300.076 200.06 303.265 200.436 306.449C200.815 309.671 201.534 312.847 202.572 315.903C203.043 317.287 204.324 318.559 205.682 317.316C205.806 317.237 205.921 317.142 206.029 317.013C207.375 315.529 207.383 313.496 207.295 311.583C207.199 309.401 207.307 307.335 208.221 305.335C208.469 304.795 208.888 304.283 209.451 304.171C209.794 304.096 210.149 304.188 210.485 304.3C211.603 304.699 212.449 305.423 213.132 306.316C213.491 306.782 213.81 307.297 214.094 307.838C214.369 308.349 214.617 308.877 214.857 309.409C215.152 310.074 215.431 310.74 215.727 311.367C215.783 311.5 215.843 311.625 215.907 311.75C215.958 311.862 216.018 311.978 216.07 312.095C216.43 312.835 216.789 313.571 217.148 314.315C217.799 315.662 218.45 317.008 219.105 318.36C219.671 319.532 220.242 320.708 220.809 321.885C221.807 323.938 222.873 326.242 224.658 327.697C225.992 328.786 228.12 327.667 227.389 325.755" fill="#FFCFCA"/>
<path fill-rule="evenodd" clip-rule="evenodd" d="M60.8584 140.716C40.9438 140.712 21.8716 206.195 21.3845 207.043C20.9693 207.771 -18.6483 268.507 -18.7641 268.652C-18.7641 268.652 -32.2109 282.741 -35.4967 286.977C-37.7126 289.849 -40.0282 292.818 -41.4456 296.21C-42.9467 299.802 -43.865 303.589 -44.8472 307.359C-45.0029 307.95 -45.1586 308.557 -45.0907 309.164C-44.963 310.257 -43.8091 311.209 -42.7551 310.71C-40.4674 309.642 -39.6809 306.52 -39.0101 304.25C-38.3873 302.134 -37.8763 299.968 -36.9181 297.985C-35.9798 296.031 -34.5625 294.597 -32.8816 293.3C-31.6719 292.36 -30.5061 291.383 -29.2684 290.473C-28.8013 290.124 -28.3062 289.775 -27.7872 289.5C-27.0845 289.122 -26.3339 288.872 -25.5434 288.935C-24.8846 288.989 -23.9264 289.317 -23.5392 289.924C-23.116 290.581 -23.5791 291.358 -23.8426 291.97C-24.166 292.697 -24.6291 293.341 -25.1082 293.969C-25.9267 295.029 -26.8809 296.077 -27.376 297.345C-27.4638 297.561 -27.5357 297.781 -27.5916 298.01C-28.1944 300.438 -26.4297 303.942 -23.8226 301.743C-23.2597 301.273 -22.8245 300.666 -22.3853 300.076C-20.2853 297.262 -17.5983 294.896 -16.0213 291.716C-15.0112 289.691 -14.2246 287.563 -13.4461 285.439C-11.9849 281.473 -11.354 279.082 -11.0746 277.183L-11.0706 277.174L-11.0266 277.099C-10.7152 276.846 25.3571 243.173 46.6132 213C51.5958 205.929 63.8049 178.114 69.7138 157.926C70.9315 153.765 64.5755 144.732 60.8584 140.716" fill="#FFCFCA"/>
<path fill-rule="evenodd" clip-rule="evenodd" d="M89.5711 94.0313C95.5918 97.2323 101.724 100.196 107.897 103.077C109.753 103.942 111.63 104.811 113.622 105.243L114.389 127.027C114.025 127.276 113.638 127.484 113.239 127.659C111.414 132.481 106.907 135.894 101.624 135.894C95.9432 135.894 91.1521 131.94 89.643 126.532C89.5272 126.495 89.4154 126.457 89.2996 126.424C89.2996 125.917 89.2956 125.409 89.2956 124.902C89.1958 124.25 89.1439 123.58 89.1439 122.899C89.1439 122.258 89.1918 121.631 89.2797 121.011C89.2757 120.138 89.2717 119.261 89.2677 118.384C89.2557 115.033 89.2397 111.678 88.9044 108.344C88.8006 107.322 88.6728 106.303 88.5131 105.289C88.1378 102.765 87.6268 100.263 87.1157 97.7603C86.6925 95.7025 86.2733 93.6405 85.8501 91.5869C87.0319 92.7052 88.1418 93.2706 89.5711 94.0313" fill="#FFCFCA"/>
<path fill-rule="evenodd" clip-rule="evenodd" d="M126.059 73.8396C125.42 81.9918 122.002 89.9153 116.413 95.6605C113.854 98.2878 110.843 100.47 107.497 101.826C103.82 103.314 99.8119 103.779 95.8753 103.567C93.5477 103.439 91.204 103.073 89.0721 102.108C86.5129 100.948 84.3729 98.9862 82.3806 96.9534C78.975 93.4738 75.8369 89.6659 73.5053 85.33C71.1776 80.9982 69.6804 76.1094 69.6964 71.1416C69.7004 69.458 69.8841 67.7452 70.5109 66.1905C71.3453 64.1202 72.8984 62.4657 74.4914 60.9566C79.7575 55.9597 85.9339 51.8691 92.7971 49.8861C99.8957 47.8366 107.394 48.111 114.752 48.4062C116.616 48.4768 118.317 48.8593 119.814 50.0773C121.036 51.0709 121.707 52.7545 122.378 54.1721C124.222 58.0799 125.436 62.316 125.927 66.6436C126.198 69.0298 126.246 71.4451 126.059 73.8396" fill="#534741"/>
<path fill-rule="evenodd" clip-rule="evenodd" d="M114.033 116.975C107.146 115.374 100.479 112.755 94.3861 109.072C92.4457 107.904 90.4335 106.648 88.5131 105.289C88.1378 102.765 87.6268 100.263 87.1157 97.7603C86.6925 95.7025 86.2733 93.6405 85.8501 91.5869C87.0319 92.7052 88.1418 93.2706 89.5711 94.0313C95.5918 97.2323 101.724 100.196 107.897 103.077C109.753 103.942 111.63 104.811 113.622 105.243L114.033 116.975" fill="#F9BFBB"/>
<path fill-rule="evenodd" clip-rule="evenodd" d="M125.238 70.0022C124.807 68.1896 124.28 66.4021 123.669 64.6644C121.748 59.1811 118.187 54.1343 113.448 50.7961C104.341 44.3941 91.6209 45.9614 84.2786 54.3879C82.5379 56.3833 81.1246 58.6698 80.1264 61.1267C77.6551 67.1587 77.5233 73.648 78.8728 79.8962C80.0546 85.4252 82.3942 90.763 85.2768 95.4439C87.0534 98.3165 89.1096 101.027 91.549 103.363C92.9424 104.698 94.4835 105.907 96.1244 106.93C99.4182 108.992 103.135 110.318 106.992 110.451C110.477 110.568 114.027 109.611 116.969 107.703C120.287 105.546 122.291 102.228 123.733 98.5867C127.27 89.6114 127.482 79.3932 125.238 70.0022" fill="#FFCFCA"/>
<path fill-rule="evenodd" clip-rule="evenodd" d="M86.8766 93.5281C83.5628 95.2533 79.3707 95.0039 76.2925 92.8463C73.6933 91.0296 71.9965 87.9118 71.757 84.6692C71.7171 84.0789 71.7211 83.4886 71.7769 82.8941C71.8768 81.859 72.1323 80.8321 72.6034 79.9176C73.7852 77.6602 76.3524 76.33 78.8077 76.5337C81.2711 76.7457 83.5349 78.4002 84.7087 80.6617L86.8766 93.5281" fill="#FFCFCA"/>
<path fill-rule="evenodd" clip-rule="evenodd" d="M97.2613 63.1645C102.823 62.0753 108.396 60.7824 113.663 58.7288C117.942 57.0659 122.678 53.8608 123.823 49.0426C125.257 43.0106 120.39 38.3879 115.543 36.0225C106.085 31.408 94.3907 32.2228 85.7549 38.4419C80.5127 42.2125 76.5681 47.8288 74.7555 54.0936C73.7175 57.6895 73.2863 63.1271 77.3507 64.7941C82.0738 66.7355 87.9148 64.9146 92.7098 64.0292C94.219 63.7465 95.7401 63.4638 97.2613 63.1645" fill="#534741"/>
<path fill-rule="evenodd" clip-rule="evenodd" d="M65.3253 64.4281C65.8084 60.6992 67.3894 57.2529 70.3079 55.3198C74.544 52.5137 80.956 53.3036 83.5311 58.1051C85.212 61.2396 85.2399 65.2346 84.7808 68.7058C84.5692 70.3271 84.158 71.9484 83.3235 73.3535C82.7646 74.2972 80.8721 76.7333 79.6105 76.5421C79.1873 76.4755 78.7481 76.4173 78.3848 76.3882C78.3129 76.3799 78.2411 76.3758 78.1692 76.3758C76.8756 76.3799 75.6699 76.7208 74.552 77.3943C73.7175 77.864 73.0468 78.5042 72.5437 79.3149C70.9547 81.1232 68.5632 78.0012 67.7208 76.6834C65.6846 73.4907 64.7584 68.7682 65.3253 64.4281" fill="#534741"/>
<path fill-rule="evenodd" clip-rule="evenodd" d="M148.071 199.938C148.019 199.959 147.971 199.988 147.919 200.009C149.444 226.535 150.334 279.435 152.283 301.767C122.551 299.859 78.5372 301.597 52.3943 298.288C51.6876 284.677 52.3863 252.493 55.9875 209.903C56.3389 205.72 56.7461 201.426 57.2132 197.036C57.2292 196.899 57.2412 196.766 57.2572 196.625L57.2013 196.587C53.3285 193.831 49.0086 191.353 44.6768 188.917C38.6441 185.525 32.5915 182.22 27.6647 178.375C27.2335 178.034 33.386 167.038 33.6535 166.46C42.0457 148.26 56.5385 128.971 76.4891 124.519C77.6629 124.257 89.1373 122.898 89.1573 122.357C89.1533 122.536 89.1493 122.715 89.1493 122.898C89.1493 130.077 94.7348 135.893 101.63 135.893C108.521 135.893 114.106 130.077 114.106 122.898C114.106 122.723 114.102 122.548 114.094 122.378C124.559 124.594 134.544 129.512 142.645 136.687C150.007 143.205 155.864 151.495 159.729 160.707C160.447 162.411 161.11 164.141 161.737 165.887C164.328 173.145 166.344 180.607 168.516 188.003C165.905 190.011 163.027 191.944 159.988 193.769C156.199 196.043 152.155 198.138 148.071 199.938" fill="#150F84"/>
<path fill-rule="evenodd" clip-rule="evenodd" d="M147.743 175.557C148.202 183.676 147.647 191.824 148.07 199.939C152.155 198.135 156.195 196.044 159.988 193.77C158.155 191.774 156.566 189.529 155.281 187.102C152.207 181.298 150.937 174.684 149.24 168.299C147.539 161.909 145.34 155.823 140.744 151.229C145.519 158.226 147.256 166.998 147.743 175.557" fill="black"/>
<path fill-rule="evenodd" clip-rule="evenodd" d="M100.508 68.6554C101.003 68.6013 101.498 68.6429 101.993 68.6845C102.864 68.7593 103.738 68.8341 104.612 68.909C104.9 68.9339 105.263 68.9173 105.391 68.6429C105.451 68.5099 105.431 68.3478 105.375 68.2106C105.163 67.6826 104.544 67.508 104.001 67.4332C102.66 67.2586 101.239 67.3542 99.981 67.9071C99.7335 68.0152 98.3281 68.6845 98.4279 69.0295C98.5158 69.333 100.229 68.6845 100.508 68.6554" fill="#211A17"/>
<path fill-rule="evenodd" clip-rule="evenodd" d="M119.555 68.0402C119.06 68.0235 118.569 68.1025 118.078 68.1815C117.211 68.3228 116.345 68.4642 115.483 68.6055C115.195 68.6513 114.832 68.6637 114.688 68.4018C114.616 68.2688 114.624 68.1067 114.668 67.9653C114.844 67.4249 115.451 67.2004 115.986 67.0882C117.311 66.8096 118.736 66.7972 120.03 67.2545C120.282 67.3418 121.735 67.903 121.659 68.2522C121.591 68.564 119.838 68.0485 119.555 68.0402" fill="#211A17"/>
<path fill-rule="evenodd" clip-rule="evenodd" d="M118.003 91.9522C117.024 94.6045 115.224 96.4336 113.04 96.6207C110.936 96.8036 108.94 95.4193 107.558 93.1245C106.612 91.549 105.953 89.5494 105.746 87.3253L106.157 87.2879L118.318 86.2444L118.769 86.207C118.909 88.3106 118.617 90.2935 118.003 91.9522" fill="#CE7872"/>
<path fill-rule="evenodd" clip-rule="evenodd" d="M118.319 86.2446C116.969 88.3731 114.901 89.8073 112.494 90.0152C110.086 90.223 107.827 89.1588 106.158 87.2881L118.319 86.2446" fill="white"/>
<path fill-rule="evenodd" clip-rule="evenodd" d="M118.003 91.9515C117.025 94.6037 115.225 96.4329 113.041 96.6199C110.937 96.8029 108.94 95.4185 107.559 93.1238C108.154 92.7164 108.773 92.3589 109.424 92.0596C111.296 91.1907 113.4 90.8124 115.424 91.1491C116.327 91.2988 117.181 91.5773 118.003 91.9515" fill="#EA8C8B"/>
<path fill-rule="evenodd" clip-rule="evenodd" d="M105.326 76.8583C105.378 78.5835 104.468 80.0135 103.298 80.0468C102.128 80.0842 101.142 78.7165 101.09 76.9913C101.043 75.2619 101.949 73.836 103.119 73.7986C104.288 73.7612 105.279 75.133 105.326 76.8583" fill="#211A17"/>
<path fill-rule="evenodd" clip-rule="evenodd" d="M103.793 75.8553C103.11 75.8761 103.142 76.9777 103.825 76.9569C104.507 76.9361 104.475 75.8345 103.793 75.8553" fill="white"/>
<path fill-rule="evenodd" clip-rule="evenodd" d="M116.63 76.505C116.678 78.2302 117.668 79.5979 118.838 79.5605C120.008 79.523 120.914 78.0971 120.866 76.3719C120.814 74.6426 119.828 73.2749 118.658 73.3123C117.488 73.3497 116.578 74.7756 116.63 76.505" fill="#211A17"/>
<path fill-rule="evenodd" clip-rule="evenodd" d="M119.373 75.0409C118.694 75.0617 118.722 76.1634 119.404 76.1426C120.087 76.1218 120.055 75.016 119.373 75.0409" fill="white"/>
<path fill-rule="evenodd" clip-rule="evenodd" d="M113.009 80.3835C112.318 79.8223 111.244 79.8389 110.593 80.45L112.482 83.8505C113.009 83.8173 113.44 83.36 113.632 82.8487C113.955 82.0006 113.699 80.9447 113.009 80.3835" fill="#CE7872"/>
<path fill-rule="evenodd" clip-rule="evenodd" d="M96.3277 80.5747C93.2136 80.7992 90.83 83.1147 91.0057 85.7504C91.1814 88.386 93.8484 90.3399 96.9625 90.1154C100.077 89.8909 102.46 87.5712 102.285 84.9356C102.109 82.2999 99.4419 80.3502 96.3277 80.5747" fill="#F9BFBB"/>
<path fill-rule="evenodd" clip-rule="evenodd" d="M126.303 82.1709C126.208 80.6951 124.71 79.5976 122.962 79.7223C121.213 79.8512 119.875 81.1524 119.975 82.6282C120.075 84.1081 121.572 85.2056 123.317 85.0767C125.066 84.952 126.403 83.6508 126.303 82.1709" fill="#F9BFBB"/>
<path fill-rule="evenodd" clip-rule="evenodd" d="M61.9915 164.711C59.624 175.187 58.023 185.858 57.2005 196.588C53.3278 193.832 49.0079 191.354 44.676 188.918C45.9616 187.987 47.2113 187.001 48.421 185.958C52.7489 182.212 56.5218 177.631 58.7297 172.239C59.8036 169.595 60.2867 166.964 61.9915 164.711" fill="black"/>
</g>
<path fill-rule="evenodd" clip-rule="evenodd" d="M94.1069 1.11827C93.8314 1.11827 93.5998 0.88963 93.5919 0.59863C93.5839 0.299315 93.8075 0.0540429 94.0909 0.0457286C95.0092 0.0166286 95.9395 0.00415715 96.8617 0C97.1452 0 97.3768 0.241115 97.3768 0.536272C97.3768 0.83143 97.1492 1.07254 96.8617 1.07254C95.9514 1.0767 95.0292 1.08917 94.1229 1.11827H94.1069ZM102.372 1.22652H102.344C101.43 1.17248 100.508 1.13506 99.6056 1.11012C99.3221 1.1018 99.0946 0.856533 99.1025 0.561375C99.1105 0.26206 99.3541 0.0167886 99.6335 0.0375743C100.544 0.0625172 101.478 0.104089 102.4 0.153974C102.684 0.170603 102.899 0.424189 102.887 0.719347C102.871 1.00619 102.644 1.22652 102.372 1.22652ZM88.6056 1.44842C88.3421 1.44842 88.1186 1.24056 88.0946 0.962031C88.0707 0.662716 88.2823 0.404973 88.5657 0.38003C89.488 0.296887 90.4182 0.226215 91.3245 0.172172C91.62 0.155544 91.8555 0.384187 91.8715 0.679345C91.8875 0.974502 91.6679 1.22809 91.3844 1.24472C90.4861 1.29876 89.5678 1.36527 88.6536 1.44842H88.6056ZM107.862 1.70829L107.802 1.70414C106.903 1.60021 105.985 1.50459 105.075 1.42561C104.791 1.40066 104.584 1.14292 104.604 0.847764C104.628 0.552606 104.879 0.340592 105.163 0.35722C106.081 0.436206 107.007 0.53182 107.917 0.639906C108.201 0.669006 108.405 0.935064 108.373 1.23022C108.345 1.50459 108.121 1.70829 107.862 1.70829ZM83.1361 2.10322C82.8846 2.10322 82.661 1.90784 82.6251 1.64178C82.5852 1.35078 82.7808 1.07641 83.0603 1.03483C83.9785 0.897649 84.9048 0.772934 85.8071 0.664848C86.0946 0.631591 86.3461 0.843606 86.378 1.13876C86.41 1.43392 86.2064 1.69582 85.9269 1.72908C85.0326 1.83716 84.1183 1.96188 83.208 2.09491L83.1361 2.10322ZM113.315 2.50274L113.227 2.49443C112.337 2.33645 111.423 2.19095 110.52 2.05793C110.241 2.01635 110.045 1.74614 110.085 1.45098C110.125 1.15998 110.385 0.956281 110.664 0.997853C111.578 1.13088 112.501 1.28054 113.403 1.43851C113.682 1.4884 113.87 1.76693 113.822 2.05793C113.782 2.31983 113.563 2.50274 113.315 2.50274ZM77.7066 3.08064C77.467 3.08064 77.2514 2.90604 77.2035 2.65246C77.1476 2.36146 77.3273 2.07877 77.6028 2.02057C78.5011 1.82934 79.4193 1.65058 80.3256 1.48846C80.6091 1.43857 80.8726 1.63396 80.9205 1.92496C80.9684 2.21596 80.7808 2.49449 80.5013 2.54437C79.603 2.7065 78.6967 2.88526 77.8104 3.07233L77.7066 3.08064ZM118.718 3.62911C118.682 3.62911 118.642 3.62496 118.602 3.61664C117.715 3.40463 116.817 3.20093 115.923 3.01386C115.647 2.95981 115.464 2.67713 115.52 2.38613C115.575 2.09513 115.847 1.9039 116.126 1.9621C117.029 2.15333 117.939 2.35703 118.833 2.56904C119.113 2.63556 119.284 2.9224 119.221 3.2134C119.165 3.46283 118.953 3.62911 118.718 3.62911ZM72.34 4.38584C72.1124 4.38584 71.9048 4.22371 71.8409 3.98676C71.7691 3.69991 71.9328 3.40475 72.2083 3.32993C73.0986 3.08465 74.0049 2.85185 74.8992 2.63568C75.1747 2.56917 75.4502 2.74793 75.5181 3.03477C75.5819 3.32577 75.4063 3.61261 75.1308 3.67913C74.2484 3.8953 73.3541 4.12394 72.4718 4.36506C72.4278 4.37753 72.3839 4.38584 72.34 4.38584ZM124.051 5.07581C124.003 5.07581 123.955 5.0675 123.907 5.05503C123.025 4.78897 122.139 4.53123 121.264 4.29427C120.989 4.21944 120.825 3.92844 120.897 3.6416C120.969 3.35475 121.248 3.18015 121.524 3.25498C122.406 3.4961 123.304 3.75384 124.195 4.02406C124.466 4.1072 124.622 4.40236 124.546 4.6892C124.478 4.922 124.275 5.07581 124.051 5.07581ZM67.0538 6.00672C66.8382 6.00672 66.6386 5.86122 66.5667 5.63674C66.4789 5.35405 66.6266 5.05058 66.8941 4.95912C67.7724 4.65981 68.6628 4.37296 69.5411 4.10275C69.8126 4.0196 70.1001 4.18173 70.1799 4.46858C70.2598 4.75126 70.1041 5.05058 69.8326 5.13372C68.9622 5.39978 68.0799 5.68246 67.2135 5.97762C67.1616 5.99425 67.1097 6.00672 67.0538 6.00672ZM129.301 6.84286C129.246 6.84286 129.186 6.83454 129.13 6.8096C128.275 6.49365 127.401 6.18603 126.527 5.89087C126.255 5.79941 126.107 5.5001 126.195 5.21741C126.279 4.93472 126.571 4.78091 126.842 4.87237C127.728 5.16752 128.611 5.48347 129.473 5.79941C129.741 5.89918 129.88 6.20681 129.788 6.48534C129.713 6.70567 129.513 6.84286 129.301 6.84286ZM61.8673 7.93968C61.6637 7.93968 61.468 7.81081 61.3882 7.59879C61.2844 7.32442 61.4161 7.01264 61.6796 6.90455C62.538 6.55535 63.4124 6.21446 64.2748 5.89021C64.5423 5.79043 64.8377 5.93593 64.9335 6.21446C65.0293 6.49299 64.8896 6.80062 64.6221 6.90039C63.7677 7.22049 62.9053 7.55722 62.0549 7.90227C61.995 7.92721 61.9312 7.93968 61.8673 7.93968ZM134.452 8.92122C134.388 8.92122 134.32 8.90874 134.252 8.87964C133.41 8.50966 132.551 8.14799 131.705 7.8071C131.441 7.69901 131.31 7.39138 131.414 7.11286C131.513 6.83848 131.813 6.7013 132.08 6.80523C132.935 7.15443 133.801 7.5161 134.651 7.8944C134.915 8.00664 135.039 8.32259 134.927 8.59696C134.843 8.80066 134.655 8.92122 134.452 8.92122ZM56.814 10.1764C56.6183 10.1764 56.4347 10.06 56.3468 9.86043C56.2271 9.59437 56.3429 9.27427 56.6024 9.14956C57.4368 8.75047 58.2872 8.3597 59.1256 7.98971C59.3891 7.87331 59.6926 8.00218 59.8004 8.2724C59.9122 8.54677 59.7924 8.86271 59.5289 8.97496C58.6984 9.34494 57.856 9.73156 57.0296 10.1265C56.9617 10.1597 56.8858 10.1764 56.814 10.1764ZM139.478 11.3076C139.402 11.3076 139.322 11.291 139.251 11.2536C138.428 10.8337 137.594 10.4222 136.767 10.0314C136.508 9.90666 136.396 9.59072 136.512 9.32051C136.631 9.05029 136.939 8.93389 137.194 9.05445C138.029 9.44938 138.875 9.86509 139.706 10.2891C139.961 10.4222 140.065 10.7423 139.941 11.0083C139.849 11.1995 139.666 11.3076 139.478 11.3076ZM51.8868 12.7078C51.7032 12.7078 51.5235 12.6039 51.4317 12.421C51.2999 12.1591 51.3958 11.8348 51.6473 11.6976C52.4618 11.2487 53.2882 10.808 54.1067 10.3881C54.3622 10.2551 54.6696 10.3632 54.7974 10.6292C54.9211 10.8953 54.8173 11.2196 54.5618 11.3484C53.7553 11.7641 52.9369 12.2006 52.1304 12.6455C52.0505 12.687 51.9707 12.7078 51.8868 12.7078ZM144.361 13.989C144.274 13.989 144.19 13.9682 144.106 13.9224C143.315 13.4527 142.505 12.9912 141.698 12.5506C141.447 12.4134 141.351 12.0891 141.483 11.8272C141.615 11.5653 141.926 11.4656 142.178 11.6027C142.992 12.0476 143.811 12.5132 144.613 12.9871C144.861 13.1326 144.948 13.4568 144.809 13.7146C144.713 13.8892 144.541 13.989 144.361 13.989ZM47.1035 15.5303C46.9318 15.5303 46.7601 15.4389 46.6643 15.2726C46.5166 15.019 46.5924 14.6906 46.836 14.5367C47.6225 14.042 48.425 13.5515 49.2235 13.0817C49.471 12.9362 49.7824 13.0235 49.9262 13.2813C50.0659 13.539 49.9781 13.8674 49.7305 14.0129C48.94 14.4785 48.1455 14.9649 47.371 15.4555C47.2871 15.5054 47.1953 15.5303 47.1035 15.5303ZM149.084 16.9564C148.988 16.9564 148.892 16.9273 148.809 16.8691C148.038 16.3537 147.252 15.8465 146.477 15.3601C146.233 15.2063 146.158 14.8779 146.305 14.6243C146.449 14.3707 146.768 14.2876 147.012 14.4414C147.795 14.9319 148.585 15.4474 149.364 15.967C149.603 16.1292 149.675 16.4576 149.519 16.707C149.419 16.8691 149.256 16.9564 149.084 16.9564ZM42.4847 18.637C42.317 18.637 42.1573 18.5539 42.0575 18.4042C41.8978 18.159 41.9577 17.8264 42.1893 17.6601C42.9478 17.1155 43.7224 16.5792 44.4929 16.0637C44.7325 15.9016 45.0519 15.9723 45.2076 16.2217C45.3593 16.4711 45.2914 16.8037 45.0519 16.9659C44.2893 17.4772 43.5228 18.0093 42.7722 18.5414C42.6843 18.6079 42.5845 18.637 42.4847 18.637ZM153.64 20.1955C153.536 20.1955 153.428 20.1622 153.336 20.0957C152.606 19.5387 151.851 18.9858 151.097 18.4495C150.861 18.2832 150.801 17.9465 150.961 17.7054C151.121 17.4601 151.444 17.3977 151.676 17.564C152.442 18.1086 153.205 18.6657 153.943 19.2269C154.171 19.4015 154.223 19.7382 154.055 19.9752C153.955 20.1207 153.8 20.1955 153.64 20.1955ZM38.0368 22.0121C37.8811 22.0121 37.7293 21.9414 37.6255 21.8043C37.4539 21.5673 37.4938 21.2306 37.7214 21.0518C38.448 20.4657 39.1906 19.8837 39.9332 19.3224C40.1608 19.1478 40.4842 19.1977 40.6519 19.4388C40.8195 19.6758 40.7676 20.0125 40.5401 20.1871C39.8055 20.7442 39.0668 21.3179 38.3482 21.8999C38.2564 21.9747 38.1446 22.0121 38.0368 22.0121ZM158.003 23.6992C157.892 23.6992 157.776 23.6618 157.68 23.5786C156.973 22.98 156.251 22.3814 155.532 21.8035C155.308 21.6248 155.264 21.2881 155.44 21.0511C155.612 20.8183 155.935 20.7726 156.163 20.9555C156.889 21.5375 157.62 22.1403 158.331 22.7472C158.55 22.9343 158.586 23.2752 158.403 23.5038C158.303 23.6327 158.155 23.6992 158.003 23.6992ZM33.7769 25.6456C33.6331 25.6456 33.4894 25.5833 33.3896 25.4585C33.2019 25.2382 33.2259 24.8973 33.4375 24.7019C34.1362 24.0742 34.8469 23.4506 35.5535 22.8437C35.7731 22.6566 36.1005 22.6899 36.2802 22.9185C36.4598 23.1513 36.4279 23.488 36.2083 23.6751C35.5056 24.2738 34.8029 24.889 34.1162 25.5126C34.0164 25.5999 33.8966 25.6456 33.7769 25.6456ZM162.176 27.4575C162.048 27.4575 161.924 27.4076 161.824 27.3162C161.158 26.6801 160.471 26.0399 159.78 25.4164C159.565 25.2251 159.541 24.8843 159.728 24.6598C159.912 24.4353 160.239 24.4103 160.455 24.6057C161.154 25.2376 161.848 25.882 162.523 26.5263C162.731 26.7259 162.747 27.0626 162.555 27.2829C162.451 27.3993 162.312 27.4575 162.176 27.4575ZM29.7194 29.524C29.5876 29.524 29.4519 29.47 29.352 29.3619C29.1524 29.1499 29.1564 28.8131 29.36 28.6053C30.0188 27.9401 30.6935 27.2708 31.3723 26.6223C31.5839 26.4228 31.9073 26.4352 32.1029 26.6556C32.2945 26.8717 32.2786 27.2126 32.0709 27.4122C31.4002 28.0565 30.7295 28.7134 30.0787 29.3744C29.9789 29.4741 29.8511 29.524 29.7194 29.524ZM166.128 31.4534C165.992 31.4534 165.861 31.3994 165.761 31.2913C165.118 30.6054 164.467 29.9278 163.821 29.2751C163.617 29.0672 163.609 28.7305 163.809 28.5143C164.008 28.3023 164.332 28.2981 164.535 28.506C165.19 29.1628 165.849 29.8488 166.496 30.543C166.695 30.755 166.691 31.0918 166.488 31.2996C166.388 31.3994 166.256 31.4534 166.128 31.4534ZM25.8833 33.6394C25.7596 33.6394 25.6358 33.5937 25.536 33.4981C25.3244 33.2985 25.3124 32.9618 25.5041 32.7415C26.1269 32.0348 26.7657 31.328 27.4045 30.6463C27.6041 30.4343 27.9315 30.4259 28.1351 30.6338C28.3387 30.8417 28.3427 31.1784 28.1431 31.3904C27.5123 32.068 26.8815 32.7664 26.2626 33.4648C26.1628 33.5812 26.0231 33.6394 25.8833 33.6394ZM169.857 35.6722C169.713 35.6722 169.57 35.6098 169.47 35.4851C168.871 34.7742 168.256 34.0551 167.641 33.3608C167.45 33.1446 167.462 32.8038 167.673 32.6042C167.881 32.4047 168.208 32.4171 168.4 32.6333C169.023 33.34 169.642 34.0634 170.244 34.7826C170.432 35.007 170.408 35.3438 170.192 35.5392C170.097 35.6265 169.977 35.6722 169.857 35.6722ZM22.2748 37.98C22.159 37.98 22.0432 37.9384 21.9474 37.8595C21.7278 37.6682 21.6959 37.3315 21.8756 37.1029C22.4545 36.367 23.0533 35.6229 23.6602 34.8954C23.8479 34.6709 24.1712 34.646 24.3868 34.8414C24.6024 35.0367 24.6264 35.3735 24.4387 35.598C23.8399 36.3172 23.245 37.053 22.6741 37.7805C22.5702 37.9135 22.4225 37.98 22.2748 37.98ZM173.347 40.1038C173.195 40.1038 173.044 40.0332 172.94 39.896C172.389 39.156 171.818 38.4036 171.235 37.6677C171.055 37.4349 171.087 37.0982 171.307 36.9111C171.527 36.7241 171.85 36.7573 172.034 36.986C172.62 37.7301 173.199 38.4909 173.754 39.2391C173.93 39.4719 173.89 39.8087 173.663 39.9916C173.571 40.0664 173.459 40.1038 173.347 40.1038ZM18.9048 42.5239C18.801 42.5239 18.6972 42.4906 18.6054 42.4199C18.3738 42.2453 18.3219 41.9128 18.4896 41.6716C19.0326 40.8943 19.5915 40.1169 20.1505 39.3644C20.3262 39.1275 20.6496 39.0859 20.8731 39.2647C21.1007 39.4476 21.1406 39.7843 20.969 40.0171C20.414 40.7654 19.859 41.5345 19.324 42.3035C19.2242 42.449 19.0645 42.5239 18.9048 42.5239ZM176.593 44.731C176.429 44.731 176.266 44.652 176.166 44.5024C175.655 43.7208 175.124 42.9393 174.585 42.1744C174.417 41.9333 174.469 41.6007 174.7 41.4261C174.928 41.2515 175.251 41.3014 175.419 41.5425C175.962 42.3157 176.497 43.1056 177.016 43.8913C177.176 44.1366 177.12 44.4691 176.884 44.6396C176.797 44.7019 176.693 44.731 176.593 44.731ZM15.7896 47.2624C15.6937 47.2624 15.5979 47.2333 15.5141 47.1793C15.2745 47.0171 15.2027 46.6846 15.3584 46.4351C15.8574 45.6286 16.3725 44.818 16.8915 44.0323C17.0512 43.787 17.3706 43.7247 17.6062 43.8909C17.8417 44.0572 17.9016 44.394 17.7419 44.6351C17.2269 45.4166 16.7198 46.2148 16.2247 47.0171C16.1249 47.1751 15.9612 47.2624 15.7896 47.2624ZM179.575 49.5456C179.403 49.5456 179.231 49.4542 179.136 49.2879C178.665 48.4772 178.173 47.6624 177.682 46.8726C177.531 46.6231 177.599 46.2906 177.838 46.1326C178.078 45.9705 178.397 46.0411 178.549 46.2906C179.044 47.0929 179.539 47.9119 180.014 48.7308C180.162 48.9844 180.086 49.3128 179.842 49.4666C179.758 49.5207 179.667 49.5456 179.575 49.5456ZM12.9394 52.1806C12.8555 52.1806 12.7677 52.1598 12.6878 52.114C12.4403 51.9685 12.3525 51.6401 12.4922 51.3824C12.9473 50.5468 13.4185 49.7071 13.8896 48.8881C14.0373 48.6345 14.3527 48.5514 14.6002 48.7052C14.8438 48.859 14.9196 49.1874 14.7719 49.441C14.3048 50.2516 13.8377 51.0831 13.3865 51.9103C13.2947 52.0849 13.119 52.1806 12.9394 52.1806ZM182.289 54.525C182.106 54.525 181.926 54.4211 181.834 54.2382C181.407 53.3984 180.964 52.5587 180.516 51.7439C180.377 51.4861 180.465 51.1577 180.712 51.0122C180.96 50.8667 181.275 50.954 181.415 51.2118C181.866 52.039 182.313 52.8871 182.744 53.7351C182.876 53.997 182.78 54.3213 182.529 54.4585C182.453 54.5042 182.369 54.525 182.289 54.525ZM10.365 57.2647C10.2892 57.2647 10.2093 57.2481 10.1374 57.2107C9.88191 57.0776 9.77811 56.7575 9.90188 56.4915C10.3091 55.6309 10.7323 54.7621 11.1635 53.9182C11.2953 53.6563 11.6067 53.5565 11.8582 53.6937C12.1097 53.8309 12.2056 54.1551 12.0738 54.417C11.6506 55.2526 11.2314 56.1132 10.8281 56.9654C10.7363 57.1566 10.5527 57.2647 10.365 57.2647ZM184.725 59.6511C184.53 59.6511 184.342 59.5347 184.258 59.3393C183.879 58.487 183.484 57.6224 183.08 56.7701C182.957 56.5041 183.06 56.184 183.316 56.0551C183.567 55.9221 183.879 56.0302 184.003 56.2962C184.414 57.1526 184.813 58.0298 185.192 58.8903C185.312 59.1605 185.2 59.4806 184.941 59.6053C184.869 59.6386 184.797 59.6511 184.725 59.6511ZM8.06917 62.4948C8.00529 62.4948 7.93742 62.4823 7.86955 62.4532C7.61003 62.3368 7.48627 62.025 7.59806 61.7506C7.95339 60.8652 8.33268 59.9755 8.71197 59.1025C8.83174 58.8365 9.13517 58.7159 9.39469 58.8406C9.6542 58.9612 9.76998 59.2813 9.65021 59.5474C9.27092 60.412 8.89961 61.2934 8.54428 62.1664C8.46443 62.3742 8.27279 62.4948 8.06917 62.4948ZM186.873 64.9134C186.666 64.9134 186.474 64.7845 186.394 64.5725C186.067 63.6995 185.72 62.814 185.36 61.941C185.252 61.6666 185.372 61.3549 185.636 61.2385C185.895 61.1221 186.199 61.2509 186.31 61.5211C186.67 62.4066 187.021 63.3004 187.352 64.1817C187.456 64.4602 187.325 64.7679 187.061 64.876C187.001 64.9009 186.937 64.9134 186.873 64.9134ZM6.06841 67.857C6.01251 67.857 5.95262 67.8487 5.89673 67.8279C5.62923 67.7281 5.48949 67.4205 5.58531 67.142C5.89274 66.2399 6.22012 65.3253 6.5515 64.4315C6.65531 64.1571 6.95474 64.0199 7.21825 64.1239C7.48575 64.232 7.6175 64.5437 7.51369 64.8181C7.18232 65.7077 6.85892 66.6098 6.55549 67.5036C6.47964 67.724 6.28001 67.857 6.06841 67.857ZM188.733 70.3144C188.518 70.3144 188.314 70.173 188.242 69.9444C187.963 69.0464 187.663 68.1402 187.356 67.2464C187.26 66.9679 187.4 66.6602 187.667 66.5605C187.935 66.4607 188.23 66.6062 188.326 66.8847C188.638 67.7868 188.937 68.7056 189.225 69.6118C189.312 69.8945 189.165 70.198 188.893 70.2894C188.841 70.3061 188.785 70.3144 188.733 70.3144ZM4.37192 73.3278C4.32401 73.3278 4.2721 73.3195 4.22419 73.3029C3.9527 73.2197 3.797 72.9246 3.87685 72.6377C4.13237 71.7232 4.40785 70.7961 4.69132 69.8816C4.77915 69.603 5.06661 69.4492 5.3381 69.5365C5.60959 69.628 5.75732 69.9314 5.66948 70.2141C5.39001 71.1204 5.11852 72.035 4.863 72.9412C4.79911 73.174 4.5955 73.3278 4.37192 73.3278ZM190.295 75.8178C190.063 75.8178 189.856 75.6598 189.796 75.4187C189.564 74.5 189.313 73.5771 189.057 72.6708C188.977 72.384 189.133 72.0888 189.405 72.0015C189.68 71.9184 189.968 72.0805 190.047 72.3674C190.307 73.2819 190.554 74.2173 190.79 75.1443C190.866 75.4312 190.698 75.7222 190.427 75.797C190.383 75.8095 190.339 75.8178 190.295 75.8178ZM2.97794 78.8783C2.942 78.8783 2.90208 78.8741 2.86215 78.8658C2.58667 78.7951 2.411 78.5083 2.47488 78.2215C2.68249 77.2902 2.90208 76.3507 3.13764 75.4195C3.2095 75.1327 3.48898 74.9622 3.76446 75.0371C4.03994 75.1119 4.20364 75.4029 4.13177 75.6897C3.9042 76.6126 3.68461 77.5438 3.48099 78.4626C3.4251 78.7078 3.21349 78.8783 2.97794 78.8783ZM191.544 81.4014C191.305 81.4014 191.089 81.2268 191.041 80.9732C190.862 80.0503 190.666 79.1149 190.459 78.1879C190.391 77.8969 190.562 77.6101 190.842 77.5435C191.117 77.477 191.397 77.6558 191.461 77.9426C191.672 78.878 191.868 79.8258 192.052 80.7612C192.107 81.0522 191.928 81.3349 191.648 81.3931L191.544 81.4014ZM1.89575 84.5023L1.80792 84.494C1.52844 84.4441 1.3408 84.1656 1.38871 83.8746C1.54042 82.9309 1.7121 81.9789 1.89176 81.0394C1.94766 80.7484 2.21915 80.5614 2.49862 80.6196C2.7781 80.6778 2.95776 80.9604 2.90187 81.2514C2.7222 82.1785 2.55452 83.1222 2.4028 84.0575C2.35889 84.3153 2.14329 84.5023 1.89575 84.5023ZM192.491 87.0546C192.235 87.0546 192.016 86.8634 191.98 86.5932C191.848 85.6537 191.704 84.7059 191.549 83.7788C191.501 83.4837 191.688 83.2093 191.968 83.1552C192.247 83.1054 192.515 83.3007 192.567 83.5917C192.722 84.5354 192.87 85.4916 192.998 86.4435C193.042 86.7345 192.846 87.0089 192.563 87.0505L192.491 87.0546ZM1.12521 90.1819L1.06532 90.1777C0.781856 90.1444 0.578238 89.8784 0.610178 89.5874C0.713983 88.6354 0.829766 87.6751 0.961518 86.7273C1.00144 86.4321 1.26096 86.2326 1.54043 86.27C1.8239 86.3116 2.01953 86.5818 1.97961 86.8769C1.85185 87.8123 1.73606 88.7643 1.63625 89.7038C1.60431 89.9782 1.38073 90.1819 1.12521 90.1819ZM193.122 92.7535C192.858 92.7535 192.631 92.5414 192.607 92.2629C192.531 91.3151 192.435 90.3631 192.331 89.4236C192.299 89.1284 192.503 88.8624 192.786 88.8291C193.07 88.7959 193.325 89.0079 193.357 89.303C193.461 90.2467 193.553 91.2112 193.633 92.1715C193.661 92.4666 193.449 92.7244 193.166 92.7493L193.122 92.7535ZM0.663838 95.8976H0.63589C0.352422 95.881 0.132834 95.6274 0.148804 95.3322C0.200707 94.3802 0.264587 93.4116 0.340445 92.4555C0.3644 92.1603 0.615928 91.9483 0.899395 91.9649C1.18286 91.9899 1.39447 92.2518 1.37051 92.5469C1.29465 93.4906 1.23077 94.4467 1.17887 95.3904C1.1629 95.6773 0.935328 95.8976 0.663838 95.8976ZM193.441 98.4824C193.161 98.4824 192.934 98.2496 192.926 97.9586C192.898 97.019 192.858 96.0587 192.806 95.1068C192.79 94.8158 193.006 94.558 193.289 94.5414C193.573 94.5164 193.816 94.7492 193.832 95.0486C193.888 96.0089 193.928 96.9775 193.956 97.9295C193.964 98.2246 193.74 98.4699 193.457 98.4782L193.441 98.4824ZM0.515033 101.634C0.231565 101.634 0 101.393 0 101.097V101.002C0 100.075 0.0119775 99.1353 0.0359326 98.2124C0.0439176 97.9173 0.275483 97.672 0.562943 97.6928C0.850404 97.7011 1.07398 97.9464 1.066 98.2415C1.04204 99.1561 1.03007 100.083 1.03007 101.002V101.097C1.03007 101.393 0.798501 101.634 0.515033 101.634ZM193.445 104.407H193.433C193.146 104.398 192.922 104.149 192.93 103.854C192.958 102.902 192.97 101.941 192.97 101.002V100.811C192.97 100.516 193.202 100.274 193.485 100.274C193.769 100.274 194 100.516 194 100.811V101.002C194 101.954 193.988 102.923 193.96 103.883C193.952 104.174 193.725 104.407 193.445 104.407ZM0.673857 107.366C0.402367 107.366 0.174794 107.146 0.158824 106.859C0.106921 105.903 0.0669963 104.934 0.0390488 103.978C0.0310638 103.683 0.254644 103.438 0.542105 103.429H0.554082C0.833558 103.429 1.06113 103.658 1.06912 103.949C1.09706 104.893 1.13699 105.853 1.18889 106.801C1.20486 107.096 0.985273 107.35 0.701805 107.366H0.673857ZM193.137 110.132H193.094C192.81 110.107 192.598 109.849 192.622 109.554C192.702 108.602 192.766 107.646 192.814 106.706C192.83 106.411 193.078 106.195 193.357 106.199C193.645 106.216 193.86 106.469 193.844 106.765C193.792 107.717 193.728 108.685 193.649 109.641C193.629 109.924 193.401 110.132 193.137 110.132ZM1.14598 113.082C0.890455 113.082 0.666875 112.878 0.634935 112.604C0.53113 111.652 0.439302 110.683 0.359452 109.736C0.335497 109.44 0.5471 109.183 0.830568 109.158C1.11404 109.129 1.36157 109.349 1.38553 109.644C1.46538 110.584 1.5572 111.54 1.66101 112.483C1.69295 112.779 1.48933 113.045 1.20586 113.078L1.14598 113.082ZM192.514 115.83L192.442 115.826C192.163 115.784 191.967 115.514 192.003 115.219C192.135 114.279 192.251 113.327 192.355 112.392C192.386 112.097 192.638 111.881 192.921 111.918C193.205 111.951 193.409 112.217 193.377 112.512C193.273 113.456 193.153 114.421 193.025 115.373C192.989 115.639 192.77 115.83 192.514 115.83ZM1.92377 118.762C1.68023 118.762 1.46064 118.579 1.41672 118.317C1.26101 117.369 1.11728 116.409 0.985529 115.469C0.945604 115.174 1.14124 114.904 1.4247 114.862C1.70418 114.821 1.96369 115.02 2.00761 115.315C2.13537 116.247 2.2791 117.194 2.43481 118.134C2.48272 118.425 2.29507 118.703 2.0116 118.753L1.92377 118.762ZM191.585 121.485L191.481 121.477C191.202 121.418 191.022 121.136 191.078 120.845C191.257 119.918 191.425 118.974 191.581 118.039C191.629 117.748 191.9 117.552 192.176 117.602C192.455 117.652 192.643 117.931 192.595 118.222C192.439 119.165 192.268 120.121 192.088 121.057C192.04 121.31 191.824 121.485 191.585 121.485ZM3.01778 124.383C2.78622 124.383 2.57462 124.217 2.51872 123.967C2.30712 123.036 2.11149 122.088 1.92783 121.153C1.87193 120.862 2.0516 120.579 2.33107 120.521C2.61055 120.463 2.88204 120.65 2.93793 120.937C3.1176 121.864 3.31323 122.803 3.52084 123.726C3.58472 124.013 3.41304 124.304 3.13756 124.37C3.09763 124.379 3.05771 124.383 3.01778 124.383ZM190.338 127.076C190.294 127.076 190.254 127.067 190.21 127.059C189.935 126.984 189.767 126.689 189.839 126.402C190.071 125.492 190.29 124.556 190.498 123.634C190.562 123.343 190.837 123.164 191.117 123.23C191.392 123.297 191.564 123.588 191.5 123.875C191.292 124.81 191.069 125.75 190.837 126.672C190.777 126.914 190.57 127.076 190.338 127.076ZM4.4194 129.932C4.19981 129.932 3.9922 129.778 3.92832 129.545C3.66881 128.627 3.41728 127.691 3.18571 126.768C3.10986 126.482 3.27754 126.186 3.55303 126.112C3.82851 126.037 4.10798 126.207 4.17985 126.494C4.41141 127.409 4.65895 128.332 4.91447 129.242C4.99432 129.529 4.83861 129.824 4.56712 129.911C4.51921 129.924 4.4713 129.932 4.4194 129.932ZM188.789 132.579C188.737 132.579 188.685 132.571 188.629 132.554C188.362 132.463 188.21 132.16 188.298 131.877C188.582 130.979 188.853 130.064 189.109 129.154C189.188 128.867 189.476 128.705 189.747 128.788C190.019 128.871 190.179 129.171 190.099 129.453C189.839 130.376 189.564 131.303 189.28 132.209C189.208 132.438 189.009 132.579 188.789 132.579ZM6.12881 135.386C5.91721 135.386 5.71758 135.249 5.64172 135.028C5.33031 134.122 5.03087 133.207 4.7474 132.301C4.65957 132.018 4.80729 131.715 5.07878 131.624C5.34628 131.532 5.63773 131.686 5.72556 131.969C6.00504 132.862 6.30448 133.773 6.6119 134.671C6.70772 134.949 6.56798 135.253 6.30049 135.353C6.24459 135.377 6.1847 135.386 6.12881 135.386ZM186.932 138.001C186.869 138.001 186.809 137.989 186.745 137.964C186.481 137.86 186.35 137.548 186.453 137.27C186.785 136.38 187.108 135.478 187.412 134.588C187.507 134.31 187.803 134.164 188.07 134.264C188.338 134.364 188.477 134.671 188.382 134.95C188.074 135.848 187.747 136.762 187.412 137.66C187.332 137.872 187.14 138.001 186.932 138.001ZM8.12858 140.719C7.92895 140.719 7.73731 140.599 7.65347 140.395C7.29814 139.518 6.94679 138.62 6.61142 137.73C6.51161 137.456 6.63937 137.144 6.90687 137.036C7.17038 136.928 7.46981 137.065 7.57362 137.34C7.901 138.221 8.24835 139.106 8.60368 139.975C8.71148 140.25 8.59171 140.561 8.3282 140.678C8.26432 140.707 8.19645 140.719 8.12858 140.719ZM184.781 143.297C184.709 143.297 184.633 143.285 184.566 143.252C184.306 143.127 184.194 142.807 184.31 142.541C184.693 141.672 185.065 140.791 185.42 139.922C185.528 139.647 185.831 139.523 186.095 139.635C186.354 139.751 186.478 140.067 186.366 140.337C186.011 141.219 185.632 142.108 185.248 142.986C185.16 143.181 184.977 143.297 184.781 143.297ZM10.4158 145.921C10.2282 145.921 10.0445 145.813 9.95269 145.621C9.54944 144.769 9.15019 143.896 8.76691 143.023C8.64714 142.757 8.76292 142.437 9.02243 142.312C9.27795 142.192 9.58538 142.308 9.70515 142.578C10.0844 143.439 10.4797 144.304 10.8789 145.148C11.0027 145.414 10.8989 145.734 10.6434 145.867C10.5715 145.904 10.4917 145.921 10.4158 145.921ZM182.338 148.456C182.258 148.456 182.174 148.435 182.098 148.393C181.847 148.252 181.751 147.928 181.883 147.666C182.31 146.826 182.733 145.97 183.132 145.122C183.26 144.855 183.567 144.747 183.823 144.876C184.079 145.009 184.182 145.329 184.055 145.595C183.651 146.452 183.228 147.317 182.793 148.169C182.701 148.352 182.521 148.456 182.338 148.456ZM12.9874 150.979C12.8078 150.979 12.6321 150.88 12.5403 150.705C12.0851 149.874 11.638 149.026 11.2108 148.182C11.079 147.92 11.1748 147.596 11.4264 147.458C11.6779 147.321 11.9893 147.421 12.121 147.683C12.5443 148.514 12.9874 149.354 13.4346 150.177C13.5743 150.435 13.4865 150.763 13.239 150.909C13.1591 150.955 13.0753 150.979 12.9874 150.979ZM179.619 153.453C179.528 153.453 179.436 153.432 179.352 153.378C179.108 153.224 179.032 152.896 179.18 152.642C179.651 151.832 180.114 151 180.566 150.173C180.705 149.919 181.021 149.828 181.268 149.973C181.516 150.119 181.604 150.447 181.464 150.705C181.009 151.541 180.538 152.376 180.059 153.195C179.963 153.361 179.795 153.453 179.619 153.453ZM15.835 155.881C15.6673 155.881 15.4996 155.793 15.3998 155.631C14.9047 154.829 14.4136 154.01 13.9385 153.191C13.7908 152.937 13.8667 152.609 14.1102 152.455C14.3537 152.301 14.6692 152.384 14.8169 152.638C15.288 153.445 15.7751 154.259 16.2662 155.053C16.4219 155.303 16.354 155.631 16.1144 155.793C16.0266 155.852 15.9308 155.881 15.835 155.881ZM176.633 158.284C176.529 158.284 176.429 158.251 176.341 158.188C176.106 158.022 176.046 157.69 176.206 157.444C176.721 156.663 177.232 155.86 177.727 155.066C177.878 154.817 178.198 154.746 178.437 154.904C178.677 155.066 178.745 155.399 178.593 155.644C178.094 156.451 177.575 157.261 177.056 158.051C176.956 158.201 176.796 158.284 176.633 158.284ZM18.9446 160.603C18.7849 160.603 18.6292 160.528 18.5254 160.382C17.9904 159.618 17.4514 158.824 16.9324 158.03C16.7687 157.788 16.8286 157.452 17.0642 157.285C17.2997 157.119 17.6191 157.181 17.7788 157.427C18.2978 158.208 18.8289 158.994 19.3599 159.751C19.5275 159.992 19.4756 160.328 19.2481 160.503C19.1562 160.57 19.0484 160.603 18.9446 160.603ZM173.383 162.923C173.275 162.923 173.163 162.886 173.068 162.811C172.844 162.632 172.804 162.295 172.976 162.058C173.531 161.314 174.086 160.545 174.625 159.776C174.788 159.535 175.112 159.485 175.343 159.66C175.571 159.834 175.623 160.167 175.455 160.408C174.912 161.185 174.353 161.963 173.79 162.715C173.69 162.852 173.539 162.923 173.383 162.923ZM22.3104 165.138C22.1586 165.138 22.0109 165.072 21.9111 164.943C21.3242 164.198 20.7453 163.442 20.1863 162.689C20.0147 162.452 20.0546 162.116 20.2822 161.937C20.5057 161.754 20.8291 161.796 21.0048 162.033C21.5558 162.777 22.1267 163.529 22.7056 164.265C22.8853 164.494 22.8533 164.83 22.6338 165.017C22.5379 165.101 22.4221 165.138 22.3104 165.138ZM169.889 167.362C169.769 167.362 169.649 167.321 169.554 167.233C169.338 167.038 169.314 166.697 169.502 166.477C170.097 165.758 170.692 165.026 171.27 164.294C171.45 164.066 171.774 164.028 171.993 164.22C172.213 164.407 172.245 164.743 172.065 164.972C171.482 165.712 170.883 166.456 170.28 167.179C170.177 167.3 170.033 167.362 169.889 167.362ZM25.9154 169.47C25.7756 169.47 25.6399 169.412 25.5361 169.3C24.9172 168.597 24.2984 167.874 23.6955 167.147C23.5079 166.922 23.5318 166.585 23.7434 166.39C23.959 166.199 24.2864 166.219 24.4701 166.444C25.069 167.163 25.6838 167.878 26.2947 168.572C26.4863 168.793 26.4743 169.129 26.2627 169.329C26.1669 169.425 26.0391 169.47 25.9154 169.47ZM166.161 171.587C166.033 171.587 165.901 171.537 165.801 171.437C165.598 171.229 165.594 170.888 165.793 170.676C166.428 169.999 167.059 169.3 167.674 168.606C167.869 168.386 168.193 168.373 168.404 168.573C168.612 168.772 168.628 169.113 168.432 169.329C167.813 170.036 167.171 170.739 166.532 171.425C166.432 171.533 166.296 171.587 166.161 171.587ZM29.756 173.586C29.6242 173.586 29.4964 173.536 29.3966 173.432C28.7379 172.767 28.0791 172.081 27.4403 171.395C27.2407 171.183 27.2447 170.843 27.4483 170.635C27.6519 170.431 27.9793 170.435 28.1789 170.647C28.8137 171.329 29.4645 172.007 30.1153 172.663C30.3189 172.871 30.3229 173.208 30.1233 173.424C30.0234 173.532 29.8917 173.586 29.756 173.586ZM162.207 175.586C162.071 175.586 161.932 175.528 161.828 175.411C161.636 175.191 161.652 174.854 161.86 174.655C162.526 174.014 163.197 173.358 163.852 172.697C164.056 172.489 164.383 172.493 164.583 172.705C164.778 172.917 164.774 173.258 164.571 173.466C163.908 174.131 163.233 174.8 162.558 175.444C162.459 175.536 162.335 175.586 162.207 175.586ZM33.8123 177.464C33.6966 177.464 33.5728 177.423 33.477 177.335C32.7783 176.703 32.0836 176.059 31.4089 175.411C31.2012 175.211 31.1853 174.874 31.3809 174.654C31.5726 174.438 31.8959 174.421 32.1075 174.625C32.7743 175.261 33.461 175.901 34.1517 176.525C34.3673 176.716 34.3913 177.057 34.2036 177.281C34.0998 177.402 33.9601 177.464 33.8123 177.464ZM158.047 179.339C157.899 179.339 157.752 179.273 157.648 179.144C157.468 178.911 157.5 178.574 157.72 178.387C158.426 177.784 159.133 177.169 159.816 176.55C160.031 176.359 160.355 176.379 160.542 176.604C160.73 176.828 160.706 177.169 160.49 177.36C159.8 177.984 159.085 178.612 158.374 179.219C158.279 179.298 158.163 179.339 158.047 179.339ZM38.0809 181.101C37.9691 181.101 37.8613 181.064 37.7655 180.989C37.0388 180.403 36.3082 179.8 35.5976 179.193C35.378 179.006 35.346 178.665 35.5257 178.437C35.7054 178.208 36.0287 178.175 36.2483 178.362C36.955 178.96 37.6737 179.559 38.3963 180.141C38.6199 180.32 38.6598 180.656 38.4881 180.893C38.3883 181.026 38.2326 181.101 38.0809 181.101ZM153.692 182.84C153.532 182.84 153.376 182.765 153.272 182.62C153.109 182.379 153.157 182.046 153.388 181.872C154.123 181.315 154.861 180.737 155.58 180.163C155.804 179.98 156.127 180.022 156.299 180.259C156.474 180.491 156.435 180.828 156.207 181.011C155.484 181.593 154.738 182.175 153.995 182.736C153.903 182.807 153.795 182.84 153.692 182.84ZM42.5363 184.477C42.4365 184.477 42.3366 184.448 42.2488 184.386C41.4902 183.845 40.7317 183.284 39.9851 182.719C39.7535 182.544 39.7016 182.211 39.8693 181.97C40.037 181.729 40.3603 181.679 40.5879 181.854C41.3265 182.411 42.0811 182.968 42.8277 183.5C43.0633 183.666 43.1232 184.003 42.9635 184.244C42.8637 184.398 42.7 184.477 42.5363 184.477ZM149.151 186.078C148.98 186.078 148.816 185.991 148.716 185.829C148.564 185.579 148.632 185.251 148.872 185.089C149.63 184.581 150.397 184.049 151.152 183.513C151.383 183.347 151.707 183.409 151.866 183.654C152.026 183.895 151.966 184.232 151.735 184.399C150.972 184.943 150.197 185.475 149.431 185.991C149.343 186.049 149.247 186.078 149.151 186.078ZM47.1758 187.588C47.088 187.588 46.9962 187.563 46.9123 187.513C46.1258 187.018 45.3353 186.503 44.5568 185.983C44.3172 185.825 44.2493 185.493 44.405 185.243C44.5568 184.994 44.8762 184.923 45.1157 185.081C45.8863 185.596 46.6688 186.108 47.4433 186.594C47.6869 186.748 47.7667 187.076 47.619 187.33C47.5232 187.496 47.3515 187.588 47.1758 187.588ZM144.445 189.038C144.265 189.038 144.09 188.939 143.994 188.764C143.854 188.506 143.942 188.178 144.19 188.032C144.98 187.567 145.775 187.084 146.549 186.598C146.793 186.444 147.112 186.523 147.26 186.777C147.404 187.03 147.328 187.363 147.084 187.517C146.298 188.007 145.495 188.498 144.697 188.968C144.617 189.013 144.529 189.038 144.445 189.038ZM51.9783 190.418C51.8985 190.418 51.8146 190.397 51.7388 190.356C50.9323 189.911 50.1138 189.445 49.3073 188.972C49.0598 188.826 48.972 188.498 49.1117 188.24C49.2514 187.982 49.5669 187.891 49.8144 188.036C50.6089 188.506 51.4194 188.967 52.2219 189.408C52.4734 189.545 52.5692 189.87 52.4375 190.131C52.3417 190.314 52.166 190.418 51.9783 190.418ZM139.586 191.712C139.395 191.712 139.211 191.603 139.123 191.412C138.995 191.146 139.103 190.826 139.359 190.693C140.173 190.277 140.992 189.841 141.79 189.4C142.042 189.263 142.353 189.363 142.489 189.625C142.621 189.887 142.525 190.211 142.273 190.348C141.463 190.797 140.636 191.233 139.814 191.658C139.738 191.695 139.662 191.712 139.586 191.712ZM56.9328 192.958C56.8609 192.958 56.789 192.942 56.7211 192.908C55.8827 192.509 55.0403 192.093 54.2099 191.669C53.9583 191.541 53.8505 191.216 53.9783 190.95C54.1021 190.688 54.4135 190.576 54.665 190.709C55.4835 191.125 56.3179 191.541 57.1483 191.936C57.4079 192.056 57.5196 192.376 57.4039 192.642C57.316 192.842 57.1284 192.958 56.9328 192.958ZM134.591 194.093C134.388 194.093 134.196 193.968 134.116 193.764C134.004 193.49 134.128 193.178 134.388 193.062C135.214 192.696 136.056 192.313 136.887 191.914C137.146 191.794 137.454 191.91 137.57 192.18C137.689 192.451 137.574 192.766 137.318 192.891C136.476 193.29 135.625 193.681 134.791 194.047C134.723 194.076 134.655 194.093 134.591 194.093ZM62.0233 195.195C61.9595 195.195 61.8956 195.186 61.8357 195.161C60.9773 194.812 60.1109 194.446 59.2605 194.072C59.001 193.956 58.8772 193.644 58.989 193.37C59.0968 193.1 59.4003 192.971 59.6638 193.083C60.5022 193.453 61.3606 193.819 62.207 194.16C62.4745 194.268 62.6062 194.579 62.5024 194.854C62.4226 195.066 62.2269 195.195 62.0233 195.195ZM129.465 196.172C129.253 196.172 129.054 196.034 128.978 195.818C128.882 195.54 129.022 195.232 129.293 195.132C130.144 194.812 131.006 194.48 131.861 194.135C132.124 194.027 132.423 194.16 132.527 194.438C132.627 194.712 132.499 195.024 132.232 195.132C131.373 195.482 130.499 195.822 129.637 196.143C129.581 196.163 129.521 196.172 129.465 196.172ZM67.2303 197.128C67.1784 197.128 67.1225 197.12 67.0706 197.103C66.1963 196.808 65.3099 196.492 64.4395 196.172C64.1721 196.072 64.0323 195.764 64.1281 195.486C64.224 195.207 64.5154 195.062 64.7869 195.162C65.6453 195.478 66.5196 195.789 67.386 196.08C67.6575 196.172 67.8052 196.475 67.7214 196.758C67.6495 196.982 67.4459 197.128 67.2303 197.128ZM124.227 197.947C124.003 197.947 123.796 197.793 123.732 197.56C123.652 197.277 123.808 196.978 124.079 196.895C124.958 196.629 125.836 196.342 126.698 196.051C126.97 195.96 127.261 196.113 127.349 196.396C127.437 196.679 127.289 196.982 127.018 197.074C126.147 197.365 125.257 197.652 124.371 197.926C124.323 197.938 124.275 197.947 124.227 197.947ZM72.5153 198.741C72.4754 198.741 72.4314 198.733 72.3875 198.72C71.4932 198.479 70.5949 198.221 69.7165 197.951C69.4451 197.868 69.2854 197.569 69.3652 197.286C69.4451 197.003 69.7325 196.841 70.008 196.924C70.8744 197.186 71.7647 197.444 72.647 197.685C72.9225 197.76 73.0862 198.051 73.0144 198.338C72.9545 198.579 72.7469 198.741 72.5153 198.741ZM118.897 199.402C118.661 199.402 118.45 199.236 118.394 198.991C118.33 198.7 118.501 198.413 118.781 198.346C119.659 198.134 120.554 197.902 121.44 197.661C121.715 197.586 121.995 197.756 122.067 198.043C122.143 198.33 121.975 198.621 121.703 198.7C120.809 198.941 119.903 199.174 119.013 199.39C118.973 199.398 118.933 199.402 118.897 199.402ZM77.8856 200.029L77.7818 200.021C76.8795 199.83 75.9692 199.626 75.0749 199.41C74.7994 199.343 74.6278 199.056 74.6916 198.765C74.7555 198.479 75.027 198.3 75.3065 198.366C76.1888 198.578 77.0911 198.782 77.9855 198.969C78.2649 199.027 78.4446 199.31 78.3887 199.601C78.3408 199.855 78.1252 200.029 77.8856 200.029ZM113.495 200.537C113.252 200.537 113.032 200.354 112.988 200.092C112.94 199.801 113.128 199.522 113.408 199.473C114.302 199.315 115.208 199.14 116.103 198.949C116.378 198.895 116.654 199.078 116.709 199.369C116.765 199.66 116.586 199.942 116.306 200.001C115.4 200.192 114.486 200.371 113.583 200.533L113.495 200.537ZM83.3163 200.999L83.2444 200.994C82.3341 200.861 81.4118 200.708 80.5095 200.55C80.2261 200.5 80.0384 200.221 80.0863 199.93C80.1342 199.635 80.4017 199.44 80.6812 199.49C81.5795 199.652 82.4898 199.797 83.3881 199.93C83.6716 199.972 83.8672 200.246 83.8273 200.537C83.7914 200.807 83.5678 200.999 83.3163 200.999ZM108.041 201.351C107.782 201.351 107.562 201.147 107.53 200.873C107.498 200.582 107.702 200.316 107.986 200.283C108.888 200.175 109.802 200.054 110.7 199.917C110.984 199.875 111.243 200.079 111.283 200.374C111.323 200.665 111.128 200.94 110.848 200.981C109.938 201.114 109.012 201.239 108.101 201.347L108.041 201.351ZM88.7894 201.643H88.7455C87.8312 201.559 86.9049 201.464 85.9906 201.36C85.7072 201.327 85.5035 201.061 85.5355 200.765C85.5674 200.47 85.8269 200.258 86.1064 200.292C87.0087 200.4 87.927 200.491 88.8333 200.574C89.1168 200.599 89.3284 200.857 89.3044 201.152C89.2805 201.431 89.0569 201.643 88.7894 201.643ZM102.552 201.838C102.28 201.838 102.057 201.618 102.041 201.331C102.025 201.036 102.24 200.782 102.524 200.766C103.43 200.712 104.352 200.645 105.259 200.566C105.534 200.533 105.79 200.757 105.814 201.053C105.838 201.348 105.63 201.61 105.347 201.635C104.428 201.714 103.498 201.784 102.584 201.838H102.552ZM94.2912 201.963H94.2753C93.357 201.938 92.4267 201.896 91.5084 201.842C91.225 201.825 91.0094 201.572 91.0254 201.277C91.0413 200.981 91.2809 200.757 91.5683 200.769C92.4746 200.824 93.3969 200.865 94.3032 200.89C94.5867 200.898 94.8142 201.144 94.8063 201.443C94.7983 201.734 94.5667 201.963 94.2912 201.963ZM97.0455 201.999C96.762 201.999 96.5305 201.758 96.5305 201.463C96.5305 201.168 96.762 200.927 97.0455 200.927C97.9478 200.927 98.8701 200.914 99.7843 200.885C100.068 200.86 100.307 201.11 100.315 201.409C100.323 201.704 100.1 201.95 99.8123 201.958C98.89 201.987 97.9598 201.999 97.0455 201.999V201.999Z" fill="#FBB03B"/>
</svg>
