<svg width="512" height="512" viewBox="0 0 512 512" fill="none" xmlns="http://www.w3.org/2000/svg">
<mask id="mask0" mask-type="alpha" maskUnits="userSpaceOnUse" x="17" y="17" width="479" height="479">
<path fill-rule="evenodd" clip-rule="evenodd" d="M495.057 256.291C495.057 388.193 388.129 495.111 256.238 495.111C124.337 495.111 17.4187 388.193 17.4187 256.291C17.4187 124.401 124.337 17.4719 256.238 17.4719C388.129 17.4719 495.057 124.401 495.057 256.291" fill="white"/>
</mask>
<g mask="url(#mask0)">
<path fill-rule="evenodd" clip-rule="evenodd" d="M495.057 256.291C495.057 388.193 388.129 495.111 256.238 495.111C124.337 495.111 17.4187 388.193 17.4187 256.291C17.4187 124.401 124.337 17.4719 256.238 17.4719C388.129 17.4719 495.057 124.401 495.057 256.291" fill="#FCE3C3"/>
<path fill-rule="evenodd" clip-rule="evenodd" d="M600.119 825.676C594.261 810.998 588.392 796.32 582.533 781.632C576.906 767.554 571.996 755.416 564.599 742.15C561.554 736.702 557.413 729.569 553.968 724.153C537.498 693.859 521.029 663.565 504.549 633.272C494.128 614.105 483.707 594.938 473.286 575.771C466.437 563.18 459.578 550.546 454.362 537.206C447.903 520.663 444.046 503.235 440.559 485.818C437.977 473.015 435.575 460.139 432.993 447.316C425.48 450.656 417.978 454.028 410.518 457.505C394.523 464.965 378.612 472.741 362.533 480.086C374.713 515.648 388.022 550.662 406.366 583.411C439.126 641.933 487.701 688.021 527.299 742.15C528.732 744.11 528.099 749.989 528.236 752.486C528.668 760.589 527.994 768.671 528.984 776.742C529.986 784.909 531.882 792.959 534.622 800.703C535.865 804.212 539.247 807.436 542.83 804.286C543.157 804.086 543.462 803.843 543.747 803.517C547.298 799.755 547.319 794.602 547.087 789.756C546.834 784.224 547.119 778.987 549.531 773.918C550.185 772.549 551.291 771.253 552.777 770.968C553.683 770.779 554.621 771.01 555.506 771.295C558.456 772.306 560.69 774.14 562.492 776.405C563.44 777.585 564.283 778.892 565.031 780.262C565.758 781.558 566.412 782.896 567.044 784.245C567.824 785.931 568.561 787.617 569.341 789.208C569.488 789.545 569.646 789.861 569.815 790.177C569.952 790.462 570.11 790.757 570.247 791.052C571.195 792.927 572.144 794.792 573.092 796.678C574.81 800.092 576.527 803.506 578.255 806.931C579.751 809.902 581.258 812.884 582.754 815.866C585.389 821.071 588.202 826.909 592.912 830.597C596.431 833.357 602.048 830.523 600.119 825.676" fill="#FFCFCA"/>
<path fill-rule="evenodd" clip-rule="evenodd" d="M160.616 356.666C108.058 356.655 57.723 522.633 56.4375 524.782C55.3417 526.626 -49.2162 680.571 -49.5218 680.94C-49.5218 680.94 -85.0102 716.649 -93.6821 727.387C-99.53 734.668 -105.641 742.191 -109.382 750.789C-113.344 759.893 -115.767 769.492 -118.36 779.049C-118.77 780.545 -119.181 782.084 -119.002 783.622C-118.665 786.393 -115.62 788.806 -112.838 787.542C-106.801 784.834 -104.725 776.921 -102.955 771.168C-101.311 765.804 -99.9621 760.314 -97.4332 755.288C-94.957 750.336 -91.2164 746.701 -86.7804 743.413C-83.5877 741.032 -80.5109 738.556 -77.2445 736.248C-76.0116 735.363 -74.7051 734.478 -73.3353 733.782C-71.4808 732.824 -69.4998 732.191 -67.4135 732.349C-65.6749 732.486 -63.146 733.319 -62.124 734.857C-61.0071 736.522 -62.2293 738.492 -62.9248 740.041C-63.7783 741.885 -65.0005 743.519 -66.265 745.11C-68.425 747.797 -70.9434 750.452 -72.25 753.666C-72.4818 754.214 -72.6714 754.772 -72.8189 755.352C-74.41 761.505 -69.7527 770.388 -62.8721 764.814C-61.3864 763.623 -60.2379 762.085 -59.0788 760.588C-53.5364 753.455 -46.445 747.459 -42.2829 739.399C-39.6171 734.267 -37.5413 728.872 -35.4866 723.488C-31.6301 713.436 -29.9653 707.377 -29.2277 702.562L-29.2171 702.54L-29.1012 702.351C-28.2794 701.708 66.9217 616.359 123.02 539.882C136.17 521.959 168.392 451.456 183.987 400.289C187.201 389.741 170.426 366.844 160.616 356.666" fill="#FFCFCA"/>
<path fill-rule="evenodd" clip-rule="evenodd" d="M236.394 238.336C252.284 246.45 268.468 253.963 284.758 261.265C289.658 263.456 294.61 265.659 299.868 266.754L301.891 321.968C300.933 322.6 299.911 323.127 298.857 323.57C294.041 335.792 282.145 344.443 268.205 344.443C253.211 344.443 240.567 334.423 236.584 320.714C236.278 320.619 235.983 320.524 235.677 320.44C235.677 319.155 235.667 317.869 235.667 316.584C235.403 314.929 235.266 313.233 235.266 311.505C235.266 309.882 235.393 308.291 235.625 306.721C235.614 304.508 235.604 302.285 235.593 300.062C235.561 291.569 235.519 283.066 234.634 274.615C234.36 272.023 234.023 269.441 233.602 266.87C232.611 260.474 231.262 254.131 229.914 247.788C228.797 242.572 227.69 237.346 226.573 232.141C229.692 234.975 232.622 236.408 236.394 238.336" fill="#FFCFCA"/>
<path fill-rule="evenodd" clip-rule="evenodd" d="M332.691 187.157C331.005 207.82 321.985 227.904 307.234 242.466C300.479 249.125 292.535 254.657 283.705 258.092C274 261.864 263.421 263.044 253.032 262.507C246.889 262.18 240.703 261.253 235.077 258.808C228.323 255.869 222.675 250.895 217.417 245.743C208.429 236.923 200.147 227.271 193.993 216.281C187.85 205.302 183.899 192.91 183.941 180.319C183.952 176.051 184.436 171.71 186.091 167.769C188.293 162.522 192.392 158.328 196.596 154.503C210.494 141.838 226.795 131.47 244.908 126.443C263.642 121.249 283.431 121.944 302.85 122.692C307.771 122.871 312.26 123.841 316.211 126.928C319.435 129.447 321.206 133.714 322.976 137.307C327.844 147.212 331.047 157.949 332.343 168.918C333.06 174.966 333.186 181.088 332.691 187.157" fill="#534741"/>
<path fill-rule="evenodd" clip-rule="evenodd" d="M300.954 296.49C282.777 292.433 265.181 285.795 249.101 276.459C243.98 273.498 238.67 270.316 233.602 266.87C232.611 260.474 231.262 254.131 229.914 247.788C228.797 242.572 227.69 237.346 226.573 232.141C229.692 234.975 232.622 236.408 236.394 238.336C252.284 246.45 268.468 253.963 284.758 261.265C289.658 263.456 294.61 265.659 299.868 266.754L300.954 296.49" fill="#F9BFBB"/>
<path fill-rule="evenodd" clip-rule="evenodd" d="M330.524 177.431C329.386 172.837 327.996 168.306 326.383 163.901C321.315 150.003 311.916 137.211 299.409 128.75C275.374 112.523 241.804 116.496 222.426 137.854C217.832 142.912 214.102 148.707 211.468 154.934C204.945 170.223 204.598 186.672 208.159 202.509C211.278 216.523 217.453 230.052 225.06 241.917C229.749 249.198 235.176 256.068 241.614 261.99C245.291 265.372 249.359 268.438 253.689 271.03C262.382 276.257 272.192 279.618 282.371 279.955C291.569 280.25 300.937 277.827 308.703 272.99C317.459 267.521 322.748 259.113 326.552 249.883C335.888 227.133 336.446 201.234 330.524 177.431" fill="#FFCFCA"/>
<path fill-rule="evenodd" clip-rule="evenodd" d="M229.282 237.061C220.537 241.434 209.473 240.802 201.349 235.333C194.489 230.728 190.011 222.826 189.379 214.607C189.274 213.111 189.284 211.614 189.432 210.108C189.695 207.484 190.37 204.881 191.613 202.563C194.732 196.842 201.507 193.47 207.987 193.986C214.489 194.524 220.463 198.717 223.561 204.449L229.282 237.061" fill="#FFCFCA"/>
<path fill-rule="evenodd" clip-rule="evenodd" d="M256.69 160.1C271.367 157.339 286.077 154.062 299.975 148.857C311.271 144.642 323.768 136.518 326.792 124.306C330.574 109.017 317.73 97.2998 304.938 91.3043C279.976 79.6083 249.114 81.6735 226.322 97.4368C212.487 106.994 202.077 121.229 197.293 137.108C194.553 146.223 193.415 160.005 204.142 164.23C216.607 169.151 232.023 164.536 244.677 162.292C248.66 161.575 252.675 160.859 256.69 160.1" fill="#534741"/>
<path fill-rule="evenodd" clip-rule="evenodd" d="M172.405 163.303C173.68 153.851 177.853 145.116 185.555 140.216C196.735 133.104 213.657 135.106 220.454 147.276C224.89 155.221 224.963 165.347 223.752 174.145C223.193 178.255 222.108 182.364 219.906 185.925C218.43 188.317 213.436 194.492 210.106 194.007C208.989 193.839 207.83 193.691 206.871 193.617C206.682 193.596 206.492 193.586 206.302 193.586C202.889 193.596 199.706 194.46 196.756 196.167C194.554 197.358 192.784 198.981 191.456 201.035C187.262 205.619 180.951 197.706 178.727 194.366C173.354 186.273 170.909 174.303 172.405 163.303" fill="#534741"/>
<path fill-rule="evenodd" clip-rule="evenodd" d="M390.784 506.773C390.647 506.826 390.521 506.899 390.384 506.952C394.409 574.188 396.759 708.271 401.901 764.875C323.432 760.039 207.273 764.443 138.277 756.056C136.412 721.558 138.256 639.981 147.761 532.03C148.688 521.43 149.763 510.545 150.995 499.418C151.038 499.07 151.069 498.733 151.111 498.375L150.964 498.28C140.743 491.294 129.342 485.014 117.91 478.84C101.988 470.241 86.0143 461.865 73.0117 452.118C71.8737 451.254 88.1111 423.384 88.8171 421.919C110.966 375.788 149.215 326.897 201.868 315.612C204.966 314.948 235.249 311.503 235.301 310.133C235.291 310.586 235.28 311.039 235.28 311.503C235.28 329.7 250.021 344.441 268.219 344.441C286.405 344.441 301.147 329.7 301.147 311.503C301.147 311.06 301.136 310.617 301.115 310.185C328.732 315.802 355.085 328.267 376.465 346.454C395.895 362.975 411.352 383.986 421.552 407.336C423.449 411.656 425.198 416.039 426.852 420.465C433.691 438.862 439.012 457.776 444.744 476.521C437.853 481.611 430.256 486.51 422.237 491.136C412.237 496.9 401.564 502.21 390.784 506.773" fill="#150F84"/>
<path fill-rule="evenodd" clip-rule="evenodd" d="M389.92 444.976C391.131 465.555 389.667 486.207 390.784 506.775C401.563 502.202 412.226 496.902 422.237 491.138C417.4 486.081 413.206 480.391 409.813 474.237C401.7 459.528 398.349 442.763 393.871 426.579C389.382 410.383 383.576 394.957 371.448 383.314C384.051 401.048 388.634 423.281 389.92 444.976" fill="black"/>
<path fill-rule="evenodd" clip-rule="evenodd" d="M265.258 174.017C266.564 173.88 267.871 173.986 269.177 174.091C271.475 174.281 273.782 174.47 276.09 174.66C276.848 174.723 277.807 174.681 278.144 173.986C278.302 173.649 278.25 173.238 278.102 172.89C277.544 171.552 275.911 171.109 274.478 170.92C270.937 170.477 267.186 170.719 263.867 172.121C263.214 172.395 259.505 174.091 259.768 174.966C260 175.735 264.52 174.091 265.258 174.017" fill="#211A17"/>
<path fill-rule="evenodd" clip-rule="evenodd" d="M315.526 172.458C314.22 172.416 312.924 172.616 311.628 172.816C309.341 173.174 307.055 173.532 304.779 173.891C304.02 174.007 303.061 174.038 302.682 173.374C302.492 173.037 302.513 172.626 302.629 172.268C303.093 170.898 304.694 170.329 306.106 170.045C309.605 169.339 313.366 169.307 316.78 170.466C317.444 170.688 321.279 172.11 321.079 172.995C320.9 173.785 316.274 172.479 315.526 172.458" fill="#211A17"/>
<path fill-rule="evenodd" clip-rule="evenodd" d="M311.43 233.067C308.848 239.789 304.096 244.426 298.332 244.9C292.779 245.363 287.511 241.855 283.865 236.038C281.368 232.045 279.629 226.976 279.081 221.339L280.167 221.244L312.262 218.6L313.453 218.505C313.822 223.836 313.052 228.863 311.43 233.067" fill="#CE7872"/>
<path fill-rule="evenodd" clip-rule="evenodd" d="M312.264 218.6C308.703 223.995 303.245 227.63 296.891 228.157C290.537 228.684 284.573 225.986 280.169 221.245L312.264 218.6" fill="white"/>
<path fill-rule="evenodd" clip-rule="evenodd" d="M311.432 233.065C308.85 239.787 304.098 244.424 298.334 244.898C292.781 245.361 287.513 241.853 283.867 236.036C285.437 235.004 287.07 234.097 288.788 233.339C293.73 231.137 299.283 230.178 304.625 231.031C307.006 231.411 309.261 232.117 311.432 233.065" fill="#EA8C8B"/>
<path fill-rule="evenodd" clip-rule="evenodd" d="M277.975 194.809C278.112 199.181 275.71 202.806 272.622 202.89C269.535 202.985 266.932 199.519 266.795 195.146C266.669 190.762 269.061 187.148 272.148 187.053C275.235 186.959 277.849 190.436 277.975 194.809" fill="#211A17"/>
<path fill-rule="evenodd" clip-rule="evenodd" d="M273.927 192.266C272.125 192.319 272.21 195.111 274.011 195.059C275.813 195.006 275.729 192.214 273.927 192.266" fill="white"/>
<path fill-rule="evenodd" clip-rule="evenodd" d="M307.807 193.913C307.934 198.286 310.547 201.753 313.634 201.658C316.721 201.563 319.113 197.949 318.987 193.576C318.85 189.193 316.247 185.726 313.16 185.821C310.073 185.916 307.67 189.53 307.807 193.913" fill="#211A17"/>
<path fill-rule="evenodd" clip-rule="evenodd" d="M315.045 190.203C313.254 190.255 313.328 193.048 315.129 192.995C316.931 192.942 316.847 190.139 315.045 190.203" fill="white"/>
<path fill-rule="evenodd" clip-rule="evenodd" d="M298.25 203.744C296.427 202.321 293.593 202.363 291.875 203.912L296.859 212.532C298.25 212.447 299.388 211.288 299.894 209.992C300.747 207.843 300.073 205.166 298.25 203.744" fill="#CE7872"/>
<path fill-rule="evenodd" clip-rule="evenodd" d="M254.226 204.229C246.007 204.798 239.716 210.667 240.18 217.347C240.644 224.028 247.682 228.98 255.901 228.411C264.12 227.842 270.41 221.963 269.947 215.282C269.483 208.602 262.445 203.66 254.226 204.229" fill="#F9BFBB"/>
<path fill-rule="evenodd" clip-rule="evenodd" d="M333.337 208.274C333.084 204.534 329.133 201.752 324.518 202.068C319.902 202.395 316.372 205.693 316.636 209.434C316.899 213.185 320.851 215.966 325.455 215.64C330.07 215.324 333.6 212.026 333.337 208.274" fill="#F9BFBB"/>
<path fill-rule="evenodd" clip-rule="evenodd" d="M163.606 417.484C157.358 444.038 153.133 471.086 150.962 498.282C140.741 491.296 129.34 485.016 117.908 478.841C121.301 476.481 124.599 473.983 127.791 471.339C139.213 461.845 149.171 450.233 154.998 436.567C157.832 429.865 159.107 423.195 163.606 417.484" fill="black"/>
</g>
<path fill-rule="evenodd" clip-rule="evenodd" d="M248.365 2.83444C247.638 2.83444 247.026 2.2549 247.005 1.51732C246.984 0.758659 247.574 0.13698 248.322 0.115906C250.746 0.0421477 253.201 0.0105369 255.635 0C256.383 0 256.994 0.611142 256.994 1.35926C256.994 2.10739 256.394 2.71853 255.635 2.71853C253.233 2.72907 250.799 2.76068 248.407 2.83444H248.365ZM270.179 3.1088H270.105C267.692 2.97182 265.258 2.87699 262.877 2.81377C262.128 2.7927 261.528 2.17102 261.549 1.4229C261.57 0.664237 262.213 0.0425578 262.95 0.0952424C265.353 0.158464 267.818 0.263833 270.252 0.390277C271.001 0.432424 271.57 1.07518 271.538 1.8233C271.496 2.55035 270.895 3.1088 270.179 3.1088ZM233.846 3.67124C233.15 3.67124 232.56 3.1444 232.497 2.43842C232.434 1.67976 232.992 1.02647 233.74 0.963253C236.175 0.752514 238.63 0.573386 241.022 0.436406C241.801 0.394259 242.423 0.97379 242.465 1.72191C242.507 2.47003 241.928 3.11279 241.18 3.15494C238.809 3.29192 236.385 3.46051 233.972 3.67124H233.846ZM284.666 4.32994L284.508 4.3194C282.137 4.05598 279.713 3.81363 277.311 3.61342C276.563 3.5502 276.015 2.89691 276.068 2.14879C276.131 1.40067 276.795 0.863285 277.543 0.905432C279.966 1.10563 282.411 1.34798 284.813 1.62194C285.561 1.6957 286.099 2.37007 286.014 3.11819C285.941 3.81363 285.351 4.32994 284.666 4.32994ZM219.411 5.33093C218.747 5.33093 218.157 4.83569 218.062 4.16133C217.957 3.42374 218.473 2.72831 219.211 2.62294C221.634 2.27522 224.079 1.95911 226.46 1.68515C227.219 1.60085 227.882 2.13824 227.967 2.88636C228.051 3.63448 227.514 4.29831 226.776 4.3826C224.416 4.65656 222.003 4.97267 219.6 5.30985L219.411 5.33093ZM299.058 6.34357L298.827 6.3225C296.477 5.92209 294.064 5.5533 291.682 5.21612C290.945 5.11075 290.429 4.42585 290.534 3.67773C290.639 2.94014 291.324 2.42383 292.062 2.5292C294.475 2.86638 296.909 3.24571 299.29 3.64612C300.028 3.77256 300.523 4.47853 300.397 5.21612C300.291 5.87995 299.712 6.34357 299.058 6.34357ZM205.081 7.80837C204.449 7.80837 203.88 7.36582 203.754 6.72306C203.606 5.98548 204.08 5.26897 204.807 5.12145C207.178 4.63675 209.602 4.18366 211.994 3.77272C212.742 3.64628 213.437 4.14151 213.564 4.8791C213.69 5.61668 213.195 6.32266 212.457 6.4491C210.086 6.86004 207.694 7.31313 205.355 7.78729L205.081 7.80837ZM313.316 9.19855C313.222 9.19855 313.116 9.18801 313.011 9.16693C310.672 8.62955 308.301 8.11324 305.941 7.63908C305.214 7.5021 304.729 6.78559 304.876 6.048C305.024 5.31042 305.74 4.82572 306.478 4.97324C308.859 5.45793 311.262 5.97424 313.622 6.51163C314.36 6.68022 314.813 7.40727 314.644 8.14485C314.497 8.77707 313.938 9.19855 313.316 9.19855ZM190.918 11.1166C190.317 11.1166 189.769 10.7057 189.601 10.1051C189.411 9.378 189.843 8.62988 190.57 8.44022C192.92 7.81854 195.312 7.22847 197.672 6.68055C198.399 6.51196 199.126 6.96505 199.305 7.69209C199.474 8.42968 199.01 9.15673 198.283 9.32532C195.955 9.87324 193.594 10.4528 191.266 11.0639C191.15 11.0955 191.034 11.1166 190.918 11.1166ZM327.392 12.8654C327.266 12.8654 327.139 12.8444 327.013 12.8127C324.684 12.1384 322.345 11.4851 320.037 10.8845C319.31 10.6948 318.878 9.95724 319.068 9.23019C319.258 8.50315 319.995 8.06059 320.722 8.25026C323.051 8.8614 325.422 9.51469 327.771 10.1996C328.488 10.4103 328.899 11.1585 328.699 11.8855C328.52 12.4756 327.982 12.8654 327.392 12.8654ZM176.967 15.225C176.398 15.225 175.871 14.8562 175.681 14.2872C175.449 13.5707 175.839 12.8015 176.545 12.5696C178.863 11.811 181.213 11.0839 183.531 10.399C184.248 10.1883 185.006 10.5992 185.217 11.3263C185.428 12.0428 185.017 12.8015 184.3 13.0122C182.003 13.6866 179.675 14.4031 177.388 15.1512C177.251 15.1933 177.114 15.225 176.967 15.225ZM341.249 17.3443C341.102 17.3443 340.944 17.3232 340.796 17.26C338.541 16.4592 336.234 15.6794 333.926 14.9313C333.209 14.6995 332.82 13.9408 333.051 13.2243C333.273 12.5078 334.042 12.1179 334.758 12.3498C337.098 13.0979 339.426 13.8987 341.702 14.6995C342.408 14.9524 342.777 15.7321 342.535 16.4381C342.334 16.9965 341.808 17.3443 341.249 17.3443ZM163.279 20.1243C162.741 20.1243 162.225 19.7977 162.014 19.2603C161.74 18.5649 162.088 17.7746 162.783 17.5006C165.049 16.6155 167.356 15.7515 169.632 14.9296C170.338 14.6767 171.118 15.0455 171.371 15.7515C171.624 16.4575 171.255 17.2372 170.549 17.4901C168.294 18.3014 166.018 19.1549 163.774 20.0295C163.616 20.0927 163.447 20.1243 163.279 20.1243ZM354.842 22.6122C354.673 22.6122 354.494 22.5806 354.315 22.5068C352.092 21.569 349.826 20.6523 347.593 19.7883C346.897 19.5143 346.549 18.7346 346.823 18.0286C347.087 17.3332 347.877 16.9855 348.583 17.2489C350.838 18.134 353.125 19.0507 355.369 20.0096C356.064 20.2941 356.391 21.0949 356.096 21.7903C355.875 22.3066 355.379 22.6122 354.842 22.6122ZM149.942 25.7936C149.426 25.7936 148.941 25.4985 148.709 24.9928C148.393 24.3184 148.699 23.5071 149.384 23.191C151.586 22.1794 153.83 21.1889 156.043 20.2511C156.738 19.9561 157.539 20.2828 157.824 20.9677C158.119 21.6631 157.803 22.4639 157.107 22.7484C154.915 23.6862 152.692 24.6661 150.511 25.6671C150.332 25.7514 150.132 25.7936 149.942 25.7936ZM368.107 28.6609C367.907 28.6609 367.696 28.6188 367.507 28.5239C365.336 27.4597 363.134 26.4165 360.953 25.4261C360.268 25.11 359.973 24.3091 360.278 23.6242C360.594 22.9393 361.406 22.6443 362.08 22.9499C364.282 23.9509 366.516 25.0046 368.708 26.0794C369.382 26.4165 369.656 27.2279 369.329 27.9022C369.087 28.3869 368.602 28.6609 368.107 28.6609ZM136.938 32.2099C136.454 32.2099 135.98 31.9465 135.737 31.4829C135.389 30.819 135.642 29.9971 136.306 29.6494C138.456 28.5114 140.637 27.3945 142.797 26.3303C143.471 25.9931 144.283 26.2671 144.62 26.9414C144.946 27.6158 144.672 28.4377 143.998 28.7643C141.87 29.818 139.71 30.9244 137.581 32.0518C137.37 32.1572 137.16 32.2099 136.938 32.2099ZM380.995 35.4571C380.764 35.4571 380.542 35.4045 380.321 35.2886C378.235 34.0979 376.096 32.9283 373.967 31.8114C373.303 31.4636 373.05 30.6418 373.398 29.9779C373.746 29.3141 374.568 29.0612 375.232 29.4089C377.381 30.5364 379.541 31.7165 381.659 32.9177C382.312 33.2865 382.544 34.1084 382.175 34.7617C381.923 35.2043 381.469 35.4571 380.995 35.4571ZM124.314 39.3639C123.861 39.3639 123.408 39.1321 123.155 38.7107C122.765 38.0679 122.965 37.2355 123.608 36.8456C125.684 35.5917 127.802 34.3484 129.909 33.1577C130.563 32.7889 131.384 33.0102 131.764 33.6635C132.133 34.3167 131.901 35.1492 131.247 35.518C129.161 36.6981 127.064 37.9309 125.02 39.1743C124.799 39.3007 124.557 39.3639 124.314 39.3639ZM393.459 42.9787C393.206 42.9787 392.953 42.905 392.732 42.7574C390.698 41.4509 388.623 40.1654 386.578 38.9325C385.936 38.5427 385.736 37.7103 386.125 37.0675C386.505 36.4248 387.348 36.214 387.99 36.6039C390.056 37.8472 392.142 39.1538 394.197 40.4709C394.829 40.8819 395.019 41.7143 394.608 42.3465C394.344 42.7574 393.912 42.9787 393.459 42.9787ZM112.125 47.2384C111.682 47.2384 111.261 47.0277 110.997 46.6483C110.576 46.0267 110.734 45.1837 111.345 44.7622C113.347 43.3819 115.391 42.0226 117.425 40.716C118.057 40.3051 118.9 40.4842 119.311 41.1165C119.711 41.7487 119.532 42.5916 118.9 43.0026C116.887 44.2986 114.864 45.6473 112.883 46.9961C112.652 47.1647 112.388 47.2384 112.125 47.2384ZM405.483 51.1885C405.209 51.1885 404.924 51.1043 404.682 50.9357C402.753 49.5237 400.762 48.1223 398.771 46.763C398.149 46.3416 397.991 45.4881 398.412 44.8769C398.834 44.2553 399.687 44.0972 400.298 44.5187C402.321 45.899 404.334 47.311 406.283 48.7334C406.884 49.176 407.021 50.0295 406.578 50.6301C406.315 50.9989 405.904 51.1885 405.483 51.1885ZM100.386 55.7931C99.9747 55.7931 99.5743 55.614 99.3004 55.2662C98.8473 54.6656 98.9527 53.8122 99.5533 53.3591C101.471 51.8734 103.431 50.3982 105.391 48.9757C105.991 48.5332 106.845 48.6596 107.287 49.2707C107.73 49.8713 107.593 50.7248 106.992 51.1674C105.054 52.5793 103.104 54.0334 101.208 55.5086C100.965 55.6983 100.67 55.7931 100.386 55.7931ZM416.999 60.0693C416.703 60.0693 416.398 59.9744 416.145 59.7637C414.28 58.2464 412.373 56.729 410.476 55.2644C409.886 54.8113 409.77 53.9578 410.234 53.3572C410.687 52.7672 411.54 52.6513 412.141 53.1149C414.059 54.59 415.987 56.1179 417.863 57.6563C418.442 58.1305 418.537 58.9945 418.052 59.574C417.789 59.9007 417.399 60.0693 416.999 60.0693ZM89.143 65.0027C88.7637 65.0027 88.3843 64.8447 88.1209 64.5286C87.6257 63.9701 87.6889 63.1061 88.2474 62.6108C90.0913 61.0198 91.9669 59.4392 93.8319 57.9008C94.4115 57.4267 95.2755 57.511 95.7497 58.0905C96.2238 58.6806 96.1395 59.5341 95.56 60.0082C93.7055 61.5255 91.851 63.085 90.0386 64.6655C89.7752 64.8868 89.4591 65.0027 89.143 65.0027ZM428.01 69.5953C427.673 69.5953 427.347 69.4689 427.083 69.2371C425.323 67.6249 423.511 66.0022 421.688 64.4217C421.119 63.937 421.056 63.073 421.551 62.504C422.036 61.935 422.9 61.8718 423.469 62.367C425.313 63.9686 427.146 65.6018 428.927 67.2351C429.475 67.7408 429.517 68.5943 429.011 69.1528C428.737 69.4478 428.369 69.5953 428.01 69.5953ZM78.4347 74.8331C78.0869 74.8331 77.7287 74.6962 77.4653 74.4222C76.9384 73.8848 76.949 73.0313 77.4863 72.5045C79.2249 70.8186 81.0057 69.1221 82.797 67.4784C83.3554 66.9726 84.2089 67.0042 84.7252 67.5627C85.231 68.1106 85.1888 68.9746 84.6409 69.4804C82.8707 71.1136 81.1005 72.7784 79.383 74.4538C79.1196 74.7067 78.7824 74.8331 78.4347 74.8331ZM438.441 79.7235C438.083 79.7235 437.735 79.5866 437.472 79.3126C435.776 77.574 434.058 75.8565 432.351 74.2022C431.814 73.6753 431.793 72.8218 432.319 72.2739C432.846 71.7365 433.7 71.726 434.237 72.2528C435.965 73.9177 437.704 75.6563 439.411 77.416C439.938 77.9533 439.927 78.8068 439.39 79.3337C439.126 79.5866 438.779 79.7235 438.441 79.7235ZM68.3108 85.2643C67.9841 85.2643 67.6575 85.1484 67.394 84.906C66.8356 84.4002 66.804 83.5467 67.3098 82.9883C68.9535 81.197 70.6394 79.4057 72.3253 77.6777C72.8522 77.1403 73.7162 77.1192 74.2536 77.6461C74.791 78.1729 74.8015 79.0264 74.2747 79.5638C72.6098 81.2813 70.945 83.0515 69.3118 84.8217C69.0483 85.1167 68.6796 85.2643 68.3108 85.2643ZM448.283 90.4166C447.903 90.4166 447.524 90.2586 447.261 89.9425C445.68 88.1406 444.057 86.3178 442.435 84.5581C441.929 84.0102 441.961 83.1461 442.519 82.6404C443.067 82.1346 443.931 82.1662 444.437 82.7141C446.081 84.5054 447.714 86.3388 449.305 88.1617C449.8 88.7307 449.737 89.5842 449.168 90.0794C448.915 90.3007 448.599 90.4166 448.283 90.4166ZM58.7872 96.2662C58.4816 96.2662 58.176 96.1608 57.9231 95.9606C57.3436 95.4759 57.2593 94.6224 57.7335 94.0429C59.2613 92.1778 60.8419 90.2917 62.4435 88.4477C62.9387 87.8788 63.7922 87.8155 64.3612 88.3108C64.9302 88.806 64.9934 89.6595 64.4982 90.2285C62.9176 92.0514 61.3476 93.9164 59.8409 95.7604C59.5669 96.0976 59.177 96.2662 58.7872 96.2662ZM457.493 101.649C457.093 101.649 456.693 101.47 456.419 101.122C454.965 99.2469 453.458 97.3397 451.919 95.4747C451.445 94.8846 451.53 94.0311 452.109 93.557C452.689 93.0828 453.542 93.1671 454.027 93.7466C455.576 95.6327 457.104 97.561 458.568 99.4576C459.032 100.048 458.926 100.901 458.326 101.365C458.084 101.554 457.788 101.649 457.493 101.649ZM49.8932 107.783C49.6192 107.783 49.3453 107.699 49.1029 107.52C48.4918 107.077 48.3548 106.234 48.7973 105.623C50.2304 103.653 51.7055 101.682 53.1807 99.7752C53.6443 99.1746 54.4978 99.0692 55.0879 99.5223C55.6885 99.9859 55.7939 100.839 55.3408 101.429C53.8761 103.326 52.4115 105.275 50.9996 107.225C50.7361 107.594 50.3147 107.783 49.8932 107.783ZM466.06 113.378C465.628 113.378 465.196 113.177 464.932 112.798C463.584 110.817 462.182 108.836 460.76 106.897C460.317 106.286 460.454 105.443 461.065 105.001C461.666 104.558 462.519 104.685 462.962 105.296C464.395 107.256 465.807 109.258 467.177 111.249C467.598 111.871 467.451 112.714 466.829 113.146C466.597 113.304 466.323 113.378 466.06 113.378ZM41.6714 119.794C41.4185 119.794 41.1656 119.72 40.9444 119.583C40.3121 119.172 40.1225 118.329 40.5334 117.697C41.8505 115.653 43.2098 113.598 44.5796 111.607C45.0011 110.985 45.844 110.827 46.4657 111.248C47.0874 111.67 47.2454 112.523 46.824 113.134C45.4647 115.115 44.1265 117.138 42.8199 119.172C42.5565 119.573 42.1245 119.794 41.6714 119.794ZM473.929 125.581C473.476 125.581 473.023 125.349 472.77 124.928C471.527 122.873 470.231 120.808 468.935 118.806C468.535 118.173 468.714 117.331 469.346 116.93C469.978 116.519 470.821 116.698 471.221 117.331C472.528 119.364 473.835 121.44 475.089 123.516C475.478 124.158 475.278 124.991 474.635 125.381C474.414 125.518 474.172 125.581 473.929 125.581ZM34.1493 132.26C33.928 132.26 33.6962 132.207 33.4855 132.091C32.8322 131.722 32.6004 130.89 32.9692 130.237C34.1704 128.119 35.4137 125.99 36.6571 123.914C37.047 123.272 37.8794 123.061 38.5327 123.451C39.1754 123.841 39.3756 124.673 38.9858 125.316C37.7529 127.371 36.5201 129.478 35.3294 131.575C35.0871 132.017 34.6235 132.26 34.1493 132.26ZM481.093 138.202C480.608 138.202 480.134 137.939 479.892 137.475C478.764 135.346 477.595 133.218 476.415 131.153C476.046 130.499 476.278 129.667 476.931 129.298C477.584 128.929 478.417 129.151 478.786 129.804C479.976 131.901 481.156 134.05 482.294 136.2C482.642 136.864 482.389 137.686 481.725 138.033C481.525 138.149 481.304 138.202 481.093 138.202ZM27.355 145.146C27.1548 145.146 26.9441 145.104 26.7544 145.009C26.0801 144.672 25.8061 143.861 26.1328 143.186C27.2075 141.005 28.3244 138.803 29.4624 136.664C29.8101 136 30.632 135.747 31.2958 136.095C31.9597 136.443 32.2126 137.265 31.8648 137.928C30.7479 140.046 29.6416 142.227 28.5773 144.388C28.335 144.872 27.8503 145.146 27.355 145.146ZM487.523 151.195C487.006 151.195 486.511 150.9 486.29 150.404C485.289 148.244 484.246 146.053 483.181 143.893C482.855 143.218 483.129 142.407 483.803 142.08C484.467 141.743 485.289 142.017 485.615 142.691C486.701 144.862 487.754 147.085 488.755 149.266C489.071 149.951 488.776 150.763 488.092 151.079C487.902 151.163 487.712 151.195 487.523 151.195ZM21.2959 158.403C21.1273 158.403 20.9481 158.371 20.769 158.297C20.0841 158.002 19.7575 157.212 20.0525 156.516C20.9903 154.272 21.9913 152.017 22.9923 149.804C23.3084 149.13 24.1092 148.825 24.7941 149.141C25.479 149.446 25.7846 150.258 25.4685 150.932C24.4675 153.124 23.4875 155.357 22.5498 157.57C22.339 158.097 21.8332 158.403 21.2959 158.403ZM493.192 164.533C492.644 164.533 492.138 164.206 491.927 163.669C491.063 161.456 490.146 159.212 489.198 156.999C488.914 156.304 489.23 155.513 489.925 155.218C490.61 154.923 491.411 155.25 491.706 155.935C492.654 158.179 493.581 160.445 494.456 162.678C494.73 163.384 494.382 164.164 493.687 164.438C493.529 164.501 493.36 164.533 493.192 164.533ZM16.0155 171.994C15.868 171.994 15.7099 171.973 15.5624 171.92C14.8564 171.667 14.4877 170.888 14.7405 170.182C15.5519 167.895 16.4159 165.577 17.2905 163.312C17.5644 162.616 18.3547 162.268 19.0501 162.532C19.7561 162.806 20.1038 163.596 19.8299 164.291C18.9553 166.546 18.1018 168.833 17.301 171.098C17.1008 171.657 16.574 171.994 16.0155 171.994ZM498.101 178.223C497.532 178.223 496.994 177.864 496.805 177.285C496.067 175.009 495.277 172.712 494.465 170.446C494.213 169.74 494.581 168.961 495.287 168.708C495.993 168.455 496.773 168.824 497.026 169.53C497.848 171.816 498.638 174.145 499.397 176.442C499.629 177.158 499.239 177.928 498.522 178.159C498.385 178.202 498.238 178.223 498.101 178.223ZM11.5383 185.861C11.4119 185.861 11.2749 185.84 11.1484 185.797C10.4319 185.587 10.021 184.839 10.2317 184.112C10.9061 181.793 11.6331 179.444 12.3813 177.126C12.6131 176.42 13.3717 176.03 14.0883 176.251C14.8048 176.483 15.1946 177.252 14.9628 177.968C14.2252 180.266 13.5087 182.584 12.8344 184.881C12.6658 185.471 12.1284 185.861 11.5383 185.861ZM502.222 192.172C501.611 192.172 501.063 191.771 500.905 191.16C500.294 188.832 499.63 186.492 498.955 184.195C498.745 183.468 499.156 182.72 499.872 182.499C500.599 182.288 501.358 182.699 501.568 183.426C502.253 185.744 502.907 188.115 503.528 190.465C503.729 191.192 503.286 191.929 502.57 192.119C502.454 192.151 502.338 192.172 502.222 192.172ZM7.85936 199.929C7.76453 199.929 7.65916 199.919 7.55379 199.897C6.82674 199.718 6.36312 198.991 6.53171 198.264C7.07963 195.904 7.65916 193.523 8.28084 191.162C8.4705 190.435 9.20809 190.003 9.93513 190.193C10.6622 190.383 11.0942 191.12 10.9045 191.847C10.3039 194.186 9.7244 196.547 9.18701 198.875C9.0395 199.497 8.48104 199.929 7.85936 199.929ZM505.519 206.324C504.887 206.324 504.318 205.882 504.192 205.239C503.718 202.9 503.201 200.529 502.653 198.179C502.474 197.442 502.927 196.715 503.665 196.546C504.392 196.377 505.13 196.83 505.298 197.558C505.857 199.928 506.373 202.331 506.858 204.702C507.005 205.439 506.531 206.156 505.793 206.303L505.519 206.324ZM5.00321 214.184L4.77139 214.163C4.03381 214.037 3.53857 213.331 3.66502 212.593C4.06542 210.201 4.51851 207.788 4.99267 205.407C5.14019 204.669 5.8567 204.195 6.59428 204.343C7.33187 204.49 7.80603 205.207 7.65851 205.944C7.18435 208.294 6.7418 210.686 6.3414 213.057C6.22549 213.71 5.6565 214.184 5.00321 214.184ZM508.017 220.653C507.343 220.653 506.763 220.169 506.668 219.484C506.321 217.102 505.941 214.7 505.53 212.35C505.404 211.602 505.899 210.907 506.637 210.77C507.374 210.643 508.08 211.138 508.217 211.876C508.628 214.268 509.018 216.691 509.355 219.104C509.471 219.842 508.955 220.537 508.207 220.643L508.017 220.653ZM2.96972 228.58L2.81166 228.569C2.06354 228.485 1.52616 227.811 1.61045 227.073C1.88441 224.66 2.18999 222.226 2.5377 219.824C2.64307 219.075 3.32797 218.57 4.06556 218.665C4.81368 218.77 5.32999 219.455 5.22462 220.203C4.88744 222.574 4.58187 224.987 4.31844 227.368C4.23415 228.063 3.64408 228.58 2.96972 228.58ZM509.682 235.098C508.987 235.098 508.386 234.561 508.323 233.855C508.123 231.452 507.87 229.039 507.596 226.658C507.512 225.91 508.049 225.235 508.797 225.151C509.545 225.067 510.22 225.604 510.304 226.352C510.578 228.744 510.82 231.189 511.031 233.623C511.105 234.371 510.546 235.024 509.798 235.087L509.682 235.098ZM1.75192 243.067H1.67817C0.930044 243.025 0.350513 242.382 0.392661 241.634C0.529641 239.221 0.698232 236.766 0.898433 234.343C0.961655 233.594 1.62548 233.057 2.3736 233.099C3.12172 233.162 3.68018 233.826 3.61696 234.574C3.41676 236.966 3.24817 239.39 3.11119 241.782C3.06904 242.509 2.46844 243.067 1.75192 243.067ZM510.525 249.619C509.787 249.619 509.186 249.029 509.165 248.291C509.091 245.91 508.986 243.476 508.849 241.063C508.807 240.325 509.376 239.672 510.124 239.63C510.872 239.566 511.515 240.156 511.557 240.915C511.705 243.349 511.81 245.804 511.884 248.217C511.905 248.965 511.315 249.587 510.567 249.608L510.525 249.619ZM1.35926 257.606C0.611142 257.606 0 256.995 0 256.247V256.005C0 253.655 0.0316108 251.274 0.0948323 248.934C0.115906 248.186 0.727048 247.565 1.48571 247.617C2.24436 247.638 2.83443 248.26 2.81336 249.008C2.75014 251.326 2.71853 253.676 2.71853 256.005V256.247C2.71853 256.995 2.10738 257.606 1.35926 257.606ZM510.536 264.635H510.505C509.746 264.614 509.156 263.981 509.177 263.233C509.251 260.82 509.282 258.386 509.282 256.005V255.52C509.282 254.772 509.894 254.161 510.642 254.161C511.39 254.161 512.001 254.772 512.001 255.52V256.005C512.001 258.418 511.969 260.873 511.895 263.307C511.874 264.045 511.274 264.635 510.536 264.635ZM1.77839 272.136C1.06188 272.136 0.461274 271.578 0.419127 270.851C0.282147 268.427 0.176777 265.972 0.103019 263.549C0.081945 262.801 0.672013 262.179 1.43067 262.158H1.46228C2.19987 262.158 2.80047 262.737 2.82155 263.475C2.8953 265.867 3.00067 268.301 3.13765 270.703C3.1798 271.451 2.60027 272.094 1.85215 272.136H1.77839ZM509.724 279.146H509.608C508.86 279.083 508.301 278.43 508.364 277.682C508.575 275.269 508.744 272.845 508.87 270.464C508.912 269.716 509.566 269.168 510.303 269.178C511.062 269.221 511.631 269.863 511.589 270.611C511.452 273.024 511.283 275.479 511.072 277.903C511.02 278.619 510.419 279.146 509.724 279.146ZM3.02433 286.624C2.34997 286.624 1.7599 286.108 1.67561 285.412C1.40165 282.999 1.1593 280.544 0.94856 278.142C0.885339 277.393 1.4438 276.74 2.19192 276.677C2.94004 276.603 3.59333 277.162 3.65655 277.91C3.86729 280.291 4.10964 282.715 4.3836 285.107C4.46789 285.855 3.93051 286.529 3.18239 286.613L3.02433 286.624ZM508.079 293.589L507.889 293.578C507.152 293.473 506.635 292.788 506.73 292.04C507.078 289.658 507.383 287.245 507.657 284.875C507.742 284.126 508.405 283.579 509.154 283.673C509.902 283.758 510.439 284.432 510.355 285.18C510.081 287.572 509.765 290.017 509.427 292.43C509.333 293.104 508.753 293.589 508.079 293.589ZM5.07714 301.02C4.43439 301.02 3.85486 300.556 3.73895 299.892C3.32801 297.49 2.94868 295.056 2.60096 292.674C2.49559 291.926 3.0119 291.241 3.76002 291.136C4.49761 291.031 5.18251 291.536 5.29841 292.284C5.6356 294.645 6.01492 297.047 6.42586 299.428C6.55231 300.166 6.05707 300.872 5.30895 300.998L5.07714 301.02ZM505.626 307.922L505.352 307.901C504.614 307.754 504.14 307.037 504.288 306.3C504.762 303.95 505.204 301.558 505.615 299.187C505.742 298.45 506.458 297.954 507.185 298.081C507.923 298.207 508.418 298.913 508.292 299.651C507.881 302.043 507.428 304.466 506.953 306.837C506.827 307.48 506.258 307.922 505.626 307.922ZM7.96439 315.267C7.35325 315.267 6.7948 314.846 6.64728 314.214C6.08882 311.853 5.57251 309.451 5.08781 307.08C4.9403 306.343 5.41446 305.626 6.15204 305.478C6.88963 305.331 7.60614 305.805 7.75366 306.532C8.22782 308.882 8.74413 311.263 9.29205 313.602C9.46064 314.329 9.00755 315.067 8.2805 315.236C8.17513 315.257 8.06976 315.267 7.96439 315.267ZM502.336 322.093C502.22 322.093 502.115 322.072 501.999 322.051C501.272 321.861 500.829 321.113 501.019 320.386C501.63 318.078 502.209 315.707 502.757 313.368C502.926 312.631 503.653 312.178 504.391 312.346C505.118 312.515 505.571 313.252 505.402 313.979C504.854 316.35 504.264 318.732 503.653 321.071C503.495 321.682 502.947 322.093 502.336 322.093ZM11.6636 329.333C11.0841 329.333 10.5362 328.943 10.3676 328.353C9.68269 326.024 9.01886 323.653 8.40772 321.314C8.20752 320.587 8.65007 319.839 9.37712 319.649C10.1042 319.46 10.8417 319.892 11.0314 320.619C11.6426 322.937 12.2958 325.276 12.9702 327.584C13.1809 328.311 12.77 329.059 12.0535 329.28C11.9271 329.312 11.8006 329.333 11.6636 329.333ZM498.248 336.043C498.111 336.043 497.974 336.022 497.826 335.98C497.12 335.748 496.72 334.979 496.952 334.262C497.7 331.986 498.416 329.668 499.091 327.36C499.301 326.633 500.06 326.222 500.777 326.433C501.493 326.644 501.914 327.403 501.704 328.119C501.019 330.458 500.292 332.808 499.544 335.105C499.354 335.685 498.827 336.043 498.248 336.043ZM16.175 343.156C15.6165 343.156 15.0897 342.808 14.8895 342.25C14.0676 339.953 13.2773 337.635 12.5292 335.338C12.2974 334.621 12.6873 333.852 13.4038 333.62C14.1097 333.388 14.8789 333.778 15.1107 334.495C15.8483 336.76 16.6386 339.068 17.4499 341.344C17.7028 342.05 17.334 342.819 16.6281 343.072C16.4805 343.135 16.3225 343.156 16.175 343.156ZM493.347 349.785C493.179 349.785 493.021 349.754 492.852 349.69C492.157 349.427 491.809 348.637 492.083 347.931C492.958 345.676 493.811 343.389 494.612 341.134C494.865 340.428 495.644 340.06 496.35 340.312C497.056 340.565 497.425 341.345 497.172 342.051C496.361 344.327 495.497 346.645 494.612 348.921C494.401 349.458 493.895 349.785 493.347 349.785ZM21.4528 356.675C20.926 356.675 20.4202 356.369 20.1989 355.853C19.2611 353.629 18.3339 351.353 17.4488 349.099C17.1853 348.403 17.5225 347.613 18.2285 347.339C18.9239 347.065 19.7142 347.413 19.9882 348.108C20.8522 350.342 21.7689 352.586 22.7067 354.789C22.9912 355.484 22.6751 356.274 21.9796 356.569C21.8111 356.643 21.6319 356.675 21.4528 356.675ZM487.67 363.209C487.48 363.209 487.28 363.177 487.101 363.093C486.416 362.777 486.121 361.966 486.426 361.291C487.438 359.089 488.418 356.855 489.356 354.653C489.64 353.958 490.441 353.642 491.136 353.926C491.821 354.221 492.148 355.022 491.853 355.707C490.915 357.941 489.914 360.195 488.903 362.419C488.671 362.914 488.186 363.209 487.67 363.209ZM27.4892 369.858C26.9939 369.858 26.5092 369.585 26.2669 369.1C25.2027 366.94 24.149 364.727 23.1374 362.514C22.8213 361.84 23.1269 361.029 23.8118 360.712C24.4861 360.407 25.2975 360.702 25.6136 361.387C26.6146 363.568 27.6578 365.76 28.7115 367.899C29.0381 368.573 28.7641 369.384 28.0898 369.722C27.9001 369.816 27.6894 369.858 27.4892 369.858ZM481.221 376.283C481.011 376.283 480.789 376.231 480.589 376.125C479.925 375.767 479.673 374.945 480.02 374.281C481.148 372.153 482.265 369.982 483.318 367.833C483.655 367.158 484.467 366.884 485.141 367.211C485.816 367.548 486.089 368.36 485.752 369.034C484.688 371.205 483.571 373.396 482.423 375.556C482.18 376.02 481.706 376.283 481.221 376.283ZM34.2762 382.681C33.802 382.681 33.3384 382.428 33.096 381.985C31.8948 379.878 30.7147 377.728 29.5873 375.589C29.2395 374.925 29.4924 374.104 30.1562 373.756C30.8201 373.408 31.642 373.661 31.9897 374.325C33.1066 376.432 34.2762 378.561 35.4563 380.647C35.8251 381.3 35.5933 382.133 34.94 382.501C34.7293 382.617 34.508 382.681 34.2762 382.681ZM474.047 388.95C473.805 388.95 473.562 388.897 473.341 388.76C472.698 388.37 472.498 387.538 472.888 386.895C474.131 384.84 475.354 382.733 476.544 380.636C476.913 379.993 477.745 379.762 478.399 380.13C479.052 380.499 479.284 381.332 478.915 381.985C477.714 384.103 476.47 386.221 475.206 388.296C474.953 388.718 474.511 388.95 474.047 388.95ZM41.7912 395.103C41.3487 395.103 40.9061 394.882 40.6427 394.471C39.3361 392.437 38.0401 390.362 36.7862 388.286C36.3963 387.643 36.5965 386.811 37.2393 386.421C37.882 386.031 38.7144 386.242 39.1043 386.885C40.3477 388.929 41.6332 390.994 42.9292 393.006C43.3402 393.639 43.161 394.471 42.5288 394.882C42.297 395.03 42.0441 395.103 41.7912 395.103ZM466.165 401.195C465.891 401.195 465.627 401.111 465.396 400.953C464.774 400.531 464.616 399.688 465.037 399.067C466.397 397.086 467.745 395.052 469.052 393.04C469.452 392.407 470.295 392.228 470.927 392.629C471.56 393.04 471.739 393.883 471.338 394.504C470.021 396.548 468.651 398.603 467.282 400.605C467.018 400.984 466.597 401.195 466.165 401.195ZM49.9981 407.072C49.5766 407.072 49.1657 406.883 48.8917 406.514C47.4798 404.575 46.0573 402.563 44.6875 400.55C44.2555 399.939 44.4135 399.085 45.0352 398.664C45.6569 398.243 46.4999 398.401 46.9213 399.022C48.2911 401.003 49.6925 402.995 51.094 404.912C51.5365 405.524 51.3995 406.377 50.7989 406.82C50.5566 406.988 50.2721 407.072 49.9981 407.072ZM457.588 412.954C457.304 412.954 457.009 412.859 456.756 412.669C456.166 412.216 456.06 411.362 456.513 410.762C457.978 408.876 459.443 406.926 460.865 404.977C461.297 404.366 462.151 404.239 462.762 404.682C463.362 405.125 463.499 405.968 463.057 406.579C461.624 408.549 460.149 410.519 458.663 412.427C458.4 412.774 457.999 412.954 457.588 412.954ZM58.8809 418.568C58.4805 418.568 58.0906 418.399 57.8272 418.072C56.2783 416.186 54.7504 414.269 53.2753 412.361C52.8222 411.761 52.9275 410.907 53.5281 410.454C54.1182 409.991 54.9717 410.096 55.4353 410.697C56.8894 412.583 58.3962 414.49 59.9241 416.355C60.3982 416.934 60.3139 417.788 59.7344 418.262C59.4815 418.473 59.1759 418.568 58.8809 418.568ZM448.367 424.205C448.051 424.205 447.735 424.1 447.482 423.879C446.913 423.384 446.85 422.52 447.345 421.961C448.915 420.138 450.485 418.284 452.013 416.429C452.487 415.85 453.34 415.755 453.92 416.24C454.499 416.714 454.584 417.567 454.11 418.147C452.571 420.022 450.991 421.908 449.4 423.742C449.126 424.047 448.746 424.205 448.367 424.205ZM68.3953 429.549C68.0265 429.549 67.6682 429.401 67.3943 429.117C65.761 427.336 64.1278 425.502 62.5367 423.658C62.0415 423.089 62.1047 422.236 62.6632 421.741C63.2322 421.256 64.0962 421.309 64.5809 421.878C66.1614 423.701 67.7841 425.513 69.3963 427.273C69.9021 427.831 69.8704 428.685 69.312 429.19C69.0591 429.433 68.7219 429.549 68.3953 429.549ZM438.527 434.913C438.19 434.913 437.842 434.787 437.578 434.534C437.041 434.007 437.031 433.143 437.557 432.605C439.233 430.888 440.898 429.118 442.52 427.358C443.037 426.8 443.89 426.768 444.449 427.274C444.996 427.78 445.039 428.644 444.522 429.191C442.889 430.983 441.193 432.764 439.507 434.502C439.243 434.776 438.885 434.913 438.527 434.913ZM78.5312 439.981C78.1835 439.981 77.8464 439.854 77.5829 439.591C75.8443 437.905 74.1057 436.167 72.4198 434.428C71.893 433.891 71.9035 433.027 72.4409 432.5C72.9783 431.983 73.8423 431.994 74.3692 432.531C76.0445 434.259 77.7621 435.977 79.4796 437.642C80.017 438.169 80.0275 439.022 79.5006 439.57C79.2372 439.844 78.8895 439.981 78.5312 439.981ZM428.093 445.049C427.735 445.049 427.366 444.902 427.092 444.607C426.586 444.048 426.628 443.195 427.176 442.689C428.936 441.066 430.706 439.401 432.434 437.726C432.971 437.199 433.835 437.21 434.362 437.747C434.879 438.284 434.868 439.148 434.331 439.675C432.582 441.361 430.801 443.058 429.02 444.691C428.757 444.923 428.43 445.049 428.093 445.049ZM89.2366 449.81C88.931 449.81 88.6044 449.705 88.3515 449.483C86.5076 447.882 84.6741 446.249 82.8934 444.605C82.3455 444.099 82.3033 443.246 82.8196 442.687C83.3254 442.139 84.1789 442.097 84.7373 442.613C86.497 444.226 88.3094 445.848 90.1323 447.429C90.7012 447.913 90.7645 448.777 90.2692 449.346C89.9953 449.652 89.6265 449.81 89.2366 449.81ZM417.114 454.563C416.724 454.563 416.334 454.394 416.06 454.068C415.586 453.477 415.67 452.624 416.25 452.15C418.115 450.622 419.98 449.063 421.781 447.493C422.35 447.008 423.204 447.06 423.699 447.629C424.194 448.198 424.131 449.063 423.562 449.547C421.739 451.128 419.853 452.719 417.978 454.257C417.725 454.457 417.419 454.563 417.114 454.563ZM100.502 459.029C100.207 459.029 99.9227 458.934 99.6698 458.744C97.7521 457.259 95.8238 455.731 93.9483 454.193C93.3687 453.718 93.2844 452.854 93.7586 452.275C94.2328 451.695 95.0862 451.611 95.6658 452.085C97.5308 453.602 99.4275 455.12 101.335 456.595C101.925 457.048 102.03 457.901 101.577 458.502C101.314 458.839 100.903 459.029 100.502 459.029ZM405.619 463.437C405.198 463.437 404.787 463.247 404.513 462.878C404.081 462.267 404.207 461.424 404.818 460.982C406.757 459.57 408.707 458.105 410.603 456.651C411.193 456.187 412.047 456.293 412.5 456.893C412.963 457.483 412.858 458.337 412.257 458.8C410.35 460.276 408.38 461.751 406.42 463.173C406.178 463.352 405.893 463.437 405.619 463.437ZM112.261 467.586C111.997 467.586 111.734 467.512 111.502 467.354C109.5 465.984 107.498 464.561 105.528 463.128C104.916 462.686 104.779 461.843 105.222 461.232C105.665 460.621 106.518 460.494 107.119 460.937C109.068 462.349 111.059 463.761 113.03 465.109C113.652 465.531 113.81 466.384 113.388 466.996C113.125 467.385 112.693 467.586 112.261 467.586ZM393.637 471.643C393.184 471.643 392.752 471.422 392.488 471.011C392.088 470.379 392.267 469.546 392.899 469.135C394.901 467.85 396.924 466.501 398.916 465.142C399.527 464.72 400.38 464.879 400.802 465.5C401.223 466.111 401.065 466.965 400.454 467.386C398.442 468.767 396.397 470.115 394.374 471.422C394.142 471.569 393.89 471.643 393.637 471.643ZM124.505 475.47C124.274 475.47 124.031 475.407 123.81 475.28C121.734 474.026 119.648 472.72 117.593 471.403C116.961 471.002 116.782 470.159 117.193 469.527C117.593 468.895 118.436 468.716 119.068 469.116C121.102 470.423 123.167 471.719 125.211 472.952C125.854 473.341 126.065 474.174 125.675 474.817C125.422 475.238 124.969 475.47 124.505 475.47ZM381.216 479.147C380.742 479.147 380.278 478.894 380.025 478.451C379.657 477.798 379.888 476.965 380.542 476.597C382.628 475.417 384.725 474.194 386.769 472.961C387.412 472.572 388.255 472.772 388.644 473.415C389.024 474.057 388.824 474.9 388.181 475.29C386.105 476.533 383.987 477.777 381.88 478.967C381.669 479.083 381.437 479.147 381.216 479.147ZM137.18 482.644C136.969 482.644 136.748 482.592 136.548 482.486C134.419 481.359 132.259 480.179 130.131 478.977C129.478 478.609 129.246 477.776 129.614 477.123C129.983 476.47 130.816 476.238 131.469 476.607C133.566 477.797 135.705 478.967 137.823 480.084C138.487 480.432 138.739 481.253 138.392 481.917C138.139 482.381 137.675 482.644 137.18 482.644ZM368.393 485.922C367.887 485.922 367.402 485.648 367.17 485.164C366.833 484.489 367.118 483.678 367.792 483.341C369.941 482.287 372.101 481.181 374.209 480.064C374.873 479.716 375.695 479.969 376.053 480.633C376.401 481.297 376.148 482.119 375.484 482.466C373.345 483.604 371.164 484.711 368.993 485.785C368.793 485.88 368.593 485.922 368.393 485.922ZM150.255 489.082C150.066 489.082 149.876 489.04 149.697 488.956C147.484 487.944 145.261 486.89 143.069 485.816C142.405 485.489 142.121 484.667 142.458 483.993C142.785 483.329 143.607 483.044 144.271 483.382C146.431 484.435 148.633 485.489 150.824 486.49C151.509 486.796 151.804 487.607 151.499 488.281C151.267 488.787 150.772 489.082 150.255 489.082ZM355.21 491.957C354.672 491.957 354.166 491.641 353.956 491.125C353.661 490.43 353.987 489.639 354.672 489.344C356.853 488.417 359.077 487.448 361.268 486.436C361.953 486.13 362.765 486.426 363.07 487.11C363.386 487.795 363.081 488.596 362.406 488.912C360.183 489.924 357.939 490.914 355.737 491.842C355.557 491.915 355.378 491.957 355.21 491.957ZM163.69 494.751C163.522 494.751 163.353 494.73 163.195 494.667C160.93 493.782 158.643 492.854 156.399 491.906C155.714 491.611 155.387 490.821 155.682 490.125C155.967 489.44 156.768 489.114 157.463 489.398C159.676 490.336 161.941 491.263 164.175 492.127C164.881 492.401 165.229 493.192 164.955 493.887C164.744 494.424 164.228 494.751 163.69 494.751ZM341.681 497.227C341.122 497.227 340.596 496.879 340.395 496.331C340.142 495.625 340.511 494.846 341.228 494.593C343.472 493.781 345.748 492.938 348.003 492.064C348.698 491.79 349.489 492.127 349.763 492.833C350.026 493.529 349.689 494.319 348.983 494.593C346.718 495.478 344.41 496.342 342.134 497.153C341.986 497.206 341.828 497.227 341.681 497.227ZM177.433 499.651C177.296 499.651 177.148 499.63 177.011 499.588C174.703 498.84 172.364 498.039 170.067 497.228C169.361 496.975 168.992 496.195 169.245 495.489C169.498 494.783 170.267 494.414 170.984 494.667C173.249 495.468 175.557 496.258 177.843 496.996C178.56 497.228 178.95 497.997 178.729 498.713C178.539 499.282 178.002 499.651 177.433 499.651ZM327.857 501.726C327.267 501.726 326.719 501.337 326.55 500.746C326.34 500.03 326.751 499.271 327.467 499.061C329.785 498.386 332.103 497.659 334.379 496.922C335.096 496.69 335.865 497.08 336.097 497.796C336.329 498.513 335.939 499.282 335.222 499.514C332.925 500.251 330.576 500.978 328.236 501.674C328.11 501.705 327.983 501.726 327.857 501.726ZM191.381 503.739C191.275 503.739 191.159 503.718 191.043 503.687C188.683 503.076 186.312 502.422 183.994 501.737C183.278 501.527 182.856 500.768 183.067 500.052C183.278 499.335 184.036 498.924 184.763 499.135C187.05 499.799 189.4 500.452 191.728 501.063C192.455 501.253 192.887 501.99 192.698 502.717C192.54 503.328 191.992 503.739 191.381 503.739ZM313.789 505.416C313.168 505.416 312.609 504.994 312.462 504.373C312.293 503.635 312.746 502.908 313.484 502.74C315.802 502.202 318.162 501.612 320.501 501.001C321.228 500.811 321.966 501.243 322.156 501.97C322.356 502.697 321.913 503.435 321.197 503.635C318.837 504.246 316.445 504.836 314.095 505.384C313.99 505.405 313.884 505.416 313.789 505.416ZM205.554 507.005L205.28 506.984C202.899 506.499 200.496 505.983 198.136 505.435C197.409 505.266 196.956 504.539 197.124 503.802C197.293 503.074 198.009 502.621 198.747 502.79C201.076 503.327 203.457 503.844 205.817 504.318C206.555 504.465 207.029 505.182 206.882 505.919C206.755 506.562 206.186 507.005 205.554 507.005ZM299.534 508.291C298.892 508.291 298.312 507.828 298.196 507.164C298.07 506.426 298.565 505.72 299.303 505.594C301.663 505.193 304.055 504.751 306.415 504.266C307.142 504.129 307.869 504.593 308.017 505.33C308.164 506.068 307.69 506.784 306.952 506.932C304.561 507.417 302.148 507.87 299.766 508.281L299.534 508.291ZM219.886 509.462L219.697 509.451C217.294 509.114 214.86 508.724 212.479 508.324C211.731 508.197 211.235 507.491 211.362 506.754C211.488 506.006 212.194 505.51 212.932 505.637C215.303 506.048 217.705 506.417 220.076 506.754C220.824 506.859 221.34 507.555 221.235 508.292C221.14 508.977 220.55 509.462 219.886 509.462ZM285.14 510.355C284.455 510.355 283.876 509.839 283.792 509.143C283.707 508.406 284.245 507.731 284.993 507.647C287.374 507.373 289.787 507.068 292.158 506.72C292.906 506.615 293.591 507.131 293.696 507.879C293.802 508.617 293.285 509.312 292.548 509.417C290.145 509.755 287.701 510.071 285.298 510.345L285.14 510.355ZM234.331 511.094H234.215C231.802 510.883 229.357 510.641 226.944 510.378C226.196 510.293 225.659 509.619 225.743 508.871C225.827 508.123 226.512 507.585 227.25 507.67C229.631 507.944 232.055 508.175 234.447 508.386C235.195 508.449 235.753 509.103 235.69 509.851C235.627 510.557 235.037 511.094 234.331 511.094ZM270.652 511.59C269.936 511.59 269.346 511.032 269.304 510.305C269.262 509.557 269.831 508.914 270.579 508.872C272.971 508.735 275.405 508.566 277.796 508.366C278.524 508.282 279.198 508.851 279.261 509.599C279.324 510.347 278.776 511.011 278.028 511.074C275.605 511.274 273.15 511.453 270.737 511.59H270.652ZM248.851 511.905H248.809C246.385 511.842 243.93 511.737 241.507 511.6C240.759 511.557 240.19 510.915 240.232 510.167C240.274 509.418 240.906 508.849 241.665 508.881C244.057 509.018 246.491 509.123 248.883 509.187C249.631 509.208 250.231 509.829 250.21 510.588C250.189 511.326 249.578 511.905 248.851 511.905ZM256.12 511.999C255.372 511.999 254.761 511.388 254.761 510.639C254.761 509.891 255.372 509.28 256.12 509.28C258.501 509.28 260.936 509.249 263.348 509.175C264.097 509.112 264.729 509.744 264.75 510.502C264.771 511.251 264.181 511.872 263.422 511.893C260.988 511.967 258.533 511.999 256.12 511.999V511.999Z" fill="#FBB03B"/>
</svg>
