<svg width="500" height="500" viewBox="100 0 860 860" fill="none" xmlns="http://www.w3.org/2000/svg">
<mask id="mask0" mask-type="alpha" maskUnits="userSpaceOnUse" x="17" y="17" width="479" height="479">
<path fill-rule="evenodd" clip-rule="evenodd" d="M495.057 256.291C495.057 388.193 388.129 495.111 256.238 495.111C124.337 495.111 17.4187 388.193 17.4187 256.291C17.4187 124.401 124.337 17.4719 256.238 17.4719C388.129 17.4719 495.057 124.401 495.057 256.291" fill="white"/>
</mask>
<g mask="url(#mask0)">
<path fill-rule="evenodd" clip-rule="evenodd" d="M495.057 256.291C495.057 388.193 388.129 495.111 256.238 495.111C124.337 495.111 17.4187 388.193 17.4187 256.291C17.4187 124.401 124.337 17.4719 256.238 17.4719C388.129 17.4719 495.057 124.401 495.057 256.291" fill="#FCE3C3"/>
<path fill-rule="evenodd" clip-rule="evenodd" d="M600.119 825.676C594.261 810.998 588.392 796.32 582.533 781.632C576.906 767.554 571.996 755.416 564.599 742.15C561.554 736.702 557.413 729.569 553.968 724.153C537.498 693.859 521.029 663.565 504.549 633.272C494.128 614.105 483.707 594.938 473.286 575.771C466.437 563.18 459.578 550.546 454.362 537.206C447.903 520.663 444.046 503.235 440.559 485.818C437.977 473.015 435.575 460.139 432.993 447.316C425.48 450.656 417.978 454.028 410.518 457.505C394.523 464.965 378.612 472.741 362.533 480.086C374.713 515.648 388.022 550.662 406.366 583.411C439.126 641.933 487.701 688.021 527.299 742.15C528.732 744.11 528.099 749.989 528.236 752.486C528.668 760.589 527.994 768.671 528.984 776.742C529.986 784.909 531.882 792.959 534.622 800.703C535.865 804.212 539.247 807.436 542.83 804.286C543.157 804.086 543.462 803.843 543.747 803.517C547.298 799.755 547.319 794.602 547.087 789.756C546.834 784.224 547.119 778.987 549.531 773.918C550.185 772.549 551.291 771.253 552.777 770.968C553.683 770.779 554.621 771.01 555.506 771.295C558.456 772.306 560.69 774.14 562.492 776.405C563.44 777.585 564.283 778.892 565.031 780.262C565.758 781.558 566.412 782.896 567.044 784.245C567.824 785.931 568.561 787.617 569.341 789.208C569.488 789.545 569.646 789.861 569.815 790.177C569.952 790.462 570.11 790.757 570.247 791.052C571.195 792.927 572.144 794.792 573.092 796.678C574.81 800.092 576.527 803.506 578.255 806.931C579.751 809.902 581.258 812.884 582.754 815.866C585.389 821.071 588.202 826.909 592.912 830.597C596.431 833.357 602.048 830.523 600.119 825.676" fill="#FFCFCA"/>
<path fill-rule="evenodd" clip-rule="evenodd" d="M160.616 356.666C108.058 356.655 57.723 522.633 56.4375 524.782C55.3417 526.626 -49.2162 680.571 -49.5218 680.94C-49.5218 680.94 -85.0102 716.649 -93.6821 727.387C-99.53 734.668 -105.641 742.191 -109.382 750.789C-113.344 759.893 -115.767 769.492 -118.36 779.049C-118.77 780.545 -119.181 782.084 -119.002 783.622C-118.665 786.393 -115.62 788.806 -112.838 787.542C-106.801 784.834 -104.725 776.921 -102.955 771.168C-101.311 765.804 -99.9621 760.314 -97.4332 755.288C-94.957 750.336 -91.2164 746.701 -86.7804 743.413C-83.5877 741.032 -80.5109 738.556 -77.2445 736.248C-76.0116 735.363 -74.7051 734.478 -73.3353 733.782C-71.4808 732.824 -69.4998 732.191 -67.4135 732.349C-65.6749 732.486 -63.146 733.319 -62.124 734.857C-61.0071 736.522 -62.2293 738.492 -62.9248 740.041C-63.7783 741.885 -65.0005 743.519 -66.265 745.11C-68.425 747.797 -70.9434 750.452 -72.25 753.666C-72.4818 754.214 -72.6714 754.772 -72.8189 755.352C-74.41 761.505 -69.7527 770.388 -62.8721 764.814C-61.3864 763.623 -60.2379 762.085 -59.0788 760.588C-53.5364 753.455 -46.445 747.459 -42.2829 739.399C-39.6171 734.267 -37.5413 728.872 -35.4866 723.488C-31.6301 713.436 -29.9653 707.377 -29.2277 702.562L-29.2171 702.54L-29.1012 702.351C-28.2794 701.708 66.9217 616.359 123.02 539.882C136.17 521.959 168.392 451.456 183.987 400.289C187.201 389.741 170.426 366.844 160.616 356.666" fill="#FFCFCA"/>
<path fill-rule="evenodd" clip-rule="evenodd" d="M236.394 238.336C252.284 246.45 268.468 253.963 284.758 261.265C289.658 263.456 294.61 265.659 299.868 266.754L301.891 321.968C300.933 322.6 299.911 323.127 298.857 323.57C294.041 335.792 282.145 344.443 268.205 344.443C253.211 344.443 240.567 334.423 236.584 320.714C236.278 320.619 235.983 320.524 235.677 320.44C235.677 319.155 235.667 317.869 235.667 316.584C235.403 314.929 235.266 313.233 235.266 311.505C235.266 309.882 235.393 308.291 235.625 306.721C235.614 304.508 235.604 302.285 235.593 300.062C235.561 291.569 235.519 283.066 234.634 274.615C234.36 272.023 234.023 269.441 233.602 266.87C232.611 260.474 231.262 254.131 229.914 247.788C228.797 242.572 227.69 237.346 226.573 232.141C229.692 234.975 232.622 236.408 236.394 238.336" fill="#FFCFCA"/>
<path fill-rule="evenodd" clip-rule="evenodd" d="M332.691 187.157C331.005 207.82 321.985 227.904 307.234 242.466C300.479 249.125 292.535 254.657 283.705 258.092C274 261.864 263.421 263.044 253.032 262.507C246.889 262.18 240.703 261.253 235.077 258.808C228.323 255.869 222.675 250.895 217.417 245.743C208.429 236.923 200.147 227.271 193.993 216.281C187.85 205.302 183.899 192.91 183.941 180.319C183.952 176.051 184.436 171.71 186.091 167.769C188.293 162.522 192.392 158.328 196.596 154.503C210.494 141.838 226.795 131.47 244.908 126.443C263.642 121.249 283.431 121.944 302.85 122.692C307.771 122.871 312.26 123.841 316.211 126.928C319.435 129.447 321.206 133.714 322.976 137.307C327.844 147.212 331.047 157.949 332.343 168.918C333.06 174.966 333.186 181.088 332.691 187.157" fill="#534741"/>
<path fill-rule="evenodd" clip-rule="evenodd" d="M300.954 296.49C282.777 292.433 265.181 285.795 249.101 276.459C243.98 273.498 238.67 270.316 233.602 266.87C232.611 260.474 231.262 254.131 229.914 247.788C228.797 242.572 227.69 237.346 226.573 232.141C229.692 234.975 232.622 236.408 236.394 238.336C252.284 246.45 268.468 253.963 284.758 261.265C289.658 263.456 294.61 265.659 299.868 266.754L300.954 296.49" fill="#F9BFBB"/>
<path fill-rule="evenodd" clip-rule="evenodd" d="M330.524 177.431C329.386 172.837 327.996 168.306 326.383 163.901C321.315 150.003 311.916 137.211 299.409 128.75C275.374 112.523 241.804 116.496 222.426 137.854C217.832 142.912 214.102 148.707 211.468 154.934C204.945 170.223 204.598 186.672 208.159 202.509C211.278 216.523 217.453 230.052 225.06 241.917C229.749 249.198 235.176 256.068 241.614 261.99C245.291 265.372 249.359 268.438 253.689 271.03C262.382 276.257 272.192 279.618 282.371 279.955C291.569 280.25 300.937 277.827 308.703 272.99C317.459 267.521 322.748 259.113 326.552 249.883C335.888 227.133 336.446 201.234 330.524 177.431" fill="#FFCFCA"/>
<path fill-rule="evenodd" clip-rule="evenodd" d="M229.282 237.061C220.537 241.434 209.473 240.802 201.349 235.333C194.489 230.728 190.011 222.826 189.379 214.607C189.274 213.111 189.284 211.614 189.432 210.108C189.695 207.484 190.37 204.881 191.613 202.563C194.732 196.842 201.507 193.47 207.987 193.986C214.489 194.524 220.463 198.717 223.561 204.449L229.282 237.061" fill="#FFCFCA"/>
<path fill-rule="evenodd" clip-rule="evenodd" d="M256.69 160.1C271.367 157.339 286.077 154.062 299.975 148.857C311.271 144.642 323.768 136.518 326.792 124.306C330.574 109.017 317.73 97.2998 304.938 91.3043C279.976 79.6083 249.114 81.6735 226.322 97.4368C212.487 106.994 202.077 121.229 197.293 137.108C194.553 146.223 193.415 160.005 204.142 164.23C216.607 169.151 232.023 164.536 244.677 162.292C248.66 161.575 252.675 160.859 256.69 160.1" fill="#534741"/>
<path fill-rule="evenodd" clip-rule="evenodd" d="M172.405 163.303C173.68 153.851 177.853 145.116 185.555 140.216C196.735 133.104 213.657 135.106 220.454 147.276C224.89 155.221 224.963 165.347 223.752 174.145C223.193 178.255 222.108 182.364 219.906 185.925C218.43 188.317 213.436 194.492 210.106 194.007C208.989 193.839 207.83 193.691 206.871 193.617C206.682 193.596 206.492 193.586 206.302 193.586C202.889 193.596 199.706 194.46 196.756 196.167C194.554 197.358 192.784 198.981 191.456 201.035C187.262 205.619 180.951 197.706 178.727 194.366C173.354 186.273 170.909 174.303 172.405 163.303" fill="#534741"/>
<path fill-rule="evenodd" clip-rule="evenodd" d="M390.784 506.773C390.647 506.826 390.521 506.899 390.384 506.952C394.409 574.188 396.759 708.271 401.901 764.875C323.432 760.039 207.273 764.443 138.277 756.056C136.412 721.558 138.256 639.981 147.761 532.03C148.688 521.43 149.763 510.545 150.995 499.418C151.038 499.07 151.069 498.733 151.111 498.375L150.964 498.28C140.743 491.294 129.342 485.014 117.91 478.84C101.988 470.241 86.0143 461.865 73.0117 452.118C71.8737 451.254 88.1111 423.384 88.8171 421.919C110.966 375.788 149.215 326.897 201.868 315.612C204.966 314.948 235.249 311.503 235.301 310.133C235.291 310.586 235.28 311.039 235.28 311.503C235.28 329.7 250.021 344.441 268.219 344.441C286.405 344.441 301.147 329.7 301.147 311.503C301.147 311.06 301.136 310.617 301.115 310.185C328.732 315.802 355.085 328.267 376.465 346.454C395.895 362.975 411.352 383.986 421.552 407.336C423.449 411.656 425.198 416.039 426.852 420.465C433.691 438.862 439.012 457.776 444.744 476.521C437.853 481.611 430.256 486.51 422.237 491.136C412.237 496.9 401.564 502.21 390.784 506.773" fill="#150F84"/>
<path fill-rule="evenodd" clip-rule="evenodd" d="M389.92 444.976C391.131 465.555 389.667 486.207 390.784 506.775C401.563 502.202 412.226 496.902 422.237 491.138C417.4 486.081 413.206 480.391 409.813 474.237C401.7 459.528 398.349 442.763 393.871 426.579C389.382 410.383 383.576 394.957 371.448 383.314C384.051 401.048 388.634 423.281 389.92 444.976" fill="black"/>
<path fill-rule="evenodd" clip-rule="evenodd" d="M265.258 174.017C266.564 173.88 267.871 173.986 269.177 174.091C271.475 174.281 273.782 174.47 276.09 174.66C276.848 174.723 277.807 174.681 278.144 173.986C278.302 173.649 278.25 173.238 278.102 172.89C277.544 171.552 275.911 171.109 274.478 170.92C270.937 170.477 267.186 170.719 263.867 172.121C263.214 172.395 259.505 174.091 259.768 174.966C260 175.735 264.52 174.091 265.258 174.017" fill="#211A17"/>
<path fill-rule="evenodd" clip-rule="evenodd" d="M315.526 172.458C314.22 172.416 312.924 172.616 311.628 172.816C309.341 173.174 307.055 173.532 304.779 173.891C304.02 174.007 303.061 174.038 302.682 173.374C302.492 173.037 302.513 172.626 302.629 172.268C303.093 170.898 304.694 170.329 306.106 170.045C309.605 169.339 313.366 169.307 316.78 170.466C317.444 170.688 321.279 172.11 321.079 172.995C320.9 173.785 316.274 172.479 315.526 172.458" fill="#211A17"/>
<path fill-rule="evenodd" clip-rule="evenodd" d="M311.43 233.067C308.848 239.789 304.096 244.426 298.332 244.9C292.779 245.363 287.511 241.855 283.865 236.038C281.368 232.045 279.629 226.976 279.081 221.339L280.167 221.244L312.262 218.6L313.453 218.505C313.822 223.836 313.052 228.863 311.43 233.067" fill="#CE7872"/>
<path fill-rule="evenodd" clip-rule="evenodd" d="M312.264 218.6C308.703 223.995 303.245 227.63 296.891 228.157C290.537 228.684 284.573 225.986 280.169 221.245L312.264 218.6" fill="white"/>
<path fill-rule="evenodd" clip-rule="evenodd" d="M311.432 233.065C308.85 239.787 304.098 244.424 298.334 244.898C292.781 245.361 287.513 241.853 283.867 236.036C285.437 235.004 287.07 234.097 288.788 233.339C293.73 231.137 299.283 230.178 304.625 231.031C307.006 231.411 309.261 232.117 311.432 233.065" fill="#EA8C8B"/>
<path fill-rule="evenodd" clip-rule="evenodd" d="M277.975 194.809C278.112 199.181 275.71 202.806 272.622 202.89C269.535 202.985 266.932 199.519 266.795 195.146C266.669 190.762 269.061 187.148 272.148 187.053C275.235 186.959 277.849 190.436 277.975 194.809" fill="#211A17"/>
<path fill-rule="evenodd" clip-rule="evenodd" d="M273.927 192.266C272.125 192.319 272.21 195.111 274.011 195.059C275.813 195.006 275.729 192.214 273.927 192.266" fill="white"/>
<path fill-rule="evenodd" clip-rule="evenodd" d="M307.807 193.913C307.934 198.286 310.547 201.753 313.634 201.658C316.721 201.563 319.113 197.949 318.987 193.576C318.85 189.193 316.247 185.726 313.16 185.821C310.073 185.916 307.67 189.53 307.807 193.913" fill="#211A17"/>
<path fill-rule="evenodd" clip-rule="evenodd" d="M315.045 190.203C313.254 190.255 313.328 193.048 315.129 192.995C316.931 192.942 316.847 190.139 315.045 190.203" fill="white"/>
<path fill-rule="evenodd" clip-rule="evenodd" d="M298.25 203.744C296.427 202.321 293.593 202.363 291.875 203.912L296.859 212.532C298.25 212.447 299.388 211.288 299.894 209.992C300.747 207.843 300.073 205.166 298.25 203.744" fill="#CE7872"/>
<path fill-rule="evenodd" clip-rule="evenodd" d="M254.226 204.229C246.007 204.798 239.716 210.667 240.18 217.347C240.644 224.028 247.682 228.98 255.901 228.411C264.12 227.842 270.41 221.963 269.947 215.282C269.483 208.602 262.445 203.66 254.226 204.229" fill="#F9BFBB"/>
<path fill-rule="evenodd" clip-rule="evenodd" d="M333.337 208.274C333.084 204.534 329.133 201.752 324.518 202.068C319.902 202.395 316.372 205.693 316.636 209.434C316.899 213.185 320.851 215.966 325.455 215.64C330.07 215.324 333.6 212.026 333.337 208.274" fill="#F9BFBB"/>
<path fill-rule="evenodd" clip-rule="evenodd" d="M163.606 417.484C157.358 444.038 153.133 471.086 150.962 498.282C140.741 491.296 129.34 485.016 117.908 478.841C121.301 476.481 124.599 473.983 127.791 471.339C139.213 461.845 149.171 450.233 154.998 436.567C157.832 429.865 159.107 423.195 163.606 417.484" fill="black"/>
</g>
</svg>
