<svg width="80" height="80" viewBox="0 0 80 80" fill="none" xmlns="http://www.w3.org/2000/svg">
<mask id="mask0_77_6407" style="mask-type:alpha" maskUnits="userSpaceOnUse" x="0" y="0" width="80" height="80">
<path fill-rule="evenodd" clip-rule="evenodd" d="M0.000991821 39.9991C0.000991821 62.0908 17.9084 80 40.0002 80C62.0912 80 79.9995 62.0908 79.9995 39.9991C79.9995 17.9092 62.0912 0 40.0002 0C17.9084 0 0.000991821 17.9092 0.000991821 39.9991Z" fill="white"/>
</mask>
<g mask="url(#mask0_77_6407)">
<path fill-rule="evenodd" clip-rule="evenodd" d="M0.000930786 40.0009C0.000930786 62.0908 17.9083 80 40.0002 80C62.0912 80 79.9996 62.0908 79.9996 40.0009C79.9996 17.9092 62.0912 0 40.0002 0C17.9083 0 0.000930786 17.9092 0.000930786 40.0009Z" fill="#5563DA" fill-opacity="0.2"/>
<path fill-rule="evenodd" clip-rule="evenodd" d="M49.2592 71.0041C49.3708 69.4517 50.7199 68.2198 52.3269 68.6645C61.9705 71.33 71.9378 75.8242 76.4266 85.3539C78.1818 89.0801 78.8056 93.229 79.6626 97.2314C80.6217 101.712 81.513 106.206 82.3358 110.711C83.3769 116.415 84.2273 122.149 85.0335 127.889C85.7663 133.104 85.6297 139.513 88.0338 144.203C92.5176 152.951 97.1952 161.862 101.778 170.66C104.129 175.17 106.472 179.687 108.791 184.214C109.923 186.424 111.049 188.639 112.17 190.857C112.715 191.934 113.668 193.216 113.088 194.453C111.95 196.876 108.676 198.213 106.533 199.624C105.901 200.041 105.257 200.464 104.529 200.669C101.208 201.599 98.4049 196.21 96.8223 194.119C94.1162 190.542 91.4549 186.929 88.8394 183.286C83.076 175.256 77.1495 167.058 72.0852 158.464C70.0847 155.07 67.9527 151.617 66.3494 148.026C62.5501 139.51 61.1311 130.118 58.0439 121.332C54.7853 112.056 50.7906 102.679 49.6942 92.8229C48.8888 85.5831 48.7362 78.2687 49.2592 71.0041Z" fill="#D23A64"/>
<path fill-rule="evenodd" clip-rule="evenodd" d="M-8.04559 187.464C-0.945732 192.712 77.5386 193.087 77.5386 189.421C77.5386 175.433 74.3334 159.64 73.3214 145.668C72.458 133.778 69.5011 96.3166 69.1041 89.6939C68.8312 85.0951 68.1119 74.2939 68.1119 74.2939C68.1119 74.2939 61.0965 70.1377 57.4449 68.4284C52.4018 66.0677 47.2048 64.5951 41.7274 63.7683C32.6109 62.3987 23.5342 63.7906 16.8584 65.4692C10.8666 66.9753 6.80676 68.7151 6.38014 68.8989L6.34341 68.9184C6.34341 68.9184 10.1236 70.519 11.0559 76.4959C15.0254 101.915 1.63937 121.93 1.63937 121.93C1.63937 121.93 -1.9939 143.967 -4.07612 155.2C-5.39834 162.335 -9.03725 186.732 -8.04559 187.464Z" fill="#46419E"/>
<path fill-rule="evenodd" clip-rule="evenodd" d="M-28.9911 205.836C-25.7915 206.649 -15.2624 205.572 -14.8818 205.341C-13.1678 204.306 -13.0494 148.424 -10.4249 143.83C-8.97874 141.298 -3.33785 132.028 2.44682 122.242C7.90447 112.997 13.4974 103.288 15.8006 98.3644C20.1137 89.1559 18.2946 67.4191 17.6409 64.9995C11.6623 66.5216 7.61129 68.28 7.18562 68.4657L7.14897 68.4854C3.13466 70.3226 -1.7169 73.7747 -3.74379 75.6485C-17.3569 88.2472 -30.1666 127.467 -32.3345 138.06C-34.9308 150.746 -31.252 205.259 -28.9911 205.836Z" fill="#E57575"/>
<path fill-rule="evenodd" clip-rule="evenodd" d="M55.4782 22.6314C54.957 20.3744 54.1145 18.2873 53.0076 16.6252C50.0472 12.1834 45.0331 8.91586 40.1035 9.74692C35.6255 10.4993 31.6195 12.6336 29.2682 17.3492C26.8076 22.2789 26.8892 28.921 29.8248 33.5642C31.5798 36.3407 33.9828 38.582 36.6711 40.0143C37.4777 40.4425 38.3132 40.7982 39.1687 41.0689C43.7058 42.5106 49.6467 41.8968 53.0972 37.7982C56.3671 33.9168 56.631 27.6178 55.4782 22.6314Z" fill="#F4B94E" fill-opacity="0.85"/>
<path fill-rule="evenodd" clip-rule="evenodd" d="M27.5158 43.5612C27.73 44.7483 27.9397 45.9353 28.1514 47.1224C28.1656 47.1933 28.1772 47.2668 28.1887 47.3377C28.1947 47.3692 28.201 47.4007 28.2071 47.4323C28.4884 49.0054 28.7674 50.5758 28.9597 52.1542C29.04 52.7897 29.1033 53.4279 29.1482 54.0661C29.1996 54.7804 29.2274 55.5 29.2348 56.2143C29.2552 57.5852 29.2177 58.9587 29.1757 60.3296C29.1256 61.9999 29.0778 63.6701 29.028 65.3378C30.0108 66.404 31.3864 67.7434 32.8574 68.9305C35.7208 69.7262 39.0542 70.2541 41.947 70.3591C43.9047 69.2167 45.6407 67.5412 45.3489 66.0048L45.2586 59.9856L45.2544 58.9981L45.2471 56.3877L45.2332 52.6689C43.953 52.3564 42.7545 51.7734 41.567 51.1956C37.6279 49.268 33.7142 47.2904 29.8775 45.1632C29.7741 45.1081 29.6754 45.0529 29.5788 44.9978C28.8075 44.5697 28.1764 44.202 27.5158 43.5612Z" fill="#FFCFCA"/>
<path fill-rule="evenodd" clip-rule="evenodd" d="M45.3811 59.64C40.9169 58.519 36.6218 56.7811 32.7208 54.4055C31.4798 53.6522 30.1928 52.8449 28.9682 51.9759C28.7758 50.4282 28.4933 48.8908 28.2114 47.3534C27.9794 46.091 27.7479 44.8236 27.5158 43.5612C28.2629 44.2682 28.9764 44.6359 29.8929 45.1321C33.7554 47.212 37.6971 49.1479 41.6642 51.035C42.8598 51.6032 44.0661 52.1713 45.3568 52.4773L45.3811 59.64Z" fill="#FEB3AE"/>
<path fill-rule="evenodd" clip-rule="evenodd" d="M54.5285 47.5263C53.6511 50.0339 52.3707 52.344 50.1517 53.9048C48.1837 55.287 45.7656 56.0417 43.3589 56.0661C40.6952 56.0931 38.0899 55.3114 35.7523 54.0157C34.5889 53.3692 33.4906 52.6009 32.4866 51.738C30.7316 50.2313 29.2285 48.4596 27.9139 46.5687C25.7784 43.4877 23.9973 39.9441 23.0091 36.2383C21.8847 32.0482 21.7699 27.6498 23.2849 23.4922C23.8978 21.7961 24.7989 20.2083 25.9378 18.8044C30.7362 12.8777 39.4597 11.4305 45.9383 15.4853C49.3131 17.6007 51.9249 20.9116 53.4218 24.5661C53.8972 25.7238 54.3169 26.9168 54.6711 28.1313C56.5125 34.4205 56.6883 41.3453 54.5285 47.5263Z" fill="#FFCFCA"/>
<path fill-rule="evenodd" clip-rule="evenodd" d="M29.3025 45.4683C27.4486 47.1805 24.8063 47.6241 22.6296 46.5595C20.7907 45.6635 19.3547 43.7118 18.8151 41.4585C18.7179 41.0475 18.6503 40.6305 18.6127 40.2017C18.5489 39.4536 18.5842 38.6907 18.7675 37.975C19.2288 36.2037 20.6667 34.8819 22.2219 34.6631C23.7805 34.4442 25.3908 35.2782 26.3968 36.7005L29.3025 45.4683Z" fill="#FFCFCA"/>
<path fill-rule="evenodd" clip-rule="evenodd" d="M41.2303 34.6275C40.8465 34.6498 40.282 34.3284 40.0863 33.8333C39.983 33.572 40.004 33.3073 40.1436 33.1079C40.1918 33.0374 40.3296 32.8741 40.5631 32.8466L40.5995 32.8431C40.9833 32.8208 41.5474 33.1405 41.7431 33.6356C41.8464 33.8969 41.8258 34.1616 41.6861 34.3627C41.6376 34.4315 41.5002 34.5965 41.2663 34.624L41.2303 34.6275Z" fill="#1F3C49"/>
<path fill-rule="evenodd" clip-rule="evenodd" d="M47.1678 35.676C47.3534 34.8961 47.682 34.5167 48 34.6572C48.3232 34.7766 48.6309 35.5073 48.7951 36.484C48.9669 37.4465 49.0056 38.7252 48.8819 39.7581C48.7648 40.7839 48.5093 41.5918 48.2205 41.7745C48.4127 41.0368 48.5142 40.2288 48.5452 39.4349C48.5763 38.655 48.5237 37.9173 48.4127 37.2638C48.2999 36.6175 48.1367 36.1046 47.9212 35.8235C47.7048 35.5355 47.4484 35.4511 47.1678 35.676Z" fill="#1F3C49"/>
<path fill-rule="evenodd" clip-rule="evenodd" d="M47.4124 27.4738C47.3424 27.4557 47.2777 27.4104 47.2309 27.3334C47.128 27.1613 47.1534 26.9167 47.2877 26.7854C48.1787 25.9204 49.373 25.5354 50.4823 25.7573C50.6446 25.7936 50.7632 25.9883 50.7371 26.2012C50.711 26.414 50.5541 26.5589 50.3869 26.5227C49.4402 26.337 48.421 26.6631 47.6605 27.4013C47.5868 27.4738 47.4964 27.4964 47.4124 27.4738Z" fill="#1F3C49"/>
<path fill-rule="evenodd" clip-rule="evenodd" d="M49.9856 31.0678C48.8114 30.8928 48.5336 32.655 49.7098 32.83C50.8834 33.0049 51.1611 31.2365 49.9856 31.0678Z" fill="white"/>
<path fill-rule="evenodd" clip-rule="evenodd" d="M49.9856 31.0678C48.8114 30.8928 48.5336 32.655 49.7098 32.83C50.8834 33.0049 51.1611 31.2365 49.9856 31.0678Z" fill="#1F3C49"/>
<path fill-rule="evenodd" clip-rule="evenodd" d="M50.7328 41.8507C50.7887 42.5593 50.5454 43.224 50.0848 43.7821C49.3479 44.6793 48.0513 45.2926 46.5343 45.344C44.98 45.3974 43.5649 44.8488 42.698 43.9726C42.1852 43.4602 41.8625 42.8355 41.809 42.1536C41.8069 42.1307 41.8101 42.106 41.8081 42.0793L50.7218 41.7745C50.7238 41.8012 50.7308 41.826 50.7328 41.8507Z" fill="#D55454"/>
<path fill-rule="evenodd" clip-rule="evenodd" d="M50.3599 43.1972C49.8252 44.108 48.8845 44.7307 47.7839 44.7829C46.6561 44.8371 45.6294 44.2801 45.0003 43.3906C46.092 43.114 47.228 42.9825 48.3597 43.0019C49.0314 43.0154 49.7006 43.0811 50.3599 43.1972Z" fill="#F37C7C"/>
<path fill-rule="evenodd" clip-rule="evenodd" d="M50.7407 41.7745C49.7111 42.7932 48.1507 43.4767 46.372 43.5538C44.593 43.6309 42.9574 43.0884 41.8081 42.1628L50.7407 41.7745Z" fill="white"/>
<path fill-rule="evenodd" clip-rule="evenodd" d="M41.7996 39.4698C41.9163 41.4255 40.8151 43.2391 39.3397 43.5233C37.8645 43.8074 36.5737 42.4535 36.457 40.502C36.3402 38.5504 37.4414 36.7368 38.9168 36.4526C40.392 36.1685 41.6828 37.5182 41.7996 39.4698Z" fill="#FEB3AE"/>
<path fill-rule="evenodd" clip-rule="evenodd" d="M56.0917 35.3931C56.2088 35.8805 55.1075 36.3339 53.6321 36.4051C52.1567 36.4778 50.8659 36.139 50.7492 35.6515C50.6324 35.1625 51.7338 34.7091 53.2092 34.6379C54.6842 34.5667 55.975 34.9041 56.0917 35.3931Z" fill="#FEB3AE"/>
<path fill-rule="evenodd" clip-rule="evenodd" d="M56.0861 16.475C56.4065 13.2645 51.2816 9.76467 41.7395 8.15124C34.3646 6.90362 24.5461 9.34698 19.4725 14.6132C16.485 17.7172 14.6798 21.9378 15.0606 26.183C15.3709 29.6555 17.5474 34.3332 19 37.5C20.0538 35.5125 22.394 33.4721 24.6417 34.1764C25.9543 34.5859 27.0287 35.4049 27.8816 36.415C27.9152 32.3664 28.9734 28.4516 28.9718 24.3975C28.9859 24.4794 35.8998 23.5785 36.39 23.5185C40.3901 23.0189 44.3606 22.5275 48.2439 21.4409C49.8993 20.9768 51.5298 20.4363 53.1274 19.8193C54.2985 19.3661 55.9908 17.4305 56.0861 16.475Z" fill="#F4B94E"/>
<path fill-rule="evenodd" clip-rule="evenodd" d="M36.7359 37.6438C37.409 38.2475 38.2757 38.651 39.2459 38.7456C39.9342 38.8123 40.6014 38.715 41.2102 38.484C42.7305 37.9136 43.879 36.5169 44.0457 34.7919C44.2788 32.3768 42.5037 30.2233 40.0914 29.9923C37.6766 29.7586 35.5248 31.531 35.2916 33.946C35.1522 35.3901 35.731 36.7423 36.7359 37.6438ZM44.409 33.2104L46.0829 32.9572C46.0776 32.9099 46.0673 32.8654 46.0617 32.8209L44.3695 33.0602C44.3842 33.1102 44.3968 33.1603 44.409 33.2104ZM50.4933 36.6422C50.6296 36.6533 50.764 36.6589 50.8989 36.6617C51.2348 36.6645 51.5648 36.6255 51.8836 36.5504C52.8722 36.3306 53.7461 35.7685 54.3641 34.9867C54.8727 34.3468 55.2088 33.5594 55.2931 32.6857C55.3304 32.3018 55.3173 31.9289 55.2566 31.5644L55.2569 31.5616C54.9445 29.6363 53.3669 28.0837 51.3388 27.8862C48.9241 27.6525 46.7722 29.4276 46.539 31.8399C46.3059 34.2549 48.0788 36.4085 50.4933 36.6422ZM21.5846 34.2519L22.2212 34.2408L27.5831 34.149L30.6929 34.0961L34.7982 34.0293C34.8024 33.9848 34.8018 33.9431 34.806 33.8986C35.065 31.2164 37.4567 29.2465 40.1392 29.5053C42.0286 29.6861 43.5625 30.9326 44.2147 32.5909L46.0313 32.3321C46.0291 32.1513 46.0363 31.9732 46.0538 31.7951C46.3129 29.1129 48.7048 27.1403 51.387 27.399C52.9796 27.5548 54.3199 28.4674 55.0928 29.7418L55.1891 29.0963C55.2041 28.9933 55.2801 28.921 55.3755 28.8959C55.4055 28.8904 55.4375 28.8876 55.4693 28.8904C55.6022 28.9126 55.6935 29.035 55.6729 29.1714L55.5766 29.8113L55.4704 30.5069C55.4859 30.5486 55.5012 30.5932 55.5168 30.6349C55.7483 31.2887 55.8515 31.9982 55.7806 32.7328C55.6877 33.6927 55.3218 34.5608 54.7675 35.2703C53.9022 36.3721 52.5792 37.0871 51.1157 37.1455L51.0467 37.1483C50.85 37.1539 50.6494 37.1455 50.4474 37.1261C48.332 36.923 46.6637 35.3899 46.1802 33.4367L44.5035 33.6899C44.5558 34.0655 44.5706 34.4467 44.5327 34.8362C44.3494 36.7365 43.0959 38.2807 41.4257 38.9262C41.2674 38.9902 41.1052 39.0431 40.9391 39.0876C40.3871 39.2351 39.8003 39.2879 39.1996 39.2323C38.0616 39.121 37.0541 38.6258 36.2881 37.8912C36.2586 37.8662 36.2297 37.8356 36.2008 37.805C35.3533 36.948 34.8277 35.7822 34.7879 34.5162L31.2034 34.5775L27.5383 34.6387L23.5409 34.7082H23.4549L22.3386 34.7277L21.5938 34.7388H21.5646C21.5379 34.736 21.5115 34.7277 21.4881 34.7166C21.4127 34.6832 21.3587 34.6108 21.3473 34.5218L21.3448 34.4968C21.3429 34.366 21.4494 34.2519 21.5846 34.2519Z" fill="black"/>
<path fill-rule="evenodd" clip-rule="evenodd" d="M27.9042 65.5305C28.0387 67.2525 30.8489 68.6465 34.386 69.4863C37.0711 70.1253 40.1716 70.442 42.8397 70.3402C45.3037 70.2469 47.3953 69.7973 48.4467 68.9095C49.4811 68.0358 49.1355 57.5087 45.5126 57.8904C45.4315 57.8989 45.3127 57.8989 45.1576 57.8904C44.204 57.8537 41.9408 57.537 39.3642 57.1807C36.1666 56.734 32.4879 56.225 30.2416 56.0978C29.108 56.0327 28.3376 56.0638 28.174 56.2505C27.0256 57.5568 27.6832 62.6775 27.9042 65.5305Z" fill="#E57575"/>
</g>
</svg>
