<svg width="12" height="12" viewBox="0 0 12 12" fill="none" xmlns="http://www.w3.org/2000/svg">
<path d="M7.41065 2.01562L0.808079 8.61867C0.774861 8.65198 0.750876 8.69405 0.739454 8.73926L0.00762279 11.6767C-0.0142684 11.7651 0.0117155 11.8591 0.0762469 11.9237C0.125074 11.9725 0.191604 11.9995 0.259657 11.9995C0.280501 11.9995 0.301821 11.997 0.32257 11.9917L3.25999 11.2598C3.30577 11.2484 3.34736 11.2245 3.38058 11.1913L9.98372 4.5887L7.41065 2.01562Z" fill="#999999"/>
<path d="M11.6198 1.11517L10.8848 0.380199C10.3936 -0.11102 9.53743 -0.110544 9.04678 0.380199L8.14648 1.2805L10.7195 3.85347L11.6198 2.95317C11.8651 2.7079 12.0003 2.38143 12.0003 2.03422C12.0003 1.68701 11.8651 1.36054 11.6198 1.11517Z" fill="#999999"/>
</svg>
