<svg width="21" height="19" viewBox="0 0 21 19" fill="none" xmlns="http://www.w3.org/2000/svg">
<path d="M19.3498 7.11377L11.2744 1.26425C11.0382 1.09266 10.7536 1 10.4615 1C10.1694 1 9.8848 1.09253 9.6485 1.26412L1.57285 7.11364C1.21356 7.37473 1.00064 7.79182 1 8.236V16.6141C1.0004 16.9815 1.14651 17.3338 1.4064 17.5936C1.66617 17.8535 2.01845 17.9996 2.38593 18H18.5369C18.9044 17.9996 19.2567 17.8535 19.5164 17.5936C19.7763 17.3338 19.9224 16.9815 19.9228 16.6141V8.236C19.9222 7.79182 19.7092 7.37487 19.3498 7.11377ZM1.89819 7.56268L9.9735 1.71316C10.1153 1.61008 10.2861 1.55464 10.4614 1.55464C10.6367 1.55464 10.8075 1.61008 10.9492 1.71316L19.0246 7.56268C19.0726 7.59779 19.1168 7.63792 19.1564 7.6824L14.3713 11.1483C14.5277 10.0179 14.1872 8.87498 13.4376 8.0145C12.688 7.15388 11.6026 6.65996 10.4614 6.65996C9.32014 6.65996 8.23471 7.15388 7.48513 8.0145C6.73552 8.87498 6.39497 10.0179 6.55139 11.1483L1.76628 7.6824C1.80588 7.63792 1.85015 7.59779 1.89819 7.56268ZM1.55454 16.6142V8.23613C1.55454 8.22874 1.55507 8.22135 1.5552 8.21382L6.71843 11.9538L1.65759 17.015C1.58987 16.8923 1.55441 16.7543 1.55454 16.6142ZM18.5371 17.4458H2.38613C2.27842 17.4458 2.1719 17.4249 2.07224 17.3841L7.17329 12.2831L9.64874 14.0761C9.88501 14.2478 10.1696 14.3402 10.4617 14.3402C10.7538 14.3402 11.0384 14.2477 11.2747 14.0759L13.8133 12.2371L18.9255 17.3493C18.8061 17.4128 18.6725 17.4459 18.5371 17.4458ZM19.3686 16.6142C19.3688 16.7267 19.3459 16.8381 19.3015 16.9413L14.268 11.9078L19.368 8.21382C19.3683 8.22121 19.3687 8.2286 19.3687 8.23612L19.3686 16.6142Z" fill="#5563DA" stroke="#5563DA" stroke-width="0.4"/>
<path d="M12.1999 8.32084C12.1999 8.23574 12.1604 8.15416 12.0901 8.09396C12.0197 8.03376 11.9243 8 11.8249 8H9.07494C8.86781 8 8.69995 8.14362 8.69995 8.32084C8.69995 8.49807 8.86781 8.64168 9.07494 8.64168H9.57496C9.80745 8.64199 10.0342 8.70371 10.224 8.8186C10.414 8.9335 10.5576 9.0959 10.6355 9.28337H9.07494C8.86781 9.28337 8.69995 9.42699 8.69995 9.60422C8.69995 9.78144 8.86781 9.92506 9.07494 9.92506H10.6355C10.5576 10.1125 10.414 10.2749 10.224 10.3898C10.0342 10.5047 9.80744 10.5664 9.57496 10.5667H9.07494C8.92477 10.5667 8.78923 10.6433 8.73013 10.7614C8.6712 10.8795 8.70013 11.0164 8.8037 11.1093L10.8037 12.9008C10.9467 13.0288 11.1842 13.0336 11.334 12.9112C11.4837 12.7888 11.4892 12.5856 11.3462 12.4576L9.92119 11.1811C10.2873 11.1215 10.624 10.9704 10.8894 10.7469C11.1549 10.5232 11.3367 10.2372 11.4117 9.92502H11.8249C12.0321 9.92502 12.1999 9.78141 12.1999 9.60418C12.1999 9.42696 12.0321 9.28334 11.8249 9.28334H11.4123C11.3566 9.05065 11.241 8.8314 11.0739 8.64166H11.825C11.9244 8.64166 12.0198 8.6079 12.0901 8.5477C12.1605 8.48751 12.1999 8.40594 12.1999 8.32084Z" fill="white"/>
<path d="M12.1999 8.32084C12.1999 8.23574 12.1604 8.15416 12.0901 8.09396C12.0197 8.03376 11.9243 8 11.8249 8H9.07494C8.86781 8 8.69995 8.14362 8.69995 8.32084C8.69995 8.49807 8.86781 8.64168 9.07494 8.64168H9.57496C9.80745 8.64199 10.0342 8.70371 10.224 8.8186C10.414 8.9335 10.5576 9.0959 10.6355 9.28337H9.07494C8.86781 9.28337 8.69995 9.42699 8.69995 9.60422C8.69995 9.78144 8.86781 9.92506 9.07494 9.92506H10.6355C10.5576 10.1125 10.414 10.2749 10.224 10.3898C10.0342 10.5047 9.80744 10.5664 9.57496 10.5667H9.07494C8.92477 10.5667 8.78923 10.6433 8.73013 10.7614C8.6712 10.8795 8.70013 11.0164 8.8037 11.1093L10.8037 12.9008C10.9467 13.0288 11.1842 13.0336 11.334 12.9112C11.4837 12.7888 11.4892 12.5856 11.3462 12.4576L9.92119 11.1811C10.2873 11.1215 10.624 10.9704 10.8894 10.7469C11.1549 10.5232 11.3367 10.2372 11.4117 9.92502H11.8249C12.0321 9.92502 12.1999 9.78141 12.1999 9.60418C12.1999 9.42696 12.0321 9.28334 11.8249 9.28334H11.4123C11.3566 9.05065 11.241 8.8314 11.0739 8.64166H11.825C11.9244 8.64166 12.0198 8.6079 12.0901 8.5477C12.1605 8.48751 12.1999 8.40594 12.1999 8.32084Z" fill="white"/>
</svg>
