<svg width="82" height="82" viewBox="0 0 82 82" fill="none" xmlns="http://www.w3.org/2000/svg">
<circle cx="41" cy="41" r="41" fill="black" fill-opacity="0.15"/>
<path d="M23 53.75C23 55.1422 23.5417 56.4777 24.5064 57.4622C25.4709 58.4467 26.7787 59 28.1429 59H53.8571C55.2212 59 56.5291 58.4467 57.4936 57.4622C58.4582 56.4777 59 55.1423 59 53.75V40.625C59 39.2325 58.4583 37.897 57.4936 36.9125C56.5291 35.928 55.2213 35.3747 53.8571 35.3747H52.5713V28.8122C52.5713 24.5922 50.366 20.6927 46.7858 18.5825C43.2056 16.4725 38.7945 16.4725 35.2144 18.5825C31.6342 20.6925 29.4288 24.5923 29.4288 28.8122V35.3747H28.143C26.7789 35.3747 25.471 35.928 24.5066 36.9125C23.5419 37.897 23.0002 39.2324 23.0002 40.625L23 53.75ZM41 51.1248C39.977 51.1248 38.9958 50.7101 38.2727 49.9716C37.5492 49.233 37.1429 48.2317 37.1429 47.1874C37.1429 46.1431 37.5492 45.1415 38.2727 44.403C38.9958 43.6648 39.977 43.2497 41 43.2497C42.023 43.2497 43.0042 43.6647 43.7273 44.403C44.4508 45.1415 44.8571 46.143 44.8571 47.1874C44.8571 48.2317 44.4508 49.233 43.7273 49.9716C43.0042 50.7101 42.023 51.1248 41 51.1248ZM35.8572 28.8123C35.8572 26.9367 36.8375 25.2037 38.4285 24.2659C40.0198 23.328 41.9803 23.328 43.5716 24.2659C45.1626 25.2037 46.1429 26.9368 46.1429 28.8123V35.3748H35.8571L35.8572 28.8123Z" fill="#AAB1EC"/>
</svg>
