<svg width="90" height="90" viewBox="0 0 90 90" fill="none" xmlns="http://www.w3.org/2000/svg">
<g filter="url(#filter0_d_77_5615)">
<circle cx="45" cy="40.9996" r="41" fill="black" fill-opacity="0.15"/>
<path d="M30.2496 30.3141C28.6628 30.3141 27.4289 31.607 27.4289 33.1348C27.4289 34.6627 28.7218 35.9556 30.2496 35.9556H47.8799C46.7633 38.4238 44.2951 40.1869 41.4153 40.1869H31.5425C30.3673 40.1869 29.3682 40.892 28.8981 41.95C28.4865 43.0076 28.7218 44.2419 29.4859 45.0647L49.2906 64.8694C49.8195 65.3982 50.5835 65.6921 51.2886 65.6921C51.9937 65.6921 52.7578 65.3982 53.2866 64.8694C54.4033 63.7527 54.4033 61.9897 53.2866 60.8734L47.3509 54.879L38.4185 45.8875H41.4741C41.9443 45.8875 42.4145 45.8875 42.8257 45.8289C48.2323 45.2411 52.6984 41.245 53.874 36.0147H59.7508C61.3376 36.0147 62.5715 34.7218 62.5715 33.194C62.5715 31.6661 61.2786 30.3732 59.7508 30.3732H53.874C53.5215 28.8454 52.875 27.4348 52.0523 26.142H59.7508C61.3376 26.142 62.5715 24.8491 62.5715 23.3212C62.5715 21.7934 61.2786 20.5005 59.7508 20.5005L41.474 20.5001H30.2494C28.6626 20.5001 27.4286 21.793 27.4286 23.3208C27.4286 24.8487 28.7215 26.1415 30.2494 26.1415H41.474C44.3537 26.1415 46.822 27.9047 47.9387 30.3728H30.2496L30.2496 30.3141Z" fill="#5563DA"/>
</g>
<defs>
<filter id="filter0_d_77_5615" x="0" y="-0.000427246" width="90" height="90" filterUnits="userSpaceOnUse" color-interpolation-filters="sRGB">
<feFlood flood-opacity="0" result="BackgroundImageFix"/>
<feColorMatrix in="SourceAlpha" type="matrix" values="0 0 0 0 0 0 0 0 0 0 0 0 0 0 0 0 0 0 127 0" result="hardAlpha"/>
<feOffset dy="4"/>
<feGaussianBlur stdDeviation="2"/>
<feComposite in2="hardAlpha" operator="out"/>
<feColorMatrix type="matrix" values="0 0 0 0 0 0 0 0 0 0 0 0 0 0 0 0 0 0 0.25 0"/>
<feBlend mode="normal" in2="BackgroundImageFix" result="effect1_dropShadow_77_5615"/>
<feBlend mode="normal" in="SourceGraphic" in2="effect1_dropShadow_77_5615" result="shape"/>
</filter>
</defs>
</svg>
