<svg width="50" height="50" viewBox="0 0 50 50" fill="none" xmlns="http://www.w3.org/2000/svg">
<circle cx="25" cy="25" r="25" fill="#5563DA"/>
<path d="M36.9005 14.1026C36.8985 14.0537 36.8912 14.0053 36.8787 13.9584C36.8721 13.9354 36.8642 13.913 36.855 13.8911C36.8365 13.845 36.8129 13.8015 36.7847 13.7616C36.7763 13.7495 36.7733 13.7349 36.7639 13.7233C36.7589 13.717 36.7516 13.7144 36.7463 13.7083C36.7386 13.6994 36.7341 13.6883 36.7259 13.6799C36.6928 13.6483 36.6565 13.621 36.6176 13.5984C36.6074 13.5919 36.5991 13.5823 36.5886 13.5766C36.5311 13.5453 36.4692 13.5246 36.4055 13.5154C36.3871 13.5126 36.3689 13.5154 36.3504 13.5145C36.305 13.5117 36.2595 13.5148 36.2148 13.5237C36.1913 13.5293 36.1681 13.5366 36.1454 13.5454C36.1239 13.5507 36.1028 13.5573 36.082 13.5653L11.0524 26.0761C10.9475 26.1286 10.8593 26.2138 10.7992 26.3209C10.7391 26.4279 10.7097 26.5519 10.7148 26.6772C10.7199 26.8024 10.7593 26.9231 10.8279 27.024C10.8966 27.1248 10.9913 27.2012 11.1001 27.2434L16.6521 29.3993L17.6143 35.9546C17.632 36.0759 17.6821 36.1889 17.7582 36.2798C17.8344 36.3707 17.9333 36.4356 18.043 36.4663C18.1526 36.4971 18.2681 36.4926 18.3754 36.4532C18.4827 36.4138 18.577 36.3413 18.6468 36.2446L21.7609 31.9328L28.4438 35.6307C28.516 35.6708 28.5952 35.694 28.6761 35.6988C28.7571 35.7037 28.8381 35.6901 28.9139 35.659C28.9898 35.6279 29.0588 35.5799 29.1165 35.5182C29.1742 35.4564 29.2194 35.3822 29.2491 35.3004L36.8651 14.3748L36.8667 14.3705C36.9 14.2863 36.9118 14.1934 36.9005 14.1026ZM30.9327 17.529L17.0827 28.226L12.8334 26.576L30.9327 17.529ZM18.5536 34.3266L17.804 29.2185L31.8813 18.3458L21.1745 30.7019C21.1687 30.7086 21.1672 30.7173 21.1618 30.7242C21.1554 30.7322 21.1465 30.7366 21.1404 30.7451L18.5536 34.3266ZM28.4018 34.1907L22.5531 30.9542L34.6686 16.9725L28.4018 34.1907Z" fill="white"/>
</svg>
