<svg width="36" height="36" viewBox="0 0 36 36" fill="none" xmlns="http://www.w3.org/2000/svg">
<rect width="36" height="36" rx="18" fill="#F6F6F6"/>
<path fill-rule="evenodd" clip-rule="evenodd" d="M20.8883 21.4689L19.1193 20.1121C18.9081 19.9479 18.627 19.9989 18.4689 20.2022C18.3045 20.4135 18.3558 20.6945 18.5593 20.8527L20.3092 22.2079C20.147 22.5234 20.0356 22.8876 20.0356 23.2858C20.0356 24.5598 21.0841 25.6072 22.3749 25.6072C23.6662 25.6072 24.7142 24.5593 24.7142 23.2679C24.7142 22.048 23.7788 21.0452 22.5867 20.9381L22.5939 20.9286H22.3749C21.8082 20.9286 21.2913 21.1299 20.8883 21.4689ZM20.9641 23.2679C20.9641 24.048 21.5948 24.6786 22.3749 24.6786C23.155 24.6786 23.7857 24.048 23.7857 23.2679C23.7857 22.4877 23.155 21.857 22.3749 21.857C21.5947 21.857 20.9641 22.4878 20.9641 23.2679Z" fill="#4D4D4D"/>
<path d="M17.5005 16.2131L20.5664 14.2143C20.997 14.731 21.6429 15.0714 22.375 15.0714C23.6664 15.0714 24.7143 14.0235 24.7143 12.7321C24.7143 11.4408 23.6664 10.3929 22.375 10.3929C21.0837 10.3929 20.0357 11.4408 20.0357 12.7321C20.0357 12.9639 20.0653 13.1836 20.1384 13.4026L16.9433 15.47C16.3407 14.8796 15.5178 14.5 14.6072 14.5C12.7801 14.5 11.2858 15.9944 11.2858 17.8215C11.2858 19.6485 12.7801 21.1429 14.6072 21.1429C16.4343 21.1429 17.9286 19.6485 17.9286 17.8215C17.9286 17.2299 17.7648 16.6885 17.5005 16.2131ZM22.375 11.3214C23.1551 11.3214 23.7858 11.952 23.7858 12.7321C23.7858 13.5122 23.1552 14.1428 22.375 14.1428C21.5949 14.1428 20.9644 13.5123 20.9644 12.7321C20.9644 11.952 21.5949 11.3214 22.375 11.3214ZM14.6072 20.2142C13.2913 20.2142 12.2144 19.1372 12.2144 17.8214C12.2144 16.5056 13.2914 15.4286 14.6072 15.4286C15.923 15.4286 17 16.5057 17 17.8214C17 19.1371 15.9229 20.2142 14.6072 20.2142Z" fill="#4D4D4D"/>
</svg>
