<svg width="14" height="16" viewBox="0 0 14 16" fill="none" xmlns="http://www.w3.org/2000/svg">
<g clip-path="url(#clip0_595_2476)">
<path fill-rule="evenodd" clip-rule="evenodd" d="M9.69579 11.2376L8.04469 9.97125C7.84755 9.81808 7.58523 9.86561 7.43766 10.0554C7.28423 10.2526 7.33212 10.5149 7.52199 10.6625L9.15524 11.9274C9.00391 12.2218 8.89993 12.5618 8.89993 12.9334C8.89993 14.1225 9.87853 15.1001 11.0833 15.1001C12.2885 15.1001 13.2666 14.122 13.2666 12.9167C13.2666 11.7781 12.3936 10.8422 11.2809 10.7422L11.2877 10.7334H11.0833C10.5543 10.7334 10.0719 10.9212 9.69579 11.2376ZM9.76655 12.9167C9.76655 13.6448 10.3552 14.2334 11.0833 14.2334C11.8114 14.2334 12.4 13.6448 12.4 12.9167C12.4 12.1885 11.8114 11.5999 11.0833 11.5999C10.3551 11.5999 9.76655 12.1886 9.76655 12.9167Z" fill="white"/>
<path d="M8.04469 9.97125L9.69579 11.2376C10.0719 10.9212 10.5543 10.7334 11.0833 10.7334H11.2877L11.2809 10.7422C12.3936 10.8422 13.2666 11.7781 13.2666 12.9167C13.2666 14.122 12.2885 15.1001 11.0833 15.1001C9.87853 15.1001 8.89993 14.1225 8.89993 12.9334C8.89993 12.5618 9.00391 12.2218 9.15524 11.9274L7.52199 10.6625C7.33212 10.5149 7.28423 10.2526 7.43766 10.0554M8.04469 9.97125L7.43766 10.0554M8.04469 9.97125C7.84755 9.81808 7.58523 9.86561 7.43766 10.0554M11.0833 14.2334C10.3552 14.2334 9.76655 13.6448 9.76655 12.9167C9.76655 12.1886 10.3551 11.5999 11.0833 11.5999C11.8114 11.5999 12.4 12.1885 12.4 12.9167C12.4 13.6448 11.8114 14.2334 11.0833 14.2334Z" stroke="white" stroke-width="0.2"/>
<path d="M6.53378 6.33222L9.39523 4.46668C9.79717 4.94896 10.4 5.26668 11.0833 5.26668C12.2886 5.26668 13.2666 4.28861 13.2666 3.08335C13.2666 1.87809 12.2886 0.900024 11.0833 0.900024C9.87804 0.900024 8.89997 1.87809 8.89997 3.08335C8.89997 3.29968 8.92754 3.50476 8.99577 3.70909L6.01373 5.63871C5.45127 5.08767 4.68325 4.73338 3.83333 4.73338C2.12807 4.73338 0.733337 6.12812 0.733337 7.83338C0.733337 9.53863 2.12807 10.9334 3.83333 10.9334C5.53859 10.9334 6.93333 9.53863 6.93333 7.83338C6.93333 7.28127 6.78041 6.77593 6.53378 6.33222ZM11.0833 1.76663C11.8114 1.76663 12.4 2.35522 12.4 3.08335C12.4 3.81145 11.8115 4.39996 11.0833 4.39996C10.3552 4.39996 9.76669 3.81148 9.76669 3.08335C9.76669 2.35524 10.3552 1.76663 11.0833 1.76663ZM3.8333 10.0666C2.60517 10.0666 1.60003 9.06137 1.60003 7.83335C1.60003 6.60522 2.60529 5.60008 3.8333 5.60008C5.06143 5.60008 6.06658 6.60533 6.06658 7.83335C6.06658 9.06136 5.06132 10.0666 3.8333 10.0666Z" fill="white" stroke="white" stroke-width="0.2"/>
</g>
<defs>
<clipPath id="clip0_595_2476">
<rect width="14" height="16" fill="white"/>
</clipPath>
</defs>
</svg>
