<svg width="62" height="62" viewBox="0 0 62 62" fill="none" xmlns="http://www.w3.org/2000/svg">
<mask id="mask0_229:4196" style="mask-type:alpha" maskUnits="userSpaceOnUse" x="12" y="4" width="38" height="39">
<path fill-rule="evenodd" clip-rule="evenodd" d="M12.3322 23.5609C12.3322 33.8656 20.6852 42.2195 30.9901 42.2195C41.2945 42.2195 49.6479 33.8656 49.6479 23.5609C49.6479 13.2569 41.2945 4.90309 30.9901 4.90309C20.6852 4.90309 12.3322 13.2569 12.3322 23.5609Z" fill="white"/>
</mask>
<g mask="url(#mask0_229:4196)">
<path fill-rule="evenodd" clip-rule="evenodd" d="M12.3322 23.5617C12.3322 33.8656 20.6852 42.2195 30.9901 42.2195C41.2946 42.2195 49.6481 33.8656 49.6481 23.5617C49.6481 13.2569 41.2946 4.90309 30.9901 4.90309C20.6852 4.90309 12.3322 13.2569 12.3322 23.5617Z" fill="#FCE3C3"/>
<path fill-rule="evenodd" clip-rule="evenodd" d="M34.5682 29.6706C34.6014 29.208 35.0038 28.8409 35.4831 28.9734C38.3592 29.7678 41.332 31.1071 42.6708 33.9472C43.1942 35.0576 43.3803 36.2941 43.6359 37.4869C43.9219 38.8221 44.1877 40.1615 44.4331 41.5041C44.7436 43.204 44.9973 44.913 45.2377 46.6236C45.4563 48.1778 45.4155 50.0876 46.1325 51.4854C47.4698 54.0924 48.8649 56.7481 50.2318 59.37C50.9329 60.7142 51.6317 62.0602 52.3234 63.4094C52.6611 64.0679 52.9968 64.7281 53.3311 65.3892C53.4938 65.7102 53.778 66.0922 53.605 66.461C53.2654 67.1829 52.2889 67.5813 51.6498 68.002C51.4615 68.1263 51.2695 68.2523 51.0521 68.3132C50.0618 68.5906 49.2257 66.9845 48.7537 66.3614C47.9466 65.2953 47.1529 64.2186 46.3728 63.1328C44.6539 60.7398 42.8863 58.2965 41.3759 55.7355C40.7793 54.7238 40.1434 53.6948 39.6653 52.6247C38.5321 50.0868 38.1089 47.2879 37.1882 44.6693C36.2163 41.905 35.0249 39.1102 34.6979 36.1731C34.4577 34.0155 34.4122 31.8356 34.5682 29.6706Z" fill="#D23A64"/>
<path fill-rule="evenodd" clip-rule="evenodd" d="M11.5749 69.5703C12.5092 69.8082 15.5839 69.4929 15.695 69.4254C16.1955 69.1225 16.2301 52.7721 16.9965 51.4278C17.4188 50.6869 19.066 47.9745 20.7552 45.1114C22.3489 42.4064 23.9821 39.5655 24.6547 38.125C25.9142 35.4306 25.383 29.0706 25.1921 28.3627C23.4462 28.808 22.2633 29.3225 22.139 29.3768L22.1283 29.3826C20.9561 29.9201 19.5393 30.9302 18.9475 31.4785C14.9722 35.1647 11.2316 46.6401 10.5986 49.7394C9.84041 53.4512 10.9147 69.4015 11.5749 69.5703Z" fill="#D23A64"/>
<path fill-rule="evenodd" clip-rule="evenodd" d="M17.9357 64.4377C20.0044 65.9894 42.8726 66.1005 42.8726 65.0164C42.8726 60.8798 41.9386 56.2098 41.6438 52.0782C41.3922 48.5623 40.5306 37.4845 40.415 35.5262C40.3355 34.1662 40.1259 30.9722 40.1259 30.9722C40.1259 30.9722 38.0818 29.7432 37.0178 29.2378C35.5484 28.5397 34.0341 28.1042 32.4382 27.8597C29.7819 27.4547 27.1372 27.8663 25.1921 28.3627C23.4462 28.808 22.2633 29.3225 22.139 29.3769L22.1283 29.3826C22.1283 29.3826 23.2297 29.856 23.5014 31.6234C24.658 39.14 20.7577 45.0588 20.7577 45.0588C20.7577 45.0588 19.699 51.5752 19.0923 54.8968C18.7071 57.0067 17.6468 64.2212 17.9357 64.4377Z" fill="#150F84"/>
<path fill-rule="evenodd" clip-rule="evenodd" d="M36.3821 15.3527C36.2233 14.7624 35.9664 14.2167 35.629 13.782C34.7265 12.6205 33.198 11.766 31.6953 11.9833C30.3301 12.1801 29.1089 12.7382 28.3922 13.9713C27.6421 15.2605 27.6669 16.9974 28.5618 18.2116C29.0968 18.9377 29.8294 19.5238 30.6489 19.8984C30.8948 20.0103 31.1495 20.1033 31.4103 20.1741C32.7934 20.5512 34.6044 20.3906 35.6563 19.3188C36.6531 18.3038 36.7336 16.6566 36.3821 15.3527Z" fill="#32334C"/>
<path fill-rule="evenodd" clip-rule="evenodd" d="M27.9055 21.1126C27.9727 21.4847 28.0385 21.8568 28.1049 22.2289C28.1094 22.2511 28.113 22.2742 28.1166 22.2964C28.1185 22.3063 28.1205 22.3161 28.1224 22.326C28.2106 22.8191 28.2981 23.3114 28.3585 23.8061C28.3837 24.0053 28.4035 24.2054 28.4176 24.4054C28.4337 24.6293 28.4424 24.8549 28.4447 25.0788C28.4512 25.5085 28.4394 25.939 28.4262 26.3687C28.4105 26.8923 28.3955 27.4158 28.3799 27.9386C28.6882 28.2728 29.1197 28.6926 29.5811 29.0647C30.4793 29.3141 31.5249 29.4796 32.4323 29.5125C33.0464 29.1544 33.591 28.6292 33.4994 28.1477L33.4711 26.2609L33.4698 25.9514L33.4675 25.1331L33.4631 23.9675C33.0616 23.8695 32.6856 23.6868 32.3131 23.5057C31.0775 22.9014 29.8499 22.2816 28.6463 21.6148C28.6139 21.5975 28.5829 21.5802 28.5527 21.5629C28.3107 21.4287 28.1127 21.3135 27.9055 21.1126Z" fill="#FFCFCA"/>
<path fill-rule="evenodd" clip-rule="evenodd" d="M33.4714 26.2609C32.0808 25.902 30.7429 25.3455 29.5277 24.5849C29.1411 24.3437 28.7402 24.0852 28.3587 23.8069C28.2988 23.3114 28.2108 22.8191 28.123 22.3268C28.0507 21.9227 27.9786 21.5168 27.9063 21.1126C28.139 21.339 28.3613 21.4567 28.6468 21.6156C29.8499 22.2816 31.0778 22.9014 32.3136 23.5057C32.686 23.6876 33.0618 23.8695 33.4639 23.9675L33.4714 26.2609Z" fill="#F9BFBB"/>
<path fill-rule="evenodd" clip-rule="evenodd" d="M36.2121 22.5976C35.9465 23.3607 35.559 24.0637 34.8875 24.5387C34.2919 24.9593 33.5601 25.189 32.8317 25.1964C32.0255 25.2046 31.2371 24.9667 30.5296 24.5724C30.1775 24.3757 29.8451 24.1419 29.5413 23.8793C29.0102 23.4208 28.5553 22.8816 28.1574 22.3062C27.5111 21.3686 26.9721 20.2902 26.673 19.1624C26.3327 17.8872 26.298 16.5487 26.7565 15.2835C26.942 14.7673 27.2147 14.2841 27.5593 13.8569C29.0116 12.0532 31.6516 11.6128 33.6123 12.8468C34.6337 13.4906 35.4241 14.4981 35.8771 15.6103C36.021 15.9626 36.148 16.3256 36.2552 16.6953C36.8125 18.6092 36.8657 20.7166 36.2121 22.5976Z" fill="#FFCFCA"/>
<path fill-rule="evenodd" clip-rule="evenodd" d="M28.7122 21.9696C28.1027 22.4462 27.2342 22.5697 26.5187 22.2734C25.9142 22.0239 25.4422 21.4806 25.2648 20.8533C25.2328 20.7389 25.2106 20.6228 25.1983 20.5035C25.1773 20.2952 25.1889 20.0828 25.2491 19.8836C25.4008 19.3905 25.8734 19.0225 26.3846 18.9616C26.897 18.9007 27.4263 19.1329 27.757 19.5288L28.7122 21.9696Z" fill="#FFCFCA"/>
<path fill-rule="evenodd" clip-rule="evenodd" d="M32.1171 19.3529C32.0162 19.3636 31.8678 19.2096 31.8163 18.9725C31.7892 18.8474 31.7947 18.7206 31.8314 18.6251C31.8441 18.5914 31.8803 18.5132 31.9417 18.5L31.9513 18.4984C32.0522 18.4877 32.2005 18.6408 32.252 18.8779C32.2791 19.003 32.2737 19.1298 32.237 19.2261C32.2242 19.259 32.1881 19.338 32.1266 19.3512L32.1171 19.3529Z" fill="#1F3C49"/>
<path fill-rule="evenodd" clip-rule="evenodd" d="M35.136 18.8941C35.0506 18.9031 34.8996 18.7673 34.8473 18.5269C34.821 18.4059 34.8263 18.2833 34.8618 18.1903C34.8875 18.1228 34.9255 18.0791 34.9663 18.0709L34.9751 18.0692C35.0604 18.0602 35.2115 18.1952 35.2638 18.4364C35.29 18.5574 35.2848 18.6801 35.2493 18.7731C35.2236 18.8406 35.1855 18.8834 35.1448 18.8924L35.136 18.8941Z" fill="#1F3C49"/>
<path fill-rule="evenodd" clip-rule="evenodd" d="M33.6427 19.5272C33.7174 19.4359 33.8495 19.3914 33.9774 19.4079C34.1073 19.4219 34.2311 19.5075 34.2971 19.6219C34.3662 19.7347 34.3817 19.8845 34.332 20.0055C34.2849 20.1257 34.1822 20.2204 34.066 20.2418C34.1433 20.1553 34.1841 20.0607 34.1966 19.9677C34.2091 19.8763 34.1879 19.7898 34.1433 19.7133C34.098 19.6376 34.0324 19.5775 33.9457 19.5445C33.8587 19.5108 33.7556 19.5009 33.6427 19.5272Z" fill="#1F3C49"/>
<path fill-rule="evenodd" clip-rule="evenodd" d="M31.198 17.4536C31.18 17.4479 31.1645 17.4347 31.1561 17.4158C31.1402 17.3804 31.1561 17.3384 31.1917 17.3227C31.4523 17.2059 31.7647 17.2034 32.0275 17.3153C32.0633 17.331 32.08 17.3721 32.0646 17.4084C32.0493 17.4438 32.0079 17.4602 31.972 17.4454C31.7446 17.3474 31.4747 17.3507 31.2494 17.4512C31.2325 17.4594 31.2142 17.4594 31.198 17.4536Z" fill="#1F3C49"/>
<path fill-rule="evenodd" clip-rule="evenodd" d="M34.2302 16.9909C34.214 16.9876 34.1991 16.9794 34.1884 16.9654C34.1646 16.9341 34.1705 16.8897 34.2014 16.8658C34.4067 16.7086 34.6818 16.6386 34.9373 16.6789C34.9747 16.6855 35.002 16.7209 34.996 16.7596C34.99 16.7983 34.9538 16.8246 34.9153 16.8181C34.6973 16.7843 34.4625 16.8436 34.2873 16.9778C34.2703 16.9909 34.2495 16.995 34.2302 16.9909Z" fill="#1F3C49"/>
<path fill-rule="evenodd" clip-rule="evenodd" d="M32.0202 18.6522C31.8706 18.6291 31.8352 18.8621 31.9851 18.8843C32.1346 18.9074 32.17 18.6744 32.0202 18.6522Z" fill="white"/>
<path fill-rule="evenodd" clip-rule="evenodd" d="M35.0871 18.1887C34.9374 18.1656 34.9021 18.3978 35.052 18.4208C35.2015 18.4439 35.2369 18.2109 35.0871 18.1887Z" fill="white"/>
<path fill-rule="evenodd" clip-rule="evenodd" d="M35.2983 20.65C35.3142 20.9563 35.245 21.2436 35.1141 21.4848C34.9047 21.8725 34.5363 22.1376 34.1051 22.1598C33.6634 22.1828 33.2613 21.9458 33.0149 21.5671C32.8692 21.3456 32.7775 21.0756 32.7623 20.7809C32.7617 20.771 32.7626 20.7603 32.762 20.7488L35.2952 20.6171C35.2957 20.6286 35.2977 20.6393 35.2983 20.65Z" fill="#D55454"/>
<path fill-rule="evenodd" clip-rule="evenodd" d="M35.1924 20.623C34.9241 20.9383 34.5175 21.1498 34.0541 21.1737C33.5905 21.1976 33.1644 21.0296 32.8649 20.7432L35.1924 20.623Z" fill="white"/>
<path fill-rule="evenodd" clip-rule="evenodd" d="M35.1143 21.4849C34.9048 21.8726 34.5364 22.1377 34.1053 22.1599C33.6635 22.183 33.2614 21.9459 33.015 21.5672C33.4426 21.4495 33.8875 21.3935 34.3308 21.4017C34.5939 21.4075 34.856 21.4355 35.1143 21.4849Z" fill="#F37C7C"/>
<path fill-rule="evenodd" clip-rule="evenodd" d="M32.3093 20.3777C32.3506 20.7629 31.9608 21.1202 31.4386 21.1762C30.9164 21.2321 30.4595 20.9654 30.4182 20.581C30.3769 20.1965 30.7667 19.8393 31.2889 19.7833C31.8111 19.7273 32.2679 19.9932 32.3093 20.3777Z" fill="#F9BFBB"/>
<path fill-rule="evenodd" clip-rule="evenodd" d="M36.36 19.4292C36.388 19.6885 36.1248 19.9297 35.7721 19.9676C35.4194 20.0063 35.1109 19.826 35.083 19.5667C35.0551 19.3066 35.3183 19.0654 35.671 19.0275C36.0236 18.9896 36.3321 19.1691 36.36 19.4292Z" fill="#F9BFBB"/>
<path fill-rule="evenodd" clip-rule="evenodd" d="M36.3689 13.7375C36.4624 12.7694 34.9667 11.7141 32.1817 11.2276C30.0293 10.8514 27.1637 11.5881 25.6829 13.1761C24.811 14.112 24.2841 15.3847 24.3952 16.6648C24.4858 17.7119 24.946 18.7409 25.3699 19.6958C25.6775 19.0965 26.5356 18.8627 27.1916 19.0751C27.5747 19.1986 27.8882 19.4455 28.1372 19.7501C28.147 18.5293 28.4558 17.3489 28.4553 16.1264C28.4595 16.1511 30.4774 15.8795 30.6204 15.8613C31.7879 15.7107 32.9467 15.5625 34.0801 15.2349C34.5632 15.0949 35.0391 14.932 35.5054 14.7459C35.8472 14.6093 36.3411 14.0256 36.3689 13.7375Z" fill="#32334C"/>
<path fill-rule="evenodd" clip-rule="evenodd" d="M30.8979 19.8901C31.097 20.0688 31.3534 20.1881 31.6405 20.2161C31.8441 20.2359 32.0415 20.2071 32.2216 20.1387C32.6714 19.97 33.0113 19.5567 33.0606 19.0464C33.1295 18.3318 32.6043 17.6947 31.8906 17.6263C31.1762 17.5572 30.5395 18.0816 30.4705 18.7961C30.4293 19.2233 30.6005 19.6234 30.8979 19.8901ZM33.1681 18.5786L33.6633 18.5037C33.6618 18.4897 33.6587 18.4765 33.6571 18.4633L33.1564 18.5341C33.1608 18.5489 33.1645 18.5638 33.1681 18.5786ZM34.9683 19.5938C35.0086 19.5971 35.0484 19.5988 35.0883 19.5996C35.1876 19.6004 35.2853 19.5889 35.3796 19.5666C35.6721 19.5016 35.9307 19.3353 36.1135 19.104C36.264 18.9147 36.3634 18.6817 36.3884 18.4232C36.3994 18.3096 36.3955 18.1993 36.3776 18.0915L36.3777 18.0907C36.2852 17.521 35.8185 17.0617 35.2184 17.0032C34.504 16.9341 33.8673 17.4593 33.7983 18.173C33.7294 18.8875 34.2539 19.5247 34.9683 19.5938ZM26.4151 18.8868L26.6034 18.8835L28.1898 18.8563L29.1099 18.8407L30.3245 18.8209C30.3258 18.8077 30.3256 18.7954 30.3268 18.7822C30.4035 17.9887 31.1111 17.4058 31.9048 17.4824C32.4638 17.5359 32.9176 17.9047 33.1106 18.3953L33.648 18.3188C33.6474 18.2652 33.6495 18.2126 33.6547 18.1599C33.7313 17.3663 34.4391 16.7827 35.2326 16.8592C35.7038 16.9053 36.1004 17.1753 36.329 17.5524L36.3575 17.3614C36.362 17.3309 36.3844 17.3095 36.4127 17.3021C36.4216 17.3005 36.431 17.2996 36.4404 17.3005C36.4798 17.307 36.5068 17.3433 36.5007 17.3836L36.4722 17.5729L36.4407 17.7787C36.4454 17.7911 36.4499 17.8043 36.4545 17.8166C36.523 18.0101 36.5535 18.22 36.5325 18.4373C36.505 18.7213 36.3968 18.9781 36.2328 19.1881C35.9768 19.514 35.5854 19.7256 35.1524 19.7429L35.1319 19.7437C35.0737 19.7454 35.0144 19.7429 34.9546 19.7371C34.3287 19.677 33.8352 19.2234 33.6921 18.6456L33.196 18.7205C33.2115 18.8316 33.2159 18.9444 33.2047 19.0596C33.1504 19.6219 32.7796 20.0788 32.2854 20.2697C32.2386 20.2887 32.1906 20.3043 32.1414 20.3175C31.9781 20.3611 31.8045 20.3767 31.6268 20.3603C31.2901 20.3274 30.992 20.1808 30.7654 19.9635C30.7566 19.9561 30.7481 19.947 30.7395 19.938C30.4888 19.6844 30.3333 19.3395 30.3215 18.965L29.261 18.9831L28.1766 19.0012L26.9939 19.0218H26.9684L26.6382 19.0275L26.4178 19.0308H26.4092C26.4013 19.03 26.3934 19.0275 26.3865 19.0242C26.3642 19.0144 26.3482 18.993 26.3449 18.9666L26.3441 18.9592C26.3436 18.9205 26.3751 18.8868 26.4151 18.8868Z" fill="black"/>
<path fill-rule="evenodd" clip-rule="evenodd" d="M27.6966 28.226C27.7424 28.7273 28.6982 29.1331 29.9013 29.3776C30.8146 29.5637 31.8692 29.6559 32.7767 29.6262C33.6148 29.5991 34.3262 29.4682 34.6838 29.2097C35.0356 28.9553 34.9181 25.8906 33.6858 26.0017C33.6582 26.0042 33.6178 26.0042 33.5651 26.0017C33.2407 25.991 32.4709 25.8988 31.5946 25.7951C30.507 25.665 29.2557 25.5168 28.4917 25.4798C28.1061 25.4609 27.8441 25.4699 27.7884 25.5242C27.3978 25.9046 27.6215 27.3954 27.6966 28.226Z" fill="#D23A64"/>
</g>
<path fill-rule="evenodd" clip-rule="evenodd" d="M31.5962 3.7771C31.6534 3.7771 31.7006 3.73183 31.7023 3.6742C31.704 3.61493 31.6579 3.56637 31.5992 3.56472C31.4105 3.55896 31.2183 3.55649 31.0283 3.55566H31.0281C30.9695 3.55566 30.922 3.60341 30.9219 3.66186C30.9218 3.7203 30.9693 3.76805 31.0279 3.76805C31.216 3.76887 31.4062 3.77134 31.593 3.7771H31.5962ZM29.8925 3.79793H29.8985C30.0866 3.78723 30.2766 3.77982 30.463 3.77488C30.5216 3.77324 30.5679 3.72467 30.5663 3.66622C30.5648 3.60778 30.5176 3.5625 30.4602 3.5625H30.4573C30.269 3.56744 30.077 3.57567 29.8869 3.58555C29.8282 3.58884 29.7835 3.63906 29.7867 3.6975C29.7897 3.7543 29.8366 3.79793 29.8925 3.79793ZM32.7302 3.84207C32.7848 3.84207 32.8311 3.80091 32.8359 3.74493C32.8409 3.68649 32.7976 3.63545 32.7392 3.63051C32.5486 3.61405 32.357 3.60005 32.1696 3.58935C32.1107 3.5877 32.0609 3.63051 32.0575 3.68978C32.0542 3.74823 32.0989 3.79844 32.1574 3.80173C32.3428 3.81244 32.5324 3.82561 32.721 3.84207H32.7302ZM28.7603 3.89316L28.7723 3.89233C28.958 3.87175 29.1472 3.85282 29.3346 3.83718C29.393 3.83224 29.4365 3.7812 29.4316 3.72276C29.4268 3.66431 29.3758 3.6215 29.317 3.62562C29.1275 3.64126 28.9364 3.66019 28.7486 3.6816C28.6903 3.68736 28.6484 3.74004 28.6549 3.79849C28.661 3.85282 28.707 3.89316 28.7603 3.89316ZM33.8587 3.97214C33.9106 3.97214 33.956 3.93345 33.9636 3.88077C33.972 3.82314 33.9318 3.76881 33.8736 3.76058C33.6842 3.73342 33.4937 3.70872 33.3073 3.68732C33.2495 3.67991 33.1963 3.72271 33.1896 3.78116C33.183 3.83961 33.2249 3.89147 33.2832 3.89806C33.4675 3.91946 33.656 3.94415 33.8434 3.9705L33.8587 3.97214ZM27.6355 4.05122L27.6534 4.04958C27.8377 4.01829 28.0255 3.98948 28.2117 3.96314C28.2698 3.95491 28.3103 3.9014 28.302 3.84295C28.2939 3.78533 28.2405 3.74499 28.1821 3.75323C27.9939 3.77957 27.8041 3.8092 27.6178 3.84048C27.5599 3.85036 27.5211 3.90552 27.5309 3.96314C27.5398 4.015 27.5847 4.05122 27.6355 4.05122ZM34.9778 4.16563C35.0272 4.16563 35.0715 4.13105 35.0817 4.08084C35.0933 4.02322 35.0563 3.96724 34.9988 3.95571C34.8135 3.91785 34.6247 3.88245 34.4375 3.85034C34.3798 3.84047 34.3248 3.87916 34.3148 3.93678C34.3048 3.9944 34.3435 4.04956 34.4013 4.05944C34.5864 4.09154 34.7733 4.12694 34.9565 4.16398L34.9778 4.16563ZM26.5215 4.27442C26.5294 4.27442 26.5374 4.27359 26.5455 4.27195C26.7284 4.22996 26.9142 4.18963 27.0978 4.15258C27.1554 4.14188 27.1927 4.0859 27.1811 4.02828C27.1696 3.97066 27.1134 3.93279 27.0562 3.94431C26.8705 3.98218 26.6827 4.02252 26.4978 4.0645C26.4407 4.07767 26.4049 4.13447 26.4181 4.1921C26.4294 4.24149 26.4732 4.27442 26.5215 4.27442ZM36.0842 4.42425C36.1312 4.42425 36.1742 4.39215 36.1868 4.3444C36.2017 4.28842 36.1679 4.22998 36.1112 4.21516C35.9275 4.16659 35.741 4.12049 35.5568 4.07769C35.4997 4.06451 35.4427 4.09991 35.4293 4.15671C35.416 4.21351 35.4516 4.27114 35.5087 4.28431C35.6909 4.32711 35.8753 4.37239 36.057 4.42014C36.0661 4.4226 36.0752 4.42425 36.0842 4.42425ZM25.4223 4.56066C25.4322 4.56066 25.4423 4.55902 25.4521 4.55655C25.6331 4.50386 25.8164 4.45282 25.9968 4.4059C26.0536 4.39108 26.0876 4.33346 26.0728 4.27666C26.058 4.21986 26.0001 4.18611 25.9433 4.2001C25.7608 4.24785 25.5756 4.29889 25.3928 4.35239C25.3365 4.36886 25.304 4.4273 25.3205 4.4841C25.334 4.5302 25.3764 4.56066 25.4223 4.56066ZM37.1739 4.74514C37.2186 4.74514 37.2603 4.71633 37.2748 4.67187C37.2931 4.6159 37.2627 4.5558 37.2069 4.53769C37.0264 4.47842 36.8428 4.42162 36.6614 4.36811C36.6049 4.35165 36.5461 4.38375 36.5295 4.44055C36.513 4.49653 36.5452 4.5558 36.6014 4.57227C36.7809 4.62495 36.9625 4.68093 37.141 4.73938C37.1519 4.74267 37.1631 4.74514 37.1739 4.74514ZM24.34 4.9106C24.3516 4.9106 24.3639 4.90895 24.3754 4.90401C24.5516 4.84145 24.7319 4.78053 24.9122 4.72209C24.9681 4.70398 24.9986 4.64471 24.9805 4.58873C24.9624 4.53275 24.9031 4.50229 24.8471 4.5204C24.6652 4.57885 24.4825 4.64059 24.3038 4.70398C24.2487 4.72373 24.2199 4.78465 24.2396 4.83981C24.2553 4.88343 24.2964 4.9106 24.34 4.9106ZM38.2432 5.12801C38.2857 5.12801 38.3258 5.10249 38.3421 5.06051C38.3636 5.00618 38.3365 4.94444 38.2819 4.92304C38.1051 4.85389 37.9251 4.78638 37.7471 4.72218C37.692 4.70242 37.6312 4.73123 37.6113 4.78638C37.5916 4.84154 37.6203 4.90246 37.6754 4.92221C37.8516 4.9856 38.0297 5.05228 38.2046 5.1206C38.2173 5.12554 38.2304 5.12801 38.2432 5.12801ZM23.2772 5.3222C23.2911 5.3222 23.3051 5.31973 23.3183 5.31396C23.4928 5.2407 23.6698 5.16908 23.8435 5.10158C23.8987 5.08018 23.9258 5.01926 23.9044 4.9641C23.883 4.90977 23.8221 4.88261 23.767 4.90401C23.5908 4.97234 23.4122 5.04395 23.236 5.11887C23.1825 5.14109 23.157 5.20365 23.1792 5.25799C23.1965 5.29832 23.236 5.3222 23.2772 5.3222ZM39.2855 5.57073C39.3257 5.57073 39.3642 5.54768 39.382 5.50817C39.4065 5.45548 39.3831 5.3921 39.3298 5.3674C39.1571 5.28837 38.9818 5.21099 38.8089 5.13773C38.755 5.11468 38.6926 5.1402 38.6696 5.19371C38.6467 5.24804 38.672 5.3106 38.7259 5.33283C38.897 5.40609 39.0704 5.48265 39.2413 5.56085C39.2556 5.56744 39.2706 5.57073 39.2855 5.57073ZM22.2416 5.79464C22.2573 5.79464 22.2729 5.79135 22.2877 5.78394C22.4581 5.7008 22.6302 5.6193 22.7997 5.54192C22.8533 5.51723 22.8771 5.45466 22.8524 5.40116C22.8286 5.34765 22.7652 5.3246 22.7117 5.34847C22.5404 5.42667 22.3659 5.50899 22.1947 5.59296C22.142 5.6193 22.1198 5.68269 22.1461 5.73537C22.1642 5.77324 22.2021 5.79464 22.2416 5.79464ZM40.3013 6.07213C40.3393 6.07213 40.3761 6.05155 40.3952 6.01533C40.4227 5.96346 40.4029 5.89926 40.3511 5.87209C40.183 5.78318 40.0123 5.69593 39.8439 5.61278C39.7914 5.58644 39.7277 5.60784 39.7017 5.66053C39.6757 5.71321 39.6974 5.77742 39.7499 5.80294C39.9165 5.88526 40.0854 5.9717 40.2516 6.05978C40.2674 6.06801 40.2845 6.07213 40.3013 6.07213ZM21.2347 6.32568C21.252 6.32568 21.2701 6.32157 21.2866 6.31251C21.4512 6.21949 21.6184 6.12812 21.7838 6.04086C21.8357 6.01369 21.8554 5.94948 21.8283 5.89762C21.8003 5.84576 21.7361 5.826 21.6842 5.85317C21.5179 5.94125 21.3483 6.03345 21.1821 6.12729C21.131 6.15611 21.1129 6.22114 21.1417 6.27218C21.1615 6.30675 21.1977 6.32568 21.2347 6.32568ZM41.2873 6.63103C41.3232 6.63103 41.3583 6.61292 41.3783 6.57999C41.4087 6.52978 41.3926 6.46475 41.3424 6.43429C41.1812 6.33633 41.0157 6.23919 40.8507 6.14617C40.7996 6.11736 40.7348 6.13464 40.706 6.18568C40.677 6.23672 40.6949 6.30175 40.7459 6.33056C40.9092 6.42359 41.0728 6.51908 41.2324 6.61621C41.2496 6.62609 41.2686 6.63103 41.2873 6.63103ZM20.2602 6.91338C20.2799 6.91338 20.2997 6.90762 20.3178 6.8961C20.4767 6.79402 20.638 6.69359 20.7977 6.59728C20.8479 6.56682 20.8644 6.50179 20.8339 6.45157C20.8035 6.40136 20.7384 6.38489 20.6882 6.41535C20.5269 6.51249 20.3631 6.61456 20.2025 6.71746C20.1531 6.74957 20.1392 6.8146 20.1713 6.86399C20.191 6.8961 20.2256 6.91338 20.2602 6.91338ZM42.2405 7.24611C42.2744 7.24611 42.3076 7.22965 42.3282 7.20001C42.3613 7.15144 42.349 7.08559 42.3007 7.05266C42.1444 6.94482 41.9846 6.83863 41.826 6.73655C41.7766 6.70445 41.711 6.71844 41.6791 6.76866C41.6473 6.81723 41.6615 6.88308 41.7108 6.91519C41.8679 7.01644 42.0259 7.12099 42.1805 7.22718C42.1989 7.24035 42.2199 7.24611 42.2405 7.24611ZM19.3219 7.55466C19.3433 7.55466 19.3655 7.54807 19.3837 7.5349C19.5351 7.42459 19.6907 7.31511 19.8463 7.20892C19.8949 7.17599 19.9072 7.11013 19.8743 7.06156C19.8414 7.01299 19.7747 7.00065 19.7269 7.03357C19.5697 7.14059 19.4125 7.25172 19.2593 7.36285C19.2116 7.39743 19.2009 7.46411 19.2355 7.51103C19.2569 7.53984 19.289 7.55466 19.3219 7.55466ZM43.1575 7.9146C43.1893 7.9146 43.2207 7.90061 43.2416 7.87344C43.2775 7.82652 43.2689 7.75984 43.2225 7.72445C43.0724 7.60837 42.9188 7.49313 42.7663 7.38199C42.7189 7.34742 42.6524 7.3573 42.618 7.40504C42.5834 7.45197 42.5938 7.51865 42.6412 7.55322C42.7921 7.66353 42.944 7.77713 43.0926 7.89238C43.112 7.9072 43.1348 7.9146 43.1575 7.9146ZM18.421 8.24873C18.4449 8.24873 18.4688 8.24132 18.4877 8.22486C18.6334 8.10632 18.7824 7.98778 18.9314 7.87335C18.9775 7.83795 18.9857 7.77128 18.9504 7.72435C18.9141 7.67825 18.8475 7.6692 18.8013 7.70542C18.6515 7.82149 18.5009 7.94085 18.3535 8.06022C18.3083 8.09808 18.3017 8.16476 18.3387 8.21004C18.3593 8.23556 18.3906 8.24873 18.421 8.24873ZM44.0357 8.63411C44.0655 8.63411 44.0949 8.62176 44.1159 8.59707C44.1544 8.55262 44.1497 8.48594 44.1054 8.44725C43.962 8.32294 43.8152 8.19946 43.6692 8.07928C43.6238 8.04223 43.5568 8.04882 43.5198 8.09409C43.4825 8.14019 43.4892 8.20687 43.5346 8.24392C43.679 8.36246 43.8243 8.48429 43.9662 8.60777C43.9863 8.62506 44.011 8.63411 44.0357 8.63411ZM17.5619 8.99285C17.5874 8.99285 17.6138 8.98379 17.6335 8.96486C17.7718 8.83809 17.9134 8.71214 18.0558 8.58866C18.1003 8.55079 18.1052 8.48329 18.0665 8.43884C18.0279 8.39438 17.9612 8.39027 17.9167 8.42813C17.7735 8.55244 17.6294 8.68086 17.4903 8.80845C17.4467 8.84796 17.4442 8.91464 17.4837 8.95827C17.5043 8.98132 17.5331 8.99285 17.5619 8.99285ZM44.8717 9.40193C44.8994 9.40193 44.927 9.39123 44.9478 9.36982C44.9887 9.32784 44.9878 9.26034 44.9457 9.22C44.8093 9.08747 44.6697 8.95493 44.5309 8.82734C44.4878 8.78782 44.4205 8.79029 44.3809 8.83392C44.3412 8.87673 44.344 8.94423 44.3872 8.98375C44.5245 9.11052 44.6627 9.24058 44.7977 9.37229C44.8183 9.39205 44.845 9.40193 44.8717 9.40193ZM16.7468 9.78393C16.774 9.78393 16.802 9.77323 16.8226 9.75183C16.9543 9.61682 17.0885 9.48264 17.2226 9.35258C17.2646 9.31142 17.2654 9.24474 17.2251 9.20193C17.184 9.15995 17.1165 9.15913 17.0745 9.20029C16.9395 9.33117 16.8028 9.467 16.6703 9.60365C16.6299 9.64564 16.6308 9.71231 16.6727 9.75347C16.6933 9.77323 16.7197 9.78393 16.7468 9.78393ZM45.6632 10.2169C45.6889 10.2169 45.7146 10.2078 45.735 10.1889C45.7782 10.1494 45.7812 10.0827 45.7415 10.0391C45.6133 9.89913 45.4814 9.76001 45.3494 9.62418C45.3085 9.5822 45.2412 9.58055 45.1992 9.62171C45.1571 9.66287 45.1562 9.72955 45.1971 9.77153C45.3277 9.90654 45.4582 10.0448 45.5849 10.1823C45.6059 10.2054 45.6345 10.2169 45.6632 10.2169ZM15.9781 10.6196C16.0077 10.6196 16.0374 10.6072 16.0579 10.5825C16.1814 10.4409 16.3074 10.2994 16.4341 10.1619C16.4745 10.1191 16.4712 10.0516 16.4284 10.0121C16.3847 9.97172 16.3181 9.97502 16.2785 10.0178C16.1501 10.1569 16.0217 10.3002 15.8974 10.4434C15.8595 10.4879 15.8637 10.5554 15.9081 10.5932C15.9287 10.6105 15.9534 10.6196 15.9781 10.6196ZM46.4074 11.0763C46.4311 11.0763 46.4548 11.0681 46.4746 11.0525C46.52 11.0146 46.5267 10.9479 46.4895 10.9026C46.3699 10.7561 46.2461 10.6096 46.1215 10.4655C46.0832 10.4211 46.0161 10.4161 45.9718 10.4548C45.9274 10.4935 45.9227 10.5602 45.9611 10.6046C46.0842 10.7471 46.2067 10.8919 46.3251 11.0368C46.3461 11.0632 46.3766 11.0763 46.4074 11.0763ZM15.2576 11.4971C15.2897 11.4971 15.321 11.4831 15.3416 11.456C15.456 11.3078 15.5746 11.1588 15.6939 11.0147C15.731 10.9686 15.7244 10.902 15.6791 10.8649C15.633 10.8279 15.5663 10.8345 15.5293 10.8797C15.4091 11.0263 15.2897 11.1761 15.1737 11.3259C15.1374 11.372 15.1465 11.4387 15.1926 11.4749C15.2123 11.4897 15.2346 11.4971 15.2576 11.4971ZM47.1016 11.9762C47.1232 11.9762 47.145 11.9696 47.1639 11.9556C47.2113 11.9211 47.2218 11.8552 47.1873 11.8075C47.0759 11.6543 46.9606 11.5004 46.8447 11.3506C46.8088 11.3037 46.7421 11.2954 46.6957 11.3308C46.6493 11.367 46.6407 11.4337 46.6765 11.4798C46.7912 11.6288 46.9053 11.7811 47.0155 11.9326C47.0363 11.9614 47.0687 11.9762 47.1016 11.9762ZM14.5895 12.4141C14.6232 12.4141 14.6562 12.3976 14.6768 12.368C14.7838 12.2124 14.8933 12.0577 15.0027 11.907C15.0373 11.8601 15.0274 11.7934 14.9797 11.7588C14.9319 11.7243 14.8661 11.735 14.8315 11.7819C14.7204 11.9342 14.6093 12.0906 14.5014 12.247C14.4685 12.2956 14.4808 12.3623 14.5294 12.3952C14.5475 12.4075 14.5689 12.4141 14.5895 12.4141ZM47.7439 12.9144C47.7635 12.9144 47.7835 12.9087 47.8012 12.898C47.8506 12.8659 47.8648 12.8 47.8331 12.7506C47.7308 12.5918 47.6244 12.4312 47.517 12.2748C47.4838 12.2263 47.4178 12.2139 47.3694 12.2468C47.321 12.2798 47.3086 12.3456 47.3417 12.3942C47.448 12.5498 47.5532 12.7086 47.6545 12.8659C47.6747 12.8972 47.709 12.9144 47.7439 12.9144ZM13.9733 13.3666C14.0095 13.3666 14.0449 13.3484 14.0647 13.3155C14.1618 13.1558 14.2622 12.9945 14.3635 12.8372C14.3956 12.7879 14.3816 12.722 14.3322 12.6907C14.2828 12.6586 14.217 12.6726 14.1857 12.722C14.0828 12.8809 13.9807 13.0439 13.8827 13.2052C13.8523 13.2554 13.8687 13.3213 13.919 13.3509C13.9362 13.3616 13.9552 13.3666 13.9733 13.3666ZM48.3317 13.8885C48.3494 13.8885 48.3674 13.8844 48.3839 13.8753C48.435 13.8465 48.453 13.7815 48.4241 13.7304C48.3307 13.565 48.2335 13.3987 48.1356 13.2365C48.1053 13.1863 48.04 13.1698 47.9898 13.2003C47.9396 13.2308 47.9234 13.2958 47.9538 13.346C48.0506 13.5065 48.1467 13.6712 48.2392 13.835C48.2587 13.8696 48.2947 13.8885 48.3317 13.8885ZM13.4147 14.3526C13.4526 14.3526 13.4897 14.3321 13.5086 14.2958C13.5967 14.1295 13.6881 13.9633 13.7794 13.8019C13.8082 13.7509 13.791 13.6858 13.7399 13.657C13.6889 13.6282 13.6238 13.6455 13.595 13.6965C13.502 13.8604 13.4098 14.0283 13.3209 14.1962C13.2929 14.2481 13.3127 14.3123 13.3645 14.3403C13.381 14.3485 13.3975 14.3526 13.4147 14.3526ZM48.863 14.8951C48.8787 14.8951 48.8947 14.8918 48.9098 14.8843C48.9624 14.858 48.9841 14.7946 48.9582 14.7419C48.8745 14.5715 48.7871 14.4003 48.6983 14.2324C48.671 14.1805 48.6068 14.1608 48.5548 14.1879C48.503 14.2151 48.4831 14.2793 48.5106 14.3312C48.5983 14.4974 48.6848 14.667 48.7676 14.8358C48.7861 14.8736 48.8238 14.8951 48.863 14.8951ZM12.9124 15.3679C12.9528 15.3679 12.9906 15.3457 13.0087 15.3062C13.0869 15.1358 13.1684 14.9645 13.2516 14.7982C13.2771 14.7456 13.2557 14.6813 13.203 14.6558C13.1503 14.6295 13.0869 14.6509 13.0606 14.7036C12.9775 14.8723 12.8951 15.0452 12.8161 15.2181C12.7914 15.2708 12.8145 15.3341 12.868 15.3588C12.882 15.3654 12.8976 15.3679 12.9124 15.3679ZM49.3358 15.9308C49.3497 15.9308 49.3637 15.9284 49.3772 15.9226C49.4312 15.8995 49.4564 15.8378 49.4336 15.7835C49.36 15.609 49.2825 15.4328 49.2034 15.2591C49.1791 15.2064 49.1162 15.1825 49.0627 15.2072C49.0093 15.2311 48.9858 15.2945 49.0102 15.3472C49.0885 15.5192 49.165 15.6937 49.238 15.8658C49.2551 15.907 49.2944 15.9308 49.3358 15.9308ZM12.4696 16.41C12.5116 16.41 12.552 16.3844 12.5684 16.3425C12.6359 16.1696 12.7075 15.9942 12.7808 15.8214C12.8039 15.7679 12.7792 15.7053 12.7248 15.6823C12.6713 15.6592 12.6088 15.6847 12.5857 15.7382C12.5116 15.9127 12.4392 16.0897 12.3709 16.2651C12.3495 16.3202 12.3758 16.382 12.431 16.4034C12.4433 16.4075 12.4565 16.41 12.4696 16.41ZM49.7484 16.9928C49.7602 16.9928 49.7722 16.9911 49.784 16.987C49.8393 16.9673 49.8681 16.9064 49.8485 16.8512C49.7846 16.6717 49.7173 16.4915 49.6487 16.3145C49.6274 16.2601 49.566 16.233 49.5112 16.2536C49.4565 16.275 49.4295 16.3367 49.4508 16.391C49.5186 16.5664 49.5851 16.745 49.6484 16.9228C49.6638 16.9664 49.7047 16.9928 49.7484 16.9928ZM12.0859 17.4792C12.1303 17.4792 12.1715 17.4512 12.1863 17.406C12.2447 17.2281 12.3065 17.0479 12.3699 16.8717C12.3896 16.8165 12.3608 16.7556 12.3057 16.7359C12.2505 16.7161 12.1896 16.7449 12.1698 16.8001C12.1056 16.9779 12.0439 17.1598 11.9846 17.3401C11.9665 17.3961 11.997 17.4562 12.0521 17.4743C12.0636 17.4776 12.0743 17.4792 12.0859 17.4792ZM50.0987 18.0761C50.1085 18.0761 50.1186 18.0744 50.1285 18.0711C50.1849 18.0547 50.2171 17.9962 50.2007 17.9394C50.1474 17.7575 50.0908 17.5731 50.0327 17.3936C50.0146 17.3385 49.9545 17.308 49.899 17.3253C49.8431 17.3434 49.8126 17.4035 49.8306 17.4595C49.8881 17.6373 49.9441 17.8184 49.9968 17.9995C50.0103 18.0456 50.0527 18.0761 50.0987 18.0761ZM11.7638 18.569C11.8107 18.569 11.8535 18.5378 11.8667 18.49C11.9144 18.3081 11.9655 18.1253 12.0181 17.9459C12.0354 17.8891 12.0033 17.8306 11.9465 17.8133C11.8906 17.7969 11.8313 17.829 11.8148 17.8858C11.7613 18.0669 11.7094 18.2521 11.6609 18.4357C11.6461 18.4925 11.6798 18.5501 11.7366 18.5649C11.7457 18.5674 11.7547 18.569 11.7638 18.569ZM50.3857 19.1749C50.3936 19.1749 50.4017 19.1741 50.4097 19.1725C50.4668 19.1585 50.5026 19.1017 50.4893 19.0449C50.4465 18.8588 50.4006 18.6719 50.3531 18.49C50.3382 18.4332 50.2805 18.3995 50.2234 18.4143C50.1667 18.4291 50.1327 18.4867 50.1476 18.5435C50.1947 18.7238 50.24 18.909 50.2824 19.0926C50.2937 19.1412 50.3374 19.1749 50.3857 19.1749ZM11.5055 19.6757C11.5549 19.6757 11.5994 19.6403 11.6101 19.5901C11.6471 19.4065 11.6875 19.2205 11.7303 19.0385C11.7435 18.9809 11.7081 18.9241 11.6513 18.9109C11.5936 18.8978 11.5368 18.9332 11.5237 18.99C11.4809 19.1744 11.4397 19.362 11.4018 19.5481C11.3903 19.6057 11.4273 19.6617 11.4841 19.6732L11.5055 19.6757ZM50.609 20.2889L50.6271 20.2873C50.6849 20.2774 50.7238 20.2222 50.7139 20.1646C50.682 19.9778 50.6468 19.7884 50.6097 19.6032C50.5981 19.5456 50.5424 19.5085 50.4847 19.5201C50.4271 19.5316 50.3899 19.5876 50.4014 19.6452C50.4382 19.8288 50.4729 20.0156 50.5045 20.2008C50.5134 20.2519 50.5583 20.2889 50.609 20.2889ZM11.3112 20.7943C11.3631 20.7943 11.4084 20.7565 11.4166 20.7038C11.443 20.5169 11.4734 20.3292 11.5047 20.1456C11.5154 20.088 11.4767 20.0329 11.4183 20.023C11.3606 20.0123 11.3055 20.051 11.2956 20.1094C11.2635 20.2946 11.233 20.4848 11.2059 20.6733C11.1976 20.7309 11.238 20.7853 11.2956 20.7935L11.3112 20.7943ZM50.7683 21.4133L50.7803 21.4125C50.8386 21.4059 50.8805 21.3533 50.874 21.2956C50.8526 21.1063 50.8284 20.9161 50.802 20.7293C50.7937 20.6708 50.7399 20.6305 50.6819 20.6387C50.6239 20.647 50.5835 20.7005 50.5917 20.7589C50.6179 20.9433 50.6418 21.1318 50.6628 21.3187C50.669 21.373 50.7149 21.4133 50.7683 21.4133ZM11.181 21.923C11.2353 21.923 11.2823 21.881 11.2864 21.8258C11.3028 21.6381 11.3218 21.4488 11.3432 21.2636C11.3498 21.2051 11.3086 21.1524 11.2502 21.1459C11.1925 21.1393 11.139 21.1813 11.1324 21.2397C11.111 21.4266 11.0913 21.6175 11.0748 21.8077C11.0699 21.8662 11.1135 21.9172 11.172 21.9221L11.181 21.923ZM50.8628 22.5451H50.8689C50.9274 22.5418 50.9722 22.4916 50.969 22.4331C50.9585 22.243 50.9451 22.052 50.9294 21.8635C50.9245 21.805 50.8728 21.7631 50.8147 21.7663C50.7562 21.7713 50.7129 21.8231 50.7177 21.8816C50.7334 22.0676 50.7465 22.257 50.7569 22.4447C50.76 22.5015 50.8069 22.5451 50.8628 22.5451ZM11.1152 23.0572C11.172 23.0572 11.2197 23.0111 11.2213 22.9535C11.2271 22.7666 11.2353 22.5764 11.246 22.3896C11.2493 22.3311 11.2049 22.2801 11.1464 22.2768C11.088 22.2735 11.037 22.318 11.0337 22.3772C11.023 22.5657 11.0147 22.7575 11.009 22.9477C11.0073 23.0062 11.0534 23.0547 11.1119 23.0572H11.1152ZM50.8939 23.6812C50.9526 23.6812 51.0001 23.6334 51.0001 23.575V23.5561C51.0001 23.3725 50.9977 23.1864 50.9927 23.0037C50.9911 22.9452 50.9399 22.8967 50.8836 22.9008C50.825 22.9024 50.7788 22.951 50.7803 23.0095C50.7853 23.1906 50.7877 23.3741 50.7877 23.5561V23.575C50.7877 23.6334 50.8352 23.6812 50.8939 23.6812ZM11.1136 24.2303H11.1169C11.1754 24.2287 11.2215 24.1793 11.2198 24.1208C11.2149 23.934 11.2124 23.7438 11.2124 23.5561V23.5191C11.2124 23.4606 11.1646 23.4129 11.1062 23.4129C11.0478 23.4129 11 23.4598 11 23.5183V23.5561C11 23.7455 11.0025 23.9373 11.0074 24.1266C11.0091 24.1842 11.0568 24.2303 11.1136 24.2303ZM50.8618 24.8163C50.9177 24.8163 50.9644 24.7727 50.9677 24.7159C50.9785 24.5273 50.9867 24.3355 50.9923 24.1454C50.994 24.0869 50.9478 24.0384 50.8892 24.0367C50.832 24.031 50.7817 24.0812 50.78 24.1396C50.7745 24.3273 50.7663 24.5175 50.7557 24.7043C50.7523 24.7628 50.7971 24.813 50.8556 24.8163H50.8618ZM11.178 25.3639H11.187C11.2455 25.359 11.2891 25.308 11.2842 25.2487C11.2677 25.0626 11.2545 24.8733 11.2438 24.6856C11.2405 24.6272 11.1903 24.5844 11.1319 24.5852C11.0734 24.5885 11.029 24.6387 11.0323 24.6971C11.043 24.8873 11.0561 25.0791 11.0718 25.2668C11.0767 25.3228 11.1236 25.3639 11.178 25.3639ZM50.7641 25.9483C50.8172 25.9483 50.8632 25.9079 50.8694 25.8544C50.8908 25.6667 50.9099 25.4758 50.9262 25.2856C50.9313 25.2271 50.888 25.1761 50.8295 25.1712C50.7715 25.1654 50.7197 25.209 50.7147 25.2675C50.6985 25.4552 50.6796 25.6445 50.6584 25.8297C50.6517 25.8882 50.6935 25.9409 50.7518 25.9474L50.7641 25.9483ZM11.3053 26.4924L11.3209 26.4915C11.3786 26.4833 11.4189 26.4298 11.4107 26.3713C11.3843 26.1869 11.3605 25.9984 11.3391 25.8116C11.3325 25.7531 11.2798 25.7103 11.2222 25.7177C11.1637 25.7243 11.1217 25.777 11.1283 25.8354C11.1497 26.024 11.1736 26.2149 11.2008 26.4018C11.2082 26.4545 11.2534 26.4924 11.3053 26.4924ZM50.603 27.0728C50.6536 27.0728 50.6986 27.0366 50.7075 26.9848C50.7396 26.7987 50.7695 26.6094 50.7966 26.4209C50.805 26.3624 50.7647 26.3089 50.7066 26.3007C50.6487 26.2916 50.5948 26.3328 50.5865 26.3904C50.5596 26.5773 50.5299 26.765 50.4982 26.9485C50.4882 27.0062 50.5269 27.0613 50.5847 27.0712L50.603 27.0728ZM11.4982 27.6126L11.5196 27.6102C11.5772 27.5986 11.6143 27.5427 11.6028 27.485C11.5657 27.3015 11.5303 27.1146 11.499 26.9294C11.4892 26.8718 11.434 26.8331 11.3764 26.8429C11.3188 26.8528 11.2792 26.908 11.2891 26.9656C11.322 27.1525 11.3566 27.341 11.3945 27.527C11.4044 27.5772 11.4488 27.6126 11.4982 27.6126ZM50.3773 28.1857C50.4256 28.1857 50.4692 28.1528 50.4806 28.1034C50.5235 27.919 50.5644 27.7313 50.602 27.5461C50.6137 27.4884 50.5764 27.4325 50.5189 27.4209C50.4615 27.4086 50.4054 27.4465 50.3938 27.5033C50.3566 27.6877 50.3162 27.8729 50.2738 28.0556C50.2605 28.1124 50.2961 28.1701 50.3531 28.1832C50.3613 28.1849 50.3693 28.1857 50.3773 28.1857ZM11.7541 28.7192C11.7631 28.7192 11.7722 28.7175 11.7813 28.7159C11.8381 28.7011 11.8718 28.6426 11.857 28.5858C11.8101 28.4047 11.764 28.2195 11.722 28.0376C11.7088 27.9799 11.6512 27.9445 11.5944 27.9577C11.5376 27.9709 11.5014 28.0285 11.5154 28.0853C11.5573 28.2697 11.6034 28.4566 11.652 28.6393C11.6644 28.6871 11.7072 28.7192 11.7541 28.7192ZM50.0884 29.2847C50.1344 29.2847 50.1767 29.2542 50.1903 29.2081C50.2438 29.0262 50.2954 28.841 50.3435 28.6582C50.3584 28.6014 50.3245 28.543 50.2678 28.5282C50.2109 28.5134 50.153 28.5471 50.1381 28.6039C50.0905 28.785 50.0395 28.9686 49.9865 29.148C49.97 29.2048 50.0022 29.2633 50.0585 29.2806C50.0684 29.283 50.0785 29.2847 50.0884 29.2847ZM12.0742 29.8089C12.0849 29.8089 12.0956 29.8073 12.1063 29.804C12.1622 29.7859 12.1927 29.7258 12.1746 29.6698C12.117 29.492 12.061 29.3109 12.0083 29.1306C11.9918 29.0738 11.9326 29.0417 11.8766 29.0581C11.8198 29.0746 11.7877 29.1339 11.8041 29.1899C11.8577 29.3726 11.9145 29.5562 11.9729 29.7356C11.9877 29.7809 12.0289 29.8089 12.0742 29.8089ZM49.7364 30.3647C49.78 30.3647 49.8209 30.3375 49.8364 30.2939C49.9002 30.1161 49.9623 29.9342 50.021 29.7539C50.0392 29.6979 50.0087 29.6378 49.9529 29.6197C49.8973 29.6016 49.8372 29.6321 49.819 29.688C49.7609 29.8667 49.6995 30.0461 49.6364 30.2231C49.6166 30.2783 49.6454 30.3384 49.7006 30.3581C49.7124 30.3631 49.7245 30.3647 49.7364 30.3647ZM12.4572 30.8824C12.4696 30.8824 12.4828 30.88 12.4959 30.875C12.5503 30.8536 12.5774 30.7927 12.556 30.7376C12.4877 30.563 12.421 30.3844 12.3576 30.2066C12.3379 30.1514 12.277 30.1226 12.2218 30.1424C12.1667 30.1621 12.1378 30.2231 12.1576 30.2782C12.2218 30.4577 12.2893 30.638 12.3585 30.8149C12.3749 30.8569 12.4144 30.8824 12.4572 30.8824ZM49.324 31.4209C49.3653 31.4209 49.4046 31.3971 49.4218 31.3567C49.4955 31.1822 49.5677 31.0052 49.6364 30.8291C49.6577 30.7747 49.6308 30.713 49.5761 30.6916C49.5215 30.6702 49.4599 30.6974 49.4386 30.7517C49.3706 30.9262 49.2992 31.1015 49.2263 31.2736C49.2033 31.3279 49.2285 31.3897 49.2826 31.4127C49.2961 31.4185 49.3101 31.4209 49.324 31.4209ZM12.9007 31.9313C12.9156 31.9313 12.9304 31.928 12.9452 31.9223C12.9987 31.8976 13.0218 31.8342 12.9971 31.7815C12.9197 31.6111 12.8423 31.4366 12.769 31.2629C12.746 31.2085 12.6842 31.1838 12.6299 31.2061C12.5756 31.2291 12.5509 31.2917 12.5731 31.3452C12.648 31.5214 12.7254 31.6975 12.8044 31.8696C12.8217 31.9083 12.8604 31.9313 12.9007 31.9313ZM48.852 32.4507C48.8911 32.4507 48.9288 32.4293 48.9473 32.3915C49.0305 32.2227 49.1128 32.0499 49.1919 31.877C49.2163 31.8243 49.1928 31.7609 49.1396 31.7362C49.0861 31.7123 49.0232 31.7354 48.9987 31.7889C48.9205 31.9593 48.8391 32.1305 48.7568 32.2976C48.7308 32.3503 48.7524 32.4137 48.805 32.44C48.8201 32.4475 48.8362 32.4507 48.852 32.4507ZM13.4044 32.9528C13.4208 32.9528 13.4381 32.9487 13.4538 32.9404C13.5056 32.9125 13.5254 32.8482 13.4974 32.7964C13.4101 32.6309 13.3237 32.4613 13.2406 32.2926C13.2142 32.2399 13.1508 32.2185 13.0981 32.244C13.0455 32.2704 13.0241 32.3337 13.0496 32.3864C13.1335 32.5577 13.2216 32.7289 13.3097 32.896C13.3295 32.9322 13.3657 32.9528 13.4044 32.9528ZM48.322 33.4525C48.359 33.4525 48.3949 33.4327 48.4145 33.3981C48.5078 33.2335 48.5999 33.0656 48.6882 32.8984C48.7156 32.8466 48.6959 32.7824 48.644 32.7552C48.5921 32.7272 48.5279 32.7478 48.5005 32.7997C48.4131 32.9643 48.322 33.1306 48.2297 33.2936C48.2008 33.3446 48.2187 33.4096 48.2697 33.4385C48.2862 33.4475 48.3042 33.4525 48.322 33.4525ZM13.9653 33.9424C13.9834 33.9424 14.0032 33.9375 14.0196 33.9276C14.0698 33.8972 14.0863 33.8321 14.0559 33.7819C13.9587 33.6206 13.8624 33.4567 13.7702 33.2929C13.7414 33.2419 13.6764 33.2246 13.6253 33.2534C13.5743 33.2822 13.5562 33.3473 13.585 33.3983C13.6788 33.5629 13.776 33.7292 13.8739 33.8914C13.8945 33.9243 13.9291 33.9424 13.9653 33.9424ZM47.7353 34.4231C47.7702 34.4231 47.8044 34.4058 47.8247 34.3737C47.9271 34.2148 48.0286 34.0526 48.1266 33.8905C48.157 33.8402 48.1409 33.7752 48.0907 33.7448C48.0404 33.7143 47.9752 33.7308 47.9449 33.7802C47.8479 33.9407 47.7474 34.102 47.6462 34.2593C47.6144 34.3086 47.6286 34.3737 47.6779 34.4058C47.6957 34.4173 47.7156 34.4231 47.7353 34.4231ZM14.5809 34.8988C14.6015 34.8988 14.6229 34.8922 14.641 34.8799C14.6895 34.8469 14.7019 34.7811 14.669 34.7325C14.5619 34.5769 14.4566 34.4189 14.3553 34.2617C14.324 34.2123 14.2582 34.1983 14.2088 34.2295C14.1594 34.2617 14.1454 34.3275 14.1767 34.3761C14.2796 34.5358 14.3858 34.6955 14.4936 34.8527C14.5142 34.8823 14.5471 34.8988 14.5809 34.8988ZM47.0938 35.3584C47.1266 35.3584 47.159 35.3436 47.1797 35.3148C47.2909 35.1625 47.4017 35.0052 47.5088 34.8488C47.542 34.8011 47.5297 34.7344 47.4813 34.7015C47.4329 34.6685 47.3668 34.6809 47.3337 34.7295C47.2276 34.8834 47.1181 35.039 47.008 35.1896C46.9735 35.2374 46.984 35.3041 47.0314 35.3386C47.0502 35.3518 47.0721 35.3584 47.0938 35.3584ZM15.2501 35.8176C15.2732 35.8176 15.2962 35.811 15.3152 35.7953C15.3621 35.76 15.3703 35.6933 15.3349 35.6464C15.2197 35.4974 15.1053 35.3459 14.9949 35.1944C14.9604 35.1467 14.8945 35.1368 14.8468 35.1714C14.799 35.2059 14.7892 35.2718 14.8237 35.3195C14.9349 35.4718 15.0501 35.6258 15.1662 35.7764C15.1876 35.8036 15.2189 35.8176 15.2501 35.8176ZM46.4001 36.2563C46.4309 36.2563 46.4614 36.2431 46.4824 36.2176C46.6016 36.0719 46.7211 35.9221 46.8375 35.7714C46.8735 35.7245 46.8649 35.6578 46.8185 35.6224C46.7721 35.5862 46.7054 35.5952 46.6696 35.6413C46.5543 35.7903 46.436 35.9393 46.318 36.0834C46.2808 36.1287 46.2875 36.1954 46.3329 36.2324C46.3527 36.2489 46.3765 36.2563 46.4001 36.2563ZM15.9705 36.6968C15.9952 36.6968 16.0207 36.6886 16.0405 36.6713C16.0849 36.6326 16.0899 36.5651 16.0512 36.5215C15.9285 36.3799 15.8059 36.2342 15.6865 36.0893C15.6494 36.044 15.5828 36.0374 15.5375 36.0745C15.4922 36.1115 15.4848 36.1782 15.5227 36.2235C15.6429 36.37 15.7663 36.5174 15.8906 36.6606C15.912 36.6845 15.9409 36.6968 15.9705 36.6968ZM45.6564 37.1142C45.6851 37.1142 45.7137 37.1027 45.7347 37.0805C45.8616 36.9422 45.9895 36.7989 46.1148 36.6541C46.1532 36.6096 46.1484 36.5429 46.1041 36.5042C46.0599 36.4664 45.9928 36.4705 45.9543 36.5149C45.8304 36.6582 45.7038 36.7998 45.5782 36.9364C45.5385 36.98 45.5413 37.0467 45.5845 37.0862C45.605 37.1052 45.6307 37.1142 45.6564 37.1142ZM16.7392 37.5331C16.7664 37.5331 16.7928 37.5232 16.8133 37.5035C16.8561 37.4623 16.857 37.3948 16.8158 37.3528C16.6857 37.2195 16.5549 37.0812 16.4273 36.9429C16.3877 36.8992 16.3211 36.8968 16.2774 36.9363C16.2346 36.9758 16.2313 37.0433 16.2708 37.0861C16.4001 37.226 16.5318 37.366 16.6635 37.501C16.6841 37.5224 16.7121 37.5331 16.7392 37.5331ZM44.8646 37.929C44.8912 37.929 44.918 37.9192 44.9386 37.8986C45.0732 37.7677 45.2091 37.6319 45.3423 37.4952C45.3833 37.4532 45.3823 37.3857 45.3403 37.3446C45.2982 37.3042 45.231 37.305 45.1901 37.347C45.0582 37.4829 44.9237 37.617 44.7905 37.7463C44.7485 37.7874 44.7476 37.8541 44.7884 37.8969C44.8092 37.9183 44.8369 37.929 44.8646 37.929ZM17.5545 38.3251C17.5833 38.3251 17.6121 38.3135 17.6327 38.2905C17.673 38.2469 17.6698 38.1802 17.6261 38.1407C17.4886 38.0139 17.3503 37.8838 17.2153 37.7529C17.1734 37.7118 17.1067 37.7126 17.0655 37.7546C17.0244 37.7966 17.026 37.8641 17.068 37.9052C17.2038 38.0369 17.3438 38.1695 17.4829 38.2971C17.5035 38.3152 17.529 38.3251 17.5545 38.3251ZM44.0276 38.6971C44.0523 38.6971 44.0771 38.6889 44.0972 38.6716C44.2403 38.5473 44.3837 38.4189 44.5233 38.2905C44.5666 38.251 44.5694 38.1843 44.5298 38.1406C44.4901 38.0978 44.4229 38.0945 44.3797 38.1349C44.2416 38.2617 44.0997 38.3876 43.958 38.5111C43.9137 38.549 43.9089 38.6165 43.9474 38.6609C43.9683 38.6848 43.9979 38.6971 44.0276 38.6971ZM18.4129 39.0683C18.4433 39.0683 18.4738 39.0551 18.4944 39.0288C18.5322 38.9835 18.5248 38.9168 18.4795 38.8798C18.3347 38.7612 18.1898 38.6386 18.0482 38.5159C18.0037 38.478 17.9362 38.4822 17.8984 38.5266C17.8597 38.5711 17.8646 38.6386 17.9091 38.6764C18.0515 38.8007 18.1988 38.9242 18.3454 39.0444C18.3651 39.06 18.389 39.0683 18.4129 39.0683ZM43.1486 39.4173C43.1712 39.4173 43.194 39.4099 43.2134 39.3951C43.363 39.279 43.5135 39.1596 43.6606 39.0394C43.7061 39.0024 43.7127 38.9349 43.6755 38.8896C43.6385 38.8443 43.5715 38.8378 43.5261 38.8748C43.3805 38.9942 43.2316 39.1127 43.0836 39.2271C43.0371 39.2625 43.0286 39.3292 43.0645 39.3761C43.0854 39.4025 43.1167 39.4173 43.1486 39.4173ZM19.3109 39.7615C19.3439 39.7615 19.376 39.7467 19.3965 39.7179C19.4311 39.6701 19.4212 39.6043 19.3735 39.5697C19.222 39.4594 19.0706 39.3458 18.9216 39.2314C18.8755 39.1952 18.8088 39.2034 18.7726 39.2503C18.7372 39.2964 18.7454 39.3631 18.7923 39.3993C18.9421 39.5154 19.0961 39.6306 19.2484 39.7409C19.2673 39.7549 19.2895 39.7615 19.3109 39.7615ZM42.2289 40.0858C42.2496 40.0858 42.2704 40.08 42.2888 40.0677C42.4439 39.9615 42.601 39.8503 42.7557 39.7376C42.8032 39.703 42.8136 39.6371 42.7791 39.5894C42.7446 39.5416 42.6784 39.5318 42.6308 39.5663C42.4777 39.6775 42.3222 39.787 42.1688 39.8923C42.1204 39.9253 42.108 39.9919 42.1412 40.0397C42.1617 40.0701 42.195 40.0858 42.2289 40.0858ZM20.247 40.4029C20.2816 40.4029 20.3162 40.3856 20.3368 40.3535C20.368 40.3041 20.354 40.2391 20.3046 40.207C20.1482 40.1065 19.9902 40.0012 19.8346 39.895C19.786 39.862 19.7202 39.8744 19.6872 39.923C19.6535 39.9707 19.6658 40.0374 19.7144 40.0703C19.8716 40.1773 20.0313 40.2835 20.1894 40.3856C20.2075 40.3971 20.2273 40.4029 20.247 40.4029ZM41.2727 40.7017C41.2914 40.7017 41.3104 40.6967 41.3275 40.6869C41.489 40.5889 41.6523 40.4876 41.8126 40.3839C41.862 40.3526 41.8763 40.2868 41.8446 40.2374C41.8128 40.188 41.7471 40.174 41.6978 40.2053C41.5391 40.3074 41.3776 40.4086 41.2177 40.5049C41.1675 40.5354 41.1514 40.6004 41.1817 40.6506C41.2017 40.6836 41.2368 40.7017 41.2727 40.7017ZM21.2175 40.9888C21.2545 40.9888 21.2908 40.9691 21.3097 40.9345C21.3385 40.8834 21.3212 40.8184 21.2702 40.7896C21.1072 40.6982 20.9442 40.6019 20.7829 40.5056C20.7326 40.4751 20.6676 40.4908 20.6371 40.541C20.6067 40.5912 20.6232 40.6571 20.6734 40.6875C20.8355 40.7855 21.001 40.8818 21.1656 40.9748C21.1821 40.9839 21.2002 40.9888 21.2175 40.9888ZM40.2824 41.2622C40.2992 41.2622 40.3161 41.2581 40.3319 41.2499C40.499 41.1618 40.6679 41.0696 40.8339 40.9757C40.8849 40.9469 40.9029 40.8819 40.8741 40.8308C40.8451 40.7798 40.7804 40.7617 40.7294 40.7905C40.5651 40.8835 40.398 40.9749 40.2327 41.0622C40.1809 41.0893 40.161 41.1535 40.1884 41.2054C40.2074 41.2416 40.2443 41.2622 40.2824 41.2622ZM22.2193 41.5182C22.2588 41.5182 22.2959 41.4968 22.3148 41.4589C22.3403 41.4062 22.3189 41.3429 22.2662 41.3165C22.0983 41.2342 21.9296 41.1478 21.7641 41.0605C21.7122 41.0333 21.648 41.0531 21.6209 41.1049C21.5937 41.1568 21.6134 41.221 21.6653 41.2482C21.8316 41.3363 22.0028 41.4235 22.1724 41.5075C22.188 41.5149 22.2037 41.5182 22.2193 41.5182ZM39.2609 41.7652C39.2757 41.7652 39.2907 41.7619 39.305 41.7554C39.4772 41.6772 39.6513 41.594 39.8222 41.51C39.8748 41.4845 39.8964 41.4203 39.8706 41.3676C39.8447 41.3149 39.781 41.2935 39.7284 41.3199C39.5593 41.403 39.3872 41.4845 39.2167 41.5627C39.1634 41.5866 39.1399 41.65 39.1643 41.7027C39.1821 41.7422 39.2206 41.7652 39.2609 41.7652ZM23.2494 41.9899C23.2914 41.9899 23.33 41.9652 23.3473 41.9249C23.3704 41.8706 23.3449 41.808 23.2914 41.7858C23.121 41.7133 22.9473 41.6376 22.7752 41.5586C22.7225 41.5347 22.6591 41.5577 22.6353 41.6112C22.6106 41.6648 22.6336 41.7273 22.6871 41.752C22.8608 41.831 23.0362 41.9084 23.2082 41.9809C23.2222 41.9866 23.2362 41.9899 23.2494 41.9899ZM38.2118 42.208C38.2246 42.208 38.2376 42.2064 38.2503 42.2014C38.4271 42.1323 38.6056 42.0599 38.7809 41.9858C38.835 41.9627 38.8603 41.901 38.8374 41.8466C38.8146 41.7923 38.7522 41.7676 38.6983 41.7898C38.5248 41.8639 38.3482 41.9355 38.1732 42.0031C38.1186 42.0245 38.0915 42.0862 38.1128 42.1405C38.1291 42.1825 38.1693 42.208 38.2118 42.208ZM24.3062 42.4015C24.3498 42.4015 24.3909 42.3744 24.4058 42.3307C24.4255 42.2756 24.3967 42.2155 24.3415 42.1957C24.1662 42.1324 23.9884 42.0665 23.8122 41.9982C23.7579 41.9768 23.6962 42.0031 23.6748 42.0583C23.6534 42.1126 23.6805 42.1743 23.7357 42.1957C23.9127 42.2649 24.0929 42.3324 24.2699 42.3958C24.2823 42.3999 24.2938 42.4015 24.3062 42.4015ZM37.1382 42.5909C37.149 42.5909 37.1601 42.5892 37.1709 42.5859C37.3518 42.5275 37.5343 42.4649 37.7135 42.4015C37.7687 42.3818 37.7976 42.3208 37.7779 42.2657C37.7582 42.2105 37.6975 42.1817 37.6421 42.2015C37.4649 42.264 37.2844 42.3258 37.1055 42.3834C37.0497 42.4015 37.0191 42.4616 37.0372 42.5176C37.0517 42.562 37.0934 42.5909 37.1382 42.5909ZM25.3866 42.7531C25.4326 42.7531 25.4749 42.7227 25.4885 42.6766C25.505 42.6206 25.4727 42.5613 25.4165 42.5449C25.2364 42.4922 25.0546 42.4362 24.8768 42.3777C24.8208 42.3596 24.7608 42.3901 24.7426 42.4461C24.7245 42.502 24.755 42.5621 24.811 42.5803C24.9912 42.6387 25.1747 42.6955 25.3567 42.749C25.3666 42.7515 25.3768 42.7531 25.3866 42.7531ZM36.0479 42.9101C36.0568 42.9101 36.0657 42.9085 36.0748 42.906C36.2585 42.8582 36.4437 42.8072 36.6252 42.7537C36.6814 42.7372 36.7138 42.678 36.6972 42.622C36.6808 42.566 36.6219 42.5339 36.5655 42.5504C36.386 42.6022 36.2028 42.6533 36.021 42.701C35.9643 42.7158 35.9303 42.7735 35.9452 42.8303C35.9576 42.878 36.0007 42.9101 36.0479 42.9101ZM26.4853 43.0413C26.5336 43.0413 26.5773 43.0084 26.5886 42.959C26.602 42.9022 26.5663 42.8454 26.5092 42.8322C26.3276 42.7894 26.143 42.7441 25.9608 42.6964C25.904 42.6816 25.8459 42.7153 25.831 42.7721C25.8161 42.8289 25.8501 42.8865 25.9068 42.9022C26.0911 42.9499 26.2776 42.996 26.4612 43.0388C26.4693 43.0405 26.4773 43.0413 26.4853 43.0413ZM34.9411 43.1654L34.9622 43.1637C35.1482 43.1258 35.336 43.0855 35.5204 43.0427C35.5775 43.0295 35.6131 42.9727 35.5999 42.9151C35.5867 42.8583 35.5295 42.8229 35.4725 42.8361C35.2902 42.8781 35.1043 42.9184 34.9203 42.9554C34.8627 42.967 34.8255 43.0229 34.837 43.0806C34.8472 43.1308 34.8915 43.1654 34.9411 43.1654ZM27.5989 43.2658C27.6496 43.2658 27.6945 43.2295 27.7034 43.1777C27.7133 43.12 27.6745 43.0649 27.6167 43.055C27.4331 43.0237 27.2462 42.9892 27.0614 42.9513C27.0039 42.9398 26.9479 42.9768 26.9363 43.0344C26.9247 43.0921 26.9619 43.148 27.0193 43.1596C27.2062 43.1974 27.395 43.2328 27.5808 43.2649L27.5989 43.2658ZM33.8216 43.3571L33.8366 43.3563C34.0239 43.33 34.2137 43.2995 34.4008 43.2682C34.4586 43.2584 34.4975 43.2032 34.4876 43.1456C34.4776 43.0871 34.4225 43.0484 34.3649 43.0583C34.1799 43.0904 33.992 43.1201 33.8067 43.1456C33.7487 43.1538 33.7083 43.2081 33.7165 43.2658C33.7241 43.3193 33.7695 43.3571 33.8216 43.3571ZM28.7235 43.4273C28.7767 43.4273 28.8227 43.3869 28.8288 43.3326C28.8354 43.275 28.7936 43.2223 28.7353 43.2157C28.5493 43.1943 28.3608 43.1704 28.175 43.1433C28.1171 43.135 28.0631 43.1754 28.0548 43.2338C28.0465 43.2915 28.0868 43.3458 28.1449 43.354C28.3327 43.3804 28.5233 43.4051 28.7113 43.4265L28.7235 43.4273ZM32.6927 43.4849H32.7018C32.8903 43.4685 33.0814 43.4495 33.27 43.4289C33.3283 43.4224 33.3702 43.3697 33.3637 43.3112C33.357 43.2528 33.3042 43.2108 33.2462 43.2174C33.0596 43.2388 32.8705 43.2569 32.6839 43.2734C32.6255 43.2783 32.5821 43.3293 32.587 43.3878C32.5917 43.4429 32.6381 43.4849 32.6927 43.4849ZM29.855 43.5236C29.9108 43.5236 29.9578 43.4799 29.9609 43.4231C29.9642 43.3647 29.9194 43.3145 29.8609 43.3112C29.6739 43.3005 29.4843 43.2873 29.2973 43.2717C29.2387 43.2659 29.1875 43.3095 29.1825 43.368C29.1775 43.4264 29.2208 43.4783 29.2793 43.4832C29.4683 43.4989 29.6599 43.5129 29.8489 43.5236H29.855ZM31.5586 43.5483H31.5616C31.7507 43.5433 31.9427 43.5351 32.132 43.5244C32.1906 43.5211 32.2354 43.4709 32.2321 43.4125C32.2289 43.354 32.179 43.3112 32.1203 43.312C31.9328 43.3227 31.7429 43.331 31.5556 43.3359C31.497 43.3375 31.4508 43.3861 31.4524 43.4454C31.454 43.503 31.5013 43.5483 31.5586 43.5483ZM30.9906 43.5557C31.0492 43.5557 31.0968 43.5079 31.0968 43.4495C31.0968 43.391 31.0492 43.3433 30.9906 43.3433C30.8041 43.3433 30.614 43.3408 30.4256 43.335C30.3669 43.3301 30.3181 43.3795 30.3164 43.4388C30.3147 43.4972 30.3609 43.5458 30.4195 43.5474C30.61 43.5532 30.8021 43.5557 30.9906 43.5557Z" fill="#FBB03B"/>
<path d="M9.50298 59.5557H10.715V53.6877L13.607 59.0757L16.499 53.6877V59.5557H17.711V51.3117H16.499L13.607 56.6997L10.715 51.3117H9.50298V59.5557ZM22.2278 53.2077C21.5438 53.2077 20.7638 53.3877 19.8758 53.8317L20.3078 54.7077C20.8478 54.4317 21.4478 54.1917 22.0598 54.1917C23.2958 54.1917 23.6558 55.0197 23.6558 55.7997V55.9917C23.0558 55.7877 22.3958 55.6557 21.7838 55.6557C20.4158 55.6557 19.2998 56.4837 19.2998 57.7197C19.2998 58.9317 20.2718 59.6997 21.5918 59.6997C22.3478 59.6997 23.1998 59.3517 23.6558 58.7037V59.5557H24.8198V55.7997C24.8198 54.2637 23.8958 53.2077 22.2278 53.2077ZM21.8198 58.7637C21.0398 58.7637 20.4398 58.3557 20.4398 57.6837C20.4398 57.0117 21.1358 56.5437 21.9638 56.5437C22.5758 56.5437 23.1518 56.6277 23.6558 56.7837V57.6117C23.4518 58.3797 22.5878 58.7637 21.8198 58.7637ZM27.6298 61.7157C28.5178 61.7037 29.1778 61.2357 29.6218 60.1197L32.3578 53.3517H31.1218L29.2378 58.2477L27.2458 53.3517H25.9738L28.6378 59.5917L28.3258 60.2517C28.1218 60.6117 27.8578 60.7317 27.4738 60.7317C27.2338 60.7317 26.9578 60.6717 26.7178 60.5397L26.4538 61.4517C26.7778 61.6197 27.2098 61.7157 27.6298 61.7157ZM36.2903 53.2077C35.6063 53.2077 34.8263 53.3877 33.9383 53.8317L34.3703 54.7077C34.9103 54.4317 35.5103 54.1917 36.1223 54.1917C37.3583 54.1917 37.7183 55.0197 37.7183 55.7997V55.9917C37.1183 55.7877 36.4583 55.6557 35.8463 55.6557C34.4783 55.6557 33.3623 56.4837 33.3623 57.7197C33.3623 58.9317 34.3343 59.6997 35.6543 59.6997C36.4103 59.6997 37.2623 59.3517 37.7183 58.7037V59.5557H38.8823V55.7997C38.8823 54.2637 37.9583 53.2077 36.2903 53.2077ZM35.8823 58.7637C35.1023 58.7637 34.5023 58.3557 34.5023 57.6837C34.5023 57.0117 35.1983 56.5437 36.0263 56.5437C36.6383 56.5437 37.2143 56.6277 37.7183 56.7837V57.6117C37.5143 58.3797 36.6503 58.7637 35.8823 58.7637ZM43.7563 53.2077C42.9163 53.2077 42.1603 53.6397 41.7883 54.2517V53.3517H40.6003V59.5557H41.7883V55.5357C41.8843 54.8037 42.6283 54.2397 43.4923 54.2397C44.3323 54.2397 44.9203 54.8877 44.9203 55.8117V59.5557H46.0843V55.6077C46.0843 54.2037 45.1243 53.2077 43.7563 53.2077ZM53.4239 53.3517H51.9839L48.9479 56.5197V51.1677H47.7719V59.5557H48.9479V57.9597L49.9439 56.9517L51.8879 59.5557H53.3039L50.7479 56.1597L53.4239 53.3517Z" fill="black"/>
</svg>
