<svg width="62" height="62" viewBox="0 0 62 62" fill="none" xmlns="http://www.w3.org/2000/svg">
<mask id="mask0_127:3837" style="mask-type:alpha" maskUnits="userSpaceOnUse" x="12" y="4" width="38" height="39">
<path fill-rule="evenodd" clip-rule="evenodd" d="M12.3322 23.5608C12.3322 33.8652 20.6852 42.2187 30.9901 42.2187C41.2945 42.2187 49.6479 33.8652 49.6479 23.5608C49.6479 13.2564 41.2945 4.90309 30.9901 4.90309C20.6852 4.90309 12.3322 13.2564 12.3322 23.5608Z" fill="white"/>
</mask>
<g mask="url(#mask0_127:3837)">
<path fill-rule="evenodd" clip-rule="evenodd" d="M12.3322 23.5608C12.3322 33.8652 20.6852 42.2186 30.9901 42.2186C41.2946 42.2186 49.6481 33.8652 49.6481 23.5608C49.6481 13.2564 41.2946 4.90297 30.9901 4.90297C20.6852 4.90297 12.3322 13.2564 12.3322 23.5608Z" fill="#FCE3C3"/>
<path fill-rule="evenodd" clip-rule="evenodd" d="M24.0133 30.7547C24.6217 33.9856 25.2744 37.1936 25.6889 40.4546C26.0815 43.5428 26.4598 46.6344 26.9512 49.7084C29.4822 49.7649 32.0053 49.6585 34.5293 49.4624C37.0421 49.2665 39.5266 48.9174 41.8866 47.998C43.1384 47.5109 44.3514 46.9137 45.5034 46.2163C44.3737 44.576 43.6815 42.6851 42.9271 40.8558C42.1188 38.8953 41.425 36.8876 40.8485 34.8471C39.591 30.3935 39.0908 25.9338 38.7915 21.3352C38.6211 18.7189 37.872 15.9685 36.1118 13.9599C34.3432 11.9403 31.3803 10.7873 28.7775 11.7706C27.17 12.3784 25.8603 13.6376 24.9855 15.1176C24.5698 15.821 24.2463 16.5736 23.9969 17.3521C23.9294 17.5592 23.8684 17.7687 23.8116 17.9792C23.6338 18.6391 23.5021 19.3129 23.4058 19.9889C23.2576 21.0396 23.1901 22.0939 23.186 23.1488C23.1778 25.6994 23.5416 28.2515 24.0133 30.7547Z" fill="#345668"/>
<path fill-rule="evenodd" clip-rule="evenodd" d="M26.1279 31.2815C26.4766 31.5544 26.9233 31.6575 27.3548 31.7525C27.8748 31.8681 28.3961 31.9837 28.927 32.0223C29.962 32.0978 30.9383 31.8375 31.953 31.6207C32.0035 31.0247 32.0555 30.4284 32.106 29.8324C32.1695 29.087 32.2343 28.3401 32.3721 27.6046C32.4147 27.3792 32.4629 27.1548 32.5178 26.9324C32.6507 26.3776 32.8149 25.8308 32.9789 25.2828C33.1139 24.8334 33.2487 24.3826 33.3835 23.9331C33.0898 24.1593 32.822 24.2645 32.4771 24.4067C31.024 25.0061 29.5489 25.5497 28.0669 26.0739C27.6204 26.2314 27.17 26.3891 26.7006 26.4482L26.1279 31.2815Z" fill="#FFCFCA"/>
<path fill-rule="evenodd" clip-rule="evenodd" d="M26.3923 29.0511C28.0181 28.8248 29.61 28.3676 31.089 27.6633C31.5594 27.4398 32.0483 27.1986 32.5178 26.9324C32.6507 26.3776 32.8149 25.8308 32.9789 25.2828C33.1139 24.8334 33.2487 24.3826 33.3835 23.9331C33.0898 24.1593 32.822 24.2645 32.4771 24.4067C31.024 25.0061 29.5489 25.5497 28.0669 26.0739C27.6204 26.2314 27.17 26.3891 26.7006 26.4482L26.3923 29.0511Z" fill="#F9BFBB"/>
<path fill-rule="evenodd" clip-rule="evenodd" d="M23.9023 24.8616C24.1533 25.7504 24.5485 26.5779 25.2828 27.1648C25.9339 27.685 26.7534 27.9961 27.5839 28.0539C28.503 28.1177 29.4187 27.8984 30.2523 27.4963C30.6671 27.2961 31.0622 27.0508 31.4264 26.772C32.0631 26.2848 32.6184 25.7001 33.111 25.07C33.9113 24.044 34.5987 22.8498 35.0157 21.5834C35.4896 20.1517 35.6192 18.6273 35.1811 17.1528C35.0041 16.5516 34.7255 15.9816 34.361 15.4709C32.8254 13.3156 29.843 12.6354 27.5231 13.9121C26.3146 14.5779 25.3452 15.674 24.7535 16.9122C24.5658 17.3046 24.3962 17.7102 24.2497 18.1246C23.4849 20.2711 23.2824 22.6714 23.9023 24.8616Z" fill="#FFCFCA"/>
<path fill-rule="evenodd" clip-rule="evenodd" d="M23.997 17.3521C24.7247 16.2739 25.4546 15.1504 26.4145 14.298C27.2748 13.5341 28.3439 13.0135 29.4967 12.9079C31.6805 12.7081 34.2268 13.5366 35.6141 15.3001C36.3142 16.1899 36.6327 17.3064 36.6792 18.4142C36.7258 19.522 36.498 20.5016 36.2201 21.5833C34.1106 21.3827 32.2719 20.0457 31.1819 18.3629C30.3705 17.1102 29.9287 15.6848 29.6997 14.2256C29.047 15.0704 28.3233 15.8608 27.474 16.5086C26.4155 17.3158 25.1424 17.8929 23.8117 17.9792C23.8685 17.7686 23.9295 17.5591 23.997 17.3521Z" fill="#345668"/>
<path fill-rule="evenodd" clip-rule="evenodd" d="M15.8356 55.314C16.5148 54.3425 18.0023 52.458 18.0023 52.458C18.0023 52.458 17.0795 40.1468 19.6141 34.8882C21.2251 33.2218 22.7925 31.7237 25.0982 31.2947C26.7857 34.1239 27.2998 36.6757 27.5776 39.9581C27.9458 44.3107 28.052 48.9026 26.0874 52.804C25.5433 53.8844 24.8521 54.8835 24.1499 55.868C22.2961 58.4676 20.215 60.9759 17.8969 63.215C17.2729 63.8168 16.3336 63.9526 15.5681 63.5443L13.3364 62.3539C12.6062 61.9646 12.3329 61.0541 12.728 60.3272C13.7076 58.5277 14.693 56.9472 15.8356 55.314Z" fill="#150F84"/>
<path fill-rule="evenodd" clip-rule="evenodd" d="M22.5555 32.7967C22.679 32.4682 23.6775 31.7574 23.6775 31.7574C23.6775 31.7574 29.6502 30.5522 32.4851 30.9131C33.9026 31.0935 35.3031 31.4102 36.6591 31.8612C38.147 32.3562 39.4475 32.9444 40.6748 33.9347C41.9272 34.9453 43.0358 36.1249 44.0868 37.3396C44.5945 37.9264 45.0887 38.5245 45.58 39.1249C46.9915 40.85 48.4712 42.5811 49.6518 44.4827C51.3549 47.2258 52.5905 50.731 50.9432 53.796C49.9581 55.6284 48.3386 57.0484 46.7459 58.3449C44.8509 59.8876 42.7728 61.2738 40.5455 62.3061C39.9196 62.5967 39.1714 62.3761 38.8149 61.7859C38.3408 61.0005 37.9434 60.1749 37.5814 59.3303C37.3623 58.8191 37.4019 58.2346 37.6779 57.7514C39.1867 55.109 41.0603 52.6322 43.3761 50.2194C41.6741 48.5983 39.9813 46.8839 38.6115 44.9952C38.4824 46.6265 38.4295 48.2601 38.5128 49.8972C38.5367 50.368 38.5658 50.8676 38.3401 51.2814C38.0544 51.8055 37.443 52.0476 36.8741 52.2282C32.7311 53.5432 28.2341 53.7014 23.9977 52.7278C23.1424 52.5311 22.2476 52.2533 21.7125 51.5093C21.2269 50.834 21.1091 49.965 20.9733 49.1658C20.7436 47.8022 20.6045 46.423 20.556 45.041C20.4111 40.8813 21.0869 36.6921 22.5555 32.7967Z" fill="#150F84"/>
<path fill-rule="evenodd" clip-rule="evenodd" d="M24.973 30.7006C25.0059 30.5732 25.0446 30.4453 25.0685 30.324C25.1646 29.8243 25.0726 29.1863 25.6238 28.8416C25.8945 28.6722 26.2288 28.7015 26.5417 28.6972C26.9108 28.6922 27.2793 28.6988 27.6485 28.6909C28.4223 28.6746 29.1971 28.5956 29.9597 28.4564C30.3488 28.3854 30.7348 28.2986 31.1158 28.1965C31.4592 28.1044 31.8063 27.9497 32.1626 27.9143C32.4187 27.8889 32.6979 27.952 32.8451 28.1276C32.9406 28.2414 32.9701 28.3868 32.9969 28.5269C33.1318 29.2355 33.2561 29.9578 33.142 30.6778C33.1068 30.8995 33.042 31.1315 32.8627 31.2983C32.4582 31.6748 31.5736 31.7917 31.0282 31.9079C29.2262 32.2915 27.297 32.3427 25.6047 31.7217C25.4005 31.6468 25.1953 31.5589 25.0537 31.4129C24.8503 31.2026 24.9088 30.9527 24.973 30.7006Z" fill="#DD5050"/>
<path fill-rule="evenodd" clip-rule="evenodd" d="M32.3112 31.4214C32.3401 31.4176 32.3645 31.3976 32.3693 31.3715C32.5621 30.3149 32.5778 29.2475 32.4157 28.1992C32.4109 28.1685 32.3783 28.1478 32.3424 28.1525L32.3411 28.1527C32.3047 28.1581 32.2791 28.1877 32.284 28.2187C32.4443 29.2563 32.429 30.3125 32.2381 31.3583C32.2324 31.3897 32.2571 31.4181 32.2934 31.4216L32.3112 31.4214Z" fill="#83B2A3"/>
<path fill-rule="evenodd" clip-rule="evenodd" d="M31.7461 31.6215L31.7473 31.6214C31.7837 31.616 31.8093 31.5865 31.8046 31.5554C31.7313 31.076 31.7427 30.5795 31.7535 30.0994L31.7901 28.5004C31.7912 28.4539 31.7992 28.4394 31.8057 28.4354C31.8363 28.4168 31.8443 28.381 31.824 28.3555C31.8035 28.3301 31.7625 28.3244 31.7318 28.3431C31.6599 28.3871 31.658 28.4652 31.6572 28.5027L31.6208 30.1018C31.6097 30.5861 31.5983 31.0869 31.6729 31.5748C31.6775 31.6055 31.7102 31.6262 31.7461 31.6215Z" fill="#83B2A3"/>
<path fill-rule="evenodd" clip-rule="evenodd" d="M31.0517 31.7644C31.0848 31.7601 31.1105 31.7352 31.1107 31.7058C31.1163 30.6704 31.0852 29.6223 31.0182 28.5909C31.0161 28.5595 30.9847 28.5365 30.9481 28.5395C30.9123 28.5431 30.8834 28.5705 30.8855 28.6018C30.9523 29.631 30.9834 30.6768 30.9778 31.71C30.9777 31.7415 31.0072 31.7661 31.0439 31.765L31.0517 31.7644Z" fill="#83B2A3"/>
<path fill-rule="evenodd" clip-rule="evenodd" d="M30.4857 31.8805C30.5209 31.8758 30.547 31.8484 30.5445 31.8179C30.4638 30.7973 30.448 29.759 30.4975 28.7317C30.499 28.7002 30.4705 28.6746 30.4339 28.6746C30.3968 28.6751 30.3663 28.7001 30.3648 28.7317C30.3151 29.7629 30.3309 30.8055 30.412 31.8302C30.4145 31.8616 30.4461 31.8842 30.4828 31.8808L30.4857 31.8805Z" fill="#83B2A3"/>
<path fill-rule="evenodd" clip-rule="evenodd" d="M29.858 32.0562H29.858C29.8945 32.0514 29.9207 32.0223 29.9166 31.991C29.8552 31.526 29.8412 31.0217 29.8713 30.356L29.8742 30.2931C29.8849 30.0655 29.8958 29.8301 29.8626 29.6C29.851 29.5207 29.8343 29.4419 29.8176 29.3632C29.7856 29.2127 29.7554 29.0705 29.7607 28.924C29.7618 28.8925 29.733 28.8672 29.6963 28.8674C29.6601 28.8673 29.6291 28.8935 29.6279 28.9252C29.6222 29.0836 29.6551 29.2385 29.6869 29.3881C29.7031 29.4648 29.7195 29.5413 29.7307 29.6186C29.7626 29.8396 29.7518 30.0701 29.7415 30.2931L29.7386 30.3561C29.7082 31.0279 29.7224 31.5375 29.7846 32.0084C29.7887 32.0396 29.8216 32.0609 29.858 32.0562Z" fill="#83B2A3"/>
<path fill-rule="evenodd" clip-rule="evenodd" d="M29.3137 32.0079L29.316 32.0075C29.3523 32.0017 29.3774 31.9718 29.3721 31.9408C29.2047 30.9724 29.1502 29.9817 29.2099 28.9959C29.2119 28.9644 29.1837 28.9385 29.1471 28.9381C29.1097 28.9375 29.0792 28.9631 29.0773 28.9946C29.0171 29.9879 29.072 30.9862 29.2406 31.962C29.2459 31.9923 29.2783 32.0125 29.3137 32.0079Z" fill="#83B2A3"/>
<path fill-rule="evenodd" clip-rule="evenodd" d="M28.584 31.985L28.5869 31.9846C28.6231 31.9784 28.6479 31.9484 28.6422 31.9174C28.6013 31.6949 28.6244 31.4601 28.6465 31.2331C28.6569 31.1263 28.6677 31.0161 28.672 30.9073C28.6815 30.666 28.6594 30.4218 28.6382 30.1857C28.6028 29.7928 28.5662 29.3866 28.6791 28.9998C28.6881 28.969 28.6666 28.9387 28.631 28.9322C28.5954 28.9256 28.5593 28.9453 28.5504 28.9763C28.4321 29.3814 28.4694 29.797 28.5057 30.1991C28.5267 30.4321 28.5485 30.6731 28.5393 30.908C28.5351 31.0139 28.5244 31.1228 28.5141 31.2281C28.4913 31.4619 28.4676 31.7036 28.511 31.9396C28.5165 31.9698 28.5488 31.9896 28.584 31.985Z" fill="#83B2A3"/>
<path fill-rule="evenodd" clip-rule="evenodd" d="M28.0095 31.9416C28.0449 31.9369 28.071 31.909 28.0682 31.8784C27.9802 30.9241 27.9526 29.9528 27.9863 28.9912C27.9874 28.9597 27.9586 28.9343 27.922 28.9346C27.8852 28.9346 27.8546 28.9607 27.8535 28.9924C27.8197 29.9581 27.8474 30.9336 27.9358 31.8919C27.9387 31.9233 27.9706 31.9456 28.0072 31.9419L28.0095 31.9416Z" fill="#83B2A3"/>
<path fill-rule="evenodd" clip-rule="evenodd" d="M27.3614 31.7976C27.3972 31.7929 27.4234 31.7645 27.4201 31.7337C27.3278 30.8643 27.2324 29.9653 27.4056 29.0821C27.4117 29.0507 27.3874 29.0222 27.3512 29.0181C27.3148 29.0142 27.2808 29.0362 27.2746 29.0675C27.0985 29.9655 27.1947 30.872 27.2878 31.7486C27.2911 31.7799 27.3234 31.8019 27.36 31.7978L27.3614 31.7976Z" fill="#83B2A3"/>
<path fill-rule="evenodd" clip-rule="evenodd" d="M26.7993 31.8938C26.8325 31.8895 26.8583 31.8643 26.8582 31.8348L26.8469 29.0814C26.8467 29.0499 26.8169 29.0254 26.7802 29.0268C26.7446 29.0275 26.7138 29.0549 26.714 29.0864L26.7254 31.8399C26.7255 31.8714 26.7553 31.8958 26.7921 31.8944L26.7993 31.8938Z" fill="#83B2A3"/>
<path fill-rule="evenodd" clip-rule="evenodd" d="M26.1312 31.7188C26.1654 31.7144 26.1914 31.688 26.1902 31.658C26.155 30.8038 26.1779 29.9365 26.2581 29.0801C26.261 29.0486 26.2338 29.022 26.1972 29.0207C26.1609 29.019 26.1287 29.0439 26.1256 29.0754C26.045 29.9363 26.0221 30.808 26.0574 31.6667C26.0588 31.6981 26.0895 31.7217 26.1261 31.7193L26.1312 31.7188Z" fill="#83B2A3"/>
<path fill-rule="evenodd" clip-rule="evenodd" d="M25.485 31.47L25.4987 31.4669C25.5336 31.4557 25.5523 31.4227 25.5406 31.3932C25.4593 31.1877 25.4958 30.9654 25.5345 30.73C25.5524 30.6217 25.5708 30.5098 25.5767 30.3996C25.5814 30.3114 25.578 30.2231 25.5748 30.1376C25.5715 30.0519 25.5681 29.9633 25.5732 29.8772C25.5898 29.5947 25.6971 29.3157 25.801 29.046C25.8126 29.0157 25.7938 28.984 25.7591 28.9751C25.7242 28.9663 25.6867 28.9838 25.675 29.014C25.5683 29.2913 25.458 29.5779 25.4404 29.876C25.4352 29.9669 25.4386 30.0579 25.442 30.146C25.4452 30.2292 25.4484 30.3153 25.4441 30.3989C25.4384 30.5037 25.4204 30.6129 25.4031 30.7185C25.3639 30.9567 25.3233 31.2031 25.4147 31.4338C25.4248 31.4595 25.4546 31.474 25.485 31.47Z" fill="#83B2A3"/>
<path fill-rule="evenodd" clip-rule="evenodd" d="M32.5008 24.6486C33.164 25.2332 34.1466 25.4334 34.9828 25.1433C35.6893 24.8988 36.2643 24.3111 36.5089 23.6067C36.553 23.4789 36.5862 23.3478 36.6083 23.2124C36.6461 22.9767 36.6472 22.7335 36.5918 22.5016C36.452 21.9294 35.9374 21.478 35.3583 21.3739C34.7778 21.2699 34.1583 21.4992 33.7545 21.9283L32.5008 24.6486Z" fill="#FFCFCA"/>
<path fill-rule="evenodd" clip-rule="evenodd" d="M22.958 52.4274C22.6304 52.238 22.2937 52.0739 21.985 51.8842C21.6763 51.6958 21.4013 51.4683 21.2293 51.167C21.1429 51.0175 21.0786 50.8533 21.0358 50.682C20.9914 50.5097 20.9725 50.3452 20.9914 50.169C21.0079 49.9928 21.0416 49.8072 21.0671 49.6216C21.0943 49.4357 21.1157 49.2483 21.1354 49.0614C21.1717 48.687 21.1922 48.3124 21.2046 47.9381C21.2186 47.5638 21.2178 47.188 21.2095 46.8144C21.1955 46.0664 21.1544 45.321 21.1124 44.5761C21.0284 43.0863 20.9132 41.5996 20.9461 40.1093C20.9716 38.6196 21.0926 37.1305 21.3133 35.6552C21.0679 37.1266 20.9222 38.6152 20.872 40.1074C20.8136 41.6008 20.9041 43.0946 20.9634 44.5833C20.993 45.3281 21.0218 46.073 21.0235 46.8165C21.026 47.1886 21.0202 47.5588 20.9996 47.9296C20.9823 48.3004 20.956 48.6705 20.9132 49.0377C20.891 49.2213 20.8671 49.4042 20.8374 49.5868C20.8086 49.7699 20.7724 49.9512 20.751 50.146C20.7255 50.3409 20.7453 50.5531 20.7922 50.7419C20.8366 50.9329 20.9066 51.1208 21.0037 51.2957C21.1017 51.4701 21.2285 51.6294 21.3725 51.7648C21.5174 51.9006 21.6755 52.016 21.8376 52.119C22.1612 52.3249 22.4937 52.4929 22.809 52.6821L22.958 52.4274Z" fill="#97C6B7"/>
<path fill-rule="evenodd" clip-rule="evenodd" d="M38.6411 33.4828C38.2787 33.7464 37.9707 34.0898 37.73 34.4746C37.4864 34.8587 37.3088 35.2822 37.1742 35.7155C37.0383 36.1493 36.9543 36.5975 36.8955 37.0454C36.8372 37.4937 36.812 37.9452 36.8026 38.3963C36.7982 38.8477 36.8172 39.2988 36.8557 39.7478C36.898 40.1965 36.9571 40.6435 37.0431 41.0854C37.2107 41.97 37.4831 42.8408 37.9033 43.6329C37.5963 42.7917 37.3934 41.9248 37.2704 41.0478C37.2126 40.6082 37.1597 40.1681 37.1343 39.726C37.105 39.2844 37.0886 38.8419 37.0976 38.4C37.1012 37.9581 37.1249 37.5164 37.1724 37.0776C37.193 36.8574 37.2238 36.6399 37.2593 36.4227C37.2986 36.2065 37.3411 35.9908 37.395 35.7778C37.4504 35.5654 37.5132 35.3546 37.59 35.1491C37.6248 35.0448 37.6705 34.9451 37.7111 34.8427C37.7586 34.7441 37.8015 34.6424 37.855 34.5465C38.0543 34.1537 38.321 33.7962 38.6411 33.4828Z" fill="#97C6B7"/>
<path fill-rule="evenodd" clip-rule="evenodd" d="M33.2177 31.8796C33.248 31.8796 33.2765 31.8607 33.2872 31.8305C33.3009 31.792 33.2807 31.7498 33.2424 31.7362C33.1495 31.7033 33.0566 31.6706 32.9637 31.6379C32.9252 31.6244 32.8831 31.6447 32.8696 31.6831C32.8561 31.7216 32.8764 31.7637 32.9148 31.7772C33.0077 31.8098 33.1004 31.8425 33.1931 31.8754C33.2012 31.8782 33.2095 31.8796 33.2177 31.8796Z" fill="#97C6B7"/>
<path fill-rule="evenodd" clip-rule="evenodd" d="M34.3348 32.2817C34.3649 32.2817 34.3932 32.2631 34.404 32.2332C34.418 32.195 34.3984 32.1526 34.3601 32.1386C34.1741 32.0706 33.988 32.0031 33.8016 31.9361C33.7634 31.9223 33.721 31.9422 33.7072 31.9805C33.6935 32.0189 33.7133 32.0611 33.7517 32.0749C33.9377 32.1419 34.1237 32.2093 34.3095 32.2772C34.3178 32.2802 34.3263 32.2817 34.3348 32.2817ZM35.4479 32.6951C35.4777 32.6951 35.5058 32.6768 35.5169 32.6473C35.5314 32.6092 35.5121 32.5665 35.4739 32.5522C35.2886 32.4823 35.1031 32.4129 34.9175 32.344C34.8793 32.3299 34.8367 32.3493 34.8226 32.3876C34.8084 32.4258 34.8279 32.4682 34.8661 32.4825C35.0515 32.5513 35.2367 32.6205 35.4219 32.6903C35.4304 32.6935 35.4392 32.6951 35.4479 32.6951ZM36.5565 33.12C36.5859 33.12 36.6138 33.1023 36.6252 33.0732C36.6402 33.0353 36.6215 32.9925 36.5836 32.9775C36.4553 32.9268 36.3266 32.8771 36.1982 32.8277L36.0292 32.7629C35.9912 32.7484 35.9484 32.7674 35.9339 32.8055C35.9194 32.8436 35.9384 32.8863 35.9764 32.9008L36.1453 32.9655C36.2734 33.0148 36.4015 33.0643 36.5295 33.1148C36.5384 33.1183 36.5475 33.12 36.5565 33.12ZM37.6474 33.5885C37.6748 33.5885 37.7012 33.5731 37.7139 33.5467C37.7316 33.5099 37.7161 33.4659 37.6794 33.4482C37.5107 33.3671 37.3327 33.2867 37.1352 33.2026C37.0977 33.1866 37.0543 33.2041 37.0383 33.2415C37.0225 33.2791 37.0398 33.3224 37.0774 33.3384C37.2727 33.4216 37.4487 33.501 37.6153 33.5812C37.6257 33.5861 37.6366 33.5885 37.6474 33.5885ZM38.6791 34.1743C38.7027 34.1743 38.7258 34.1629 38.7401 34.142C38.7631 34.1083 38.7543 34.0623 38.7206 34.0394C38.562 33.9316 38.3904 33.8255 38.2105 33.7242C38.175 33.7041 38.13 33.7168 38.11 33.7522C38.09 33.7877 38.1025 33.8327 38.138 33.8527C38.3143 33.9521 38.4824 34.056 38.6376 34.1615C38.6503 34.1702 38.6647 34.1743 38.6791 34.1743ZM39.5939 34.9286C39.6132 34.9286 39.6324 34.9211 39.6468 34.9062C39.6752 34.877 39.6746 34.8303 39.6454 34.8018C39.4965 34.6572 39.3467 34.5222 39.2002 34.4006C39.1687 34.3747 39.1223 34.379 39.0962 34.4102C39.0703 34.4417 39.0746 34.4882 39.1059 34.5142C39.2496 34.6333 39.3963 34.7657 39.5426 34.9077C39.5569 34.9216 39.5754 34.9286 39.5939 34.9286ZM40.3991 35.8007C40.416 35.8007 40.433 35.7949 40.4469 35.7831C40.4779 35.7567 40.4817 35.7101 40.4553 35.6791C40.3136 35.5127 40.1847 35.3662 40.0612 35.2315C40.0337 35.2014 39.9869 35.1994 39.9569 35.2269C39.9268 35.2545 39.9248 35.3012 39.9523 35.3312C40.0747 35.4646 40.2023 35.6096 40.3429 35.7747C40.3575 35.7919 40.3782 35.8007 40.3991 35.8007ZM41.156 36.7153C41.1724 36.7153 41.189 36.7099 41.2027 36.6986C41.2343 36.6728 41.2389 36.6263 41.2129 36.5947L40.8363 36.1357C40.8104 36.1044 40.7638 36.0998 40.7324 36.1256C40.7009 36.1515 40.6964 36.198 40.7223 36.2296L41.0988 36.6883C41.1134 36.7061 41.1346 36.7153 41.156 36.7153ZM41.9082 37.6343C41.9246 37.6343 41.941 37.6289 41.9548 37.6177C41.9863 37.5919 41.9911 37.5454 41.9653 37.5138C41.8401 37.3604 41.7149 37.2072 41.5895 37.0541C41.5637 37.0225 41.5172 37.0179 41.4857 37.0436C41.4541 37.0695 41.4495 37.116 41.4753 37.1475C41.6007 37.3006 41.7259 37.4538 41.8509 37.6071C41.8656 37.625 41.8867 37.6343 41.9082 37.6343ZM42.6564 38.5562C42.6728 38.5562 42.6891 38.5508 42.7028 38.5399C42.7345 38.5143 42.7395 38.4678 42.7139 38.4361C42.5895 38.282 42.4649 38.1282 42.3401 37.9745C42.3144 37.9429 42.2679 37.9381 42.2363 37.9637C42.2046 37.9894 42.1999 38.0359 42.2255 38.0675C42.3503 38.2211 42.4747 38.3749 42.599 38.5287C42.6136 38.5469 42.6349 38.5562 42.6564 38.5562ZM43.3986 39.4831C43.4147 39.4831 43.4309 39.4779 43.4445 39.4671C43.4764 39.4418 43.4818 39.3954 43.4564 39.3634C43.3334 39.2083 43.2099 39.0535 43.0861 38.8989C43.0606 38.867 43.0143 38.862 42.9824 38.8875C42.9506 38.9129 42.9454 38.9594 42.9709 38.9912C43.0945 39.1456 43.2178 39.3002 43.3407 39.4551C43.3554 39.4735 43.3769 39.4831 43.3986 39.4831ZM44.1315 40.4172C44.1473 40.4172 44.1632 40.4122 44.1767 40.4017C44.2089 40.3767 44.2148 40.3304 44.1898 40.2982C44.0686 40.1417 43.9467 39.9855 43.8244 39.8297C43.7993 39.7975 43.7529 39.792 43.7208 39.8172C43.6887 39.8423 43.6831 39.8887 43.7083 39.9207C43.8304 40.0764 43.9521 40.2323 44.0732 40.3886C44.0877 40.4074 44.1095 40.4172 44.1315 40.4172ZM44.8529 41.3605C44.8682 41.3605 44.8839 41.3557 44.8971 41.3457C44.9297 41.3211 44.9362 41.2749 44.9117 41.2423C44.7926 41.084 44.6729 40.9262 44.5525 40.7688C44.5279 40.7365 44.4817 40.7302 44.4491 40.755C44.4167 40.7798 44.4105 40.8261 44.4353 40.8585C44.5553 41.0156 44.6749 41.1731 44.7937 41.3311C44.8082 41.3503 44.8304 41.3605 44.8529 41.3605ZM45.5586 42.3154C45.5736 42.3154 45.5888 42.3108 45.6019 42.3012C45.6349 42.2773 45.6422 42.2312 45.6182 42.1981C45.5018 42.0379 45.3847 41.8781 45.2668 41.7188C45.2426 41.686 45.1963 41.6792 45.1637 41.7033C45.1309 41.7276 45.124 41.7738 45.1482 41.8065C45.2657 41.9655 45.3826 42.1249 45.4988 42.2849C45.5132 42.3047 45.5357 42.3154 45.5586 42.3154ZM46.2466 43.2832C46.2611 43.2832 46.2758 43.2789 46.2886 43.27C46.3221 43.2467 46.3304 43.2007 46.3071 43.1673C46.194 43.0046 46.0799 42.8426 45.9651 42.681C45.9415 42.6479 45.8955 42.6401 45.8621 42.6637C45.829 42.6873 45.8212 42.7334 45.8448 42.7667C45.9593 42.9277 46.0731 43.0893 46.1859 43.2515C46.2003 43.2722 46.2233 43.2832 46.2466 43.2832ZM46.9138 44.2654C46.9278 44.2654 46.942 44.2615 46.9545 44.2532C46.9885 44.2307 46.9978 44.1849 46.9753 44.1509C46.8659 43.9856 46.7555 43.8211 46.6441 43.6571C46.6212 43.6233 46.5754 43.6146 46.5417 43.6375C46.508 43.6604 46.4992 43.7063 46.5221 43.74C46.6331 43.9035 46.7432 44.0676 46.8521 44.2323C46.8664 44.2538 46.8898 44.2654 46.9138 44.2654ZM47.5561 45.2639C47.5695 45.2639 47.583 45.2603 47.5951 45.2526C47.6297 45.231 47.6403 45.1855 47.6187 45.1509C47.5136 44.9828 47.4074 44.8154 47.3001 44.6488C47.278 44.6145 47.2324 44.6047 47.1981 44.6267C47.1638 44.6488 47.154 44.6945 47.176 44.7287C47.2829 44.8948 47.3888 45.0616 47.4935 45.2291C47.5075 45.2515 47.5315 45.2639 47.5561 45.2639ZM48.1666 46.2819C48.1788 46.2819 48.1913 46.2789 48.2027 46.2724C48.2383 46.2524 48.2507 46.2073 48.2307 46.1718C48.138 46.0077 48.0396 45.8394 47.93 45.6574C47.9091 45.6226 47.8636 45.6113 47.8287 45.6323C47.7938 45.6534 47.7825 45.6987 47.8036 45.7337C47.9124 45.9144 48.0102 46.0815 48.1022 46.2445C48.1158 46.2685 48.1408 46.2819 48.1666 46.2819ZM48.7097 47.3376C48.7199 47.3376 48.7303 47.3354 48.7403 47.3309C48.7773 47.3139 48.7937 47.2701 48.7768 47.233C48.6973 47.0594 48.6092 46.8788 48.5148 46.6962C48.4962 46.6601 48.4516 46.6458 48.4154 46.6645C48.3792 46.6832 48.365 46.7277 48.3838 46.764C48.477 46.9445 48.564 47.123 48.6425 47.2944C48.6549 47.3215 48.6817 47.3376 48.7097 47.3376ZM49.1349 48.4453L49.1563 48.4421C49.1954 48.4302 49.2174 48.389 49.2055 48.35C49.1494 48.1657 49.0836 47.9753 49.0096 47.7839C48.9949 47.7458 48.9522 47.727 48.9142 47.7417C48.8761 47.7564 48.8572 47.7991 48.8719 47.8371C48.9446 48.0251 49.0093 48.2121 49.0643 48.3929C49.0739 48.4248 49.1033 48.4453 49.1349 48.4453ZM49.3758 49.6061L49.3836 49.6057C49.4241 49.6014 49.4535 49.5651 49.4493 49.5246C49.4291 49.3307 49.3974 49.1311 49.3554 48.931C49.347 48.8911 49.3078 48.8657 49.268 48.874C49.2281 48.8823 49.2025 48.9215 49.211 48.9613C49.252 49.1565 49.2828 49.3511 49.3025 49.5399C49.3065 49.5778 49.3385 49.6061 49.3758 49.6061ZM49.3586 50.7905C49.3948 50.7905 49.4265 50.7638 49.4316 50.7269C49.4352 50.7012 49.4386 50.6754 49.4418 50.6496C49.4631 50.478 49.4751 50.3018 49.4773 50.1259C49.4779 50.0852 49.4453 50.0517 49.4045 50.0511C49.3626 50.0537 49.3302 50.0832 49.3297 50.124C49.3275 50.2945 49.3159 50.4652 49.2953 50.6314C49.2922 50.6565 49.2889 50.6815 49.2854 50.7065C49.2798 50.747 49.308 50.7843 49.3483 50.7899L49.3586 50.7905ZM49.0607 51.9364C49.0905 51.9364 49.1185 51.9183 49.1297 51.8888C49.2017 51.6989 49.2633 51.5064 49.313 51.3166C49.3234 51.2772 49.2997 51.237 49.2603 51.2266C49.2209 51.2164 49.1805 51.2399 49.1702 51.2794C49.1218 51.464 49.0618 51.6514 48.9917 51.8364C48.9772 51.8745 48.9964 51.9172 49.0345 51.9316C49.0431 51.9349 49.052 51.9364 49.0607 51.9364ZM48.5413 53.0023C48.5665 53.0023 48.591 52.9894 48.6048 52.9662C48.709 52.7907 48.8053 52.6135 48.8906 52.4392C48.9086 52.4027 48.8934 52.3585 48.8568 52.3405C48.8201 52.3225 48.776 52.3378 48.7581 52.3744C48.6745 52.545 48.5801 52.7187 48.478 52.8908C48.4571 52.9258 48.4686 52.9711 48.5037 52.9919C48.5155 52.9989 48.5285 53.0023 48.5413 53.0023ZM47.8693 53.9797C47.8913 53.9797 47.913 53.9699 47.9276 53.9512C48.0529 53.7901 48.172 53.6281 48.2814 53.4697C48.3045 53.4362 48.2961 53.3902 48.2626 53.367C48.2291 53.3437 48.1831 53.3522 48.1599 53.3858C48.0521 53.5419 47.9348 53.7016 47.8111 53.8605C47.7861 53.8926 47.7917 53.939 47.8239 53.9641C47.8374 53.9746 47.8534 53.9797 47.8693 53.9797ZM47.0976 54.8819C47.1173 54.8819 47.1372 54.874 47.1516 54.8583C47.2911 54.7079 47.4249 54.5583 47.5491 54.4134C47.5757 54.3825 47.5721 54.3359 47.5411 54.3094C47.5102 54.2828 47.4636 54.2862 47.4371 54.3173C47.3141 54.4607 47.1816 54.609 47.0434 54.7579C47.0157 54.7878 47.0175 54.8345 47.0474 54.8622C47.0616 54.8754 47.0795 54.8819 47.0976 54.8819ZM46.2633 55.7274C46.2819 55.7274 46.3002 55.7208 46.3145 55.7068C46.4635 55.5636 46.6063 55.4228 46.739 55.2886C46.7676 55.2598 46.7673 55.2129 46.7383 55.1841C46.7093 55.1553 46.6626 55.1561 46.6339 55.1849C46.5021 55.3183 46.3603 55.4582 46.2121 55.6006C46.1828 55.6294 46.1819 55.6755 46.2102 55.7052C46.2247 55.72 46.244 55.7274 46.2633 55.7274ZM45.3938 56.5365C45.4115 56.5365 45.4293 56.5307 45.4434 56.5175C45.5889 56.3858 45.7353 56.2516 45.8819 56.1158C45.9118 56.0878 45.9135 56.0409 45.8858 56.0113C45.8581 55.9816 45.8113 55.98 45.7815 56.0072C45.6354 56.143 45.4893 56.2763 45.3443 56.408C45.3141 56.4352 45.3118 56.4821 45.3392 56.5126C45.3538 56.5282 45.3738 56.5365 45.3938 56.5365ZM44.5046 57.3235C44.5215 57.3235 44.5385 57.3177 44.5524 57.3062C44.7056 57.1761 44.8567 57.0444 45.0017 56.9152C45.0321 56.888 45.0348 56.8419 45.0077 56.8114C44.9805 56.781 44.9339 56.7777 44.9034 56.8049C44.7593 56.9333 44.6091 57.0642 44.4569 57.1934C44.4258 57.2197 44.422 57.2667 44.4483 57.2979C44.463 57.3144 44.4837 57.3235 44.5046 57.3235ZM43.5826 58.0719C43.5985 58.0719 43.6144 58.0669 43.6279 58.0562C43.7853 57.9336 43.9422 57.8093 44.094 57.6866C44.1257 57.6603 44.1305 57.6142 44.1049 57.5821C44.0792 57.5508 44.0327 57.5458 44.001 57.5714C43.8501 57.694 43.6941 57.8183 43.5373 57.9393C43.5051 57.9648 43.4993 58.0109 43.5243 58.043C43.5389 58.062 43.5606 58.0719 43.5826 58.0719ZM42.6324 58.7839C42.6474 58.7839 42.6625 58.779 42.6755 58.7691C42.8363 58.653 42.9961 58.5361 43.1548 58.4168C43.1874 58.3929 43.194 58.346 43.1696 58.3139C43.1452 58.2809 43.099 58.2744 43.0663 58.2991C42.9082 58.4176 42.7491 58.5345 42.5891 58.6497C42.556 58.6736 42.5486 58.7197 42.5725 58.7526C42.5869 58.7732 42.6095 58.7839 42.6324 58.7839ZM41.6606 59.4663C41.675 59.4663 41.6894 59.4614 41.7022 59.4531C41.8658 59.3412 42.0288 59.2284 42.191 59.1148C42.2243 59.0909 42.2325 59.0448 42.209 59.0119C42.1856 58.9781 42.1395 58.9699 42.1062 58.9938C41.9445 59.1074 41.782 59.2193 41.6189 59.3313C41.5852 59.3543 41.5766 59.4004 41.5997 59.4334C41.6139 59.4548 41.637 59.4663 41.6606 59.4663ZM40.6741 60.1266C40.688 60.1266 40.7021 60.1225 40.7146 60.1143C40.8801 60.0056 41.0452 59.8961 41.2099 59.7858C41.2438 59.7636 41.2529 59.7175 41.2302 59.6838C41.2076 59.65 41.1617 59.641 41.1278 59.6632C40.9636 59.7735 40.7987 59.883 40.6335 59.9908C40.5995 60.0139 40.5899 60.0591 40.6124 60.0937C40.6266 60.1151 40.6501 60.1266 40.6741 60.1266ZM39.678 60.7725C39.6916 60.7725 39.7055 60.7693 39.7178 60.761C39.8844 60.654 40.0507 60.547 40.2168 60.4391C40.251 60.4169 40.2608 60.3708 40.2386 60.3371C40.2164 60.3025 40.1707 60.2926 40.1366 60.3148C39.9705 60.4227 39.8043 60.5297 39.638 60.6367C39.6036 60.6589 39.5938 60.705 39.6158 60.7388C39.6299 60.761 39.6537 60.7725 39.678 60.7725Z" fill="#97C6B7"/>
<path fill-rule="evenodd" clip-rule="evenodd" d="M28.873 21.3127C28.9424 20.8981 29.2183 20.599 29.4893 20.6442C29.7603 20.6896 29.9238 21.0623 29.8544 21.4768C29.7851 21.8913 29.5092 22.1905 29.2382 22.1452C28.9672 22.0998 28.8037 21.7271 28.873 21.3127Z" fill="#1F3C49"/>
<path fill-rule="evenodd" clip-rule="evenodd" d="M25.1213 20.9456C25.1888 20.5412 25.4579 20.2493 25.7223 20.2936C25.9866 20.3378 26.1461 20.7014 26.0785 21.1058C26.0108 21.51 25.7416 21.8019 25.4773 21.7577C25.213 21.7135 25.0538 21.3499 25.1213 20.9456Z" fill="#1F3C49"/>
<path fill-rule="evenodd" clip-rule="evenodd" d="M30.3711 19.7104C30.4144 19.7104 30.4574 19.6914 30.4866 19.6548C30.5374 19.5911 30.527 19.4983 30.4632 19.4474C30.0638 19.1287 29.4812 19.0536 29.0139 19.2605C28.9394 19.2935 28.9057 19.3806 28.9387 19.4552C28.9717 19.5298 29.0589 19.5636 29.1335 19.5305C29.503 19.3668 29.9633 19.4262 30.2792 19.6782C30.3064 19.6999 30.3389 19.7104 30.3711 19.7104Z" fill="#1F3C49"/>
<path fill-rule="evenodd" clip-rule="evenodd" d="M26.5093 19.3651C26.5544 19.3651 26.599 19.3445 26.6279 19.3054C26.6765 19.2399 26.6628 19.1475 26.5973 19.0989C26.2193 18.8187 25.6799 18.7664 25.2552 18.9688C25.1817 19.0039 25.1505 19.092 25.1855 19.1656C25.2206 19.2392 25.3087 19.2704 25.3823 19.2354C25.7112 19.0785 26.1288 19.1191 26.4215 19.3361C26.4479 19.3556 26.4787 19.3651 26.5093 19.3651Z" fill="#1F3C49"/>
<path fill-rule="evenodd" clip-rule="evenodd" d="M27.4055 22.309C27.3078 22.2003 27.1417 22.153 26.9845 22.1807C26.8245 22.2063 26.6766 22.3195 26.6017 22.4652C26.523 22.609 26.5126 22.7951 26.5814 22.9419C26.6468 23.0876 26.7794 23.1984 26.9244 23.2178C26.8237 23.1155 26.7675 23.0005 26.7465 22.8869C26.7256 22.7739 26.7466 22.6659 26.7974 22.5688C26.849 22.4721 26.9265 22.3939 27.0318 22.3477C27.1375 22.301 27.2643 22.283 27.4055 22.309Z" fill="#1F3C49"/>
<path fill-rule="evenodd" clip-rule="evenodd" d="M25.1934 23.7558L25.1916 23.7661C25.1157 24.2225 25.2192 24.6692 25.4515 25.0349C25.7277 25.47 26.1852 25.7917 26.7398 25.8841C27.3376 25.9837 27.9152 25.795 28.324 25.4208C28.6158 25.156 28.8223 24.7969 28.8913 24.3826L28.8931 24.3724L25.1934 23.7558Z" fill="#EA5353"/>
<path fill-rule="evenodd" clip-rule="evenodd" d="M25.4515 25.0349C25.7277 25.47 26.1851 25.7917 26.7398 25.8841C27.3375 25.9837 27.9152 25.795 28.324 25.4208C28.1821 25.3381 28.0342 25.2648 27.8842 25.1994C27.3109 24.949 26.6771 24.8015 26.0562 24.8858C25.8495 24.9142 25.6484 24.9668 25.4515 25.0349Z" fill="#FF948F"/>
<path fill-rule="evenodd" clip-rule="evenodd" d="M25.5374 23.8132C25.5806 23.8593 25.6257 23.9036 25.6723 23.9472C26.3601 24.5879 27.7185 24.9811 28.4968 24.3065L25.5374 23.8132Z" fill="white"/>
<path fill-rule="evenodd" clip-rule="evenodd" d="M29.2534 21.085C29.4827 21.085 29.4831 21.4415 29.2534 21.4415C29.0241 21.4415 29.0237 21.085 29.2534 21.085Z" fill="white"/>
<path fill-rule="evenodd" clip-rule="evenodd" d="M25.4836 20.6891C25.713 20.6891 25.7133 21.0455 25.4836 21.0455C25.2544 21.0455 25.254 20.6891 25.4836 20.6891Z" fill="white"/>
</g>
<path fill-rule="evenodd" clip-rule="evenodd" d="M31.5962 3.77677C31.6533 3.77677 31.7006 3.73125 31.7023 3.67371C31.704 3.6151 31.6579 3.56612 31.5992 3.56439C31.4097 3.55879 31.2175 3.55591 31.0283 3.55566H31.0281C30.9695 3.55566 30.922 3.60308 30.9219 3.66169C30.9218 3.72038 30.9693 3.76797 31.0279 3.76805C31.2153 3.76829 31.4054 3.77118 31.5929 3.77669L31.5962 3.77677ZM29.8925 3.79765L29.8985 3.79749C30.0851 3.7872 30.275 3.77954 30.463 3.77452C30.5216 3.77296 30.5679 3.72414 30.5663 3.66553C30.5648 3.60692 30.5186 3.55843 30.4573 3.56222C30.2673 3.56724 30.0754 3.57506 29.8868 3.58543C29.8282 3.58864 29.7834 3.63878 29.7867 3.69731C29.7897 3.75386 29.8366 3.79765 29.8925 3.79765ZM32.7304 3.84217C32.785 3.84217 32.8313 3.80043 32.8362 3.74511C32.8411 3.68667 32.7979 3.63522 32.7394 3.63019C32.5513 3.61398 32.3595 3.60015 32.1699 3.5892C32.1116 3.58599 32.0611 3.63052 32.0577 3.68913C32.0543 3.74766 32.099 3.79788 32.1576 3.80125C32.3454 3.81212 32.535 3.8257 32.7212 3.84184L32.7304 3.84217ZM28.7603 3.89251L28.7723 3.89185C28.9588 3.87094 29.148 3.8525 29.3346 3.83695C29.393 3.83209 29.4365 3.78072 29.4316 3.72227C29.4268 3.66383 29.3757 3.61962 29.317 3.6253C29.1284 3.64103 28.9371 3.65963 28.7486 3.68079C28.6903 3.68729 28.6484 3.73981 28.6549 3.79809C28.661 3.85242 28.707 3.89251 28.7603 3.89251ZM33.8588 3.9718C33.9109 3.9718 33.9562 3.93361 33.9639 3.88068C33.9722 3.82264 33.9319 3.7688 33.8738 3.76049C33.6864 3.73349 33.4959 3.70888 33.3075 3.68723C33.2496 3.68031 33.1966 3.72238 33.1899 3.78058C33.1832 3.83886 33.2251 3.89154 33.2833 3.89821C33.4696 3.91961 33.6581 3.94406 33.8436 3.97073L33.8588 3.9718ZM27.6354 4.05137L27.6534 4.04981C27.8384 4.01828 28.0263 3.98914 28.2117 3.96296C28.2698 3.95473 28.3102 3.90097 28.3021 3.84294C28.2938 3.78482 28.24 3.74465 28.182 3.75264C27.9946 3.77906 27.8048 3.80861 27.6177 3.84047C27.5599 3.85027 27.5211 3.90517 27.5309 3.96296C27.5397 4.01474 27.5846 4.05137 27.6354 4.05137ZM34.978 4.16574C35.0275 4.16574 35.0717 4.131 35.082 4.08062C35.0936 4.02308 35.0565 3.9671 34.999 3.95541C34.8129 3.91763 34.6241 3.88215 34.4378 3.84988C34.3799 3.83975 34.3249 3.87852 34.315 3.93639C34.305 3.99418 34.3437 4.04909 34.4015 4.05913C34.5859 4.09107 34.7727 4.12622 34.9567 4.1636L34.978 4.16574ZM26.5218 4.2741C26.5297 4.2741 26.5376 4.27311 26.5456 4.2713C26.729 4.22916 26.9148 4.18923 27.0981 4.1526C27.1556 4.14107 27.1929 4.08518 27.1814 4.02764C27.1699 3.97018 27.1141 3.93281 27.0564 3.94433C26.8712 3.98138 26.6833 4.02171 26.498 4.06435C26.4409 4.07744 26.4052 4.13449 26.4184 4.19162C26.4296 4.24076 26.4734 4.2741 26.5218 4.2741ZM36.0844 4.42352C36.1314 4.42352 36.1744 4.39199 36.187 4.34433C36.2019 4.28761 36.1681 4.2295 36.1114 4.21451C35.9281 4.16627 35.7416 4.12001 35.5571 4.07696C35.5002 4.06354 35.4429 4.09918 35.4295 4.15623C35.4163 4.21344 35.4518 4.27049 35.5089 4.28383C35.6915 4.32639 35.8759 4.37224 36.0572 4.41998C36.0663 4.42237 36.0754 4.42352 36.0844 4.42352ZM25.4224 4.5605C25.4323 4.5605 25.4423 4.5591 25.4522 4.55614C25.6312 4.50395 25.8144 4.4534 25.9968 4.40591C26.0536 4.39109 26.0876 4.33305 26.0728 4.27633C26.058 4.21953 26.0001 4.1857 25.9433 4.20035C25.7589 4.24835 25.5736 4.29947 25.3928 4.35232C25.3365 4.3687 25.304 4.42764 25.3205 4.48394C25.334 4.53037 25.3764 4.5605 25.4224 4.5605ZM37.1739 4.74459C37.2186 4.74459 37.2603 4.71611 37.2748 4.67132C37.2931 4.61559 37.2627 4.55558 37.2069 4.53739C37.0264 4.47853 36.8428 4.42157 36.6614 4.36814C36.605 4.3516 36.5461 4.38378 36.5295 4.44001C36.513 4.49631 36.5452 4.55534 36.6014 4.57188C36.7809 4.62473 36.9625 4.68104 37.141 4.73932C37.1519 4.74286 37.1631 4.74459 37.1739 4.74459ZM24.34 4.91015C24.3516 4.91015 24.3639 4.90817 24.3754 4.90397C24.5524 4.84108 24.7335 4.77984 24.9122 4.72197C24.9681 4.70394 24.9986 4.64409 24.9805 4.58836C24.9624 4.53247 24.9031 4.50168 24.8471 4.51987C24.666 4.57832 24.4833 4.64022 24.3046 4.70386C24.2487 4.72353 24.2199 4.7842 24.2396 4.83952C24.2553 4.88298 24.2964 4.91015 24.34 4.91015ZM38.2433 5.12769C38.2857 5.12769 38.3258 5.10209 38.3421 5.06011C38.3635 5.00553 38.3365 4.94395 38.282 4.92255C38.1055 4.85357 37.9255 4.78615 37.7471 4.72219C37.692 4.70243 37.6312 4.73108 37.6113 4.7864C37.5916 4.84155 37.6203 4.90238 37.6755 4.92214C37.852 4.98536 38.03 5.05204 38.2046 5.12036C38.2173 5.1253 38.2304 5.12769 38.2433 5.12769ZM23.2772 5.32233C23.2911 5.32233 23.3051 5.31962 23.3183 5.31394C23.492 5.241 23.669 5.16947 23.8435 5.10139C23.8987 5.08023 23.9258 5.01866 23.9044 4.964C23.883 4.90934 23.8221 4.88209 23.767 4.90341C23.59 4.97215 23.4113 5.0445 23.236 5.11826C23.1825 5.14107 23.157 5.2033 23.1792 5.25738C23.1965 5.29797 23.236 5.32233 23.2772 5.32233ZM39.2855 5.57013C39.3256 5.57013 39.3642 5.54708 39.382 5.50815C39.4065 5.4548 39.3831 5.39183 39.3298 5.36738C39.158 5.2886 38.9829 5.21122 38.8089 5.13738C38.755 5.11458 38.6926 5.1396 38.6696 5.1936C38.6467 5.24761 38.6719 5.31 38.7259 5.33289C38.898 5.40599 39.0714 5.48254 39.2413 5.56042C39.2556 5.567 39.2706 5.57013 39.2855 5.57013ZM22.2416 5.79478C22.2573 5.79478 22.2729 5.79124 22.2885 5.78383C22.4565 5.70118 22.6293 5.6196 22.7997 5.54156C22.8533 5.51728 22.8771 5.4543 22.8524 5.40096C22.8286 5.34762 22.7652 5.32408 22.7117 5.34836C22.5388 5.42714 22.3651 5.50954 22.1947 5.59326C22.142 5.61911 22.1206 5.68266 22.1461 5.73534C22.1642 5.77296 22.2021 5.79478 22.2416 5.79478ZM40.3013 6.07206C40.3393 6.07206 40.3762 6.05148 40.3952 6.01551C40.4227 5.96373 40.4029 5.89944 40.3511 5.87203C40.1842 5.78362 40.0136 5.69628 39.844 5.61248C39.7915 5.58655 39.7277 5.60811 39.7017 5.66072C39.6757 5.71332 39.6974 5.77695 39.75 5.80288C39.9177 5.88586 40.0866 5.97221 40.2517 6.05972C40.2675 6.06811 40.2845 6.07206 40.3013 6.07206ZM21.2347 6.32546C21.252 6.32546 21.2701 6.32101 21.2866 6.31171C21.4504 6.21927 21.6175 6.12806 21.7838 6.04055C21.8357 6.01322 21.8554 5.94901 21.8283 5.89707C21.8003 5.84529 21.7361 5.82537 21.6842 5.8527C21.5171 5.94119 21.3475 6.03339 21.1821 6.12674C21.131 6.15555 21.1129 6.22034 21.1417 6.27146C21.1615 6.30603 21.1977 6.32546 21.2347 6.32546ZM41.2876 6.63103C41.3236 6.63103 41.3586 6.61283 41.3786 6.57982C41.4089 6.52969 41.3929 6.46441 41.3427 6.43395C41.1814 6.33632 41.0159 6.23935 40.851 6.14584C40.7998 6.11686 40.7351 6.13481 40.7062 6.18584C40.6773 6.2368 40.6952 6.30167 40.7462 6.33056C40.9094 6.42317 41.0731 6.51907 41.2327 6.61563C41.2499 6.62609 41.2689 6.63103 41.2876 6.63103ZM20.2602 6.91307C20.2799 6.91307 20.2997 6.90763 20.3178 6.89619C20.475 6.79486 20.6372 6.69435 20.7977 6.59721C20.8479 6.56692 20.8644 6.50164 20.8339 6.45142C20.8043 6.40121 20.7384 6.38499 20.6882 6.41528C20.5252 6.51341 20.3622 6.61515 20.2025 6.71756C20.154 6.74925 20.1392 6.81494 20.1713 6.86433C20.191 6.89586 20.2256 6.91307 20.2602 6.91307ZM42.2407 7.24566C42.2746 7.24566 42.3078 7.22952 42.3284 7.19956C42.3616 7.15115 42.3493 7.08505 42.3009 7.05188C42.1449 6.94478 41.9851 6.83851 41.8262 6.73602C41.7768 6.70424 41.7112 6.7184 41.6793 6.76771C41.6476 6.81702 41.6617 6.88271 41.7111 6.91449C41.8684 7.0159 42.0264 7.12111 42.1808 7.22697C42.1991 7.23965 42.2201 7.24566 42.2407 7.24566ZM19.3219 7.55484C19.3433 7.55484 19.3655 7.54834 19.3845 7.53459C19.5359 7.42412 19.6915 7.31455 19.8463 7.20877C19.8949 7.17568 19.9072 7.10958 19.8743 7.06117C19.8414 7.01277 19.7747 7.00026 19.7269 7.03343C19.5705 7.14036 19.4133 7.25117 19.2593 7.36271C19.2116 7.3972 19.2009 7.46355 19.2355 7.51105C19.2569 7.5397 19.289 7.55484 19.3219 7.55484ZM43.1576 7.91392C43.1893 7.91392 43.2207 7.89976 43.2416 7.87268C43.2775 7.82634 43.2689 7.75966 43.2226 7.72377C43.0729 7.60802 42.9194 7.49278 42.7663 7.38123C42.719 7.34666 42.6525 7.3572 42.6179 7.40453C42.5835 7.45195 42.5939 7.51838 42.6412 7.55295C42.7927 7.66326 42.9446 7.77727 43.0927 7.89178C43.112 7.90676 43.1348 7.91392 43.1576 7.91392ZM18.421 8.24862C18.4449 8.24862 18.4688 8.2408 18.4885 8.22466C18.6334 8.10588 18.7824 7.98767 18.9314 7.87316C18.9775 7.83735 18.9857 7.77067 18.9504 7.72424C18.9141 7.67782 18.8475 7.66909 18.8013 7.7049C18.6515 7.82064 18.5009 7.94017 18.3535 8.06019C18.3083 8.09732 18.3017 8.16416 18.3387 8.2096C18.3601 8.23528 18.3906 8.24862 18.421 8.24862ZM44.0358 8.63342C44.0655 8.63342 44.095 8.62107 44.1159 8.59687C44.1544 8.55258 44.1497 8.48549 44.1054 8.44705C43.9623 8.32274 43.8155 8.19894 43.6692 8.07908C43.6238 8.04187 43.5569 8.04854 43.5197 8.0939C43.4826 8.13926 43.4892 8.20618 43.5345 8.24331C43.6792 8.36193 43.8245 8.4845 43.9662 8.60749C43.9863 8.62494 44.0111 8.63342 44.0358 8.63342ZM17.5619 8.99243C17.5874 8.99243 17.6138 8.98321 17.6335 8.96453C17.7718 8.83776 17.9143 8.71131 18.0558 8.58857C18.1003 8.55013 18.1052 8.48312 18.0665 8.43875C18.0279 8.39447 17.9612 8.38953 17.9167 8.42805C17.7735 8.55202 17.6303 8.67987 17.4903 8.80787C17.4475 8.84755 17.4442 8.91472 17.4837 8.95794C17.5051 8.98083 17.5331 8.99243 17.5619 8.99243ZM44.8719 9.4022C44.8996 9.4022 44.9273 9.39141 44.9481 9.37001C44.989 9.32803 44.988 9.26077 44.946 9.21986C44.8102 9.08774 44.6707 8.95578 44.5312 8.82761C44.4881 8.78793 44.4208 8.79073 44.3811 8.83395C44.3415 8.87708 44.3443 8.94434 44.3875 8.98402C44.5255 9.11079 44.6635 9.24135 44.7979 9.37207C44.8186 9.39224 44.8453 9.4022 44.8719 9.4022ZM16.7468 9.78332C16.774 9.78332 16.802 9.77262 16.8226 9.75121C16.9535 9.6167 17.0885 9.48244 17.2226 9.35205C17.2646 9.31122 17.2654 9.24404 17.2251 9.2019C17.184 9.15975 17.1165 9.15876 17.0745 9.19967C16.9386 9.33138 16.8028 9.46713 16.6703 9.60304C16.6299 9.64502 16.6308 9.71228 16.6727 9.75319C16.6933 9.77327 16.7197 9.78332 16.7468 9.78332ZM45.6632 10.217C45.6889 10.217 45.7146 10.2078 45.735 10.1891C45.7782 10.1494 45.7811 10.0821 45.7415 10.0389C45.6135 9.89955 45.4816 9.75985 45.3494 9.62361C45.3086 9.58163 45.2413 9.58056 45.1993 9.62147C45.1572 9.6623 45.1562 9.72956 45.197 9.77163C45.3279 9.90638 45.4584 10.0446 45.5849 10.1826C45.6059 10.2054 45.6345 10.217 45.6632 10.217ZM15.9781 10.6192C16.0077 10.6192 16.0374 10.6069 16.0579 10.5827C16.1814 10.4411 16.3082 10.2994 16.4341 10.1617C16.4745 10.1186 16.4712 10.0514 16.4284 10.0116C16.3847 9.97195 16.3181 9.97483 16.2785 10.0179C16.1501 10.1572 16.0225 10.3002 15.8974 10.4434C15.8595 10.4877 15.8637 10.5548 15.9081 10.5932C15.9287 10.6107 15.9534 10.6192 15.9781 10.6192ZM46.4074 11.0758C46.4311 11.0758 46.4548 11.068 46.4746 11.0519C46.52 11.0147 46.5267 10.9478 46.4895 10.9024C46.3695 10.7557 46.2458 10.6087 46.1216 10.4653C46.0831 10.421 46.0161 10.4163 45.9718 10.4546C45.9275 10.493 45.9226 10.56 45.9611 10.6045C46.084 10.7462 46.2064 10.8917 46.3252 11.0369C46.3461 11.0625 46.3766 11.0758 46.4074 11.0758ZM15.2576 11.4967C15.2897 11.4967 15.321 11.4826 15.3416 11.4555C15.4568 11.3069 15.5754 11.1584 15.6939 11.0139C15.731 10.9686 15.7244 10.9017 15.6791 10.8645C15.6338 10.8272 15.5663 10.8339 15.5293 10.8792C15.4099 11.0252 15.2897 11.1753 15.1737 11.3255C15.1383 11.3718 15.1465 11.4386 15.1926 11.4745C15.2123 11.4895 15.2354 11.4967 15.2576 11.4967ZM47.1018 11.976C47.1235 11.976 47.1453 11.9694 47.1641 11.9558C47.2115 11.9213 47.2221 11.8548 47.1876 11.8074C47.0763 11.6543 46.961 11.5004 46.845 11.35C46.8091 11.3035 46.7425 11.295 46.6961 11.3307C46.6495 11.3665 46.641 11.4332 46.6768 11.4796C46.7916 11.6285 46.9056 11.7808 47.0158 11.9322C47.0365 11.9609 47.069 11.976 47.1018 11.976ZM14.5895 12.4134C14.6232 12.4134 14.6562 12.3973 14.6768 12.3673C14.7829 12.2125 14.8933 12.0575 15.0027 11.9067C15.0373 11.8594 15.0274 11.7929 14.9797 11.7584C14.9328 11.7238 14.8661 11.7341 14.8315 11.7816C14.7204 11.934 14.6093 12.0907 14.5022 12.2471C14.4685 12.2954 14.4808 12.3616 14.5294 12.3948C14.5475 12.4074 14.5689 12.4134 14.5895 12.4134ZM47.7439 12.9144C47.7635 12.9144 47.7835 12.9089 47.8013 12.8975C47.8506 12.8657 47.8647 12.8 47.8331 12.7506C47.7307 12.5915 47.6244 12.4312 47.5169 12.2743C47.4839 12.2259 47.4179 12.2135 47.3693 12.2467C47.321 12.2798 47.3086 12.3459 47.3417 12.3943C47.448 12.5495 47.5532 12.7081 47.6544 12.8656C47.6748 12.8972 47.709 12.9144 47.7439 12.9144ZM13.9733 13.3662C14.0095 13.3662 14.0449 13.348 14.0647 13.3151C14.1618 13.1553 14.2622 12.9945 14.3635 12.8369C14.3956 12.7877 14.3816 12.7219 14.3322 12.6901C14.2828 12.6584 14.217 12.6725 14.1857 12.7217C14.0828 12.8809 13.9807 13.0435 13.8827 13.205C13.8523 13.2552 13.8687 13.3205 13.919 13.3508C13.9362 13.3613 13.9552 13.3662 13.9733 13.3662ZM48.3318 13.8884C48.3495 13.8884 48.3673 13.884 48.3839 13.8747C48.4349 13.8459 48.453 13.781 48.4241 13.73C48.3309 13.5648 48.2337 13.3987 48.1356 13.236C48.1053 13.1858 48.04 13.1696 47.9898 13.2C47.9396 13.2303 47.9234 13.2956 47.9538 13.3458C48.0508 13.5067 48.1469 13.6711 48.2392 13.8344C48.2588 13.869 48.2947 13.8884 48.3318 13.8884ZM13.4147 14.3521C13.4526 14.3521 13.4897 14.3316 13.5086 14.2957C13.5959 14.1302 13.6872 13.964 13.7794 13.8014C13.8082 13.7504 13.791 13.6856 13.7399 13.6566C13.6889 13.6277 13.6238 13.6456 13.595 13.6966C13.502 13.8609 13.4098 14.029 13.3209 14.1961C13.2929 14.2479 13.3127 14.3122 13.3645 14.3397C13.381 14.3481 13.3975 14.3521 13.4147 14.3521ZM48.8629 14.8951C48.8787 14.8951 48.8947 14.8916 48.9097 14.8841C48.9623 14.8582 48.9841 14.7946 48.9582 14.742C48.8745 14.5717 48.7871 14.4002 48.6983 14.2321C48.6709 14.1802 48.6067 14.1603 48.5549 14.1877C48.503 14.2151 48.4832 14.2794 48.5105 14.3313C48.5983 14.4976 48.6848 14.6672 48.7676 14.8357C48.786 14.8733 48.8237 14.8951 48.8629 14.8951ZM12.9124 15.3677C12.9519 15.3677 12.9906 15.3448 13.0087 15.3058C13.0869 15.1355 13.1684 14.9645 13.2516 14.7972C13.2771 14.7446 13.2557 14.6809 13.203 14.6549C13.1503 14.6291 13.0869 14.6504 13.0606 14.7031C12.9775 14.8721 12.8943 15.0451 12.8153 15.2171C12.7914 15.2704 12.8145 15.3335 12.868 15.358C12.882 15.3645 12.8976 15.3677 12.9124 15.3677ZM49.3359 15.931C49.3496 15.931 49.3636 15.9283 49.3771 15.9226C49.4311 15.8998 49.4564 15.8375 49.4337 15.7835C49.3599 15.6088 49.2825 15.4324 49.2034 15.2592C49.1791 15.2059 49.1162 15.1824 49.0627 15.2068C49.0093 15.2311 48.9859 15.2941 49.0102 15.3474C49.0883 15.5188 49.165 15.6932 49.238 15.8661C49.2551 15.9066 49.2944 15.931 49.3359 15.931ZM12.4696 16.4101C12.5116 16.4101 12.552 16.3844 12.5684 16.3425C12.6359 16.169 12.7075 15.9936 12.7808 15.8212C12.8039 15.7672 12.7792 15.7049 12.7248 15.682C12.6713 15.6589 12.6088 15.6841 12.5857 15.7381C12.5116 15.9125 12.4392 16.0897 12.3709 16.2651C12.3495 16.3197 12.3758 16.3813 12.431 16.4027C12.4433 16.4077 12.4565 16.4101 12.4696 16.4101ZM49.7484 16.9928C49.7602 16.9928 49.7722 16.9909 49.784 16.9867C49.8392 16.9671 49.8681 16.9063 49.8484 16.851C49.7846 16.6715 49.7174 16.4908 49.6486 16.3141C49.6275 16.2595 49.566 16.2323 49.5112 16.2536C49.4566 16.2749 49.4294 16.3364 49.4508 16.3911C49.5187 16.5659 49.5851 16.7446 49.6483 16.9222C49.6638 16.9657 49.7048 16.9928 49.7484 16.9928ZM12.0859 17.4792C12.1303 17.4792 12.1715 17.4507 12.1863 17.4059C12.2447 17.2278 12.3065 17.0479 12.3699 16.8713C12.3896 16.8162 12.3608 16.7554 12.3057 16.7356C12.2505 16.7158 12.1896 16.7444 12.1698 16.7996C12.1056 16.9781 12.0431 17.1599 11.9846 17.34C11.9665 17.3957 11.997 17.4556 12.0529 17.4738C12.0636 17.4775 12.0743 17.4792 12.0859 17.4792ZM50.0987 18.0754C50.1085 18.0754 50.1186 18.0741 50.1285 18.0712C50.1849 18.0547 50.2171 17.9958 50.2007 17.9395C50.1474 17.757 50.0908 17.5733 50.0327 17.3936C50.0146 17.3378 49.9545 17.3074 49.899 17.3252C49.8431 17.3433 49.8126 17.4032 49.8306 17.459C49.8882 17.6368 49.9441 17.8185 49.9968 17.999C50.0103 18.0454 50.0527 18.0754 50.0987 18.0754ZM11.7641 18.5686C11.811 18.5686 11.8546 18.537 11.867 18.4895C11.9147 18.308 11.9657 18.1249 12.0192 17.9453C12.0357 17.8891 12.0036 17.83 11.9468 17.8134C11.8908 17.7967 11.8316 17.8289 11.8151 17.8851C11.7616 18.0667 11.7097 18.2518 11.6612 18.4352C11.6463 18.4918 11.6801 18.55 11.7369 18.565C11.7459 18.5674 11.755 18.5686 11.7641 18.5686ZM50.3858 19.1745C50.3937 19.1745 50.4017 19.1737 50.4097 19.1718C50.4669 19.1586 50.5025 19.1016 50.4893 19.0444C50.4465 18.8589 50.4007 18.6722 50.353 18.4898C50.3382 18.433 50.2802 18.3991 50.2234 18.4139C50.1666 18.4287 50.1327 18.4867 50.1475 18.5435C50.1947 18.724 50.2401 18.9086 50.2824 19.0922C50.2937 19.1413 50.3374 19.1745 50.3858 19.1745ZM11.5055 19.6749C11.5549 19.6749 11.5994 19.64 11.6101 19.5898C11.6471 19.4059 11.6875 19.2201 11.7303 19.0378C11.7435 18.9807 11.7081 18.9236 11.6513 18.9103C11.5936 18.8972 11.5368 18.9324 11.5237 18.9895C11.4809 19.1738 11.4397 19.3615 11.4018 19.5474C11.3903 19.6049 11.4273 19.661 11.4841 19.6726L11.5055 19.6749ZM50.609 20.2885L50.6271 20.287C50.6849 20.2771 50.7238 20.2223 50.7139 20.1644C50.682 19.9775 50.6469 19.7886 50.6097 19.6029C50.5981 19.5454 50.542 19.5082 50.4847 19.5197C50.4271 19.5312 50.3899 19.5872 50.4014 19.6446C50.4383 19.8284 50.473 20.0152 50.5045 20.2001C50.5134 20.2519 50.5583 20.2885 50.609 20.2885ZM11.3112 20.794C11.3631 20.794 11.4084 20.7559 11.4166 20.7029C11.443 20.5176 11.4726 20.3299 11.5047 20.145C11.5154 20.0872 11.4767 20.0322 11.4183 20.0221C11.3606 20.0122 11.3055 20.0508 11.2956 20.1086C11.2635 20.2955 11.233 20.4853 11.2059 20.6726C11.1976 20.7306 11.238 20.7845 11.2964 20.7928L11.3112 20.794ZM50.7683 21.413L50.7803 21.4124C50.8386 21.4057 50.8805 21.3532 50.874 21.2949C50.8526 21.1062 50.8284 20.9155 50.802 20.7283C50.7938 20.6703 50.7405 20.6299 50.6819 20.6381C50.6239 20.6463 50.5835 20.7001 50.5917 20.7582C50.6179 20.9433 50.6418 21.1319 50.6628 21.3186C50.669 21.373 50.7149 21.413 50.7683 21.413ZM11.1809 21.9223C11.2352 21.9223 11.2821 21.8807 11.2862 21.8253C11.3027 21.6388 11.3216 21.4496 11.343 21.2632C11.3504 21.205 11.3084 21.1522 11.25 21.1455C11.1924 21.139 11.1389 21.1805 11.1323 21.2388C11.1109 21.4272 11.0911 21.6184 11.0747 21.807C11.0697 21.8654 11.1133 21.9169 11.1718 21.9219L11.1809 21.9223ZM50.8628 22.5452L50.8688 22.545C50.9274 22.5418 50.9722 22.4917 50.969 22.4331C50.9585 22.2439 50.9452 22.0522 50.9294 21.8636C50.9245 21.805 50.8729 21.7612 50.8147 21.7665C50.7562 21.7714 50.7129 21.8228 50.7178 21.8812C50.7334 22.0679 50.7465 22.2575 50.7569 22.4449C50.76 22.5014 50.8069 22.5452 50.8628 22.5452ZM11.1152 23.0564C11.172 23.0564 11.2197 23.0109 11.2213 22.9534C11.2271 22.7657 11.2353 22.5758 11.246 22.3888C11.2493 22.3302 11.2049 22.28 11.1464 22.2766C11.088 22.2739 11.037 22.318 11.0337 22.3765C11.023 22.5654 11.0147 22.7574 11.009 22.947C11.0073 23.0057 11.0534 23.0546 11.1119 23.0564H11.1152ZM50.8939 23.6805C50.9526 23.6805 51.0001 23.633 51.0001 23.5743V23.5555C51.0001 23.3722 50.9977 23.1864 50.9927 23.0035C50.9911 22.9448 50.9399 22.899 50.8836 22.9002C50.825 22.9018 50.7788 22.9506 50.7803 23.0092C50.7853 23.1903 50.7877 23.3741 50.7877 23.5555V23.5743C50.7877 23.633 50.8353 23.6805 50.8939 23.6805ZM11.1136 24.2296L11.1169 24.2296C11.1754 24.2279 11.2215 24.179 11.2198 24.1204C11.2149 23.9332 11.2124 23.7431 11.2124 23.5555V23.5184C11.2124 23.4598 11.1646 23.4121 11.1062 23.412C11.0478 23.412 11 23.4593 11 23.5178V23.5555C11 23.745 11.0025 23.9372 11.0074 24.1264C11.0091 24.184 11.0568 24.2296 11.1136 24.2296ZM50.8617 24.8161C50.9176 24.8161 50.9644 24.7725 50.9677 24.7159C50.9784 24.5269 50.9868 24.3349 50.9923 24.1454C50.9939 24.0868 50.9478 24.0379 50.8891 24.0362C50.832 24.0345 50.7816 24.0807 50.7799 24.1393C50.7744 24.3269 50.7663 24.5168 50.7556 24.7038C50.7522 24.7623 50.797 24.8126 50.8556 24.8159L50.8617 24.8161ZM11.178 25.3637L11.187 25.3634C11.2455 25.3584 11.2891 25.307 11.2842 25.2486C11.2677 25.0623 11.2545 24.8727 11.2438 24.685C11.2405 24.6264 11.1903 24.5819 11.1319 24.5849C11.0734 24.5882 11.029 24.6383 11.0323 24.6969C11.043 24.8866 11.0561 25.0783 11.0718 25.2665C11.0767 25.3219 11.1236 25.3637 11.178 25.3637ZM50.7642 25.9478C50.8175 25.9478 50.8634 25.9079 50.8696 25.8537C50.891 25.6665 50.9102 25.4753 50.9265 25.2856C50.9314 25.2271 50.8882 25.1757 50.8298 25.1706C50.7717 25.1658 50.7199 25.2089 50.7149 25.2674C50.6987 25.4551 50.6798 25.6442 50.6586 25.8296C50.6519 25.8878 50.6938 25.9405 50.7521 25.9472L50.7642 25.9478ZM11.3053 26.4924L11.3209 26.4914C11.3786 26.4831 11.4189 26.4293 11.4107 26.3713C11.3843 26.1861 11.3605 25.9975 11.3391 25.8108C11.3325 25.7526 11.2798 25.7103 11.2222 25.7172C11.1637 25.7238 11.1217 25.7764 11.1283 25.8347C11.1497 26.0235 11.1736 26.214 11.2008 26.4012C11.2082 26.4542 11.2534 26.4924 11.3053 26.4924ZM50.603 27.0721C50.6536 27.0721 50.6986 27.0357 50.7075 26.984C50.7396 26.7982 50.7696 26.6084 50.7966 26.4201C50.805 26.362 50.7647 26.3082 50.7066 26.2998C50.6484 26.2917 50.5948 26.3318 50.5865 26.3898C50.5596 26.5762 50.53 26.764 50.4982 26.9479C50.4882 27.0057 50.5269 27.0606 50.5847 27.0706L50.603 27.0721ZM11.4982 27.6121L11.5196 27.61C11.5772 27.5985 11.6143 27.5424 11.6028 27.485C11.5657 27.3013 11.5303 27.1144 11.499 26.9296C11.4892 26.8717 11.434 26.833 11.3764 26.8428C11.3188 26.8527 11.2792 26.9077 11.2891 26.9655C11.322 27.1524 11.3566 27.3412 11.3945 27.5269C11.4044 27.5773 11.4488 27.6121 11.4982 27.6121ZM50.3773 28.1857C50.4256 28.1857 50.4692 28.1526 50.4806 28.1035C50.5235 27.9191 50.5643 27.7313 50.602 27.5455C50.6137 27.488 50.5764 27.432 50.5189 27.4203C50.4615 27.4087 50.4054 27.4458 50.3938 27.5034C50.3566 27.6873 50.3162 27.873 50.2738 28.0554C50.2605 28.1126 50.2961 28.1696 50.3531 28.1829C50.3613 28.1848 50.3693 28.1857 50.3773 28.1857ZM11.7541 28.7188C11.7631 28.7188 11.7722 28.7177 11.7813 28.7153C11.8381 28.7005 11.8718 28.6424 11.857 28.5856C11.8092 28.404 11.764 28.2193 11.722 28.0371C11.7088 27.9799 11.6512 27.9443 11.5944 27.9576C11.5376 27.9709 11.5014 28.0279 11.5154 28.0851C11.5573 28.2692 11.6034 28.4558 11.652 28.6395C11.6644 28.6872 11.7072 28.7188 11.7541 28.7188ZM50.0882 29.2842C50.1341 29.2842 50.1765 29.2543 50.1901 29.208C50.2435 29.0263 50.2951 28.8411 50.3433 28.6578C50.3582 28.6011 50.3243 28.543 50.2676 28.5281C50.2107 28.5132 50.1529 28.5471 50.1379 28.6038C50.0902 28.7851 50.0393 28.9683 49.9863 29.1481C49.9698 29.2043 50.002 29.2633 50.0582 29.2799C50.0682 29.2828 50.0783 29.2842 50.0882 29.2842ZM12.0742 29.8088C12.0849 29.8088 12.0956 29.8071 12.1063 29.8036C12.1622 29.7854 12.1927 29.7256 12.1746 29.6698C12.117 29.4917 12.061 29.3101 12.0083 29.1298C11.9918 29.0736 11.9326 29.0412 11.8766 29.0578C11.8198 29.0743 11.7877 29.1333 11.8041 29.1897C11.8577 29.3718 11.9145 29.5553 11.9729 29.7354C11.9877 29.7802 12.0289 29.8088 12.0742 29.8088ZM49.7364 30.3644C49.78 30.3644 49.8209 30.3374 49.8363 30.294C49.9001 30.1159 49.9622 29.9342 50.021 29.7535C50.0392 29.6977 50.0086 29.6377 49.9529 29.6196C49.8973 29.6014 49.8372 29.6319 49.8191 29.6877C49.7609 29.8664 49.6994 30.0463 49.6364 30.2224C49.6166 30.2776 49.6454 30.3384 49.7006 30.3581C49.7125 30.3624 49.7245 30.3644 49.7364 30.3644ZM12.4572 30.8823C12.4696 30.8823 12.4828 30.88 12.4959 30.875C12.5503 30.8537 12.5774 30.7921 12.556 30.7375C12.4877 30.5626 12.421 30.3841 12.3576 30.2066C12.3379 30.1513 12.277 30.1225 12.2218 30.1422C12.1667 30.162 12.1378 30.2226 12.1576 30.2779C12.2218 30.4573 12.2893 30.6379 12.3585 30.8147C12.3749 30.8567 12.4144 30.8823 12.4572 30.8823ZM49.3237 31.4209C49.3651 31.4209 49.4044 31.3966 49.4215 31.3561C49.4952 31.1823 49.5674 31.0049 49.6361 30.829C49.6575 30.7744 49.6305 30.7129 49.5759 30.6914C49.5211 30.67 49.4597 30.6971 49.4384 30.7517C49.3703 30.9257 49.2989 31.1012 49.226 31.2732C49.2031 31.3272 49.2283 31.3895 49.2823 31.4125C49.2958 31.4182 49.3099 31.4209 49.3237 31.4209ZM12.9007 31.9311C12.9156 31.9311 12.9304 31.9279 12.9452 31.9214C12.9987 31.897 13.0218 31.834 12.9971 31.7807C12.9197 31.6101 12.8423 31.4357 12.769 31.2623C12.746 31.2082 12.6834 31.1832 12.6299 31.2058C12.5756 31.2287 12.5509 31.291 12.5731 31.345C12.648 31.5204 12.7254 31.6966 12.8044 31.869C12.8217 31.9081 12.8604 31.9311 12.9007 31.9311ZM48.852 32.4504C48.8912 32.4504 48.9288 32.4287 48.9473 32.3911C49.0308 32.2219 49.1131 32.0488 49.1919 31.8768C49.2163 31.8235 49.1929 31.7605 49.1396 31.736C49.0861 31.7117 49.0232 31.7351 48.9988 31.7883C48.9209 31.9585 48.8394 32.1297 48.7568 32.2972C48.7308 32.3498 48.7525 32.4134 48.8051 32.4394C48.8201 32.4469 48.8362 32.4504 48.852 32.4504ZM13.4044 32.9522C13.4208 32.9522 13.4381 32.9483 13.4538 32.9399C13.5056 32.9125 13.5254 32.8482 13.4974 32.7963C13.4101 32.6304 13.3237 32.4608 13.2406 32.2922C13.2142 32.2395 13.1508 32.2178 13.0981 32.2439C13.0455 32.2698 13.0241 32.3334 13.0496 32.386C13.1335 32.5564 13.2216 32.7279 13.3097 32.8957C13.3295 32.9316 13.3657 32.9522 13.4044 32.9522ZM48.322 33.452C48.359 33.452 48.395 33.4327 48.4145 33.3982C48.5078 33.2335 48.5999 33.0654 48.6882 32.8984C48.7156 32.8466 48.6959 32.7824 48.644 32.7549C48.5921 32.7274 48.5279 32.7472 48.5005 32.7991C48.4131 32.9642 48.322 33.1306 48.2297 33.2935C48.2008 33.3445 48.2187 33.4093 48.2698 33.4382C48.2863 33.4476 48.3043 33.452 48.322 33.452ZM13.9653 33.9422C13.9834 33.9422 14.0032 33.9372 14.0196 33.9268C14.0698 33.8965 14.0863 33.8312 14.0559 33.7811C13.9587 33.6205 13.8624 33.4562 13.7702 33.2927C13.7414 33.2417 13.6764 33.2237 13.6253 33.2526C13.5743 33.2815 13.5562 33.3463 13.585 33.3974C13.6788 33.5627 13.776 33.7287 13.8739 33.891C13.8945 33.924 13.9291 33.9422 13.9653 33.9422ZM47.7353 34.4225C47.7702 34.4225 47.8044 34.4053 47.8247 34.3737C47.927 34.215 48.0285 34.0523 48.1267 33.8902C48.157 33.84 48.1409 33.7746 48.0907 33.7443C48.0406 33.7139 47.9753 33.7301 47.9449 33.7802C47.8478 33.9407 47.7473 34.1017 47.6462 34.2587C47.6144 34.308 47.6286 34.3737 47.6779 34.4055C47.6957 34.417 47.7156 34.4225 47.7353 34.4225ZM14.5809 34.8985C14.6015 34.8985 14.6229 34.8925 14.641 34.8799C14.6895 34.8467 14.7019 34.7807 14.669 34.7323C14.5619 34.5771 14.4566 34.4187 14.3553 34.2612C14.324 34.2118 14.2582 34.1976 14.2088 34.2295C14.1594 34.2613 14.1454 34.327 14.1767 34.3762C14.2796 34.5354 14.3858 34.6956 14.4936 34.8523C14.5142 34.8824 14.5471 34.8985 14.5809 34.8985ZM47.0938 35.3581C47.1266 35.3581 47.159 35.343 47.1797 35.3144C47.2914 35.161 47.4021 35.0043 47.5088 34.8486C47.542 34.8002 47.5297 34.7341 47.4813 34.701C47.4329 34.6678 47.3668 34.6801 47.3337 34.7285C47.2281 34.8826 47.1185 35.0377 47.008 35.1894C46.9735 35.2369 46.984 35.3033 47.0314 35.3378C47.0502 35.3515 47.0721 35.3581 47.0938 35.3581ZM15.2501 35.8172C15.2732 35.8172 15.2962 35.8099 15.3152 35.795C15.3621 35.7591 15.3703 35.6925 15.3349 35.646C15.2197 35.4975 15.1053 35.3454 14.9949 35.1939C14.9604 35.1464 14.8945 35.1359 14.8468 35.1705C14.799 35.205 14.7892 35.2714 14.8237 35.3189C14.9349 35.4721 15.0501 35.6259 15.1662 35.7759C15.1876 35.803 15.2189 35.8172 15.2501 35.8172ZM46.4002 36.2563C46.4309 36.2563 46.4614 36.243 46.4824 36.2173C46.6019 36.0713 46.7215 35.9211 46.8375 35.7707C46.8734 35.7244 46.8649 35.6576 46.8185 35.6218C46.772 35.586 46.7053 35.5945 46.6695 35.6409C46.5546 35.7896 46.4364 35.9383 46.318 36.0827C46.2809 36.1282 46.2875 36.1951 46.333 36.2322C46.3527 36.2484 46.3764 36.2563 46.4002 36.2563ZM15.9713 36.6963C15.996 36.6963 16.0207 36.6878 16.0405 36.6704C16.0849 36.6319 16.0899 36.5649 16.0512 36.5205C15.9277 36.3785 15.805 36.233 15.6865 36.0885C15.6494 36.043 15.5828 36.0364 15.5375 36.0737C15.4922 36.1108 15.4856 36.1777 15.5227 36.2231C15.642 36.3692 15.7663 36.5161 15.8906 36.6598C15.912 36.684 15.9417 36.6963 15.9713 36.6963ZM45.6562 37.1141C45.6849 37.1141 45.7135 37.1026 45.7344 37.0797C45.8625 36.9402 45.9904 36.7969 46.1145 36.6538C46.153 36.6096 46.1482 36.5425 46.1039 36.504C46.0597 36.4656 45.9926 36.4703 45.9541 36.5147C45.8313 36.6563 45.7047 36.798 45.578 36.936C45.5384 36.9793 45.5412 37.0464 45.5844 37.0861C45.6048 37.1048 45.6306 37.1141 45.6562 37.1141ZM16.7402 37.533C16.7666 37.533 16.7929 37.5231 16.8143 37.503C16.8563 37.462 16.8571 37.3948 16.816 37.3527C16.6859 37.2188 16.555 37.0807 16.4274 36.9421C16.3879 36.899 16.3204 36.8962 16.2776 36.9359C16.2348 36.9755 16.2315 37.0427 16.271 37.0859C16.4002 37.2259 16.5319 37.3654 16.6637 37.5009C16.6842 37.5222 16.7122 37.533 16.7402 37.533ZM44.8646 37.9285C44.8913 37.9285 44.918 37.9185 44.9386 37.8984C45.0745 37.7664 45.2103 37.6306 45.3424 37.4946C45.3832 37.4526 45.3823 37.3853 45.3403 37.3445C45.2982 37.3037 45.231 37.3046 45.1901 37.3465C45.0594 37.4811 44.925 37.6155 44.7906 37.7461C44.7486 37.787 44.7476 37.8542 44.7885 37.8963C44.8092 37.9177 44.837 37.9285 44.8646 37.9285ZM17.5544 38.3243C17.5832 38.3243 17.612 38.3128 17.6326 38.2899C17.673 38.2467 17.6697 38.1795 17.6269 38.1399C17.4877 38.0127 17.3494 37.8823 17.2153 37.7521C17.1733 37.7113 17.1066 37.7122 17.0654 37.7543C17.0243 37.7964 17.0259 37.8636 17.0679 37.9045C17.2029 38.036 17.3429 38.1679 17.4828 38.2964C17.5034 38.3151 17.5289 38.3243 17.5544 38.3243ZM44.0276 38.6967C44.0523 38.6967 44.0771 38.6881 44.0972 38.6708C44.2403 38.5465 44.3837 38.4186 44.5233 38.2904C44.5666 38.2507 44.5694 38.1835 44.5298 38.1404C44.4901 38.0972 44.4229 38.0944 44.3797 38.1339C44.2416 38.2608 44.0997 38.3874 43.958 38.5102C43.9137 38.5487 43.9089 38.6158 43.9474 38.66C43.9683 38.6843 43.9979 38.6967 44.0276 38.6967ZM18.4129 39.0676C18.4433 39.0676 18.4738 39.0544 18.4944 39.0287C18.5322 38.9833 18.5248 38.9164 18.4795 38.8793C18.3347 38.7605 18.1889 38.6381 18.0482 38.5156C18.0037 38.4772 17.9362 38.482 17.8984 38.5262C17.8597 38.5706 17.8646 38.6377 17.9091 38.6761C18.0515 38.7999 18.1988 38.9236 18.3454 39.0437C18.3651 39.0598 18.389 39.0676 18.4129 39.0676ZM43.1485 39.4166C43.1711 39.4166 43.194 39.4094 43.2134 39.3945C43.363 39.279 43.5134 39.1593 43.6606 39.0388C43.7061 39.0016 43.7127 38.9347 43.6755 38.8893C43.6383 38.844 43.5715 38.8372 43.526 38.8744C43.3805 38.9936 43.2316 39.112 43.0836 39.2264C43.0371 39.2622 43.0286 39.3288 43.0644 39.3753C43.0853 39.4024 43.1167 39.4166 43.1485 39.4166ZM19.3109 39.761C19.3439 39.761 19.376 39.7458 19.3965 39.7173C19.4311 39.6698 19.4212 39.6034 19.3735 39.5689C19.222 39.4588 19.0697 39.3448 18.9216 39.2305C18.8755 39.1947 18.8088 39.2033 18.7726 39.2497C18.7372 39.2961 18.7454 39.3628 18.7923 39.3986C18.9413 39.5142 19.0953 39.6293 19.2484 39.7406C19.2673 39.7544 19.2895 39.761 19.3109 39.761ZM42.2289 40.0858C42.2496 40.0858 42.2704 40.0798 42.2888 40.0672C42.4453 39.96 42.6024 39.8491 42.7557 39.7375C42.8031 39.7029 42.8136 39.6365 42.7791 39.589C42.7446 39.5416 42.6783 39.5311 42.6307 39.5657C42.479 39.6761 42.3236 39.7859 42.1687 39.892C42.1203 39.9251 42.108 39.9912 42.1412 40.0396C42.1617 40.0696 42.195 40.0858 42.2289 40.0858ZM20.247 40.402C20.2816 40.402 20.3162 40.3848 20.3368 40.3532C20.368 40.3039 20.354 40.2381 20.3046 40.2064C20.1474 40.1053 19.9894 40.0003 19.8346 39.8944C19.786 39.8613 19.7202 39.8736 19.6872 39.922C19.6535 39.9704 19.6658 40.0365 19.7144 40.0696C19.8708 40.1766 20.0305 40.2828 20.1894 40.385C20.2075 40.3964 20.2273 40.402 20.247 40.402ZM41.2727 40.7014C41.2914 40.7014 41.3104 40.6965 41.3275 40.6861C41.4897 40.5882 41.6529 40.4863 41.8127 40.3834C41.8621 40.3517 41.8762 40.2859 41.8446 40.2367C41.8128 40.1874 41.747 40.173 41.6977 40.2049C41.5396 40.3066 41.378 40.4075 41.2177 40.5043C41.1675 40.5347 41.1513 40.5999 41.1817 40.6502C41.2017 40.6832 41.2368 40.7014 41.2727 40.7014ZM21.2175 40.9882C21.2545 40.9882 21.2908 40.9689 21.3097 40.9343C21.3385 40.8833 21.3212 40.8185 21.2702 40.7896C21.1072 40.6976 20.9434 40.6018 20.7829 40.5049C20.7326 40.4746 20.6676 40.4907 20.6371 40.5409C20.6067 40.5911 20.6232 40.6564 20.6734 40.6867C20.8355 40.7847 21.001 40.8815 21.1656 40.9745C21.1821 40.9838 21.2002 40.9882 21.2175 40.9882ZM40.2824 41.2618C40.2992 41.2618 40.3161 41.2579 40.3319 41.2495C40.4997 41.1608 40.6685 41.0685 40.8339 40.975C40.8849 40.9461 40.9029 40.8813 40.8741 40.8302C40.8452 40.7792 40.7803 40.7613 40.7293 40.7901C40.5657 40.8827 40.3986 40.9741 40.2327 41.0617C40.1809 41.0891 40.161 41.1533 40.1884 41.2052C40.2074 41.2413 40.2443 41.2618 40.2824 41.2618ZM22.2193 41.5179C22.2588 41.5179 22.2959 41.4961 22.3148 41.4587C22.3403 41.406 22.3189 41.3423 22.2662 41.3164C22.0991 41.2339 21.9296 41.1477 21.7641 41.0602C21.7122 41.0328 21.648 41.0526 21.6209 41.1044C21.5937 41.1562 21.6134 41.2205 21.6653 41.2479C21.8324 41.3363 22.0028 41.4234 22.1724 41.5069C22.188 41.5144 22.2037 41.5179 22.2193 41.5179ZM39.2609 41.7647C39.2757 41.7647 39.2907 41.7615 39.305 41.755C39.4776 41.6761 39.6516 41.5936 39.8222 41.5096C39.8748 41.4837 39.8964 41.4201 39.8706 41.3674C39.8447 41.3148 39.781 41.2932 39.7284 41.3191C39.5596 41.4021 39.3875 41.4838 39.2167 41.5618C39.1634 41.5862 39.1399 41.6493 39.1643 41.7025C39.1821 41.7416 39.2206 41.7647 39.2609 41.7647ZM23.2494 41.9894C23.2914 41.9894 23.33 41.965 23.3473 41.9246C23.3704 41.8706 23.3449 41.8083 23.2914 41.7854C23.1185 41.7124 22.9456 41.636 22.7752 41.5584C22.7225 41.5339 22.6591 41.5574 22.6353 41.6107C22.6106 41.6641 22.6336 41.727 22.6871 41.7515C22.8584 41.8299 23.0337 41.9072 23.2082 41.981C23.2222 41.9867 23.2362 41.9894 23.2494 41.9894ZM38.2118 42.2079C38.2246 42.2079 38.2377 42.2056 38.2503 42.2006C38.4274 42.1317 38.606 42.0592 38.781 41.9853C38.835 41.9624 38.8602 41.9001 38.8374 41.8461C38.8146 41.7921 38.7522 41.7668 38.6982 41.7896C38.5251 41.8629 38.3485 41.9345 38.1733 42.0027C38.1186 42.024 38.0915 42.0856 38.1128 42.1401C38.1292 42.1822 38.1693 42.2079 38.2118 42.2079ZM24.3062 42.4013C24.3498 42.4013 24.3901 42.3742 24.4058 42.3307C24.4255 42.2755 24.3967 42.2147 24.3415 42.195C24.1654 42.1318 23.9867 42.0654 23.8122 41.9973C23.7579 41.9759 23.6962 42.003 23.6748 42.0576C23.6534 42.1123 23.6805 42.1739 23.7349 42.1951C23.9118 42.264 24.0913 42.3312 24.2699 42.395C24.2823 42.3992 24.2938 42.4013 24.3062 42.4013ZM37.1382 42.5905C37.149 42.5905 37.1601 42.5888 37.1709 42.5852C37.3521 42.5266 37.5346 42.4645 37.7135 42.4008C37.7687 42.3811 37.7976 42.3203 37.7779 42.265C37.7582 42.2098 37.6975 42.1811 37.6421 42.2007C37.4652 42.2637 37.2847 42.3251 37.1055 42.3832C37.0497 42.4013 37.0191 42.4612 37.0372 42.517C37.0517 42.5619 37.0934 42.5905 37.1382 42.5905ZM25.3866 42.7526C25.4326 42.7526 25.4749 42.7225 25.4885 42.6763C25.505 42.62 25.4728 42.5609 25.4165 42.5445C25.2371 42.4918 25.0555 42.4356 24.8769 42.3775C24.8209 42.3594 24.7608 42.3899 24.7427 42.4457C24.7246 42.5015 24.755 42.5614 24.811 42.5795C24.9921 42.6382 25.1753 42.695 25.3567 42.7483C25.3667 42.7512 25.3767 42.7526 25.3866 42.7526ZM36.0479 42.9094C36.0568 42.9094 36.0657 42.9083 36.0748 42.906C36.2589 42.8577 36.4442 42.8065 36.6252 42.7535C36.6814 42.737 36.7138 42.678 36.6972 42.6217C36.6808 42.5655 36.6219 42.5331 36.5655 42.5496C36.3864 42.6021 36.2032 42.6528 36.021 42.7005C35.9643 42.7153 35.9303 42.7734 35.9452 42.8301C35.9576 42.8778 36.0007 42.9094 36.0479 42.9094ZM26.4854 43.0409C26.5336 43.0409 26.5773 43.0078 26.5886 42.9587C26.602 42.9016 26.5664 42.8446 26.5093 42.8312C26.3264 42.7888 26.142 42.7432 25.9608 42.6957C25.9041 42.6808 25.8459 42.7147 25.8311 42.7714C25.8162 42.8281 25.8501 42.8862 25.9069 42.9011C26.0899 42.9492 26.2765 42.9953 26.4612 43.0382C26.4693 43.0401 26.4774 43.0409 26.4854 43.0409ZM34.9411 43.1652L34.9622 43.1631C35.1475 43.1258 35.3352 43.0852 35.5204 43.0425C35.5775 43.0293 35.6131 42.9723 35.5999 42.9152C35.5867 42.858 35.5295 42.8225 35.4725 42.8356C35.2895 42.8779 35.1036 42.918 34.9203 42.9548C34.8627 42.9664 34.8255 43.0224 34.837 43.0799C34.8472 43.1303 34.8915 43.1652 34.9411 43.1652ZM27.5987 43.2659C27.6494 43.2659 27.6943 43.2294 27.7032 43.1777C27.7131 43.1199 27.6743 43.065 27.6166 43.055C27.4322 43.0232 27.2453 42.9883 27.0612 42.9511C27.0038 42.9394 26.9477 42.9767 26.9361 43.0342C26.9245 43.0916 26.9617 43.1477 27.0192 43.1593C27.2053 43.1968 27.3941 43.2322 27.5805 43.2643L27.5987 43.2659ZM33.8213 43.3568L33.8364 43.3558C34.0237 43.3292 34.2136 43.2995 34.4006 43.2674C34.4585 43.2576 34.4972 43.2027 34.4874 43.1449C34.4775 43.087 34.4223 43.0482 34.3648 43.0581C34.1796 43.0898 33.9919 43.1192 33.8066 43.1455C33.7485 43.1538 33.7081 43.2075 33.7163 43.2655C33.7238 43.3186 33.7693 43.3568 33.8213 43.3568ZM28.7234 43.4264C28.7767 43.4264 28.8226 43.3865 28.8288 43.3322C28.8354 43.274 28.7936 43.2213 28.7353 43.2148C28.5493 43.1935 28.3607 43.1693 28.1749 43.1428C28.117 43.1345 28.063 43.1748 28.0547 43.2329C28.0464 43.291 28.0868 43.3447 28.1448 43.3531C28.3327 43.3799 28.5232 43.4043 28.7113 43.4257L28.7234 43.4264ZM32.6927 43.4845L32.7018 43.4842C32.8903 43.4683 33.0814 43.4495 33.2701 43.4282C33.3284 43.4216 33.3702 43.369 33.3637 43.3107C33.357 43.2525 33.3042 43.2109 33.2462 43.2171C33.0596 43.2382 32.8705 43.2569 32.6839 43.2726C32.6255 43.2774 32.5821 43.3288 32.587 43.3872C32.5917 43.4427 32.6381 43.4845 32.6927 43.4845ZM29.8549 43.5232C29.9108 43.5232 29.9577 43.4795 29.9609 43.423C29.9642 43.3644 29.9194 43.3143 29.8609 43.311C29.6735 43.3004 29.4838 43.2869 29.2972 43.271C29.2386 43.2666 29.1874 43.3094 29.1824 43.3678C29.1775 43.4262 29.2208 43.4776 29.2792 43.4826C29.4678 43.4987 29.6594 43.5123 29.8488 43.5231L29.8549 43.5232ZM31.5586 43.5478H31.5616C31.7515 43.5426 31.9435 43.5345 32.132 43.524C32.1906 43.5207 32.2354 43.4707 32.2321 43.4121C32.2289 43.3535 32.179 43.3087 32.1202 43.312C31.9336 43.3224 31.7437 43.3303 31.5557 43.3355C31.4971 43.3371 31.4508 43.386 31.4524 43.4446C31.454 43.5022 31.5013 43.5478 31.5586 43.5478ZM30.9906 43.5557C31.0492 43.5557 31.0968 43.5082 31.0968 43.4495C31.0968 43.3909 31.0493 43.3433 30.9906 43.3433C30.8033 43.3432 30.6133 43.3404 30.4256 43.335C30.3669 43.3337 30.3181 43.3796 30.3164 43.4382C30.3147 43.4968 30.3609 43.5457 30.4195 43.5474C30.6091 43.5528 30.8013 43.5556 30.9906 43.5557Z" fill="#FBB03B"/>
<path d="M13.4721 59.5557H14.8161L11.2761 51.3117H9.93208L6.39208 59.5557H7.73608L8.45608 57.8757H12.7521L13.4721 59.5557ZM8.92408 56.7837L10.6041 52.8717L12.2841 56.7837H8.92408ZM21.631 53.3517H20.191L17.155 56.5197V51.1677H15.979V59.5557H17.155V57.9597L18.151 56.9517L20.095 59.5557H21.511L18.955 56.1597L21.631 53.3517ZM25.216 53.2077C24.532 53.2077 23.752 53.3877 22.864 53.8317L23.296 54.7077C23.836 54.4317 24.436 54.1917 25.048 54.1917C26.284 54.1917 26.644 55.0197 26.644 55.7997V55.9917C26.044 55.7877 25.384 55.6557 24.772 55.6557C23.404 55.6557 22.288 56.4837 22.288 57.7197C22.288 58.9317 23.26 59.6997 24.58 59.6997C25.336 59.6997 26.188 59.3517 26.644 58.7037V59.5557H27.808V55.7997C27.808 54.2637 26.884 53.2077 25.216 53.2077ZM24.808 58.7637C24.028 58.7637 23.428 58.3557 23.428 57.6837C23.428 57.0117 24.124 56.5437 24.952 56.5437C25.564 56.5437 26.14 56.6277 26.644 56.7837V57.6117C26.44 58.3797 25.576 58.7637 24.808 58.7637ZM32.6821 53.2077C31.8421 53.2077 31.0861 53.6397 30.7141 54.2517V53.3517H29.5261V59.5557H30.7141V55.5357C30.8101 54.8037 31.5541 54.2397 32.4181 54.2397C33.2581 54.2397 33.8461 54.8877 33.8461 55.8117V59.5557H35.0101V55.6077C35.0101 54.2037 34.0501 53.2077 32.6821 53.2077ZM38.9537 59.6997C40.3097 59.6997 41.3057 58.9557 41.3057 57.7797C41.3057 56.5437 40.2137 56.2077 39.1937 55.9077C38.1497 55.5837 37.7657 55.4397 37.7657 54.9597C37.7657 54.4917 38.2457 54.2277 38.8577 54.2277C39.3977 54.2277 40.0217 54.4317 40.6217 54.8037L41.1497 53.9277C40.4777 53.4837 39.6617 53.2077 38.8577 53.2077C37.5377 53.2077 36.5897 53.9517 36.6017 55.0917C36.6017 56.0997 37.3097 56.5077 38.7377 56.9037C39.5057 57.1197 40.1417 57.2997 40.1417 57.8757C40.1417 58.3557 39.6617 58.6797 38.9657 58.6797C38.2337 58.6797 37.5257 58.4037 36.8657 57.9237L36.3017 58.7757C37.0457 59.3757 38.0417 59.6997 38.9537 59.6997ZM45.8423 53.2077C44.9903 53.2077 44.2343 53.6517 43.8623 54.2757V51.1677H42.6863V59.5557H43.8623V55.7037C43.8623 54.8997 44.6423 54.2397 45.5783 54.2397C46.4183 54.2397 47.0063 54.8877 47.0063 55.8117V59.5557H48.1703V55.6077C48.1703 54.2037 47.2103 53.2077 45.8423 53.2077ZM52.4739 53.2077C51.7899 53.2077 51.0099 53.3877 50.1219 53.8317L50.5539 54.7077C51.0939 54.4317 51.6939 54.1917 52.3059 54.1917C53.5419 54.1917 53.9019 55.0197 53.9019 55.7997V55.9917C53.3019 55.7877 52.6419 55.6557 52.0299 55.6557C50.6619 55.6557 49.5459 56.4837 49.5459 57.7197C49.5459 58.9317 50.5179 59.6997 51.8379 59.6997C52.5939 59.6997 53.4459 59.3517 53.9019 58.7037V59.5557H55.0659V55.7997C55.0659 54.2637 54.1419 53.2077 52.4739 53.2077ZM52.0659 58.7637C51.2859 58.7637 50.6859 58.3557 50.6859 57.6837C50.6859 57.0117 51.3819 56.5437 52.2099 56.5437C52.8219 56.5437 53.3979 56.6277 53.9019 56.7837V57.6117C53.6979 58.3797 52.8339 58.7637 52.0659 58.7637Z" fill="black"/>
</svg>
