<svg width="62" height="62" viewBox="0 0 62 62" fill="none" xmlns="http://www.w3.org/2000/svg">
<mask id="mask0_127:3836" style="mask-type:alpha" maskUnits="userSpaceOnUse" x="12" y="4" width="38" height="39">
<path fill-rule="evenodd" clip-rule="evenodd" d="M12.3277 23.5698C12.3277 33.8742 20.6807 42.2276 30.9855 42.2276C41.2903 42.2276 49.6433 33.8742 49.6433 23.5698C49.6433 13.2654 41.2903 4.9119 30.9855 4.9119C20.6807 4.9119 12.3277 13.2654 12.3277 23.5698Z" fill="white"/>
</mask>
<g mask="url(#mask0_127:3836)">
<path fill-rule="evenodd" clip-rule="evenodd" d="M12.3277 23.5698C12.3277 33.8742 20.6807 42.2276 30.9855 42.2276C41.2903 42.2276 49.6433 33.8742 49.6433 23.5698C49.6433 13.2654 41.2903 4.91202 30.9855 4.91202C20.6807 4.91202 12.3277 13.2654 12.3277 23.5698Z" fill="#FCE3C3"/>
<path fill-rule="evenodd" clip-rule="evenodd" d="M16.9205 32.3708C16.9205 29.7368 19.0559 27.6016 21.6893 27.6016C22.0285 27.6016 22.3586 27.6374 22.6772 27.7045C23.0608 25.7819 22.729 23.438 22.6344 22.0172C22.4162 18.7241 22.5224 14.4413 25.4003 12.081C27.0681 10.7134 29.6423 10.3377 31.7027 11.0816C34.0546 11.9308 35.4763 14.0992 36.1463 16.2754C36.5761 17.6698 36.7259 19.1083 37.0938 20.4925C37.354 20.3713 37.6429 20.3031 37.9483 20.3031C38.9065 20.3031 39.7075 20.9685 39.9174 21.8619C40.1249 21.8357 40.3356 21.8207 40.5505 21.8207C43.3041 21.8207 45.5366 24.0529 45.5366 26.8067C45.5366 27.3939 45.4337 27.9571 45.2476 28.4803C46.5894 29.2898 47.4875 30.7615 47.4875 32.4431C47.4875 34.771 45.7671 36.6964 43.5288 37.0194C43.0275 39.1592 41.1086 40.7532 38.816 40.7532C38.7155 40.7532 38.6168 40.7492 38.518 40.7432C37.7442 42.6956 35.8409 44.0772 33.6125 44.0772C31.5685 44.0772 29.7962 42.913 28.9211 41.2121C28.0757 41.7886 27.0541 42.1261 25.9535 42.1261C23.1003 42.1261 20.7781 39.8617 20.6826 37.0326C18.5324 36.5702 16.9205 34.6592 16.9205 32.3708Z" fill="#602826"/>
<path fill-rule="evenodd" clip-rule="evenodd" d="M2.81906 73.9771C3.29569 72.7834 3.77233 71.5906 4.24978 70.3962C4.70666 69.2511 5.10591 68.2641 5.70767 67.1849C5.95545 66.742 6.29214 66.1625 6.5712 65.7221C7.91137 63.2591 9.25071 60.7953 10.5901 58.3323C11.438 56.7732 12.285 55.2148 13.1321 53.6564C13.6894 52.6327 14.2475 51.6057 14.6715 50.5204C15.1967 49.1755 15.5095 47.7581 15.7943 46.3424C16.3771 43.4364 16.8538 40.493 17.8391 37.6976C18.5899 35.5688 19.6617 33.5036 21.3023 31.9527C23.7341 29.6531 27.1569 28.7721 30.4415 28.9951C31.0087 29.0336 31.5742 29.1065 32.1332 29.2139C33.6692 29.5094 35.1543 30.0663 36.5109 30.8466C37.9153 31.6549 39.0628 32.6457 39.9725 33.9926C40.2581 34.4152 40.5158 34.8558 40.7512 35.3078C41.6452 37.0234 42.2272 38.8806 42.9549 40.6731C44.2465 43.8573 46.1012 46.8705 46.703 50.2536C47.3278 53.7667 45.8015 62.2803 45.8114 67.2615C45.911 69.1548 46.6091 71.5659 46.7762 72.6122C46.9055 73.4362 47.0438 74.2915 46.954 75.1262C46.8594 76.012 46.6239 76.8681 46.4041 77.7275C46.3696 77.8617 46.3342 78 46.2527 78.1128C46.1061 78.3153 45.767 78.3704 45.6089 78.1506C45.2648 77.674 45.4517 76.9644 45.5686 76.4384C45.6772 75.9478 45.8147 75.4588 45.8419 74.9558C45.8682 74.4611 45.7406 74.0133 45.5447 73.5622C45.4039 73.2378 45.2763 72.9086 45.1282 72.5859C45.087 72.497 45.0434 72.4056 44.994 72.3191C44.9759 72.2854 44.9561 72.2541 44.9355 72.222C44.8351 72.0656 44.71 71.9298 44.5445 71.8516C44.4046 71.7857 44.1733 71.7404 44.0284 71.8162C43.8703 71.8985 43.8769 72.1043 43.8637 72.2566C43.8465 72.4377 43.8695 72.6196 43.8967 72.7982C43.9345 73.0378 43.9897 73.2856 43.9922 73.5301C43.993 73.5967 43.9897 73.6634 43.9806 73.7293C43.9749 73.7811 43.9642 73.8338 43.951 73.8857C43.8028 74.4364 43.0562 74.9262 42.7722 74.1894C42.7121 74.0314 42.6915 73.861 42.6676 73.6939C42.5549 72.8937 42.2741 72.115 42.3071 71.3041C42.3285 70.7872 42.4059 70.2743 42.4841 69.7631C42.6133 68.912 42.9936 67.6706 43.0825 67.2615C42.5516 62.1815 42.2848 57.8672 41.9926 52.8065C41.9613 52.2708 41.9292 51.7294 41.7769 51.2149C41.581 50.5571 41.1974 49.9739 40.822 49.3996C38.5105 45.8641 36.3134 42.2543 34.234 38.5776C33.5063 37.2914 32.7728 35.9176 32.8065 34.4403C30.8654 35.8509 28.1884 36.1812 25.9616 35.2849C23.1908 41.4962 21.8967 48.3435 18.5743 54.2781C15.9096 59.0361 11.9599 62.7841 8.74033 67.1849C8.62344 67.3446 8.6753 67.8229 8.6646 68.0262C8.6292 68.6847 8.68435 69.3417 8.60368 69.9986C8.52136 70.6621 8.36824 71.3165 8.14516 71.9462C8.0439 72.2319 7.76896 72.4937 7.47754 72.2377C7.4512 72.222 7.42651 72.2023 7.40263 72.1759C7.11451 71.8697 7.11287 71.4499 7.13098 71.0555C7.15156 70.6069 7.12851 70.1805 6.93259 69.7681C6.87908 69.6569 6.78935 69.5524 6.66834 69.5285C6.59507 69.5137 6.51852 69.5318 6.4469 69.5557C6.20652 69.6372 6.02542 69.7862 5.87889 69.9706C5.80151 70.0669 5.73318 70.1731 5.67227 70.2842C5.613 70.3896 5.56031 70.4991 5.50928 70.6086C5.44507 70.7452 5.38497 70.8819 5.32241 71.0119C5.30924 71.0391 5.29689 71.0654 5.28372 71.0901C5.27219 71.114 5.25985 71.1379 5.2475 71.1617C5.17094 71.314 5.09438 71.4663 5.017 71.6194C4.87706 71.8969 4.73712 72.1743 4.59718 72.4525C4.47534 72.6945 4.35268 72.9374 4.23085 73.1794C4.01682 73.6025 3.78797 74.0775 3.40518 74.3771C3.11871 74.6019 2.66183 74.3714 2.81906 73.9771Z" fill="#FFCFCA"/>
<path fill-rule="evenodd" clip-rule="evenodd" d="M26.0758 30.5388C26.4635 30.777 26.9319 30.8304 27.3831 30.8774C27.9272 30.9352 28.4722 30.9927 29.0188 30.9706C30.084 30.9277 31.0504 30.5489 32.0605 30.2101C32.0432 29.5958 32.0275 28.9813 32.0094 28.3671C31.988 27.5989 31.9675 26.8292 32.0234 26.0625C32.0407 25.8275 32.0638 25.5929 32.0942 25.3596C32.165 24.7779 32.2696 24.2009 32.3733 23.6225C32.4589 23.1482 32.5445 22.6725 32.6301 22.1981C32.3568 22.463 32.095 22.6013 31.76 22.7865C30.3466 23.5665 28.9035 24.2923 27.4522 24.9991C27.0143 25.2115 26.573 25.4247 26.1005 25.5395L26.0758 30.5388Z" fill="#FFCFCA"/>
<path fill-rule="evenodd" clip-rule="evenodd" d="M26.0873 28.2317C27.7206 27.8125 29.2929 27.1613 30.7203 26.2711C31.1747 25.9885 31.6456 25.6857 32.0942 25.3596C32.165 24.7779 32.2696 24.2009 32.3733 23.6225C32.4589 23.1482 32.5445 22.6725 32.6301 22.1981C32.3568 22.463 32.095 22.6013 31.76 22.7865C30.3466 23.5665 28.9035 24.2923 27.4522 24.9991C27.0143 25.2115 26.573 25.4247 26.1005 25.5395L26.0873 28.2317Z" fill="#F9BFBB"/>
<path fill-rule="evenodd" clip-rule="evenodd" d="M23.2951 17.9524C23.3782 17.5654 23.4828 17.1836 23.6054 16.8112C23.9923 15.6362 24.7431 14.5419 25.7663 13.8019C27.7305 12.3825 30.5466 12.6254 32.2227 14.3584C32.6203 14.769 32.9462 15.2427 33.1842 15.7567C33.7694 17.0168 33.8419 18.3905 33.5867 19.7233C33.3636 20.9021 32.8829 22.0495 32.2786 23.0606C31.9065 23.6819 31.4711 24.2702 30.9492 24.7816C30.6503 25.0744 30.3194 25.3409 29.9646 25.5698C29.2509 26.0294 28.4401 26.336 27.5905 26.3911C26.8233 26.4406 26.0338 26.2631 25.372 25.879C24.6262 25.4456 24.1611 24.7566 23.8194 23.9955C22.979 22.1199 22.8637 19.9573 23.2951 17.9524Z" fill="#FFCFCA"/>
<path fill-rule="evenodd" clip-rule="evenodd" d="M31.9133 22.6658C32.655 23.0082 33.5786 22.9255 34.2421 22.4476C34.8027 22.0442 35.1567 21.3718 35.1871 20.6834C35.1921 20.5584 35.1871 20.4336 35.1707 20.3079C35.1419 20.0891 35.0793 19.8735 34.9682 19.6827C34.6932 19.213 34.1186 18.9493 33.5778 19.0103C33.0361 19.0717 32.5488 19.4385 32.3043 19.9252L31.9133 22.6658Z" fill="#FFCFCA"/>
<path fill-rule="evenodd" clip-rule="evenodd" d="M25.4733 13.1196C26.1105 14.9281 27.44 16.4563 29.0683 17.4698C30.6957 18.4831 32.6064 18.9984 34.5211 19.0984C34.6569 19.1055 34.2618 16.5774 34.1894 16.3348C33.8008 15.0449 32.9562 13.8976 31.8416 13.1409C31.6745 13.0273 31.5016 12.9226 31.3238 12.8276C30.2216 12.2405 28.9283 12.0295 27.6943 12.2084C27.1864 12.2822 26.69 12.4131 26.2365 12.6518C26.1484 12.6981 25.4347 13.0105 25.4733 13.1196Z" fill="#602826"/>
<path fill-rule="evenodd" clip-rule="evenodd" d="M22.6662 50.1777C22.3073 47.3188 22.0356 44.466 21.4569 41.6393C20.9432 39.1317 20.3555 36.4779 21.3096 34.0054C21.7113 33.5807 22.1961 33.2309 22.6966 32.9223C26.9773 30.2819 32.3511 30.5519 37.096 32.2183C37.3496 36.1444 36.8392 40.0879 36.5099 44.019C36.4111 44.5828 36.3403 45.1516 36.2745 45.7204C35.8596 49.277 35.6365 52.8503 35.3961 56.4225C35.2833 56.4069 35.1681 56.397 35.0504 56.3929C34.2478 56.3657 33.4493 56.4982 32.6573 56.6316C30.6191 56.9724 28.5817 57.3132 26.5443 57.654C25.7548 57.7865 24.9613 57.9199 24.1842 58.1084C23.7281 56.0586 23.2424 54.0145 22.7584 51.9715C22.7716 51.3797 22.7427 50.7836 22.6662 50.1777Z" fill="#FFCFCA"/>
<path fill-rule="evenodd" clip-rule="evenodd" d="M15.972 42.2594C16.624 43.0774 17.4011 43.6202 18.2926 43.9871C18.5421 44.0895 18.7676 44.1752 18.9808 44.2472C19.8699 44.5496 20.5276 44.6232 21.6282 44.7452L22.5115 53.5916C23.6401 53.9297 24.8181 54.0722 25.9928 54.1132C27.8146 54.176 29.6577 54.0647 31.4729 53.9161C33.1464 53.7796 34.8496 53.5082 36.361 52.7379C36.3215 50.597 36.3668 48.4546 36.4919 46.316C36.5429 45.423 36.608 44.5307 36.687 43.6392C36.6886 43.6286 36.6895 43.6179 36.6903 43.6073C36.9101 43.9219 37.1348 44.1631 37.3176 44.5004C39.485 43.0652 41.4097 41.3596 43.1121 39.4052C43.075 39.3172 43.0388 39.2285 43.0026 39.1383C42.7927 38.6175 42.5375 38.1338 42.2551 37.6479C41.6525 36.6062 41.0384 35.5653 40.3873 34.5525C40.2663 34.3638 40.142 34.1772 40.0135 33.993C39.1533 32.7528 38.1259 31.6225 36.8837 30.756C36.2194 30.2928 35.5074 29.9091 34.7533 29.6135C34.3631 29.4603 32.1882 28.8637 32.166 28.9008C31.9009 29.339 31.6326 29.5104 31.1444 29.6612C29.9697 30.0243 28.711 30.0562 27.4919 29.8955C26.8144 29.806 25.8735 29.2041 25.8735 29.2041C25.8735 29.2041 23.7504 29.8106 22.6655 30.4655C22.1929 30.7499 21.7501 31.0819 21.3269 31.4352C20.0395 32.5087 19.0631 33.8377 18.3577 35.3538C17.6332 36.9094 17.1723 38.5667 16.6339 40.1913C16.4067 40.8781 16.1828 41.5673 15.972 42.2594Z" fill="#150F84"/>
<path fill-rule="evenodd" clip-rule="evenodd" d="M21.1515 40.5126C21.1293 40.1146 21.112 39.7151 21.1408 39.3171C21.1738 38.8463 21.2717 38.3847 21.382 37.9298C21.6282 36.9185 21.9369 35.9269 22.3057 34.9656C22.2242 35.1233 22.1336 35.2772 22.0431 35.4288C21.3936 36.5304 20.777 37.7016 20.5802 39.0093C20.4296 40.0055 20.5292 41.0449 20.2946 42.0198C20.0888 42.8696 19.6319 43.6301 19.0376 44.1948C19.0186 44.2122 18.9997 44.2304 18.9808 44.2471C19.8698 44.5496 20.5276 44.6232 21.6282 44.7452C21.4018 43.2517 21.2372 42.0236 21.1515 40.5126Z" fill="black"/>
<path fill-rule="evenodd" clip-rule="evenodd" d="M34.9725 41.2321C35.3117 42.9727 35.6706 44.7619 36.4922 46.316C36.5432 45.4229 36.6082 44.5306 36.6873 43.6391C35.9719 42.9424 35.2285 42.1965 34.9725 41.2321Z" fill="#EF5D30"/>
<path fill-rule="evenodd" clip-rule="evenodd" d="M28.7587 17.6531C28.6533 17.6421 28.5463 17.6507 28.441 17.6593C28.2533 17.6745 28.0656 17.6896 27.8787 17.7048C27.8161 17.7099 27.7388 17.7067 27.7116 17.6506C27.6984 17.6228 27.7025 17.5893 27.7141 17.5608C27.7602 17.4528 27.8927 17.4161 28.0088 17.4013C28.2977 17.3648 28.6023 17.3851 28.8723 17.499C28.925 17.5212 29.2271 17.659 29.2057 17.7297C29.1868 17.7927 28.8196 17.6593 28.7587 17.6531Z" fill="#211A17"/>
<path fill-rule="evenodd" clip-rule="evenodd" d="M24.6715 17.5259C24.7777 17.5227 24.8831 17.5391 24.9884 17.5555C25.1736 17.5844 25.3597 17.6133 25.5457 17.6422C25.6075 17.6517 25.6849 17.6544 25.7161 17.6003C25.7318 17.5736 25.7301 17.5398 25.7202 17.5106C25.6824 17.3995 25.5523 17.3531 25.4379 17.3298C25.1522 17.2722 24.8468 17.2701 24.5694 17.3638C24.5151 17.3821 24.2039 17.4974 24.2196 17.5695C24.2344 17.6338 24.6106 17.5277 24.6715 17.5259Z" fill="#211A17"/>
<path fill-rule="evenodd" clip-rule="evenodd" d="M25.0041 22.4544C25.2148 23.0015 25.6009 23.378 26.0701 23.4171C26.5212 23.4542 26.9493 23.169 27.2456 22.6963C27.449 22.3717 27.5906 21.9589 27.635 21.5006L27.5469 21.4934L24.9366 21.2783L24.8394 21.2701C24.8098 21.7038 24.8732 22.1122 25.0041 22.4544Z" fill="#CE7872"/>
<path fill-rule="evenodd" clip-rule="evenodd" d="M24.9365 21.2781C25.2271 21.7168 25.67 22.0123 26.187 22.0552C26.7031 22.098 27.1888 21.8783 27.5469 21.4932L24.9365 21.2781Z" fill="white"/>
<path fill-rule="evenodd" clip-rule="evenodd" d="M25.0043 22.4543C25.215 23.0014 25.6011 23.3779 26.0703 23.417C26.5214 23.4541 26.9495 23.1689 27.2458 22.6962C27.1191 22.612 26.9857 22.5382 26.8466 22.4764C26.4441 22.2975 25.9921 22.2194 25.5583 22.289C25.3648 22.3195 25.1813 22.3777 25.0043 22.4543Z" fill="#EA8C8B"/>
<path fill-rule="evenodd" clip-rule="evenodd" d="M27.7248 19.3432C27.7141 19.699 27.9092 19.9935 28.1603 20.0011C28.4113 20.0086 28.6229 19.7264 28.6336 19.3707C28.6443 19.015 28.45 18.7204 28.199 18.7128C27.9479 18.7053 27.7355 18.9875 27.7248 19.3432Z" fill="#211A17"/>
<path fill-rule="evenodd" clip-rule="evenodd" d="M28.0542 19.1367C28.1999 19.1412 28.1933 19.3685 28.0468 19.3641C27.9011 19.3596 27.9077 19.1323 28.0542 19.1367Z" fill="white"/>
<path fill-rule="evenodd" clip-rule="evenodd" d="M25.2996 19.2703C25.2889 19.626 25.0765 19.9083 24.8255 19.9007C24.5744 19.8931 24.3801 19.5986 24.3908 19.2429C24.4015 18.8872 24.6131 18.6049 24.8642 18.6125C25.1152 18.62 25.3103 18.9145 25.2996 19.2703Z" fill="#211A17"/>
<path fill-rule="evenodd" clip-rule="evenodd" d="M24.7105 18.9688C24.857 18.9731 24.8504 19.2004 24.7039 19.1961C24.5574 19.1917 24.5639 18.9643 24.7105 18.9688Z" fill="white"/>
<path fill-rule="evenodd" clip-rule="evenodd" d="M26.0768 20.07C26.225 19.9546 26.4555 19.9582 26.5955 20.084L26.1896 20.7846C26.0768 20.7773 25.9846 20.6836 25.9427 20.578C25.8735 20.4034 25.9287 20.1853 26.0768 20.07Z" fill="#CE7872"/>
<path fill-rule="evenodd" clip-rule="evenodd" d="M28.3784 21.16C28.3406 21.703 28.8518 22.1808 29.5202 22.2272C30.1878 22.2736 30.7608 21.871 30.7978 21.328C30.8357 20.785 30.3245 20.3072 29.6561 20.2608C28.9884 20.2144 28.4155 20.6171 28.3784 21.16Z" fill="#F9BFBB"/>
<path fill-rule="evenodd" clip-rule="evenodd" d="M23.2237 20.5903C23.2023 20.895 23.4888 21.1631 23.8641 21.1891C24.2395 21.2152 24.5606 20.9892 24.5812 20.6845C24.6026 20.3798 24.3161 20.1117 23.9407 20.0857C23.5653 20.0596 23.2443 20.2856 23.2237 20.5903Z" fill="#F9BFBB"/>
</g>
<path fill-rule="evenodd" clip-rule="evenodd" d="M31.5956 3.77677C31.6532 3.77677 31.7001 3.73133 31.7018 3.67379C31.7034 3.6151 31.6573 3.5662 31.5989 3.56447C31.4095 3.55887 31.2169 3.55591 31.0284 3.55566H31.0276C30.9691 3.55566 30.9214 3.60316 30.9214 3.66169C30.9214 3.72038 30.9691 3.76797 31.0276 3.76805C31.2153 3.76829 31.4054 3.77126 31.5923 3.77677H31.5956ZM29.8924 3.79772L29.8982 3.79756C30.085 3.78727 30.2744 3.77961 30.4629 3.77459C30.5213 3.77302 30.5674 3.72421 30.5658 3.6656C30.5641 3.60699 30.5147 3.56089 30.4571 3.56229C30.267 3.56731 30.0752 3.57513 29.8866 3.5855C29.8282 3.58871 29.7829 3.63884 29.7862 3.69737C29.7895 3.75393 29.8364 3.79772 29.8924 3.79772ZM32.73 3.84217C32.7843 3.84217 32.8312 3.80036 32.8362 3.74504C32.8411 3.68659 32.7975 3.63514 32.739 3.63012C32.5513 3.6139 32.3595 3.60016 32.1694 3.58921C32.1109 3.58591 32.0607 3.63045 32.0574 3.68906C32.0541 3.74767 32.0986 3.7978 32.157 3.80126C32.3447 3.81205 32.5349 3.82571 32.7209 3.84176L32.73 3.84217ZM28.7605 3.89266L28.772 3.892C28.9589 3.87109 29.1474 3.85265 29.3342 3.83709C29.3927 3.83223 29.4363 3.78087 29.4314 3.72242C29.4264 3.66397 29.3746 3.62059 29.317 3.62545C29.1284 3.64117 28.9366 3.65986 28.7489 3.68093C28.6905 3.68744 28.6485 3.73995 28.6551 3.79824C28.6609 3.85257 28.707 3.89266 28.7605 3.89266ZM33.8585 3.97199C33.9104 3.97199 33.9557 3.93388 33.9639 3.88094C33.9721 3.82291 33.9318 3.76907 33.8733 3.76068C33.6865 3.73376 33.4955 3.70906 33.307 3.68749C33.2494 3.68058 33.1967 3.72256 33.1893 3.78084C33.1827 3.83913 33.2247 3.89173 33.2831 3.89848C33.4692 3.91988 33.6577 3.94425 33.8437 3.971L33.8585 3.97199ZM27.6352 4.05135L27.6534 4.04979C27.8386 4.01826 28.0263 3.98912 28.2115 3.96294C28.2699 3.95471 28.3103 3.90096 28.302 3.84292C28.2938 3.7848 28.2395 3.74471 28.1818 3.75262C27.995 3.77904 27.8048 3.80859 27.618 3.84045C27.5603 3.85025 27.5208 3.90516 27.5307 3.96294C27.5398 4.01472 27.585 4.05135 27.6352 4.05135ZM34.978 4.166C35.0274 4.166 35.0719 4.13126 35.0818 4.08088C35.0933 4.02334 35.0562 3.96737 34.9986 3.95568C34.8126 3.91789 34.6241 3.88241 34.4372 3.85014C34.3804 3.84002 34.3244 3.87879 34.3145 3.93666C34.3047 3.99445 34.3434 4.04936 34.401 4.0594C34.5854 4.09134 34.7722 4.12649 34.9566 4.16386L34.978 4.166ZM26.5213 4.27433C26.5295 4.27433 26.5369 4.27334 26.5451 4.27153C26.7287 4.22946 26.9139 4.18946 27.0975 4.15282C27.1551 4.1413 27.1922 4.0854 27.1806 4.02786C27.1691 3.97032 27.114 3.9332 27.0563 3.94456C26.8703 3.9816 26.6826 4.02202 26.4974 4.06458C26.4406 4.07775 26.4052 4.13471 26.4184 4.19184C26.4291 4.24099 26.4727 4.27433 26.5213 4.27433ZM36.0845 4.42379C36.1314 4.42379 36.1742 4.39226 36.1866 4.3446C36.2014 4.28788 36.1676 4.22976 36.1108 4.21478C35.9281 4.16654 35.7412 4.12028 35.5568 4.07723C35.5 4.06381 35.4424 4.09945 35.4292 4.1565C35.4161 4.21371 35.4515 4.27076 35.5083 4.28409C35.691 4.32665 35.8754 4.3725 36.0573 4.42025C36.0664 4.42264 36.0754 4.42379 36.0845 4.42379ZM25.4225 4.56052C25.4324 4.56052 25.4422 4.55912 25.4521 4.55616C25.6316 4.50397 25.8151 4.45334 25.9971 4.40593C26.0539 4.39111 26.0876 4.33308 26.0728 4.27636C26.058 4.21964 26.0004 4.18564 25.9436 4.20038C25.7592 4.24837 25.5739 4.29949 25.3928 4.35234C25.336 4.36872 25.3039 4.42766 25.3204 4.48397C25.3344 4.53039 25.3764 4.56052 25.4225 4.56052ZM37.1737 4.74459C37.2181 4.74459 37.2601 4.71611 37.2749 4.67132C37.293 4.61559 37.2626 4.55567 37.2066 4.53739C37.0263 4.47853 36.8427 4.42165 36.6616 4.36814C36.6048 4.3516 36.5456 4.38378 36.5291 4.44001C36.5126 4.49631 36.5447 4.55534 36.6016 4.57188C36.781 4.62473 36.9621 4.68112 37.1407 4.73932C37.1514 4.74294 37.163 4.74459 37.1737 4.74459ZM24.34 4.91041C24.3516 4.91041 24.3631 4.90843 24.3754 4.90423C24.5524 4.84142 24.7327 4.78026 24.9122 4.72223C24.9681 4.7042 24.9986 4.64435 24.9805 4.58862C24.9624 4.53281 24.9031 4.50194 24.8471 4.52013C24.6652 4.57874 24.4833 4.64065 24.3038 4.70412C24.2487 4.72379 24.2199 4.78446 24.2396 4.83978C24.2553 4.88324 24.2964 4.91041 24.34 4.91041ZM38.243 5.12796C38.2858 5.12796 38.3254 5.10236 38.3418 5.06037C38.3632 5.0058 38.3369 4.94422 38.2817 4.92282C38.1056 4.85383 37.9253 4.78642 37.7475 4.72245C37.6923 4.7027 37.6314 4.73134 37.6116 4.78666C37.5919 4.84182 37.6199 4.90265 37.6759 4.92241C37.852 4.98563 38.0298 5.05231 38.2043 5.12063C38.2175 5.12557 38.2307 5.12796 38.243 5.12796ZM23.2772 5.32235C23.2911 5.32235 23.3051 5.31964 23.3183 5.31396C23.492 5.24102 23.6682 5.16949 23.8435 5.10141C23.8987 5.08017 23.9258 5.01868 23.9044 4.96402C23.883 4.90919 23.8221 4.88211 23.767 4.90343C23.59 4.97225 23.4113 5.04452 23.236 5.11828C23.1825 5.14109 23.157 5.20332 23.1792 5.2574C23.1965 5.2979 23.236 5.32235 23.2772 5.32235ZM39.2849 5.57043C39.3253 5.57043 39.364 5.54738 39.3821 5.50845C39.406 5.4551 39.3829 5.39213 39.3294 5.36768C39.1582 5.2889 38.9828 5.21152 38.8091 5.13768C38.7548 5.1148 38.6922 5.1399 38.6692 5.19391C38.6461 5.24791 38.6717 5.31031 38.726 5.33319C38.898 5.40621 39.0709 5.48276 39.2413 5.56072C39.2553 5.56731 39.2701 5.57043 39.2849 5.57043ZM22.2416 5.7949C22.2573 5.7949 22.2729 5.79136 22.2885 5.78395C22.4565 5.70138 22.6285 5.6198 22.7997 5.54168C22.8533 5.51731 22.8771 5.45434 22.8524 5.401C22.8286 5.34765 22.7652 5.32403 22.7117 5.3484C22.5388 5.42742 22.3643 5.50982 22.1947 5.59338C22.142 5.61923 22.1198 5.68278 22.1461 5.73546C22.1642 5.77308 22.2021 5.7949 22.2416 5.7949ZM40.3008 6.07206C40.3395 6.07206 40.3757 6.05148 40.3946 6.01551C40.4226 5.96373 40.4029 5.89944 40.351 5.87203C40.1839 5.78362 40.0135 5.69628 39.8439 5.61248C39.7912 5.58655 39.7278 5.60811 39.7015 5.66072C39.6751 5.71332 39.6974 5.77695 39.7501 5.80288C39.9172 5.88586 40.0867 5.97221 40.2514 6.05972C40.267 6.06811 40.2843 6.07206 40.3008 6.07206ZM21.2347 6.32567C21.252 6.32567 21.2701 6.32123 21.2866 6.31201C21.4496 6.22014 21.6167 6.12885 21.7838 6.04085C21.8357 6.01352 21.8554 5.94923 21.8283 5.89737C21.8003 5.84542 21.7361 5.82567 21.6842 5.853C21.5155 5.94198 21.3467 6.03418 21.1821 6.12704C21.131 6.15585 21.1129 6.22063 21.1417 6.27175C21.1615 6.30633 21.1977 6.32567 21.2347 6.32567ZM41.287 6.63103C41.3232 6.63103 41.3578 6.61283 41.3784 6.57982C41.4088 6.52969 41.3924 6.46441 41.3421 6.43395C41.1808 6.33632 41.0153 6.23935 40.8507 6.14584C40.7997 6.11686 40.7346 6.13481 40.7058 6.18584C40.677 6.2368 40.6951 6.30167 40.7461 6.33056C40.9091 6.42317 41.073 6.51907 41.2327 6.61563C41.2491 6.62609 41.2681 6.63103 41.287 6.63103ZM20.2602 6.91313C20.2799 6.91313 20.2997 6.9077 20.3178 6.89626C20.4758 6.79484 20.6372 6.69416 20.7977 6.59719C20.8479 6.56698 20.8644 6.5017 20.8339 6.4514C20.8035 6.40111 20.7384 6.38505 20.6882 6.41527C20.5261 6.51331 20.3622 6.61505 20.2025 6.71754C20.1531 6.74932 20.1392 6.81501 20.1713 6.86432C20.191 6.89585 20.2256 6.91313 20.2602 6.91313ZM42.2403 7.24592C42.274 7.24592 42.3078 7.22979 42.3284 7.19983C42.3613 7.15142 42.349 7.0854 42.3004 7.05214C42.1448 6.94513 41.9851 6.83886 41.8262 6.73629C41.7768 6.70451 41.711 6.71867 41.6789 6.76798C41.6476 6.81729 41.6616 6.88306 41.711 6.91484C41.8682 7.01625 42.0263 7.12138 42.1802 7.22732C42.1991 7.23992 42.2197 7.24592 42.2403 7.24592ZM19.3217 7.55485C19.3431 7.55485 19.3653 7.54827 19.3842 7.53452C19.5357 7.42438 19.6913 7.31473 19.846 7.20878C19.8946 7.17561 19.907 7.10959 19.874 7.0611C19.8403 7.0127 19.7744 7.00035 19.7259 7.03336C19.5695 7.14054 19.4122 7.25142 19.2591 7.36272C19.2114 7.39721 19.2007 7.46356 19.2352 7.51098C19.2566 7.53962 19.2887 7.55485 19.3217 7.55485ZM43.1575 7.91421C43.1896 7.91421 43.2209 7.90005 43.2415 7.87297C43.2777 7.82663 43.2687 7.75995 43.2226 7.72406C43.0727 7.60831 42.9196 7.49307 42.7665 7.38153C42.7188 7.34695 42.6529 7.35741 42.6183 7.40482C42.5838 7.45224 42.5936 7.51867 42.6414 7.55324C42.7929 7.66355 42.9443 7.77756 43.0925 7.89207C43.1123 7.90705 43.1353 7.91421 43.1575 7.91421ZM18.4211 8.24891C18.445 8.24891 18.4688 8.24109 18.4878 8.22496C18.6335 8.1065 18.7817 7.9882 18.9307 7.87345C18.9776 7.83764 18.9858 7.77096 18.9504 7.72454C18.9142 7.67803 18.8475 7.66938 18.8014 7.70519C18.6508 7.82126 18.5001 7.94079 18.3536 8.06048C18.3083 8.09761 18.3017 8.16445 18.3388 8.20989C18.3594 8.23557 18.3906 8.24891 18.4211 8.24891ZM44.0358 8.63371C44.0654 8.63371 44.095 8.62128 44.1156 8.59707C44.1543 8.55287 44.1494 8.4857 44.1049 8.44725C43.9617 8.32295 43.8152 8.19922 43.6686 8.07929C43.6233 8.04216 43.5567 8.04883 43.5196 8.0941C43.4826 8.13946 43.4892 8.20639 43.5344 8.2436C43.6793 8.36222 43.8242 8.48471 43.9658 8.60769C43.9864 8.62514 44.0111 8.63371 44.0358 8.63371ZM17.5617 8.99251C17.5872 8.99251 17.6135 8.98329 17.6333 8.96452C17.7708 8.83832 17.9132 8.71188 18.0556 8.58865C18.1001 8.55021 18.105 8.4832 18.0663 8.43883C18.0284 8.39446 17.9609 8.38952 17.9165 8.42804C17.7724 8.55259 17.6292 8.68052 17.4901 8.80803C17.4473 8.84771 17.444 8.91488 17.4835 8.9581C17.5049 8.9809 17.5329 8.99251 17.5617 8.99251ZM44.8712 9.4022C44.8992 9.4022 44.9264 9.3915 44.9478 9.37009C44.9881 9.32803 44.9873 9.26077 44.9453 9.21994C44.8095 9.08782 44.6704 8.95578 44.5304 8.82761C44.4876 8.78793 44.4201 8.79073 44.3806 8.83395C44.3411 8.87716 44.3435 8.94434 44.3872 8.98402C44.5246 9.11087 44.6629 9.24143 44.7971 9.37215C44.8177 9.39224 44.8449 9.4022 44.8712 9.4022ZM16.7466 9.78352C16.7738 9.78352 16.8017 9.77282 16.8223 9.75142C16.954 9.61633 17.0882 9.48199 17.2224 9.35233C17.2644 9.3115 17.2652 9.24425 17.2249 9.2021C17.1837 9.16004 17.1162 9.15905 17.0742 9.19988C16.9392 9.33093 16.8034 9.46668 16.67 9.60324C16.6297 9.64523 16.6305 9.71248 16.6725 9.75339C16.6931 9.77348 16.7194 9.78352 16.7466 9.78352ZM45.6633 10.2169C45.6888 10.2169 45.7143 10.2077 45.7349 10.189C45.7777 10.1493 45.781 10.0822 45.7415 10.039C45.6131 9.89959 45.4813 9.75981 45.3488 9.62366C45.3085 9.58159 45.241 9.5806 45.199 9.62143C45.157 9.66226 45.1562 9.72952 45.1965 9.77158C45.3274 9.90634 45.4583 10.0446 45.5851 10.1826C45.6056 10.2053 45.6345 10.2169 45.6633 10.2169ZM15.9778 10.6193C16.0075 10.6193 16.0371 10.6069 16.0577 10.5827C16.1803 10.4413 16.3071 10.2997 16.4339 10.1617C16.4742 10.1185 16.4709 10.0513 16.4281 10.0117C16.3845 9.97198 16.3178 9.97477 16.2775 10.0179C16.1499 10.1573 16.0215 10.3004 15.8972 10.4434C15.8593 10.4876 15.8634 10.5548 15.9079 10.5932C15.9276 10.6107 15.9531 10.6193 15.9778 10.6193ZM46.4075 11.0758C46.4305 11.0758 46.4544 11.068 46.4742 11.0519C46.5194 11.0147 46.5268 10.9478 46.489 10.9024C46.3696 10.7557 46.2453 10.6087 46.121 10.4653C46.0831 10.421 46.0156 10.4163 45.9712 10.4546C45.9276 10.493 45.9226 10.56 45.9605 10.6045C46.084 10.7462 46.2058 10.8917 46.3252 11.0369C46.3457 11.0625 46.3762 11.0758 46.4075 11.0758ZM15.2576 11.4969C15.2897 11.4969 15.321 11.4827 15.3416 11.4556C15.4552 11.3085 15.5737 11.16 15.6939 11.0141C15.731 10.9688 15.7244 10.9019 15.6791 10.8647C15.6338 10.8275 15.5663 10.8341 15.5293 10.8795C15.4083 11.0268 15.2889 11.1771 15.1737 11.3257C15.1383 11.3722 15.1465 11.4388 15.1926 11.4747C15.2123 11.4897 15.2346 11.4969 15.2576 11.4969ZM47.1015 11.976C47.1237 11.976 47.1451 11.9694 47.164 11.9558C47.2118 11.9213 47.2216 11.8548 47.1871 11.8074C47.0759 11.6543 46.9607 11.5004 46.8446 11.35C46.8092 11.3035 46.7425 11.295 46.6956 11.3307C46.6495 11.3665 46.6405 11.4332 46.6767 11.4796C46.7911 11.6285 46.9055 11.7808 47.0158 11.9322C47.0364 11.9609 47.0685 11.976 47.1015 11.976ZM14.589 12.4134C14.6228 12.4134 14.6557 12.3973 14.6763 12.3673C14.7816 12.2136 14.8919 12.0587 15.0022 11.9067C15.0368 11.8593 15.0261 11.7929 14.9792 11.7584C14.9323 11.7238 14.8656 11.7341 14.831 11.7816C14.7191 11.9351 14.6079 12.0917 14.5009 12.2471C14.468 12.2955 14.4803 12.3616 14.5289 12.3948C14.547 12.4074 14.5676 12.4134 14.589 12.4134ZM47.7434 12.9146C47.7631 12.9146 47.7829 12.9092 47.801 12.8978C47.8504 12.866 47.8644 12.8003 47.8331 12.751C47.7302 12.5919 47.624 12.4315 47.517 12.2746C47.4832 12.2263 47.4174 12.2138 47.3688 12.2469C47.3211 12.28 47.3087 12.3461 47.3416 12.3945C47.4478 12.5498 47.5532 12.7084 47.6545 12.8659C47.6742 12.8974 47.7088 12.9146 47.7434 12.9146ZM13.9733 13.3662C14.0095 13.3662 14.0449 13.348 14.0647 13.3151C14.1618 13.1547 14.2622 12.9938 14.3635 12.8369C14.3956 12.7877 14.3816 12.7219 14.3322 12.6901C14.2828 12.6584 14.217 12.6724 14.1849 12.7217C14.0828 12.8804 13.9807 13.043 13.8827 13.205C13.8523 13.2552 13.8687 13.3205 13.919 13.3509C13.9354 13.3613 13.9552 13.3662 13.9733 13.3662ZM48.3311 13.8887C48.3493 13.8887 48.3674 13.8842 48.3838 13.8749C48.4349 13.8461 48.453 13.7813 48.4242 13.7302C48.3303 13.5651 48.2332 13.3989 48.1352 13.2363C48.1048 13.186 48.0397 13.1699 47.9895 13.2002C47.9393 13.2305 47.9228 13.2958 47.9533 13.346C48.0504 13.507 48.1467 13.6714 48.2389 13.8347C48.2587 13.8693 48.2941 13.8887 48.3311 13.8887ZM13.4137 14.3521C13.4524 14.3521 13.4886 14.3316 13.5084 14.2956C13.5956 14.1303 13.687 13.964 13.7792 13.8015C13.808 13.7504 13.7907 13.6857 13.7397 13.6567C13.6886 13.6277 13.6236 13.6456 13.5948 13.6966C13.5009 13.8609 13.4087 14.0289 13.3207 14.1961C13.2927 14.2479 13.3124 14.3123 13.3643 14.3397C13.3799 14.3481 13.3972 14.3521 13.4137 14.3521ZM48.8629 14.895C48.8785 14.895 48.8942 14.8915 48.9098 14.884C48.9625 14.8582 48.9839 14.7945 48.9584 14.7419C48.8744 14.5716 48.7871 14.4001 48.6982 14.232C48.6711 14.1801 48.6069 14.1604 48.555 14.1877C48.5031 14.215 48.4826 14.2793 48.5105 14.3312C48.5978 14.4975 48.6842 14.6672 48.7674 14.8356C48.7855 14.8732 48.8234 14.895 48.8629 14.895ZM12.912 15.3678C12.9515 15.3678 12.9902 15.3448 13.0083 15.3059C13.0857 15.1369 13.1672 14.9659 13.2503 14.7973C13.2767 14.7447 13.2553 14.681 13.2026 14.655C13.1499 14.6289 13.0865 14.6505 13.0602 14.7032C12.9762 14.8735 12.8939 15.0465 12.8148 15.2172C12.791 15.2705 12.814 15.3336 12.8675 15.358C12.8815 15.3646 12.8972 15.3678 12.912 15.3678ZM49.3356 15.931C49.3496 15.931 49.3636 15.9283 49.3767 15.9226C49.4311 15.8998 49.4566 15.8375 49.4335 15.7835C49.3594 15.6088 49.2821 15.4325 49.203 15.2593C49.1792 15.2059 49.1158 15.1824 49.0623 15.2068C49.0096 15.2311 48.9857 15.2941 49.0104 15.3475C49.0886 15.5188 49.1652 15.6933 49.2376 15.8661C49.2549 15.9066 49.2944 15.931 49.3356 15.931ZM12.4694 16.4101C12.5114 16.4101 12.5517 16.3845 12.5682 16.3426C12.6357 16.1697 12.7073 15.9943 12.7806 15.8212C12.8036 15.7672 12.7789 15.7049 12.7246 15.682C12.6703 15.6589 12.6085 15.6842 12.5855 15.7382C12.5106 15.9131 12.4389 16.0904 12.3706 16.2651C12.3492 16.3198 12.3756 16.3813 12.4307 16.4027C12.4431 16.4077 12.4562 16.4101 12.4694 16.4101ZM49.748 16.9931C49.7603 16.9931 49.7718 16.9911 49.7842 16.9869C49.8393 16.9672 49.8681 16.9065 49.8484 16.8513C49.7842 16.6716 49.7175 16.491 49.6483 16.3144C49.6278 16.2596 49.566 16.2326 49.5109 16.2539C49.4565 16.2751 49.4294 16.3367 49.4508 16.3913C49.5183 16.5661 49.585 16.7447 49.6483 16.9225C49.664 16.9659 49.7043 16.9931 49.748 16.9931ZM12.0859 17.4792C12.1303 17.4792 12.1715 17.4507 12.1863 17.4059C12.2447 17.2281 12.3057 17.0483 12.3699 16.8714C12.3896 16.8163 12.3608 16.7555 12.3057 16.7356C12.2505 16.7157 12.1896 16.7445 12.1698 16.7997C12.1056 16.9785 12.0431 17.1603 11.9846 17.34C11.9665 17.3958 11.997 17.4557 12.0529 17.4739C12.0636 17.4775 12.0743 17.4792 12.0859 17.4792ZM50.0986 18.0755C50.1084 18.0755 50.1183 18.0741 50.1282 18.0712C50.185 18.0547 50.2171 17.9958 50.2006 17.9395C50.1471 17.757 50.0903 17.5734 50.0327 17.3936C50.0146 17.3377 49.9545 17.3073 49.8985 17.3253C49.8434 17.3433 49.8121 17.4032 49.8302 17.459C49.8878 17.6369 49.9438 17.8185 49.9965 17.999C50.0105 18.0453 50.0525 18.0755 50.0986 18.0755ZM11.7639 18.5687C11.8108 18.5687 11.8536 18.5372 11.8668 18.4896C11.9145 18.3078 11.9656 18.1247 12.0183 17.9455C12.0347 17.8892 12.0026 17.8301 11.9467 17.8136C11.8907 17.797 11.8314 17.8291 11.8149 17.8853C11.7614 18.0666 11.7096 18.2516 11.661 18.4354C11.6462 18.4921 11.6799 18.5503 11.7367 18.5652C11.7458 18.5675 11.7548 18.5687 11.7639 18.5687ZM50.3851 19.1748C50.3933 19.1748 50.4016 19.1739 50.409 19.172C50.4666 19.1589 50.502 19.1018 50.4888 19.0447C50.446 18.8592 50.4007 18.6725 50.353 18.4901C50.3382 18.4334 50.2797 18.3993 50.2229 18.4142C50.1661 18.429 50.1324 18.487 50.1472 18.5437C50.1941 18.7242 50.2394 18.9088 50.2822 19.0924C50.2937 19.1416 50.3374 19.1748 50.3851 19.1748ZM11.5055 19.6749C11.5549 19.6749 11.5994 19.6402 11.6093 19.5898C11.6471 19.407 11.6875 19.2213 11.7303 19.0379C11.7435 18.9809 11.7081 18.9238 11.6513 18.9104C11.5936 18.8969 11.5368 18.9326 11.5237 18.9896C11.48 19.175 11.4389 19.3628 11.4018 19.5476C11.3895 19.605 11.4273 19.6611 11.4841 19.6728L11.5055 19.6749ZM50.6091 20.2885L50.6264 20.287C50.6849 20.2772 50.7235 20.2223 50.7137 20.1645C50.6816 19.9775 50.647 19.7886 50.6091 19.6029C50.5976 19.5454 50.5416 19.5082 50.484 19.5197C50.4272 19.5313 50.3893 19.5872 50.4009 19.6446C50.4379 19.8284 50.4725 20.0153 50.5046 20.2002C50.5128 20.2519 50.5581 20.2885 50.6091 20.2885ZM11.311 20.7939C11.3629 20.7939 11.4082 20.7558 11.4164 20.7029C11.4427 20.5168 11.4724 20.3291 11.5045 20.145C11.5152 20.0872 11.4757 20.0322 11.418 20.0221C11.3604 20.0122 11.3053 20.0508 11.2954 20.1086C11.2633 20.2947 11.2328 20.4845 11.2057 20.6726C11.1974 20.7307 11.2378 20.7845 11.2954 20.7929L11.311 20.7939ZM50.7679 21.4132L50.7802 21.4125C50.8378 21.4059 50.8798 21.3533 50.8732 21.2951C50.8518 21.1063 50.8279 20.9156 50.8016 20.7285C50.7934 20.6705 50.739 20.6303 50.6814 20.6383C50.6238 20.6465 50.5826 20.7003 50.5909 20.7583C50.6172 20.9435 50.6411 21.132 50.6625 21.3188C50.6682 21.3731 50.7143 21.4132 50.7679 21.4132ZM11.181 21.9223C11.2353 21.9223 11.2814 21.8807 11.2864 21.8254C11.3028 21.638 11.3218 21.4488 11.3432 21.2632C11.3498 21.205 11.3086 21.1522 11.2502 21.1456C11.1917 21.1386 11.139 21.1806 11.1324 21.2389C11.111 21.4265 11.0913 21.6177 11.0748 21.807C11.0699 21.8655 11.1135 21.9169 11.172 21.922L11.181 21.9223ZM50.8628 22.5452L50.8685 22.5451C50.9278 22.5419 50.9722 22.4917 50.9689 22.4331C50.9582 22.2439 50.9451 22.0522 50.9294 21.8636C50.9245 21.805 50.8735 21.7612 50.815 21.7665C50.7566 21.7714 50.7129 21.8228 50.7179 21.8812C50.7335 22.0679 50.7467 22.2576 50.7574 22.4449C50.7599 22.5014 50.8068 22.5452 50.8628 22.5452ZM11.1152 23.0564C11.172 23.0564 11.2189 23.0109 11.2213 22.9533C11.2263 22.767 11.2345 22.577 11.246 22.3889C11.2493 22.3303 11.2049 22.28 11.1456 22.2767C11.088 22.2737 11.037 22.3179 11.0337 22.3764C11.023 22.5667 11.0139 22.7586 11.009 22.9471C11.0073 23.0057 11.0534 23.0547 11.1119 23.0564H11.1152ZM50.8939 23.6806C50.9524 23.6806 51.0001 23.6331 51.0001 23.5744V23.5555C51.0001 23.3723 50.9977 23.1865 50.9927 23.0035C50.9911 22.9448 50.9384 22.899 50.8832 22.9002C50.8248 22.9018 50.7787 22.9507 50.7803 23.0093C50.7853 23.1904 50.7877 23.3742 50.7877 23.5555V23.5744C50.7877 23.6331 50.8347 23.6806 50.8939 23.6806ZM11.1136 24.2297L11.1169 24.2296C11.1754 24.228 11.2215 24.1791 11.2198 24.1205C11.2149 23.9321 11.2124 23.742 11.2124 23.5555V23.5182C11.2124 23.4595 11.1646 23.412 11.1062 23.412C11.0469 23.412 11 23.4595 11 23.5182V23.5555C11 23.744 11.0025 23.936 11.0074 24.1265C11.0091 24.184 11.0568 24.2297 11.1136 24.2297ZM50.8617 24.8164C50.9176 24.8164 50.9646 24.7727 50.9679 24.7162C50.9786 24.5272 50.9868 24.3352 50.9917 24.1457C50.9942 24.087 50.9473 24.0381 50.8888 24.0365C50.8312 24.0347 50.7818 24.0809 50.7802 24.1395C50.7744 24.3271 50.7662 24.5171 50.7555 24.7041C50.7522 24.7626 50.7966 24.8128 50.8551 24.8161L50.8617 24.8164ZM11.1776 25.3639L11.1866 25.3636C11.2451 25.3587 11.2879 25.3073 11.2829 25.2489C11.2673 25.061 11.2541 24.8714 11.2434 24.6852C11.2401 24.6267 11.1891 24.5823 11.1315 24.5852C11.073 24.5885 11.0286 24.6385 11.031 24.6971C11.0417 24.8853 11.0557 25.0769 11.0714 25.2667C11.0763 25.3221 11.1224 25.3639 11.1776 25.3639ZM50.7638 25.9479C50.8173 25.9479 50.8634 25.9079 50.8692 25.8537C50.8906 25.6665 50.9095 25.4753 50.926 25.2856C50.9309 25.2271 50.8881 25.1757 50.8297 25.1706C50.7712 25.1658 50.7194 25.2089 50.7144 25.2675C50.698 25.4551 50.679 25.6442 50.6585 25.8296C50.6519 25.8879 50.693 25.9405 50.7515 25.9472L50.7638 25.9479ZM11.3053 26.4927L11.3201 26.4916C11.3786 26.4834 11.4189 26.4297 11.4107 26.3715C11.3843 26.1848 11.3596 25.9962 11.3391 25.811C11.3325 25.7527 11.2798 25.7106 11.2213 25.7175C11.1637 25.7241 11.1217 25.7768 11.1283 25.8351C11.1489 26.0221 11.1736 26.2127 11.2008 26.4014C11.2082 26.4544 11.2534 26.4927 11.3053 26.4927ZM50.6023 27.0725C50.6533 27.0725 50.6978 27.036 50.7068 26.9843C50.7389 26.7985 50.7694 26.6087 50.7957 26.4203C50.8048 26.3622 50.7644 26.3084 50.706 26.3001C50.6476 26.2919 50.594 26.332 50.5858 26.3901C50.5595 26.5765 50.529 26.7643 50.4977 26.9482C50.4879 27.006 50.5265 27.0609 50.5842 27.0709L50.6023 27.0725ZM11.4978 27.6121L11.5184 27.6101C11.576 27.5985 11.6131 27.5425 11.6015 27.485C11.5645 27.2993 11.5299 27.1124 11.4986 26.9295C11.4888 26.8717 11.4328 26.8331 11.376 26.8428C11.3175 26.8527 11.2788 26.9076 11.2887 26.9655C11.3208 27.1503 11.3562 27.3392 11.3933 27.5268C11.404 27.5772 11.4484 27.6121 11.4978 27.6121ZM50.3768 28.1857C50.4254 28.1857 50.469 28.1526 50.4805 28.1036C50.5233 27.9192 50.5637 27.7314 50.6015 27.5455C50.6131 27.4881 50.576 27.432 50.5184 27.4203C50.4616 27.4087 50.4048 27.4458 50.3933 27.5034C50.3562 27.6873 50.3159 27.873 50.2739 28.0554C50.2599 28.1126 50.2961 28.1697 50.3529 28.1829C50.3612 28.1848 50.3694 28.1857 50.3768 28.1857ZM11.7541 28.7188C11.7631 28.7188 11.7722 28.7177 11.7813 28.7153C11.8381 28.7005 11.8718 28.6424 11.857 28.5856C11.8092 28.4046 11.764 28.2201 11.722 28.0371C11.7088 27.98 11.6512 27.9443 11.5944 27.9576C11.5376 27.9709 11.5014 28.0279 11.5145 28.085C11.5573 28.27 11.6034 28.4566 11.6512 28.6395C11.6644 28.6872 11.7072 28.7188 11.7541 28.7188ZM50.0881 29.2844C50.1342 29.2844 50.1762 29.2545 50.1902 29.2082C50.2437 29.0264 50.2947 28.8414 50.3433 28.6581C50.3581 28.6013 50.3244 28.5432 50.2676 28.5283C50.2108 28.5134 50.1532 28.5473 50.1375 28.604C50.0906 28.7854 50.0396 28.9685 49.986 29.1483C49.9696 29.2046 50.0017 29.2636 50.0585 29.2802C50.0684 29.283 50.0782 29.2844 50.0881 29.2844ZM12.0733 29.809C12.0849 29.809 12.0956 29.8073 12.1063 29.8038C12.1622 29.7856 12.1927 29.7258 12.1746 29.67C12.117 29.4919 12.061 29.3103 12.0083 29.1301C11.9918 29.0738 11.9326 29.0415 11.8766 29.058C11.8198 29.0746 11.7877 29.1335 11.8041 29.1899C11.8577 29.372 11.9145 29.5556 11.9729 29.7355C11.9869 29.7805 12.0289 29.809 12.0733 29.809ZM49.7362 30.3647C49.7798 30.3647 49.8202 30.3376 49.8358 30.2942C49.9 30.1162 49.9617 29.9344 50.021 29.7538C50.0391 29.698 50.0087 29.638 49.9527 29.6199C49.8967 29.6016 49.8366 29.6322 49.8185 29.688C49.7609 29.8666 49.6991 30.0465 49.6358 30.2227C49.616 30.2778 49.6448 30.3386 49.7 30.3584C49.7123 30.3627 49.7238 30.3647 49.7362 30.3647ZM12.4573 30.8824C12.4696 30.8824 12.4828 30.88 12.4951 30.8751C12.5503 30.8538 12.5774 30.7923 12.556 30.7376C12.4877 30.5614 12.421 30.3826 12.3577 30.2066C12.3379 30.1514 12.277 30.1224 12.2218 30.1423C12.1667 30.162 12.1379 30.2228 12.1576 30.278C12.221 30.456 12.2885 30.6365 12.3577 30.8147C12.3741 30.8566 12.4145 30.8824 12.4573 30.8824ZM49.3239 31.4209C49.365 31.4209 49.4045 31.3966 49.421 31.3561C49.4951 31.1823 49.5675 31.0049 49.6359 30.829C49.6573 30.7744 49.6301 30.7129 49.5758 30.6914C49.5214 30.67 49.4597 30.6971 49.4383 30.7517C49.37 30.9257 49.2984 31.1012 49.2259 31.2732C49.2029 31.3272 49.2284 31.3895 49.2819 31.4125C49.2959 31.4182 49.3099 31.4209 49.3239 31.4209ZM12.9006 31.9312C12.9155 31.9312 12.9303 31.9281 12.9443 31.9216C12.9978 31.8972 13.0217 31.8342 12.997 31.7808C12.9188 31.609 12.8414 31.4345 12.7689 31.2624C12.7459 31.2085 12.6833 31.183 12.6298 31.206C12.5755 31.2289 12.55 31.2911 12.573 31.3452C12.6471 31.5191 12.7245 31.6955 12.8035 31.8692C12.8216 31.9082 12.8603 31.9312 12.9006 31.9312ZM48.8522 32.4507C48.8909 32.4507 48.9288 32.4289 48.9469 32.3915C49.0309 32.2222 49.1132 32.0491 49.1914 31.8772C49.2161 31.8238 49.193 31.7608 49.1395 31.7363C49.086 31.7119 49.0235 31.7353 48.9988 31.7887C48.9206 31.9588 48.8391 32.13 48.7567 32.2975C48.7304 32.3501 48.7526 32.4137 48.8053 32.4397C48.8201 32.4471 48.8358 32.4507 48.8522 32.4507ZM13.4036 32.9525C13.4208 32.9525 13.4373 32.9485 13.4538 32.9401C13.5056 32.9127 13.5254 32.8484 13.4974 32.7966C13.4093 32.6295 13.3229 32.4598 13.2406 32.2924C13.2142 32.2398 13.15 32.2182 13.0981 32.244C13.0455 32.27 13.0241 32.3337 13.0496 32.3863C13.1327 32.5554 13.2208 32.7269 13.3097 32.8959C13.3286 32.9319 13.3657 32.9525 13.4036 32.9525ZM48.3215 33.452C48.3586 33.452 48.3948 33.4327 48.4145 33.3982C48.5076 33.2335 48.5997 33.0653 48.6878 32.8984C48.7158 32.8466 48.6961 32.7823 48.6442 32.7549C48.5923 32.7273 48.5281 32.7473 48.5001 32.799C48.4129 32.9643 48.3215 33.1306 48.2293 33.2935C48.2005 33.3446 48.2186 33.4094 48.2696 33.4383C48.2861 33.4476 48.3042 33.452 48.3215 33.452ZM13.9651 33.9424C13.9832 33.9424 14.0021 33.9374 14.0194 33.9271C14.0696 33.8967 14.0861 33.8314 14.0556 33.7813C13.9585 33.621 13.8622 33.4568 13.77 33.2929C13.7403 33.2418 13.6753 33.224 13.6251 33.2529C13.574 33.2818 13.5559 33.3465 13.5847 33.3976C13.6786 33.5632 13.7757 33.7292 13.8737 33.8912C13.8934 33.9242 13.9288 33.9424 13.9651 33.9424ZM47.7351 34.4223C47.7697 34.4223 47.8043 34.4052 47.8241 34.3737C47.9261 34.2151 48.0282 34.0524 48.1262 33.8901C48.1566 33.8399 48.1402 33.7747 48.0899 33.7443C48.0397 33.714 47.9747 33.73 47.9442 33.7802C47.8471 33.9408 47.7467 34.1017 47.6454 34.2586C47.6141 34.3079 47.6281 34.3736 47.6775 34.4054C47.6956 34.4169 47.7154 34.4223 47.7351 34.4223ZM14.5811 34.8984C14.6017 34.8984 14.6231 34.8924 14.6412 34.8798C14.6897 34.8467 14.7021 34.7806 14.6683 34.7322C14.563 34.5776 14.4576 34.4191 14.3555 34.2611C14.3234 34.2118 14.2576 34.1977 14.209 34.2294C14.1596 34.2612 14.1448 34.3269 14.1769 34.3761C14.2798 34.5359 14.386 34.6961 14.4938 34.8523C14.5144 34.8823 14.5473 34.8984 14.5811 34.8984ZM47.0942 35.3582C47.1271 35.3582 47.1592 35.343 47.1798 35.3144C47.2909 35.1613 47.402 35.0045 47.509 34.8486C47.542 34.8002 47.5296 34.7342 47.4811 34.701C47.4333 34.6677 47.3666 34.6802 47.3337 34.7285C47.2283 34.8828 47.118 35.0379 47.0077 35.1894C46.974 35.2369 46.9838 35.3033 47.0316 35.3378C47.0505 35.3516 47.0719 35.3582 47.0942 35.3582ZM15.2501 35.8175C15.2731 35.8175 15.2962 35.8103 15.3151 35.7953C15.362 35.7594 15.3702 35.6927 15.334 35.6464C15.2204 35.4988 15.106 35.3467 14.9949 35.1941C14.9603 35.1466 14.8936 35.1361 14.8467 35.1708C14.7989 35.2053 14.7891 35.2717 14.8228 35.3191C14.9356 35.4734 15.0508 35.6272 15.1661 35.7763C15.1875 35.8033 15.2188 35.8175 15.2501 35.8175ZM46.4001 36.2563C46.4305 36.2563 46.461 36.243 46.4824 36.2173C46.6018 36.0713 46.7211 35.9211 46.8372 35.7707C46.8734 35.7244 46.8644 35.6576 46.8183 35.6218C46.7722 35.586 46.7055 35.5945 46.6693 35.6409C46.554 35.7896 46.4363 35.9383 46.3178 36.0827C46.2807 36.1282 46.2873 36.1951 46.3326 36.2322C46.3523 36.2484 46.3762 36.2563 46.4001 36.2563ZM15.9706 36.6965C15.9953 36.6965 16.02 36.688 16.0406 36.6706C16.085 36.6321 16.0891 36.5651 16.0513 36.5208C15.9278 36.3785 15.8051 36.233 15.6866 36.0887C15.6495 36.0434 15.5829 36.0366 15.5368 36.0739C15.4915 36.111 15.4849 36.1779 15.5219 36.2233C15.6421 36.3692 15.7656 36.5161 15.8907 36.66C15.9113 36.6842 15.9409 36.6965 15.9706 36.6965ZM45.6559 37.114C45.6847 37.114 45.7135 37.1025 45.7341 37.0797C45.8625 36.9404 45.9901 36.7971 46.1144 36.6538C46.1531 36.6096 46.1482 36.5424 46.1037 36.504C46.0592 36.4656 45.9926 36.4703 45.9539 36.5146C45.8312 36.6565 45.7044 36.7982 45.5777 36.936C45.5382 36.9793 45.5415 37.0463 45.5843 37.086C45.6048 37.1047 45.6304 37.114 45.6559 37.114ZM16.7394 37.533C16.7665 37.533 16.7929 37.5231 16.8135 37.503C16.8554 37.4621 16.8563 37.3948 16.8159 37.3528C16.685 37.2184 16.5542 37.0803 16.4274 36.9421C16.3879 36.8989 16.3204 36.8963 16.2776 36.9359C16.2339 36.9755 16.2315 37.0427 16.271 37.0859C16.3994 37.2254 16.5311 37.365 16.6636 37.5008C16.6842 37.5222 16.7122 37.533 16.7394 37.533ZM44.8648 37.9285C44.8911 37.9285 44.9175 37.9185 44.938 37.8985C45.0747 37.7664 45.2105 37.6305 45.3422 37.4946C45.3834 37.4527 45.3817 37.3854 45.3398 37.3445C45.2978 37.3037 45.2311 37.3046 45.1899 37.3466C45.059 37.4811 44.9249 37.6155 44.7907 37.7461C44.7487 37.787 44.7471 37.8543 44.7882 37.8963C44.8088 37.9178 44.8368 37.9285 44.8648 37.9285ZM17.5543 38.3243C17.5832 38.3243 17.612 38.3128 17.6325 38.2899C17.6721 38.2467 17.6696 38.1796 17.626 38.1399C17.4877 38.0128 17.3494 37.8823 17.2152 37.7521C17.1732 37.7113 17.1057 37.7122 17.0654 37.7543C17.0242 37.7964 17.025 37.8636 17.0678 37.9045C17.2028 38.036 17.3428 38.1679 17.4827 38.2964C17.5025 38.3151 17.5288 38.3243 17.5543 38.3243ZM44.0274 38.6967C44.0521 38.6967 44.0768 38.6881 44.0973 38.6708C44.2398 38.5465 44.3838 38.4186 44.5229 38.2904C44.5666 38.2507 44.569 38.1835 44.5295 38.1404C44.49 38.0972 44.4225 38.0944 44.3797 38.1339C44.2414 38.2608 44.0998 38.3874 43.9574 38.5102C43.9138 38.5487 43.9088 38.6158 43.9475 38.66C43.9681 38.6843 43.9977 38.6967 44.0274 38.6967ZM18.4119 39.0679C18.4432 39.0679 18.4736 39.0547 18.4942 39.029C18.5312 38.9836 18.5247 38.9167 18.4794 38.8796C18.3337 38.7604 18.1888 38.6381 18.0472 38.5159C18.0028 38.4775 17.9361 38.4823 17.8974 38.5265C17.8595 38.5709 17.8645 38.638 17.9081 38.6764C18.0505 38.7999 18.1979 38.9235 18.3452 39.0439C18.365 39.06 18.3888 39.0679 18.4119 39.0679ZM43.1485 39.4169C43.1707 39.4169 43.1938 39.4096 43.2127 39.3947C43.3625 39.2792 43.5132 39.1595 43.6605 39.0391C43.7058 39.0019 43.7124 38.935 43.6754 38.8896C43.6383 38.8442 43.5716 38.8374 43.5255 38.8747C43.3798 38.9939 43.2317 39.1123 43.0835 39.2266C43.0366 39.2624 43.0283 39.3291 43.0645 39.3755C43.0851 39.4027 43.1164 39.4169 43.1485 39.4169ZM19.3109 39.7612C19.3438 39.7612 19.376 39.7461 19.3965 39.7175C19.4311 39.6701 19.4204 39.6036 19.3735 39.5691C19.2212 39.4583 19.0689 39.3445 18.9215 39.2307C18.8755 39.195 18.8088 39.2035 18.7725 39.2499C18.7372 39.2963 18.7454 39.363 18.7915 39.3988C18.9405 39.5138 19.0944 39.6289 19.2484 39.7409C19.2673 39.7546 19.2887 39.7612 19.3109 39.7612ZM42.2287 40.086C42.2493 40.086 42.2699 40.08 42.2888 40.0674C42.4452 39.9603 42.6025 39.8493 42.7556 39.7377C42.8033 39.7031 42.8132 39.6368 42.7786 39.5893C42.7449 39.5418 42.6782 39.5314 42.6304 39.566C42.479 39.6764 42.3234 39.7862 42.1686 39.8922C42.1201 39.9254 42.1077 39.9914 42.1406 40.0398C42.1612 40.0698 42.195 40.086 42.2287 40.086ZM20.247 40.4022C20.2816 40.4022 20.3161 40.385 20.3359 40.3535C20.368 40.3042 20.354 40.2384 20.3046 40.2067C20.1474 40.1057 19.9893 40.0007 19.8346 39.8947C19.786 39.8616 19.7201 39.8738 19.6872 39.9222C19.6535 39.9706 19.6658 40.0368 19.7144 40.0699C19.8708 40.1771 20.0305 40.2832 20.1894 40.3853C20.2075 40.3967 20.2272 40.4022 20.247 40.4022ZM41.2724 40.7016C41.2914 40.7016 41.3103 40.6968 41.3276 40.6863C41.4898 40.5884 41.6528 40.4866 41.8125 40.3836C41.8619 40.3519 41.8758 40.2862 41.8446 40.2369C41.8125 40.1875 41.7466 40.1734 41.698 40.2051C41.5392 40.3069 41.3778 40.4077 41.2173 40.5046C41.1671 40.5349 41.1514 40.6001 41.1819 40.6503C41.2016 40.6834 41.237 40.7016 41.2724 40.7016ZM21.2175 40.9883C21.2545 40.9883 21.2899 40.9689 21.3097 40.9343C21.3385 40.8833 21.3204 40.8185 21.2693 40.7896C21.1063 40.6972 20.9425 40.6014 20.7828 40.505C20.7326 40.4746 20.6676 40.4906 20.6371 40.5409C20.6066 40.5911 20.6231 40.6564 20.6733 40.6867C20.8347 40.7843 21.0001 40.8811 21.1648 40.9745C21.1812 40.9838 21.1994 40.9883 21.2175 40.9883ZM40.2817 41.2618C40.2982 41.2618 40.3155 41.2579 40.3311 41.2495C40.4991 41.1608 40.6678 41.0685 40.8333 40.975C40.8843 40.9461 40.9024 40.8813 40.8736 40.8302C40.8448 40.7792 40.7798 40.7613 40.7287 40.7901C40.5649 40.8827 40.3978 40.9741 40.2324 41.0617C40.1805 41.0891 40.1607 41.1533 40.1879 41.2052C40.2068 41.2413 40.2439 41.2618 40.2817 41.2618ZM22.2193 41.5179C22.2588 41.5179 22.2959 41.4962 22.3148 41.4586C22.3403 41.406 22.3189 41.3423 22.2662 41.3165C22.0991 41.234 21.9304 41.1478 21.7641 41.0601C21.7122 41.0328 21.648 41.0526 21.6209 41.1044C21.5937 41.1563 21.6134 41.2205 21.6653 41.248C21.8324 41.3365 22.0036 41.4237 22.1724 41.507C22.1872 41.5144 22.2037 41.5179 22.2193 41.5179ZM39.2605 41.7647C39.2753 41.7647 39.2901 41.7615 39.3049 41.755C39.4778 41.6761 39.6515 41.5936 39.8219 41.5096C39.8746 41.4837 39.896 41.4201 39.8705 41.3674C39.8441 41.3148 39.7807 41.2932 39.7281 41.3191C39.5593 41.4021 39.3873 41.4838 39.2169 41.5618C39.1634 41.5862 39.1395 41.6493 39.1642 41.7025C39.1823 41.7416 39.2202 41.7647 39.2605 41.7647ZM23.2491 41.9893C23.2903 41.9893 23.3298 41.965 23.3471 41.9245C23.3702 41.8705 23.3446 41.8082 23.2903 41.7853C23.1183 41.7122 22.9446 41.6358 22.775 41.5583C22.7223 41.534 22.6589 41.5573 22.6342 41.6107C22.6103 41.664 22.6334 41.727 22.6869 41.7514C22.8581 41.8298 23.0335 41.907 23.208 41.9809C23.2212 41.9866 23.2351 41.9893 23.2491 41.9893ZM38.2117 42.2081C38.2241 42.2081 38.2372 42.2058 38.2504 42.2009C38.4274 42.132 38.606 42.0595 38.7805 41.9856C38.8349 41.9627 38.8604 41.9004 38.8373 41.8464C38.8143 41.7924 38.7517 41.7671 38.6982 41.7899C38.5245 41.8631 38.3484 41.9348 38.173 42.0029C38.1187 42.0242 38.0915 42.0858 38.1129 42.1404C38.1286 42.1825 38.1689 42.2081 38.2117 42.2081ZM24.3062 42.4014C24.3498 42.4014 24.3901 42.3744 24.4058 42.3309C24.4255 42.2757 24.3967 42.215 24.3415 42.1952C24.1646 42.1321 23.9867 42.0656 23.8122 41.9975C23.7579 41.9763 23.6962 42.0032 23.6748 42.0578C23.6534 42.1125 23.6805 42.1741 23.7349 42.1954C23.9118 42.2642 24.0913 42.3315 24.2699 42.3953C24.2823 42.3995 24.2938 42.4014 24.3062 42.4014ZM37.1382 42.5905C37.1489 42.5905 37.1596 42.5888 37.1711 42.5852C37.3522 42.5266 37.5342 42.4645 37.7136 42.4008C37.7688 42.3811 37.7976 42.3203 37.7778 42.265C37.7581 42.2098 37.6972 42.1811 37.642 42.2007C37.465 42.2637 37.2847 42.3251 37.1053 42.3832C37.0493 42.4013 37.0188 42.4612 37.037 42.517C37.0518 42.5619 37.0929 42.5905 37.1382 42.5905ZM25.3864 42.7526C25.4325 42.7526 25.4745 42.7226 25.4885 42.6764C25.505 42.6201 25.4728 42.561 25.416 42.5445C25.2366 42.4917 25.0547 42.4355 24.8769 42.3776C24.8209 42.3593 24.7608 42.39 24.7427 42.4457C24.7246 42.5015 24.755 42.5614 24.811 42.5796C24.9913 42.6382 25.1748 42.695 25.3568 42.7483C25.3667 42.7512 25.3765 42.7526 25.3864 42.7526ZM36.0475 42.9094C36.0565 42.9094 36.0656 42.9083 36.0746 42.906C36.259 42.8577 36.4443 42.8065 36.6254 42.7535C36.6813 42.737 36.7134 42.678 36.697 42.6217C36.6805 42.5655 36.6221 42.5331 36.5653 42.5496C36.3858 42.6021 36.2031 42.6528 36.0211 42.7005C35.9643 42.7153 35.9298 42.7734 35.9446 42.8301C35.9577 42.8778 36.0006 42.9094 36.0475 42.9094ZM26.4853 43.0409C26.533 43.0409 26.5775 43.0078 26.5882 42.9587C26.6022 42.9016 26.566 42.8446 26.5091 42.8312C26.3264 42.7888 26.142 42.7432 25.9609 42.6957C25.9033 42.6808 25.8457 42.7147 25.8308 42.7714C25.816 42.8281 25.8498 42.8862 25.9066 42.9011C26.0901 42.9492 26.2762 42.9953 26.4614 43.0382C26.4688 43.0401 26.477 43.0409 26.4853 43.0409ZM34.9411 43.1652L34.9617 43.1631C35.1469 43.1258 35.3346 43.0852 35.5198 43.0425C35.5774 43.0293 35.6128 42.9723 35.5997 42.9152C35.5865 42.858 35.5289 42.8225 35.4721 42.8356C35.2893 42.8779 35.1033 42.918 34.9197 42.9548C34.8621 42.9664 34.825 43.0224 34.8366 43.0799C34.8473 43.1303 34.8909 43.1652 34.9411 43.1652ZM27.5982 43.2659C27.6492 43.2659 27.6945 43.2294 27.7027 43.1777C27.7134 43.12 27.6739 43.065 27.6163 43.055C27.4319 43.0232 27.245 42.9883 27.0614 42.9511C27.0038 42.9394 26.9478 42.9767 26.9363 43.0342C26.924 43.0916 26.9618 43.1477 27.0195 43.1593C27.2047 43.1968 27.394 43.2322 27.5801 43.2643L27.5982 43.2659ZM33.8208 43.3571L33.8365 43.356C34.0233 43.3294 34.2135 43.2997 34.4004 43.2677C34.458 43.2578 34.4975 43.2029 34.4876 43.1451C34.4777 43.0873 34.4218 43.0485 34.365 43.0584C34.1797 43.0901 33.9921 43.1194 33.806 43.1458C33.7484 43.154 33.7081 43.2078 33.7163 43.2658C33.7237 43.3188 33.769 43.3571 33.8208 43.3571ZM28.7224 43.4267C28.7759 43.4267 28.822 43.3868 28.8278 43.3326C28.8344 43.2743 28.7932 43.2217 28.7348 43.2151C28.5487 43.1939 28.3602 43.1696 28.1742 43.1431C28.1166 43.1346 28.0622 43.1752 28.054 43.2332C28.0458 43.2913 28.0861 43.3451 28.1445 43.3534C28.3322 43.3802 28.5224 43.4047 28.7109 43.4261L28.7224 43.4267ZM32.6918 43.4845L32.7009 43.4842C32.8894 43.4683 33.0812 43.4495 33.2697 43.4282C33.3273 43.4216 33.3693 43.369 33.3627 43.3107C33.3561 43.2525 33.3035 43.2109 33.2458 43.2171C33.059 43.2382 32.8696 43.2569 32.6836 43.2726C32.6251 43.2774 32.5815 43.3288 32.5864 43.3872C32.5914 43.4427 32.6375 43.4845 32.6918 43.4845ZM29.8545 43.523C29.9104 43.523 29.9574 43.4793 29.9606 43.4229C29.9639 43.3642 29.9195 43.3141 29.8602 43.3108C29.6733 43.3002 29.484 43.2867 29.2971 43.2708C29.2403 43.2658 29.1877 43.3091 29.1819 43.3676C29.177 43.4261 29.2206 43.4774 29.279 43.4825C29.4675 43.4985 29.6594 43.5121 29.8487 43.5229L29.8545 43.523ZM31.5585 43.5478H31.561C31.7511 43.5426 31.9429 43.5345 32.1315 43.524C32.1899 43.5207 32.2352 43.4707 32.2319 43.4121C32.2286 43.3535 32.1784 43.3087 32.1199 43.312C31.9331 43.3224 31.7437 43.3303 31.5552 43.3355C31.4968 43.3371 31.4507 43.386 31.4523 43.4446C31.454 43.5022 31.5009 43.5478 31.5585 43.5478ZM30.9904 43.5557C31.0488 43.5557 31.0966 43.5082 31.0966 43.4495C31.0966 43.3909 31.0488 43.3433 30.9904 43.3433C30.8027 43.3432 30.6125 43.3404 30.4248 43.335C30.3672 43.3337 30.3178 43.3796 30.3162 43.4382C30.3145 43.4968 30.3606 43.5457 30.4191 43.5474C30.6084 43.5528 30.801 43.5556 30.9904 43.5557Z" fill="#FBB03B"/>
<path d="M19.7885 59.5557H21.1325L17.5925 51.3117H16.2485L12.7085 59.5557H14.0525L14.7725 57.8757H19.0685L19.7885 59.5557ZM15.2405 56.7837L16.9205 52.8717L18.6005 56.7837H15.2405ZM25.4634 53.2077C24.6234 53.2077 23.8674 53.6397 23.4954 54.2517V53.3517H22.3074V59.5557H23.4954V55.5357C23.5914 54.8037 24.3354 54.2397 25.1994 54.2397C26.0394 54.2397 26.6274 54.8877 26.6274 55.8117V59.5557H27.7914V55.6077C27.7914 54.2037 26.8314 53.2077 25.4634 53.2077ZM35.131 53.3517H33.691L30.655 56.5197V51.1677H29.479V59.5557H30.655V57.9597L31.651 56.9517L33.595 59.5557H35.011L32.455 56.1597L35.131 53.3517ZM36.7 52.3197C37.084 52.3197 37.408 51.9837 37.408 51.5997C37.408 51.2277 37.084 50.8917 36.7 50.8917C36.292 50.8917 35.98 51.2277 35.98 51.5997C35.98 51.9837 36.292 52.3197 36.7 52.3197ZM36.1 59.5557H37.288V53.3517H36.1V59.5557ZM41.9106 58.4397C41.7786 58.5717 41.5386 58.6677 41.2746 58.6677C40.9266 58.6677 40.6386 58.3557 40.6386 57.9237V54.3597H42.1026V53.3517H40.6386V51.6477H39.4746V53.3517H38.5386V54.3597H39.4746V58.0077C39.4746 59.0037 40.1466 59.6997 41.1066 59.6997C41.5506 59.6997 42.0066 59.5317 42.3426 59.2557L41.9106 58.4397ZM46.1575 53.2077C45.4735 53.2077 44.6935 53.3877 43.8055 53.8317L44.2375 54.7077C44.7775 54.4317 45.3775 54.1917 45.9895 54.1917C47.2255 54.1917 47.5855 55.0197 47.5855 55.7997V55.9917C46.9855 55.7877 46.3255 55.6557 45.7135 55.6557C44.3455 55.6557 43.2295 56.4837 43.2295 57.7197C43.2295 58.9317 44.2015 59.6997 45.5215 59.6997C46.2775 59.6997 47.1295 59.3517 47.5855 58.7037V59.5557H48.7495V55.7997C48.7495 54.2637 47.8255 53.2077 46.1575 53.2077ZM45.7495 58.7637C44.9695 58.7637 44.3695 58.3557 44.3695 57.6837C44.3695 57.0117 45.0655 56.5437 45.8935 56.5437C46.5055 56.5437 47.0815 56.6277 47.5855 56.7837V57.6117C47.3815 58.3797 46.5175 58.7637 45.7495 58.7637Z" fill="black"/>
</svg>
