<svg width="62" height="62" viewBox="0 0 62 62" fill="none" xmlns="http://www.w3.org/2000/svg">
<mask id="mask0_127:3838" style="mask-type:alpha" maskUnits="userSpaceOnUse" x="12" y="4" width="38" height="39">
<path fill-rule="evenodd" clip-rule="evenodd" d="M49.6805 23.5872C49.6805 33.8912 41.3267 42.245 31.0228 42.245C20.718 42.245 12.365 33.8912 12.365 23.5872C12.365 13.2824 20.718 4.92863 31.0228 4.92863C41.3267 4.92863 49.6805 13.2824 49.6805 23.5872Z" fill="white"/>
</mask>
<g mask="url(#mask0_127:3838)">
<path fill-rule="evenodd" clip-rule="evenodd" d="M49.6805 23.5872C49.6805 33.8912 41.3267 42.245 31.0228 42.245C20.718 42.245 12.365 33.8912 12.365 23.5872C12.365 13.2824 20.718 4.92863 31.0228 4.92863C41.3267 4.92863 49.6805 13.2824 49.6805 23.5872Z" fill="#FCE3C3"/>
<path fill-rule="evenodd" clip-rule="evenodd" d="M38.3731 32.5724C38.3722 32.6366 38.3714 32.7008 38.3689 32.765C38.3566 33.3116 38.3278 33.8623 38.285 34.4147C38.1952 35.5844 38.0438 36.7641 37.852 37.9446C37.4297 40.5409 36.8098 43.1348 36.213 45.6077C35.8557 45.8481 35.2663 46.2259 34.8588 46.3634C31.3372 47.5496 29.0215 47.32 25.3624 46.6713C24.8348 44.545 24.559 42.3676 24.4174 40.1812C24.2635 37.8063 24.1112 35.4264 24.1334 33.0473C24.2067 32.8111 24.284 32.5748 24.3655 32.3402C24.3804 32.2974 24.3952 32.2538 24.4108 32.211C24.4421 32.1278 24.4734 32.0447 24.5063 31.9624C24.5927 31.7409 24.6841 31.5211 24.7796 31.3038C24.908 31.0116 25.0463 30.7235 25.192 30.4403C25.751 29.7941 26.3527 29.1849 26.9924 28.6185C27.683 28.0061 28.4387 27.4315 29.3212 27.1582C29.9279 26.9697 30.5741 26.9326 31.2096 26.9647C31.6056 26.9853 31.9999 27.0331 32.3884 27.1072C33.8364 27.3837 35.2145 28.0258 36.3612 28.9528C36.7226 29.2434 37.0601 29.5628 37.3696 29.9077C37.4247 29.9694 37.4791 30.032 37.5326 30.0954C37.8528 30.4724 38.1467 30.8889 38.2784 31.3664C38.3862 31.7566 38.3805 32.1682 38.3731 32.5724Z" fill="#FFCFCA"/>
<path fill-rule="evenodd" clip-rule="evenodd" d="M36.3431 14.0414C36.1554 13.7747 35.9553 13.5162 35.7421 13.2684C35.3025 12.7564 34.7782 12.3069 34.2052 11.943C32.0534 10.5774 29.1483 10.7996 27.3077 12.5876C26.4491 13.4207 25.8934 14.5164 25.5361 15.6491C24.8899 17.7021 24.7212 19.8696 24.6726 22.005C24.6603 22.5401 24.6594 23.0751 24.6471 23.6094C24.6438 23.7642 24.5681 25.0525 24.6734 25.0944C25.0439 25.241 25.4201 25.3694 25.7979 25.4896C27.851 26.1448 29.9913 26.5663 32.1324 26.4815C34.2719 26.3967 36.4188 25.7835 38.1615 24.51C38.2331 23.9197 38.2685 23.3468 38.2718 22.7722C38.2809 21.0377 38.3459 19.2662 37.9376 17.5663C37.6347 16.3076 37.0914 15.1041 36.3431 14.0414Z" fill="#3A374C"/>
<path fill-rule="evenodd" clip-rule="evenodd" d="M33.6807 21.288L33.7614 27.6348L28.7234 27.9435L28.9613 23.1048L33.6807 21.288Z" fill="#FFCFCA"/>
<path fill-rule="evenodd" clip-rule="evenodd" d="M33.681 21.288L33.7056 23.2324C33.1722 23.7584 32.5984 24.2391 31.9555 24.6203C31.022 25.1718 29.9206 25.4994 28.8496 25.3776L28.9616 23.1048L33.681 21.288Z" fill="#FCB9B4"/>
<path fill-rule="evenodd" clip-rule="evenodd" d="M35.7292 18.275L35.73 18.2758C35.5028 19.3962 35.0574 20.4746 34.4573 21.3867C33.4868 22.8627 31.8758 24.1839 30.0549 24.3313C29.1246 24.4062 28.1862 24.1016 27.5112 23.448C27.3474 23.2891 27.1967 23.1121 27.0625 22.9178C25.8491 21.162 25.6722 18.8323 26.2113 16.7397C26.4451 15.8326 26.8123 14.9715 27.2889 14.2199C27.8075 13.4009 28.5649 12.6855 29.43 12.2023C30.8649 11.4021 32.5985 11.2391 34.0432 12.2969C34.696 12.7744 35.1743 13.4675 35.469 14.2224C35.4805 14.2504 35.4913 14.2784 35.5011 14.3064C35.9597 15.5478 36 16.9406 35.7292 18.275Z" fill="#FFCFCA"/>
<path fill-rule="evenodd" clip-rule="evenodd" d="M29.8621 13.0199C29.8242 13.4701 29.5986 13.8826 29.3401 14.2547C29.2833 14.3362 29.2249 14.4176 29.164 14.4967C28.4173 15.4763 27.4023 16.2509 26.2581 16.7103C26.2416 16.7168 26.2227 16.7251 26.2013 16.7341C26.4351 15.8253 26.8031 14.9618 27.2805 14.2094C27.8008 13.3887 28.5589 12.6716 29.4266 12.1876C29.5254 12.2247 29.6143 12.2806 29.6851 12.3588C29.774 12.4568 29.825 12.5803 29.8497 12.7112C29.8686 12.8124 29.8711 12.9178 29.8621 13.0199Z" fill="#FCB9B4"/>
<path fill-rule="evenodd" clip-rule="evenodd" d="M35.729 18.2751L35.7298 18.2759C35.3445 18.5616 34.9618 18.8579 34.5049 18.9897C34.276 19.0563 34.0365 19.0786 33.7978 19.0786C33.0717 19.0794 32.3465 18.8793 31.7233 18.5056C30.8392 17.9747 30.1856 17.1152 29.7501 16.1801C29.4998 15.6434 29.3163 15.0803 29.1681 14.5065C29.057 14.0818 28.9664 13.6496 28.8824 13.2174C29.1088 12.8889 29.4628 12.7918 29.8522 12.7251C29.8769 12.7202 29.9007 12.7161 29.9263 12.712C31.3734 12.474 32.8824 12.7745 34.1929 13.4331C34.6407 13.6586 35.0663 13.9237 35.4688 14.2225C35.4804 14.2505 35.4911 14.2785 35.501 14.3065C35.9595 15.5479 35.9998 16.9407 35.729 18.2751Z" fill="#FCB9B4"/>
<path fill-rule="evenodd" clip-rule="evenodd" d="M50.781 40.2726C48.7247 40.3253 43.9872 37.5305 42.0296 36.5303C41.6616 36.341 40.9644 35.9557 40.1601 35.498C39.5641 35.1589 38.9097 34.7819 38.2849 34.4147C37.1999 33.7767 36.2055 33.1717 35.7692 32.8671C35.4243 32.6251 35.0736 32.3518 34.7336 32.0505C33.5466 31.0009 32.4994 29.6163 32.3356 28.0736C32.3274 27.993 32.3266 27.4151 32.3883 27.1072C32.4114 26.9903 32.4435 26.9129 32.4879 26.9162C35.998 27.1772 39.2842 28.7091 42.3572 30.4263C43.3426 30.977 43.8801 31.3623 44.6836 31.8883C44.8556 32.0019 45.04 32.1213 45.2434 32.2497L45.2557 32.2571C45.2467 32.2357 45.2376 32.2143 45.2285 32.1929C45.1034 31.8859 44.9898 31.5681 44.8886 31.2709C44.7848 30.9663 44.6951 30.6823 44.6169 30.4486C44.4226 29.8657 44.1913 29.0656 44.1913 29.0656C44.1913 29.0656 43.4562 27.108 43.3615 27.0685C43.1162 26.9664 42.8808 26.8429 42.6593 26.6964C42.3877 26.5161 42.1951 26.2782 41.9456 26.0733C41.5143 25.7201 41.008 25.4509 40.552 25.1282C40.4112 25.0278 40.2655 24.92 40.1832 24.766L40.1749 24.7496C40.1017 24.5981 40.1041 24.3972 40.2293 24.2836C40.3248 24.1964 40.468 24.1799 40.5956 24.2046C40.8195 24.249 41.0393 24.3725 41.236 24.4837C41.362 24.5553 41.4921 24.6442 41.6312 24.6886C41.8419 24.7586 41.7522 24.5808 41.683 24.4491C41.6057 24.305 41.5143 24.17 41.4155 24.0408C41.2204 23.7848 40.9973 23.5518 40.7923 23.304L39.4011 21.6222C39.2645 21.4568 39.3624 21.1686 39.5633 21.1077C39.8432 21.0213 40.0383 21.3712 40.1996 21.5366C40.4688 21.8124 40.7405 22.0873 41.0113 22.3615C41.2064 22.5574 41.4023 22.7541 41.5991 22.9484C41.7127 23.062 41.7892 23.2225 41.9053 23.3419C41.9473 23.3855 42.0584 23.5148 42.135 23.4736C42.2148 23.4308 42.1276 23.2983 42.1053 23.2406C42.0494 23.1023 41.9893 22.9673 41.9259 22.8315C41.804 22.5705 41.6715 22.3145 41.5365 22.0593C41.264 21.5391 40.9825 21.0205 40.7734 20.4706C40.7643 20.4475 40.7578 20.4253 40.7536 20.4031C40.6763 20.2376 40.7701 20.0203 40.9446 19.9627C41.2739 19.854 41.4484 20.3199 41.5785 20.534C41.7876 20.8805 41.9843 21.2337 42.1934 21.5802C42.3482 21.8387 42.5038 22.0972 42.6602 22.3557C42.7137 22.4471 42.8701 22.9204 43.0306 22.8677C43.1706 22.8233 42.9919 22.4611 42.9746 22.3763C42.9318 22.1738 42.8865 21.9721 42.8404 21.7712C42.7474 21.3679 42.6454 20.9678 42.5317 20.5694C42.521 20.5323 42.5169 20.4961 42.5186 20.4615C42.4824 20.3504 42.4461 20.2384 42.4083 20.1273C42.3416 19.9273 42.5087 19.7141 42.7186 19.7206C43.0216 19.728 43.0668 20.1125 43.1393 20.3339C43.2537 20.6871 43.3648 21.0402 43.4718 21.3958C43.5484 21.6461 43.6217 21.898 43.6941 22.1499C43.7328 22.2841 43.8546 22.8842 44.0966 22.708C44.1436 22.6734 44.1403 22.5491 44.1427 22.4998C44.1543 22.3409 44.1288 22.1828 44.1197 22.0248C44.095 21.6008 44.0752 21.1761 44.0629 20.7521C44.0555 20.5191 44.3156 20.3537 44.5264 20.459C44.8334 20.613 44.7231 21.2057 44.728 21.479C44.7363 21.9145 44.7601 22.3491 44.8005 22.7829C44.8087 22.857 44.8153 22.9311 44.84 23.0019C44.8713 23.0925 44.9281 23.1715 44.9808 23.253L44.9824 23.2546C45.2796 23.7148 45.4541 24.2482 45.5241 24.7891C45.5595 25.0607 45.5677 25.3365 45.5496 25.6098C45.5307 25.8864 45.4146 26.4067 45.4146 26.4067C45.4146 26.4067 45.6179 26.731 45.7109 26.8545C45.818 26.9952 45.9167 27.1426 46.018 27.2866C46.2296 27.5863 46.4411 27.8851 46.6519 28.1848C47.3845 29.222 48.1369 30.2469 48.8309 31.3113C50.6279 34.0657 51.3614 35.475 52.1516 37.3733C52.5863 38.4163 52.2603 40.2347 50.781 40.2726Z" fill="#FFCFCA"/>
<path fill-rule="evenodd" clip-rule="evenodd" d="M40.1602 35.498C39.5642 35.1588 38.9098 34.7818 38.285 34.4147C38.1952 35.5844 38.0438 36.7641 37.852 37.9445C37.0082 37.9231 36.1661 37.8787 35.3272 37.7898C34.7938 37.733 34.2134 37.6334 33.8603 37.2292C33.6084 36.9402 33.5211 36.5434 33.494 36.1615C33.4092 34.9678 33.829 33.7923 34.3715 32.7255C34.4876 32.4982 34.6086 32.2735 34.7337 32.0504C35.193 31.2281 35.6894 30.4246 36.0673 29.5627C36.1562 29.3594 36.2467 29.1437 36.3612 28.9527C36.4896 28.7379 36.6476 28.5527 36.8699 28.4432L37.0353 28.4959C37.1366 28.9676 37.2461 29.4401 37.3696 29.9076C37.6198 30.8601 37.9269 31.7969 38.3352 32.6925C38.3467 32.7164 38.3574 32.7403 38.3689 32.765C38.8283 33.7569 39.4193 34.6978 40.1602 35.498Z" fill="#FCB9B4"/>
<path fill-rule="evenodd" clip-rule="evenodd" d="M44.989 24.9571C44.9437 24.6418 44.8639 24.3208 44.668 24.0705C44.472 23.8203 44.1362 23.6573 43.83 23.7454C43.6777 23.789 43.5476 23.8886 43.4027 23.9553C43.0413 24.1207 42.5836 24.0796 42.2873 24.3446C42.2461 24.3809 42.2091 24.4245 42.1967 24.4772C42.1745 24.5784 42.2494 24.6731 42.3194 24.7497C42.4182 24.8583 42.5277 24.9727 42.6717 25.0024C42.7886 25.0254 42.908 24.9884 43.0265 24.9736C43.3204 24.9382 43.6118 25.0444 43.8777 25.1744C44.0176 25.2419 44.1543 25.3177 44.2802 25.409C44.5354 25.5934 44.7412 25.8387 44.9437 26.0808C44.9701 26.1129 44.9865 26.1433 44.989 26.1845C45.0524 25.7762 45.0483 25.3654 44.989 24.9571Z" fill="#F9BFBB"/>
<path fill-rule="evenodd" clip-rule="evenodd" d="M34.6109 12.6034C33.9721 12.1029 33.2337 11.7415 32.427 11.5505C31.9931 11.4468 31.5486 11.385 31.1033 11.3711C30.5344 11.3521 30.2109 11.5629 29.9393 12.056C29.7285 12.4387 29.6256 12.8742 29.605 13.3089C29.5993 13.4439 29.6001 13.5797 29.6083 13.7172C29.6906 15.0598 30.42 16.5053 31.2325 17.2627C31.8894 17.876 32.7282 18.2974 33.5992 18.5074C34.4677 18.7173 35.5526 18.751 36.3602 18.3081C37.1233 17.8891 37.2262 17.0124 37.013 16.2386C36.7487 15.278 36.1741 14.2992 35.5493 13.5287C35.2686 13.1829 34.9542 12.8734 34.6109 12.6034Z" fill="#3A374C"/>
<path fill-rule="evenodd" clip-rule="evenodd" d="M31.2194 12.014C31.1964 11.9193 31.1684 11.8238 31.1141 11.7423C30.9898 11.5547 30.7502 11.4773 30.5255 11.4559C29.7319 11.3826 28.996 11.8469 28.3588 12.3268C27.9637 12.6248 27.5751 12.9401 27.2689 13.3286C27.0598 13.5954 26.8927 13.8925 26.7412 14.1947C26.2786 15.1208 25.9534 16.1144 25.7789 17.1343L25.8777 17.7171C25.9691 16.6593 26.3354 15.5784 27.1224 14.8656C28.1325 13.951 29.5969 13.8143 30.9223 13.4991C31.0095 13.4785 31.1017 13.453 31.161 13.3855C31.2063 13.3328 31.2244 13.262 31.2384 13.1936C31.3166 12.8051 31.31 12.4001 31.2194 12.014Z" fill="#3A374C"/>
<path fill-rule="evenodd" clip-rule="evenodd" d="M36.4337 19.2203C36.2699 18.8235 35.8699 18.5444 35.3587 18.5329C34.7758 18.5206 34.3198 19.0071 33.9469 19.4541L33.2332 22.164C33.2142 22.2381 33.9304 22.2175 34.016 22.1986C34.3041 22.1344 34.5964 21.9837 34.8507 21.8372C35.3759 21.5326 35.8312 21.107 36.1629 20.5983C36.4247 20.1982 36.6288 19.6887 36.4337 19.2203Z" fill="#FFCFCA"/>
<path fill-rule="evenodd" clip-rule="evenodd" d="M29.9188 11.6015C29.9295 11.7134 29.9328 11.8262 29.9304 11.9382C29.9295 11.9769 29.9287 12.0156 29.9254 12.0543C29.8999 12.4848 29.7847 12.9079 29.6019 13.2965C29.5426 13.4224 29.476 13.5451 29.4035 13.6628C29.3862 13.6916 29.3681 13.7204 29.3484 13.7484C28.9499 14.3609 28.3893 14.8482 27.7761 15.2302C27.4583 15.4277 27.1208 15.5998 26.7578 15.6796C26.6812 15.6961 26.6046 15.7076 26.5273 15.715C26.5182 15.7167 26.51 15.7175 26.5009 15.7175C26.4194 15.7241 26.3371 15.7257 26.2548 15.7208C26.0622 15.7109 25.8728 15.6673 25.6967 15.5825C25.8094 15.2318 25.9395 14.8869 26.091 14.551C26.808 12.9606 27.9967 11.8493 29.4397 11.3356C29.5986 11.357 29.755 11.3957 29.8983 11.4401C29.9065 11.4937 29.9139 11.548 29.9188 11.6015Z" fill="#3A374C"/>
<path fill-rule="evenodd" clip-rule="evenodd" d="M30.4087 20.9045C30.4334 21.1918 30.3947 21.4667 30.3049 21.7096C30.286 21.7623 30.2646 21.8125 30.2416 21.8619C30.0349 22.2924 29.6612 22.5937 29.2134 22.6324C28.8569 22.6628 28.5186 22.5213 28.256 22.2661C28.2354 22.2463 28.2148 22.2257 28.1959 22.2043C27.9473 21.936 27.7777 21.5598 27.7407 21.1342C27.7366 21.0831 27.7341 21.0329 27.7333 20.9827L30.3897 20.7538C30.398 20.8032 30.4046 20.8535 30.4087 20.9045Z" fill="#D55454"/>
<path fill-rule="evenodd" clip-rule="evenodd" d="M30.2417 21.8617C30.035 22.2922 29.6613 22.5935 29.2135 22.6322C28.857 22.6627 28.5187 22.5211 28.2561 22.2659C28.3022 22.1877 28.3582 22.1144 28.4232 22.0461C28.6414 21.8197 28.9583 21.6641 29.3213 21.6328C29.5938 21.609 29.8531 21.6592 30.0729 21.7645C30.1322 21.7934 30.1881 21.8255 30.2417 21.8617Z" fill="#F37C7C"/>
<path fill-rule="evenodd" clip-rule="evenodd" d="M30.0422 20.7833C29.992 20.8508 29.9327 20.9134 29.866 20.971C29.6512 21.1562 29.3573 21.2822 29.0264 21.311C28.6732 21.3415 28.3431 21.2542 28.0929 21.0896C28.0352 21.0517 27.9826 21.0105 27.9348 20.9653L30.0422 20.7833Z" fill="white"/>
<path fill-rule="evenodd" clip-rule="evenodd" d="M24.5071 19.1041C24.2306 18.0438 24.8669 16.9564 25.9263 16.6798C26.9858 16.4024 28.0741 17.0387 28.3507 18.099C28.6281 19.1584 27.9909 20.2459 26.9315 20.5233C25.872 20.7999 24.7846 20.1636 24.5071 19.1041ZM27.6436 16.8906L29.8621 16.7037C29.5205 16.9976 29.2752 17.3886 29.1608 17.8224L28.4018 17.8842C28.2528 17.4717 27.9828 17.1309 27.6436 16.8906ZM28.4856 18.1888C28.4774 18.1493 28.4708 18.1098 28.4609 18.0703C28.4535 18.0447 28.4444 18.0209 28.437 17.9953L29.1343 17.9385C29.1211 18.0019 29.1104 18.0653 29.103 18.1303L28.4856 18.1888ZM29.2674 18.9146C28.9752 17.7942 29.6478 16.6442 30.7681 16.352C31.8885 16.0589 33.0377 16.7315 33.3307 17.8519C33.6238 18.9722 32.9513 20.1214 31.8309 20.4145C30.7105 20.7075 29.5605 20.035 29.2674 18.9146ZM24.3977 19.1321C24.6907 20.2524 25.8399 20.9258 26.9603 20.6327C28.0033 20.3603 28.6577 19.3436 28.5063 18.3006L29.0924 18.2455C29.0776 18.4743 29.0973 18.7089 29.1582 18.9435C29.4669 20.124 30.6787 20.8336 31.86 20.5249C33.0404 20.2162 33.75 19.0045 33.4413 17.8232C33.1326 16.6427 31.9201 15.9331 30.7396 16.2418C30.4754 16.311 30.2366 16.427 30.0259 16.576L27.4888 16.7892C27.0245 16.5184 26.4573 16.4229 25.8976 16.5694C24.778 16.8625 24.1046 18.0125 24.3977 19.1321Z" fill="#999999"/>
<path fill-rule="evenodd" clip-rule="evenodd" d="M29.1226 20.007C29.0551 19.9288 28.9489 19.8794 28.837 19.8777C28.7242 19.8736 28.6065 19.9288 28.534 20.0185C28.4608 20.1074 28.4278 20.24 28.4723 20.3503C28.5118 20.4581 28.6131 20.5421 28.7192 20.5412C28.627 20.4943 28.5744 20.4095 28.5571 20.3247C28.5406 20.2408 28.567 20.156 28.6221 20.091C28.6756 20.0235 28.753 19.979 28.8419 19.9658C28.9308 19.9527 29.0279 19.9675 29.1226 20.007Z" fill="#B53434"/>
<path fill-rule="evenodd" clip-rule="evenodd" d="M30.8285 17.2873C30.8541 17.2807 30.8722 17.2568 30.8705 17.2288C30.8689 17.1976 30.8425 17.1737 30.8112 17.1753L29.9732 17.2198C29.942 17.2214 29.9173 17.2486 29.9197 17.2799C29.9214 17.3112 29.9477 17.335 29.979 17.3334L30.817 17.2889L30.8285 17.2873Z" fill="#24404C"/>
<path fill-rule="evenodd" clip-rule="evenodd" d="M27.772 17.573C27.7983 17.5664 27.8165 17.5417 27.814 17.5137C27.8123 17.4824 27.7852 17.4594 27.7539 17.4618L26.9628 17.5186C26.9323 17.5211 26.9085 17.5483 26.9109 17.5795C26.9126 17.6108 26.9398 17.6339 26.971 17.6322L27.7621 17.5746L27.772 17.573Z" fill="#24404C"/>
<path fill-rule="evenodd" clip-rule="evenodd" d="M29.9319 18.7815C29.9212 18.7815 29.9097 18.779 29.899 18.7741C29.8586 18.7559 29.8414 18.7082 29.8595 18.6687C29.9566 18.4555 30.1575 18.3073 30.3954 18.2719C30.5855 18.2439 30.8358 18.3427 31.0037 18.5131C31.035 18.5444 31.035 18.5946 31.0037 18.6259C30.9724 18.6563 30.9214 18.6563 30.8909 18.6251C30.76 18.4933 30.5575 18.4094 30.4192 18.43C30.234 18.4571 30.0793 18.5707 30.0043 18.7345C29.9912 18.7642 29.9624 18.7815 29.9319 18.7815Z" fill="#FCB9B4"/>
<path fill-rule="evenodd" clip-rule="evenodd" d="M27.0177 18.8794C27.0013 18.8794 26.9848 18.8744 26.97 18.8637C26.9346 18.8374 26.9272 18.7872 26.9535 18.7518C27.0959 18.5608 27.3281 18.4274 27.5199 18.4274H27.5224C27.7636 18.4291 27.9825 18.5476 28.1093 18.7444C28.1323 18.7822 28.1216 18.8308 28.0846 18.8547C28.0476 18.8786 27.9982 18.8679 27.9743 18.8308C27.878 18.6793 27.7084 18.588 27.5215 18.5871C27.3791 18.5871 27.1923 18.6983 27.0819 18.8473C27.0663 18.8679 27.0424 18.8794 27.0177 18.8794Z" fill="#FCB9B4"/>
<path fill-rule="evenodd" clip-rule="evenodd" d="M29.8786 18.676C29.8679 18.676 29.8563 18.6735 29.8456 18.6686C29.8061 18.6505 29.788 18.6036 29.8061 18.5632C29.9033 18.35 30.1041 18.2019 30.3428 18.1665C30.533 18.1385 30.7833 18.2381 30.9512 18.4077C30.9816 18.4389 30.9816 18.4892 30.9504 18.5204C30.9191 18.5509 30.8689 18.5509 30.8376 18.5196C30.7075 18.3879 30.505 18.3039 30.3659 18.3245C30.1807 18.3517 30.0259 18.4653 29.9518 18.6291C29.9378 18.6587 29.909 18.676 29.8786 18.676Z" fill="#24404C"/>
<path fill-rule="evenodd" clip-rule="evenodd" d="M26.9651 18.7741C26.9478 18.7741 26.9314 18.7692 26.9174 18.7585C26.882 18.7321 26.8746 18.6828 26.9009 18.6474C27.0425 18.4555 27.2755 18.323 27.4673 18.323H27.4689C27.7101 18.3238 27.9299 18.4424 28.0559 18.6399C28.0797 18.677 28.069 18.7264 28.032 18.7503C27.9941 18.7733 27.9447 18.7626 27.9217 18.7256C27.8245 18.5741 27.655 18.4835 27.4681 18.4827C27.3257 18.4827 27.1388 18.593 27.0285 18.742C27.0129 18.7634 26.989 18.7741 26.9651 18.7741Z" fill="#24404C"/>
<path fill-rule="evenodd" clip-rule="evenodd" d="M30.4934 29.6996C30.4572 29.7407 30.4202 29.7811 30.3823 29.8214C29.7032 30.5318 28.6989 31.0694 27.9802 31.5715C27.0574 32.2144 26.4812 32.8639 25.9617 33.8394C25.858 34.0345 25.7584 34.2337 25.6621 34.4354C25.5938 34.5778 25.5279 34.7219 25.4637 34.8668C25.1212 35.634 24.8232 36.4399 24.5458 37.2557C24.0346 38.7473 23.5876 40.2735 23.0484 41.6697C22.3948 43.3605 21.6531 44.9773 20.7534 46.5512C19.8717 48.0964 18.9341 49.6094 17.943 51.0879C17.4474 51.8271 16.9378 52.5581 16.4168 53.2792C16.2381 53.5262 15.7327 54.2613 15.4223 54.6853C15.354 54.7783 15.2956 54.8565 15.2511 54.9108L15.2462 54.9248V54.9265C15.2684 55.2541 15.247 55.6772 15.1408 56.3942C15.0848 56.7786 15.0272 57.1639 14.9276 57.5401C14.772 58.1312 14.3933 58.6292 14.1332 59.1791C14.0797 59.2952 14.0262 59.4129 13.9463 59.5133C13.5759 59.9801 13.1388 59.4647 13.1536 59.0367C13.1544 58.9963 13.1594 58.9568 13.1659 58.9181C13.2046 58.6868 13.3314 58.4761 13.4343 58.267C13.4944 58.1443 13.5504 58.0192 13.5792 57.885C13.6031 57.7731 13.6541 57.6257 13.5561 57.5319C13.4664 57.4463 13.2878 57.4282 13.1717 57.4446C13.0318 57.4652 12.9116 57.536 12.8029 57.6257C12.7231 57.6916 12.6506 57.769 12.5823 57.8455C12.4012 58.0456 12.2349 58.253 12.0604 58.4563C11.8167 58.7379 11.6241 59.0317 11.5335 59.3931C11.4413 59.7611 11.4331 60.1422 11.4035 60.5184C11.3722 60.9226 11.3508 61.4733 10.9935 61.7409C10.8297 61.8635 10.5943 61.7499 10.5317 61.573C10.4971 61.4742 10.5021 61.3672 10.5062 61.2626C10.5367 60.5966 10.5556 59.929 10.6824 59.2721C10.8025 58.6531 11.094 58.0686 11.3714 57.5039C11.7838 56.6708 13.6212 53.8267 13.6212 53.8267C13.636 53.7978 14.4114 52.009 14.9317 50.8837C15.3235 50.0358 15.6553 49.3847 16.0249 48.5286C16.7493 46.8492 17.6976 44.7229 18.3134 43.0008C18.3644 42.8584 18.413 42.7184 18.4575 42.581C18.511 42.4204 18.5587 42.2632 18.604 42.1068C18.9909 40.788 19.1629 39.5919 19.4815 38.1497C19.8182 36.6276 20.1812 35.1146 20.5253 33.5941C21.0711 31.1772 22.0598 29.744 22.892 29.232C24.0453 28.524 25.2077 27.9568 26.4219 27.5321C26.524 27.4959 26.626 27.4613 26.7281 27.4275C27.1899 27.2752 27.66 27.1435 28.1391 27.0316C28.2239 27.0126 28.3095 26.9929 28.3951 26.9748C28.9425 26.8562 29.5031 26.7632 30.0818 26.6949C30.2917 26.671 30.4951 26.7854 30.6622 26.9608C30.8614 27.1674 31.012 27.458 31.0664 27.7C31.2491 28.5067 30.9717 29.1538 30.4934 29.6996Z" fill="#FFCFCA"/>
<path fill-rule="evenodd" clip-rule="evenodd" d="M33.7162 35.3722C32.5826 36.4728 31.049 37.1207 29.4792 37.3018C29.0149 37.3553 28.5415 37.3701 28.0838 37.2771C26.9091 37.0375 25.9584 36.0884 25.5064 34.9771C25.4916 34.9408 25.4776 34.9038 25.4636 34.8668C25.4332 34.7861 25.4052 34.7046 25.3796 34.6223C25.0561 33.6048 25.0718 32.4918 25.2611 31.4357C25.35 30.9368 25.476 30.447 25.6208 29.9613C25.8176 29.297 26.0489 28.6417 26.2662 27.9848C26.3164 27.8342 26.3667 27.6827 26.4218 27.5321C26.5239 27.4958 26.626 27.4613 26.728 27.4275C27.1899 27.2752 27.6599 27.1435 28.139 27.0316C28.1637 27.2406 28.2082 27.4448 28.2707 27.644C28.3374 27.8556 28.4255 28.0597 28.5333 28.2548C28.9103 28.934 29.5203 29.4929 30.2472 29.7728C30.2917 29.7901 30.3361 29.8066 30.3822 29.8214C30.4423 29.8411 30.504 29.8601 30.5666 29.8757C31.133 30.0239 31.7281 30.0173 32.3118 29.9802C33.4141 29.9119 34.5682 29.716 35.4194 29.0146C35.2942 29.7094 35.4671 30.4198 35.4943 31.1261C35.5552 32.7059 34.8514 34.2716 33.7162 35.3722Z" fill="#FCB9B4"/>
<path fill-rule="evenodd" clip-rule="evenodd" d="M37.316 27.7946C37.4403 29.0623 37.4428 30.3539 37.5786 31.6175C37.7786 33.4845 38.1845 35.3227 38.4652 37.1799C38.6249 38.2311 38.7105 39.3185 38.6998 40.401C38.6916 41.2316 38.6265 42.0581 38.4956 42.8624C34.7888 44.6726 30.4662 45.1863 26.4391 44.2964C26.025 44.205 25.6126 44.0988 25.2133 43.9531C24.6001 43.7292 24.0691 43.4082 23.4459 43.2122C23.4229 41.435 23.3998 39.6519 23.5003 37.8787C23.5595 36.8358 23.6608 35.7961 23.8304 34.7646C24.2733 32.0711 25.1286 30.1045 25.5155 27.4036C25.76 27.3533 26.1567 27.1665 26.4127 27.1179C26.8861 27.0282 27.3602 26.8866 27.8624 26.843C27.8435 27.5764 27.9694 28.3198 28.3201 28.961C28.7119 29.6756 29.41 30.2461 30.2176 30.3621C30.5954 30.4165 30.9807 30.372 31.3552 30.3004C32.0467 30.1679 32.739 29.9299 33.2634 29.4599C33.7474 29.0261 34.0512 28.4293 34.2891 27.8242C34.4496 27.4175 34.5212 27.2175 34.6307 26.7944C34.8999 26.8668 35.8252 27.1838 35.9701 27.2603C36.0713 27.3138 37.2164 27.7402 37.316 27.7946Z" fill="#150F84"/>
<path fill-rule="evenodd" clip-rule="evenodd" d="M38.6998 40.401C38.6916 41.2317 38.6265 42.0581 38.4956 42.8624C34.7888 44.6726 30.4662 45.1863 26.4391 44.2964C26.025 44.205 25.6126 44.0989 25.2133 43.9531C24.6001 43.7292 24.0691 43.4082 23.4459 43.2123C23.4229 41.435 23.3998 39.6519 23.5003 37.8788C23.8205 38.3299 24.1992 38.725 24.6824 38.9926C25.4241 39.4017 26.3115 39.4461 27.1569 39.3877C28.0015 39.3284 28.8445 39.1745 29.6899 39.2247C31.226 39.3144 32.6402 40.0644 34.1401 40.4101C34.8118 40.5649 35.5025 40.639 36.1923 40.6488C37.0336 40.6612 37.8758 40.5772 38.6998 40.401Z" fill="#150F84"/>
<path fill-rule="evenodd" clip-rule="evenodd" d="M19.5728 43.06C19.2575 42.8006 18.8649 42.6344 18.4574 42.5809C18.5101 42.4203 18.5587 42.2631 18.6039 42.1067C18.7488 42.1684 18.8855 42.245 19.0287 42.3446C19.2946 42.529 19.4666 42.757 19.5728 43.06Z" fill="#FCB9B4"/>
<path fill-rule="evenodd" clip-rule="evenodd" d="M46.2732 34.4863C45.967 34.1718 45.6253 33.7207 45.4121 33.3363C45.1495 32.8637 44.9067 32.3805 44.6836 31.8883C44.8556 32.0019 45.04 32.1212 45.2434 32.2496C45.4541 33.0564 45.7612 33.8351 46.2732 34.4863Z" fill="#FCB9B4"/>
</g>
<path fill-rule="evenodd" clip-rule="evenodd" d="M30.4035 3.7771C30.3467 3.7771 30.299 3.73183 30.2973 3.6742C30.2957 3.61493 30.3418 3.56637 30.4002 3.56472C30.5896 3.55896 30.7814 3.55649 30.9715 3.55566C31.03 3.55566 31.0777 3.60341 31.0777 3.66186C31.0777 3.7203 31.0308 3.76805 30.9715 3.76805C30.7838 3.76887 30.5937 3.77134 30.4068 3.7771H30.4035ZM32.1077 3.79852H32.102C31.9134 3.78782 31.7233 3.78041 31.5372 3.77547C31.4788 3.77382 31.4319 3.72525 31.4335 3.66681C31.4352 3.60754 31.4837 3.55897 31.543 3.56308C31.7315 3.56802 31.9233 3.57625 32.1135 3.58613C32.1719 3.58942 32.2164 3.63964 32.2139 3.69809C32.2106 3.75489 32.1637 3.79852 32.1077 3.79852ZM29.2692 3.84244C29.2149 3.84244 29.1688 3.80128 29.1638 3.74612C29.1589 3.68685 29.2025 3.63581 29.261 3.63087C29.4511 3.61441 29.6429 3.60042 29.8298 3.58971C29.8891 3.58642 29.9393 3.6317 29.9426 3.69014C29.9459 3.74859 29.9006 3.79881 29.8422 3.8021C29.6569 3.8128 29.4676 3.82597 29.2791 3.84244H29.2692ZM33.2395 3.89394L33.2271 3.89311C33.0419 3.87253 32.8526 3.8536 32.6649 3.83796C32.6064 3.83302 32.5636 3.78198 32.5678 3.72353C32.5727 3.66509 32.6246 3.6231 32.683 3.6264C32.8723 3.64204 33.0633 3.66097 33.251 3.68237C33.3095 3.68814 33.3514 3.74082 33.3449 3.79927C33.3391 3.8536 33.293 3.89394 33.2395 3.89394ZM28.1415 3.97211C28.0896 3.97211 28.0435 3.93342 28.0361 3.88073C28.0279 3.82311 28.0682 3.76878 28.1258 3.76055C28.3152 3.73338 28.5061 3.70869 28.6922 3.68728C28.7523 3.6807 28.8033 3.72268 28.8099 3.78113C28.8165 3.83957 28.7745 3.89144 28.7169 3.89802C28.5325 3.91943 28.344 3.94412 28.1563 3.97046L28.1415 3.97211ZM34.3639 4.05124L34.3458 4.04959C34.1623 4.01831 33.9737 3.9895 33.7877 3.96315C33.7301 3.95492 33.6897 3.90141 33.698 3.84297C33.7062 3.78534 33.7605 3.74501 33.8173 3.75324C34.0058 3.77958 34.196 3.80922 34.382 3.8405C34.4397 3.85038 34.4784 3.90553 34.4685 3.96315C34.4603 4.01502 34.415 4.05124 34.3639 4.05124ZM27.022 4.16566C26.9726 4.16566 26.9282 4.13108 26.9183 4.08087C26.9068 4.02324 26.9438 3.96727 27.0006 3.95574C27.1858 3.91787 27.3752 3.88248 27.562 3.85037C27.6205 3.84049 27.6748 3.87918 27.6847 3.93681C27.6954 3.99443 27.6559 4.04959 27.5982 4.05946C27.413 4.09157 27.2262 4.12697 27.0434 4.16401L27.022 4.16566ZM35.4778 4.27427C35.4704 4.27427 35.4622 4.27345 35.4539 4.2718C35.272 4.22982 35.086 4.18948 34.9024 4.15244C34.8448 4.14174 34.8069 4.08576 34.8184 4.02814C34.83 3.97051 34.8859 3.93265 34.9436 3.94417C35.1296 3.98204 35.3173 4.02237 35.5017 4.06436C35.5593 4.07753 35.5947 4.13433 35.5815 4.19195C35.57 4.24134 35.5264 4.27427 35.4778 4.27427ZM25.9154 4.42415C25.8685 4.42415 25.8256 4.39205 25.8133 4.34513C25.7977 4.28833 25.8314 4.22988 25.8882 4.21506C26.0718 4.16649 26.2586 4.12039 26.443 4.07759C26.4998 4.06442 26.5566 4.09981 26.5706 4.15661C26.5838 4.21424 26.5476 4.27104 26.4908 4.28421C26.3089 4.32702 26.1245 4.37229 25.9425 4.42004C25.9335 4.42251 25.9244 4.42415 25.9154 4.42415ZM36.5775 4.5608C36.5676 4.5608 36.5577 4.55915 36.5478 4.55668C36.3667 4.504 36.1832 4.45296 36.0029 4.40604C35.9461 4.39122 35.9123 4.3336 35.9272 4.2768C35.942 4.22 35.9996 4.18542 36.0564 4.20024C36.2383 4.24798 36.4235 4.29902 36.6071 4.35253C36.6631 4.36899 36.6952 4.42744 36.6796 4.48424C36.6656 4.53034 36.6236 4.5608 36.5775 4.5608ZM24.8256 4.74515C24.7811 4.74515 24.7399 4.71634 24.7251 4.67189C24.707 4.61591 24.7375 4.55582 24.7935 4.53771C24.9737 4.47844 25.1573 4.42164 25.3384 4.36813C25.3944 4.35167 25.4537 4.38377 25.4701 4.44057C25.4866 4.49655 25.4545 4.55582 25.3985 4.57228C25.219 4.62497 25.0371 4.68094 24.8593 4.73939C24.8478 4.74268 24.8371 4.74515 24.8256 4.74515ZM37.6601 4.91071C37.6486 4.91071 37.6362 4.90906 37.6247 4.90412C37.4485 4.84156 37.2683 4.78064 37.088 4.72219C37.032 4.70408 37.0015 4.64481 37.0197 4.58884C37.0369 4.53286 37.097 4.5024 37.153 4.52051C37.3358 4.57896 37.5177 4.64152 37.6955 4.70408C37.7507 4.72384 37.7795 4.78476 37.7605 4.83991C37.7449 4.88354 37.7037 4.91071 37.6601 4.91071ZM23.7562 5.12785C23.7142 5.12785 23.6739 5.10233 23.6574 5.06034C23.636 5.00601 23.6632 4.94427 23.7175 4.92287C23.8945 4.85372 24.0748 4.78622 24.2526 4.72201C24.3077 4.70225 24.3686 4.73106 24.3884 4.78622C24.4081 4.84137 24.3793 4.90229 24.3242 4.92205C24.148 4.98543 23.9702 5.05211 23.7949 5.12044C23.7825 5.12538 23.7693 5.12785 23.7562 5.12785ZM38.722 5.32223C38.7089 5.32223 38.6949 5.31976 38.6809 5.314C38.5072 5.24073 38.3302 5.16911 38.1557 5.10161C38.1013 5.08021 38.0742 5.01929 38.0956 4.96414C38.1161 4.90981 38.1779 4.88264 38.233 4.90322C38.4092 4.97237 38.5878 5.04399 38.7632 5.1189C38.8175 5.14112 38.843 5.20369 38.82 5.25802C38.8027 5.29835 38.764 5.32223 38.722 5.32223ZM22.7142 5.57083C22.6747 5.57083 22.636 5.54778 22.6179 5.50827C22.5932 5.45558 22.6171 5.3922 22.6706 5.3675C22.8426 5.28847 23.018 5.21109 23.1908 5.13783C23.2452 5.11478 23.3077 5.1403 23.33 5.1938C23.353 5.24814 23.3283 5.3107 23.274 5.33292C23.1028 5.40619 22.9291 5.48275 22.7587 5.56095C22.7447 5.56754 22.729 5.57083 22.7142 5.57083ZM39.7584 5.79476C39.7428 5.79476 39.7263 5.79147 39.7115 5.78406C39.5419 5.70092 39.3698 5.61942 39.1994 5.54204C39.1459 5.51734 39.1229 5.45478 39.1468 5.40127C39.1715 5.34776 39.2348 5.32471 39.2875 5.34859C39.4596 5.42679 39.6341 5.50911 39.8053 5.59308C39.858 5.61942 39.8794 5.6828 39.8539 5.73549C39.8349 5.77336 39.7971 5.79476 39.7584 5.79476ZM21.6983 6.07208C21.6605 6.07208 21.6234 6.0515 21.6045 6.01528C21.5773 5.96342 21.5971 5.89921 21.6489 5.87204C21.8169 5.78314 21.9873 5.69588 22.156 5.61274C22.2087 5.58639 22.2721 5.6078 22.2985 5.66048C22.324 5.71317 22.3026 5.77738 22.2499 5.80289C22.0836 5.88521 21.9148 5.97165 21.7486 6.05973C21.7321 6.06796 21.7156 6.07208 21.6983 6.07208ZM40.7653 6.32572C40.7472 6.32572 40.7299 6.3216 40.7134 6.31255C40.5496 6.21952 40.3825 6.12815 40.2162 6.04089C40.1643 6.01373 40.1446 5.94952 40.1717 5.89765C40.1989 5.84579 40.2631 5.82604 40.315 5.8532C40.4829 5.94128 40.6517 6.03348 40.8171 6.12733C40.8682 6.15614 40.8863 6.22035 40.8575 6.27139C40.8377 6.30596 40.8023 6.32572 40.7653 6.32572ZM20.7121 6.63097C20.6767 6.63097 20.6413 6.61286 20.6215 6.57993C20.5911 6.52971 20.6075 6.46468 20.6569 6.43422C20.8191 6.33626 20.9846 6.23912 21.1492 6.1461C21.2002 6.11729 21.2644 6.13458 21.2941 6.18562C21.3229 6.23665 21.3048 6.30169 21.2537 6.3305C21.0908 6.4227 20.9269 6.51901 20.7672 6.61615C20.75 6.62603 20.731 6.63097 20.7121 6.63097ZM41.739 6.9134C41.7192 6.9134 41.6994 6.90764 41.6822 6.89611C41.5233 6.79404 41.3611 6.69361 41.2014 6.59729C41.1512 6.56683 41.1355 6.5018 41.166 6.45159C41.1956 6.40137 41.2615 6.38491 41.3117 6.41536C41.4731 6.5125 41.6361 6.61458 41.7966 6.71748C41.846 6.74958 41.8608 6.81462 41.8287 6.86401C41.8081 6.89611 41.7744 6.9134 41.739 6.9134ZM19.7597 7.24614C19.7251 7.24614 19.6922 7.22967 19.6716 7.20004C19.6387 7.15147 19.651 7.08561 19.6988 7.05269C19.8552 6.94485 20.0149 6.83866 20.1738 6.73658C20.2231 6.70447 20.289 6.71847 20.3211 6.76786C20.3524 6.81725 20.3384 6.88311 20.289 6.91521C20.1318 7.01647 19.9737 7.12184 19.819 7.2272C19.8008 7.24038 19.7803 7.24614 19.7597 7.24614ZM42.6783 7.55479C42.6569 7.55479 42.6347 7.54821 42.6157 7.53504C42.4651 7.42473 42.3095 7.31524 42.1539 7.20905C42.1053 7.17612 42.093 7.10944 42.1259 7.0617C42.1589 7.01313 42.2255 7.00078 42.2733 7.03371C42.4313 7.14155 42.5886 7.25186 42.7409 7.36299C42.7878 7.39756 42.7985 7.46424 42.7639 7.51116C42.7433 7.53997 42.7112 7.55479 42.6783 7.55479ZM18.8426 7.91445C18.8105 7.91445 18.7793 7.90046 18.7579 7.87329C18.7225 7.82637 18.7307 7.75969 18.7776 7.72429C18.9274 7.60822 19.0805 7.49297 19.2337 7.38184C19.2806 7.34727 19.3473 7.35715 19.3818 7.40489C19.4164 7.45181 19.4057 7.51849 19.3588 7.55307C19.2073 7.66338 19.0558 7.77698 18.9068 7.89222C18.8879 7.90704 18.8649 7.91445 18.8426 7.91445ZM43.5789 8.24854C43.555 8.24854 43.5311 8.24113 43.5114 8.22466C43.3657 8.10612 43.2167 7.98758 43.0685 7.87316C43.0224 7.83776 43.0133 7.77108 43.0496 7.72416C43.085 7.67806 43.1516 7.66901 43.1986 7.70523C43.3484 7.82047 43.499 7.93984 43.6455 8.06002C43.6908 8.09707 43.6982 8.16457 43.6604 8.20985C43.6398 8.23537 43.6093 8.24854 43.5789 8.24854ZM17.9643 8.63404C17.9347 8.63404 17.905 8.62169 17.8844 8.597C17.8457 8.55337 17.8507 8.48587 17.8943 8.44718C18.0384 8.32287 18.1849 8.19939 18.3306 8.07921C18.3767 8.04216 18.4434 8.04875 18.4804 8.09402C18.5175 8.14012 18.5109 8.2068 18.4656 8.24385C18.3207 8.36239 18.1759 8.48422 18.0343 8.6077C18.0137 8.62499 17.989 8.63404 17.9643 8.63404ZM44.4383 8.99282C44.4119 8.99282 44.3864 8.98294 44.3658 8.96483C44.2284 8.83888 44.0868 8.71211 43.9444 8.58863C43.8999 8.55076 43.895 8.48326 43.9337 8.43881C43.9715 8.39436 44.039 8.38942 44.0835 8.42811C44.2276 8.55323 44.3708 8.68083 44.5099 8.80843C44.5527 8.84794 44.556 8.91462 44.5165 8.95825C44.4951 8.9813 44.4663 8.99282 44.4383 8.99282ZM17.1286 9.40198C17.1006 9.40198 17.0726 9.39127 17.0521 9.36987C17.0109 9.32789 17.0125 9.26121 17.0537 9.22005C17.1895 9.08834 17.3287 8.9558 17.4686 8.82738C17.5122 8.78787 17.5789 8.79034 17.6192 8.83397C17.6588 8.87678 17.6555 8.94428 17.6127 8.98379C17.4744 9.11139 17.3361 9.24145 17.2019 9.37234C17.1813 9.3921 17.155 9.40198 17.1286 9.40198ZM45.2533 9.78411C45.2253 9.78411 45.1981 9.77341 45.1775 9.75201C45.045 9.61618 44.9108 9.482 44.7775 9.35276C44.7355 9.31159 44.7338 9.24492 44.775 9.20211C44.8161 9.16013 44.8828 9.1593 44.9248 9.20046C45.0598 9.33053 45.1956 9.46636 45.329 9.60383C45.3702 9.64581 45.3693 9.71249 45.3273 9.75365C45.3068 9.77341 45.2804 9.78411 45.2533 9.78411ZM16.3368 10.217C16.3113 10.217 16.2857 10.2079 16.2652 10.189C16.2215 10.1494 16.2191 10.0828 16.2586 10.0391C16.387 9.8992 16.5187 9.75925 16.6504 9.62425C16.6916 9.58227 16.7591 9.58062 16.8011 9.62178C16.843 9.66294 16.8439 9.72962 16.8027 9.7716C16.6726 9.90578 16.5426 10.0441 16.415 10.1824C16.3944 10.2054 16.3656 10.217 16.3368 10.217ZM46.0222 10.6194C45.9926 10.6194 45.9629 10.6071 45.9423 10.5824C45.8189 10.4416 45.6921 10.2992 45.5653 10.1617C45.5258 10.1189 45.5291 10.0514 45.5719 10.0119C45.6147 9.97239 45.6822 9.97486 45.7217 10.0177C45.8501 10.1576 45.9786 10.3008 46.102 10.4433C46.1407 10.4877 46.1358 10.5544 46.0922 10.5931C46.0716 10.6104 46.0469 10.6194 46.0222 10.6194ZM15.5926 11.0765C15.5688 11.0765 15.5449 11.0683 15.526 11.0526C15.4799 11.0147 15.4733 10.9481 15.5103 10.9028C15.6297 10.7571 15.7532 10.6097 15.8783 10.4657C15.917 10.4212 15.9837 10.4163 16.0281 10.455C16.0726 10.4937 16.0775 10.5603 16.0388 10.6048C15.9153 10.7472 15.7927 10.8929 15.675 11.037C15.6544 11.0633 15.6231 11.0765 15.5926 11.0765ZM46.7425 11.497C46.7104 11.497 46.6791 11.483 46.6577 11.4559C46.5449 11.3093 46.4264 11.1603 46.3062 11.0146C46.2691 10.9685 46.2757 10.9018 46.321 10.8648C46.3663 10.8278 46.433 10.8343 46.4708 10.8796C46.5918 11.027 46.7112 11.1776 46.8256 11.3258C46.8618 11.3719 46.8536 11.4386 46.8067 11.4748C46.7878 11.4896 46.7647 11.497 46.7425 11.497ZM14.8988 11.9762C14.8765 11.9762 14.8551 11.9697 14.8362 11.9557C14.7885 11.9211 14.7778 11.8552 14.8123 11.8075C14.9243 11.6535 15.0395 11.4996 15.1548 11.3506C15.191 11.3037 15.2577 11.2955 15.3038 11.3309C15.3507 11.3671 15.3589 11.4338 15.3235 11.4799C15.2091 11.628 15.0947 11.7803 14.9844 11.9326C14.9638 11.9614 14.9309 11.9762 14.8988 11.9762ZM47.4109 12.4133C47.3772 12.4133 47.3442 12.3976 47.3228 12.368C47.2175 12.2132 47.108 12.0585 46.9968 11.907C46.9623 11.8593 46.973 11.7934 47.0207 11.7588C47.0676 11.7243 47.1343 11.7341 47.1689 11.7819C47.2808 11.935 47.3912 12.0914 47.4982 12.247C47.5319 12.2956 47.5196 12.3614 47.471 12.3952C47.4529 12.4075 47.4315 12.4133 47.4109 12.4133ZM14.2556 12.9146C14.2359 12.9146 14.2161 12.9088 14.1988 12.8981C14.1494 12.866 14.1346 12.8001 14.1667 12.7508C14.2696 12.5911 14.3758 12.4305 14.4828 12.2749C14.5158 12.2264 14.5816 12.214 14.6302 12.247C14.6787 12.2799 14.6911 12.3466 14.6582 12.3943C14.552 12.5491 14.4474 12.7071 14.3454 12.866C14.3248 12.8973 14.291 12.9146 14.2556 12.9146ZM48.0257 13.3667C47.9903 13.3667 47.9549 13.3486 47.9352 13.3156C47.838 13.1551 47.7368 12.9938 47.6355 12.8373C47.6043 12.788 47.6183 12.7221 47.6676 12.6908C47.717 12.6587 47.7829 12.6727 47.8142 12.7221C47.9163 12.881 48.0183 13.0431 48.1171 13.2053C48.1467 13.2555 48.1311 13.3206 48.0809 13.351C48.0636 13.3617 48.0447 13.3667 48.0257 13.3667ZM13.6679 13.8885C13.6506 13.8885 13.6325 13.8844 13.616 13.8753C13.565 13.8465 13.5469 13.7815 13.5757 13.7304C13.6695 13.565 13.7667 13.3987 13.8638 13.2365C13.8943 13.1863 13.9593 13.1698 14.0103 13.2003C14.0605 13.2307 14.0762 13.2958 14.0457 13.346C13.9494 13.5065 13.8531 13.6712 13.7609 13.835C13.7411 13.8695 13.7049 13.8885 13.6679 13.8885ZM48.5854 14.3527C48.5475 14.3527 48.5105 14.3321 48.4915 14.2959C48.4035 14.1296 48.3121 13.9633 48.2207 13.8019C48.1911 13.7509 48.2092 13.6859 48.2602 13.6571C48.3113 13.6283 48.3763 13.6455 48.4051 13.6966C48.4981 13.8604 48.5903 14.0283 48.6792 14.1963C48.7064 14.2481 48.6866 14.3123 48.6356 14.3395C48.6191 14.3486 48.6027 14.3527 48.5854 14.3527ZM13.1371 14.8952C13.1214 14.8952 13.105 14.8919 13.0902 14.8845C13.0375 14.8581 13.0161 14.7948 13.0416 14.7421C13.1256 14.5717 13.2128 14.3996 13.3017 14.2325C13.3289 14.1807 13.3931 14.1609 13.445 14.1881C13.4968 14.2152 13.5166 14.2794 13.4894 14.3313C13.4022 14.4968 13.3157 14.6672 13.2326 14.8359C13.2136 14.8738 13.1758 14.8952 13.1371 14.8952ZM49.0877 15.3678C49.0473 15.3678 49.0095 15.3447 48.9914 15.306C48.9132 15.1373 48.8317 14.9661 48.7485 14.7973C48.723 14.7446 48.7444 14.6812 48.7971 14.6557C48.8489 14.6294 48.9132 14.6508 48.9395 14.7035C49.0235 14.873 49.1058 15.0467 49.184 15.2171C49.2087 15.2706 49.1856 15.334 49.1321 15.3587C49.1173 15.3653 49.1025 15.3678 49.0877 15.3678ZM12.6638 15.9308C12.6506 15.9308 12.6366 15.9284 12.6226 15.9226C12.5691 15.8996 12.5436 15.8378 12.5666 15.7835C12.6399 15.6082 12.7181 15.432 12.7963 15.2591C12.821 15.2064 12.8835 15.1826 12.9371 15.2073C12.9906 15.2311 13.0144 15.2945 12.9897 15.3472C12.9115 15.5184 12.835 15.6929 12.7617 15.8658C12.7453 15.907 12.7057 15.9308 12.6638 15.9308ZM49.5306 16.4098C49.4887 16.4098 49.4483 16.3843 49.4319 16.3423C49.3643 16.1694 49.2927 15.9941 49.2186 15.8212C49.1964 15.7669 49.2211 15.7052 49.2754 15.6821C49.3298 15.6591 49.3915 15.6846 49.4146 15.7381C49.4887 15.9134 49.5611 16.0904 49.6294 16.2649C49.6508 16.3201 49.6237 16.381 49.5693 16.4024C49.557 16.4073 49.5438 16.4098 49.5306 16.4098ZM12.2512 16.9927C12.2397 16.9927 12.2273 16.9911 12.2158 16.9869C12.1607 16.9672 12.1318 16.9063 12.1516 16.8511C12.215 16.6725 12.2825 16.4914 12.3508 16.3144C12.3722 16.2601 12.434 16.2329 12.4883 16.2535C12.5434 16.2749 12.5706 16.3366 12.5492 16.3909C12.4809 16.5671 12.4142 16.7457 12.3516 16.9227C12.336 16.9664 12.2948 16.9927 12.2512 16.9927ZM49.9141 17.4793C49.8696 17.4793 49.8276 17.4513 49.8128 17.406C49.7552 17.2282 49.6935 17.0487 49.6301 16.8717C49.6103 16.8166 49.6391 16.7557 49.6943 16.7359C49.7494 16.7162 49.8104 16.745 49.8301 16.8001C49.8943 16.9788 49.9569 17.1607 50.0153 17.3401C50.0334 17.3961 50.003 17.4562 49.947 17.4743C49.9363 17.4776 49.9248 17.4793 49.9141 17.4793ZM11.9014 18.076C11.8915 18.076 11.8816 18.0744 11.8718 18.0711C11.815 18.0546 11.7828 17.9962 11.7993 17.9394C11.852 17.7583 11.9088 17.5747 11.9672 17.3936C11.9854 17.3384 12.0446 17.308 12.1006 17.3253C12.1566 17.3434 12.187 17.4035 12.1689 17.4594C12.1113 17.6389 12.0553 17.82 12.0026 17.9995C11.9895 18.0456 11.9475 18.076 11.9014 18.076ZM50.2361 18.5691C50.1892 18.5691 50.1455 18.5378 50.1332 18.4901C50.0855 18.3081 50.0344 18.1254 49.9809 17.9459C49.9644 17.8891 49.9966 17.8307 50.0534 17.8134C50.1093 17.7969 50.1686 17.829 50.1851 17.8858C50.2386 18.0669 50.2904 18.2522 50.3382 18.4357C50.3538 18.4925 50.3201 18.5502 50.2633 18.565C50.2542 18.5675 50.2452 18.5691 50.2361 18.5691ZM11.614 19.1751C11.6066 19.1751 11.5984 19.1743 11.5902 19.1726C11.5334 19.1586 11.4971 19.1018 11.5103 19.045C11.5531 18.8606 11.5992 18.6746 11.647 18.4902C11.6618 18.4334 11.7194 18.3996 11.7762 18.4145C11.833 18.4293 11.8668 18.4869 11.8519 18.5437C11.805 18.7265 11.7597 18.9108 11.7178 19.0928C11.7062 19.1413 11.6626 19.1751 11.614 19.1751ZM50.4937 19.6747C50.4444 19.6747 50.3999 19.6401 50.39 19.5899C50.353 19.4072 50.3126 19.2219 50.2698 19.0384C50.2558 18.9807 50.2912 18.9239 50.3489 18.9108C50.4065 18.8976 50.4633 18.933 50.4765 18.9898C50.5201 19.175 50.5604 19.3627 50.5983 19.5479C50.6098 19.6056 50.5728 19.6615 50.5151 19.6731L50.4937 19.6747ZM11.3911 20.2888L11.373 20.2872C11.3153 20.2773 11.2767 20.2222 11.2865 20.1645C11.3178 19.9777 11.3532 19.7892 11.3903 19.6031C11.4018 19.5455 11.4578 19.5085 11.5154 19.52C11.573 19.5315 11.6101 19.5875 11.5985 19.6451C11.5623 19.8287 11.5269 20.0155 11.4956 20.2008C11.4866 20.2518 11.4421 20.2888 11.3911 20.2888ZM50.6888 20.7942C50.6369 20.7942 50.5908 20.7563 50.5834 20.7028C50.5571 20.5168 50.5266 20.3291 50.4945 20.1455C50.4846 20.0871 50.5233 20.0327 50.581 20.022C50.6386 20.0122 50.6937 20.0509 50.7044 20.1085C50.7365 20.2953 50.767 20.4847 50.7942 20.6732C50.8024 20.7308 50.7621 20.7852 50.7036 20.7934L50.6888 20.7942ZM11.232 21.4135L11.2197 21.4126C11.1612 21.406 11.1193 21.3534 11.1258 21.2957C11.1472 21.1072 11.1711 20.9171 11.1983 20.7294C11.2065 20.6709 11.2608 20.6314 11.3176 20.6388C11.3761 20.6471 11.4164 20.7006 11.4082 20.759C11.3819 20.9442 11.358 21.1327 11.3374 21.3188C11.3308 21.3731 11.2847 21.4135 11.232 21.4135ZM50.8188 21.9227C50.7645 21.9227 50.7176 21.8807 50.7126 21.8256C50.697 21.6379 50.6772 21.4494 50.6567 21.2633C50.6493 21.2049 50.6912 21.1522 50.7497 21.1456C50.8081 21.139 50.8608 21.181 50.8674 21.2395C50.8888 21.4263 50.9086 21.6173 50.9242 21.8075C50.93 21.8659 50.8863 21.917 50.8279 21.9219L50.8188 21.9227ZM11.1371 22.5453H11.1313C11.0728 22.542 11.0276 22.4918 11.0309 22.4333C11.0416 22.2448 11.0547 22.053 11.0712 21.8637C11.0753 21.8052 11.1272 21.7633 11.1856 21.7665C11.2441 21.7715 11.2877 21.8233 11.2828 21.8818C11.2671 22.0687 11.2539 22.258 11.2432 22.4449C11.24 22.5017 11.193 22.5453 11.1371 22.5453ZM50.8847 23.0571C50.8271 23.0571 50.7802 23.011 50.7785 22.9534C50.7728 22.7674 50.7645 22.5772 50.7538 22.3887C50.7505 22.3311 50.795 22.28 50.8534 22.2767C50.9111 22.2718 50.9621 22.3179 50.9654 22.3772C50.9769 22.5673 50.9852 22.7591 50.9909 22.9476C50.9926 23.0061 50.9465 23.0547 50.888 23.0563L50.8847 23.0571ZM11.1062 23.6812C11.0477 23.6812 11 23.6335 11 23.575V23.5561C11 23.3725 11.0025 23.1865 11.0074 23.0037C11.0091 22.9453 11.0593 22.8967 11.1161 22.9008C11.1753 22.9025 11.2214 22.951 11.2198 23.0095C11.2149 23.1906 11.2124 23.3742 11.2124 23.5561V23.575C11.2124 23.6335 11.1646 23.6812 11.1062 23.6812ZM50.8856 24.2302H50.8831C50.8247 24.2286 50.7778 24.1792 50.7794 24.1207C50.7852 23.9322 50.7877 23.7421 50.7877 23.556V23.5182C50.7877 23.4597 50.8354 23.412 50.8938 23.412C50.9523 23.412 51 23.4597 51 23.5182V23.556C51 23.7445 50.9976 23.9363 50.9918 24.1265C50.9902 24.1841 50.9432 24.2302 50.8856 24.2302ZM11.1393 24.8163C11.0833 24.8163 11.0364 24.7727 11.0331 24.7159C11.0224 24.5266 11.0142 24.3348 11.0084 24.1454C11.0068 24.087 11.0529 24.0384 11.1121 24.0368H11.1146C11.1722 24.0368 11.2192 24.082 11.2208 24.1397C11.2266 24.3265 11.2348 24.5167 11.2455 24.7044C11.2488 24.7628 11.2035 24.813 11.1451 24.8163H11.1393ZM50.8222 25.364H50.8131C50.7547 25.3591 50.711 25.308 50.716 25.2496C50.7324 25.0611 50.7456 24.8717 50.7555 24.6857C50.7596 24.6272 50.8107 24.5844 50.8683 24.5853C50.9267 24.5885 50.9712 24.6388 50.9679 24.6972C50.9572 24.8857 50.944 25.0775 50.9275 25.2669C50.9234 25.3228 50.8765 25.364 50.8222 25.364ZM11.237 25.9482C11.1835 25.9482 11.1374 25.9079 11.1308 25.8535C11.1094 25.665 11.0905 25.4732 11.0748 25.2855C11.0691 25.2271 11.1127 25.176 11.1712 25.1711C11.2296 25.1653 11.2815 25.209 11.2864 25.2674C11.3021 25.4534 11.321 25.6428 11.3424 25.8296C11.349 25.8881 11.307 25.9408 11.2485 25.9474L11.237 25.9482ZM50.6937 26.4923L50.6789 26.4915C50.6213 26.4833 50.5809 26.4298 50.5883 26.3713C50.6155 26.1853 50.6394 25.9968 50.6608 25.8115C50.6674 25.7531 50.72 25.7103 50.7777 25.7177C50.8361 25.7243 50.8781 25.777 50.8715 25.8354C50.8501 26.0223 50.8254 26.2133 50.7991 26.4018C50.7917 26.4545 50.7464 26.4923 50.6937 26.4923ZM11.3966 27.0728C11.3464 27.0728 11.3011 27.0366 11.2921 26.9848C11.26 26.7971 11.2303 26.6069 11.2032 26.4209C11.1949 26.3624 11.2353 26.3089 11.2937 26.3007C11.3513 26.2925 11.4048 26.332 11.4139 26.3904C11.4402 26.5748 11.4699 26.7625 11.502 26.9485C11.5119 27.0062 11.4732 27.0613 11.4147 27.0712L11.3966 27.0728ZM50.502 27.6121L50.4806 27.6105C50.4229 27.5989 50.3859 27.543 50.3974 27.4853C50.4345 27.3018 50.469 27.1149 50.5012 26.9297C50.511 26.872 50.5662 26.8334 50.6238 26.8432C50.6814 26.8531 50.7201 26.9083 50.7102 26.9659C50.6781 27.1528 50.6427 27.3421 50.6057 27.5273C50.5958 27.5775 50.5514 27.6121 50.502 27.6121ZM11.6222 28.1859C11.5745 28.1859 11.5309 28.153 11.5193 28.1036C11.4765 27.9192 11.4354 27.7315 11.3975 27.5463C11.386 27.4887 11.423 27.4327 11.4807 27.4212C11.5383 27.4096 11.5943 27.4467 11.6058 27.5035C11.6428 27.6871 11.6832 27.8731 11.726 28.0559C11.7391 28.1127 11.7037 28.1703 11.6469 28.1834C11.6387 28.1851 11.6305 28.1859 11.6222 28.1859ZM50.245 28.7192C50.2367 28.7192 50.2277 28.7175 50.2186 28.7159C50.1618 28.7011 50.1272 28.6426 50.1421 28.5858C50.1898 28.4055 50.2351 28.2203 50.2779 28.0376C50.2911 27.98 50.3479 27.9446 50.4055 27.9577C50.4623 27.9709 50.4977 28.0285 50.4845 28.0853C50.4417 28.2705 50.3956 28.4566 50.3479 28.6393C50.3355 28.6871 50.2927 28.7192 50.245 28.7192ZM11.9114 29.2848C11.8661 29.2848 11.8233 29.2543 11.8101 29.2082C11.7566 29.0263 11.7047 28.8411 11.657 28.6583C11.6422 28.6015 11.6759 28.5431 11.7327 28.5283C11.7895 28.5134 11.8471 28.5472 11.862 28.604C11.9097 28.7851 11.9607 28.9678 12.0134 29.1481C12.0299 29.2049 11.9978 29.2634 11.9418 29.2807C11.9319 29.2831 11.9221 29.2848 11.9114 29.2848ZM49.9258 29.809C49.9151 29.809 49.9044 29.8073 49.8928 29.804C49.8377 29.7859 49.8064 29.7258 49.8245 29.6699C49.883 29.492 49.9389 29.3109 49.9916 29.1307C50.0081 29.0739 50.0673 29.0418 50.1233 29.0582C50.1793 29.0747 50.2122 29.134 50.1958 29.1899C50.1423 29.3727 50.0855 29.5563 50.027 29.7357C50.0122 29.781 49.971 29.809 49.9258 29.809ZM12.2636 30.3648C12.22 30.3648 12.1788 30.3376 12.1632 30.294C12.099 30.1145 12.0372 29.9334 11.9788 29.7539C11.9607 29.698 11.9911 29.6379 12.0471 29.6198C12.1023 29.6017 12.1624 29.6321 12.1805 29.6881C12.2389 29.8651 12.2998 30.0454 12.3632 30.2232C12.383 30.2783 12.3542 30.3384 12.299 30.3582C12.2875 30.3631 12.2751 30.3648 12.2636 30.3648ZM49.5428 30.8826C49.5296 30.8826 49.5173 30.8801 49.5041 30.8752C49.4498 30.8546 49.4226 30.7929 49.444 30.7377C49.5123 30.5615 49.579 30.3829 49.6416 30.2067C49.6613 30.1516 49.7223 30.1228 49.7774 30.1425C49.8326 30.1623 49.8614 30.2232 49.8416 30.2784C49.7782 30.4562 49.7107 30.6373 49.6416 30.8151C49.6251 30.8571 49.5856 30.8826 49.5428 30.8826ZM12.676 31.4208C12.6349 31.4208 12.5953 31.397 12.5781 31.3566C12.5048 31.1829 12.4323 31.0051 12.3632 30.829C12.3426 30.7746 12.369 30.7129 12.4241 30.6915C12.4784 30.6701 12.5402 30.6973 12.5616 30.7516C12.6291 30.9261 12.7007 31.1014 12.774 31.2735C12.797 31.3278 12.7715 31.3896 12.7172 31.4126C12.704 31.4184 12.69 31.4208 12.676 31.4208ZM49.0992 31.9313C49.0844 31.9313 49.0687 31.9289 49.0547 31.9223C49.0012 31.8976 48.9782 31.8342 49.0021 31.7815C49.0811 31.6095 49.1576 31.435 49.2309 31.2629C49.2531 31.2086 49.3157 31.1839 49.37 31.2061C49.4235 31.2292 49.4491 31.2917 49.426 31.3452C49.3527 31.5197 49.2745 31.6959 49.1955 31.8696C49.1774 31.9083 49.1395 31.9313 49.0992 31.9313ZM13.1476 32.4508C13.1089 32.4508 13.071 32.4294 13.0521 32.3916C12.969 32.2228 12.8867 32.0499 12.8076 31.8771C12.7829 31.8244 12.8068 31.761 12.8603 31.7363C12.913 31.7124 12.9764 31.7355 13.0011 31.789C13.0793 31.9594 13.1608 32.1306 13.2431 32.2977C13.2686 32.3504 13.2472 32.4138 13.1945 32.4401C13.1797 32.4475 13.1632 32.4508 13.1476 32.4508ZM48.5955 32.9528C48.579 32.9528 48.5617 32.9487 48.5461 32.9405C48.4942 32.9125 48.4745 32.8483 48.5016 32.7964C48.5897 32.6301 48.677 32.4606 48.7593 32.2926C48.7856 32.24 48.849 32.2185 48.9017 32.2441C48.9544 32.2704 48.9758 32.3338 48.9503 32.3865C48.8663 32.5561 48.779 32.7273 48.6893 32.896C48.6704 32.9323 48.6333 32.9528 48.5955 32.9528ZM13.6778 33.4526C13.6408 33.4526 13.6045 33.4328 13.5856 33.3982C13.4918 33.2336 13.4004 33.0657 13.3115 32.8985C13.2843 32.8467 13.3041 32.7825 13.3559 32.7553C13.4078 32.7281 13.472 32.7479 13.4992 32.7998C13.5864 32.9644 13.6778 33.1307 13.77 33.2937C13.7988 33.3447 13.7815 33.4097 13.7297 33.4386C13.7132 33.4476 13.6959 33.4526 13.6778 33.4526ZM48.0349 33.9423C48.016 33.9423 47.997 33.9382 47.9797 33.9275C47.9295 33.897 47.9139 33.832 47.9443 33.7818C48.0415 33.6213 48.1378 33.4566 48.23 33.2928C48.2588 33.2426 48.3238 33.2245 48.3749 33.2533C48.4259 33.2821 48.444 33.3472 48.4152 33.3982C48.3214 33.5637 48.2242 33.7291 48.1255 33.8913C48.1057 33.9242 48.0711 33.9423 48.0349 33.9423ZM14.2649 34.4231C14.2303 34.4231 14.1957 34.4058 14.1752 34.3737C14.0731 34.2148 13.9718 34.0526 13.8739 33.8905C13.8434 33.8403 13.8591 33.7752 13.9093 33.7448C13.9595 33.7143 14.0245 33.7308 14.055 33.781C14.1521 33.9407 14.2525 34.102 14.3538 34.2593C14.3859 34.3087 14.3719 34.3737 14.3225 34.4058C14.3044 34.4173 14.2847 34.4231 14.2649 34.4231ZM47.4191 34.8991C47.3977 34.8991 47.3771 34.8925 47.359 34.8801C47.3104 34.8472 47.2981 34.7813 47.331 34.7328C47.4372 34.578 47.5426 34.4191 47.6446 34.2619C47.6759 34.2125 47.7418 34.1985 47.7912 34.2298C47.8406 34.2619 47.8546 34.3278 47.8233 34.3763C47.7204 34.536 47.6134 34.6965 47.5063 34.853C47.4858 34.8826 47.4528 34.8991 47.4191 34.8991ZM14.9061 35.3582C14.8732 35.3582 14.8411 35.3434 14.8197 35.3146C14.7094 35.1631 14.5982 35.0059 14.4912 34.8487C14.4575 34.8009 14.4698 34.7342 14.5184 34.7013C14.567 34.6684 14.6328 34.6807 14.6666 34.7293C14.7728 34.8841 14.8822 35.0397 14.9917 35.1895C15.0263 35.2372 15.0156 35.3039 14.9687 35.3385C14.9497 35.3516 14.9275 35.3582 14.9061 35.3582ZM46.749 35.8176C46.7268 35.8176 46.7037 35.8102 46.6848 35.7954C46.6379 35.76 46.6296 35.6933 46.665 35.6464C46.7794 35.4991 46.8939 35.3468 47.005 35.1945C47.0396 35.1467 47.1054 35.1368 47.1532 35.1714C47.2001 35.206 47.2108 35.2719 47.1762 35.3196C47.0643 35.4735 46.949 35.6275 46.8329 35.7765C46.8124 35.8036 46.7811 35.8176 46.749 35.8176ZM15.6 36.2563C15.5688 36.2563 15.5383 36.2431 15.5177 36.2176C15.3967 36.0702 15.2774 35.9204 15.1621 35.7714C15.1267 35.7245 15.1349 35.6578 15.1819 35.6224C15.228 35.5862 15.2946 35.5944 15.3309 35.6413C15.4445 35.7887 15.5622 35.9377 15.6815 36.0834C15.7194 36.1287 15.712 36.1954 15.6667 36.2324C15.647 36.2489 15.6231 36.2563 15.6 36.2563ZM46.0288 36.6967C46.0041 36.6967 45.9794 36.6885 45.9597 36.6712C45.9152 36.6325 45.9103 36.565 45.949 36.5214C46.0716 36.379 46.1943 36.2341 46.3137 36.0892C46.3507 36.0439 46.4174 36.0365 46.4627 36.0744C46.5079 36.1115 46.5145 36.1781 46.4775 36.2234C46.3573 36.3699 46.2338 36.5173 46.1095 36.6605C46.0881 36.6844 46.0585 36.6967 46.0288 36.6967ZM16.3434 37.1141C16.3146 37.1141 16.2866 37.1026 16.2652 37.0804C16.1376 36.9413 16.01 36.798 15.8857 36.654C15.847 36.6095 15.8519 36.5428 15.8956 36.5041C15.94 36.4663 16.0075 36.4704 16.0454 36.5148C16.1689 36.6573 16.2956 36.7988 16.4216 36.9363C16.4611 36.9799 16.4586 37.0466 16.4158 37.0861C16.3952 37.1051 16.3689 37.1141 16.3434 37.1141ZM45.2599 37.5333C45.2335 37.5333 45.2064 37.5234 45.1858 37.5036C45.1438 37.4625 45.143 37.395 45.1841 37.353C45.315 37.2188 45.4451 37.0805 45.5719 36.943C45.6122 36.8994 45.6789 36.8969 45.7225 36.9364C45.7653 36.976 45.7686 37.0435 45.7283 37.0863C45.6007 37.2262 45.4681 37.3653 45.3364 37.5012C45.3159 37.5226 45.2879 37.5333 45.2599 37.5333ZM17.1354 37.9291C17.1082 37.9291 17.0819 37.9193 17.0613 37.8987C16.9263 37.767 16.7897 37.6312 16.658 37.4953C16.6168 37.4533 16.6176 37.3858 16.6596 37.3447C16.7016 37.3043 16.7691 37.3052 16.8102 37.3471C16.9411 37.4822 17.0753 37.6163 17.2095 37.7464C17.2515 37.7876 17.2523 37.8542 17.2111 37.897C17.1906 37.9184 17.1634 37.9291 17.1354 37.9291ZM44.4456 38.3251C44.4168 38.3251 44.3879 38.3136 44.3665 38.2905C44.327 38.2469 44.3303 38.1802 44.3731 38.1407C44.5114 38.0139 44.6489 37.8838 44.7839 37.753C44.8259 37.7118 44.8934 37.7126 44.9345 37.7546C44.9749 37.7966 44.9741 37.8641 44.9321 37.9053C44.7954 38.037 44.6563 38.1695 44.5172 38.2971C44.4966 38.3152 44.4711 38.3251 44.4456 38.3251ZM17.9716 38.6971C17.9478 38.6971 17.9222 38.6888 17.9025 38.6716C17.7593 38.5464 17.6152 38.4188 17.4761 38.2904C17.4333 38.2509 17.43 38.1842 17.4703 38.1406C17.5098 38.0978 17.5765 38.0945 17.6201 38.1348C17.7576 38.2608 17.8992 38.3876 18.0416 38.511C18.0861 38.5489 18.091 38.6164 18.0523 38.6609C18.0309 38.6847 18.0021 38.6971 17.9716 38.6971ZM43.587 39.0684C43.5565 39.0684 43.5261 39.0553 43.5047 39.0297C43.4676 38.9836 43.4742 38.917 43.5195 38.8799C43.6652 38.7606 43.8109 38.6387 43.9516 38.5161C43.9961 38.4782 44.0636 38.4823 44.1015 38.5268C44.1402 38.5712 44.1352 38.6387 44.0908 38.6766C43.9484 38.8001 43.801 38.9244 43.6545 39.0446C43.6347 39.0602 43.6108 39.0684 43.587 39.0684ZM18.8517 39.4173C18.8287 39.4173 18.8065 39.4099 18.7867 39.3951C18.6369 39.279 18.4862 39.1596 18.3397 39.0394C18.2944 39.0024 18.2878 38.9349 18.3249 38.8896C18.3619 38.8443 18.4286 38.8378 18.4739 38.8748C18.6196 38.9933 18.7678 39.1119 18.9168 39.2271C18.9629 39.2625 18.9719 39.3292 18.9357 39.3761C18.9151 39.4025 18.883 39.4173 18.8517 39.4173ZM42.689 39.7616C42.6561 39.7616 42.624 39.7468 42.6026 39.718C42.5688 39.6703 42.5787 39.6044 42.6264 39.5698C42.7779 39.4595 42.9302 39.3451 43.0784 39.2315C43.1245 39.1953 43.1911 39.2035 43.2274 39.2504C43.2628 39.2965 43.2545 39.3632 43.2076 39.3994C43.0586 39.5147 42.9047 39.6299 42.7516 39.7411C42.7326 39.7551 42.7104 39.7616 42.689 39.7616ZM19.7703 40.0858C19.7497 40.0858 19.7292 40.08 19.711 40.0677C19.5555 39.9607 19.3982 39.8495 19.2443 39.7376C19.1965 39.703 19.1858 39.6371 19.2204 39.5894C19.255 39.5417 19.3217 39.5318 19.3686 39.5664C19.5209 39.6767 19.6765 39.787 19.8312 39.8923C19.879 39.9253 19.8913 39.9919 19.8584 40.0397C19.8378 40.0702 19.8049 40.0858 19.7703 40.0858ZM41.7529 40.4028C41.7175 40.4028 41.6837 40.3855 41.6632 40.3534C41.6319 40.304 41.6459 40.2389 41.6953 40.2068C41.8517 40.1064 42.0097 40.001 42.1653 39.8948C42.2131 39.8619 42.2797 39.8743 42.3127 39.9228C42.3456 39.9706 42.3332 40.0373 42.2855 40.0702C42.1283 40.178 41.9686 40.2834 41.8105 40.3855C41.7924 40.397 41.7727 40.4028 41.7529 40.4028ZM20.727 40.7017C20.7089 40.7017 20.6899 40.6968 20.6727 40.6869C20.5105 40.589 20.3475 40.4869 20.187 40.384C20.1376 40.3527 20.1236 40.2869 20.1557 40.2375C20.187 40.1881 20.2528 40.1741 20.3022 40.2054C20.4611 40.3074 20.6224 40.4087 20.7821 40.505C20.8324 40.5355 20.8488 40.6005 20.8184 40.6507C20.7986 40.6836 20.7632 40.7017 20.727 40.7017ZM40.7825 40.989C40.7454 40.989 40.7092 40.9692 40.6894 40.9347C40.6606 40.8836 40.6787 40.8186 40.7298 40.7898C40.8928 40.6976 41.0566 40.6021 41.2171 40.5058C41.2665 40.4753 41.3324 40.491 41.3628 40.5412C41.3925 40.5914 41.3768 40.6573 41.3266 40.6877C41.1653 40.7849 40.999 40.882 40.8343 40.975C40.8179 40.9841 40.7998 40.989 40.7825 40.989ZM21.7182 41.2622C21.7009 41.2622 21.6844 41.2581 21.668 41.2499C21.5017 41.1618 21.3329 41.0696 21.1666 40.9758C21.1156 40.947 21.0975 40.8819 21.1263 40.8309C21.1551 40.7798 21.2202 40.7617 21.2712 40.7906C21.435 40.8836 21.6021 40.9749 21.7676 41.0622C21.8194 41.0894 21.8392 41.1536 21.812 41.2054C21.7931 41.2417 21.7561 41.2622 21.7182 41.2622ZM39.7807 41.5184C39.7412 41.5184 39.7033 41.497 39.6852 41.4591C39.6588 41.4064 39.6811 41.343 39.7337 41.3167C39.9017 41.2344 40.0704 41.1479 40.2351 41.0607C40.2869 41.0335 40.3511 41.0533 40.3791 41.1051C40.4063 41.157 40.3865 41.2212 40.3347 41.2484C40.1676 41.3373 39.9972 41.4237 39.8276 41.5077C39.8119 41.5151 39.7963 41.5184 39.7807 41.5184ZM22.7387 41.7653C22.7239 41.7653 22.7091 41.762 22.6951 41.7554C22.5222 41.6763 22.3485 41.594 22.1781 41.5101C22.1255 41.4845 22.1032 41.4203 22.1296 41.3676C22.1551 41.3158 22.2193 41.2936 22.2712 41.3199C22.4399 41.4022 22.612 41.4845 22.7832 41.5627C22.8367 41.5866 22.8597 41.65 22.8359 41.7027C22.8178 41.7422 22.7791 41.7653 22.7387 41.7653ZM38.7508 41.9899C38.7088 41.9899 38.6693 41.9652 38.6528 41.9249C38.6297 41.8705 38.6553 41.8088 38.7088 41.7857C38.8792 41.7133 39.0529 41.6376 39.2241 41.5585C39.2776 41.5347 39.341 41.5577 39.3649 41.6112C39.3896 41.6647 39.3657 41.7273 39.313 41.752C39.1393 41.831 38.964 41.9084 38.7919 41.9808C38.7779 41.9866 38.7639 41.9899 38.7508 41.9899ZM23.7883 42.2081C23.7752 42.2081 23.762 42.2065 23.7497 42.2015C23.5727 42.1324 23.394 42.0599 23.2187 41.9859C23.1652 41.9628 23.1397 41.9011 23.1627 41.8467C23.1849 41.7932 23.2475 41.7677 23.3018 41.7899C23.4747 41.8632 23.6517 41.9356 23.8262 42.0031C23.8814 42.0245 23.9085 42.0863 23.8871 42.1406C23.8707 42.1826 23.8303 42.2081 23.7883 42.2081ZM37.6937 42.4016C37.6501 42.4016 37.6089 42.3744 37.5933 42.3316C37.5744 42.2764 37.6024 42.2155 37.6583 42.1958C37.8337 42.1324 38.0115 42.0665 38.1877 41.9982C38.242 41.9768 38.3037 42.0031 38.3251 42.0583C38.3465 42.1126 38.3194 42.1744 38.2642 42.1958C38.0872 42.2649 37.9069 42.3324 37.7291 42.3958C37.7176 42.3999 37.7053 42.4016 37.6937 42.4016ZM24.8619 42.5909C24.8512 42.5909 24.8397 42.5892 24.829 42.5859C24.6487 42.5275 24.466 42.4649 24.2865 42.4015C24.2314 42.3818 24.2026 42.3208 24.2223 42.2657C24.2421 42.2105 24.3022 42.1817 24.3581 42.2015C24.5351 42.264 24.7162 42.3258 24.8949 42.3834C24.95 42.4015 24.9813 42.4616 24.9632 42.5176C24.9484 42.562 24.9064 42.5909 24.8619 42.5909ZM36.6138 42.753C36.5677 42.753 36.5249 42.7226 36.5117 42.6765C36.4953 42.6205 36.5274 42.5612 36.5833 42.5448C36.7645 42.4921 36.9456 42.4353 37.1234 42.3777C37.1793 42.3595 37.2394 42.39 37.2575 42.446C37.2757 42.502 37.2452 42.562 37.1892 42.5802C37.0098 42.6378 36.8262 42.6946 36.6434 42.7489C36.6336 42.7514 36.6237 42.753 36.6138 42.753ZM25.9517 42.9103C25.9435 42.9103 25.9344 42.9086 25.9254 42.9062C25.741 42.8584 25.5558 42.8074 25.3747 42.7539C25.3187 42.7374 25.2866 42.6781 25.3022 42.6222C25.3195 42.5662 25.378 42.5341 25.4348 42.5505C25.6134 42.6024 25.797 42.6534 25.9789 42.7012C26.0357 42.716 26.0694 42.7736 26.0546 42.8304C26.0423 42.8782 25.9995 42.9103 25.9517 42.9103ZM35.5148 43.0413C35.4662 43.0413 35.4226 43.0084 35.411 42.9598C35.3979 42.9022 35.4333 42.8454 35.4909 42.8322C35.672 42.7902 35.8572 42.7441 36.0391 42.6964C36.0959 42.6816 36.1544 42.7153 36.1692 42.7721C36.184 42.8289 36.1494 42.8865 36.0935 42.9022C35.9091 42.9499 35.7222 42.996 35.5386 43.0388C35.5304 43.0405 35.5222 43.0413 35.5148 43.0413ZM27.0589 43.1654L27.0375 43.1638C26.8515 43.1259 26.6638 43.0856 26.4794 43.0428C26.4226 43.0296 26.3872 42.9728 26.4004 42.9152C26.4135 42.8584 26.4703 42.823 26.5271 42.8362C26.7099 42.8781 26.8951 42.9185 27.0795 42.9555C27.1371 42.967 27.1742 43.023 27.1626 43.0806C27.1528 43.1309 27.1083 43.1654 27.0589 43.1654ZM34.4011 43.2659C34.3509 43.2659 34.3056 43.2297 34.2965 43.1778C34.2867 43.1202 34.3254 43.0651 34.3838 43.0552C34.5674 43.0239 34.7542 42.9893 34.9386 42.9515C34.9954 42.9408 35.0522 42.977 35.0638 43.0346C35.0753 43.0922 35.0382 43.1482 34.9806 43.1597C34.7938 43.1976 34.6052 43.233 34.4192 43.2651L34.4011 43.2659ZM28.1786 43.3574L28.1638 43.3566C27.9761 43.3302 27.7859 43.2998 27.5999 43.2685C27.5414 43.2586 27.5027 43.2034 27.5126 43.1458C27.5225 43.0874 27.5777 43.0487 27.6353 43.0586C27.8205 43.0907 28.0082 43.1195 28.1934 43.1458C28.2519 43.154 28.2922 43.2084 28.284 43.266C28.2765 43.3195 28.2304 43.3574 28.1786 43.3574ZM33.2766 43.4272C33.2231 43.4272 33.1778 43.3869 33.1712 43.3325C33.1647 43.2749 33.2066 43.2222 33.2651 43.2156C33.4511 43.1942 33.6396 43.1704 33.8249 43.1432C33.8833 43.135 33.9368 43.1753 33.945 43.2337C33.9533 43.2914 33.9129 43.3457 33.8553 43.3539C33.6676 43.3803 33.4766 43.405 33.289 43.4264L33.2766 43.4272ZM29.3071 43.4849H29.2981C29.1095 43.4684 28.9186 43.4495 28.73 43.4289C28.6716 43.4223 28.6296 43.3696 28.6362 43.3112C28.6428 43.2527 28.6963 43.2108 28.7539 43.2173C28.94 43.2387 29.1293 43.2569 29.3162 43.2733C29.3746 43.2783 29.4182 43.3293 29.4133 43.3877C29.4084 43.4429 29.3623 43.4849 29.3071 43.4849ZM32.1447 43.5236C32.0887 43.5236 32.0426 43.48 32.0393 43.4232C32.036 43.3647 32.0805 43.3145 32.1389 43.3112C32.3258 43.3005 32.5159 43.2874 32.7028 43.2717C32.7588 43.2651 32.8123 43.3096 32.8172 43.368C32.8222 43.4265 32.7794 43.4783 32.7209 43.4833C32.5316 43.4989 32.3398 43.5129 32.1513 43.5236H32.1447ZM30.4415 43.5483H30.4382C30.2489 43.5433 30.0571 43.5351 29.8677 43.5244C29.8093 43.5211 29.7648 43.4709 29.7681 43.4124C29.7714 43.354 29.8191 43.3095 29.8801 43.312C30.0669 43.3227 30.2571 43.331 30.444 43.3359C30.5032 43.3375 30.5493 43.3861 30.5477 43.4454C30.546 43.503 30.4983 43.5483 30.4415 43.5483ZM31.0093 43.5556C30.9509 43.5556 30.9031 43.5079 30.9031 43.4494C30.9031 43.391 30.9509 43.3432 31.0093 43.3432C31.1954 43.3432 31.3855 43.3407 31.574 43.335C31.6317 43.33 31.6819 43.3794 31.6835 43.4387C31.6852 43.4972 31.6391 43.5457 31.5806 43.5474C31.3897 43.5531 31.1978 43.5556 31.0093 43.5556Z" fill="#FBB03B"/>
<path d="M3.99653 59.6877C5.94053 59.6877 6.99653 58.6317 6.99653 57.2397C6.99653 55.7637 5.85653 55.2117 4.21253 54.8277C2.85653 54.5037 2.14853 54.2397 2.14853 53.4717C2.14853 52.8117 2.79653 52.2237 3.72053 52.2237C4.56053 52.2237 5.38853 52.5957 6.08453 53.2317L6.78053 52.3197C5.98853 51.6237 5.04053 51.1557 3.76853 51.1557C2.11253 51.1557 0.912531 52.1997 0.912531 53.5797C0.912531 55.0677 2.02853 55.5717 3.70853 55.9677C5.08853 56.2797 5.77253 56.5797 5.77253 57.3597C5.77253 58.0197 5.18453 58.6197 4.04453 58.6197C2.92853 58.6197 2.06453 58.1637 1.33253 57.4677L0.600531 58.3677C1.47653 59.2077 2.61653 59.6877 3.99653 59.6877ZM9.03794 52.3197C9.42194 52.3197 9.74594 51.9837 9.74594 51.5997C9.74594 51.2277 9.42194 50.8917 9.03794 50.8917C8.62994 50.8917 8.31794 51.2277 8.31794 51.5997C8.31794 51.9837 8.62994 52.3197 9.03794 52.3197ZM8.43794 59.5557H9.62594V53.3517H8.43794V59.5557ZM18.2805 53.2077C17.3445 53.2077 16.5525 53.6877 16.2645 54.4557C15.9045 53.6877 15.1725 53.2077 14.2725 53.2077C13.4805 53.2077 12.8325 53.6037 12.5205 54.2157V53.3517H11.3325V59.5557H12.5205V55.6797C12.5205 54.8277 13.1445 54.2397 14.0325 54.2397C14.8125 54.2397 15.3525 54.8757 15.3525 55.7877V59.5557H16.5165V55.6797C16.5165 54.8277 17.1405 54.2397 18.0285 54.2397C18.8085 54.2397 19.3485 54.8757 19.3485 55.7877V59.5557H20.5125V55.6077C20.5125 54.2037 19.5765 53.2077 18.2805 53.2077ZM23.4675 54.5397V53.3517H22.2795V59.5557H23.4675V56.0277C23.5755 54.9477 24.4875 54.2397 25.7715 54.2397V53.2077C24.7035 53.2077 23.8635 53.7237 23.4675 54.5397ZM29.5344 53.2077C28.8504 53.2077 28.0704 53.3877 27.1824 53.8317L27.6144 54.7077C28.1544 54.4317 28.7544 54.1917 29.3664 54.1917C30.6024 54.1917 30.9624 55.0197 30.9624 55.7997V55.9917C30.3624 55.7877 29.7024 55.6557 29.0904 55.6557C27.7224 55.6557 26.6064 56.4837 26.6064 57.7197C26.6064 58.9317 27.5784 59.6997 28.8984 59.6997C29.6544 59.6997 30.5064 59.3517 30.9624 58.7037V59.5557H32.1264V55.7997C32.1264 54.2637 31.2024 53.2077 29.5344 53.2077ZM29.1264 58.7637C28.3464 58.7637 27.7464 58.3557 27.7464 57.6837C27.7464 57.0117 28.4424 56.5437 29.2704 56.5437C29.8824 56.5437 30.4584 56.6277 30.9624 56.7837V57.6117C30.7584 58.3797 29.8944 58.7637 29.1264 58.7637ZM37.0005 53.2077C36.1605 53.2077 35.4045 53.6397 35.0325 54.2517V53.3517H33.8445V59.5557H35.0325V55.5357C35.1285 54.8037 35.8725 54.2397 36.7365 54.2397C37.5765 54.2397 38.1645 54.8877 38.1645 55.8117V59.5557H39.3285V55.6077C39.3285 54.2037 38.3685 53.2077 37.0005 53.2077ZM41.6161 52.3197C42.0001 52.3197 42.3241 51.9837 42.3241 51.5997C42.3241 51.2277 42.0001 50.8917 41.6161 50.8917C41.2081 50.8917 40.8961 51.2277 40.8961 51.5997C40.8961 51.9837 41.2081 52.3197 41.6161 52.3197ZM40.5481 61.6917C41.5201 61.6917 42.2041 60.9837 42.2041 59.9877V53.3517H41.0161V59.9277C41.0161 60.3597 40.7521 60.6717 40.3681 60.6717C40.1281 60.6717 39.8281 60.6237 39.6481 60.5517L39.4921 61.4757C39.7441 61.5957 40.1761 61.6917 40.5481 61.6917ZM46.7666 58.6437C45.6986 58.6437 44.9426 57.8997 44.7866 56.8677H49.6706C49.6706 54.6477 48.5786 53.2077 46.6826 53.2077C44.9666 53.2077 43.5866 54.5757 43.5866 56.4357C43.5866 58.3437 45.0506 59.6997 46.7786 59.6997C47.6546 59.6997 48.7346 59.3277 49.2866 58.7397L48.5426 57.9717C48.1706 58.3557 47.4146 58.6437 46.7666 58.6437ZM46.7306 54.2637C47.7986 54.2637 48.3866 54.9597 48.5186 55.9197H44.7986C44.9906 54.9117 45.7706 54.2637 46.7306 54.2637ZM53.8916 58.6437C52.8236 58.6437 52.0676 57.8997 51.9116 56.8677H56.7956C56.7956 54.6477 55.7036 53.2077 53.8076 53.2077C52.0916 53.2077 50.7116 54.5757 50.7116 56.4357C50.7116 58.3437 52.1756 59.6997 53.9036 59.6997C54.7796 59.6997 55.8596 59.3277 56.4116 58.7397L55.6676 57.9717C55.2956 58.3557 54.5396 58.6437 53.8916 58.6437ZM53.8556 54.2637C54.9236 54.2637 55.5116 54.9597 55.6436 55.9197H51.9236C52.1156 54.9117 52.8956 54.2637 53.8556 54.2637ZM61.0766 58.4397C60.9446 58.5717 60.7046 58.6677 60.4406 58.6677C60.0926 58.6677 59.8046 58.3557 59.8046 57.9237V54.3597H61.2686V53.3517H59.8046V51.6477H58.6406V53.3517H57.7046V54.3597H58.6406V58.0077C58.6406 59.0037 59.3126 59.6997 60.2726 59.6997C60.7166 59.6997 61.1726 59.5317 61.5086 59.2557L61.0766 58.4397Z" fill="black"/>
</svg>
