<svg width="41" height="59" viewBox="0 0 41 59" fill="none" xmlns="http://www.w3.org/2000/svg">
<path d="M5.33214 56.5557H6.54414V49.4397H9.25614V48.3117H2.63214V49.4397H5.33214V56.5557ZM11.8459 51.5397V50.3517H10.6579V56.5557H11.8459V53.0277C11.9539 51.9477 12.8659 51.2397 14.1499 51.2397V50.2077C13.0819 50.2077 12.2419 50.7237 11.8459 51.5397ZM17.9128 50.2077C17.2288 50.2077 16.4488 50.3877 15.5608 50.8317L15.9928 51.7077C16.5328 51.4317 17.1328 51.1917 17.7448 51.1917C18.9808 51.1917 19.3408 52.0197 19.3408 52.7997V52.9917C18.7408 52.7877 18.0808 52.6557 17.4688 52.6557C16.1008 52.6557 14.9848 53.4837 14.9848 54.7197C14.9848 55.9317 15.9568 56.6997 17.2768 56.6997C18.0328 56.6997 18.8848 56.3517 19.3408 55.7037V56.5557H20.5048V52.7997C20.5048 51.2637 19.5808 50.2077 17.9128 50.2077ZM17.5048 55.7637C16.7248 55.7637 16.1248 55.3557 16.1248 54.6837C16.1248 54.0117 16.8208 53.5437 17.6488 53.5437C18.2608 53.5437 18.8368 53.6277 19.3408 53.7837V54.6117C19.1368 55.3797 18.2728 55.7637 17.5048 55.7637ZM24.2869 56.5557H25.4029L28.0189 50.3517H26.7349L24.8389 55.1757L22.9069 50.3517H21.6229L24.2869 56.5557ZM31.5825 55.6437C30.5145 55.6437 29.7585 54.8997 29.6025 53.8677H34.4865C34.4865 51.6477 33.3945 50.2077 31.4985 50.2077C29.7825 50.2077 28.4025 51.5757 28.4025 53.4357C28.4025 55.3437 29.8665 56.6997 31.5945 56.6997C32.4705 56.6997 33.5505 56.3277 34.1025 55.7397L33.3585 54.9717C32.9865 55.3557 32.2305 55.6437 31.5825 55.6437ZM31.5465 51.2637C32.6145 51.2637 33.2025 51.9597 33.3345 52.9197H29.6145C29.8065 51.9117 30.5865 51.2637 31.5465 51.2637ZM35.8635 56.5557H37.0395V48.1677H35.8635V56.5557Z" fill="black"/>
<path fill-rule="evenodd" clip-rule="evenodd" d="M19.4266 0.777107C19.3698 0.777107 19.3221 0.73183 19.3205 0.674206C19.3188 0.614935 19.3649 0.566366 19.4234 0.564719C19.6127 0.558957 19.8045 0.556487 19.9947 0.555664C20.0531 0.555664 20.1008 0.60341 20.1008 0.661858C20.1008 0.720305 20.0539 0.768051 19.9947 0.768051C19.807 0.768875 19.6168 0.771344 19.4299 0.777107H19.4266ZM21.1308 0.799157H21.125C20.9365 0.788456 20.7464 0.781047 20.5603 0.776108C20.5019 0.774461 20.455 0.725892 20.4566 0.667444C20.4583 0.608173 20.5085 0.559604 20.5661 0.56372C20.7538 0.56866 20.9464 0.576892 21.1366 0.58677C21.195 0.590063 21.2395 0.640279 21.237 0.698726C21.2337 0.755528 21.1868 0.799157 21.1308 0.799157ZM18.2924 0.843714C18.2381 0.843714 18.192 0.802553 18.187 0.747398C18.1821 0.688128 18.2257 0.637089 18.2842 0.63215C18.4743 0.615685 18.6661 0.601691 18.853 0.590989C18.9139 0.587696 18.9625 0.632973 18.9658 0.69142C18.9691 0.749868 18.9238 0.800084 18.8653 0.803377C18.6801 0.814078 18.4908 0.82725 18.3023 0.843714H18.2924ZM22.2628 0.893414L22.2505 0.892591C22.0653 0.872011 21.8759 0.853077 21.6882 0.837436C21.6298 0.832497 21.587 0.781458 21.5911 0.72301C21.596 0.664562 21.6479 0.622579 21.7063 0.625872C21.8957 0.641513 22.0867 0.660446 22.2744 0.68185C22.3328 0.687612 22.3748 0.740298 22.3682 0.798745C22.3624 0.853077 22.3163 0.893414 22.2628 0.893414ZM17.1645 0.9717C17.1127 0.9717 17.0666 0.933009 17.0592 0.880324C17.0509 0.822699 17.0913 0.768368 17.1489 0.760135C17.3382 0.73297 17.5292 0.708273 17.7153 0.68687C17.7745 0.680284 17.8264 0.722268 17.833 0.780716C17.8396 0.839163 17.7976 0.891025 17.74 0.897611C17.5556 0.919014 17.3671 0.943711 17.1794 0.970053L17.1645 0.9717ZM23.3868 1.051L23.3687 1.04935C23.1851 1.01807 22.9966 0.989256 22.8105 0.962913C22.7529 0.954681 22.7126 0.901173 22.7208 0.842725C22.729 0.785101 22.7825 0.744764 22.8402 0.752996C23.0287 0.779338 23.2188 0.808974 23.4049 0.840256C23.4625 0.850134 23.5012 0.905289 23.4913 0.962913C23.4831 1.01478 23.4378 1.051 23.3868 1.051ZM16.0448 1.16546C15.9954 1.16546 15.9509 1.13089 15.9411 1.08067C15.9295 1.02305 15.9666 0.967068 16.0234 0.955543C16.2086 0.917675 16.3979 0.882277 16.5848 0.850172C16.6433 0.840294 16.6976 0.878985 16.7075 0.936609C16.7173 0.994234 16.6787 1.04939 16.621 1.05927C16.4358 1.09137 16.2489 1.12677 16.0662 1.16381L16.0448 1.16546ZM24.5013 1.27417C24.4939 1.27417 24.4857 1.27335 24.4774 1.2717C24.2947 1.22972 24.1095 1.18938 23.9251 1.15234C23.8683 1.14164 23.8304 1.08566 23.8419 1.02804C23.8534 0.970411 23.9094 0.932543 23.967 0.944068C24.1531 0.981936 24.3408 1.02227 24.5252 1.06426C24.5828 1.07743 24.6182 1.13423 24.605 1.19185C24.5935 1.24125 24.5499 1.27417 24.5013 1.27417ZM14.9384 1.42375C14.8915 1.42375 14.8487 1.39165 14.8355 1.34473C14.8207 1.28792 14.8545 1.22948 14.9113 1.21466C15.0948 1.16609 15.2817 1.11999 15.4661 1.07718C15.5229 1.06401 15.5797 1.09941 15.5937 1.15621C15.6069 1.21384 15.5706 1.27064 15.5138 1.28381C15.3319 1.32662 15.1475 1.37189 14.9656 1.41964C14.9565 1.42211 14.9475 1.42375 14.9384 1.42375ZM25.6006 1.56086C25.5907 1.56086 25.5808 1.55921 25.571 1.55674C25.389 1.50406 25.2063 1.45302 25.026 1.40609C24.9692 1.39128 24.9354 1.33365 24.9503 1.27685C24.9651 1.22005 25.0227 1.18547 25.0795 1.20029C25.2614 1.24804 25.4467 1.29908 25.6302 1.35259C25.6862 1.36905 25.7183 1.4275 25.7027 1.4843C25.6887 1.5304 25.6467 1.56086 25.6006 1.56086ZM13.8488 1.74541C13.8044 1.74541 13.7632 1.71659 13.7484 1.67214C13.7303 1.61616 13.7607 1.55607 13.8159 1.53796C13.997 1.47869 14.1806 1.42189 14.3617 1.36838C14.4177 1.35191 14.4769 1.38402 14.4934 1.44082C14.5099 1.4968 14.4778 1.55607 14.4218 1.57253C14.2423 1.62522 14.0604 1.6812 13.8818 1.73964C13.8711 1.74294 13.8604 1.74541 13.8488 1.74541ZM26.6833 1.9105C26.6717 1.9105 26.6594 1.90886 26.6479 1.90392C26.4717 1.84135 26.2914 1.78044 26.1111 1.72199C26.0552 1.70388 26.0247 1.64461 26.0428 1.58863C26.0601 1.53265 26.1202 1.50219 26.1762 1.5203C26.3589 1.57875 26.5409 1.64131 26.7187 1.70388C26.7738 1.72363 26.8026 1.78455 26.7837 1.83971C26.7681 1.88334 26.7269 1.9105 26.6833 1.9105ZM12.7785 2.12818C12.7365 2.12818 12.6961 2.10266 12.6797 2.06067C12.6583 2.00634 12.6854 1.9446 12.7398 1.9232C12.9168 1.85405 13.097 1.78655 13.2749 1.72234C13.33 1.70258 13.3909 1.73139 13.4107 1.78655C13.4304 1.8417 13.4016 1.90262 13.3465 1.92237C13.1703 1.98576 12.9925 2.05244 12.8172 2.12077C12.8048 2.12571 12.7916 2.12818 12.7785 2.12818ZM27.7451 2.32206C27.7319 2.32206 27.7179 2.31959 27.7039 2.31383C27.5303 2.24056 27.3533 2.16895 27.1787 2.10144C27.1244 2.08004 27.0972 2.01912 27.1187 1.96397C27.1392 1.90964 27.201 1.88247 27.2561 1.90305C27.4323 1.9722 27.6109 2.04382 27.7863 2.11873C27.8406 2.14096 27.8661 2.20352 27.8431 2.25785C27.8258 2.29819 27.7871 2.32206 27.7451 2.32206ZM11.7374 2.57063C11.6971 2.57063 11.6592 2.54758 11.6411 2.50807C11.6164 2.45538 11.6403 2.39199 11.6938 2.3673C11.8658 2.28827 12.0412 2.21089 12.2141 2.13762C12.2684 2.11457 12.3309 2.14009 12.3532 2.1936C12.3762 2.24793 12.3515 2.3105 12.2972 2.33272C12.126 2.40599 11.9523 2.48255 11.7819 2.56075C11.7679 2.56734 11.7522 2.57063 11.7374 2.57063ZM28.7812 2.79526C28.7656 2.79526 28.7491 2.79196 28.7343 2.78455C28.5647 2.70141 28.3926 2.61991 28.2222 2.54253C28.1687 2.51783 28.1457 2.45527 28.1696 2.40176C28.1943 2.34825 28.2576 2.3252 28.3103 2.34908C28.4824 2.42728 28.6569 2.5096 28.8281 2.59357C28.8808 2.61991 28.9022 2.6833 28.8767 2.73598C28.8578 2.77385 28.8199 2.79526 28.7812 2.79526ZM10.7218 3.0723C10.6839 3.0723 10.6468 3.05172 10.6279 3.0155C10.6007 2.96364 10.6205 2.89943 10.6724 2.87227C10.8403 2.78336 11.0107 2.6961 11.1795 2.61296C11.2321 2.58661 11.2955 2.60802 11.3219 2.6607C11.3474 2.71339 11.326 2.7776 11.2733 2.80312C11.107 2.88544 10.9383 2.97187 10.772 3.05996C10.7555 3.06819 10.739 3.0723 10.7218 3.0723ZM29.7883 3.32552C29.7702 3.32552 29.7529 3.32141 29.7356 3.31235C29.5726 3.21933 29.4055 3.12795 29.2393 3.04069C29.1874 3.01353 29.1676 2.94932 29.1948 2.89746C29.222 2.84559 29.2862 2.82584 29.338 2.853C29.506 2.94109 29.6747 3.03328 29.8402 3.12713C29.8912 3.15594 29.9093 3.22015 29.8805 3.27119C29.8608 3.30577 29.8254 3.32552 29.7883 3.32552ZM9.735 3.63114C9.6996 3.63114 9.6642 3.61303 9.64444 3.5801C9.61399 3.52988 9.62963 3.46485 9.67984 3.43439C9.84201 3.33643 10.0075 3.23929 10.1721 3.14627C10.2232 3.11746 10.2874 3.13474 10.317 3.18578C10.3458 3.23682 10.3277 3.30185 10.2767 3.33067C10.1137 3.42287 9.94985 3.51918 9.79015 3.61632C9.77286 3.6262 9.75393 3.63114 9.735 3.63114ZM30.7618 3.91296C30.7421 3.91296 30.7223 3.9072 30.705 3.89567C30.5461 3.79359 30.384 3.69316 30.2243 3.59685C30.1741 3.56639 30.1584 3.50135 30.1889 3.45114C30.2185 3.40092 30.2844 3.38446 30.3346 3.41492C30.4959 3.51206 30.6589 3.61413 30.8195 3.71703C30.8688 3.74914 30.8837 3.81417 30.8516 3.86357C30.831 3.89567 30.7972 3.91296 30.7618 3.91296ZM8.78282 4.24607C8.74824 4.24607 8.71532 4.2296 8.69474 4.19997C8.66181 4.1514 8.67416 4.08554 8.7219 4.05261C8.87831 3.94477 9.03801 3.83858 9.19689 3.7365C9.24628 3.7044 9.31214 3.71839 9.34424 3.76778C9.37552 3.81718 9.36153 3.88303 9.31214 3.91514C9.15491 4.01639 8.99685 4.12176 8.84209 4.22713C8.82398 4.2403 8.8034 4.24607 8.78282 4.24607ZM31.7012 4.55459C31.6798 4.55459 31.6575 4.548 31.6386 4.53483C31.488 4.42452 31.3324 4.31504 31.1768 4.20884C31.1282 4.17591 31.1159 4.10923 31.1488 4.06149C31.1817 4.01292 31.2484 4.00057 31.2961 4.0335C31.4542 4.14134 31.6114 4.25165 31.7637 4.36278C31.8106 4.39736 31.8214 4.46404 31.7868 4.51096C31.7662 4.53977 31.7341 4.55459 31.7012 4.55459ZM7.86546 4.91459C7.83335 4.91459 7.80207 4.90059 7.78067 4.87343C7.74527 4.82651 7.7535 4.75983 7.80043 4.72443C7.95025 4.60836 8.10336 4.49311 8.25648 4.38197C8.3034 4.3474 8.37008 4.35728 8.40466 4.40502C8.43923 4.45195 8.42853 4.51863 8.38161 4.5532C8.23014 4.66351 8.07785 4.77711 7.92967 4.89236C7.91074 4.90718 7.88769 4.91459 7.86546 4.91459ZM32.6016 5.24903C32.5785 5.24903 32.5546 5.24162 32.5349 5.22516C32.3892 5.10662 32.2402 4.98808 32.092 4.87365C32.0459 4.83825 32.0368 4.77157 32.0731 4.72465C32.1085 4.67855 32.1751 4.6695 32.2221 4.70572C32.3719 4.82097 32.5225 4.94033 32.6691 5.06052C32.7143 5.09756 32.7218 5.16507 32.6839 5.21034C32.6633 5.23586 32.6329 5.24903 32.6016 5.24903ZM6.98738 5.6343C6.95774 5.6343 6.92811 5.62195 6.90753 5.59725C6.86884 5.55362 6.87378 5.48612 6.91741 5.44743C7.06147 5.32312 7.208 5.19964 7.3537 5.07945C7.39898 5.04241 7.46648 5.049 7.50353 5.09427C7.54057 5.14037 7.53399 5.20705 7.48871 5.2441C7.34383 5.36264 7.19894 5.48447 7.05735 5.60795C7.03677 5.62524 7.01207 5.6343 6.98738 5.6343ZM33.4619 5.99262C33.4355 5.99262 33.41 5.98274 33.3894 5.96463C33.252 5.83868 33.1104 5.71191 32.968 5.58842C32.9235 5.55056 32.9186 5.48305 32.9573 5.4386C32.9951 5.39415 33.0626 5.38921 33.1071 5.4279C33.2511 5.55303 33.3944 5.68062 33.5335 5.80822C33.5763 5.84773 33.5796 5.91441 33.5401 5.95804C33.5187 5.98109 33.4899 5.99262 33.4619 5.99262ZM6.15102 6.40214C6.12385 6.40214 6.09586 6.39144 6.07528 6.37004C6.03412 6.32805 6.03495 6.26137 6.07693 6.22021C6.21276 6.0885 6.35188 5.95597 6.49183 5.82754C6.53545 5.78803 6.60213 5.7905 6.64247 5.83413C6.68198 5.87694 6.67869 5.94444 6.63589 5.98395C6.49759 6.11155 6.35929 6.24162 6.22511 6.37251C6.20453 6.39226 6.17818 6.40214 6.15102 6.40214ZM34.2768 6.7842C34.2488 6.7842 34.2216 6.7735 34.2011 6.75209C34.0685 6.61627 33.9343 6.48208 33.801 6.35284C33.759 6.31168 33.7574 6.245 33.7985 6.20219C33.8397 6.16021 33.9064 6.15939 33.9483 6.20055C34.0833 6.33061 34.2192 6.46644 34.3525 6.60392C34.3937 6.6459 34.3929 6.71258 34.3509 6.75374C34.3303 6.7735 34.3031 6.7842 34.2768 6.7842ZM5.3596 7.21691C5.33408 7.21691 5.30856 7.20786 5.28798 7.18893C5.24435 7.14941 5.24188 7.08273 5.2814 7.0391C5.40982 6.89916 5.54153 6.75921 5.67324 6.62421C5.7144 6.58222 5.7819 6.58058 5.82389 6.62174C5.86587 6.6629 5.86669 6.72958 5.82553 6.77156C5.69547 6.90574 5.5654 7.04404 5.43781 7.18234C5.41722 7.20539 5.38841 7.21691 5.3596 7.21691ZM35.0454 7.61942C35.0158 7.61942 34.9861 7.60707 34.9656 7.58238C34.8421 7.44161 34.7153 7.29919 34.5885 7.16172C34.549 7.11891 34.5515 7.05141 34.5951 7.01189C34.6379 6.97238 34.7054 6.97485 34.7449 7.01766C34.8734 7.1576 35.0009 7.30084 35.1253 7.44325C35.1639 7.48771 35.159 7.55439 35.1146 7.59308C35.0948 7.61036 35.0701 7.61942 35.0454 7.61942ZM4.61509 8.07638C4.59122 8.07638 4.56735 8.06815 4.54759 8.05251C4.50231 8.01464 4.49573 7.94796 4.53277 7.90269C4.65214 7.75698 4.77562 7.60962 4.90074 7.46556C4.93943 7.42111 5.00611 7.41617 5.05057 7.45486C5.09502 7.49355 5.09996 7.56023 5.06127 7.60469C4.93779 7.7471 4.81513 7.89281 4.69741 8.03687C4.67601 8.06321 4.64555 8.07638 4.61509 8.07638ZM35.7651 8.49703C35.7338 8.49703 35.7026 8.48303 35.6812 8.45586C35.5676 8.30933 35.4498 8.16033 35.3296 8.01463C35.2926 7.96853 35.2992 7.90185 35.3445 7.8648C35.3897 7.82776 35.4564 7.83434 35.4943 7.87962C35.6153 8.02697 35.7347 8.17762 35.8491 8.3258C35.8853 8.3719 35.8771 8.43858 35.8302 8.4748C35.8112 8.48962 35.7882 8.49703 35.7651 8.49703ZM3.92084 8.97637C3.89944 8.97637 3.87803 8.96978 3.8591 8.95579C3.81135 8.92121 3.80065 8.85536 3.83523 8.80761C3.94718 8.65367 4.06243 8.49973 4.17768 8.35073C4.2139 8.30381 4.28058 8.29558 4.32668 8.33098C4.3736 8.3672 4.38183 8.43388 4.34644 8.47998C4.23201 8.62815 4.11759 8.78045 4.00728 8.93274C3.9867 8.96155 3.95377 8.97637 3.92084 8.97637ZM36.4339 9.41333C36.4001 9.41333 36.3664 9.39769 36.3458 9.36805C36.2404 9.21329 36.1309 9.05853 36.0198 8.90706C35.9852 8.85931 35.9959 8.79345 36.0437 8.75888C36.0906 8.7243 36.1573 8.73418 36.1918 8.78193C36.3038 8.93505 36.4141 9.09145 36.5211 9.24704C36.5541 9.29561 36.5425 9.36147 36.494 9.39522C36.4759 9.40757 36.4544 9.41333 36.4339 9.41333ZM3.27925 9.91453C3.2595 9.91453 3.23974 9.90877 3.22245 9.89807C3.17306 9.86596 3.15824 9.80011 3.19035 9.75072C3.29325 9.59101 3.39944 9.43049 3.50646 9.2749C3.53938 9.22633 3.60524 9.21399 3.65381 9.24691C3.70238 9.27984 3.71473 9.34652 3.6818 9.39427C3.5756 9.54903 3.47106 9.70709 3.36898 9.86596C3.3484 9.89725 3.31465 9.91453 3.27925 9.91453ZM37.0494 10.3665C37.014 10.3665 36.9786 10.3484 36.9589 10.3155C36.8617 10.155 36.7605 9.99361 36.6592 9.8372C36.6279 9.78781 36.6419 9.72196 36.6913 9.69067C36.7407 9.65857 36.8066 9.67256 36.8379 9.72196C36.9399 9.88083 37.042 10.043 37.14 10.2052C37.1704 10.2554 37.1548 10.3204 37.1046 10.3509C37.0873 10.3616 37.0684 10.3665 37.0494 10.3665ZM2.69086 10.8886C2.67358 10.8886 2.65547 10.8844 2.639 10.8754C2.58796 10.8466 2.56985 10.7815 2.59867 10.7305C2.69251 10.565 2.78965 10.3988 2.88679 10.2366C2.91724 10.1864 2.98228 10.1699 3.03332 10.2004C3.08353 10.2308 3.09917 10.2959 3.06871 10.3461C2.9724 10.5066 2.87608 10.6712 2.78306 10.8351C2.76413 10.8696 2.72791 10.8886 2.69086 10.8886ZM37.6082 11.3528C37.5703 11.3528 37.5333 11.3323 37.5144 11.296C37.4263 11.1297 37.3349 10.9635 37.2427 10.8021C37.2139 10.7511 37.232 10.686 37.283 10.6572C37.3341 10.6284 37.3991 10.6457 37.4279 10.6967C37.521 10.8606 37.6131 11.0285 37.7021 11.1964C37.7292 11.2483 37.7095 11.3125 37.6576 11.3397C37.642 11.3487 37.6247 11.3528 37.6082 11.3528ZM2.15995 11.8952C2.14431 11.8952 2.12784 11.8919 2.11303 11.8845C2.06034 11.8582 2.03894 11.7948 2.06446 11.7421C2.14842 11.5717 2.23568 11.3996 2.32459 11.2325C2.35176 11.1807 2.41597 11.1609 2.46783 11.1881C2.51969 11.2152 2.53945 11.2795 2.51228 11.3313C2.42502 11.4968 2.33858 11.6672 2.25544 11.8359C2.23651 11.8738 2.19864 11.8952 2.15995 11.8952ZM38.1106 12.368C38.0703 12.368 38.0316 12.3449 38.0143 12.3063C37.9361 12.1375 37.8546 11.9663 37.7715 11.7975C37.746 11.7448 37.7674 11.6814 37.8201 11.6559C37.8719 11.6296 37.9361 11.651 37.9617 11.7037C38.0464 11.8733 38.1288 12.0469 38.207 12.2174C38.2317 12.2709 38.2086 12.3342 38.1551 12.3589C38.1403 12.3655 38.1255 12.368 38.1106 12.368ZM1.68669 12.9306C1.67352 12.9306 1.65953 12.9281 1.64553 12.9224C1.59203 12.8993 1.56651 12.8376 1.58956 12.7833C1.66282 12.6079 1.74103 12.4317 1.81923 12.2589C1.84393 12.2062 1.90649 12.1823 1.96 12.207C2.01351 12.2309 2.03738 12.2943 2.01268 12.347C1.93448 12.5182 1.85792 12.6927 1.78466 12.8656C1.76819 12.9067 1.72868 12.9306 1.68669 12.9306ZM38.554 13.4103C38.5112 13.4103 38.4717 13.3848 38.4552 13.3428C38.3877 13.1699 38.3161 12.9946 38.242 12.8217C38.2198 12.7674 38.2445 12.7056 38.2988 12.6826C38.3523 12.6595 38.4149 12.6851 38.438 12.7386C38.512 12.9139 38.5845 13.0909 38.6528 13.2654C38.6742 13.3206 38.647 13.3815 38.5927 13.4029C38.5804 13.4078 38.5672 13.4103 38.554 13.4103ZM1.27381 13.9928C1.26228 13.9928 1.24993 13.9912 1.23841 13.987C1.18325 13.9673 1.15444 13.9064 1.1742 13.8512C1.23758 13.6726 1.30509 13.4915 1.37341 13.3145C1.39482 13.2601 1.45656 13.233 1.51089 13.2536C1.56604 13.275 1.59321 13.3367 1.5718 13.391C1.50348 13.5672 1.4368 13.7458 1.37424 13.9228C1.3586 13.9665 1.31744 13.9928 1.27381 13.9928ZM38.9372 14.4793C38.8928 14.4793 38.8508 14.4513 38.836 14.406C38.7783 14.2282 38.7166 14.0488 38.6532 13.8718C38.6334 13.8166 38.6623 13.7557 38.7174 13.736C38.7726 13.7162 38.8335 13.745 38.8532 13.8002C38.9174 13.9788 38.9792 14.1607 39.0385 14.3402C39.0566 14.3962 39.0261 14.4563 38.9701 14.4744C38.9594 14.4777 38.9479 14.4793 38.9372 14.4793ZM0.923775 15.0765C0.913896 15.0765 0.903194 15.0749 0.893316 15.0716C0.837338 15.0551 0.805233 14.9967 0.821697 14.9399C0.874382 14.7588 0.931183 14.5752 0.989631 14.3941C1.00774 14.3389 1.06701 14.3085 1.12299 14.3257C1.17897 14.3439 1.20943 14.404 1.19132 14.4599C1.13369 14.6394 1.07771 14.8205 1.02503 15C1.01186 15.0461 0.969874 15.0765 0.923775 15.0765ZM39.259 15.5697C39.2113 15.5697 39.1685 15.5384 39.1561 15.4907C39.1084 15.3087 39.0565 15.126 39.0038 14.9465C38.9874 14.8897 39.0195 14.8313 39.0754 14.814C39.1322 14.7975 39.1915 14.8296 39.208 14.8864C39.2615 15.0675 39.3125 15.2527 39.3611 15.4363C39.3767 15.4931 39.3422 15.5507 39.2862 15.5656C39.2771 15.568 39.2681 15.5697 39.259 15.5697ZM0.637192 16.1755C0.629783 16.1755 0.621551 16.1746 0.613319 16.173C0.556518 16.159 0.520297 16.1022 0.533469 16.0454C0.576275 15.861 0.621551 15.6749 0.67012 15.4905C0.684938 15.4337 0.742562 15.4 0.799363 15.4148C0.856164 15.4296 0.889915 15.4873 0.875098 15.5441C0.828175 15.7268 0.782899 15.9112 0.740916 16.0931C0.729391 16.1417 0.685761 16.1755 0.637192 16.1755ZM39.517 16.6749C39.4676 16.6749 39.4232 16.6403 39.4133 16.5901C39.3762 16.4073 39.3359 16.2221 39.2931 16.0385C39.2791 15.9809 39.3145 15.9241 39.3721 15.9109C39.4289 15.8978 39.4865 15.9332 39.4997 15.99C39.5434 16.1752 39.5837 16.3629 39.6216 16.5481C39.6331 16.6057 39.596 16.6617 39.5384 16.6732L39.517 16.6749ZM0.413215 17.2894L0.395105 17.2877C0.337481 17.2779 0.29879 17.2227 0.308668 17.1651C0.33995 16.9782 0.375348 16.7897 0.412392 16.6037C0.423917 16.546 0.479895 16.509 0.537519 16.5205C0.595143 16.532 0.632187 16.588 0.620662 16.6456C0.583618 16.8292 0.549044 17.0161 0.517762 17.2013C0.508707 17.2523 0.464254 17.2894 0.413215 17.2894ZM39.7119 17.7942C39.6592 17.7942 39.614 17.7563 39.6066 17.7028C39.5794 17.5168 39.5498 17.3291 39.5177 17.1455C39.5078 17.0871 39.5465 17.0327 39.6041 17.022C39.6617 17.0122 39.7169 17.0509 39.7276 17.1085C39.7597 17.2954 39.7901 17.4847 39.8165 17.6732C39.8255 17.7308 39.7852 17.7852 39.7267 17.7934L39.7119 17.7942ZM0.255311 18.4134L0.242963 18.4126C0.184515 18.406 0.142532 18.3533 0.149118 18.2957C0.170521 18.1072 0.194394 17.917 0.221559 17.7293C0.229791 17.6709 0.2833 17.6314 0.340924 17.6388C0.399371 17.647 0.439708 17.7005 0.431476 17.759C0.405134 17.9442 0.381261 18.1327 0.360681 18.3187C0.354095 18.3731 0.307996 18.4134 0.255311 18.4134ZM39.8424 18.923C39.7881 18.923 39.7411 18.881 39.7362 18.8259C39.7206 18.6382 39.7008 18.4497 39.6794 18.2636C39.6728 18.2052 39.7148 18.1525 39.7732 18.1459C39.8317 18.1393 39.8844 18.1813 39.891 18.2397C39.9124 18.4266 39.9313 18.6176 39.9478 18.8078C39.9535 18.8662 39.9099 18.9172 39.8514 18.9222L39.8424 18.923ZM0.16105 19.5458H0.155287C0.0968397 19.5425 0.0515635 19.4923 0.0548563 19.4339C0.065558 19.2454 0.0787292 19.0535 0.0943701 18.8642C0.0993093 18.8058 0.151171 18.7638 0.209618 18.7671C0.268066 18.772 0.311696 18.8239 0.306756 18.8823C0.291116 19.0692 0.277944 19.2585 0.267243 19.4454C0.26395 19.5022 0.217027 19.5458 0.16105 19.5458ZM39.9084 20.0574C39.8508 20.0574 39.8039 20.0113 39.8022 19.9536C39.7964 19.7676 39.7882 19.5774 39.7775 19.3889C39.7742 19.3313 39.8187 19.2803 39.8771 19.277C39.9356 19.272 39.9858 19.3181 39.9891 19.3774C40.0006 19.5676 40.0088 19.7594 40.0146 19.9479C40.0162 20.0063 39.9701 20.0549 39.9117 20.0565L39.9084 20.0574ZM0.129142 20.6813C0.070695 20.6813 0.0229492 20.6336 0.0229492 20.5751V20.5562C0.0229492 20.3726 0.0254188 20.1865 0.030358 20.0038C0.0320044 19.9453 0.0797502 19.8968 0.139021 19.9009C0.198291 19.9025 0.244391 19.9511 0.242744 20.0096C0.237805 20.1907 0.235336 20.3742 0.235336 20.5562V20.5751C0.235336 20.6336 0.18759 20.6813 0.129142 20.6813ZM39.9085 21.2305H39.906C39.8467 21.2289 39.8006 21.1795 39.8023 21.1211C39.8081 20.9325 39.8105 20.7424 39.8105 20.5563V20.5185C39.8105 20.46 39.8583 20.4123 39.9167 20.4123C39.9752 20.4123 40.0229 20.46 40.0229 20.5185V20.5563C40.0229 20.7449 40.0204 20.9367 40.0147 21.1268C40.013 21.1844 39.9661 21.2305 39.9085 21.2305ZM0.16267 21.8164C0.106693 21.8164 0.0597699 21.7727 0.0564771 21.7159C0.0457755 21.5266 0.0375435 21.3348 0.031781 21.1455C0.0301346 21.087 0.076234 21.0384 0.135505 21.0368H0.137974C0.195598 21.0368 0.242521 21.0821 0.244167 21.1397C0.24993 21.3266 0.258162 21.5167 0.268863 21.7044C0.272156 21.7629 0.22688 21.8131 0.168433 21.8164H0.16267ZM39.8458 22.3643H39.8368C39.7783 22.3594 39.7347 22.3084 39.7396 22.2499C39.7561 22.0614 39.7693 21.8721 39.7792 21.686C39.7824 21.6276 39.8335 21.5848 39.8911 21.5856C39.9504 21.5889 39.9948 21.6391 39.9915 21.6975C39.9808 21.8861 39.9677 22.0779 39.9512 22.2672C39.9471 22.3232 39.9002 22.3643 39.8458 22.3643ZM0.259232 22.9482C0.206547 22.9482 0.160448 22.9078 0.153862 22.8535C0.132459 22.665 0.113525 22.4732 0.097061 22.2855C0.0921218 22.2271 0.135752 22.176 0.194199 22.1711C0.252646 22.1653 0.303685 22.2089 0.308624 22.2674C0.325088 22.4534 0.344022 22.6428 0.365425 22.8296C0.372011 22.8881 0.330027 22.9408 0.27158 22.9474L0.259232 22.9482ZM39.7171 23.4924L39.7023 23.4916C39.6446 23.4834 39.6043 23.4299 39.6117 23.3714C39.6389 23.1854 39.6628 22.9969 39.6842 22.8116C39.6907 22.7532 39.7426 22.7104 39.8011 22.7178C39.8595 22.7244 39.9015 22.7771 39.8949 22.8355C39.8735 23.0224 39.8488 23.2134 39.8225 23.4019C39.815 23.4546 39.7698 23.4924 39.7171 23.4924ZM0.420104 24.0733C0.369889 24.0733 0.324613 24.0371 0.315558 23.9852C0.283453 23.7975 0.253817 23.6074 0.226652 23.4213C0.21842 23.3629 0.258757 23.3094 0.317204 23.3011C0.374828 23.2929 0.428336 23.3324 0.437392 23.3909C0.463734 23.5753 0.493369 23.7629 0.525474 23.949C0.535353 24.0066 0.496662 24.0618 0.438215 24.0716L0.420104 24.0733ZM39.5251 24.6126L39.5037 24.6109C39.4461 24.5994 39.409 24.5434 39.4206 24.4858C39.4576 24.3022 39.4922 24.1154 39.5243 23.9301C39.5342 23.8725 39.5901 23.8338 39.6469 23.8437C39.7046 23.8536 39.7433 23.9087 39.7334 23.9664C39.7013 24.1532 39.6659 24.3426 39.6288 24.5278C39.6189 24.578 39.5745 24.6126 39.5251 24.6126ZM0.64578 25.1864C0.598034 25.1864 0.554405 25.1535 0.54288 25.1041C0.49925 24.9197 0.458913 24.732 0.421046 24.5467C0.409521 24.4891 0.446565 24.4331 0.504189 24.4216C0.561813 24.4101 0.617791 24.4471 0.629316 24.5039C0.66636 24.6875 0.706697 24.8736 0.749504 25.0563C0.762675 25.1131 0.727277 25.1707 0.670476 25.1839C0.662244 25.1856 0.654012 25.1864 0.64578 25.1864ZM39.2684 25.7197C39.2594 25.7197 39.2512 25.718 39.2421 25.7164C39.1853 25.7015 39.1507 25.6431 39.1655 25.5863C39.2133 25.406 39.2586 25.2208 39.3014 25.038C39.3145 24.9804 39.3713 24.945 39.429 24.9582C39.4858 24.9714 39.5212 25.029 39.508 25.0858C39.4652 25.271 39.4191 25.457 39.3713 25.6398C39.359 25.6875 39.3162 25.7197 39.2684 25.7197ZM0.934895 26.2852C0.889618 26.2852 0.846812 26.2547 0.833641 26.2086C0.780132 26.0267 0.728271 25.8415 0.680525 25.6587C0.664884 25.6019 0.699459 25.5435 0.75626 25.5287C0.813061 25.5138 0.870685 25.5476 0.885502 25.6044C0.933248 25.7855 0.984287 25.9683 1.03697 26.1485C1.05344 26.2053 1.02133 26.2638 0.965353 26.2811C0.955475 26.2835 0.945596 26.2852 0.934895 26.2852ZM38.9487 26.809C38.938 26.809 38.9273 26.8074 38.9158 26.8041C38.8606 26.786 38.8293 26.7259 38.8474 26.6699C38.9059 26.4921 38.9619 26.311 39.0145 26.1307C39.031 26.0739 39.0903 26.0418 39.1463 26.0583C39.2022 26.0747 39.2352 26.134 39.2187 26.19C39.1652 26.3727 39.1084 26.5563 39.0499 26.7358C39.0351 26.781 38.994 26.809 38.9487 26.809ZM1.28664 27.3653C1.24301 27.3653 1.20185 27.3382 1.1862 27.2945C1.12199 27.1151 1.06025 26.934 1.00181 26.7545C0.983697 26.6985 1.01416 26.6385 1.07013 26.6203C1.12529 26.6022 1.18538 26.6327 1.20349 26.6887C1.26112 26.8657 1.32286 27.0459 1.38624 27.2238C1.406 27.2789 1.37719 27.339 1.32203 27.3588C1.31051 27.3637 1.29816 27.3653 1.28664 27.3653ZM38.5656 27.883C38.5524 27.883 38.5401 27.8806 38.5269 27.8756C38.4726 27.855 38.4454 27.7933 38.4668 27.7381C38.5351 27.562 38.6018 27.3833 38.6644 27.2072C38.6841 27.152 38.745 27.1232 38.8002 27.143C38.8553 27.1627 38.8842 27.2236 38.8644 27.2788C38.801 27.4566 38.7335 27.6377 38.6644 27.8155C38.6479 27.8575 38.6084 27.883 38.5656 27.883ZM1.69967 28.4213C1.65851 28.4213 1.619 28.3974 1.60171 28.357C1.52845 28.1833 1.45601 28.0055 1.38686 27.8294C1.36628 27.775 1.39262 27.7133 1.44777 27.6919C1.50211 27.6705 1.56385 27.6977 1.58525 27.752C1.65275 27.9265 1.72437 28.1018 1.79764 28.2739C1.81986 28.3282 1.79517 28.39 1.74083 28.413C1.72766 28.4188 1.71367 28.4213 1.69967 28.4213ZM38.1227 28.9315C38.1078 28.9315 38.0922 28.929 38.0782 28.9224C38.0247 28.8977 38.0016 28.8343 38.0255 28.7817C38.1045 28.6096 38.1811 28.4351 38.2544 28.263C38.2766 28.2087 38.3392 28.184 38.3935 28.2062C38.447 28.2293 38.4725 28.2919 38.4495 28.3454C38.3762 28.5199 38.298 28.6961 38.219 28.8697C38.2009 28.9084 38.163 28.9315 38.1227 28.9315ZM2.17054 29.4513C2.13185 29.4513 2.09398 29.4299 2.07505 29.392C1.9919 29.2233 1.90958 29.0504 1.83056 28.8775C1.80586 28.8248 1.82973 28.7614 1.88324 28.7367C1.93593 28.7129 1.99931 28.7359 2.02401 28.7894C2.10221 28.9598 2.18371 29.1311 2.26603 29.2982C2.29155 29.3509 2.27015 29.4142 2.21746 29.4406C2.20264 29.448 2.18618 29.4513 2.17054 29.4513ZM37.6187 29.9533C37.6023 29.9533 37.585 29.9491 37.5693 29.9409C37.5175 29.9129 37.4977 29.8487 37.5249 29.7969C37.613 29.6306 37.7002 29.461 37.7825 29.293C37.8089 29.2404 37.8723 29.219 37.925 29.2445C37.9776 29.2708 37.999 29.3342 37.9727 29.3869C37.8896 29.5565 37.8023 29.7277 37.7126 29.8965C37.6936 29.9327 37.6566 29.9533 37.6187 29.9533ZM2.70028 30.4529C2.66324 30.4529 2.62702 30.4331 2.60809 30.3986C2.51424 30.2339 2.42204 30.066 2.33396 29.8989C2.30679 29.847 2.32655 29.7828 2.37841 29.7556C2.43027 29.7285 2.49448 29.7482 2.52165 29.8001C2.60891 29.9647 2.70028 30.131 2.79248 30.294C2.8213 30.345 2.80319 30.4101 2.75215 30.4389C2.73568 30.448 2.7184 30.4529 2.70028 30.4529ZM37.0582 30.9431C37.0393 30.9431 37.0204 30.9389 37.0031 30.9282C36.9529 30.8978 36.9372 30.8328 36.9677 30.7825C37.0648 30.622 37.1603 30.4574 37.2533 30.2936C37.2822 30.2433 37.3472 30.2252 37.3982 30.254C37.4493 30.2829 37.4674 30.3479 37.4386 30.3989C37.3447 30.5644 37.2476 30.7299 37.1488 30.892C37.129 30.925 37.0945 30.9431 37.0582 30.9431ZM3.28839 31.4237C3.25382 31.4237 3.21925 31.4064 3.19867 31.3743C3.09659 31.2154 2.99533 31.0532 2.89737 30.891C2.86691 30.8408 2.88256 30.7758 2.93277 30.7453C2.98299 30.7149 3.04802 30.7313 3.07848 30.7816C3.17562 30.9413 3.27605 31.1026 3.3773 31.2598C3.4094 31.3092 3.39541 31.3743 3.34602 31.4064C3.32791 31.4179 3.30815 31.4237 3.28839 31.4237ZM36.442 31.8994C36.4206 31.8994 36.4 31.8929 36.3819 31.8805C36.3333 31.8476 36.3209 31.7817 36.3539 31.7332C36.4601 31.5784 36.5654 31.4195 36.6675 31.2623C36.6988 31.2129 36.7646 31.1989 36.814 31.2302C36.8634 31.2623 36.8774 31.3281 36.8461 31.3767C36.7432 31.5364 36.6362 31.6969 36.5292 31.8533C36.5086 31.883 36.4757 31.8994 36.442 31.8994ZM3.92906 32.3591C3.89613 32.3591 3.86403 32.3442 3.84262 32.3154C3.73231 32.164 3.62118 32.0067 3.51417 31.8495C3.48041 31.8017 3.49276 31.7351 3.54133 31.7021C3.5899 31.6692 3.65576 31.6816 3.68868 31.7301C3.7957 31.8849 3.90519 32.0405 4.01467 32.1903C4.04925 32.238 4.03855 32.3047 3.99162 32.3393C3.97269 32.3525 3.95046 32.3591 3.92906 32.3591ZM35.7719 32.8178C35.7497 32.8178 35.7266 32.8104 35.7069 32.7956C35.6608 32.7602 35.6526 32.6935 35.688 32.6466C35.8024 32.4992 35.9168 32.347 36.0279 32.1947C36.0617 32.1469 36.1284 32.137 36.1761 32.1716C36.223 32.2062 36.2337 32.272 36.1992 32.3198C36.0872 32.4737 35.972 32.6277 35.8559 32.7767C35.8353 32.8038 35.804 32.8178 35.7719 32.8178ZM4.62291 33.2567C4.59163 33.2567 4.56117 33.2435 4.54059 33.218C4.41958 33.0706 4.30022 32.9208 4.18497 32.7718C4.14957 32.7249 4.1578 32.6582 4.20472 32.6228C4.25082 32.5866 4.3175 32.5948 4.35372 32.6417C4.46733 32.7891 4.58504 32.9381 4.70441 33.0838C4.74145 33.1291 4.73487 33.1957 4.68959 33.2328C4.66983 33.2493 4.64596 33.2567 4.62291 33.2567ZM35.0518 33.6976C35.0271 33.6976 35.0024 33.6893 34.9826 33.6721C34.9382 33.6334 34.9332 33.5659 34.9719 33.5222C35.0946 33.3798 35.2172 33.2349 35.3366 33.09C35.3736 33.0448 35.4403 33.0374 35.4856 33.0752C35.5309 33.1123 35.5374 33.1789 35.5004 33.2242C35.3802 33.3708 35.2567 33.5181 35.1324 33.6613C35.111 33.6852 35.0814 33.6976 35.0518 33.6976ZM5.36621 34.1144C5.33739 34.1144 5.3094 34.1029 5.288 34.0807C5.1604 33.9416 5.03281 33.7983 4.9085 33.6543C4.86981 33.6098 4.87475 33.5431 4.91838 33.5045C4.96284 33.4666 5.03034 33.4707 5.06821 33.5152C5.19169 33.6576 5.31846 33.7992 5.44441 33.9366C5.48392 33.9803 5.48145 34.0469 5.43782 34.0865C5.41807 34.1054 5.39172 34.1144 5.36621 34.1144ZM34.2829 34.5337C34.2565 34.5337 34.2293 34.5238 34.2088 34.504C34.1668 34.4629 34.166 34.3954 34.2071 34.3534C34.338 34.2192 34.4681 34.0809 34.5948 33.9434C34.6352 33.8998 34.7019 33.8973 34.7455 33.9368C34.7883 33.9763 34.7916 34.0438 34.7513 34.0867C34.6237 34.2266 34.4911 34.3657 34.3594 34.5015C34.3388 34.5229 34.3108 34.5337 34.2829 34.5337ZM6.15821 34.9293C6.13104 34.9293 6.1047 34.9194 6.08412 34.8989C5.94829 34.7671 5.81247 34.6313 5.68075 34.4955C5.63959 34.4535 5.64042 34.386 5.6824 34.3448C5.72438 34.3045 5.79189 34.3053 5.83305 34.3473C5.96393 34.4823 6.09812 34.6165 6.2323 34.7466C6.27428 34.7877 6.27511 34.8544 6.23395 34.8972C6.21337 34.9186 6.1862 34.9293 6.15821 34.9293ZM33.4677 35.3255C33.4397 35.3255 33.4109 35.3139 33.3895 35.2909C33.35 35.2473 33.3533 35.1806 33.3961 35.1411C33.5336 35.0143 33.6719 34.8842 33.8069 34.7533C33.8489 34.7122 33.9164 34.713 33.9575 34.755C33.9979 34.797 33.997 34.8645 33.955 34.9056C33.8184 35.0373 33.6793 35.1699 33.5401 35.2975C33.5196 35.3156 33.4941 35.3255 33.4677 35.3255ZM6.99456 35.6976C6.97069 35.6976 6.94517 35.6893 6.92542 35.672C6.78135 35.5469 6.63812 35.4193 6.499 35.2909C6.45619 35.2514 6.4529 35.1847 6.49323 35.1411C6.53275 35.0983 6.59943 35.095 6.64306 35.1353C6.78053 35.2613 6.92212 35.388 7.06454 35.5115C7.10899 35.5494 7.11393 35.6169 7.07524 35.6613C7.05383 35.6852 7.02502 35.6976 6.99456 35.6976ZM32.6097 36.0685C32.5793 36.0685 32.5488 36.0554 32.5274 36.0299C32.4904 35.9838 32.4969 35.9171 32.5422 35.88C32.6879 35.7607 32.8336 35.6388 32.9744 35.5162C33.0189 35.4783 33.0855 35.4824 33.1242 35.5269C33.1629 35.5713 33.158 35.6388 33.1135 35.6767C32.9711 35.8002 32.8238 35.9245 32.6772 36.0447C32.6575 36.0603 32.6336 36.0685 32.6097 36.0685ZM7.87456 36.4175C7.85151 36.4175 7.82929 36.4101 7.80953 36.3953C7.65971 36.2792 7.50906 36.1598 7.36253 36.0396C7.31725 36.0026 7.31067 35.9351 7.34771 35.8898C7.38476 35.8445 7.45144 35.838 7.49671 35.875C7.64242 35.9935 7.7906 36.1121 7.9396 36.2273C7.98569 36.2627 7.99393 36.3294 7.95853 36.3763C7.93795 36.4027 7.90584 36.4175 7.87456 36.4175ZM31.7118 36.7619C31.6789 36.7619 31.6468 36.7471 31.6254 36.7183C31.5916 36.6706 31.6015 36.6047 31.6493 36.5701C31.8007 36.4598 31.953 36.3454 32.1012 36.2318C32.1473 36.1956 32.214 36.2038 32.2494 36.2507C32.2856 36.2968 32.2774 36.3635 32.2305 36.3997C32.0815 36.515 31.9275 36.6302 31.7744 36.7414C31.7555 36.7553 31.7332 36.7619 31.7118 36.7619ZM8.79333 37.0861C8.77275 37.0861 8.75217 37.0803 8.73406 37.0679C8.57765 36.9609 8.42124 36.8498 8.2673 36.7378C8.21956 36.7033 8.20886 36.6374 8.24343 36.5897C8.278 36.5419 8.34468 36.532 8.39161 36.5666C8.5439 36.6769 8.69948 36.7872 8.85342 36.8926C8.90199 36.9255 8.91434 36.9922 8.88141 37.04C8.86083 37.0704 8.82708 37.0861 8.79333 37.0861ZM30.7758 37.403C30.7404 37.403 30.7067 37.3857 30.6861 37.3536C30.6548 37.3042 30.6688 37.2392 30.7182 37.2071C30.8746 37.1066 31.0326 37.0013 31.1882 36.8951C31.236 36.8621 31.3027 36.8745 31.3356 36.9231C31.3685 36.9708 31.3562 37.0375 31.3084 37.0704C31.1512 37.1782 30.9915 37.2836 30.8334 37.3857C30.8153 37.3972 30.7956 37.403 30.7758 37.403ZM9.75017 37.7017C9.73206 37.7017 9.71313 37.6968 9.69584 37.6869C9.53367 37.5889 9.37068 37.4868 9.21015 37.3839C9.16076 37.3527 9.14677 37.2868 9.17887 37.2374C9.21015 37.188 9.27601 37.174 9.3254 37.2053C9.48428 37.3074 9.64563 37.4086 9.80533 37.505C9.85555 37.5354 9.87201 37.6004 9.84155 37.6507C9.82179 37.6836 9.7864 37.7017 9.75017 37.7017ZM29.8059 37.9894C29.7689 37.9894 29.7327 37.9697 29.7129 37.9351C29.6841 37.8841 29.7022 37.819 29.7533 37.7902C29.9163 37.698 30.0801 37.6025 30.2398 37.5062C30.29 37.4758 30.3558 37.4914 30.3863 37.5416C30.4159 37.5918 30.4003 37.6577 30.3501 37.6882C30.1879 37.7853 30.0224 37.8824 29.8578 37.9755C29.8413 37.9845 29.8232 37.9894 29.8059 37.9894ZM10.74 38.2629C10.7236 38.2629 10.7063 38.2587 10.6906 38.2505C10.5243 38.1624 10.3556 38.0702 10.1893 37.9764C10.1383 37.9476 10.1201 37.8825 10.149 37.8315C10.1778 37.7805 10.2428 37.7624 10.2938 37.7912C10.4577 37.8842 10.6248 37.9756 10.7902 38.0628C10.8421 38.09 10.8619 38.1542 10.8347 38.2061C10.8149 38.2423 10.7787 38.2629 10.74 38.2629ZM28.8034 38.5184C28.7639 38.5184 28.726 38.497 28.7079 38.4591C28.6815 38.4064 28.7038 38.3431 28.7565 38.3167C28.9244 38.2344 29.0931 38.148 29.2578 38.0607C29.3096 38.0335 29.3739 38.0533 29.4018 38.1052C29.429 38.157 29.4093 38.2212 29.3574 38.2484C29.1903 38.3373 29.0199 38.4237 28.8503 38.5077C28.8347 38.5151 28.819 38.5184 28.8034 38.5184ZM11.7624 38.7656C11.7476 38.7656 11.7328 38.7623 11.7188 38.7557C11.5459 38.6767 11.3722 38.5943 11.201 38.5104C11.1491 38.4849 11.1269 38.4207 11.1532 38.368C11.1787 38.3161 11.2429 38.2939 11.2948 38.3202C11.4636 38.4025 11.6356 38.4849 11.8068 38.5631C11.8603 38.5869 11.8834 38.6503 11.8595 38.703C11.8414 38.7425 11.8027 38.7656 11.7624 38.7656ZM27.7744 38.9909C27.7324 38.9909 27.6929 38.9662 27.6765 38.9259C27.6534 38.8715 27.6789 38.8098 27.7324 38.7867C27.9029 38.7143 28.0765 38.6386 28.2478 38.5595C28.3013 38.5357 28.3647 38.5587 28.3885 38.6122C28.4132 38.6657 28.3894 38.7283 28.3367 38.753C28.163 38.832 27.9876 38.9094 27.8156 38.9818C27.8016 38.9876 27.7876 38.9909 27.7744 38.9909ZM12.8119 39.2084C12.7987 39.2084 12.7855 39.2067 12.7732 39.2018C12.5962 39.1326 12.4176 39.0602 12.2422 38.9861C12.1887 38.963 12.1632 38.9013 12.1862 38.847C12.2085 38.7935 12.271 38.7679 12.3254 38.7902C12.4982 38.8634 12.6752 38.9359 12.8497 39.0034C12.9049 39.0248 12.9321 39.0865 12.9107 39.1408C12.8942 39.1828 12.8539 39.2084 12.8119 39.2084ZM26.7175 39.4021C26.6739 39.4021 26.6327 39.3749 26.6171 39.3321C26.5973 39.2769 26.6261 39.216 26.6821 39.1963C26.8574 39.1329 27.0352 39.067 27.2114 38.9987C27.2657 38.9773 27.3275 39.0036 27.3489 39.0588C27.3695 39.1131 27.3431 39.1748 27.288 39.1963C27.111 39.2654 26.9307 39.3329 26.7529 39.3963C26.7414 39.4004 26.729 39.4021 26.7175 39.4021ZM13.8846 39.5912C13.8739 39.5912 13.8624 39.5896 13.8517 39.5863C13.6714 39.5278 13.4887 39.4653 13.3092 39.4019C13.2541 39.3821 13.2252 39.3212 13.245 39.2661C13.2648 39.2109 13.3248 39.1821 13.3808 39.2019C13.5578 39.2644 13.7381 39.3262 13.9167 39.3838C13.9727 39.4019 14.0032 39.462 13.9859 39.518C13.9711 39.5624 13.9291 39.5912 13.8846 39.5912ZM25.6367 39.7534C25.5906 39.7534 25.5478 39.723 25.5346 39.6769C25.5181 39.6209 25.5502 39.5616 25.6062 39.5452C25.7873 39.4925 25.9684 39.4357 26.1462 39.3781C26.2022 39.3599 26.2623 39.3904 26.2804 39.4464C26.2985 39.5024 26.2681 39.5625 26.2121 39.5806C26.0326 39.6382 25.8491 39.695 25.6663 39.7493C25.6564 39.7518 25.6465 39.7534 25.6367 39.7534ZM14.9746 39.9108C14.9663 39.9108 14.9573 39.9091 14.9482 39.9066C14.7638 39.8589 14.5786 39.8079 14.3975 39.7544C14.3415 39.7379 14.3086 39.6786 14.325 39.6226C14.3415 39.5667 14.4008 39.5346 14.4576 39.551C14.6362 39.6029 14.8198 39.6539 15.0017 39.7017C15.0585 39.7165 15.0923 39.7741 15.0775 39.8309C15.0651 39.8787 15.0223 39.9108 14.9746 39.9108ZM24.5376 40.0418C24.4891 40.0418 24.4454 40.0089 24.4339 39.9603C24.4207 39.9027 24.4561 39.8459 24.5138 39.8327C24.6949 39.7908 24.8793 39.7447 25.062 39.6969C25.1188 39.6821 25.1764 39.7159 25.1912 39.7727C25.2069 39.8295 25.1723 39.8871 25.1163 39.9027C24.9319 39.9505 24.7451 39.9966 24.5615 40.0394C24.5533 40.041 24.545 40.0418 24.5376 40.0418ZM16.0822 40.166L16.0608 40.1643C15.8748 40.1265 15.6871 40.0861 15.5027 40.0433C15.4459 40.0302 15.4105 39.9734 15.4236 39.9157C15.4368 39.8589 15.4928 39.8235 15.5504 39.8367C15.7324 39.8787 15.9184 39.919 16.1028 39.9561C16.1604 39.9676 16.1975 40.0236 16.1859 40.0812C16.1761 40.1314 16.1316 40.166 16.0822 40.166ZM23.424 40.2665C23.3737 40.2665 23.3285 40.2303 23.3194 40.1784C23.3095 40.1208 23.3482 40.0657 23.4058 40.0558C23.5902 40.0245 23.7771 39.9899 23.9615 39.9521C24.0183 39.9414 24.0751 39.9776 24.0866 40.0352C24.0982 40.0928 24.0611 40.1488 24.0035 40.1603C23.8166 40.1982 23.6281 40.2336 23.4421 40.2657L23.424 40.2665ZM17.2022 40.3577L17.1874 40.3569C16.9997 40.3306 16.8095 40.3001 16.6235 40.2688C16.565 40.259 16.5263 40.2038 16.5362 40.1462C16.5461 40.0877 16.6012 40.049 16.6589 40.0589C16.8441 40.091 17.0318 40.1198 17.217 40.1462C17.2754 40.1544 17.3158 40.2087 17.3075 40.2664C17.3001 40.3199 17.254 40.3577 17.2022 40.3577ZM22.2994 40.4277C22.2459 40.4277 22.2006 40.3874 22.194 40.3331C22.1875 40.2754 22.2294 40.2227 22.2879 40.2162C22.4739 40.1948 22.6624 40.1709 22.8477 40.1437C22.9061 40.1355 22.9596 40.1758 22.9678 40.2343C22.9761 40.2919 22.9357 40.3462 22.8781 40.3545C22.6904 40.3808 22.4994 40.4055 22.3118 40.4269L22.2994 40.4277ZM18.3303 40.4852H18.3212C18.1327 40.4687 17.9417 40.4498 17.7532 40.4292C17.6948 40.4226 17.6528 40.3699 17.6594 40.3115C17.666 40.253 17.7195 40.2111 17.7771 40.2176C17.9631 40.239 18.1525 40.2572 18.3393 40.2736C18.3978 40.2786 18.4414 40.3296 18.4365 40.3881C18.4315 40.4432 18.3854 40.4852 18.3303 40.4852ZM21.1676 40.5238C21.1116 40.5238 21.0655 40.4802 21.0622 40.4234C21.0589 40.3649 21.1033 40.3147 21.1618 40.3114C21.3487 40.3007 21.5388 40.2876 21.7257 40.2719C21.7825 40.2653 21.8352 40.3098 21.8401 40.3682C21.845 40.4267 21.8022 40.4785 21.7438 40.4835C21.5545 40.4991 21.3627 40.5131 21.1741 40.5238H21.1676ZM19.4646 40.5486H19.4613C19.2719 40.5437 19.0801 40.5354 18.8908 40.5247C18.8323 40.5214 18.7879 40.4712 18.7912 40.4128C18.7945 40.3543 18.8439 40.3099 18.9031 40.3123C19.09 40.323 19.2802 40.3313 19.467 40.3362C19.5255 40.3379 19.5724 40.3864 19.5708 40.4457C19.5691 40.5033 19.5214 40.5486 19.4646 40.5486ZM20.0325 40.5556C19.974 40.5556 19.9263 40.5078 19.9263 40.4494C19.9263 40.3909 19.974 40.3432 20.0325 40.3432C20.2185 40.3432 20.4087 40.3407 20.5972 40.335C20.6556 40.33 20.705 40.3794 20.7067 40.4387C20.7083 40.4971 20.6622 40.5457 20.6029 40.5474C20.4128 40.5531 20.221 40.5556 20.0325 40.5556Z" fill="#FBB03B"/>
<rect x="1.52295" y="2.05566" width="37" height="37" rx="18.5" fill="#FCE4C4"/>
<rect x="1.52295" y="2.05566" width="37" height="37" rx="18.5" stroke="black"/>
<path d="M22.3103 22.2496C22.6845 22.2496 22.9878 22.553 22.9878 22.9271L22.9878 31.0569C22.9878 31.431 22.6845 31.7343 22.3103 31.7343L10.2004 31.7343C9.82624 31.7343 9.52293 31.431 9.52293 31.0569L9.52293 22.9271C9.52293 22.553 9.82624 22.2496 10.2004 22.2496L22.3103 22.2496Z" fill="#645FB9"/>
<path d="M19.0073 18.9466C19.3815 18.9466 19.6848 19.25 19.6848 19.6241L19.6848 20.3863C19.6848 20.7604 19.3815 21.0638 19.0073 21.0638L14.519 21.0638C14.1449 21.0638 13.8416 20.7604 13.8416 20.3863L13.8416 19.6241C13.8416 19.25 14.1449 18.9466 14.519 18.9466L19.0073 18.9466Z" fill="#49569E"/>
<path d="M14.0957 22.2496L14.0957 31.7343L12.8254 31.7343L12.8254 22.2496L14.0957 22.2496Z" fill="#49569E"/>
<path d="M15.79 21.0637L15.79 22.2493L14.8585 22.2493L14.8585 21.0637L15.79 21.0637Z" fill="#CCCCCC"/>
<path d="M23.9194 9.5471L23.9194 16.2372L22.9879 16.2372L22.9879 9.5471L23.9194 9.5471Z" fill="#CCCCCC"/>
<path d="M29.0856 9.5471L22.9883 9.5471C22.9883 9.03263 23.4053 8.61557 23.9198 8.61557L28.154 8.61557C28.6685 8.61557 29.0856 9.03263 29.0856 9.5471Z" fill="#CCCCCC"/>
<path d="M26.9683 8.78499C27.3424 8.78499 27.6458 9.08831 27.6458 9.46247L27.6458 9.54715L24.5124 9.54715L24.5124 9.46247C24.5124 9.08831 24.8157 8.78499 25.1899 8.78499L26.9683 8.78499Z" fill="#E39354"/>
<path d="M25.1896 9.3774C24.8154 9.3774 24.5121 9.07408 24.5121 8.69992L24.5121 8.61523L27.6454 8.61523L27.6454 8.69992C27.6454 9.07408 27.3421 9.3774 26.9679 9.3774L25.1896 9.3774Z" fill="#E39354"/>
<path d="M18.923 21.0637L18.923 22.2493L17.9914 22.2493L17.9914 21.0637L18.923 21.0637Z" fill="#CCCCCC"/>
<path d="M29.0856 9.5471L29.0856 16.2372L28.154 16.2372L28.154 9.5471L29.0856 9.5471Z" fill="#CCCCCC"/>
<path d="M21.209 31.7342L21.209 32.4963L20.1928 32.4963L20.1928 31.7342L21.209 31.7342Z" fill="#49569E"/>
<path d="M11.8096 31.7342L11.8096 32.4963L10.7934 32.4963L10.7934 31.7342L11.8096 31.7342Z" fill="#49569E"/>
<path d="M24.4276 31.7342L24.4276 32.4963L23.4114 32.4963L23.4114 31.7342L24.4276 31.7342Z" fill="#E39354"/>
<path d="M28.1536 31.7342L28.1536 32.4963L27.1373 32.4963L27.1373 31.7342L28.1536 31.7342Z" fill="#E39354"/>
<path d="M21.4631 22.2496L21.4631 31.7343L17.8217 31.7343L17.8217 22.2496L21.4631 22.2496Z" fill="#49569E"/>
<path d="M29.4236 16.237C30.2654 16.237 30.9479 16.9194 30.9479 17.7613L30.9479 30.2099C30.9479 31.0518 30.2654 31.7343 29.4236 31.7343L22.2254 31.7343C21.3835 31.7343 20.701 31.0518 20.701 30.2099L20.701 17.7613C20.701 16.9194 21.3835 16.237 22.2254 16.237L29.4236 16.237Z" fill="#FDC091"/>
<path fill-rule="evenodd" clip-rule="evenodd" d="M29.3891 31.7343H29.4237C30.2655 31.7343 30.948 31.0518 30.948 30.2099L30.948 17.7613C30.948 16.9194 30.2655 16.237 29.4237 16.237L29.2754 16.237C29.4745 16.4946 29.5931 16.8177 29.5931 17.1685L29.5931 30.9721C29.5931 31.2497 29.5188 31.51 29.3891 31.7343Z" fill="#EDAE7D"/>
<path d="M23.4537 18.354C23.7109 18.354 23.9194 18.5625 23.9194 18.8198L23.9194 28.8126C23.9194 29.0698 23.7109 29.2783 23.4537 29.2783C23.1964 29.2783 22.9879 29.0698 22.9879 28.8126L22.9879 18.8198C22.9879 18.5625 23.1964 18.354 23.4537 18.354Z" fill="#F0B180"/>
<path d="M28.1116 18.354C28.3689 18.354 28.5774 18.5625 28.5774 18.8198L28.5774 28.8126C28.5774 29.0698 28.3689 29.2783 28.1116 29.2783C27.8544 29.2783 27.6459 29.0698 27.6459 28.8126L27.6459 18.8198C27.6459 18.5625 27.8544 18.354 28.1116 18.354Z" fill="#F0B180"/>
<path d="M25.9938 18.354C26.2511 18.354 26.4596 18.5625 26.4596 18.8198L26.4596 21.7837C26.4596 22.041 26.2511 22.2495 25.9938 22.2495C25.7366 22.2495 25.5281 22.041 25.5281 21.7837L25.5281 18.8198C25.5281 18.5625 25.7366 18.354 25.9938 18.354Z" fill="#F0B180"/>
<path d="M25.9938 23.8589C26.2511 23.8589 26.4596 24.0675 26.4596 24.3247L26.4596 27.2887C26.4596 27.5459 26.2511 27.7544 25.9938 27.7544C25.7366 27.7544 25.5281 27.5459 25.5281 27.2887L25.5281 24.3247C25.5281 24.0675 25.7366 23.8589 25.9938 23.8589Z" fill="#F0B180"/>
</svg>
