<svg width="53" height="59" viewBox="0 0 53 59" fill="none" xmlns="http://www.w3.org/2000/svg">
<path d="M6.98734 49.4397V48.3117H0.927344V56.5557H2.15134V52.9677H6.51934V51.8397H2.15134V49.4397H6.98734ZM12.5696 50.3517V54.3717C12.4736 55.1037 11.7296 55.6677 10.8656 55.6677C10.0256 55.6677 9.43759 55.0197 9.43759 54.0957V50.3517H8.27359V54.2997C8.27359 55.7037 9.23359 56.6997 10.6016 56.6997C11.4416 56.6997 12.1976 56.2677 12.5696 55.6557V56.5557H13.7576V50.3517H12.5696ZM16.7292 51.5397V50.3517H15.5412V56.5557H16.7292V53.0277C16.8372 51.9477 17.7492 51.2397 19.0332 51.2397V50.2077C17.9652 50.2077 17.1252 50.7237 16.7292 51.5397ZM23.3481 50.2077C22.5081 50.2077 21.7521 50.6397 21.3801 51.2517V50.3517H20.1921V56.5557H21.3801V52.5357C21.4761 51.8037 22.2201 51.2397 23.0841 51.2397C23.9241 51.2397 24.5121 51.8877 24.5121 52.8117V56.5557H25.6761V52.6077C25.6761 51.2037 24.7161 50.2077 23.3481 50.2077ZM27.9637 49.3197C28.3477 49.3197 28.6717 48.9837 28.6717 48.5997C28.6717 48.2277 28.3477 47.8917 27.9637 47.8917C27.5557 47.8917 27.2437 48.2277 27.2437 48.5997C27.2437 48.9837 27.5557 49.3197 27.9637 49.3197ZM27.3637 56.5557H28.5517V50.3517H27.3637V56.5557ZM33.1743 55.4397C33.0423 55.5717 32.8023 55.6677 32.5383 55.6677C32.1903 55.6677 31.9023 55.3557 31.9023 54.9237V51.3597H33.3663V50.3517H31.9023V48.6477H30.7383V50.3517H29.8022V51.3597H30.7383V55.0077C30.7383 56.0037 31.4103 56.6997 32.3703 56.6997C32.8143 56.6997 33.2703 56.5317 33.6063 56.2557L33.1743 55.4397ZM39.0891 50.3517V54.3717C38.9931 55.1037 38.2491 55.6677 37.3851 55.6677C36.5451 55.6677 35.9571 55.0197 35.9571 54.0957V50.3517H34.7931V54.2997C34.7931 55.7037 35.7531 56.6997 37.1211 56.6997C37.9611 56.6997 38.7171 56.2677 39.0891 55.6557V56.5557H40.2771V50.3517H39.0891ZM43.2487 51.5397V50.3517H42.0607V56.5557H43.2487V53.0277C43.3567 51.9477 44.2687 51.2397 45.5527 51.2397V50.2077C44.4847 50.2077 43.6447 50.7237 43.2487 51.5397ZM49.5557 55.6437C48.4877 55.6437 47.7317 54.8997 47.5757 53.8677H52.4597C52.4597 51.6477 51.3677 50.2077 49.4717 50.2077C47.7557 50.2077 46.3757 51.5757 46.3757 53.4357C46.3757 55.3437 47.8397 56.6997 49.5677 56.6997C50.4437 56.6997 51.5237 56.3277 52.0757 55.7397L51.3317 54.9717C50.9597 55.3557 50.2037 55.6437 49.5557 55.6437ZM49.5197 51.2637C50.5877 51.2637 51.1757 51.9597 51.3077 52.9197H47.5877C47.7797 51.9117 48.5597 51.2637 49.5197 51.2637Z" fill="black"/>
<path fill-rule="evenodd" clip-rule="evenodd" d="M25.4037 0.777107C25.3469 0.777107 25.2992 0.73183 25.2975 0.674206C25.2959 0.614935 25.342 0.566366 25.4004 0.564719C25.5897 0.558957 25.7815 0.556487 25.9717 0.555664C26.0302 0.555664 26.0779 0.60341 26.0779 0.661858C26.0779 0.720305 26.031 0.768051 25.9717 0.768051C25.784 0.768875 25.5939 0.771344 25.407 0.777107H25.4037ZM27.1079 0.799157H27.1021C26.9136 0.788456 26.7234 0.781047 26.5374 0.776108C26.4789 0.774461 26.432 0.725892 26.4337 0.667444C26.4353 0.608173 26.4855 0.559604 26.5431 0.56372C26.7308 0.56866 26.9235 0.576892 27.1136 0.58677C27.1721 0.590063 27.2165 0.640279 27.2141 0.698726C27.2108 0.755528 27.1638 0.799157 27.1079 0.799157ZM24.2694 0.843714C24.2151 0.843714 24.169 0.802553 24.1641 0.747398C24.1591 0.688128 24.2028 0.637089 24.2612 0.63215C24.4514 0.615685 24.6432 0.601691 24.83 0.590989C24.891 0.587696 24.9395 0.632973 24.9428 0.69142C24.9461 0.749868 24.9008 0.800084 24.8424 0.803377C24.6572 0.814078 24.4678 0.82725 24.2793 0.843714H24.2694ZM28.2399 0.893414L28.2275 0.892591C28.0423 0.872011 27.853 0.853077 27.6653 0.837436C27.6068 0.832497 27.564 0.781458 27.5681 0.72301C27.5731 0.664562 27.6249 0.622579 27.6834 0.625872C27.8727 0.641513 28.0637 0.660446 28.2514 0.68185C28.3099 0.687612 28.3518 0.740298 28.3452 0.798745C28.3395 0.853077 28.2934 0.893414 28.2399 0.893414ZM23.1416 0.9717C23.0897 0.9717 23.0436 0.933009 23.0362 0.880324C23.028 0.822699 23.0683 0.768368 23.126 0.760135C23.3153 0.73297 23.5063 0.708273 23.6923 0.68687C23.7516 0.680284 23.8034 0.722268 23.81 0.780716C23.8166 0.839163 23.7746 0.891025 23.717 0.897611C23.5326 0.919014 23.3441 0.943711 23.1564 0.970053L23.1416 0.9717ZM29.3638 1.051L29.3457 1.04935C29.1621 1.01807 28.9736 0.989256 28.7876 0.962913C28.7299 0.954681 28.6896 0.901173 28.6978 0.842725C28.7061 0.785101 28.7596 0.744764 28.8172 0.752996C29.0057 0.779338 29.1959 0.808974 29.3819 0.840256C29.4396 0.850134 29.4782 0.905289 29.4684 0.962913C29.4601 1.01478 29.4149 1.051 29.3638 1.051ZM22.0218 1.16546C21.9724 1.16546 21.928 1.13089 21.9181 1.08067C21.9066 1.02305 21.9436 0.967068 22.0004 0.955543C22.1857 0.917675 22.375 0.882277 22.5619 0.850172C22.6203 0.840294 22.6746 0.878985 22.6845 0.936609C22.6944 0.994234 22.6557 1.04939 22.5981 1.05927C22.4129 1.09137 22.226 1.12677 22.0432 1.16381L22.0218 1.16546ZM30.4783 1.27417C30.4709 1.27417 30.4627 1.27335 30.4545 1.2717C30.2717 1.22972 30.0865 1.18938 29.9021 1.15234C29.8453 1.14164 29.8074 1.08566 29.819 1.02804C29.8305 0.970411 29.8865 0.932543 29.9441 0.944068C30.1301 0.981936 30.3178 1.02227 30.5022 1.06426C30.5598 1.07743 30.5952 1.13423 30.5821 1.19185C30.5705 1.24125 30.5269 1.27417 30.4783 1.27417ZM20.9155 1.42375C20.8685 1.42375 20.8257 1.39165 20.8126 1.34473C20.7978 1.28792 20.8315 1.22948 20.8883 1.21466C21.0719 1.16609 21.2587 1.11999 21.4431 1.07718C21.4999 1.06401 21.5567 1.09941 21.5707 1.15621C21.5839 1.21384 21.5477 1.27064 21.4909 1.28381C21.309 1.32662 21.1246 1.37189 20.9426 1.41964C20.9336 1.42211 20.9245 1.42375 20.9155 1.42375ZM31.5776 1.56086C31.5678 1.56086 31.5579 1.55921 31.548 1.55674C31.3661 1.50406 31.1833 1.45302 31.003 1.40609C30.9462 1.39128 30.9125 1.33365 30.9273 1.27685C30.9421 1.22005 30.9998 1.18547 31.0566 1.20029C31.2385 1.24804 31.4237 1.29908 31.6073 1.35259C31.6633 1.36905 31.6954 1.4275 31.6797 1.4843C31.6657 1.5304 31.6237 1.56086 31.5776 1.56086ZM19.8259 1.74541C19.7814 1.74541 19.7403 1.71659 19.7254 1.67214C19.7073 1.61616 19.7378 1.55607 19.7929 1.53796C19.9741 1.47869 20.1576 1.42189 20.3387 1.36838C20.3947 1.35191 20.454 1.38402 20.4704 1.44082C20.4869 1.4968 20.4548 1.55607 20.3988 1.57253C20.2194 1.62522 20.0374 1.6812 19.8588 1.73964C19.8481 1.74294 19.8374 1.74541 19.8259 1.74541ZM32.6603 1.9105C32.6488 1.9105 32.6365 1.90886 32.6249 1.90392C32.4488 1.84135 32.2685 1.78044 32.0882 1.72199C32.0322 1.70388 32.0018 1.64461 32.0199 1.58863C32.0372 1.53265 32.0973 1.50219 32.1532 1.5203C32.336 1.57875 32.5179 1.64131 32.6957 1.70388C32.7509 1.72363 32.7797 1.78455 32.7608 1.83971C32.7451 1.88334 32.704 1.9105 32.6603 1.9105ZM18.7555 2.12818C18.7135 2.12818 18.6732 2.10266 18.6567 2.06067C18.6353 2.00634 18.6625 1.9446 18.7168 1.9232C18.8938 1.85405 19.0741 1.78655 19.2519 1.72234C19.3071 1.70258 19.368 1.73139 19.3877 1.78655C19.4075 1.8417 19.3787 1.90262 19.3235 1.92237C19.1474 1.98576 18.9696 2.05244 18.7942 2.12077C18.7819 2.12571 18.7687 2.12818 18.7555 2.12818ZM33.7222 2.32206C33.709 2.32206 33.695 2.31959 33.681 2.31383C33.5073 2.24056 33.3303 2.16895 33.1558 2.10144C33.1015 2.08004 33.0743 2.01912 33.0957 1.96397C33.1163 1.90964 33.178 1.88247 33.2332 1.90305C33.4093 1.9722 33.588 2.04382 33.7633 2.11873C33.8176 2.14096 33.8432 2.20352 33.8201 2.25785C33.8028 2.29819 33.7641 2.32206 33.7222 2.32206ZM17.7145 2.57063C17.6741 2.57063 17.6363 2.54758 17.6182 2.50807C17.5935 2.45538 17.6173 2.39199 17.6708 2.3673C17.8429 2.28827 18.0182 2.21089 18.1911 2.13762C18.2454 2.11457 18.308 2.14009 18.3302 2.1936C18.3533 2.24793 18.3286 2.3105 18.2742 2.33272C18.103 2.40599 17.9293 2.48255 17.7589 2.56075C17.7449 2.56734 17.7293 2.57063 17.7145 2.57063ZM34.7582 2.79526C34.7426 2.79526 34.7261 2.79196 34.7113 2.78455C34.5417 2.70141 34.3697 2.61991 34.1993 2.54253C34.1458 2.51783 34.1227 2.45527 34.1466 2.40176C34.1713 2.34825 34.2347 2.3252 34.2874 2.34908C34.4594 2.42728 34.6339 2.5096 34.8052 2.59357C34.8579 2.61991 34.8793 2.6833 34.8537 2.73598C34.8348 2.77385 34.7969 2.79526 34.7582 2.79526ZM16.6988 3.0723C16.6609 3.0723 16.6239 3.05172 16.605 3.0155C16.5778 2.96364 16.5975 2.89943 16.6494 2.87227C16.8173 2.78336 16.9877 2.6961 17.1565 2.61296C17.2092 2.58661 17.2726 2.60802 17.2989 2.6607C17.3244 2.71339 17.303 2.7776 17.2503 2.80312C17.0841 2.88544 16.9153 2.97187 16.749 3.05996C16.7326 3.06819 16.7161 3.0723 16.6988 3.0723ZM35.7654 3.32552C35.7473 3.32552 35.73 3.32141 35.7127 3.31235C35.5497 3.21933 35.3826 3.12795 35.2163 3.04069C35.1644 3.01353 35.1447 2.94932 35.1719 2.89746C35.199 2.84559 35.2632 2.82584 35.3151 2.853C35.483 2.94109 35.6518 3.03328 35.8172 3.12713C35.8683 3.15594 35.8864 3.22015 35.8576 3.27119C35.8378 3.30577 35.8024 3.32552 35.7654 3.32552ZM15.712 3.63114C15.6766 3.63114 15.6413 3.61303 15.6215 3.5801C15.591 3.52988 15.6067 3.46485 15.6569 3.43439C15.8191 3.33643 15.9845 3.23929 16.1492 3.14627C16.2002 3.11746 16.2644 3.13474 16.2941 3.18578C16.3229 3.23682 16.3048 3.30185 16.2537 3.33067C16.0907 3.42287 15.9269 3.51918 15.7672 3.61632C15.7499 3.6262 15.731 3.63114 15.712 3.63114ZM36.7389 3.91296C36.7191 3.91296 36.6994 3.9072 36.6821 3.89567C36.5232 3.79359 36.361 3.69316 36.2013 3.59685C36.1511 3.56639 36.1355 3.50135 36.1659 3.45114C36.1956 3.40092 36.2614 3.38446 36.3116 3.41492C36.473 3.51206 36.636 3.61413 36.7965 3.71703C36.8459 3.74914 36.8607 3.81417 36.8286 3.86357C36.808 3.89567 36.7743 3.91296 36.7389 3.91296ZM14.7599 4.24607C14.7253 4.24607 14.6924 4.2296 14.6718 4.19997C14.6389 4.1514 14.6512 4.08554 14.699 4.05261C14.8554 3.94477 15.0151 3.83858 15.1739 3.7365C15.2233 3.7044 15.2892 3.71839 15.3213 3.76778C15.3526 3.81718 15.3386 3.88303 15.2892 3.91514C15.132 4.01639 14.9739 4.12176 14.8191 4.22713C14.801 4.2403 14.7804 4.24607 14.7599 4.24607ZM37.6782 4.55459C37.6568 4.55459 37.6346 4.548 37.6157 4.53483C37.465 4.42452 37.3094 4.31504 37.1538 4.20884C37.1053 4.17591 37.0929 4.10923 37.1258 4.06149C37.1588 4.01292 37.2255 4.00057 37.2732 4.0335C37.4313 4.14134 37.5885 4.25165 37.7408 4.36278C37.7877 4.39736 37.7984 4.46404 37.7638 4.51096C37.7432 4.53977 37.7111 4.55459 37.6782 4.55459ZM13.8425 4.91459C13.8104 4.91459 13.7791 4.90059 13.7577 4.87343C13.7223 4.82651 13.7306 4.75983 13.7775 4.72443C13.9273 4.60836 14.0804 4.49311 14.2335 4.38197C14.2805 4.3474 14.3471 4.35728 14.3817 4.40502C14.4163 4.45195 14.4056 4.51863 14.3587 4.5532C14.2072 4.66351 14.0549 4.77711 13.9067 4.89236C13.8878 4.90718 13.8647 4.91459 13.8425 4.91459ZM38.5786 5.24903C38.5556 5.24903 38.5317 5.24162 38.5119 5.22516C38.3662 5.10662 38.2172 4.98808 38.0691 4.87365C38.023 4.83825 38.0139 4.77157 38.0501 4.72465C38.0855 4.67855 38.1522 4.6695 38.1991 4.70572C38.3489 4.82097 38.4996 4.94033 38.6461 5.06052C38.6914 5.09756 38.6988 5.16507 38.6609 5.21034C38.6404 5.23586 38.6099 5.24903 38.5786 5.24903ZM12.9644 5.6343C12.9348 5.6343 12.9052 5.62195 12.8846 5.59725C12.8459 5.55362 12.8508 5.48612 12.8945 5.44743C13.0385 5.32312 13.185 5.19964 13.3308 5.07945C13.376 5.04241 13.4435 5.049 13.4806 5.09427C13.5176 5.14037 13.511 5.20705 13.4658 5.2441C13.3209 5.36264 13.176 5.48447 13.0344 5.60795C13.0138 5.62524 12.9891 5.6343 12.9644 5.6343ZM39.4389 5.99262C39.4126 5.99262 39.3871 5.98274 39.3665 5.96463C39.229 5.83868 39.0874 5.71191 38.945 5.58842C38.9006 5.55056 38.8956 5.48305 38.9343 5.4386C38.9722 5.39415 39.0397 5.38921 39.0841 5.4279C39.2282 5.55303 39.3714 5.68062 39.5105 5.80822C39.5534 5.84773 39.5566 5.91441 39.5171 5.95804C39.4957 5.98109 39.4669 5.99262 39.4389 5.99262ZM12.1281 6.40214C12.1009 6.40214 12.0729 6.39144 12.0523 6.37004C12.0112 6.32805 12.012 6.26137 12.054 6.22021C12.1898 6.0885 12.3289 5.95597 12.4689 5.82754C12.5125 5.78803 12.5792 5.7905 12.6195 5.83413C12.659 5.87694 12.6557 5.94444 12.6129 5.98395C12.4746 6.11155 12.3363 6.24162 12.2022 6.37251C12.1816 6.39226 12.1552 6.40214 12.1281 6.40214ZM40.2538 6.7842C40.2259 6.7842 40.1987 6.7735 40.1781 6.75209C40.0456 6.61627 39.9114 6.48208 39.778 6.35284C39.7361 6.31168 39.7344 6.245 39.7756 6.20219C39.8167 6.16021 39.8834 6.15939 39.9254 6.20055C40.0604 6.33061 40.1962 6.46644 40.3296 6.60392C40.3707 6.6459 40.3699 6.71258 40.3279 6.75374C40.3074 6.7735 40.2802 6.7842 40.2538 6.7842ZM11.3367 7.21691C11.3111 7.21691 11.2856 7.20786 11.265 7.18893C11.2214 7.14941 11.2189 7.08273 11.2584 7.0391C11.3869 6.89916 11.5186 6.75921 11.6503 6.62421C11.6915 6.58222 11.759 6.58058 11.8009 6.62174C11.8429 6.6629 11.8437 6.72958 11.8026 6.77156C11.6725 6.90574 11.5425 7.04404 11.4149 7.18234C11.3943 7.20539 11.3655 7.21691 11.3367 7.21691ZM41.0225 7.61942C40.9928 7.61942 40.9632 7.60707 40.9426 7.58238C40.8191 7.44161 40.6923 7.29919 40.5656 7.16172C40.5261 7.11891 40.5285 7.05141 40.5722 7.01189C40.615 6.97238 40.6825 6.97485 40.722 7.01766C40.8504 7.1576 40.978 7.30084 41.1023 7.44325C41.141 7.48771 41.1361 7.55439 41.0916 7.59308C41.0718 7.61036 41.0471 7.61942 41.0225 7.61942ZM10.5921 8.07638C10.5683 8.07638 10.5444 8.06815 10.5246 8.05251C10.4794 8.01464 10.4728 7.94796 10.5098 7.90269C10.6292 7.75698 10.7527 7.60962 10.8778 7.46556C10.9165 7.42111 10.9832 7.41617 11.0276 7.45486C11.0721 7.49355 11.077 7.56023 11.0383 7.60469C10.9148 7.7471 10.7922 7.89281 10.6745 8.03687C10.6531 8.06321 10.6226 8.07638 10.5921 8.07638ZM41.7422 8.49703C41.7109 8.49703 41.6796 8.48303 41.6582 8.45586C41.5446 8.30933 41.4269 8.16033 41.3067 8.01463C41.2697 7.96853 41.2762 7.90185 41.3215 7.8648C41.3668 7.82776 41.4335 7.83434 41.4713 7.87962C41.5923 8.02697 41.7117 8.17762 41.8261 8.3258C41.8624 8.3719 41.8541 8.43858 41.8072 8.4748C41.7883 8.48962 41.7652 8.49703 41.7422 8.49703ZM9.89789 8.97637C9.87649 8.97637 9.85508 8.96978 9.83615 8.95579C9.7884 8.92121 9.7777 8.85536 9.81228 8.80761C9.92423 8.65367 10.0395 8.49973 10.1547 8.35073C10.191 8.30381 10.2576 8.29558 10.3037 8.33098C10.3507 8.3672 10.3589 8.43388 10.3235 8.47998C10.2091 8.62815 10.0946 8.78045 9.98433 8.93274C9.96375 8.96155 9.93082 8.97637 9.89789 8.97637ZM42.4109 9.41333C42.3772 9.41333 42.3434 9.39769 42.3228 9.36805C42.2175 9.21329 42.108 9.05853 41.9968 8.90706C41.9623 8.85931 41.973 8.79345 42.0207 8.75888C42.0676 8.7243 42.1343 8.73418 42.1689 8.78193C42.2809 8.93505 42.3912 9.09145 42.4982 9.24704C42.5311 9.29561 42.5196 9.36147 42.471 9.39522C42.4529 9.40757 42.4315 9.41333 42.4109 9.41333ZM9.2563 9.91453C9.23655 9.91453 9.21679 9.90877 9.1995 9.89807C9.15011 9.86596 9.13529 9.80011 9.1674 9.75072C9.2703 9.59101 9.37649 9.43049 9.48351 9.2749C9.51643 9.22633 9.58229 9.21399 9.63086 9.24691C9.67943 9.27984 9.69178 9.34652 9.65885 9.39427C9.55266 9.54903 9.44811 9.70709 9.34603 9.86596C9.32545 9.89725 9.2917 9.91453 9.2563 9.91453ZM43.0265 10.3665C42.9911 10.3665 42.9557 10.3484 42.9359 10.3155C42.8388 10.155 42.7375 9.99361 42.6363 9.8372C42.605 9.78781 42.619 9.72196 42.6684 9.69067C42.7178 9.65857 42.7836 9.67256 42.8149 9.72196C42.917 9.88083 43.0191 10.043 43.117 10.2052C43.1475 10.2554 43.1318 10.3204 43.0816 10.3509C43.0643 10.3616 43.0454 10.3665 43.0265 10.3665ZM8.66791 10.8886C8.65063 10.8886 8.63252 10.8844 8.61605 10.8754C8.56501 10.8466 8.5469 10.7815 8.57572 10.7305C8.66956 10.565 8.7667 10.3988 8.86384 10.2366C8.8943 10.1864 8.95933 10.1699 9.01037 10.2004C9.06058 10.2308 9.07622 10.2959 9.04576 10.3461C8.94945 10.5066 8.85314 10.6712 8.76011 10.8351C8.74118 10.8696 8.70496 10.8886 8.66791 10.8886ZM43.5853 11.3528C43.5474 11.3528 43.5103 11.3323 43.4914 11.296C43.4033 11.1297 43.312 10.9635 43.2198 10.8021C43.1909 10.7511 43.2091 10.686 43.2601 10.6572C43.3111 10.6284 43.3762 10.6457 43.405 10.6967C43.498 10.8606 43.5902 11.0285 43.6791 11.1964C43.7063 11.2483 43.6865 11.3125 43.6347 11.3397C43.619 11.3487 43.6017 11.3528 43.5853 11.3528ZM8.137 11.8952C8.12136 11.8952 8.1049 11.8919 8.09008 11.8845C8.03739 11.8582 8.01599 11.7948 8.04151 11.7421C8.12548 11.5717 8.21274 11.3996 8.30164 11.2325C8.32881 11.1807 8.39302 11.1609 8.44488 11.1881C8.49674 11.2152 8.5165 11.2795 8.48933 11.3313C8.40207 11.4968 8.31564 11.6672 8.23249 11.8359C8.21356 11.8738 8.17569 11.8952 8.137 11.8952ZM44.0877 12.368C44.0474 12.368 44.0087 12.3449 43.9914 12.3063C43.9132 12.1375 43.8317 11.9663 43.7485 11.7975C43.723 11.7448 43.7444 11.6814 43.7971 11.6559C43.849 11.6296 43.9132 11.651 43.9387 11.7037C44.0235 11.8733 44.1058 12.0469 44.184 12.2174C44.2087 12.2709 44.1857 12.3342 44.1322 12.3589C44.1173 12.3655 44.1025 12.368 44.0877 12.368ZM7.66375 12.9306C7.65057 12.9306 7.63658 12.9281 7.62259 12.9224C7.56908 12.8993 7.54356 12.8376 7.56661 12.7833C7.63987 12.6079 7.71808 12.4317 7.79628 12.2589C7.82098 12.2062 7.88354 12.1823 7.93705 12.207C7.99056 12.2309 8.01443 12.2943 7.98973 12.347C7.91153 12.5182 7.83497 12.6927 7.76171 12.8656C7.74524 12.9067 7.70573 12.9306 7.66375 12.9306ZM44.5311 13.4103C44.4883 13.4103 44.4488 13.3848 44.4323 13.3428C44.3648 13.1699 44.2932 12.9946 44.2191 12.8217C44.1969 12.7674 44.2215 12.7056 44.2759 12.6826C44.3294 12.6595 44.392 12.6851 44.415 12.7386C44.4891 12.9139 44.5615 13.0909 44.6299 13.2654C44.6513 13.3206 44.6241 13.3815 44.5698 13.4029C44.5574 13.4078 44.5442 13.4103 44.5311 13.4103ZM7.25086 13.9928C7.23933 13.9928 7.22698 13.9912 7.21546 13.987C7.1603 13.9673 7.13149 13.9064 7.15125 13.8512C7.21464 13.6726 7.28214 13.4915 7.35046 13.3145C7.37187 13.2601 7.43361 13.233 7.48794 13.2536C7.54309 13.275 7.57026 13.3367 7.54886 13.391C7.48053 13.5672 7.41385 13.7458 7.35129 13.9228C7.33565 13.9665 7.29449 13.9928 7.25086 13.9928ZM44.9143 14.4793C44.8698 14.4793 44.8278 14.4513 44.813 14.406C44.7554 14.2282 44.6936 14.0488 44.6303 13.8718C44.6105 13.8166 44.6393 13.7557 44.6945 13.736C44.7496 13.7162 44.8105 13.745 44.8303 13.8002C44.8945 13.9788 44.9562 14.1607 45.0155 14.3402C45.0336 14.3962 45.0032 14.4563 44.9472 14.4744C44.9365 14.4777 44.925 14.4793 44.9143 14.4793ZM6.90083 15.0765C6.89095 15.0765 6.88025 15.0749 6.87037 15.0716C6.81439 15.0551 6.78228 14.9967 6.79875 14.9399C6.85143 14.7588 6.90823 14.5752 6.96668 14.3941C6.98479 14.3389 7.04406 14.3085 7.10004 14.3257C7.15602 14.3439 7.18648 14.404 7.16837 14.4599C7.11074 14.6394 7.05476 14.8205 7.00208 15C6.98891 15.0461 6.94692 15.0765 6.90083 15.0765ZM45.2361 15.5697C45.1883 15.5697 45.1455 15.5384 45.1332 15.4907C45.0854 15.3087 45.0336 15.126 44.9809 14.9465C44.9644 14.8897 44.9965 14.8313 45.0525 14.814C45.1093 14.7975 45.1686 14.8296 45.185 14.8864C45.2385 15.0675 45.2896 15.2527 45.3381 15.4363C45.3538 15.4931 45.3192 15.5507 45.2632 15.5656C45.2542 15.568 45.2451 15.5697 45.2361 15.5697ZM6.61424 16.1755C6.60683 16.1755 6.5986 16.1746 6.59037 16.173C6.53357 16.159 6.49735 16.1022 6.51052 16.0454C6.55333 15.861 6.5986 15.6749 6.64717 15.4905C6.66199 15.4337 6.71961 15.4 6.77641 15.4148C6.83321 15.4296 6.86697 15.4873 6.85215 15.5441C6.80523 15.7268 6.75995 15.9112 6.71797 16.0931C6.70644 16.1417 6.66281 16.1755 6.61424 16.1755ZM45.4941 16.6749C45.4447 16.6749 45.4002 16.6403 45.3903 16.5901C45.3533 16.4073 45.313 16.2221 45.2701 16.0385C45.2562 15.9809 45.2915 15.9241 45.3492 15.9109C45.406 15.8978 45.4636 15.9332 45.4768 15.99C45.5204 16.1752 45.5607 16.3629 45.5986 16.5481C45.6101 16.6057 45.5731 16.6617 45.5155 16.6732L45.4941 16.6749ZM6.39027 17.2894L6.37216 17.2877C6.31453 17.2779 6.27584 17.2227 6.28572 17.1651C6.317 16.9782 6.3524 16.7897 6.38944 16.6037C6.40097 16.546 6.45695 16.509 6.51457 16.5205C6.57219 16.532 6.60924 16.588 6.59771 16.6456C6.56067 16.8292 6.52609 17.0161 6.49481 17.2013C6.48576 17.2523 6.4413 17.2894 6.39027 17.2894ZM45.689 17.7942C45.6363 17.7942 45.591 17.7563 45.5836 17.7028C45.5564 17.5168 45.5268 17.3291 45.4947 17.1455C45.4848 17.0871 45.5235 17.0327 45.5811 17.022C45.6388 17.0122 45.6939 17.0509 45.7046 17.1085C45.7367 17.2954 45.7672 17.4847 45.7935 17.6732C45.8026 17.7308 45.7622 17.7852 45.7038 17.7934L45.689 17.7942ZM6.23236 18.4134L6.22001 18.4126C6.16157 18.406 6.11958 18.3533 6.12617 18.2957C6.14757 18.1072 6.17144 17.917 6.19861 17.7293C6.20684 17.6709 6.26035 17.6314 6.31797 17.6388C6.37642 17.647 6.41676 17.7005 6.40853 17.759C6.38218 17.9442 6.35831 18.1327 6.33773 18.3187C6.33115 18.3731 6.28505 18.4134 6.23236 18.4134ZM45.8194 18.923C45.7651 18.923 45.7182 18.881 45.7132 18.8259C45.6976 18.6382 45.6778 18.4497 45.6564 18.2636C45.6499 18.2052 45.6918 18.1525 45.7503 18.1459C45.8087 18.1393 45.8614 18.1813 45.868 18.2397C45.8894 18.4266 45.9083 18.6176 45.9248 18.8078C45.9306 18.8662 45.8869 18.9172 45.8285 18.9222L45.8194 18.923ZM6.1381 19.5458H6.13234C6.07389 19.5425 6.02861 19.4923 6.03191 19.4339C6.04261 19.2454 6.05578 19.0535 6.07142 18.8642C6.07636 18.8058 6.12822 18.7638 6.18667 18.7671C6.24512 18.772 6.28875 18.8239 6.28381 18.8823C6.26817 19.0692 6.255 19.2585 6.24429 19.4454C6.241 19.5022 6.19408 19.5458 6.1381 19.5458ZM45.8855 20.0574C45.8278 20.0574 45.7809 20.0113 45.7793 19.9536C45.7735 19.7676 45.7653 19.5774 45.7546 19.3889C45.7513 19.3313 45.7957 19.2803 45.8542 19.277C45.9126 19.272 45.9628 19.3181 45.9661 19.3774C45.9777 19.5676 45.9859 19.7594 45.9916 19.9479C45.9933 20.0063 45.9472 20.0549 45.8887 20.0565L45.8855 20.0574ZM6.10619 20.6813C6.04775 20.6813 6 20.6336 6 20.5751V20.5562C6 20.3726 6.00247 20.1865 6.00741 20.0038C6.00906 19.9453 6.0568 19.8968 6.11607 19.9009C6.17534 19.9025 6.22144 19.9511 6.2198 20.0096C6.21486 20.1907 6.21239 20.3742 6.21239 20.5562V20.5751C6.21239 20.6336 6.16464 20.6813 6.10619 20.6813ZM45.8855 21.2305H45.8831C45.8238 21.2289 45.7777 21.1795 45.7793 21.1211C45.7851 20.9325 45.7876 20.7424 45.7876 20.5563V20.5185C45.7876 20.46 45.8353 20.4123 45.8938 20.4123C45.9522 20.4123 46 20.46 46 20.5185V20.5563C46 20.7449 45.9975 20.9367 45.9917 21.1268C45.9901 21.1844 45.9432 21.2305 45.8855 21.2305ZM6.13972 21.8164C6.08374 21.8164 6.03682 21.7727 6.03353 21.7159C6.02283 21.5266 6.01459 21.3348 6.00883 21.1455C6.00719 21.087 6.05328 21.0384 6.11256 21.0368H6.11502C6.17265 21.0368 6.21957 21.0821 6.22122 21.1397C6.22698 21.3266 6.23521 21.5167 6.24591 21.7044C6.24921 21.7629 6.20393 21.8131 6.14548 21.8164H6.13972ZM45.8229 22.3643H45.8138C45.7554 22.3594 45.7118 22.3084 45.7167 22.2499C45.7332 22.0614 45.7463 21.8721 45.7562 21.686C45.7595 21.6276 45.8105 21.5848 45.8682 21.5856C45.9274 21.5889 45.9719 21.6391 45.9686 21.6975C45.9579 21.8861 45.9447 22.0779 45.9283 22.2672C45.9241 22.3232 45.8772 22.3643 45.8229 22.3643ZM6.23628 22.9482C6.1836 22.9482 6.1375 22.9078 6.13091 22.8535C6.10951 22.665 6.09058 22.4732 6.07411 22.2855C6.06917 22.2271 6.1128 22.176 6.17125 22.1711C6.2297 22.1653 6.28074 22.2089 6.28567 22.2674C6.30214 22.4534 6.32107 22.6428 6.34248 22.8296C6.34906 22.8881 6.30708 22.9408 6.24863 22.9474L6.23628 22.9482ZM45.6941 23.4924L45.6793 23.4916C45.6217 23.4834 45.5814 23.4299 45.5888 23.3714C45.6159 23.1854 45.6398 22.9969 45.6612 22.8116C45.6678 22.7532 45.7197 22.7104 45.7781 22.7178C45.8366 22.7244 45.8785 22.7771 45.8719 22.8355C45.8505 23.0224 45.8259 23.2134 45.7995 23.4019C45.7921 23.4546 45.7468 23.4924 45.6941 23.4924ZM6.39716 24.0733C6.34694 24.0733 6.30166 24.0371 6.29261 23.9852C6.2605 23.7975 6.23087 23.6074 6.2037 23.4213C6.19547 23.3629 6.23581 23.3094 6.29425 23.3011C6.35188 23.2929 6.40539 23.3324 6.41444 23.3909C6.44078 23.5753 6.47042 23.7629 6.50253 23.949C6.5124 24.0066 6.47371 24.0618 6.41527 24.0716L6.39716 24.0733ZM45.5022 24.6126L45.4808 24.6109C45.4231 24.5994 45.3861 24.5434 45.3976 24.4858C45.4347 24.3022 45.4692 24.1154 45.5013 23.9301C45.5112 23.8725 45.5672 23.8338 45.624 23.8437C45.6816 23.8536 45.7203 23.9087 45.7104 23.9664C45.6783 24.1532 45.6429 24.3426 45.6059 24.5278C45.596 24.578 45.5515 24.6126 45.5022 24.6126ZM6.62283 25.1864C6.57509 25.1864 6.53146 25.1535 6.51993 25.1041C6.4763 24.9197 6.43596 24.732 6.3981 24.5467C6.38657 24.4891 6.42362 24.4331 6.48124 24.4216C6.53886 24.4101 6.59484 24.4471 6.60637 24.5039C6.64341 24.6875 6.68375 24.8736 6.72655 25.0563C6.73973 25.1131 6.70433 25.1707 6.64753 25.1839C6.63929 25.1856 6.63106 25.1864 6.62283 25.1864ZM45.2455 25.7197C45.2364 25.7197 45.2282 25.718 45.2192 25.7164C45.1623 25.7015 45.1278 25.6431 45.1426 25.5863C45.1903 25.406 45.2356 25.2208 45.2784 25.038C45.2916 24.9804 45.3484 24.945 45.406 24.9582C45.4628 24.9714 45.4982 25.029 45.485 25.0858C45.4422 25.271 45.3961 25.457 45.3484 25.6398C45.336 25.6875 45.2932 25.7197 45.2455 25.7197ZM6.91195 26.2852C6.86667 26.2852 6.82386 26.2547 6.81069 26.2086C6.75718 26.0267 6.70532 25.8415 6.65758 25.6587C6.64193 25.6019 6.67651 25.5435 6.73331 25.5287C6.79011 25.5138 6.84774 25.5476 6.86255 25.6044C6.9103 25.7855 6.96134 25.9683 7.01402 26.1485C7.03049 26.2053 6.99838 26.2638 6.9424 26.2811C6.93253 26.2835 6.92265 26.2852 6.91195 26.2852ZM44.9257 26.809C44.915 26.809 44.9043 26.8074 44.8928 26.8041C44.8377 26.786 44.8064 26.7259 44.8245 26.6699C44.8829 26.4921 44.9389 26.311 44.9916 26.1307C45.0081 26.0739 45.0673 26.0418 45.1233 26.0583C45.1793 26.0747 45.2122 26.134 45.1958 26.19C45.1422 26.3727 45.0854 26.5563 45.027 26.7358C45.0122 26.781 44.971 26.809 44.9257 26.809ZM7.26369 27.3653C7.22006 27.3653 7.1789 27.3382 7.16326 27.2945C7.09905 27.1151 7.03731 26.934 6.97886 26.7545C6.96075 26.6985 6.99121 26.6385 7.04718 26.6203C7.10234 26.6022 7.16243 26.6327 7.18054 26.6887C7.23817 26.8657 7.29991 27.0459 7.36329 27.2238C7.38305 27.2789 7.35424 27.339 7.29908 27.3588C7.28756 27.3637 7.27521 27.3653 7.26369 27.3653ZM44.5426 27.883C44.5295 27.883 44.5171 27.8806 44.5039 27.8756C44.4496 27.855 44.4224 27.7933 44.4438 27.7381C44.5122 27.562 44.5788 27.3833 44.6414 27.2072C44.6612 27.152 44.7221 27.1232 44.7772 27.143C44.8324 27.1627 44.8612 27.2236 44.8415 27.2788C44.7781 27.4566 44.7106 27.6377 44.6414 27.8155C44.625 27.8575 44.5854 27.883 44.5426 27.883ZM7.67672 28.4213C7.63556 28.4213 7.59605 28.3974 7.57876 28.357C7.5055 28.1833 7.43306 28.0055 7.36391 27.8294C7.34333 27.775 7.36967 27.7133 7.42482 27.6919C7.47916 27.6705 7.5409 27.6977 7.5623 27.752C7.6298 27.9265 7.70142 28.1018 7.77469 28.2739C7.79691 28.3282 7.77222 28.39 7.71788 28.413C7.70471 28.4188 7.69072 28.4213 7.67672 28.4213ZM44.0997 28.9315C44.0849 28.9315 44.0692 28.929 44.0552 28.9224C44.0017 28.8977 43.9787 28.8343 44.0026 28.7817C44.0816 28.6096 44.1581 28.4351 44.2314 28.263C44.2536 28.2087 44.3162 28.184 44.3705 28.2062C44.424 28.2293 44.4496 28.2919 44.4265 28.3454C44.3532 28.5199 44.275 28.6961 44.196 28.8697C44.1779 28.9084 44.14 28.9315 44.0997 28.9315ZM8.14759 29.4513C8.1089 29.4513 8.07103 29.4299 8.0521 29.392C7.96895 29.2233 7.88663 29.0504 7.80761 28.8775C7.78291 28.8248 7.80678 28.7614 7.86029 28.7367C7.91298 28.7129 7.97636 28.7359 8.00106 28.7894C8.07926 28.9598 8.16076 29.1311 8.24308 29.2982C8.2686 29.3509 8.2472 29.4142 8.19451 29.4406C8.17969 29.448 8.16323 29.4513 8.14759 29.4513ZM43.5958 29.9533C43.5793 29.9533 43.562 29.9491 43.5464 29.9409C43.4945 29.9129 43.4748 29.8487 43.5019 29.7969C43.59 29.6306 43.6773 29.461 43.7596 29.293C43.7859 29.2404 43.8493 29.219 43.902 29.2445C43.9547 29.2708 43.9761 29.3342 43.9497 29.3869C43.8666 29.5565 43.7793 29.7277 43.6896 29.8965C43.6707 29.9327 43.6336 29.9533 43.5958 29.9533ZM8.67734 30.4529C8.64029 30.4529 8.60407 30.4331 8.58514 30.3986C8.49129 30.2339 8.39909 30.066 8.31101 29.8989C8.28384 29.847 8.3036 29.7828 8.35546 29.7556C8.40733 29.7285 8.47153 29.7482 8.4987 29.8001C8.58596 29.9647 8.67734 30.131 8.76953 30.294C8.79835 30.345 8.78024 30.4101 8.7292 30.4389C8.71273 30.448 8.69545 30.4529 8.67734 30.4529ZM43.0353 30.9431C43.0164 30.9431 42.9974 30.9389 42.9801 30.9282C42.9299 30.8978 42.9143 30.8328 42.9447 30.7825C43.0419 30.622 43.1374 30.4574 43.2304 30.2936C43.2592 30.2433 43.3242 30.2252 43.3753 30.254C43.4263 30.2829 43.4444 30.3479 43.4156 30.3989C43.3218 30.5644 43.2246 30.7299 43.1258 30.892C43.1061 30.925 43.0715 30.9431 43.0353 30.9431ZM9.26544 31.4237C9.23087 31.4237 9.1963 31.4064 9.17572 31.3743C9.07364 31.2154 8.97238 31.0532 8.87442 30.891C8.84397 30.8408 8.85961 30.7758 8.90982 30.7453C8.96004 30.7149 9.02507 30.7313 9.05553 30.7816C9.15267 30.9413 9.2531 31.1026 9.35435 31.2598C9.38646 31.3092 9.37246 31.3743 9.32307 31.4064C9.30496 31.4179 9.2852 31.4237 9.26544 31.4237ZM42.419 31.8994C42.3976 31.8994 42.377 31.8929 42.3589 31.8805C42.3103 31.8476 42.298 31.7817 42.3309 31.7332C42.4371 31.5784 42.5425 31.4195 42.6446 31.2623C42.6758 31.2129 42.7417 31.1989 42.7911 31.2302C42.8405 31.2623 42.8545 31.3281 42.8232 31.3767C42.7203 31.5364 42.6133 31.6969 42.5063 31.8533C42.4857 31.883 42.4528 31.8994 42.419 31.8994ZM9.90611 32.3591C9.87318 32.3591 9.84108 32.3442 9.81967 32.3154C9.70937 32.164 9.59823 32.0067 9.49122 31.8495C9.45747 31.8017 9.46981 31.7351 9.51838 31.7021C9.56695 31.6692 9.63281 31.6816 9.66574 31.7301C9.77275 31.8849 9.88224 32.0405 9.99172 32.1903C10.0263 32.238 10.0156 32.3047 9.96867 32.3393C9.94974 32.3525 9.92751 32.3591 9.90611 32.3591ZM41.749 32.8178C41.7267 32.8178 41.7037 32.8104 41.6839 32.7956C41.6378 32.7602 41.6296 32.6935 41.665 32.6466C41.7794 32.4992 41.8939 32.347 42.005 32.1947C42.0387 32.1469 42.1054 32.137 42.1532 32.1716C42.2001 32.2062 42.2108 32.272 42.1762 32.3198C42.0643 32.4737 41.949 32.6277 41.8329 32.7767C41.8124 32.8038 41.7811 32.8178 41.749 32.8178ZM10.6 33.2567C10.5687 33.2567 10.5382 33.2435 10.5176 33.218C10.3966 33.0706 10.2773 32.9208 10.162 32.7718C10.1266 32.7249 10.1349 32.6582 10.1818 32.6228C10.2279 32.5866 10.2946 32.5948 10.3308 32.6417C10.4444 32.7891 10.5621 32.9381 10.6815 33.0838C10.7185 33.1291 10.7119 33.1957 10.6666 33.2328C10.6469 33.2493 10.623 33.2567 10.6 33.2567ZM41.0288 33.6976C41.0041 33.6976 40.9794 33.6893 40.9597 33.6721C40.9152 33.6334 40.9103 33.5659 40.949 33.5222C41.0716 33.3798 41.1943 33.2349 41.3136 33.09C41.3507 33.0448 41.4174 33.0374 41.4626 33.0752C41.5079 33.1123 41.5145 33.1789 41.4775 33.2242C41.3573 33.3708 41.2338 33.5181 41.1095 33.6613C41.0881 33.6852 41.0584 33.6976 41.0288 33.6976ZM11.3433 34.1144C11.3144 34.1144 11.2865 34.1029 11.2651 34.0807C11.1375 33.9416 11.0099 33.7983 10.8856 33.6543C10.8469 33.6098 10.8518 33.5431 10.8954 33.5045C10.9399 33.4666 11.0074 33.4707 11.0453 33.5152C11.1687 33.6576 11.2955 33.7992 11.4215 33.9366C11.461 33.9803 11.4585 34.0469 11.4149 34.0865C11.3951 34.1054 11.3688 34.1144 11.3433 34.1144ZM40.2599 34.5337C40.2336 34.5337 40.2064 34.5238 40.1858 34.504C40.1438 34.4629 40.143 34.3954 40.1842 34.3534C40.3151 34.2192 40.4451 34.0809 40.5719 33.9434C40.6122 33.8998 40.6789 33.8973 40.7225 33.9368C40.7654 33.9763 40.7686 34.0438 40.7283 34.0867C40.6007 34.2266 40.4682 34.3657 40.3365 34.5015C40.3159 34.5229 40.2879 34.5337 40.2599 34.5337ZM12.1353 34.9293C12.1081 34.9293 12.0818 34.9194 12.0612 34.8989C11.9253 34.7671 11.7895 34.6313 11.6578 34.4955C11.6166 34.4535 11.6175 34.386 11.6595 34.3448C11.7014 34.3045 11.7689 34.3053 11.8101 34.3473C11.941 34.4823 12.0752 34.6165 12.2093 34.7466C12.2513 34.7877 12.2522 34.8544 12.211 34.8972C12.1904 34.9186 12.1633 34.9293 12.1353 34.9293ZM39.4448 35.3255C39.4168 35.3255 39.388 35.3139 39.3666 35.2909C39.327 35.2473 39.3303 35.1806 39.3731 35.1411C39.5106 35.0143 39.6489 34.8842 39.7839 34.7533C39.8259 34.7122 39.8934 34.713 39.9346 34.755C39.9749 34.797 39.9741 34.8645 39.9321 34.9056C39.7954 35.0373 39.6563 35.1699 39.5172 35.2975C39.4966 35.3156 39.4711 35.3255 39.4448 35.3255ZM12.9716 35.6976C12.9477 35.6976 12.9222 35.6893 12.9025 35.672C12.7584 35.5469 12.6152 35.4193 12.476 35.2909C12.4332 35.2514 12.4299 35.1847 12.4703 35.1411C12.5098 35.0983 12.5765 35.095 12.6201 35.1353C12.7576 35.2613 12.8992 35.388 13.0416 35.5115C13.086 35.5494 13.091 35.6169 13.0523 35.6613C13.0309 35.6852 13.0021 35.6976 12.9716 35.6976ZM38.5868 36.0685C38.5563 36.0685 38.5259 36.0554 38.5045 36.0299C38.4674 35.9838 38.474 35.9171 38.5193 35.88C38.665 35.7607 38.8107 35.6388 38.9515 35.5162C38.9959 35.4783 39.0626 35.4824 39.1013 35.5269C39.14 35.5713 39.135 35.6388 39.0906 35.6767C38.9482 35.8002 38.8008 35.9245 38.6543 36.0447C38.6345 36.0603 38.6106 36.0685 38.5868 36.0685ZM13.8516 36.4175C13.8286 36.4175 13.8063 36.4101 13.7866 36.3953C13.6368 36.2792 13.4861 36.1598 13.3396 36.0396C13.2943 36.0026 13.2877 35.9351 13.3248 35.8898C13.3618 35.8445 13.4285 35.838 13.4738 35.875C13.6195 35.9935 13.7676 36.1121 13.9166 36.2273C13.9627 36.2627 13.971 36.3294 13.9356 36.3763C13.915 36.4027 13.8829 36.4175 13.8516 36.4175ZM37.6889 36.7619C37.656 36.7619 37.6239 36.7471 37.6024 36.7183C37.5687 36.6706 37.5786 36.6047 37.6263 36.5701C37.7778 36.4598 37.9301 36.3454 38.0783 36.2318C38.1244 36.1956 38.191 36.2038 38.2264 36.2507C38.2627 36.2968 38.2544 36.3635 38.2075 36.3997C38.0585 36.515 37.9046 36.6302 37.7514 36.7414C37.7325 36.7553 37.7103 36.7619 37.6889 36.7619ZM14.7704 37.0861C14.7498 37.0861 14.7292 37.0803 14.7111 37.0679C14.5547 36.9609 14.3983 36.8498 14.2444 36.7378C14.1966 36.7033 14.1859 36.6374 14.2205 36.5897C14.2551 36.5419 14.3217 36.532 14.3687 36.5666C14.521 36.6769 14.6765 36.7872 14.8305 36.8926C14.879 36.9255 14.8914 36.9922 14.8585 37.04C14.8379 37.0704 14.8041 37.0861 14.7704 37.0861ZM36.7529 37.403C36.7175 37.403 36.6837 37.3857 36.6631 37.3536C36.6318 37.3042 36.6458 37.2392 36.6952 37.2071C36.8516 37.1066 37.0097 37.0013 37.1653 36.8951C37.213 36.8621 37.2797 36.8745 37.3126 36.9231C37.3456 36.9708 37.3332 37.0375 37.2855 37.0704C37.1282 37.1782 36.9685 37.2836 36.8105 37.3857C36.7924 37.3972 36.7726 37.403 36.7529 37.403ZM15.7272 37.7017C15.7091 37.7017 15.6902 37.6968 15.6729 37.6869C15.5107 37.5889 15.3477 37.4868 15.1872 37.3839C15.1378 37.3527 15.1238 37.2868 15.1559 37.2374C15.1872 37.188 15.2531 37.174 15.3025 37.2053C15.4613 37.3074 15.6227 37.4086 15.7824 37.505C15.8326 37.5354 15.8491 37.6004 15.8186 37.6507C15.7988 37.6836 15.7634 37.7017 15.7272 37.7017ZM35.783 37.9894C35.746 37.9894 35.7097 37.9697 35.69 37.9351C35.6612 37.8841 35.6793 37.819 35.7303 37.7902C35.8933 37.698 36.0571 37.6025 36.2168 37.5062C36.267 37.4758 36.3329 37.4914 36.3634 37.5416C36.393 37.5918 36.3773 37.6577 36.3271 37.6882C36.165 37.7853 35.9995 37.8824 35.8349 37.9755C35.8184 37.9845 35.8003 37.9894 35.783 37.9894ZM16.7171 38.2629C16.7006 38.2629 16.6833 38.2587 16.6677 38.2505C16.5014 38.1624 16.3326 38.0702 16.1663 37.9764C16.1153 37.9476 16.0972 37.8825 16.126 37.8315C16.1548 37.7805 16.2199 37.7624 16.2709 37.7912C16.4347 37.8842 16.6018 37.9756 16.7673 38.0628C16.8191 38.09 16.8389 38.1542 16.8117 38.2061C16.792 38.2423 16.7558 38.2629 16.7171 38.2629ZM34.7804 38.5184C34.7409 38.5184 34.703 38.497 34.6849 38.4591C34.6586 38.4064 34.6808 38.3431 34.7335 38.3167C34.9014 38.2344 35.0702 38.148 35.2348 38.0607C35.2867 38.0335 35.3509 38.0533 35.3789 38.1052C35.4061 38.157 35.3863 38.2212 35.3344 38.2484C35.1673 38.3373 34.9969 38.4237 34.8273 38.5077C34.8117 38.5151 34.7961 38.5184 34.7804 38.5184ZM17.7394 38.7656C17.7246 38.7656 17.7098 38.7623 17.6958 38.7557C17.5229 38.6767 17.3492 38.5943 17.178 38.5104C17.1262 38.4849 17.1039 38.4207 17.1303 38.368C17.1558 38.3161 17.22 38.2939 17.2719 38.3202C17.4406 38.4025 17.6127 38.4849 17.7839 38.5631C17.8374 38.5869 17.8604 38.6503 17.8366 38.703C17.8185 38.7425 17.7798 38.7656 17.7394 38.7656ZM33.7515 38.9909C33.7095 38.9909 33.67 38.9662 33.6535 38.9259C33.6305 38.8715 33.656 38.8098 33.7095 38.7867C33.8799 38.7143 34.0536 38.6386 34.2248 38.5595C34.2783 38.5357 34.3417 38.5587 34.3656 38.6122C34.3903 38.6657 34.3664 38.7283 34.3137 38.753C34.14 38.832 33.9647 38.9094 33.7926 38.9818C33.7786 38.9876 33.7647 38.9909 33.7515 38.9909ZM18.7889 39.2084C18.7758 39.2084 18.7626 39.2067 18.7502 39.2018C18.5732 39.1326 18.3946 39.0602 18.2193 38.9861C18.1658 38.963 18.1402 38.9013 18.1633 38.847C18.1855 38.7935 18.2481 38.7679 18.3024 38.7902C18.4753 38.8634 18.6523 38.9359 18.8268 39.0034C18.8819 39.0248 18.9091 39.0865 18.8877 39.1408C18.8712 39.1828 18.8309 39.2084 18.7889 39.2084ZM32.6945 39.4021C32.6509 39.4021 32.6098 39.3749 32.5941 39.3321C32.5744 39.2769 32.6032 39.216 32.6591 39.1963C32.8345 39.1329 33.0123 39.067 33.1885 38.9987C33.2428 38.9773 33.3045 39.0036 33.3259 39.0588C33.3465 39.1131 33.3202 39.1748 33.265 39.1963C33.088 39.2654 32.9078 39.3329 32.7299 39.3963C32.7184 39.4004 32.7061 39.4021 32.6945 39.4021ZM19.8617 39.5912C19.851 39.5912 19.8395 39.5896 19.8287 39.5863C19.6485 39.5278 19.4657 39.4653 19.2863 39.4019C19.2311 39.3821 19.2023 39.3212 19.222 39.2661C19.2418 39.2109 19.3019 39.1821 19.3579 39.2019C19.5349 39.2644 19.7151 39.3262 19.8938 39.3838C19.9498 39.4019 19.9802 39.462 19.9629 39.518C19.9481 39.5624 19.9061 39.5912 19.8617 39.5912ZM31.6137 39.7534C31.5676 39.7534 31.5248 39.723 31.5116 39.6769C31.4952 39.6209 31.5273 39.5616 31.5833 39.5452C31.7644 39.4925 31.9455 39.4357 32.1233 39.3781C32.1793 39.3599 32.2393 39.3904 32.2575 39.4464C32.2756 39.5024 32.2451 39.5625 32.1891 39.5806C32.0097 39.6382 31.8261 39.695 31.6434 39.7493C31.6335 39.7518 31.6236 39.7534 31.6137 39.7534ZM20.9516 39.9108C20.9434 39.9108 20.9343 39.9091 20.9253 39.9066C20.7409 39.8589 20.5556 39.8079 20.3745 39.7544C20.3186 39.7379 20.2856 39.6786 20.3021 39.6226C20.3186 39.5667 20.3778 39.5346 20.4346 39.551C20.6133 39.6029 20.7968 39.6539 20.9788 39.7017C21.0356 39.7165 21.0693 39.7741 21.0545 39.8309C21.0422 39.8787 20.9994 39.9108 20.9516 39.9108ZM30.5147 40.0418C30.4661 40.0418 30.4225 40.0089 30.411 39.9603C30.3978 39.9027 30.4332 39.8459 30.4908 39.8327C30.6719 39.7908 30.8563 39.7447 31.0391 39.6969C31.0959 39.6821 31.1535 39.7159 31.1683 39.7727C31.1839 39.8295 31.1494 39.8871 31.0934 39.9027C30.909 39.9505 30.7221 39.9966 30.5385 40.0394C30.5303 40.041 30.5221 40.0418 30.5147 40.0418ZM22.0593 40.166L22.0379 40.1643C21.8518 40.1265 21.6641 40.0861 21.4797 40.0433C21.4229 40.0302 21.3875 39.9734 21.4007 39.9157C21.4139 39.8589 21.4698 39.8235 21.5275 39.8367C21.7094 39.8787 21.8954 39.919 22.0798 39.9561C22.1375 39.9676 22.1745 40.0236 22.163 40.0812C22.1531 40.1314 22.1087 40.166 22.0593 40.166ZM29.401 40.2665C29.3508 40.2665 29.3055 40.2303 29.2965 40.1784C29.2866 40.1208 29.3253 40.0657 29.3829 40.0558C29.5673 40.0245 29.7542 39.9899 29.9386 39.9521C29.9954 39.9414 30.0522 39.9776 30.0637 40.0352C30.0752 40.0928 30.0382 40.1488 29.9805 40.1603C29.7937 40.1982 29.6052 40.2336 29.4191 40.2657L29.401 40.2665ZM23.1792 40.3577L23.1644 40.3569C22.9767 40.3306 22.7866 40.3001 22.6005 40.2688C22.5421 40.259 22.5034 40.2038 22.5133 40.1462C22.5231 40.0877 22.5783 40.049 22.6359 40.0589C22.8211 40.091 23.0088 40.1198 23.194 40.1462C23.2525 40.1544 23.2928 40.2087 23.2846 40.2664C23.2772 40.3199 23.2311 40.3577 23.1792 40.3577ZM28.2765 40.4277C28.223 40.4277 28.1777 40.3874 28.1711 40.3331C28.1645 40.2754 28.2065 40.2227 28.2649 40.2162C28.451 40.1948 28.6395 40.1709 28.8247 40.1437C28.8832 40.1355 28.9367 40.1758 28.9449 40.2343C28.9531 40.2919 28.9128 40.3462 28.8552 40.3545C28.6675 40.3808 28.4765 40.4055 28.2888 40.4269L28.2765 40.4277ZM24.3073 40.4852H24.2983C24.1098 40.4687 23.9188 40.4498 23.7303 40.4292C23.6718 40.4226 23.6298 40.3699 23.6364 40.3115C23.643 40.253 23.6965 40.2111 23.7541 40.2176C23.9402 40.239 24.1295 40.2572 24.3164 40.2736C24.3748 40.2786 24.4185 40.3296 24.4135 40.3881C24.4086 40.4432 24.3625 40.4852 24.3073 40.4852ZM27.1446 40.5238C27.0886 40.5238 27.0425 40.4802 27.0392 40.4234C27.0359 40.3649 27.0804 40.3147 27.1388 40.3114C27.3257 40.3007 27.5159 40.2876 27.7027 40.2719C27.7595 40.2653 27.8122 40.3098 27.8172 40.3682C27.8221 40.4267 27.7793 40.4785 27.7208 40.4835C27.5315 40.4991 27.3397 40.5131 27.1512 40.5238H27.1446ZM25.4416 40.5486H25.4383C25.249 40.5437 25.0572 40.5354 24.8678 40.5247C24.8094 40.5214 24.7649 40.4712 24.7682 40.4128C24.7715 40.3543 24.8209 40.3099 24.8802 40.3123C25.0671 40.323 25.2572 40.3313 25.4441 40.3362C25.5025 40.3379 25.5495 40.3864 25.5478 40.4457C25.5462 40.5033 25.4984 40.5486 25.4416 40.5486ZM26.0095 40.5556C25.9511 40.5556 25.9033 40.5078 25.9033 40.4494C25.9033 40.3909 25.9511 40.3432 26.0095 40.3432C26.1956 40.3432 26.3857 40.3407 26.5742 40.335C26.6327 40.33 26.6821 40.3794 26.6837 40.4387C26.6854 40.4971 26.6393 40.5457 26.58 40.5474C26.3898 40.5531 26.198 40.5556 26.0095 40.5556Z" fill="#FBB03B"/>
<rect x="7.5" y="2.05566" width="37" height="37" rx="18.5" fill="#FCE4C4"/>
<rect x="7.5" y="2.05566" width="37" height="37" rx="18.5" stroke="black"/>
<path d="M25.7842 20.5301C25.7842 20.1775 26.07 19.8916 26.4226 19.8916C26.7752 19.8916 27.0611 20.1775 27.0611 20.5301V32.2864C27.0611 32.639 26.7752 32.9249 26.4226 32.9249C26.07 32.9249 25.7842 32.639 25.7842 32.2864V20.5301Z" fill="#49569E"/>
<path d="M22.1179 12.137C22.2114 11.1416 23.047 10.3808 24.0468 10.3808L28.8424 10.3808C29.8422 10.3808 30.6777 11.1416 30.7712 12.137L31.4413 19.27C31.548 20.4066 30.6539 21.3886 29.5124 21.3886H23.3768C22.2352 21.3886 21.3411 20.4066 21.4479 19.27L22.1179 12.137Z" fill="#645FB9"/>
<path fill-rule="evenodd" clip-rule="evenodd" d="M28.7869 12.0305L29.761 18.6699C29.9304 19.8248 29.3306 20.8855 28.3849 21.3886H29.512C30.6536 21.3886 31.5477 20.4066 31.4409 19.27L30.7709 12.137C30.6774 11.1416 29.8418 10.3808 28.842 10.3808H27.8599C28.3478 10.7857 28.6892 11.3645 28.7869 12.0305Z" fill="#49569E"/>
<path fill-rule="evenodd" clip-rule="evenodd" d="M19.791 23.3434C19.6609 23.1834 19.5538 22.9286 19.5538 22.4893L19.5538 20.8602C19.5538 20.5683 19.3173 20.3318 19.0254 20.3318C18.7336 20.3318 18.4971 20.5683 18.4971 20.8602L18.4971 22.4893C18.4971 23.1067 18.6514 23.617 18.9712 24.0102C19.2876 24.3991 19.7185 24.6149 20.1611 24.7377C20.6002 24.8595 21.0857 24.8994 21.556 24.9122C21.8642 24.9206 22.1913 24.9173 22.5051 24.9142C22.6636 24.9126 22.8187 24.911 22.9662 24.911C23.2581 24.911 23.4946 24.6745 23.4946 24.3826C23.4946 24.0908 23.2581 23.8543 22.9662 23.8543C22.7952 23.8543 22.6287 23.856 22.4652 23.8577C22.165 23.8607 21.8748 23.8637 21.5847 23.8558C21.1427 23.8438 20.7585 23.8067 20.4436 23.7194C20.1322 23.633 19.9246 23.5076 19.791 23.3434Z" fill="#49569E"/>
<path d="M19.5765 21.0596C19.5765 20.001 18.7184 19.1429 17.6599 19.1429H17.1464C16.4922 19.1429 15.9366 19.6218 15.84 20.2688C15.7208 21.0672 16.3393 21.7848 17.1464 21.7848H19.5765V21.0596Z" fill="#FFB0A8"/>
<path fill-rule="evenodd" clip-rule="evenodd" d="M33.0981 23.5189C33.2282 23.3589 33.3353 23.1042 33.3353 22.6648L33.3353 21.0357C33.3353 20.7439 33.5719 20.5073 33.8637 20.5073C34.1555 20.5073 34.3921 20.7439 34.3921 21.0357L34.3921 22.6648C34.3921 23.2822 34.2378 23.7925 33.9179 24.1857C33.6015 24.5746 33.1707 24.7904 32.728 24.9132C32.2889 25.035 31.8035 25.075 31.3332 25.0877C31.0249 25.0961 30.6979 25.0928 30.3841 25.0897C30.2256 25.0881 30.0705 25.0865 29.9229 25.0865C29.6311 25.0865 29.3945 24.85 29.3945 24.5582C29.3945 24.2664 29.6311 24.0298 29.9229 24.0298C30.094 24.0298 30.2604 24.0315 30.424 24.0332C30.7241 24.0363 31.0143 24.0392 31.3045 24.0314C31.7465 24.0194 32.1306 23.9823 32.4456 23.8949C32.757 23.8085 32.9646 23.6831 33.0981 23.5189Z" fill="#49569E"/>
<path d="M33.3126 21.2357C33.3126 20.1772 34.1707 19.319 35.2293 19.319H35.7427C36.3969 19.319 36.9526 19.7979 37.0492 20.445C37.1683 21.2433 36.5499 21.9609 35.7427 21.9609H33.3126V21.2357Z" fill="#FFB0A8"/>
<path d="M20.2289 25.5008C20.5157 26.0579 21.0898 26.4081 21.7165 26.4081H31.1732C31.7998 26.4081 32.3739 26.0579 32.6608 25.5008L32.994 24.8537C33.2807 24.2969 32.8765 23.6341 32.2502 23.6341H20.6395C20.0132 23.6341 19.609 24.2969 19.8957 24.8537L20.2289 25.5008Z" fill="#645FB9"/>
<path fill-rule="evenodd" clip-rule="evenodd" d="M22.7631 31.2047C22.4934 31.4703 22.3497 31.8659 22.3497 32.396C22.3497 32.6878 22.1132 32.9244 21.8213 32.9244C21.5295 32.9244 21.293 32.6878 21.293 32.396C21.293 31.6808 21.4897 30.9756 22.0217 30.4517C22.5531 29.9285 23.3379 29.6661 24.3472 29.6661H28.5424C29.664 29.6661 30.4916 29.919 31.0326 30.4517C31.5771 30.9879 31.7284 31.7059 31.7284 32.396C31.7284 32.6878 31.4918 32.9244 31.2 32.9244C30.9082 32.9244 30.6716 32.6878 30.6716 32.396C30.6716 31.8408 30.5484 31.458 30.2912 31.2047C30.0304 30.948 29.5293 30.7228 28.5424 30.7228H24.3472C23.5115 30.7228 23.0334 30.9385 22.7631 31.2047Z" fill="#49569E"/>
<path fill-rule="evenodd" clip-rule="evenodd" d="M29.415 26.4079H31.1729C31.7996 26.4079 32.3737 26.0577 32.6605 25.5006L32.9937 24.8534C33.2804 24.2967 32.8762 23.6339 32.2499 23.6339H30.3679C30.5186 24.0007 30.5306 24.4288 30.352 24.8358L29.9452 25.7628C29.8286 26.0284 29.6429 26.2491 29.415 26.4079Z" fill="#49569E"/>
</svg>
