<svg width="63" height="62" viewBox="0 0 63 62" fill="none" xmlns="http://www.w3.org/2000/svg">
<mask id="mask0_127:3831" style="mask-type:alpha" maskUnits="userSpaceOnUse" x="13" y="4" width="38" height="39">
<path fill-rule="evenodd" clip-rule="evenodd" d="M13.3095 23.5867C13.3095 33.8911 21.6633 42.2446 31.9672 42.2446C42.272 42.2446 50.625 33.8911 50.625 23.5867C50.625 13.2823 42.272 4.92899 31.9672 4.92899C21.6633 4.92899 13.3095 13.2823 13.3095 23.5867Z" fill="white"/>
</mask>
<g mask="url(#mask0_127:3831)">
<path fill-rule="evenodd" clip-rule="evenodd" d="M13.3095 23.5867C13.3095 33.8911 21.6633 42.2446 31.9672 42.2446C42.272 42.2446 50.625 33.8911 50.625 23.5867C50.625 13.2823 42.272 4.92899 31.9672 4.92899C21.6633 4.92899 13.3095 13.2823 13.3095 23.5867Z" fill="#FCE3C3"/>
<path fill-rule="evenodd" clip-rule="evenodd" d="M32.1021 26.2395C31.5325 26.2261 31.0172 26.5468 30.5191 26.8242C30.0211 27.1015 29.4432 27.3518 28.8974 27.1885C28.3245 27.0173 27.9779 26.4523 27.5062 26.0857C26.9917 25.6858 26.3332 25.5272 25.7668 25.205C25.2334 24.9012 24.7806 24.4403 24.5402 23.8753C24.3007 23.3103 24.2892 22.6403 24.5625 22.0908C24.6349 21.9452 24.7296 21.7968 24.7156 21.6346C24.7032 21.4888 24.6053 21.3654 24.504 21.2602C24.234 20.9812 23.8998 20.751 23.717 20.4085C23.5746 20.1424 23.5384 19.8303 23.5582 19.5292C23.6158 18.6641 24.1517 17.8462 24.9214 17.4475C25.6911 17.0488 26.6682 17.0836 27.4074 17.5358C28.1063 17.9628 28.9863 17.8534 29.6893 18.2732C30.8649 18.9757 31.907 19.9001 32.7451 20.9834C33.1237 21.4727 33.4653 22.0022 33.6506 22.5923C33.8366 23.1825 33.8555 23.8421 33.6036 24.4072C33.4719 24.7035 33.2719 24.9634 33.0735 25.2201C32.8051 25.5689 32.4545 25.976 32.1021 26.2395Z" fill="#323A40"/>
<path fill-rule="evenodd" clip-rule="evenodd" d="M35.3348 30.4417C35.6065 31.4101 33.4554 32.7556 32.8134 32.6245C31.837 32.4251 30.4738 31.3853 29.7157 30.6898C29.6844 30.116 29.6515 29.542 29.6193 28.9682C29.5798 28.2507 29.5387 27.5317 29.4275 26.8214C29.393 26.6039 29.3535 26.387 29.3065 26.1719C29.1946 25.6354 29.053 25.1057 28.9106 24.5748C28.7937 24.1394 28.6776 23.7027 28.5607 23.2673C28.8365 23.4929 29.0909 23.6014 29.4177 23.7479C30.7957 24.3647 32.1968 24.9288 33.6053 25.4743C34.0292 25.6382 34.4573 25.8024 34.9059 25.8725L35.1282 28.3806L35.3348 30.4417Z" fill="#FFCFCA"/>
<path fill-rule="evenodd" clip-rule="evenodd" d="M35.1284 28.3806C33.5734 28.1171 32.0579 27.6328 30.6576 26.9144C30.2131 26.6864 29.7505 26.4409 29.3068 26.1719C29.1948 25.6354 29.0532 25.1057 28.9108 24.5748C28.7939 24.1394 28.6778 23.7027 28.5609 23.2673C28.8367 23.4929 29.0911 23.6014 29.4179 23.7479C30.7959 24.3647 32.197 24.9288 33.6055 25.4743C34.0294 25.6382 34.4575 25.8024 34.9062 25.8725L35.1284 28.3806Z" fill="#F9BFBB"/>
<path fill-rule="evenodd" clip-rule="evenodd" d="M37.7847 24.1176C37.5658 24.9775 37.2069 25.7821 36.517 26.364C35.9046 26.88 35.125 27.1993 34.329 27.2757C33.4481 27.36 32.5632 27.1725 31.7532 26.8072C31.3498 26.6254 30.9637 26.3997 30.6073 26.1411C29.9833 25.6892 29.4359 25.1417 28.9469 24.5489C28.1525 23.5837 27.4627 22.4542 27.0305 21.2484C26.539 19.8856 26.3761 18.4249 26.7597 16.9979C26.9152 16.4161 27.168 15.8618 27.5055 15.3622C28.9255 13.2538 31.7729 12.5258 34.0326 13.6936C35.2098 14.3026 36.1688 15.3308 36.7681 16.5052C36.9574 16.8773 37.1303 17.2624 37.2826 17.6568C38.0704 19.6988 38.3248 21.9987 37.7847 24.1176Z" fill="#FFCFCA"/>
<path fill-rule="evenodd" clip-rule="evenodd" d="M29.5225 24.129C28.9001 24.7071 27.9617 24.9239 27.1517 24.6663C26.4668 24.4492 25.8996 23.8994 25.6477 23.2291C25.6016 23.1073 25.5662 22.9824 25.5415 22.8529C25.4995 22.6275 25.4929 22.3939 25.5398 22.1699C25.66 21.6169 26.1424 21.1704 26.6964 21.0559C27.2513 20.9416 27.8514 21.1462 28.2498 21.5481L28.7396 22.5406L29.5225 24.129Z" fill="#FFCFCA"/>
<path fill-rule="evenodd" clip-rule="evenodd" d="M33.0892 20.8874C32.9781 20.8973 32.8184 20.7263 32.7666 20.4649C32.7386 20.3273 32.7468 20.1882 32.7896 20.0835C32.8036 20.0473 32.8448 19.9616 32.9123 19.9481L32.923 19.9465C33.0341 19.9366 33.1938 20.1078 33.2465 20.3691C33.2736 20.5068 33.2654 20.6457 33.2234 20.7505C33.2086 20.7867 33.1674 20.8725 33.0999 20.886L33.0892 20.8874Z" fill="#1F3C49"/>
<path fill-rule="evenodd" clip-rule="evenodd" d="M36.4117 20.4397C36.3179 20.448 36.1549 20.2967 36.1014 20.0314C36.075 19.898 36.0833 19.7633 36.1236 19.662C36.1533 19.5888 36.1961 19.5417 36.2405 19.5328L36.2504 19.5313C36.3442 19.523 36.5072 19.6744 36.5607 19.9397C36.5871 20.0731 36.5788 20.2078 36.5385 20.3091C36.5089 20.3822 36.4661 20.4293 36.4216 20.4383L36.4117 20.4397Z" fill="#1F3C49"/>
<path fill-rule="evenodd" clip-rule="evenodd" d="M34.7611 21.1074C34.8442 21.0083 34.9908 20.9619 35.1307 20.9821C35.2731 21.0004 35.4073 21.0966 35.4773 21.2236C35.5514 21.3487 35.5654 21.5134 35.5086 21.6453C35.455 21.7761 35.3406 21.878 35.2122 21.8993C35.2986 21.8058 35.3456 21.7024 35.3612 21.6012C35.376 21.5005 35.3546 21.4054 35.3069 21.3207C35.2583 21.2365 35.1875 21.1694 35.0928 21.1313C34.9982 21.0929 34.8854 21.0804 34.7611 21.1074Z" fill="#1F3C49"/>
<path fill-rule="evenodd" clip-rule="evenodd" d="M32.1643 18.9313C32.1437 18.9311 32.1223 18.9226 32.1075 18.906C32.0787 18.8743 32.0811 18.8254 32.1124 18.7966C32.3445 18.5854 32.6697 18.4761 32.9817 18.5028C33.0245 18.5065 33.0558 18.5441 33.0525 18.5867C33.0484 18.6294 33.0113 18.6608 32.9685 18.6572C32.6977 18.6331 32.4178 18.7286 32.217 18.9111C32.2021 18.9248 32.1832 18.9315 32.1643 18.9313Z" fill="#1F3C49"/>
<path fill-rule="evenodd" clip-rule="evenodd" d="M35.5094 18.3865C35.4921 18.3811 35.4764 18.3696 35.4665 18.3531C35.4443 18.3166 35.4558 18.2689 35.4921 18.2466C35.7349 18.0985 36.0428 18.0541 36.3169 18.1275C36.3572 18.1388 36.3828 18.181 36.3721 18.2224C36.3614 18.2638 36.3186 18.2882 36.2774 18.2772C36.0428 18.2144 35.7802 18.2524 35.5727 18.3788C35.553 18.3909 35.5299 18.3931 35.5094 18.3865Z" fill="#1F3C49"/>
<path fill-rule="evenodd" clip-rule="evenodd" d="M32.9963 20.1169C32.8325 20.0894 32.7897 20.3439 32.9535 20.3715C33.1173 20.3991 33.1601 20.1446 32.9963 20.1169Z" fill="white"/>
<path fill-rule="evenodd" clip-rule="evenodd" d="M36.3713 19.6641C36.2075 19.6366 36.1639 19.8911 36.3285 19.9187C36.4915 19.9463 36.5352 19.6917 36.3713 19.6641Z" fill="white"/>
<path fill-rule="evenodd" clip-rule="evenodd" d="M36.5582 22.37C36.5698 22.7067 36.4883 23.021 36.3401 23.2835C36.103 23.7049 35.6939 23.9889 35.2206 24.0056C34.7349 24.0226 34.2977 23.7551 34.0343 23.3351C33.8787 23.0894 33.7833 22.7914 33.7717 22.4678C33.7709 22.4562 33.7725 22.4445 33.7717 22.4322L36.555 22.3345C36.5558 22.3468 36.5574 22.3584 36.5582 22.37Z" fill="#D55454"/>
<path fill-rule="evenodd" clip-rule="evenodd" d="M36.4421 22.3385C36.1417 22.68 35.6914 22.9042 35.1826 22.9221C34.6731 22.9399 34.208 22.7478 33.8845 22.4282L36.4421 22.3385Z" fill="white"/>
<path fill-rule="evenodd" clip-rule="evenodd" d="M36.3401 23.2835C36.103 23.7048 35.6939 23.9888 35.2205 24.0055C34.7349 24.0226 34.2977 23.755 34.0343 23.335C34.506 23.2138 34.9958 23.1603 35.4815 23.178C35.7704 23.1888 36.0577 23.2244 36.3401 23.2835Z" fill="#F37C7C"/>
<path fill-rule="evenodd" clip-rule="evenodd" d="M33.2819 22.0167C33.3197 22.4397 32.8859 22.8247 32.3113 22.8767C31.7367 22.9287 31.2403 22.6281 31.2025 22.2051C31.1638 21.7822 31.5984 21.3972 32.1722 21.3451C32.7468 21.293 33.2432 21.5937 33.2819 22.0167Z" fill="#F9BFBB"/>
<path fill-rule="evenodd" clip-rule="evenodd" d="M37.7452 21.0495C37.7715 21.3351 37.4776 21.5951 37.0899 21.6302C36.7022 21.6654 36.3672 21.4624 36.3416 21.1767C36.3153 20.8911 36.6083 20.631 36.9969 20.5959C37.3846 20.5607 37.7197 20.7638 37.7452 21.0495Z" fill="#F9BFBB"/>
<path fill-rule="evenodd" clip-rule="evenodd" d="M27.3269 30.475C28.2431 30.2126 29.2498 29.7183 29.6162 29.6201C30.9983 31.5993 33.9997 31.8981 35.3259 29.4392C36.6858 29.695 38.4762 30.0271 40.056 30.4281C40.0708 32.46 41.1269 34.8168 41.3739 36.8036C41.7707 39.9942 42.3033 42.2372 42.8655 45.4061C43.4558 48.7366 43.4549 51.5295 44.0715 55.9556C44.4938 58.9833 44.7391 62.509 44.9573 67.1362C39.1183 69.5375 31.987 69.4033 21.2253 67.3469C21.2854 62.16 22.9837 50.7681 23.5393 45.5947C24.7305 40.5371 25.7389 35.4289 27.3269 30.475Z" fill="#DD5050"/>
<path fill-rule="evenodd" clip-rule="evenodd" d="M26.457 21.1077C27.672 21.1028 28.7915 22.5003 29.1653 18.9552C29.2245 18.3974 29.3093 17.844 29.4081 17.2921C29.5061 16.7403 29.7374 16.1697 30.2009 15.8877C31.2784 15.2321 32.5832 16.5364 33.8139 16.3364C34.3753 16.2452 34.9606 15.5225 35.5022 15.7009C35.7492 15.7822 36.1707 16.1151 36.351 16.3083C36.9149 16.9103 37.1519 17.7558 37.5734 18.4741C37.6952 17.6959 38.0509 16.5788 37.7117 15.8753C37.515 15.4674 37.217 15.0009 37.0128 14.597C36.425 13.4344 36.5312 12.631 35.5459 11.8154C34.9968 11.3602 33.6715 10.9021 33.0063 11.1336C32.6762 11.2485 32.3708 11.4487 32.0267 11.5063C31.5608 11.5844 31.0981 11.3912 30.6511 11.2334C29.9868 10.9992 29.2772 10.8358 28.5866 10.963C27.8959 11.0902 27.2283 11.5603 27.0126 12.2594C26.8496 12.7874 26.9402 13.4173 26.6101 13.851C26.3055 14.2501 25.7613 14.3258 25.3473 14.5962C24.4673 15.1713 24.3603 16.477 24.5628 17.5419C24.8122 18.8539 25.628 20.0901 26.457 21.1077Z" fill="#323A40"/>
<path fill-rule="evenodd" clip-rule="evenodd" d="M35.2586 29.2179C35.2586 29.2179 35.2232 30.9633 35.2767 32.2344C35.4101 35.412 35.9929 36.7922 36.1131 39.9726C36.1608 41.2444 36.1435 42.5163 36.1205 43.7881C36.1065 44.5807 36.09 45.3725 36.0859 46.1646C36.0826 46.8661 36.0884 47.5671 36.1156 48.2692C36.1172 48.3288 36.1197 48.3884 36.1221 48.448C36.2003 50.3258 36.3839 52.1988 36.6292 54.0626C36.6836 54.4829 36.7428 54.9015 36.8046 55.3201C36.8729 55.7926 36.9462 56.2626 37.0202 56.7335C37.0244 56.759 37.0285 56.7837 37.0326 56.8092C37.0392 56.8537 37.0466 56.8989 37.054 56.9442C37.175 57.7024 37.2993 58.4696 37.4244 59.245C38.1859 63.9381 39.0042 68.9077 39.5137 73.5143C39.5458 73.8057 45.9873 71.3443 48.2133 69.372C48.4561 69.1563 46.7974 62.8309 45.9132 59.3397C45.7593 58.7338 45.6301 58.2136 45.537 57.825C45.528 57.788 45.5198 57.7534 45.5124 57.7197L45.5082 57.704C45.4695 57.5402 45.4391 57.4044 45.4177 57.3015C45.4127 57.2743 45.4078 57.2496 45.4029 57.2274C45.3996 57.2109 45.3963 57.1953 45.3946 57.1805C45.9141 57.1253 47.0419 56.9228 47.5547 56.7722C48.8661 56.3877 50.1231 55.6732 50.7726 54.1703C51.0426 53.544 51.2081 52.7807 51.227 51.8468C51.2377 51.1605 51.2056 50.4614 51.1356 49.7551C51.129 49.6955 51.1233 49.6351 51.1167 49.5754C50.9175 47.7427 50.4664 45.865 49.8531 44.0357C47.7597 37.7887 43.7795 32.1071 41.5207 30.7117C38.8337 29.0528 35.2586 29.2179 35.2586 29.2179Z" fill="#150F84"/>
<path fill-rule="evenodd" clip-rule="evenodd" d="M21.4602 57.6225C21.4569 57.6398 21.4552 57.6563 21.4528 57.6736C21.34 58.4399 21.2099 59.3471 21.0716 60.3251C20.4065 65.0395 19.5602 71.3986 19.7117 71.5229C20.7275 72.3371 25.2172 74.0164 29.4995 74.1827C29.6337 74.1242 30.1062 66.5517 30.5557 58.7528C30.6166 57.7015 30.6767 56.6454 30.7359 55.6032C30.8981 52.7361 31.0504 49.9732 31.1739 47.6866C31.1978 47.2426 31.2208 46.8177 31.2422 46.4125C31.3896 43.682 31.4818 41.8902 31.4777 41.867C30.7549 38.0068 29.6205 29.341 29.6205 29.341C29.6205 29.341 25.5597 29.9725 21.5417 32.4303C19.2787 33.8145 15.8649 41.127 14.817 49.1975C14.784 49.4524 14.7536 49.7089 14.7256 49.9662C14.6416 50.7345 14.5815 51.5095 14.5486 52.2891C14.3947 55.9366 18.3386 57.1286 21.4602 57.6225Z" fill="#150F84"/>
<path fill-rule="evenodd" clip-rule="evenodd" d="M23.3006 36.8099C23.3295 37.7032 23.4225 38.6279 23.4513 39.5212C23.4628 39.8868 23.4752 40.2525 23.4867 40.6182C23.5402 42.3041 23.5945 43.9909 23.7402 45.6714L22.5219 45.6178C23.1294 42.731 22.9376 39.7375 23.3006 36.8099Z" fill="#F4B94E"/>
<path fill-rule="evenodd" clip-rule="evenodd" d="M41.6241 37.2029C41.6438 38.0965 41.601 39.0249 41.6208 39.9184C41.629 40.2842 41.6373 40.6498 41.6455 41.0156C41.6834 42.702 41.7212 44.3893 41.6677 46.0752L42.8811 45.9554C42.1172 43.1059 42.146 40.1064 41.6241 37.2029Z" fill="#F4B94E"/>
<path fill-rule="evenodd" clip-rule="evenodd" d="M39.8042 49.4533C39.6832 49.464 39.5103 49.438 39.4049 49.4953C39.2584 49.5754 39.1168 49.7741 38.995 49.8919C38.655 50.2211 38.3059 50.5421 37.9684 50.8743C37.8754 50.966 37.784 51.0594 37.6927 51.1526C36.9468 50.2725 36.2134 49.3817 35.4865 48.4854C36.3122 47.8842 36.9427 47.4322 37.2259 47.2418C37.3634 47.1497 37.5009 47.0578 37.6375 46.9658C37.6754 46.5909 37.7453 46.2203 37.8532 45.8599C37.9865 45.4168 38.2302 45.0566 38.4056 44.6337C38.7077 43.9031 38.8641 43.1043 39.1143 42.352C39.1925 42.1187 39.2806 41.8769 39.4543 41.7019L39.4741 41.6833C39.6494 41.5216 39.9235 41.4432 40.1293 41.5649C40.2874 41.6594 40.3681 41.8475 40.387 42.0303C40.4191 42.3536 40.3417 42.7022 40.2717 43.0147C40.2265 43.2154 40.1598 43.4291 40.1557 43.636C40.1491 43.9515 40.3524 43.7558 40.5031 43.6075C40.6669 43.4443 40.8118 43.2637 40.9468 43.0765C41.2143 42.7061 41.4399 42.3075 41.6918 41.9263L43.4015 39.3446C43.5695 39.0904 44.0017 39.1056 44.1679 39.3532C44.4001 39.6973 44.0058 40.1064 43.8477 40.3935C43.5835 40.8732 43.3225 41.3542 43.0616 41.8362C42.8755 42.182 42.6895 42.5287 42.5067 42.8757C42.3989 43.0771 42.212 43.2469 42.0984 43.4528C42.0573 43.5291 41.9255 43.7326 42.0136 43.8206C42.105 43.9107 42.2499 43.738 42.3174 43.6835C42.482 43.5512 42.6417 43.4129 42.7998 43.2719C43.1035 42.9986 43.3974 42.7125 43.688 42.4243C44.2815 41.84 44.8693 41.2442 45.5303 40.7337C45.5583 40.7117 45.5863 40.6943 45.6143 40.6795C45.8069 40.5061 46.1411 40.5444 46.291 40.7574C46.5741 41.159 46.0127 41.5887 45.7765 41.854C45.3929 42.2804 44.9936 42.6924 44.6092 43.1186C44.3219 43.4364 44.0346 43.7539 43.7481 44.0725C43.6469 44.1833 43.0681 44.5903 43.2056 44.7867C43.3242 44.9587 43.7432 44.5667 43.8502 44.5078C44.107 44.3663 44.3622 44.2221 44.6166 44.0761C45.1261 43.7839 45.6275 43.4801 46.1214 43.1623C46.1675 43.1323 46.2152 43.1121 46.2622 43.0999C46.3988 43.0051 46.5355 42.9095 46.6705 42.8121C46.9149 42.6391 47.273 42.7782 47.3512 43.0662C47.4648 43.4811 46.9619 43.7001 46.691 43.8898C46.2597 44.1912 45.825 44.487 45.3863 44.7796C45.0767 44.9862 44.7664 45.19 44.4536 45.3918C44.2873 45.4994 43.5226 45.912 43.8617 46.1681C43.9284 46.2181 44.0947 46.1616 44.1638 46.1451C44.3836 46.0956 44.5878 45.9956 44.7993 45.9178C45.364 45.7094 45.9329 45.5085 46.5042 45.3167C46.817 45.2109 47.1496 45.495 47.0919 45.8251C47.0104 46.305 46.1601 46.3996 45.7913 46.5194C45.2027 46.7098 44.6223 46.9214 44.0502 47.1552C43.9523 47.1962 43.8543 47.2361 43.7687 47.2987C43.6592 47.3784 43.5752 47.4888 43.4863 47.5933C42.6829 48.5432 41.4654 49.171 40.2503 49.3922C40.103 49.4194 39.9532 49.4403 39.8042 49.4533Z" fill="#FFCFCA"/>
</g>
<path fill-rule="evenodd" clip-rule="evenodd" d="M32.5866 3.77677C32.6434 3.77677 32.6912 3.73133 32.6928 3.67379C32.6945 3.6151 32.6484 3.5662 32.5899 3.56447C32.3997 3.55887 32.2079 3.55591 32.0186 3.55566C31.9618 3.55789 31.9124 3.603 31.9124 3.66169C31.9124 3.72038 31.9593 3.76797 32.0186 3.76805C32.2055 3.76829 32.3956 3.77126 32.5833 3.77677H32.5866ZM30.8826 3.79772L30.8884 3.79756C31.0752 3.78727 31.2654 3.77961 31.4531 3.77459C31.5115 3.77302 31.5585 3.72421 31.5568 3.6656C31.5552 3.60699 31.5066 3.56089 31.4473 3.56229C31.258 3.56731 31.0654 3.57513 30.8769 3.5855C30.8184 3.58871 30.774 3.63884 30.7773 3.69737C30.7797 3.75393 30.8266 3.79772 30.8826 3.79772ZM33.721 3.84217C33.7754 3.84217 33.8215 3.80035 33.8264 3.74503C33.8313 3.68658 33.7885 3.63513 33.7301 3.63011C33.5416 3.61389 33.3498 3.60015 33.1604 3.5892C33.1003 3.58599 33.0518 3.63052 33.0485 3.68905C33.0444 3.74766 33.0896 3.7978 33.1481 3.80125C33.3358 3.81204 33.5251 3.8257 33.7111 3.84175L33.721 3.84217ZM29.7507 3.89266L29.7631 3.892C29.9491 3.87109 30.1385 3.85265 30.3253 3.83709C30.3838 3.83223 30.4266 3.78087 30.4225 3.72242C30.4175 3.66397 30.3648 3.62059 30.3072 3.62545C30.1187 3.64117 29.9277 3.65986 29.7392 3.68093C29.6808 3.68744 29.6388 3.73995 29.6454 3.79824C29.6519 3.85257 29.6972 3.89266 29.7507 3.89266ZM34.8488 3.97193C34.9014 3.97193 34.9467 3.93382 34.9541 3.88088C34.9624 3.82285 34.922 3.76901 34.8644 3.76062C34.6767 3.7337 34.4866 3.70908 34.298 3.68743C34.2404 3.68085 34.1869 3.7225 34.1803 3.78078C34.1737 3.83907 34.2157 3.89167 34.2733 3.89842C34.4602 3.91982 34.6487 3.94419 34.8339 3.97094L34.8488 3.97193ZM28.6263 4.05135L28.6444 4.04979C28.8288 4.01826 29.0165 3.98912 29.2025 3.96294C29.2602 3.95471 29.3005 3.90096 29.2923 3.84292C29.284 3.7848 29.2305 3.74471 29.1729 3.75262C28.9852 3.77904 28.7951 3.80859 28.6082 3.84045C28.5506 3.85025 28.5119 3.90516 28.5218 3.96294C28.53 4.01472 28.5753 4.05135 28.6263 4.05135ZM35.9682 4.166C36.0176 4.166 36.0621 4.13126 36.072 4.08088C36.0843 4.02342 36.0473 3.96736 35.9896 3.95567C35.8036 3.91805 35.6151 3.88249 35.4282 3.85014C35.3706 3.84002 35.3154 3.87887 35.3056 3.93666C35.2957 3.99445 35.3344 4.04944 35.392 4.0594C35.5764 4.09142 35.7633 4.12657 35.9468 4.16386L35.9682 4.166ZM27.5123 4.27433C27.5197 4.27433 27.5279 4.27334 27.5361 4.27153C27.7189 4.22946 27.9049 4.18946 28.0885 4.15282C28.1453 4.1413 28.1832 4.0854 28.1716 4.02786C28.1601 3.97032 28.1041 3.9332 28.0465 3.94456C27.8613 3.9816 27.6736 4.02202 27.4884 4.06458C27.4308 4.07775 27.3954 4.13471 27.4085 4.19184C27.4201 4.24099 27.4637 4.27433 27.5123 4.27433ZM37.0746 4.42374C37.1216 4.42374 37.1644 4.39221 37.1775 4.34455C37.1924 4.28783 37.1586 4.22971 37.1018 4.21473C36.9182 4.16649 36.7322 4.12023 36.547 4.07717C36.4894 4.06392 36.4334 4.0994 36.4194 4.15653C36.4062 4.21366 36.4424 4.27071 36.4992 4.28404C36.682 4.3266 36.8664 4.37245 37.0475 4.4202C37.0565 4.42258 37.0656 4.42374 37.0746 4.42374ZM26.4127 4.56052C26.4226 4.56052 26.4325 4.55912 26.4432 4.55616C26.6218 4.50397 26.8054 4.45334 26.9873 4.40593C27.0441 4.39111 27.0779 4.33308 27.063 4.27636C27.0482 4.21964 26.9906 4.18564 26.9338 4.20038C26.7494 4.24837 26.5642 4.29949 26.3831 4.35234C26.3271 4.36872 26.295 4.42766 26.3106 4.48397C26.3246 4.53039 26.3666 4.56052 26.4127 4.56052ZM38.1647 4.7448C38.2092 4.7448 38.2503 4.71632 38.2652 4.67154C38.2833 4.61581 38.2528 4.5558 38.1977 4.5376C38.0165 4.47883 37.8338 4.42186 37.6519 4.36836C37.5959 4.35197 37.5366 4.38391 37.5202 4.44022C37.5037 4.49653 37.5358 4.55555 37.5918 4.5721C37.7712 4.62503 37.9532 4.68133 38.1318 4.73962C38.1425 4.74316 38.1532 4.7448 38.1647 4.7448ZM25.3303 4.91041C25.3418 4.91041 25.3542 4.90843 25.3657 4.90423C25.5427 4.84142 25.7229 4.78026 25.9024 4.72223C25.9584 4.7042 25.9888 4.64435 25.9707 4.58862C25.9534 4.53281 25.8933 4.50194 25.8374 4.52013C25.6563 4.57874 25.4735 4.64065 25.2949 4.70412C25.2397 4.72379 25.2109 4.78446 25.2298 4.83978C25.2455 4.88324 25.2866 4.91041 25.3303 4.91041ZM39.2339 5.12795C39.2758 5.12795 39.3162 5.10227 39.3326 5.06037C39.354 5.00579 39.3269 4.94421 39.2726 4.92281C39.0956 4.85374 38.9161 4.78632 38.7375 4.72244C38.6823 4.70269 38.6214 4.73142 38.6016 4.78665C38.5819 4.84189 38.6107 4.90264 38.6659 4.92248C38.842 4.98562 39.0198 5.0523 39.1952 5.12062C39.2075 5.12556 39.2207 5.12795 39.2339 5.12795ZM24.2682 5.32235C24.2822 5.32235 24.2962 5.31964 24.3094 5.31396C24.4822 5.24102 24.6592 5.16949 24.8346 5.10141C24.8889 5.08017 24.9161 5.01868 24.8947 4.96402C24.8741 4.90919 24.8123 4.88211 24.7572 4.90343C24.5802 4.97225 24.4016 5.04452 24.227 5.11828C24.1727 5.14109 24.1472 5.20332 24.1702 5.2574C24.1875 5.2979 24.2262 5.32235 24.2682 5.32235ZM40.2764 5.57042C40.3167 5.57042 40.3546 5.54745 40.3727 5.50852C40.3974 5.45517 40.3735 5.39212 40.3208 5.36767C40.1488 5.28897 39.9734 5.21159 39.7997 5.13767C39.7462 5.11478 39.6837 5.13997 39.6606 5.19397C39.6376 5.24798 39.6623 5.31029 39.7166 5.33318C39.8886 5.40636 40.0623 5.48283 40.2319 5.56071C40.2459 5.56729 40.2615 5.57042 40.2764 5.57042ZM23.2316 5.7949C23.2473 5.7949 23.2637 5.79136 23.2785 5.78395C23.4465 5.70138 23.6185 5.6198 23.7906 5.54168C23.8441 5.51731 23.8671 5.45434 23.8433 5.401C23.8186 5.34765 23.7552 5.32403 23.7025 5.3484C23.5288 5.42742 23.3551 5.50982 23.1847 5.59338C23.132 5.61923 23.1106 5.68278 23.1361 5.73546C23.1551 5.77308 23.1929 5.7949 23.2316 5.7949ZM41.2918 6.07212C41.3297 6.07212 41.3667 6.05154 41.3856 6.01556C41.4128 5.96378 41.3931 5.89949 41.3412 5.87208C41.1749 5.78367 41.0037 5.69633 40.8341 5.61253C40.7822 5.58652 40.718 5.60808 40.6925 5.66069C40.6662 5.71329 40.6876 5.777 40.7403 5.80293C40.9082 5.88583 41.0769 5.97226 41.2424 6.05977C41.258 6.06808 41.2745 6.07212 41.2918 6.07212ZM22.225 6.32567C22.2431 6.32567 22.2612 6.32123 22.2777 6.31201C22.4398 6.22014 22.6069 6.12885 22.7741 6.04085C22.8259 6.01352 22.8457 5.94923 22.8185 5.89737C22.7913 5.84542 22.7263 5.82567 22.6753 5.853C22.5065 5.94198 22.3378 6.03418 22.1731 6.12704C22.1221 6.15585 22.104 6.22063 22.1328 6.27175C22.1525 6.30633 22.1879 6.32567 22.225 6.32567ZM42.2781 6.63107C42.3135 6.63107 42.3489 6.61287 42.3686 6.57986C42.3991 6.52973 42.3834 6.46437 42.3332 6.43399C42.1711 6.33612 42.0056 6.23923 41.8409 6.14588C41.7899 6.11682 41.7257 6.13485 41.6961 6.1858C41.6673 6.23684 41.6854 6.30171 41.7364 6.3306C41.8994 6.42296 42.0632 6.51895 42.2229 6.61567C42.2402 6.62613 42.2591 6.63107 42.2781 6.63107ZM21.2512 6.91313C21.271 6.91313 21.2908 6.9077 21.3081 6.89626C21.4661 6.79484 21.6275 6.69416 21.7888 6.59719C21.839 6.56698 21.8547 6.5017 21.825 6.4514C21.7946 6.40111 21.7287 6.38505 21.6793 6.41527C21.5163 6.51331 21.3533 6.61505 21.1936 6.71754C21.1442 6.74932 21.1302 6.81501 21.1615 6.86432C21.1821 6.89585 21.2159 6.91313 21.2512 6.91313ZM43.2307 7.24591C43.2653 7.24591 43.2982 7.22977 43.3188 7.19981C43.3517 7.15141 43.3394 7.08539 43.2916 7.05213C43.1352 6.9452 42.9755 6.83892 42.8167 6.73627C42.7673 6.70458 42.7014 6.71857 42.6701 6.76796C42.638 6.81727 42.652 6.88305 42.7014 6.91474C42.8586 7.0164 43.0167 7.12152 43.1715 7.2273C43.1896 7.2399 43.2102 7.24591 43.2307 7.24591ZM20.3119 7.55485C20.3333 7.55485 20.3555 7.54827 20.3745 7.53452C20.5259 7.42438 20.6815 7.31473 20.8363 7.20878C20.8848 7.17561 20.8972 7.10959 20.8643 7.0611C20.8313 7.0127 20.7655 7.00035 20.7169 7.03336C20.5597 7.14054 20.4025 7.25142 20.2493 7.36272C20.2024 7.39721 20.1917 7.46356 20.2263 7.51098C20.2469 7.53962 20.279 7.55485 20.3119 7.55485ZM44.1484 7.91424C44.1796 7.91424 44.2109 7.90008 44.2323 7.873C44.2677 7.82657 44.2595 7.75989 44.2134 7.724C44.0636 7.60859 43.9105 7.49334 43.7565 7.38155C43.7096 7.34698 43.6429 7.35735 43.6083 7.40477C43.5738 7.45218 43.5845 7.51862 43.6314 7.55319C43.7837 7.66383 43.9352 7.77784 44.0833 7.89202C44.1023 7.907 44.1253 7.91424 44.1484 7.91424ZM19.4112 8.24891C19.435 8.24891 19.4589 8.24109 19.4787 8.22496C19.6235 8.1065 19.7725 7.9882 19.9215 7.87345C19.9676 7.83764 19.9767 7.77096 19.9405 7.72454C19.9051 7.67803 19.8384 7.66938 19.7915 7.70519C19.6408 7.82126 19.491 7.94079 19.3445 8.06048C19.2984 8.09761 19.2918 8.16445 19.3288 8.20989C19.3502 8.23557 19.3807 8.24891 19.4112 8.24891ZM45.026 8.63371C45.0557 8.63371 45.0853 8.62128 45.1067 8.59707C45.1446 8.55287 45.1396 8.48578 45.096 8.44725C44.9528 8.32295 44.8054 8.19922 44.6597 8.07929C44.6136 8.04216 44.5469 8.04883 44.5099 8.0941C44.4728 8.13946 44.4794 8.20639 44.5247 8.2436C44.6696 8.36222 44.8145 8.48471 44.9561 8.60769C44.9766 8.62514 45.0013 8.63371 45.026 8.63371ZM18.5527 8.99251C18.5783 8.99251 18.6038 8.98329 18.6244 8.96452C18.7618 8.83832 18.9034 8.71188 19.0458 8.58865C19.0903 8.55021 19.0952 8.4832 19.0565 8.43883C19.0187 8.39446 18.9512 8.38952 18.9075 8.42804C18.7635 8.55259 18.6194 8.68052 18.4803 8.80803C18.4375 8.84771 18.4342 8.91488 18.4737 8.9581C18.4951 8.9809 18.5239 8.99251 18.5527 8.99251ZM45.8625 9.40216C45.8897 9.40216 45.9177 9.39138 45.9383 9.37006C45.9794 9.328 45.9786 9.26074 45.9366 9.21983C45.8016 9.08869 45.6625 8.95665 45.5217 8.82758C45.4789 8.78798 45.4114 8.7907 45.3719 8.83391C45.3316 8.87705 45.3349 8.94422 45.3777 8.9839C45.5168 9.11174 45.6551 9.2423 45.7884 9.37204C45.809 9.3922 45.8354 9.40216 45.8625 9.40216ZM17.7372 9.78352C17.7652 9.78352 17.7924 9.77282 17.813 9.75142C17.9447 9.61633 18.0797 9.48199 18.2131 9.35233C18.255 9.3115 18.2567 9.24425 18.2155 9.2021C18.1744 9.16004 18.1077 9.15905 18.0657 9.19988C17.9299 9.33093 17.794 9.46668 17.6615 9.60324C17.6203 9.64523 17.6212 9.71248 17.6632 9.75339C17.6837 9.77348 17.7109 9.78352 17.7372 9.78352ZM46.6535 10.217C46.679 10.217 46.7053 10.2078 46.7251 10.1891C46.7687 10.1494 46.7712 10.0821 46.7317 10.0389C46.6041 9.89955 46.4724 9.75985 46.3398 9.62361C46.2987 9.58163 46.232 9.58056 46.19 9.62147C46.148 9.6623 46.1464 9.72948 46.1875 9.77154C46.3184 9.9063 46.4485 10.0446 46.5753 10.1826C46.5958 10.2054 46.6246 10.217 46.6535 10.217ZM16.9682 10.6193C16.9978 10.6193 17.0275 10.6069 17.048 10.5827C17.1715 10.4413 17.2983 10.2997 17.4251 10.1617C17.4646 10.1185 17.4613 10.0513 17.4185 10.0117C17.3757 9.97198 17.3082 9.97477 17.2687 10.0179C17.1402 10.1573 17.0118 10.3004 16.8883 10.4434C16.8497 10.4876 16.8546 10.5548 16.8982 10.5932C16.9188 10.6107 16.9435 10.6193 16.9682 10.6193ZM47.3977 11.0759C47.4216 11.0759 47.4455 11.068 47.4652 11.0519C47.5105 11.0148 47.5171 10.9478 47.48 10.9025C47.3607 10.7562 47.2364 10.6092 47.1121 10.4654C47.0734 10.4211 47.0067 10.4161 46.9623 10.4547C46.9178 10.493 46.9129 10.5601 46.9516 10.6045C47.075 10.7467 47.1969 10.8922 47.3154 11.0369C47.3368 11.0626 47.3673 11.0759 47.3977 11.0759ZM16.2479 11.4969C16.28 11.4969 16.3112 11.4827 16.3326 11.4556C16.4462 11.3085 16.5648 11.16 16.6841 11.0141C16.7212 10.9688 16.7146 10.9019 16.6693 10.8647C16.6241 10.8275 16.5574 10.8341 16.5195 10.8795C16.3985 11.0268 16.2791 11.1771 16.1647 11.3257C16.1285 11.3722 16.1367 11.4388 16.1836 11.4747C16.2026 11.4897 16.2256 11.4969 16.2479 11.4969ZM48.0925 11.9761C48.1139 11.9761 48.1353 11.9695 48.1542 11.9558C48.202 11.9213 48.2127 11.8549 48.1781 11.8075C48.0661 11.6538 47.9509 11.4999 47.8356 11.3499C47.7994 11.3035 47.7327 11.2949 47.6866 11.3308C47.6397 11.3666 47.6315 11.4332 47.6669 11.4798C47.7813 11.628 47.8957 11.7803 48.006 11.9323C48.0266 11.9609 48.0595 11.9761 48.0925 11.9761ZM15.5794 12.4134C15.6132 12.4134 15.6461 12.3973 15.6675 12.3673C15.7729 12.2136 15.8824 12.0587 15.9935 11.9067C16.0281 11.8593 16.0174 11.7929 15.9696 11.7584C15.9227 11.7238 15.856 11.7341 15.8215 11.7816C15.7095 11.9351 15.5984 12.0917 15.4922 12.2471C15.4584 12.2955 15.4708 12.3616 15.5193 12.3948C15.5375 12.4074 15.5589 12.4134 15.5794 12.4134ZM48.7345 12.9146C48.7543 12.9146 48.7741 12.9092 48.7913 12.8978C48.8407 12.866 48.8556 12.8003 48.8234 12.751C48.7205 12.591 48.6144 12.4307 48.5073 12.2746C48.4744 12.2261 48.4086 12.2139 48.36 12.2469C48.3114 12.28 48.2991 12.3461 48.332 12.3945C48.4374 12.549 48.5427 12.7075 48.6448 12.8659C48.6654 12.8974 48.6991 12.9146 48.7345 12.9146ZM14.9646 13.3662C15 13.3662 15.0354 13.348 15.0552 13.3151C15.1523 13.1547 15.2527 12.9938 15.3548 12.8369C15.3861 12.7877 15.3721 12.7219 15.3227 12.6901C15.2733 12.6584 15.2075 12.6724 15.1762 12.7217C15.0733 12.8804 14.972 13.043 14.8732 13.205C14.8436 13.2552 14.8593 13.3205 14.9095 13.3509C14.9268 13.3613 14.9457 13.3662 14.9646 13.3662ZM49.3222 13.8887C49.3395 13.8887 49.3576 13.8841 49.3741 13.8748C49.4251 13.846 49.4432 13.7812 49.4144 13.7301C49.3214 13.5651 49.2242 13.3989 49.1255 13.2363C49.0958 13.186 49.03 13.1699 48.9797 13.2002C48.9295 13.2305 48.9139 13.2957 48.9444 13.346C49.0407 13.5069 49.137 13.6713 49.2292 13.8347C49.2489 13.8693 49.2852 13.8887 49.3222 13.8887ZM14.4049 14.3521C14.4427 14.3521 14.4798 14.3316 14.4987 14.2956C14.5868 14.1303 14.6773 13.964 14.7695 13.8015C14.7992 13.7504 14.7811 13.6857 14.73 13.6567C14.679 13.6277 14.614 13.6456 14.5851 13.6966C14.4921 13.8609 14.3999 14.0289 14.311 14.1961C14.2839 14.2479 14.3036 14.3123 14.3546 14.3397C14.3711 14.3481 14.3876 14.3521 14.4049 14.3521ZM49.8531 14.895C49.8688 14.895 49.8852 14.8915 49.9 14.8841C49.9527 14.8581 49.9741 14.7945 49.9486 14.7419C49.8646 14.571 49.7774 14.3995 49.6885 14.232C49.6613 14.1802 49.5971 14.1604 49.5452 14.1877C49.4934 14.2151 49.4736 14.2794 49.5008 14.3312C49.588 14.4968 49.6745 14.6666 49.7576 14.8356C49.7766 14.8732 49.8144 14.895 49.8531 14.895ZM13.9027 15.3678C13.943 15.3678 13.9817 15.3448 13.999 15.3059C14.0772 15.1369 14.1587 14.9659 14.2418 14.7973C14.2673 14.7447 14.2459 14.681 14.1932 14.655C14.1414 14.6289 14.0772 14.6505 14.0517 14.7032C13.9669 14.8735 13.8845 15.0465 13.8063 15.2172C13.7817 15.2705 13.8047 15.3336 13.8582 15.358C13.873 15.3646 13.8878 15.3678 13.9027 15.3678ZM50.3266 15.9309C50.3398 15.9309 50.3538 15.9282 50.3678 15.9225C50.4213 15.8997 50.4468 15.8374 50.4237 15.7834C50.3505 15.6081 50.2723 15.4317 50.1941 15.2592C50.1694 15.2059 50.1068 15.1825 50.0533 15.2067C49.9998 15.231 49.9759 15.294 50.0006 15.3474C50.0788 15.5181 50.1554 15.6925 50.2287 15.866C50.2451 15.9065 50.2846 15.9309 50.3266 15.9309ZM13.4597 16.4101C13.5025 16.4101 13.542 16.3845 13.5585 16.3426C13.626 16.1697 13.6976 15.9943 13.7717 15.8212C13.7947 15.7672 13.7692 15.7049 13.7149 15.682C13.6614 15.6589 13.5988 15.6842 13.5757 15.7382C13.5017 15.9131 13.4292 16.0904 13.3609 16.2651C13.3395 16.3198 13.3666 16.3813 13.421 16.4027C13.4342 16.4077 13.4465 16.4101 13.4597 16.4101ZM50.739 16.9929C50.7505 16.9929 50.7629 16.9909 50.7744 16.9867C50.8296 16.9671 50.8584 16.9063 50.8386 16.851C50.7752 16.6722 50.7077 16.4915 50.6394 16.3142C50.618 16.2595 50.5563 16.2323 50.5019 16.2536C50.4468 16.2749 50.4196 16.3364 50.441 16.3911C50.5093 16.5665 50.576 16.7453 50.6386 16.9223C50.6542 16.9658 50.6954 16.9929 50.739 16.9929ZM13.0761 17.4791C13.1206 17.4791 13.1625 17.4507 13.1774 17.4059C13.235 17.228 13.2967 17.0482 13.3601 16.8714C13.3799 16.8163 13.351 16.7555 13.2959 16.7356C13.2407 16.7157 13.1798 16.7445 13.1601 16.7997C13.0959 16.9784 13.0341 17.1601 12.9748 17.34C12.9567 17.3957 12.9872 17.4557 13.0432 17.4739C13.0539 17.4775 13.0654 17.4791 13.0761 17.4791ZM51.0888 18.0755C51.0987 18.0755 51.1086 18.0741 51.1193 18.0713C51.1752 18.0548 51.2073 17.9958 51.1909 17.9395C51.1382 17.7586 51.0814 17.5749 51.0229 17.3937C51.0048 17.338 50.9456 17.3072 50.8896 17.3254C50.8336 17.3434 50.8031 17.4032 50.8213 17.459C50.8789 17.6383 50.9349 17.82 50.9875 17.9991C51.0007 18.0454 51.0427 18.0755 51.0888 18.0755ZM12.7543 18.5687C12.8012 18.5687 12.8448 18.5372 12.8572 18.4896C12.9049 18.3078 12.956 18.1247 13.0095 17.9455C13.0259 17.8892 12.9938 17.8301 12.937 17.8136C12.8811 17.797 12.8218 17.8291 12.8053 17.8853C12.7518 18.0666 12.7 18.2516 12.6522 18.4354C12.6366 18.4921 12.6703 18.5503 12.7271 18.5652C12.7362 18.5675 12.7452 18.5687 12.7543 18.5687ZM51.3764 19.1748C51.3838 19.1748 51.392 19.1739 51.4002 19.1721C51.457 19.1589 51.4933 19.1019 51.4801 19.0447C51.4373 18.8611 51.392 18.6744 51.3434 18.4901C51.3286 18.4334 51.271 18.3994 51.2142 18.4142C51.1574 18.429 51.1236 18.4869 51.1385 18.5437C51.1854 18.7261 51.2307 18.9107 51.2726 19.0924C51.2842 19.1415 51.3278 19.1748 51.3764 19.1748ZM12.4966 19.675C12.546 19.675 12.5896 19.6403 12.6003 19.5899C12.6374 19.407 12.6777 19.2214 12.7205 19.0379C12.7345 18.9809 12.6983 18.9237 12.6415 18.9104C12.5839 18.8969 12.5271 18.9326 12.5139 18.9896C12.4702 19.1751 12.4299 19.3628 12.392 19.5476C12.3805 19.6051 12.4176 19.6612 12.4752 19.6729L12.4966 19.675ZM51.5994 20.2885L51.6175 20.287C51.6751 20.2772 51.7138 20.2223 51.7039 20.1645C51.6726 19.9788 51.6372 19.7898 51.6002 19.603C51.5887 19.5454 51.5319 19.5082 51.4751 19.5197C51.4174 19.5312 51.3804 19.5871 51.3919 19.6446C51.429 19.8296 51.4635 20.0165 51.4948 20.2002C51.5039 20.2519 51.5483 20.2885 51.5994 20.2885ZM12.3014 20.7939C12.3541 20.7939 12.3993 20.7558 12.4067 20.7028C12.4339 20.5167 12.4635 20.329 12.4957 20.1449C12.5055 20.0871 12.4668 20.0321 12.4092 20.0221C12.3516 20.0124 12.2964 20.0507 12.2866 20.1085C12.2536 20.2946 12.2232 20.4844 12.1968 20.6726C12.1878 20.7306 12.2281 20.7844 12.2866 20.7928L12.3014 20.7939ZM51.7582 21.4132L51.7706 21.4125C51.829 21.4059 51.871 21.3533 51.8644 21.2951C51.843 21.1071 51.8192 20.9165 51.792 20.7286C51.7846 20.6705 51.7303 20.6303 51.6726 20.6383C51.6142 20.6465 51.5738 20.7003 51.5821 20.7583C51.6084 20.9443 51.6323 21.1328 51.6529 21.3188C51.6595 21.3731 51.7056 21.4132 51.7582 21.4132ZM12.1714 21.9224C12.2266 21.9224 12.2727 21.8807 12.2776 21.8254C12.2932 21.6381 12.313 21.4489 12.3344 21.2633C12.341 21.205 12.299 21.1523 12.2406 21.1456C12.1829 21.1386 12.1294 21.1806 12.1228 21.2389C12.1014 21.4265 12.0825 21.6177 12.066 21.8071C12.0603 21.8654 12.1039 21.9169 12.1624 21.922L12.1714 21.9224ZM51.8535 22.5452L51.8592 22.545C51.9177 22.5417 51.963 22.4917 51.9597 22.4331C51.949 22.2442 51.9358 22.0526 51.9193 21.8635C51.9152 21.805 51.8634 21.7611 51.8049 21.7665C51.7465 21.7714 51.7028 21.8227 51.7078 21.8811C51.7234 22.0682 51.7366 22.258 51.7473 22.4448C51.7506 22.5014 51.7975 22.5452 51.8535 22.5452ZM12.1054 23.0564C12.163 23.0564 12.2099 23.0109 12.2116 22.9533C12.2173 22.767 12.2256 22.577 12.2363 22.3889C12.2396 22.3303 12.1951 22.28 12.1367 22.2767C12.079 22.2737 12.028 22.3179 12.0247 22.3764C12.0132 22.5667 12.005 22.7586 11.9992 22.9471C11.9976 23.0057 12.0437 23.0547 12.1021 23.0564H12.1054ZM51.8839 23.6806C51.9424 23.6806 51.9901 23.6331 51.9901 23.5744V23.5556C51.9901 23.3718 51.9876 23.186 51.9827 23.0035C51.9811 22.9449 51.9308 22.8988 51.874 22.9002C51.8148 22.9019 51.7687 22.9507 51.7703 23.0093C51.7753 23.1899 51.7777 23.3737 51.7777 23.5556V23.5744C51.7777 23.6331 51.8255 23.6806 51.8839 23.6806ZM12.1046 24.2297L12.1071 24.2296C12.1655 24.228 12.2124 24.1791 12.2108 24.1205C12.205 23.9321 12.2025 23.742 12.2025 23.5555V23.5182C12.2025 23.4595 12.1548 23.412 12.0963 23.412C12.0379 23.412 11.9902 23.4595 11.9902 23.5182V23.5555C11.9902 23.744 11.9926 23.936 11.9984 24.1265C12 24.184 12.047 24.2297 12.1046 24.2297ZM51.8516 24.8161C51.9076 24.8161 51.9545 24.7725 51.9578 24.7159C51.9685 24.5266 51.9767 24.3346 51.9825 24.1454C51.9841 24.0868 51.938 24.0379 51.8796 24.0362C51.8195 24.0344 51.7718 24.0807 51.7701 24.1393C51.7644 24.3265 51.7561 24.5165 51.7454 24.7038C51.7421 24.7624 51.7874 24.8126 51.8459 24.8159L51.8516 24.8161ZM12.1682 25.3639L12.1773 25.3636C12.2357 25.3587 12.2793 25.3073 12.2744 25.2489C12.2579 25.061 12.2448 24.8714 12.2349 24.6852C12.2308 24.6267 12.1797 24.5823 12.1221 24.5852C12.0637 24.5885 12.0192 24.6385 12.0225 24.6971C12.0332 24.8853 12.0464 25.0769 12.0628 25.2667C12.067 25.3221 12.1139 25.3639 12.1682 25.3639ZM51.7542 25.9481C51.8077 25.9481 51.8538 25.9082 51.8604 25.854C51.8818 25.6647 51.9007 25.4735 51.9164 25.2858C51.9221 25.2273 51.8785 25.1759 51.82 25.1709C51.7616 25.166 51.7097 25.2093 51.7048 25.2676C51.6892 25.4534 51.6702 25.6425 51.6488 25.8299C51.6422 25.8882 51.6842 25.9408 51.7427 25.9474L51.7542 25.9481ZM12.2965 26.4927L12.3113 26.4916C12.3689 26.4834 12.4092 26.4297 12.4018 26.3715C12.3747 26.1848 12.3508 25.9962 12.3294 25.811C12.3228 25.7527 12.2701 25.7106 12.2125 25.7175C12.154 25.7241 12.1121 25.7768 12.1187 25.8351C12.1401 26.0221 12.1648 26.2127 12.1911 26.4014C12.1985 26.4544 12.2438 26.4927 12.2965 26.4927ZM51.5937 27.0723C51.6439 27.0723 51.6892 27.0358 51.6982 26.9842C51.7303 26.7963 51.76 26.6066 51.7871 26.4201C51.7954 26.3621 51.755 26.3082 51.6966 26.2999C51.639 26.2914 51.5846 26.332 51.5764 26.3901C51.5501 26.5744 51.5204 26.7622 51.4883 26.948C51.4784 27.0058 51.5171 27.0608 51.5756 27.0708L51.5937 27.0723ZM12.4882 27.6121L12.5096 27.6101C12.5672 27.5985 12.6043 27.5425 12.5927 27.485C12.5557 27.2993 12.5203 27.1124 12.489 26.9295C12.4791 26.8717 12.424 26.8331 12.3664 26.8428C12.3087 26.8527 12.2701 26.9076 12.2799 26.9655C12.3112 27.1503 12.3466 27.3392 12.3845 27.5268C12.3944 27.5772 12.4388 27.6121 12.4882 27.6121ZM51.3678 28.1857C51.4155 28.1857 51.4592 28.1526 51.4707 28.1036C51.5135 27.9188 51.5547 27.731 51.5925 27.5455C51.6041 27.488 51.5662 27.432 51.5094 27.4203C51.4518 27.4087 51.3958 27.4458 51.3843 27.5034C51.3472 27.6869 51.3069 27.8727 51.2641 28.0554C51.2509 28.1126 51.2863 28.1697 51.3431 28.1829C51.3513 28.1848 51.3596 28.1857 51.3678 28.1857ZM12.7451 28.7188C12.7533 28.7188 12.7624 28.7177 12.7715 28.7153C12.8283 28.7005 12.8628 28.6424 12.848 28.5856C12.8003 28.4046 12.755 28.2201 12.7122 28.0371C12.699 27.98 12.6422 27.9443 12.5846 27.9576C12.5278 27.9709 12.4924 28.0279 12.5056 28.085C12.5484 28.27 12.5945 28.4566 12.6422 28.6395C12.6546 28.6872 12.6974 28.7188 12.7451 28.7188ZM51.0791 29.2843C51.1244 29.2843 51.1672 29.2543 51.1804 29.208C51.2339 29.0259 51.2858 28.8408 51.3335 28.6579C51.3492 28.6011 51.3146 28.5431 51.2578 28.5281C51.201 28.5131 51.1434 28.5471 51.1285 28.6039C51.0808 28.7849 51.0298 28.968 50.9771 29.1481C50.9606 29.2044 50.9927 29.2635 51.0487 29.2799C51.0586 29.2829 51.0693 29.2843 51.0791 29.2843ZM13.0646 29.809C13.0753 29.809 13.086 29.8073 13.0975 29.8038C13.1527 29.7856 13.184 29.7258 13.1659 29.67C13.1074 29.4919 13.0514 29.3103 12.9988 29.1301C12.9823 29.0738 12.923 29.0415 12.8671 29.058C12.8111 29.0746 12.7781 29.1335 12.7946 29.1899C12.8481 29.372 12.9049 29.5556 12.9634 29.7355C12.9782 29.7805 13.0193 29.809 13.0646 29.809ZM50.7264 30.3644C50.7701 30.3644 50.8112 30.3373 50.8269 30.294C50.8911 30.1144 50.9528 29.9326 51.0113 29.7534C51.0294 29.6976 50.9989 29.6377 50.9429 29.6196C50.8878 29.6014 50.8277 29.632 50.8096 29.6877C50.7519 29.865 50.6902 30.0449 50.6268 30.2223C50.6071 30.2776 50.6359 30.3384 50.691 30.3582C50.7026 30.3624 50.7149 30.3644 50.7264 30.3644ZM13.4475 30.8824C13.4607 30.8824 13.473 30.88 13.4862 30.8751C13.5405 30.8538 13.5677 30.7923 13.5463 30.7376C13.4779 30.5614 13.4113 30.3826 13.3487 30.2066C13.3289 30.1514 13.268 30.1224 13.2129 30.1423C13.1577 30.162 13.1289 30.2228 13.1487 30.278C13.212 30.456 13.2796 30.6365 13.3487 30.8147C13.3652 30.8566 13.4047 30.8824 13.4475 30.8824ZM50.3143 31.4209C50.3554 31.4209 50.3949 31.3966 50.4122 31.3561C50.4855 31.1826 50.5579 31.0053 50.6262 30.8289C50.6476 30.7744 50.6213 30.7128 50.5661 30.6914C50.5118 30.6701 50.4501 30.6971 50.4287 30.7517C50.3603 30.9261 50.2896 31.1016 50.2163 31.2732C50.1932 31.3272 50.2188 31.3895 50.2731 31.4124C50.2863 31.4182 50.3003 31.4209 50.3143 31.4209ZM13.8909 31.9312C13.9057 31.9312 13.9214 31.9281 13.9354 31.9216C13.9889 31.8972 14.0119 31.8342 13.988 31.7808C13.909 31.609 13.8325 31.4345 13.7592 31.2624C13.737 31.2085 13.6744 31.183 13.6201 31.206C13.5666 31.2289 13.541 31.2911 13.5641 31.3452C13.6374 31.5191 13.7147 31.6955 13.7946 31.8692C13.8127 31.9082 13.8506 31.9312 13.8909 31.9312ZM49.8423 32.4507C49.881 32.4507 49.9188 32.4289 49.9378 32.3914C50.0209 32.2222 50.1032 32.049 50.1823 31.8771C50.207 31.8237 50.1831 31.7608 50.1296 31.7363C50.0761 31.7119 50.0135 31.7353 49.9888 31.7886C49.9114 31.9588 49.8299 32.13 49.7468 32.2975C49.7213 32.3501 49.7427 32.4137 49.7954 32.4396C49.8102 32.4471 49.8266 32.4507 49.8423 32.4507ZM14.3948 32.9525C14.4113 32.9525 14.4286 32.9485 14.4442 32.9401C14.4961 32.9127 14.5158 32.8484 14.4887 32.7966C14.3998 32.6295 14.3133 32.4598 14.231 32.2924C14.2047 32.2398 14.1413 32.2182 14.0886 32.244C14.0359 32.27 14.0145 32.3337 14.04 32.3863C14.124 32.5554 14.2113 32.7269 14.301 32.8959C14.3199 32.9319 14.357 32.9525 14.3948 32.9525ZM49.3123 33.4523C49.3493 33.4523 49.3847 33.4329 49.4045 33.3984C49.4983 33.2337 49.5897 33.0656 49.6786 32.8986C49.7058 32.8468 49.686 32.7825 49.6342 32.7551C49.5823 32.7277 49.5181 32.7474 49.4909 32.7993C49.4028 32.9645 49.3123 33.1308 49.2201 33.2937C49.1913 33.3447 49.2086 33.4096 49.2596 33.4385C49.2761 33.4478 49.2942 33.4523 49.3123 33.4523ZM14.9553 33.9424C14.9742 33.9424 14.9932 33.9374 15.0105 33.9271C15.0607 33.8967 15.0763 33.8314 15.0459 33.7813C14.9496 33.621 14.8532 33.4568 14.7602 33.2929C14.7314 33.2418 14.6664 33.224 14.6153 33.2529C14.5643 33.2818 14.5462 33.3465 14.5758 33.3976C14.6688 33.5632 14.7668 33.7292 14.8648 33.8912C14.8845 33.9242 14.9191 33.9424 14.9553 33.9424ZM48.7254 34.4224C48.76 34.4224 48.7946 34.4053 48.8151 34.3738C48.9172 34.215 49.0185 34.0523 49.1164 33.8902C49.1469 33.84 49.1312 33.7747 49.081 33.7443C49.0308 33.7139 48.9658 33.7301 48.9353 33.7803C48.8382 33.9407 48.7378 34.1017 48.6365 34.2587C48.6044 34.308 48.6192 34.3737 48.6678 34.4055C48.6859 34.417 48.7056 34.4224 48.7254 34.4224ZM15.5711 34.8984C15.5925 34.8984 15.6131 34.8924 15.6312 34.8798C15.6798 34.8467 15.6921 34.7806 15.6592 34.7322C15.553 34.5776 15.4476 34.4191 15.3456 34.2611C15.3143 34.2118 15.2484 34.1977 15.199 34.2294C15.1496 34.2612 15.1356 34.3269 15.1669 34.3761C15.2698 34.5359 15.3768 34.6961 15.4838 34.8523C15.5044 34.8823 15.5374 34.8984 15.5711 34.8984ZM48.084 35.3581C48.1169 35.3581 48.149 35.3429 48.1696 35.3144C48.2807 35.1618 48.3919 35.0051 48.4989 34.8485C48.5326 34.8002 48.5203 34.7341 48.4717 34.7009C48.4232 34.6678 48.3573 34.6801 48.3236 34.7285C48.2174 34.8833 48.1079 35.0384 47.9984 35.1894C47.9638 35.2368 47.9745 35.3033 48.0214 35.3377C48.0404 35.3515 48.0626 35.3581 48.084 35.3581ZM16.2414 35.8175C16.2636 35.8175 16.2867 35.8103 16.3064 35.7953C16.3525 35.7594 16.3607 35.6927 16.3254 35.6464C16.2109 35.4988 16.0965 35.3467 15.9854 35.1941C15.9508 35.1466 15.8849 35.1361 15.8372 35.1708C15.7903 35.2053 15.7796 35.2717 15.8141 35.3191C15.9261 35.4734 16.0422 35.6272 16.1574 35.7763C16.178 35.8033 16.2093 35.8175 16.2414 35.8175ZM47.3902 36.2562C47.4214 36.2562 47.4519 36.243 47.4725 36.2173C47.5935 36.0698 47.7128 35.9195 47.8281 35.7707C47.8635 35.7243 47.8553 35.6576 47.8083 35.6217C47.7622 35.586 47.6956 35.5945 47.6593 35.641C47.5457 35.7881 47.428 35.9367 47.3087 36.0827C47.2708 36.1281 47.2782 36.195 47.3235 36.2322C47.3432 36.2483 47.3671 36.2562 47.3902 36.2562ZM16.9616 36.6965C16.9862 36.6965 17.0109 36.688 17.0307 36.6706C17.0752 36.6321 17.0801 36.5651 17.0414 36.5208C16.9179 36.3785 16.7953 36.233 16.6767 36.0887C16.6397 36.0434 16.573 36.0366 16.5277 36.0739C16.4825 36.111 16.4759 36.1779 16.5129 36.2233C16.6323 36.3692 16.7566 36.5161 16.8809 36.66C16.9023 36.6842 16.9319 36.6965 16.9616 36.6965ZM46.6469 37.114C46.6757 37.114 46.7037 37.1024 46.7251 37.0796C46.8536 36.9399 46.9812 36.7966 47.1046 36.6538C47.1433 36.6095 47.1384 36.5424 47.0939 36.5039C47.0503 36.4655 46.9828 36.4704 46.9449 36.5146C46.8223 36.656 46.6955 36.7977 46.5687 36.936C46.5292 36.9792 46.5317 37.0463 46.5745 37.086C46.5951 37.1047 46.6206 37.114 46.6469 37.114ZM17.7304 37.533C17.7568 37.533 17.7831 37.5231 17.8045 37.503C17.8465 37.4621 17.8473 37.3948 17.8062 37.3528C17.6753 37.2184 17.5452 37.0803 17.4185 36.9421C17.3781 36.8989 17.3114 36.8963 17.2678 36.9359C17.225 36.9755 17.2217 37.0427 17.2621 37.0859C17.3896 37.2254 17.5222 37.365 17.6539 37.5008C17.6745 37.5222 17.7025 37.533 17.7304 37.533ZM45.8549 37.9285C45.8812 37.9285 45.9084 37.9185 45.9289 37.8985C46.0656 37.7655 46.2014 37.6297 46.3323 37.4946C46.3735 37.4526 46.3726 37.3853 46.3307 37.3445C46.2887 37.3037 46.2212 37.3046 46.18 37.3466C46.0508 37.4803 45.9158 37.6147 45.7808 37.7461C45.7388 37.787 45.738 37.8543 45.7791 37.8963C45.7997 37.9178 45.8269 37.9285 45.8549 37.9285ZM18.5445 38.3243C18.5733 38.3243 18.6022 38.3128 18.6236 38.2899C18.6631 38.2467 18.6598 38.1796 18.617 38.1399C18.4779 38.0128 18.3404 37.8823 18.2062 37.7521C18.1642 37.7113 18.0967 37.7122 18.0555 37.7543C18.0152 37.7964 18.016 37.8636 18.058 37.9045C18.1938 38.036 18.333 38.1679 18.4729 38.2964C18.4935 38.3151 18.519 38.3243 18.5445 38.3243ZM45.0185 38.6967C45.0424 38.6967 45.0679 38.6882 45.0876 38.6708C45.2309 38.5463 45.3749 38.4183 45.5141 38.2904C45.5569 38.2507 45.5602 38.1836 45.5198 38.1404C45.4803 38.0971 45.4136 38.0944 45.37 38.134C45.2325 38.2604 45.0909 38.3871 44.9485 38.5103C44.9041 38.5487 44.8991 38.6158 44.9378 38.6601C44.9592 38.6843 44.988 38.6967 45.0185 38.6967ZM19.4031 39.0679C19.4336 39.0679 19.464 39.0547 19.4854 39.029C19.5225 38.9836 19.5159 38.9167 19.4706 38.8796C19.3249 38.7604 19.1792 38.6381 19.0384 38.5159C18.994 38.4775 18.9265 38.4823 18.8886 38.5265C18.8499 38.5709 18.8548 38.638 18.8993 38.6764C19.0417 38.7999 19.1882 38.9235 19.3356 39.0439C19.3554 39.06 19.3792 39.0679 19.4031 39.0679ZM44.1387 39.4168C44.1618 39.4168 44.184 39.4095 44.2038 39.3946C44.3536 39.2788 44.5042 39.1591 44.6508 39.039C44.6961 39.0018 44.7026 38.9349 44.6656 38.8895C44.6286 38.8442 44.5619 38.8375 44.5166 38.8746C44.3709 38.9935 44.2227 39.1119 44.0737 39.2265C44.0276 39.2623 44.0186 39.329 44.0548 39.3754C44.0754 39.4026 44.1075 39.4168 44.1387 39.4168ZM20.3012 39.7612C20.3342 39.7612 20.3663 39.7461 20.3877 39.7175C20.4214 39.6701 20.4115 39.6036 20.3638 39.5691C20.2115 39.4583 20.06 39.3445 19.9119 39.2307C19.8658 39.195 19.7991 39.2035 19.7629 39.2499C19.7275 39.2963 19.7357 39.363 19.7826 39.3988C19.9316 39.5138 20.0847 39.6289 20.2387 39.7409C20.2576 39.7546 20.2798 39.7612 20.3012 39.7612ZM43.2189 40.0859C43.2403 40.0859 43.2609 40.0799 43.279 40.0674C43.4362 39.9598 43.5935 39.8489 43.7458 39.7376C43.7935 39.7031 43.8042 39.6367 43.7696 39.5893C43.7351 39.5418 43.6684 39.5314 43.6215 39.5659C43.47 39.6759 43.3144 39.7857 43.1588 39.8922C43.1111 39.9253 43.0987 39.9913 43.1317 40.0398C43.1522 40.0698 43.1852 40.0859 43.2189 40.0859ZM21.2373 40.4022C21.2718 40.4022 21.3064 40.385 21.327 40.3535C21.3583 40.3042 21.3443 40.2384 21.2949 40.2067C21.1377 40.1057 20.9796 40.0007 20.8248 39.8947C20.7771 39.8616 20.7104 39.8738 20.6775 39.9222C20.6446 39.9706 20.6569 40.0368 20.7046 40.0699C20.8619 40.1771 21.0216 40.2832 21.1796 40.3853C21.1977 40.3967 21.2175 40.4022 21.2373 40.4022ZM42.2634 40.7016C42.2815 40.7016 42.3004 40.6968 42.3177 40.6863C42.4799 40.5883 42.6437 40.4864 42.8034 40.3836C42.8528 40.3519 42.8668 40.2862 42.8347 40.2369C42.8034 40.1875 42.7375 40.1734 42.6881 40.2051C42.5301 40.3068 42.3687 40.4076 42.2082 40.5046C42.158 40.5349 42.1415 40.6001 42.172 40.6503C42.1918 40.6834 42.2272 40.7016 42.2634 40.7016ZM22.2076 40.9883C22.2446 40.9883 22.2809 40.9689 22.3006 40.9343C22.3294 40.8833 22.3113 40.8185 22.2603 40.7896C22.0965 40.6972 21.9327 40.6014 21.773 40.505C21.7236 40.4746 21.6577 40.4906 21.6273 40.5409C21.5976 40.5911 21.6133 40.6564 21.6635 40.6867C21.8248 40.7843 21.9903 40.8811 22.1557 40.9745C22.1722 40.9838 22.1903 40.9883 22.2076 40.9883ZM41.272 41.2621C41.2893 41.2621 41.3057 41.2581 41.3222 41.2497C41.4893 41.1613 41.6581 41.069 41.8235 40.9752C41.8746 40.9463 41.8927 40.8815 41.8639 40.8305C41.835 40.7794 41.77 40.7616 41.719 40.7903C41.5552 40.8831 41.3881 40.9745 41.2226 41.062C41.1707 41.0894 41.151 41.1536 41.1781 41.2055C41.1971 41.2415 41.2341 41.2621 41.272 41.2621ZM23.2094 41.5179C23.249 41.5179 23.2868 41.4962 23.3049 41.4586C23.3313 41.406 23.309 41.3423 23.2564 41.3165C23.0893 41.234 22.9205 41.1478 22.755 41.0601C22.7032 41.0328 22.639 41.0526 22.611 41.1044C22.5838 41.1563 22.6036 41.2205 22.6554 41.248C22.8234 41.3365 22.9938 41.4237 23.1625 41.507C23.1782 41.5144 23.1938 41.5179 23.2094 41.5179ZM40.2514 41.7647C40.2662 41.7647 40.2811 41.7616 40.2951 41.7551C40.4679 41.676 40.6424 41.5934 40.812 41.5097C40.8647 41.4837 40.8869 41.42 40.8606 41.3674C40.8351 41.3148 40.7709 41.2932 40.719 41.3191C40.5503 41.402 40.3782 41.4837 40.207 41.5619C40.1535 41.5862 40.1304 41.6493 40.1543 41.7025C40.1724 41.7416 40.2111 41.7647 40.2514 41.7647ZM24.2394 41.9893C24.2813 41.9893 24.3209 41.965 24.3373 41.9245C24.3604 41.8705 24.3349 41.8082 24.2813 41.7853C24.1085 41.7122 23.9348 41.6358 23.766 41.5583C23.7125 41.534 23.6491 41.5573 23.6253 41.6107C23.6006 41.664 23.6244 41.727 23.6771 41.7514C23.8483 41.8298 24.0237 41.907 24.1982 41.9809C24.2122 41.9866 24.2262 41.9893 24.2394 41.9893ZM39.2019 42.2081C39.2151 42.2081 39.2283 42.2058 39.2406 42.2009C39.4176 42.1319 39.5962 42.0594 39.7716 41.9855C39.8251 41.9627 39.8506 41.9003 39.8276 41.8463C39.8053 41.7924 39.7428 41.767 39.6884 41.79C39.5156 41.8631 39.3386 41.9347 39.1632 42.0029C39.1089 42.0242 39.0817 42.0858 39.1031 42.1404C39.1196 42.1824 39.1599 42.2081 39.2019 42.2081ZM25.2964 42.4014C25.34 42.4014 25.3812 42.3744 25.3968 42.3309C25.4157 42.2757 25.3878 42.215 25.3318 42.1952C25.1556 42.1321 24.977 42.0656 24.8025 41.9975C24.7481 41.9763 24.6864 42.0032 24.665 42.0578C24.6436 42.1125 24.6708 42.1741 24.7259 42.1954C24.9021 42.2642 25.0824 42.3315 25.261 42.3953C25.2725 42.3995 25.2849 42.4014 25.2964 42.4014ZM38.1284 42.5905C38.1391 42.5905 38.1507 42.5888 38.1614 42.5852C38.3425 42.5265 38.5252 42.4645 38.7039 42.4008C38.759 42.3811 38.7878 42.3203 38.7681 42.265C38.7483 42.2099 38.6882 42.1811 38.6322 42.2006C38.4552 42.2637 38.275 42.3252 38.0955 42.3832C38.0404 42.4013 38.0091 42.4612 38.0272 42.517C38.042 42.5619 38.084 42.5905 38.1284 42.5905ZM26.3766 42.7526C26.4227 42.7526 26.4655 42.7226 26.4787 42.6764C26.4952 42.6201 26.4631 42.561 26.4071 42.5445C26.2268 42.4917 26.0457 42.4355 25.8671 42.3776C25.8111 42.3593 25.7518 42.39 25.7329 42.4457C25.7148 42.5015 25.7452 42.5614 25.8012 42.5796C25.9815 42.6382 26.1651 42.695 26.347 42.7483C26.3569 42.7512 26.3668 42.7526 26.3766 42.7526ZM37.0386 42.9095C37.0468 42.9095 37.0558 42.9083 37.0649 42.906C37.2493 42.8577 37.4345 42.8064 37.6156 42.7535C37.6716 42.737 37.7037 42.6781 37.6881 42.6217C37.6708 42.5654 37.6123 42.5331 37.5555 42.5496C37.3769 42.602 37.1941 42.6527 37.0114 42.7005C36.9546 42.7153 36.9208 42.7734 36.9357 42.8301C36.948 42.8778 36.9908 42.9095 37.0386 42.9095ZM27.4754 43.0409C27.524 43.0409 27.5676 43.0078 27.5792 42.9587C27.5923 42.9016 27.5569 42.8446 27.4993 42.8312C27.3166 42.7888 27.1322 42.7432 26.9511 42.6957C26.8943 42.6808 26.8358 42.7147 26.821 42.7714C26.8062 42.8281 26.8408 42.8862 26.8967 42.9011C27.0803 42.9492 27.2672 42.9953 27.4516 43.0382C27.4598 43.0401 27.468 43.0409 27.4754 43.0409ZM35.9313 43.1655L35.9527 43.1633C36.138 43.126 36.3257 43.0854 36.5109 43.0427C36.5677 43.0295 36.6031 42.9725 36.5899 42.9154C36.5767 42.8583 36.5199 42.8227 36.4631 42.8358C36.2796 42.8781 36.0943 42.9182 35.9108 42.955C35.8531 42.9666 35.8161 43.0226 35.8276 43.0801C35.8375 43.1305 35.882 43.1655 35.9313 43.1655ZM28.5891 43.2659C28.6393 43.2659 28.6846 43.2294 28.6937 43.1777C28.7035 43.12 28.6648 43.065 28.6072 43.055C28.422 43.0232 28.236 42.9883 28.0516 42.9511C27.9948 42.9394 27.938 42.9767 27.9264 43.0342C27.9149 43.0916 27.952 43.1477 28.0096 43.1593C28.1956 43.1968 28.3841 43.2322 28.571 43.2643L28.5891 43.2659ZM34.8119 43.357L34.8267 43.356C35.0144 43.3294 35.2045 43.2996 35.3906 43.2676C35.449 43.2578 35.4877 43.2029 35.4778 43.1451C35.468 43.0873 35.4128 43.0487 35.3552 43.0583C35.17 43.09 34.9823 43.1193 34.797 43.1457C34.7386 43.154 34.6983 43.2077 34.7065 43.2657C34.7139 43.3188 34.76 43.357 34.8119 43.357ZM29.7137 43.4267C29.7672 43.4267 29.8124 43.3868 29.819 43.3326C29.8256 43.2743 29.7836 43.2217 29.7252 43.2151C29.5391 43.1939 29.3506 43.1696 29.1654 43.1431C29.1078 43.1346 29.0534 43.1752 29.0452 43.2332C29.037 43.2913 29.0773 43.3451 29.1349 43.3534C29.3226 43.3802 29.5136 43.4047 29.7013 43.4261L29.7137 43.4267ZM33.6833 43.4846L33.6923 43.4843C33.8808 43.4683 34.0718 43.4495 34.2603 43.4282C34.3188 43.4216 34.3608 43.369 34.3542 43.3107C34.3476 43.2524 34.2941 43.2107 34.2365 43.2171C34.0504 43.2382 33.8611 43.2569 33.6742 43.2726C33.6158 43.2775 33.5721 43.3288 33.5771 43.3873C33.582 43.4428 33.6281 43.4846 33.6833 43.4846ZM30.8455 43.523C30.9015 43.523 30.9476 43.4793 30.9509 43.4229C30.9542 43.3642 30.9097 43.3141 30.8513 43.3108C30.6636 43.3002 30.4742 43.2867 30.2874 43.2708C30.2314 43.2658 30.1779 43.3091 30.173 43.3676C30.168 43.4261 30.2108 43.4774 30.2693 43.4825C30.4578 43.4985 30.6496 43.5121 30.8389 43.5229L30.8455 43.523ZM32.5487 43.5478H32.552C32.7414 43.5426 32.934 43.5345 33.1225 43.524C33.181 43.5207 33.2254 43.4707 33.2221 43.4121C33.2188 43.3535 33.1686 43.3087 33.1102 43.312C32.9241 43.3224 32.734 43.3303 32.5463 43.3355C32.487 43.3371 32.4409 43.386 32.4426 43.4446C32.4442 43.5022 32.4911 43.5478 32.5487 43.5478ZM31.9806 43.5557C32.039 43.5557 32.0868 43.5082 32.0868 43.4495C32.0868 43.3909 32.039 43.3433 31.9806 43.3433C31.7937 43.3432 31.6036 43.3404 31.4159 43.335C31.3583 43.3337 31.308 43.3796 31.3064 43.4382C31.3048 43.4968 31.3509 43.5457 31.4093 43.5474C31.5995 43.5528 31.7913 43.5556 31.9806 43.5557Z" fill="#FBB03B"/>
<path d="M5.21392 59.5557H6.42592V53.6877L9.31792 59.0757L12.2099 53.6877V59.5557H13.4219V51.3117H12.2099L9.31792 56.6997L6.42592 51.3117H5.21392V59.5557ZM17.9387 53.2077C17.2547 53.2077 16.4747 53.3877 15.5867 53.8317L16.0187 54.7077C16.5587 54.4317 17.1587 54.1917 17.7707 54.1917C19.0067 54.1917 19.3667 55.0197 19.3667 55.7997V55.9917C18.7667 55.7877 18.1067 55.6557 17.4947 55.6557C16.1267 55.6557 15.0107 56.4837 15.0107 57.7197C15.0107 58.9317 15.9827 59.6997 17.3027 59.6997C18.0587 59.6997 18.9107 59.3517 19.3667 58.7037V59.5557H20.5307V55.7997C20.5307 54.2637 19.6067 53.2077 17.9387 53.2077ZM17.5307 58.7637C16.7507 58.7637 16.1507 58.3557 16.1507 57.6837C16.1507 57.0117 16.8467 56.5437 17.6747 56.5437C18.2867 56.5437 18.8627 56.6277 19.3667 56.7837V57.6117C19.1627 58.3797 18.2987 58.7637 17.5307 58.7637ZM25.4048 53.2077C24.5648 53.2077 23.8088 53.6397 23.4368 54.2517V53.3517H22.2488V59.5557H23.4368V55.5357C23.5328 54.8037 24.2768 54.2397 25.1408 54.2397C25.9808 54.2397 26.5688 54.8877 26.5688 55.8117V59.5557H27.7328V55.6077C27.7328 54.2037 26.7728 53.2077 25.4048 53.2077ZM32.8764 53.2077C31.9164 53.2077 31.1484 53.6637 30.6684 54.4197V53.3517H29.4924V61.6197H30.6684V58.4757C31.1484 59.2437 31.9164 59.6997 32.8764 59.6997C34.5084 59.6997 35.7324 58.3557 35.7324 56.4477C35.7324 54.5517 34.5084 53.2077 32.8764 53.2077ZM32.5884 58.6677C31.4724 58.6677 30.6684 57.7437 30.6684 56.4477C30.6684 55.1517 31.4724 54.2397 32.5884 54.2397C33.7284 54.2397 34.5324 55.1517 34.5324 56.4477C34.5324 57.7437 33.7284 58.6677 32.5884 58.6677ZM38.4147 54.5397V53.3517H37.2267V59.5557H38.4147V56.0277C38.5227 54.9477 39.4347 54.2397 40.7187 54.2397V53.2077C39.6507 53.2077 38.8107 53.7237 38.4147 54.5397ZM44.7217 58.6437C43.6537 58.6437 42.8977 57.8997 42.7417 56.8677H47.6257C47.6257 54.6477 46.5337 53.2077 44.6377 53.2077C42.9217 53.2077 41.5417 54.5757 41.5417 56.4357C41.5417 58.3437 43.0057 59.6997 44.7337 59.6997C45.6097 59.6997 46.6897 59.3277 47.2417 58.7397L46.4977 57.9717C46.1257 58.3557 45.3697 58.6437 44.7217 58.6437ZM44.6857 54.2637C45.7537 54.2637 46.3417 54.9597 46.4737 55.9197H42.7537C42.9457 54.9117 43.7257 54.2637 44.6857 54.2637ZM51.8467 58.6437C50.7787 58.6437 50.0227 57.8997 49.8667 56.8677H54.7507C54.7507 54.6477 53.6587 53.2077 51.7627 53.2077C50.0467 53.2077 48.6667 54.5757 48.6667 56.4357C48.6667 58.3437 50.1307 59.6997 51.8587 59.6997C52.7347 59.6997 53.8147 59.3277 54.3667 58.7397L53.6227 57.9717C53.2507 58.3557 52.4947 58.6437 51.8467 58.6437ZM51.8107 54.2637C52.8787 54.2637 53.4667 54.9597 53.5987 55.9197H49.8787C50.0707 54.9117 50.8507 54.2637 51.8107 54.2637ZM59.0317 58.4397C58.8997 58.5717 58.6597 58.6677 58.3957 58.6677C58.0477 58.6677 57.7597 58.3557 57.7597 57.9237V54.3597H59.2237V53.3517H57.7597V51.6477H56.5957V53.3517H55.6597V54.3597H56.5957V58.0077C56.5957 59.0037 57.2677 59.6997 58.2277 59.6997C58.6717 59.6997 59.1277 59.5317 59.4637 59.2557L59.0317 58.4397Z" fill="black"/>
<rect width="10.3997" height="10.3997" rx="5.19984" transform="matrix(-1 0 0 1 53.3025 4.23535)" fill="url(#paint0_linear_127:3831)"/>
<defs>
<linearGradient id="paint0_linear_127:3831" x1="0" y1="0" x2="10.3997" y2="10.3999" gradientUnits="userSpaceOnUse">
<stop stop-color="#C13D3D"/>
<stop offset="1" stop-color="#F57070"/>
</linearGradient>
</defs>
</svg>
