<svg width="20" height="20" viewBox="0 0 13 16" fill="none" xmlns="http://www.w3.org/2000/svg">
 <defs>
    <linearGradient id="grad1" x1="0%" y1="0%" x2="100%" y2="0%">
  <stop offset="0%" style="stop-color:#9a8c98;stop-opacity:1" />
      <stop offset="100%" style="stop-color:#9a8c98;stop-opacity:.6" />
    </linearGradient>
  </defs>
<path d="M6.05939 7.65383C7.0999 7.65383 8.0009 7.2767 8.73708 6.53263C9.47325 5.78868 9.84644 4.87841 9.84644 3.82679C9.84644 2.77554 9.47325 1.86515 8.73696 1.12096C8.00066 0.377127 7.09978 0 6.05939 0C5.01876 0 4.118 0.377127 3.38182 1.12108C2.64565 1.86503 2.27234 2.77542 2.27234 3.82679C2.27234 4.87841 2.64565 5.7888 3.38194 6.53275C4.11824 7.27658 5.01912 7.65383 6.05939 7.65383Z" fill="url(#grad1)"/>
<path d="M12.0892 12.233C12.0696 11.9445 12.0299 11.6298 11.9715 11.2975C11.9126 10.9627 11.8366 10.6462 11.7458 10.3569C11.6519 10.0579 11.5242 9.76266 11.3664 9.47971C11.2026 9.18603 11.0103 8.9303 10.7944 8.71986C10.5686 8.49971 10.2923 8.32271 9.97265 8.1936C9.65416 8.06518 9.3012 8.00011 8.92364 8.00011C8.77536 8.00011 8.63196 8.06213 8.35502 8.2459C8.18458 8.3592 7.98521 8.49022 7.76269 8.63515C7.57241 8.75872 7.31465 8.8745 6.99626 8.97932C6.68563 9.08177 6.37024 9.13373 6.05895 9.13373C5.74766 9.13373 5.43238 9.08177 5.12142 8.97932C4.80336 8.87461 4.5456 8.75883 4.35554 8.63526C4.13512 8.49169 3.93565 8.36067 3.76266 8.24579C3.48605 8.06201 3.34254 8 3.19426 8C2.81659 8 2.46374 8.06518 2.14536 8.19372C1.82597 8.3226 1.54948 8.4996 1.32352 8.71997C1.10775 8.93052 0.915259 9.18614 0.751689 9.47971C0.593993 9.76266 0.466329 10.0578 0.372354 10.357C0.281593 10.6463 0.205681 10.9627 0.146725 11.2975C0.0883232 11.6294 0.0486498 11.9442 0.0290347 12.2333C0.00975212 12.5166 0 12.8106 0 13.1076C0 13.8804 0.241033 14.5061 0.716338 14.9675C1.18577 15.4228 1.80691 15.6538 2.56226 15.6538H9.5563C10.3117 15.6538 10.9326 15.4229 11.4021 14.9675C11.8775 14.5064 12.1186 13.8807 12.1186 13.1075C12.1186 12.8092 12.1086 12.5149 12.0892 12.233Z" fill="url(#grad1)"/>
</svg>
