<svg width="20" height="20" viewBox="0 0 12 15" fill="none" xmlns="http://www.w3.org/2000/svg">
 <defs>
    <linearGradient id="grad1" x1="0%" y1="0%" x2="100%" y2="0%">
          <stop offset="0%" style="stop-color:#707CE3;stop-opacity:1" />
      <stop offset="100%" style="stop-color:#707CE3;stop-opacity:.6" />
    </linearGradient>
  </defs>
<path d="M11.6084 14.6146C11.3688 14.7197 11.0863 14.6788 10.8903 14.5107L9.85598 13.6394C9.82784 13.6156 9.7854 13.6157 9.75741 13.6397L8.35006 14.8373C8.09553 15.0542 7.71019 15.0542 7.45566 14.8373L6.04958 13.6408C6.0213 13.6167 5.97855 13.6167 5.95027 13.6408L4.54404 14.8373C4.28951 15.0542 3.90417 15.0542 3.64964 14.8373L2.2421 13.6397C2.21393 13.6157 2.17137 13.6156 2.14305 13.6394L1.10778 14.5107C0.83312 14.7431 0.412452 14.7197 0.168205 14.4584C0.0586777 14.3412 -0.00124738 14.1895 1.96903e-05 14.0327V0.967283C-0.00243992 0.617046 0.29398 0.331232 0.662102 0.328892C0.827008 0.327829 0.986436 0.384985 1.10964 0.489262L2.14398 1.3606C2.17212 1.38443 2.21456 1.38428 2.24255 1.36032L3.6499 0.162744C3.90443 -0.0542486 4.28977 -0.0542486 4.5443 0.162744L5.95053 1.35922C5.97881 1.38326 6.02156 1.38326 6.04984 1.35922L7.45607 0.16278C7.71064 -0.0541065 8.09594 -0.0541065 8.35047 0.16278L9.75808 1.36035C9.78625 1.38432 9.82881 1.38443 9.85714 1.3606L10.8924 0.489296C11.1672 0.257022 11.5878 0.280636 11.8319 0.542055C11.9413 0.659132 12.0011 0.810637 11.9999 0.967283V14.0327C12.0034 14.2837 11.8495 14.5126 11.6084 14.6146ZM2.46735 9.91103H6.1786C6.34325 9.91103 6.47674 9.78402 6.47674 9.62738C6.47674 9.47073 6.34325 9.34373 6.1786 9.34373H2.46735C2.3027 9.34373 2.16921 9.47073 2.16921 9.62738C2.16921 9.78402 2.3027 9.91103 2.46735 9.91103ZM9.53262 5.08897H2.46735C2.3027 5.08897 2.16921 5.21598 2.16921 5.37262C2.16921 5.52927 2.3027 5.65627 2.46735 5.65627H9.53262C9.69726 5.65627 9.83075 5.52927 9.83075 5.37262C9.83075 5.21598 9.69726 5.08897 9.53262 5.08897ZM9.53262 7.21635H2.46735C2.3027 7.21635 2.16921 7.34335 2.16921 7.5C2.16921 7.65665 2.3027 7.78365 2.46735 7.78365H9.53262C9.69726 7.78365 9.83075 7.65665 9.83075 7.5C9.83075 7.34335 9.69726 7.21635 9.53262 7.21635Z" fill="url(#grad1)"/>
</svg>
