<svg width="19" height="19" viewBox="0 0 19 19" fill="none" xmlns="http://www.w3.org/2000/svg">
<path d="M9.5 0C14.7467 0 19 4.25329 19 9.5C19 14.7467 14.7467 19 9.5 19C4.25329 19 0 14.7467 0 9.5C0 4.25329 4.25329 0 9.5 0ZM9.5 1.9C5.30264 1.9 1.9 5.30264 1.9 9.5C1.9 13.6974 5.30264 17.1 9.5 17.1C13.6974 17.1 17.1 13.6974 17.1 9.5C17.1 5.30264 13.6974 1.9 9.5 1.9ZM13.7835 6.32181L13.8664 6.39563C14.2109 6.74013 14.2355 7.28338 13.9402 7.65627L13.8664 7.73913L9.1641 12.4414C8.8196 12.7859 8.27638 12.8105 7.90348 12.5152L7.82063 12.4414L5.13362 9.75437C4.76262 9.38338 4.76262 8.78187 5.13362 8.41087C5.47812 8.06637 6.02134 8.04177 6.39424 8.33706L6.47709 8.41087L8.49236 10.4261L12.5229 6.39563C12.8674 6.05113 13.4106 6.02653 13.7835 6.32181Z" fill="#17AF4B"/>
</svg>
