<svg width="19" height="19" viewBox="0 0 19 19" fill="none" xmlns="http://www.w3.org/2000/svg">
<path d="M9.5 0C14.7467 0 19 4.2533 19 9.5C19 14.7467 14.7467 19 9.5 19C4.2533 19 0 14.7467 0 9.5C0 4.2533 4.2533 0 9.5 0ZM9.5 1.9C5.30264 1.9 1.9 5.30264 1.9 9.5C1.9 13.6974 5.30264 17.1 9.5 17.1C13.6974 17.1 17.1 13.6974 17.1 9.5C17.1 5.30264 13.6974 1.9 9.5 1.9Z" fill="#C13D3D"/>
<path d="M12.7058 6.29501L12.6182 6.21675C12.224 5.90367 11.6496 5.92975 11.2854 6.29501L7.02394 10.5683L6.31372 11.2805C6.07698 11.518 5.74554 12.1352 6.31372 12.705L6.40132 12.7833C6.79558 13.0963 7.36992 13.0702 7.73416 12.705L12.7058 7.71945L12.7839 7.6316C13.0961 7.23624 13.07 6.66026 12.7058 6.29501Z" fill="#C13D3D"/>
<path d="M12.705 12.7058L12.7833 12.6182C13.0963 12.224 13.0702 11.6496 12.705 11.2854L8.43166 7.02394L7.71945 6.31372C7.48204 6.07698 6.86477 5.74554 6.29501 6.31372L6.21675 6.40132C5.90367 6.79558 5.92975 7.36992 6.29501 7.73416L11.2805 12.7058L11.3684 12.7839C11.7638 13.0961 12.3397 13.0701 12.705 12.7058Z" fill="#C13D3D"/>
</svg>
