<svg width="29" height="28" viewBox="0 0 29 28" fill="none" xmlns="http://www.w3.org/2000/svg">
<path d="M27.2872 17.8202V19.0281L10.5388 19.0288V17.8206C10.5388 17.5631 10.6692 17.3564 10.8303 17.3564H11.6473V8.28306C11.6473 8.05226 11.7643 7.86398 11.9091 7.86398H12.9766C13.1214 7.86398 13.2386 8.05226 13.2386 8.28306V17.3564L15.677 17.3564V8.20321C15.677 7.975 15.7942 7.78543 15.9389 7.78543H17.0065C17.1511 7.78543 17.2683 7.975 17.2683 8.20321V17.3564L20.6853 17.3564V8.28306C20.6853 8.05226 20.8017 7.86398 20.9457 7.86398H22.0139C22.1582 7.86398 22.2756 8.05226 22.2756 8.28306V17.3564H24.5866V8.20321C24.5866 7.975 24.7044 7.78543 24.8488 7.78543H25.9169C26.0613 7.78543 26.1779 7.975 26.1779 8.20321V17.3557H26.9947C27.1556 17.3557 27.2872 17.5622 27.2872 17.8202Z" fill="#5563DA"/>
<path d="M21.2005 1.82558L27.7304 7.30243C27.9208 7.4391 28.0533 7.73273 28.0533 8.07472C28.0533 8.54558 27.8026 8.92752 27.4914 8.92752H27.4889H10.3339C10.0771 8.92752 9.8535 8.66385 9.78936 8.28784C9.72523 7.91028 9.83767 7.51618 10.0621 7.32771L16.9097 1.58438C17.5955 1.04037 19.4137 0.327007 21.2005 1.82558Z" fill="#5563DA"/>
<path d="M0.946777 15.6296C0.946777 14.7124 1.5707 13.9127 2.46039 13.6897L9.58978 11.9022L11.4376 11.4119C12.5656 11.1126 13.7107 11.833 13.9293 12.9794L13.9861 13.2768C14.0737 13.7366 14.4758 14.0692 14.9438 14.0692C16.0482 14.0692 16.9434 14.9644 16.9434 16.0687V25.7806C16.9434 26.8851 16.048 27.7806 14.9434 27.7806H2.94678C1.84221 27.7806 0.946777 26.8851 0.946777 25.7806V15.6296Z" fill="white"/>
<path d="M18.2847 2.13065L11.9299 7.25159C11.7095 7.42919 11.8351 7.78519 12.1181 7.78519H25.7063C25.9893 7.78519 26.1149 7.42919 25.8945 7.25159L19.5396 2.13065C19.1734 1.83552 18.651 1.83552 18.2847 2.13065Z" fill="white"/>
<path fill-rule="evenodd" clip-rule="evenodd" d="M11.2312 12.2192C12.5162 11.8776 13.775 12.8508 13.775 14.1859V14.7974C14.8937 14.7974 15.8005 15.7083 15.8005 16.8319V24.9697C15.8005 26.0933 14.8937 27.0042 13.775 27.0042H2.97229C1.85363 27.0042 0.946777 26.0933 0.946777 24.9697V16.5196C0.946777 15.5965 1.56554 14.7891 2.45398 14.5529L11.2312 12.2192ZM13.775 16.1537H2.97229C2.59941 16.1537 2.29712 16.4574 2.29712 16.8319V24.9697C2.29712 25.3442 2.59941 25.6479 2.97229 25.6479H13.775C14.1479 25.6479 14.4502 25.3442 14.4502 24.9697V22.9353H12.4247C11.306 22.9353 10.3992 22.0244 10.3992 20.9009C10.3992 19.7772 11.306 18.8664 12.4247 18.8664H14.4502V16.8319C14.4502 16.4574 14.1479 16.1538 13.775 16.1537ZM14.4502 20.2227H12.4247C12.0518 20.2227 11.7495 20.5263 11.7495 20.9009C11.7495 21.2753 12.0518 21.579 12.4247 21.579H14.4502V20.2227Z" fill="#5563DA"/>
<path d="M7.13952 2.5874L9.82005 4.64065L7.13953 6.77415L7.13952 5.37145C4.50488 5.37145 2.34851 7.46779 2.27416 10.1014L2.22504 11.8409H0.946777V10.2859C0.946777 6.86577 3.71936 4.09318 7.13952 4.09318V2.5874Z" fill="#5563DA"/>
</svg>
