<svg width="31" height="32" viewBox="0 0 31 32" fill="none" xmlns="http://www.w3.org/2000/svg">
<path d="M0.476318 16C0.476318 24.2842 7.1924 31 15.4763 31C23.7609 31 30.4763 24.2842 30.4763 16C30.4763 7.71571 23.7609 1 15.4763 1C7.1924 1 0.476318 7.71571 0.476318 16" stroke="#CCCCCC" stroke-width="0.5"/>
<path d="M22.2049 21.4608L22.4776 22.6597C22.506 22.7849 22.4109 22.9041 22.2826 22.9041H7.99722C7.87171 22.9041 7.77721 22.7898 7.80078 22.6665L8.01672 21.5369C8.07858 21.2517 8.12611 20.923 8.4018 20.923H8.9998V13.286C8.9998 13.0918 9.09828 12.9333 9.22019 12.9333H10.1187C10.2406 12.9333 10.3392 13.0918 10.3392 13.286V20.923L12.3916 20.923V13.2188C12.3916 13.0268 12.4902 12.8672 12.6119 12.8672H13.5106C13.6323 12.8672 13.731 13.0268 13.731 13.2188V20.923L16.607 20.923V13.286C16.607 13.0918 16.7049 12.9333 16.8261 12.9333H17.7253C17.8467 12.9333 17.9455 13.0918 17.9455 13.286V20.923H19.8907V13.2188C19.8907 13.0268 19.9898 12.8672 20.1114 12.8672H21.0104C21.1319 12.8672 21.2301 13.0268 21.2301 13.2188V20.9224H21.8769C22.0765 20.9224 22.1336 21.1899 22.2049 21.4608Z" fill="#5563DA"/>
<path d="M17.0408 7.85067L22.537 12.4605C22.6972 12.5755 22.8088 12.8227 22.8088 13.1105C22.8088 13.5068 22.5977 13.8283 22.3358 13.8283H22.3337H7.89451C7.67841 13.8283 7.49017 13.6064 7.43619 13.2899C7.38221 12.9721 7.47685 12.6404 7.66578 12.4818L13.4293 7.64765C14.0065 7.18977 15.5369 6.58933 17.0408 7.85067Z" fill="#5563DA"/>
<path d="M13.8688 8.72323L9.55784 12.1565C9.33575 12.3334 9.46082 12.6912 9.74473 12.6912H20.4848C20.7687 12.6912 20.8938 12.3334 20.6717 12.1565L16.3607 8.72323C15.6316 8.14254 14.5979 8.14254 13.8688 8.72323Z" fill="white"/>
<path fill-rule="evenodd" clip-rule="evenodd" d="M25.6851 12.6909C25.6851 15.0891 23.741 17.033 21.343 17.033C18.9449 17.033 17.0009 15.0891 17.0009 12.6909C17.0009 10.2929 18.9449 8.34881 21.343 8.34881C23.741 8.34881 25.6851 10.2929 25.6851 12.6909Z" fill="#5563DA"/>
<path d="M25.6851 12.6909C25.6851 15.0891 23.741 17.033 21.343 17.033C18.9449 17.033 17.0009 15.0891 17.0009 12.6909C17.0009 10.2929 18.9449 8.34881 21.343 8.34881C23.741 8.34881 25.6851 10.2929 25.6851 12.6909" stroke="white" stroke-width="0.7"/>
<path d="M21.0994 14.7613L20.1353 13.0795V12.6832H20.4567C20.6459 12.6832 20.8048 12.6421 20.9334 12.56C21.0619 12.4743 21.1441 12.3564 21.1798 12.2065H20.1353V11.8101H21.1744C21.1423 11.6744 21.0762 11.5619 20.9762 11.4727C20.8762 11.3798 20.737 11.3334 20.5584 11.3334H20.1353V10.9371H22.5509V11.3334H21.71C21.835 11.4691 21.9136 11.628 21.9457 11.8101H22.5509V12.2065H21.9564C21.9207 12.4707 21.8189 12.6778 21.6511 12.8278C21.4833 12.9742 21.1976 13.1054 20.9334 13.1589L21.9564 14.7613H21.0994Z" fill="white"/>
</svg>
