<svg width="29" height="30" viewBox="0 0 29 30" fill="none" xmlns="http://www.w3.org/2000/svg">
<rect opacity="0.2" y="0.5" width="29" height="29" rx="14.5" fill="#9FA8FB"/>
<path d="M15.85 10.2222V11.9H19.75C20.109 11.9 20.4 12.191 20.4 12.55V20.35C20.4 20.709 20.109 21 19.75 21H10.65C10.291 21 10 20.709 10 20.35V12.55C10 12.191 10.291 11.9 10.65 11.9H14.55V10.2201L13.8159 10.9542C13.5644 11.2057 13.1565 11.2056 12.9009 10.95C12.647 10.6962 12.6485 10.2831 12.8966 10.035L14.7436 8.18805C14.8686 8.063 15.0324 8.00015 15.1968 8L15.2018 8.00194C15.3668 8.00229 15.531 8.06469 15.6543 8.18805L17.5013 10.035C17.7528 10.2865 17.7527 10.6944 17.4971 10.95C17.2432 11.2038 16.8302 11.2023 16.5821 10.9542L15.85 10.2222ZM14.55 13.2V11.9H11.95C12.309 11.9 12.6 12.191 12.6 12.55C12.6 12.909 12.309 13.2 11.95 13.2H14.55ZM15.85 13.2H19.1V11.9H15.85V13.2ZM14.55 13.2H11.3V19.7H19.1V13.2H15.85V16.451C15.85 16.8094 15.5615 17.1 15.2 17.1C14.841 17.1 14.55 16.8091 14.55 16.451V13.2ZM19.1 13.2H18.45C18.091 13.2 17.8 12.909 17.8 12.55C17.8 12.191 18.091 11.9 18.45 11.9H19.1V13.2Z" fill="#4D4D4D"/>
</svg>
