<svg width="19" height="19" viewBox="0 0 19 19" fill="none" xmlns="http://www.w3.org/2000/svg">
<path d="M9.5 0C14.7467 0 19 4.25329 19 9.5C19 14.7467 14.7467 19 9.5 19C4.25329 19 0 14.7467 0 9.5C0 4.25329 4.25329 0 9.5 0ZM9.5 1.9C5.30264 1.9 1.9 5.30264 1.9 9.5C1.9 13.6974 5.30264 17.1 9.5 17.1C13.6974 17.1 17.1 13.6974 17.1 9.5C17.1 5.30264 13.6974 1.9 9.5 1.9ZM9.5 4.75C9.98719 4.75 10.3887 5.11674 10.4436 5.58921L10.45 5.7V9.0858L13.0244 11.6809C13.3655 12.0248 13.3897 12.5637 13.0985 12.9352L13.0191 13.0244C12.6752 13.3655 12.1363 13.3897 11.7648 13.0985L11.6756 13.0191L8.82557 10.1462C8.67847 9.99794 8.58517 9.80622 8.55815 9.60139L8.55 9.47716V5.7C8.55 5.17533 8.97533 4.75 9.5 4.75Z" fill="#FBB03B"/>
</svg>
