<svg width="40" height="40" viewBox="0 0 40 40" fill="none" xmlns="http://www.w3.org/2000/svg">
<mask id="mask0" mask-type="alpha" maskUnits="userSpaceOnUse" x="1" y="1" width="38" height="38">
<path fill-rule="evenodd" clip-rule="evenodd" d="M38.6764 20.0228C38.6764 30.3276 30.3226 38.6805 20.0186 38.6805C9.71382 38.6805 1.36084 30.3276 1.36084 20.0228C1.36084 9.7188 9.71382 1.36499 20.0186 1.36499C30.3226 1.36499 38.6764 9.7188 38.6764 20.0228Z" fill="white"/>
</mask>
<g mask="url(#mask0)">
<path fill-rule="evenodd" clip-rule="evenodd" d="M38.6764 20.0228C38.6764 30.3276 30.3226 38.6805 20.0186 38.6805C9.71382 38.6805 1.36084 30.3276 1.36084 20.0228C1.36084 9.7188 9.71382 1.36499 20.0186 1.36499C30.3226 1.36499 38.6764 9.7188 38.6764 20.0228Z" fill="#FCE3C3"/>
</g>
<path fill-rule="evenodd" clip-rule="evenodd" d="M19.4035 0.22144C19.3467 0.22144 19.299 0.176164 19.2973 0.11854C19.2957 0.0592702 19.3418 0.0107016 19.4002 0.00905518C19.5896 0.00329279 19.7814 0.000823198 19.9715 0C20.03 0 20.0777 0.0477455 20.0777 0.106193C20.0777 0.16464 20.0308 0.212385 19.9715 0.212385C19.7838 0.213208 19.5937 0.215678 19.4068 0.22144H19.4035ZM21.1077 0.242853H21.102C20.9134 0.232151 20.7233 0.224743 20.5372 0.219804C20.4788 0.218157 20.4319 0.169588 20.4335 0.111141C20.4352 0.0518712 20.4854 0.00330249 20.543 0.00741848C20.7307 0.0123577 20.9233 0.0205896 21.1135 0.030468C21.1719 0.0337608 21.2164 0.0839759 21.2139 0.142423C21.2106 0.199224 21.1637 0.242853 21.1077 0.242853ZM18.2692 0.286771C18.2149 0.286771 18.1688 0.245611 18.1638 0.190457C18.1589 0.131187 18.2025 0.0801487 18.261 0.0752095C18.4511 0.0587455 18.6429 0.0447511 18.8298 0.0340496C18.8907 0.0307568 18.9393 0.0760327 18.9426 0.13448C18.9459 0.192927 18.9006 0.243142 18.8422 0.246435C18.6569 0.257136 18.4676 0.270307 18.2791 0.286771H18.2692ZM22.2395 0.338272L22.2271 0.337449C22.0419 0.316869 21.8526 0.297935 21.6649 0.282295C21.6064 0.277355 21.5636 0.226317 21.5678 0.16787C21.5727 0.109423 21.6246 0.0674399 21.683 0.0707327C21.8723 0.0863734 22.0633 0.105307 22.251 0.12671C22.3095 0.132473 22.3514 0.185157 22.3449 0.243604C22.3391 0.297935 22.293 0.338272 22.2395 0.338272ZM17.1415 0.416446C17.0896 0.416446 17.0435 0.377755 17.0361 0.325071C17.0279 0.267447 17.0682 0.213116 17.1258 0.204884C17.3152 0.177718 17.5061 0.153022 17.6922 0.131619C17.7515 0.125034 17.8033 0.167017 17.8099 0.225464C17.8165 0.283911 17.7745 0.335772 17.7169 0.342358C17.5325 0.363761 17.344 0.388457 17.1563 0.414799L17.1415 0.416446ZM23.3639 0.495572L23.3458 0.493926C23.1623 0.462644 22.9737 0.433832 22.7877 0.40749C22.7301 0.399258 22.6897 0.34575 22.698 0.287303C22.7062 0.229679 22.7597 0.189343 22.8173 0.197575C23.0058 0.223917 23.196 0.253552 23.382 0.284834C23.4397 0.294712 23.4784 0.349866 23.4685 0.40749C23.4603 0.459351 23.415 0.495572 23.3639 0.495572ZM16.022 0.609992C15.9726 0.609992 15.9282 0.575418 15.9183 0.525203C15.9068 0.467579 15.9438 0.411602 16.0006 0.400077C16.1858 0.36221 16.3752 0.326812 16.562 0.294708C16.6205 0.284829 16.6748 0.32352 16.6847 0.381143C16.6946 0.438767 16.6559 0.493922 16.5982 0.5038C16.413 0.535905 16.2262 0.571302 16.0434 0.608346L16.022 0.609992ZM24.4778 0.718609C24.4704 0.718609 24.4622 0.717785 24.4539 0.716139C24.2712 0.674156 24.086 0.633819 23.9016 0.596775C23.8448 0.586074 23.8069 0.530096 23.8184 0.472472C23.83 0.414849 23.8859 0.376982 23.9436 0.388506C24.1296 0.426373 24.3173 0.46671 24.5017 0.508693C24.5593 0.521864 24.5947 0.578665 24.5815 0.636289C24.57 0.685681 24.5264 0.718609 24.4778 0.718609ZM14.9155 0.86849C14.8685 0.86849 14.8257 0.836385 14.8126 0.789463C14.7977 0.732662 14.8315 0.674215 14.8883 0.659397C15.0719 0.610829 15.2587 0.56473 15.4431 0.521923C15.4999 0.508752 15.5567 0.54415 15.5707 0.60095C15.5839 0.658574 15.5477 0.715375 15.4909 0.728546C15.3089 0.771352 15.1246 0.816628 14.9426 0.864374C14.9336 0.866843 14.9245 0.86849 14.9155 0.86849ZM25.5775 1.00514C25.5676 1.00514 25.5577 1.00349 25.5478 1.00102C25.3659 0.948335 25.1832 0.897297 25.0029 0.850374C24.9461 0.835557 24.9123 0.777933 24.9272 0.721132C24.942 0.664332 24.9996 0.629757 25.0564 0.644575C25.2383 0.692321 25.4235 0.743359 25.6071 0.796867C25.6631 0.813331 25.6952 0.871778 25.6796 0.928578C25.6656 0.974677 25.6236 1.00514 25.5775 1.00514ZM13.8256 1.18949C13.7811 1.18949 13.74 1.16068 13.7251 1.11623C13.707 1.06025 13.7375 1.00015 13.7926 0.982044C13.9737 0.922774 14.1573 0.865973 14.3384 0.812465C14.3944 0.796001 14.4537 0.828106 14.4701 0.884907C14.4866 0.940884 14.4545 1.00015 14.3985 1.01662C14.2191 1.0693 14.0371 1.12528 13.8585 1.18373C13.8478 1.18702 13.8371 1.18949 13.8256 1.18949ZM26.6601 1.35504C26.6486 1.35504 26.6362 1.3534 26.6247 1.34846C26.4485 1.28589 26.2683 1.22498 26.088 1.16653C26.032 1.14842 26.0015 1.08915 26.0197 1.03317C26.0369 0.977195 26.097 0.946737 26.153 0.964847C26.3358 1.02329 26.5177 1.08586 26.6955 1.14842C26.7507 1.16818 26.7795 1.22909 26.7605 1.28425C26.7449 1.32788 26.7037 1.35504 26.6601 1.35504ZM12.7562 1.57218C12.7142 1.57218 12.6739 1.54666 12.6574 1.50468C12.636 1.45035 12.6632 1.38861 12.7175 1.36721C12.8945 1.29806 13.0748 1.23055 13.2526 1.16635C13.3077 1.14659 13.3686 1.1754 13.3884 1.23055C13.4081 1.28571 13.3793 1.34663 13.3242 1.36638C13.148 1.42977 12.9702 1.49645 12.7949 1.56477C12.7825 1.56971 12.7693 1.57218 12.7562 1.57218ZM27.722 1.76656C27.7089 1.76656 27.6949 1.76409 27.6809 1.75833C27.5072 1.68507 27.3302 1.61345 27.1557 1.54595C27.1013 1.52454 27.0742 1.46363 27.0956 1.40847C27.1161 1.35414 27.1779 1.32698 27.233 1.34756C27.4092 1.4167 27.5878 1.48832 27.7632 1.56323C27.8175 1.58546 27.843 1.64802 27.82 1.70235C27.8027 1.74269 27.764 1.76656 27.722 1.76656ZM11.7142 2.01516C11.6739 2.01516 11.636 1.99212 11.6179 1.9526C11.5932 1.89992 11.6171 1.83653 11.6706 1.81184C11.8426 1.73281 12.018 1.65543 12.1908 1.58216C12.2452 1.55911 12.3077 1.58463 12.33 1.63814C12.353 1.69247 12.3283 1.75503 12.274 1.77726C12.1028 1.85053 11.9291 1.92708 11.7587 2.00529C11.7447 2.01187 11.729 2.01516 11.7142 2.01516ZM28.7584 2.2391C28.7428 2.2391 28.7263 2.2358 28.7115 2.22839C28.5419 2.14525 28.3698 2.06375 28.1994 1.98637C28.1459 1.96168 28.1229 1.89911 28.1468 1.84561C28.1715 1.7921 28.2348 1.76905 28.2875 1.79292C28.4596 1.87113 28.6341 1.95345 28.8053 2.03741C28.858 2.06375 28.8794 2.12714 28.8539 2.17983C28.8349 2.21769 28.7971 2.2391 28.7584 2.2391ZM10.6983 2.51642C10.6605 2.51642 10.6234 2.49584 10.6045 2.45962C10.5773 2.40775 10.5971 2.34354 10.6489 2.31638C10.8169 2.22747 10.9873 2.14021 11.156 2.05707C11.2087 2.03073 11.2721 2.05213 11.2985 2.10482C11.324 2.1575 11.3026 2.22171 11.2499 2.24723C11.0836 2.32955 10.9148 2.41599 10.7486 2.50407C10.7321 2.5123 10.7156 2.51642 10.6983 2.51642ZM29.7653 2.77005C29.7472 2.77005 29.7299 2.76594 29.7126 2.75688C29.5496 2.66386 29.3825 2.57249 29.2162 2.48523C29.1643 2.45806 29.1446 2.39385 29.1717 2.34199C29.1989 2.29013 29.2631 2.27037 29.315 2.29754C29.4829 2.38562 29.6517 2.47782 29.8171 2.57166C29.8682 2.60047 29.8863 2.66468 29.8575 2.71572C29.8377 2.7503 29.8023 2.77005 29.7653 2.77005ZM9.71208 3.0753C9.67668 3.0753 9.64128 3.05719 9.62152 3.02426C9.59107 2.97405 9.60671 2.90902 9.65692 2.87856C9.81909 2.7806 9.98455 2.68346 10.1492 2.59044C10.2002 2.56163 10.2644 2.57891 10.2941 2.62995C10.3229 2.68099 10.3048 2.74602 10.2537 2.77484C10.0907 2.86703 9.92693 2.96335 9.76723 3.06048C9.74994 3.07036 9.73101 3.0753 9.71208 3.0753ZM30.739 3.35774C30.7192 3.35774 30.6994 3.35197 30.6822 3.34045C30.5233 3.23837 30.3611 3.13794 30.2014 3.04163C30.1512 3.01117 30.1355 2.94614 30.166 2.89592C30.1956 2.84571 30.2615 2.82924 30.3117 2.8597C30.4731 2.95684 30.6361 3.05891 30.7966 3.16181C30.846 3.19392 30.8608 3.25895 30.8287 3.30834C30.8081 3.34045 30.7744 3.35774 30.739 3.35774ZM8.75969 3.69047C8.72511 3.69047 8.69219 3.67401 8.67161 3.64437C8.63868 3.59581 8.65103 3.52995 8.69877 3.49702C8.85518 3.38918 9.01488 3.28299 9.17376 3.18091C9.22315 3.14881 9.28901 3.1628 9.32111 3.2122C9.35239 3.26159 9.3384 3.32744 9.28901 3.35955C9.13177 3.4608 8.97372 3.56617 8.81896 3.67154C8.80085 3.68471 8.78027 3.69047 8.75969 3.69047ZM31.6783 3.99913C31.6569 3.99913 31.6347 3.99254 31.6157 3.97937C31.4651 3.86906 31.3095 3.75958 31.1539 3.65338C31.1053 3.62046 31.093 3.55378 31.1259 3.50603C31.1589 3.45746 31.2255 3.44512 31.2733 3.47804C31.4313 3.58588 31.5886 3.69619 31.7409 3.80732C31.7878 3.8419 31.7985 3.90858 31.7639 3.9555C31.7433 3.98431 31.7112 3.99913 31.6783 3.99913ZM7.84264 4.35879C7.81053 4.35879 7.77925 4.34479 7.75785 4.31763C7.72245 4.2707 7.73068 4.20403 7.77761 4.16863C7.92743 4.05256 8.08054 3.93731 8.23366 3.82618C8.28058 3.7916 8.34726 3.80148 8.38183 3.84923C8.41641 3.89615 8.40571 3.96283 8.35878 3.9974C8.20732 4.10771 8.05502 4.22131 7.90685 4.33656C7.88792 4.35138 7.86487 4.35879 7.84264 4.35879ZM32.578 4.69287C32.555 4.69287 32.5311 4.68546 32.5114 4.669C32.3657 4.55046 32.2167 4.43192 32.0685 4.31749C32.0224 4.2821 32.0133 4.21542 32.0496 4.1685C32.085 4.1224 32.1516 4.11334 32.1986 4.14956C32.3484 4.26481 32.499 4.38417 32.6455 4.50436C32.6908 4.5414 32.6982 4.60891 32.6604 4.65418C32.6398 4.6797 32.6093 4.69287 32.578 4.69287ZM6.96429 5.07838C6.93465 5.07838 6.90502 5.06603 6.88444 5.04133C6.84575 4.9977 6.85069 4.9302 6.89432 4.89151C7.03838 4.76721 7.18491 4.64373 7.33061 4.52354C7.37589 4.4865 7.44339 4.49308 7.48043 4.53836C7.51748 4.58446 7.51089 4.65114 7.46562 4.68818C7.32073 4.80672 7.17585 4.92856 7.03426 5.05204C7.01368 5.06932 6.98899 5.07838 6.96429 5.07838ZM33.4383 5.43716C33.4119 5.43716 33.3864 5.42728 33.3658 5.40917C33.2284 5.28322 33.0868 5.15645 32.9444 5.03297C32.8999 4.9951 32.895 4.9276 32.9337 4.88315C32.9715 4.83869 33.039 4.83375 33.0835 4.87244C33.2276 4.99757 33.3708 5.12517 33.5099 5.25276C33.5527 5.29227 33.556 5.35895 33.5165 5.40258C33.4951 5.42563 33.4663 5.43716 33.4383 5.43716ZM6.1277 5.84631C6.10053 5.84631 6.07255 5.83561 6.05197 5.81421C6.01081 5.77222 6.01163 5.70555 6.05361 5.66439C6.18944 5.53267 6.32856 5.40014 6.4685 5.27172C6.51213 5.23221 6.57881 5.23468 6.61915 5.27831C6.65866 5.32111 6.65537 5.38861 6.61256 5.42813C6.47427 5.55572 6.33597 5.68579 6.20179 5.81668C6.18121 5.83643 6.15487 5.84631 6.1277 5.84631ZM34.2533 6.22845C34.2253 6.22845 34.1981 6.21774 34.1775 6.19634C34.045 6.06051 33.9108 5.92633 33.7775 5.79709C33.7355 5.75593 33.7338 5.68925 33.775 5.64645C33.8161 5.60446 33.8828 5.60364 33.9248 5.6448C34.0598 5.77486 34.1956 5.91069 34.329 6.04817C34.3702 6.09015 34.3693 6.15683 34.3273 6.19799C34.3068 6.21774 34.2796 6.22845 34.2533 6.22845ZM5.33677 6.66129C5.31125 6.66129 5.28573 6.65223 5.26515 6.6333C5.22152 6.59379 5.21905 6.52711 5.25857 6.48348C5.38699 6.34353 5.5187 6.20359 5.65041 6.06859C5.69157 6.0266 5.75907 6.02496 5.80105 6.06612C5.84304 6.10728 5.84386 6.17395 5.8027 6.21594C5.67264 6.35012 5.54257 6.48842 5.41497 6.62671C5.39439 6.64976 5.36558 6.66129 5.33677 6.66129ZM35.0221 7.06376C34.9924 7.06376 34.9628 7.05141 34.9422 7.02672C34.8188 6.88595 34.692 6.74354 34.5652 6.60606C34.5257 6.56325 34.5282 6.49575 34.5718 6.45624C34.6146 6.41673 34.6821 6.4192 34.7216 6.462C34.85 6.60194 34.9776 6.74518 35.1019 6.88759C35.1406 6.93205 35.1357 6.99873 35.0912 7.03742C35.0715 7.0547 35.0468 7.06376 35.0221 7.06376ZM4.59271 7.52082C4.56884 7.52082 4.54496 7.51259 4.52521 7.49695C4.47993 7.45908 4.47335 7.39241 4.51039 7.34713C4.62975 7.20142 4.75323 7.05407 4.87836 6.91001C4.91705 6.86556 4.98373 6.86062 5.02818 6.89931C5.07263 6.938 5.07757 7.00468 5.03888 7.04913C4.9154 7.19154 4.79275 7.33725 4.67503 7.48131C4.65363 7.50765 4.62317 7.52082 4.59271 7.52082ZM35.7417 7.94135C35.7104 7.94135 35.6791 7.92736 35.6577 7.90019C35.5441 7.75366 35.4264 7.60467 35.3062 7.45896C35.2691 7.41286 35.2757 7.34618 35.321 7.30914C35.3663 7.27209 35.433 7.27868 35.4708 7.32396C35.5918 7.47131 35.7112 7.62195 35.8256 7.77013C35.8618 7.81623 35.8536 7.88291 35.8067 7.91913C35.7878 7.93394 35.7647 7.94135 35.7417 7.94135ZM3.89795 8.42058C3.87655 8.42058 3.85514 8.41399 3.83621 8.4C3.78846 8.36542 3.77776 8.29957 3.81234 8.25182C3.92429 8.09788 4.03954 7.94394 4.15479 7.79495C4.19101 7.74802 4.25769 7.73979 4.30379 7.77519C4.35071 7.81141 4.35894 7.87809 4.32354 7.92419C4.20912 8.07236 4.09469 8.22466 3.98439 8.37695C3.96381 8.40576 3.93088 8.42058 3.89795 8.42058ZM36.4109 8.85761C36.3772 8.85761 36.3434 8.84197 36.3228 8.81234C36.2175 8.65758 36.108 8.50281 35.9968 8.35135C35.9623 8.3036 35.973 8.23775 36.0207 8.20317C36.0676 8.1686 36.1343 8.17847 36.1689 8.22622C36.2808 8.37934 36.3912 8.53574 36.4982 8.69133C36.5311 8.7399 36.5196 8.80575 36.471 8.8395C36.4529 8.85185 36.4315 8.85761 36.4109 8.85761ZM3.25562 9.35891C3.23587 9.35891 3.21611 9.35314 3.19882 9.34244C3.14943 9.31034 3.13461 9.24448 3.16672 9.19509C3.26962 9.03539 3.37581 8.87487 3.48283 8.71928C3.51575 8.67071 3.58161 8.65837 3.63018 8.69129C3.67875 8.72422 3.6911 8.7909 3.65817 8.83865C3.55198 8.99341 3.44743 9.15146 3.34535 9.31034C3.32477 9.34162 3.29102 9.35891 3.25562 9.35891ZM37.0257 9.811C36.9903 9.811 36.9549 9.79289 36.9352 9.75996C36.838 9.59944 36.7368 9.43809 36.6355 9.28168C36.6043 9.23229 36.6183 9.16644 36.6676 9.13516C36.717 9.10305 36.7829 9.11705 36.8142 9.16644C36.9163 9.32531 37.0183 9.48748 37.1163 9.64965C37.1467 9.69987 37.1311 9.7649 37.0809 9.79536C37.0636 9.80606 37.0447 9.811 37.0257 9.811ZM2.66788 10.3328C2.6506 10.3328 2.63249 10.3287 2.61602 10.3196C2.56498 10.2908 2.54687 10.2258 2.57569 10.1748C2.66953 10.0093 2.76667 9.84301 2.86381 9.68084C2.89426 9.63062 2.9593 9.61416 3.01033 9.64462C3.06055 9.67508 3.07619 9.74011 3.04573 9.79032C2.94942 9.95085 2.8531 10.1155 2.76008 10.2793C2.74115 10.3139 2.70493 10.3328 2.66788 10.3328ZM37.5854 10.797C37.5476 10.797 37.5105 10.7764 37.4916 10.7402C37.4035 10.5739 37.3121 10.4076 37.2199 10.2463C37.1911 10.1952 37.2092 10.1302 37.2603 10.1014C37.3113 10.0726 37.3763 10.0899 37.4052 10.1409C37.4982 10.3047 37.5904 10.4727 37.6793 10.6406C37.7064 10.6925 37.6867 10.7567 37.6348 10.7838C37.6192 10.7929 37.6019 10.797 37.5854 10.797ZM2.13709 11.3395C2.12145 11.3395 2.10498 11.3362 2.09017 11.3288C2.03748 11.3025 2.01608 11.2391 2.0416 11.1864C2.12556 11.016 2.21282 10.844 2.30173 10.6769C2.32889 10.625 2.3931 10.6052 2.44497 10.6324C2.49683 10.6596 2.51658 10.7238 2.48942 10.7756C2.40216 10.9411 2.31572 11.1115 2.23258 11.2803C2.21365 11.3181 2.17578 11.3395 2.13709 11.3395ZM38.0877 11.8121C38.0473 11.8121 38.0086 11.7891 37.9914 11.7504C37.9132 11.5816 37.8317 11.4104 37.7485 11.2416C37.723 11.1889 37.7444 11.1256 37.7971 11.1C37.8489 11.0737 37.9132 11.0951 37.9387 11.1478C38.0235 11.3174 38.1058 11.4911 38.184 11.6615C38.2087 11.715 38.1856 11.7784 38.1321 11.8031C38.1173 11.8096 38.1025 11.8121 38.0877 11.8121ZM1.66375 12.3752C1.65058 12.3752 1.63659 12.3727 1.6226 12.367C1.56909 12.3439 1.54357 12.2822 1.56662 12.2278C1.63988 12.0525 1.71809 11.8763 1.79629 11.7035C1.82099 11.6508 1.88355 11.6269 1.93706 11.6516C1.99056 11.6755 2.01444 11.7389 1.98974 11.7915C1.91154 11.9628 1.83498 12.1373 1.76172 12.3102C1.74525 12.3513 1.70574 12.3752 1.66375 12.3752ZM38.5306 12.8542C38.4878 12.8542 38.4483 12.8286 38.4319 12.7867C38.3643 12.6138 38.2927 12.4384 38.2186 12.2656C38.1964 12.2112 38.2211 12.1495 38.2754 12.1264C38.3289 12.1034 38.3915 12.1289 38.4146 12.1824C38.4887 12.3578 38.5611 12.5348 38.6294 12.7093C38.6508 12.7644 38.6237 12.8253 38.5693 12.8467C38.557 12.8517 38.5438 12.8542 38.5306 12.8542ZM1.2512 13.437C1.23968 13.437 1.22733 13.4354 1.21581 13.4313C1.16065 13.4115 1.13184 13.3506 1.1516 13.2954C1.21498 13.1168 1.28249 12.9357 1.35081 12.7587C1.37221 12.7044 1.43395 12.6772 1.48828 12.6978C1.54344 12.7192 1.5706 12.7809 1.5492 12.8353C1.48088 13.0114 1.4142 13.1901 1.35163 13.3671C1.33599 13.4107 1.29483 13.437 1.2512 13.437ZM38.9141 13.9236C38.8696 13.9236 38.8276 13.8956 38.8128 13.8503C38.7552 13.6725 38.6935 13.4931 38.6301 13.3161C38.6103 13.2609 38.6391 13.2 38.6943 13.1803C38.7494 13.1605 38.8104 13.1893 38.8301 13.2445C38.8943 13.4231 38.9561 13.605 39.0153 13.7845C39.0334 13.8405 39.003 13.9006 38.947 13.9187C38.9363 13.922 38.9248 13.9236 38.9141 13.9236ZM0.901393 14.5203C0.891514 14.5203 0.880813 14.5187 0.870934 14.5154C0.814957 14.4989 0.782852 14.4405 0.799316 14.3837C0.852001 14.2026 0.908801 14.019 0.967248 13.8379C0.985359 13.7828 1.04463 13.7523 1.10061 13.7696C1.15658 13.7877 1.18704 13.8478 1.16893 13.9038C1.11131 14.0832 1.05533 14.2643 1.00265 14.4438C0.989475 14.4899 0.947492 14.5203 0.901393 14.5203ZM39.2361 15.0134C39.1884 15.0134 39.1456 14.9822 39.1332 14.9344C39.0855 14.7525 39.0336 14.5697 38.9809 14.3903C38.9645 14.3335 38.9966 14.275 39.0525 14.2577C39.1093 14.2413 39.1686 14.2734 39.1851 14.3302C39.2386 14.5113 39.2896 14.6965 39.3382 14.8801C39.3538 14.9369 39.3192 14.9945 39.2633 15.0093C39.2542 15.0118 39.2452 15.0134 39.2361 15.0134ZM0.614043 15.6194C0.606634 15.6194 0.598402 15.6186 0.59017 15.617C0.53337 15.603 0.497149 15.5462 0.51032 15.4894C0.553126 15.305 0.598402 15.1189 0.646971 14.9345C0.661788 14.8777 0.719412 14.844 0.776213 14.8588C0.833013 14.8736 0.866764 14.9312 0.851947 14.988C0.805025 15.1708 0.759749 15.3552 0.717766 15.5371C0.706241 15.5857 0.662612 15.6194 0.614043 15.6194ZM39.4937 16.119C39.4444 16.119 39.3999 16.0845 39.39 16.0342C39.353 15.8515 39.3126 15.6663 39.2698 15.4827C39.2558 15.4251 39.2912 15.3683 39.3489 15.3551C39.4057 15.3419 39.4633 15.3773 39.4765 15.4341C39.5201 15.6194 39.5604 15.807 39.5983 15.9923C39.6098 16.0499 39.5728 16.1059 39.5151 16.1174L39.4937 16.119ZM0.390883 16.7332L0.372773 16.7315C0.315149 16.7217 0.276459 16.6665 0.286337 16.6089C0.317619 16.422 0.353016 16.2335 0.39006 16.0475C0.401585 15.9898 0.457562 15.9528 0.515186 15.9643C0.57281 15.9758 0.609854 16.0318 0.598329 16.0894C0.561285 16.273 0.526711 16.4599 0.495429 16.6451C0.486374 16.6961 0.441921 16.7332 0.390883 16.7332ZM39.6888 17.2385C39.6361 17.2385 39.5908 17.2007 39.5834 17.1472C39.5563 16.9611 39.5266 16.7734 39.4945 16.5899C39.4846 16.5314 39.5233 16.4771 39.581 16.4664C39.6386 16.4565 39.6937 16.4952 39.7044 16.5528C39.7365 16.7397 39.767 16.929 39.7933 17.1175C39.8024 17.1752 39.7621 17.2295 39.7036 17.2377L39.6888 17.2385ZM0.232032 17.8578L0.219684 17.857C0.161237 17.8504 0.119254 17.7977 0.12584 17.7401C0.147243 17.5516 0.171115 17.3614 0.198281 17.1737C0.206513 17.1153 0.260021 17.0758 0.317644 17.0832C0.376091 17.0914 0.416428 17.1449 0.408196 17.2033C0.381854 17.3886 0.357981 17.5771 0.337401 17.7631C0.330816 17.8175 0.284717 17.8578 0.232032 17.8578ZM39.8189 18.3671C39.7646 18.3671 39.7176 18.3251 39.7127 18.2699C39.6971 18.0822 39.6773 17.8937 39.6559 17.7077C39.6493 17.6492 39.6913 17.5965 39.7497 17.59C39.8082 17.5834 39.8609 17.6254 39.8675 17.6838C39.8889 17.8707 39.9078 18.0617 39.9243 18.2518C39.93 18.3103 39.8864 18.3613 39.8279 18.3662L39.8189 18.3671ZM0.136854 18.9896H0.131092C0.0726446 18.9863 0.0273687 18.9361 0.0306615 18.8777C0.0413631 18.6892 0.0545342 18.4974 0.070175 18.308C0.0751142 18.2496 0.126976 18.2076 0.185423 18.2109C0.24387 18.2158 0.287499 18.2677 0.28256 18.3261C0.266919 18.513 0.253748 18.7023 0.243046 18.8892C0.239754 18.946 0.192831 18.9896 0.136854 18.9896ZM39.8847 19.5015C39.8271 19.5015 39.7802 19.4554 39.7785 19.3977C39.7728 19.2117 39.7645 19.0215 39.7538 18.833C39.7505 18.7754 39.795 18.7244 39.8534 18.7211C39.9119 18.7161 39.9621 18.7622 39.9654 18.8215C39.9769 19.0117 39.9852 19.2035 39.9909 19.392C39.9926 19.4504 39.9465 19.499 39.888 19.5006L39.8847 19.5015ZM0.106192 20.1255C0.0477454 20.1255 0 20.0778 0 20.0193V20.0004C0 19.8168 0.00246959 19.6308 0.00740877 19.448C0.00905517 19.3896 0.0568006 19.341 0.116071 19.3451C0.175341 19.3468 0.22144 19.3954 0.219794 19.4538C0.214854 19.6349 0.212385 19.8185 0.212385 20.0004V20.0193C0.212385 20.0778 0.164639 20.1255 0.106192 20.1255ZM39.8856 20.6746H39.8831C39.8239 20.6729 39.7778 20.6235 39.7794 20.5651C39.7852 20.3766 39.7877 20.1864 39.7877 20.0004V19.9625C39.7877 19.9041 39.8354 19.8563 39.8938 19.8563C39.9523 19.8563 40 19.9041 40 19.9625V20.0004C40 20.1889 39.9976 20.3807 39.9918 20.5708C39.9902 20.6285 39.9432 20.6746 39.8856 20.6746ZM0.139102 21.2607C0.083125 21.2607 0.0362027 21.217 0.0329099 21.1602C0.0222083 20.9709 0.0139764 20.7791 0.008214 20.5898C0.0065676 20.5313 0.0526666 20.4828 0.111937 20.4811H0.114406C0.17203 20.4811 0.218953 20.5264 0.220599 20.584C0.226361 20.7709 0.234593 20.961 0.245295 21.1487C0.248588 21.2072 0.203312 21.2574 0.144865 21.2607H0.139102ZM39.8222 21.8083H39.8131C39.7547 21.8034 39.711 21.7524 39.716 21.6939C39.7324 21.5054 39.7456 21.3161 39.7555 21.13C39.7588 21.0716 39.8098 21.0288 39.8675 21.0296C39.9267 21.0329 39.9712 21.0831 39.9679 21.1415C39.9572 21.3301 39.944 21.5219 39.9275 21.7112C39.9234 21.7672 39.8765 21.8083 39.8222 21.8083ZM0.236292 22.3925C0.183607 22.3925 0.137508 22.3522 0.130922 22.2979C0.109519 22.1093 0.0905856 21.9175 0.0741217 21.7299C0.0691825 21.6714 0.112812 21.6204 0.171259 21.6154C0.229706 21.6097 0.280744 21.6533 0.285683 21.7117C0.302147 21.8978 0.321081 22.0871 0.342484 22.274C0.34907 22.3324 0.307087 22.3851 0.24864 22.3917L0.236292 22.3925ZM39.6937 22.9367L39.6789 22.9358C39.6213 22.9276 39.5809 22.8741 39.5883 22.8156C39.6155 22.6296 39.6394 22.4411 39.6608 22.2559C39.6674 22.1974 39.7192 22.1546 39.7777 22.162C39.8361 22.1686 39.8781 22.2213 39.8715 22.2797C39.8501 22.4666 39.8254 22.6576 39.7991 22.8461C39.7917 22.8988 39.7464 22.9367 39.6937 22.9367ZM0.396606 23.5172C0.346391 23.5172 0.301115 23.481 0.29206 23.4291C0.259955 23.2414 0.23032 23.0513 0.203154 22.8652C0.194922 22.8068 0.235259 22.7533 0.293706 22.745C0.35133 22.7368 0.404838 22.7763 0.413893 22.8348C0.440235 23.0192 0.46987 23.2068 0.501975 23.3929C0.511853 23.4505 0.473163 23.5057 0.414716 23.5155L0.396606 23.5172ZM39.502 24.0564L39.4806 24.0548C39.4229 24.0433 39.3859 23.9873 39.3974 23.9297C39.4345 23.7461 39.469 23.5592 39.5012 23.374C39.511 23.3164 39.567 23.2777 39.6238 23.2876C39.6814 23.2975 39.7201 23.3526 39.7102 23.4102C39.6781 23.5971 39.6427 23.7864 39.6057 23.9717C39.5958 24.0219 39.5514 24.0564 39.502 24.0564ZM0.622241 24.6303C0.574496 24.6303 0.530866 24.5973 0.519342 24.5479C0.475712 24.3635 0.435376 24.1758 0.397509 23.9906C0.385984 23.933 0.423028 23.877 0.480651 23.8655C0.538275 23.854 0.594253 23.891 0.605777 23.9478C0.642821 24.1314 0.683158 24.3174 0.725964 24.5002C0.739135 24.557 0.703738 24.6146 0.646937 24.6278C0.638705 24.6294 0.630473 24.6303 0.622241 24.6303ZM39.245 25.1635C39.2359 25.1635 39.2277 25.1619 39.2186 25.1602C39.1618 25.1454 39.1272 25.087 39.1421 25.0302C39.1898 24.8499 39.2351 24.6647 39.2779 24.4819C39.2911 24.4243 39.3479 24.3889 39.4055 24.4021C39.4623 24.4152 39.4977 24.4729 39.4845 24.5297C39.4417 24.7149 39.3956 24.9009 39.3479 25.0837C39.3355 25.1314 39.2927 25.1635 39.245 25.1635ZM0.911236 25.7291C0.86596 25.7291 0.823154 25.6987 0.809983 25.6526C0.756475 25.4706 0.704614 25.2854 0.656868 25.1027C0.641227 25.0459 0.675802 24.9874 0.732602 24.9726C0.789403 24.9578 0.847027 24.9915 0.861844 25.0483C0.90959 25.2294 0.960628 25.4122 1.01331 25.5925C1.02978 25.6493 0.997672 25.7077 0.941694 25.725C0.931816 25.7275 0.921938 25.7291 0.911236 25.7291ZM38.9256 26.2533C38.9149 26.2533 38.9042 26.2517 38.8926 26.2484C38.8375 26.2303 38.8062 26.1702 38.8243 26.1142C38.8828 25.9364 38.9387 25.7553 38.9914 25.575C39.0079 25.5182 39.0672 25.4861 39.1231 25.5026C39.1791 25.519 39.212 25.5783 39.1956 25.6343C39.1421 25.817 39.0853 26.0006 39.0268 26.18C39.012 26.2253 38.9708 26.2533 38.9256 26.2533ZM1.26362 26.8091C1.21999 26.8091 1.17883 26.7819 1.16319 26.7383C1.09898 26.5588 1.03725 26.3777 0.978798 26.1983C0.960688 26.1423 0.991146 26.0822 1.04712 26.0641C1.10228 26.046 1.16237 26.0764 1.18048 26.1324C1.23811 26.3094 1.29984 26.4897 1.36323 26.6675C1.38299 26.7227 1.35418 26.7827 1.29902 26.8025C1.2875 26.8074 1.27515 26.8091 1.26362 26.8091ZM38.5428 27.3269C38.5296 27.3269 38.5173 27.3245 38.5041 27.3195C38.4498 27.2989 38.4226 27.2372 38.444 27.182C38.5123 27.0059 38.579 26.8272 38.6416 26.6511C38.6613 26.5959 38.7223 26.5671 38.7774 26.5869C38.8326 26.6066 38.8614 26.6675 38.8416 26.7227C38.7782 26.9005 38.7107 27.0816 38.6416 27.2594C38.6251 27.3014 38.5856 27.3269 38.5428 27.3269ZM1.67602 27.8652C1.63486 27.8652 1.59534 27.8413 1.57805 27.801C1.50479 27.6273 1.43235 27.4495 1.3632 27.2733C1.34262 27.219 1.36896 27.1572 1.42412 27.1358C1.47845 27.1144 1.54019 27.1416 1.56159 27.1959C1.62909 27.3704 1.70071 27.5458 1.77398 27.7178C1.7962 27.7722 1.77151 27.8339 1.71717 27.857C1.704 27.8627 1.69001 27.8652 1.67602 27.8652ZM38.0992 28.3757C38.0844 28.3757 38.0687 28.3732 38.0547 28.3666C38.0012 28.3419 37.9782 28.2785 38.0021 28.2259C38.0811 28.0538 38.1576 27.8793 38.2309 27.7072C38.2531 27.6529 38.3157 27.6282 38.37 27.6504C38.4235 27.6735 38.4491 27.7361 38.426 27.7896C38.3527 27.9641 38.2745 28.1402 38.1955 28.3139C38.1774 28.3526 38.1395 28.3757 38.0992 28.3757ZM2.14761 28.8952C2.10892 28.8952 2.07105 28.8738 2.05212 28.8359C1.96897 28.6671 1.88665 28.4943 1.80763 28.3214C1.78293 28.2687 1.8068 28.2053 1.86031 28.1806C1.913 28.1568 1.97638 28.1798 2.00108 28.2333C2.07928 28.4037 2.16078 28.5749 2.2431 28.7421C2.26862 28.7947 2.24721 28.8581 2.19453 28.8845C2.17971 28.8919 2.16325 28.8952 2.14761 28.8952ZM37.5955 29.3972C37.579 29.3972 37.5617 29.3931 37.5461 29.3848C37.4942 29.3568 37.4745 29.2926 37.5016 29.2408C37.5897 29.0745 37.677 28.9049 37.7593 28.737C37.7856 28.6843 37.849 28.6629 37.9017 28.6884C37.9544 28.7147 37.9758 28.7781 37.9494 28.8308C37.8663 29.0004 37.779 29.1716 37.6893 29.3404C37.6704 29.3766 37.6333 29.3972 37.5955 29.3972ZM2.67781 29.8969C2.64077 29.8969 2.60455 29.8771 2.58561 29.8426C2.49177 29.6779 2.39957 29.51 2.31149 29.3429C2.28432 29.291 2.30408 29.2268 2.35594 29.1996C2.4078 29.1725 2.47201 29.1922 2.49918 29.2441C2.58644 29.4087 2.67781 29.575 2.77001 29.738C2.79882 29.7891 2.78071 29.8541 2.72967 29.8829C2.71321 29.892 2.69592 29.8969 2.67781 29.8969ZM37.0349 30.3867C37.016 30.3867 36.997 30.3825 36.9797 30.3718C36.9295 30.3414 36.9139 30.2764 36.9443 30.2261C37.0415 30.0656 37.137 29.901 37.23 29.7372C37.2588 29.6869 37.3238 29.6688 37.3749 29.6976C37.4259 29.7265 37.444 29.7915 37.4152 29.8425C37.3214 30.008 37.2242 30.1735 37.1255 30.3356C37.1057 30.3686 37.0711 30.3867 37.0349 30.3867ZM3.26489 30.8674C3.23032 30.8674 3.19575 30.8501 3.17517 30.818C3.07309 30.6591 2.97184 30.497 2.87388 30.3348C2.84342 30.2846 2.85906 30.2196 2.90927 30.1891C2.95949 30.1586 3.02452 30.1751 3.05498 30.2253C3.15212 30.385 3.25255 30.5464 3.3538 30.7036C3.3859 30.753 3.37191 30.818 3.32252 30.8501C3.30441 30.8617 3.28465 30.8674 3.26489 30.8674ZM36.4191 31.3434C36.3977 31.3434 36.3771 31.3368 36.359 31.3245C36.3104 31.2915 36.2981 31.2257 36.331 31.1771C36.4372 31.0223 36.5426 30.8635 36.6446 30.7062C36.6759 30.6568 36.7418 30.6428 36.7912 30.6741C36.8406 30.7062 36.8546 30.7721 36.8233 30.8207C36.7204 30.9804 36.6134 31.1409 36.5063 31.2973C36.4858 31.3269 36.4528 31.3434 36.4191 31.3434ZM3.90612 31.8026C3.87319 31.8026 3.84109 31.7877 3.81968 31.7589C3.70937 31.6075 3.59824 31.4502 3.49123 31.293C3.45748 31.2453 3.46982 31.1786 3.51839 31.1457C3.56696 31.1127 3.63282 31.1251 3.66574 31.1736C3.77276 31.3284 3.88225 31.484 3.99173 31.6338C4.0263 31.6816 4.0156 31.7482 3.96868 31.7828C3.94975 31.796 3.92752 31.8026 3.90612 31.8026ZM35.749 32.262C35.7268 32.262 35.7038 32.2546 35.684 32.2397C35.6379 32.2043 35.6297 32.1377 35.6651 32.0907C35.7795 31.9434 35.8939 31.7911 36.0051 31.6388C36.0388 31.5911 36.1055 31.5812 36.1532 31.6158C36.2002 31.6503 36.2109 31.7162 36.1763 31.7639C36.0643 31.9179 35.9491 32.0718 35.833 32.2208C35.8124 32.248 35.7811 32.262 35.749 32.262ZM4.60005 32.7006C4.56877 32.7006 4.53831 32.6874 4.51773 32.6619C4.39672 32.5146 4.27735 32.3647 4.16211 32.2157C4.12671 32.1688 4.13494 32.1021 4.18186 32.0667C4.22796 32.0305 4.29464 32.0388 4.33086 32.0857C4.44446 32.233 4.56218 32.382 4.68154 32.5277C4.71859 32.573 4.712 32.6397 4.66673 32.6767C4.64697 32.6932 4.6231 32.7006 4.60005 32.7006ZM35.0286 33.1411C35.0039 33.1411 34.9792 33.1329 34.9595 33.1156C34.915 33.0769 34.9101 33.0094 34.9488 32.9657C35.0714 32.8233 35.1941 32.6784 35.3135 32.5336C35.3505 32.4883 35.4172 32.4809 35.4625 32.5187C35.5077 32.5558 35.5143 32.6225 35.4773 32.6677C35.3571 32.8143 35.2336 32.9616 35.1093 33.1049C35.0879 33.1287 35.0583 33.1411 35.0286 33.1411ZM5.34337 33.5585C5.31456 33.5585 5.28657 33.5469 5.26517 33.5247C5.13757 33.3856 5.00998 33.2424 4.88567 33.0983C4.84698 33.0538 4.85192 32.9872 4.89555 32.9485C4.94001 32.9106 5.00751 32.9147 5.04538 32.9592C5.16885 33.1016 5.29563 33.2432 5.42158 33.3807C5.46109 33.4243 5.45862 33.491 5.41499 33.5305C5.39523 33.5494 5.36889 33.5585 5.34337 33.5585ZM34.2599 33.9776C34.2335 33.9776 34.2064 33.9677 34.1858 33.948C34.1438 33.9068 34.143 33.8393 34.1841 33.7973C34.315 33.6631 34.4451 33.5248 34.5719 33.3874C34.6122 33.3437 34.6789 33.3413 34.7225 33.3808C34.7653 33.4203 34.7686 33.4878 34.7283 33.5306C34.6007 33.6705 34.4681 33.8097 34.3364 33.9455C34.3159 33.9669 34.2879 33.9776 34.2599 33.9776ZM6.13521 34.3735C6.10804 34.3735 6.0817 34.3636 6.06112 34.343C5.92529 34.2113 5.78947 34.0755 5.65775 33.9397C5.61659 33.8977 5.61742 33.8302 5.6594 33.789C5.70138 33.7487 5.76889 33.7495 5.81005 33.7915C5.94093 33.9265 6.07512 34.0607 6.2093 34.1907C6.25128 34.2319 6.2521 34.2986 6.21094 34.3414C6.19036 34.3628 6.1632 34.3735 6.13521 34.3735ZM33.4447 34.7694C33.4168 34.7694 33.3879 34.7579 33.3665 34.7348C33.327 34.6912 33.3303 34.6245 33.3731 34.585C33.5106 34.4582 33.6489 34.3282 33.7839 34.1973C33.8259 34.1561 33.8934 34.157 33.9345 34.1989C33.9749 34.2409 33.9741 34.3084 33.9321 34.3496C33.7954 34.4813 33.6563 34.6138 33.5172 34.7414C33.4966 34.7595 33.4711 34.7694 33.4447 34.7694ZM6.97164 35.1414C6.94777 35.1414 6.92225 35.1332 6.90249 35.1159C6.75843 34.9908 6.6152 34.8632 6.47608 34.7348C6.43327 34.6952 6.42998 34.6286 6.47031 34.5849C6.50983 34.5421 6.57651 34.5388 6.62014 34.5792C6.75761 34.7051 6.8992 34.8319 7.04161 34.9554C7.08607 34.9932 7.09101 35.0607 7.05231 35.1052C7.03091 35.1291 7.0021 35.1414 6.97164 35.1414ZM32.587 35.5128C32.5565 35.5128 32.5261 35.4996 32.5047 35.4741C32.4676 35.428 32.4742 35.3613 32.5195 35.3243C32.6652 35.2049 32.8109 35.0831 32.9516 34.9604C32.9961 34.9225 33.0628 34.9267 33.1015 34.9711C33.1402 35.0156 33.1352 35.0831 33.0908 35.1209C32.9484 35.2444 32.801 35.3687 32.6545 35.4889C32.6347 35.5045 32.6108 35.5128 32.587 35.5128ZM7.85173 35.8616C7.82868 35.8616 7.80645 35.8542 7.7867 35.8394C7.63687 35.7233 7.48623 35.604 7.3397 35.4838C7.29442 35.4467 7.28784 35.3792 7.32488 35.334C7.36193 35.2887 7.42861 35.2821 7.47388 35.3191C7.61959 35.4377 7.76776 35.5562 7.91676 35.6715C7.96286 35.7069 7.97109 35.7735 7.93569 35.8205C7.91511 35.8468 7.88301 35.8616 7.85173 35.8616ZM31.689 36.206C31.6561 36.206 31.624 36.1912 31.6026 36.1624C31.5688 36.1146 31.5787 36.0488 31.6264 36.0142C31.7779 35.9039 31.9302 35.7894 32.0784 35.6758C32.1245 35.6396 32.1911 35.6479 32.2265 35.6948C32.2628 35.7409 32.2545 35.8076 32.2076 35.8438C32.0586 35.959 31.9047 36.0743 31.7516 36.1854C31.7326 36.1994 31.7104 36.206 31.689 36.206ZM8.77032 36.5301C8.74974 36.5301 8.72916 36.5244 8.71105 36.512C8.55464 36.405 8.39823 36.2939 8.24429 36.1819C8.19655 36.1473 8.18585 36.0815 8.22042 36.0337C8.255 35.986 8.32167 35.9761 8.3686 36.0107C8.52089 36.121 8.67647 36.2313 8.83041 36.3367C8.87898 36.3696 8.89133 36.4363 8.8584 36.484C8.83782 36.5145 8.80407 36.5301 8.77032 36.5301ZM30.7529 36.8471C30.7175 36.8471 30.6837 36.8298 30.6632 36.7977C30.6319 36.7483 30.6459 36.6833 30.6953 36.6512C30.8517 36.5507 31.0097 36.4454 31.1653 36.3392C31.2131 36.3062 31.2797 36.3186 31.3127 36.3672C31.3456 36.4149 31.3332 36.4816 31.2855 36.5145C31.1283 36.6224 30.9686 36.7277 30.8105 36.8298C30.7924 36.8413 30.7727 36.8471 30.7529 36.8471ZM9.72698 37.1461C9.70887 37.1461 9.68994 37.1411 9.67265 37.1313C9.51048 37.0333 9.34749 36.9312 9.18696 36.8283C9.13757 36.797 9.12358 36.7312 9.15568 36.6818C9.18696 36.6324 9.25282 36.6184 9.30221 36.6497C9.46109 36.7518 9.62244 36.853 9.78214 36.9493C9.83235 36.9798 9.84881 37.0448 9.81836 37.095C9.7986 37.128 9.7632 37.1461 9.72698 37.1461ZM29.7825 37.4333C29.7454 37.4333 29.7092 37.4136 29.6894 37.379C29.6606 37.328 29.6787 37.2629 29.7298 37.2341C29.8928 37.1419 30.0566 37.0464 30.2163 36.9501C30.2665 36.9197 30.3324 36.9353 30.3628 36.9855C30.3925 37.0357 30.3768 37.1016 30.3266 37.1321C30.1644 37.2292 29.999 37.3263 29.8343 37.4193C29.8179 37.4284 29.7998 37.4333 29.7825 37.4333ZM10.7172 37.7066C10.7007 37.7066 10.6834 37.7025 10.6678 37.6942C10.5015 37.6061 10.3327 37.5139 10.1664 37.4201C10.1154 37.3913 10.0973 37.3263 10.1261 37.2752C10.1549 37.2242 10.22 37.2061 10.271 37.2349C10.4348 37.3279 10.6019 37.4193 10.7674 37.5065C10.8192 37.5337 10.839 37.5979 10.8118 37.6498C10.7921 37.686 10.7559 37.7066 10.7172 37.7066ZM28.7807 37.9627C28.7412 37.9627 28.7033 37.9413 28.6852 37.9034C28.6588 37.8507 28.6811 37.7874 28.7337 37.761C28.9017 37.6787 29.0704 37.5923 29.2351 37.505C29.2869 37.4778 29.3511 37.4976 29.3791 37.5495C29.4063 37.6013 29.3865 37.6655 29.3347 37.6927C29.1676 37.7816 28.9972 37.868 28.8276 37.952C28.8119 37.9594 28.7963 37.9627 28.7807 37.9627ZM11.7388 38.2096C11.7239 38.2096 11.7091 38.2063 11.6951 38.1997C11.5223 38.1207 11.3486 38.0384 11.1773 37.9544C11.1255 37.9289 11.1032 37.8647 11.1296 37.812C11.1551 37.7601 11.2193 37.7379 11.2712 37.7642C11.4399 37.8466 11.612 37.9289 11.7832 38.0071C11.8367 38.031 11.8598 38.0943 11.8359 38.147C11.8178 38.1865 11.7791 38.2096 11.7388 38.2096ZM27.7508 38.4342C27.7088 38.4342 27.6693 38.4095 27.6528 38.3692C27.6297 38.3149 27.6553 38.2531 27.7088 38.2301C27.8792 38.1576 28.0529 38.0819 28.2241 38.0029C28.2776 37.979 28.341 38.002 28.3649 38.0555C28.3896 38.1091 28.3657 38.1716 28.313 38.1963C28.1393 38.2753 27.964 38.3527 27.7919 38.4252C27.7779 38.4309 27.7639 38.4342 27.7508 38.4342ZM12.7883 38.6525C12.7752 38.6525 12.762 38.6508 12.7497 38.6459C12.5727 38.5767 12.394 38.5043 12.2187 38.4302C12.1652 38.4071 12.1397 38.3454 12.1627 38.2911C12.1849 38.2376 12.2475 38.212 12.3018 38.2343C12.4747 38.3075 12.6517 38.38 12.8262 38.4475C12.8814 38.4689 12.9085 38.5306 12.8871 38.585C12.8707 38.6269 12.8303 38.6525 12.7883 38.6525ZM26.6939 38.8459C26.6502 38.8459 26.6091 38.8187 26.5934 38.7759C26.5737 38.7208 26.6025 38.6599 26.6585 38.6401C26.8338 38.5767 27.0116 38.5109 27.1878 38.4425C27.2421 38.4211 27.3039 38.4475 27.3253 38.5026C27.3458 38.557 27.3195 38.6187 27.2643 38.6401C27.0874 38.7092 26.9071 38.7768 26.7293 38.8401C26.7177 38.8443 26.7054 38.8459 26.6939 38.8459ZM13.8619 39.0352C13.8512 39.0352 13.8397 39.0335 13.829 39.0303C13.6487 38.9718 13.466 38.9092 13.2865 38.8459C13.2314 38.8261 13.2026 38.7652 13.2223 38.71C13.2421 38.6549 13.3022 38.6261 13.3581 38.6458C13.5351 38.7084 13.7154 38.7701 13.894 38.8277C13.95 38.8459 13.9805 38.9059 13.9632 38.9619C13.9484 39.0064 13.9064 39.0352 13.8619 39.0352ZM25.6138 39.1974C25.5677 39.1974 25.5249 39.1669 25.5117 39.1208C25.4953 39.0648 25.5274 39.0056 25.5833 38.9891C25.7645 38.9364 25.9456 38.8796 26.1234 38.822C26.1793 38.8039 26.2394 38.8343 26.2575 38.8903C26.2757 38.9463 26.2452 39.0064 26.1892 39.0245C26.0098 39.0821 25.8262 39.1389 25.6434 39.1933C25.6336 39.1957 25.6237 39.1974 25.6138 39.1974ZM14.9516 39.3546C14.9434 39.3546 14.9343 39.353 14.9253 39.3505C14.7409 39.3027 14.5557 39.2517 14.3746 39.1982C14.3186 39.1817 14.2857 39.1225 14.3021 39.0665C14.3186 39.0105 14.3779 38.9784 14.4347 38.9949C14.6133 39.0467 14.7969 39.0978 14.9788 39.1455C15.0356 39.1603 15.0693 39.218 15.0545 39.2748C15.0422 39.3225 14.9994 39.3546 14.9516 39.3546ZM24.5148 39.4856C24.4662 39.4856 24.4226 39.4527 24.411 39.4041C24.3979 39.3465 24.4333 39.2897 24.4909 39.2766C24.672 39.2346 24.8564 39.1885 25.0391 39.1407C25.0959 39.1259 25.1536 39.1597 25.1684 39.2165C25.184 39.2733 25.1494 39.3309 25.0935 39.3465C24.9091 39.3943 24.7222 39.4404 24.5386 39.4832C24.5304 39.4848 24.5222 39.4856 24.5148 39.4856ZM16.0589 39.6098L16.0375 39.6081C15.8515 39.5703 15.6638 39.5299 15.4794 39.4871C15.4226 39.4739 15.3872 39.4171 15.4004 39.3595C15.4135 39.3027 15.4695 39.2673 15.5271 39.2805C15.7091 39.3225 15.8951 39.3628 16.0795 39.3999C16.1371 39.4114 16.1742 39.4674 16.1626 39.525C16.1528 39.5752 16.1083 39.6098 16.0589 39.6098ZM23.4011 39.7103C23.3509 39.7103 23.3056 39.674 23.2965 39.6222C23.2867 39.5646 23.3254 39.5094 23.383 39.4995C23.5674 39.4682 23.7542 39.4337 23.9386 39.3958C23.9954 39.3851 24.0522 39.4213 24.0638 39.4789C24.0753 39.5366 24.0382 39.5925 23.9806 39.6041C23.7938 39.6419 23.6052 39.6773 23.4192 39.7094L23.4011 39.7103ZM17.1786 39.8017L17.1638 39.8009C16.9761 39.7745 16.7859 39.7441 16.5999 39.7128C16.5414 39.7029 16.5027 39.6478 16.5126 39.5902C16.5225 39.5317 16.5777 39.493 16.6353 39.5029C16.8205 39.535 17.0082 39.5638 17.1934 39.5902C17.2519 39.5984 17.2922 39.6527 17.284 39.7103C17.2765 39.7638 17.2304 39.8017 17.1786 39.8017ZM22.2766 39.8715C22.2231 39.8715 22.1778 39.8312 22.1712 39.7769C22.1647 39.7192 22.2066 39.6665 22.2651 39.66C22.4511 39.6386 22.6396 39.6147 22.8249 39.5875C22.8833 39.5793 22.9368 39.6196 22.945 39.6781C22.9533 39.7357 22.9129 39.79 22.8553 39.7983C22.6676 39.8246 22.4766 39.8493 22.289 39.8707L22.2766 39.8715ZM18.3071 39.9292H18.2981C18.1095 39.9127 17.9186 39.8938 17.73 39.8732C17.6716 39.8666 17.6296 39.814 17.6362 39.7555C17.6428 39.6971 17.6963 39.6551 17.7539 39.6617C17.94 39.6831 18.1293 39.7012 18.3162 39.7176C18.3746 39.7226 18.4182 39.7736 18.4133 39.8321C18.4084 39.8872 18.3623 39.9292 18.3071 39.9292ZM21.1447 39.9679C21.0887 39.9679 21.0426 39.9243 21.0393 39.8675C21.036 39.8091 21.0805 39.7589 21.1389 39.7556C21.3258 39.7449 21.5159 39.7317 21.7028 39.716C21.7596 39.7095 21.8123 39.7539 21.8172 39.8124C21.8222 39.8708 21.7794 39.9227 21.7209 39.9276C21.5316 39.9433 21.3398 39.9572 21.1513 39.9679H21.1447ZM19.4415 39.9926H19.4382C19.2489 39.9877 19.0571 39.9794 18.8677 39.9687C18.8093 39.9654 18.7648 39.9152 18.7681 39.8568C18.7714 39.7983 18.8208 39.7539 18.8801 39.7564C19.0669 39.7671 19.2571 39.7753 19.444 39.7802C19.5024 39.7819 19.5493 39.8304 19.5477 39.8897C19.546 39.9473 19.4983 39.9926 19.4415 39.9926ZM20.0093 39.9999C19.9509 39.9999 19.9031 39.9522 19.9031 39.8937C19.9031 39.8353 19.9509 39.7875 20.0093 39.7875C20.1954 39.7875 20.3855 39.7851 20.574 39.7793C20.6325 39.7744 20.6819 39.8238 20.6835 39.883C20.6852 39.9415 20.6391 39.9901 20.5798 39.9917C20.3897 39.9975 20.1978 39.9999 20.0093 39.9999Z" fill="#FBB03B"/>
<path d="M27.7344 18.4968V23.953C27.7344 26.2312 23.7546 27.4686 20 27.4686C16.2454 27.4686 12.2656 26.2312 12.2656 23.953V18.4968C12.2656 18.1171 12.5749 17.7937 12.9688 17.7937H27.0312C27.4251 17.7937 27.7344 18.1171 27.7344 18.4968Z" fill="#444444"/>
<path d="M27.7344 18.4968V23.953C27.7344 26.2312 23.7546 27.4686 20 27.4686V17.7937H27.0312C27.4251 17.7937 27.7344 18.1171 27.7344 18.4968Z" fill="#292929"/>
<path d="M31.9999 16.9219C31.9999 17.2172 31.8171 17.4844 31.5498 17.5827L20.2529 21.8015C20.1687 21.8297 20.0843 21.8438 19.9999 21.8438C19.9155 21.8438 19.8311 21.8297 19.7468 21.8015L8.44995 17.5827V16.2609L19.7468 12.0421C19.8311 12.0141 19.9155 12 19.9999 12C20.0843 12 20.1687 12.0141 20.2529 12.0421L31.5498 16.2609C31.8171 16.3594 31.9999 16.6265 31.9999 16.9219Z" fill="#6E6E6E"/>
<path d="M32 16.9219C32 17.2172 31.8173 17.4844 31.5499 17.5827L20.2531 21.8015C20.1688 21.8297 20.0844 21.8438 20 21.8438V12C20.0844 12 20.1688 12.0141 20.2531 12.0421L31.5499 16.2609C31.8173 16.3594 32 16.6265 32 16.9219Z" fill="#4D4D4D"/>
<path d="M20.7031 16.9219C20.7031 17.3156 20.3939 17.625 20 17.625H9.40625V28.0593L10.7702 32.1656C10.8969 32.5311 10.6999 32.939 10.3344 33.0515C9.95465 33.1782 9.56097 32.9811 9.44855 32.6155L9.40625 32.4891C9.35004 32.8266 9.05469 33.0938 8.70312 33.0938C8.30927 33.0938 8 32.7843 8 32.3906V16.9219C8 16.528 8.30927 16.2188 8.70312 16.2188H20C20.3939 16.2188 20.7031 16.528 20.7031 16.9219Z" fill="#FBB03B"/>
</svg>
