<svg width="135" height="135" viewBox="0 0 135 135" fill="none" xmlns="http://www.w3.org/2000/svg">
<path d="M74.6125 60.6642L39.0687 75.6984L37.5 129L111 131.5L116 115L122.5 97.5L130.5 80.5V71L99.2875 68.577L103.5 38.5L99.2875 32.5L89 30.5L83.5 46.5L74.6125 60.6642Z" fill="#CCCCCC" stroke="black" stroke-width="0.507978"/>
<path d="M37.6 70.9507H4.99377V132.934H37.6V70.9507Z" fill="#252525" stroke="black" stroke-width="0.507978"/>
<path fill-rule="evenodd" clip-rule="evenodd" d="M92.0349 0.920843C91.2347 1.71423 91.0626 3.10265 91.0626 8.75181C91.0626 14.7338 91.2012 15.7303 92.1371 16.491C93.5336 17.6257 94.7585 17.5961 95.9652 16.3992C96.7654 15.6058 96.9376 14.2174 96.9376 8.56824C96.9376 2.58621 96.7989 1.58973 95.863 0.829055C94.4665 -0.305631 93.2416 -0.27609 92.0349 0.920843ZM67.0925 11.6669C65.3817 13.203 66.3211 14.9021 71.3278 19.3274C74.045 21.7292 76.6888 23.6942 77.2028 23.6942C78.4101 23.6942 80.4875 21.8289 80.4875 20.7449C80.4875 20.2833 78.2991 17.9095 75.6242 15.4697C70.6957 10.9742 68.8033 10.1307 67.0925 11.6669ZM112.376 15.4697C109.701 17.9095 107.513 20.2833 107.513 20.7449C107.513 21.8289 109.59 23.6942 110.797 23.6942C111.311 23.6942 113.955 21.7292 116.672 19.3274C121.679 14.9021 122.618 13.203 120.908 11.6669C119.197 10.1307 117.304 10.9742 112.376 15.4697ZM90.1813 28.5194C84.7928 30.3066 82.7994 33.3477 82.2236 40.6591C81.9034 44.7263 81.4687 46.4307 80.0698 49.0994C75.6178 57.5934 64.4141 64.4807 46.8461 69.5242C43.6918 70.43 40.8924 71.1706 40.6251 71.1706C40.3572 71.1706 39.8425 70.5867 39.4806 69.8735C39.1181 69.1597 37.7645 68.0915 36.472 67.4996C34.2754 66.4931 33.0692 66.423 18.0333 66.423C3.19306 66.423 1.86943 66.4979 0.972312 67.3878C0.0898868 68.2635 0 71.3479 0 100.803C0 131.571 0.055814 133.299 1.07454 134.127C2.01865 134.894 4.0843 135 18.1355 135C32.8043 135 34.3059 134.916 36.3586 133.976C37.5889 133.412 39.0171 132.373 39.5323 131.667L40.4694 130.383L48.41 132.132C59.6589 134.611 64.9352 135 87.2996 135C109.28 135 110.628 134.84 113.975 131.835C117.258 128.887 118.236 124.874 116.654 120.847L115.808 118.694L117.868 117.55C122.29 115.097 124.387 109.625 122.637 105.11L121.786 102.915L124.234 101.366C128.381 98.7412 130.144 93.8068 128.491 89.4517L127.589 87.0757L129.816 85.7527C135.903 82.1361 136.788 74.2466 131.627 69.6123C128.497 66.8017 126.298 66.423 113.11 66.423C102.305 66.423 101.539 66.3597 101.908 65.4998C104.441 59.6075 105.904 50.4735 105.654 42.1309C105.425 34.5136 104.532 32.3138 100.672 29.8651C98.015 28.1792 93.1059 27.5498 90.1813 28.5194ZM56.7848 34.1543C55.5211 35.4082 55.554 36.5081 56.8871 37.5916C57.756 38.2974 59.2559 38.4646 64.7273 38.4646C70.5359 38.4646 71.6304 38.328 72.4652 37.4998C73.7289 36.2459 73.696 35.146 72.363 34.0625C71.4941 33.3567 69.9942 33.1895 64.5228 33.1895C58.7142 33.1895 57.6197 33.3261 56.7848 34.1543ZM97.9545 35.0522L100.029 36.9148L99.7076 45.2068C99.3857 53.5205 98.3006 59.1222 96.0216 64.2369L95.0476 66.423H89.5721C85.3773 66.423 83.8804 66.6171 83.173 67.2517C81.9939 68.3104 81.9939 69.8107 83.173 70.8694C83.9773 71.591 86.7509 71.6981 104.676 71.6981H125.255L127.253 73.4917C128.692 74.7841 129.25 75.7568 129.25 76.9733C129.25 78.1897 128.692 79.1625 127.253 80.4549L125.255 82.2484H116.426C107.075 82.2484 105.75 82.5755 105.75 84.886C105.75 87.0082 107.263 87.5236 113.488 87.5236H119.38L121.378 89.3171C122.817 90.6096 123.375 91.5823 123.375 92.7988C123.375 94.0152 122.817 94.9879 121.378 96.2804L119.38 98.0739H110.551C101.2 98.0739 99.8751 98.401 99.8751 100.711C99.8751 102.834 101.388 103.349 107.613 103.349H113.505L115.503 105.143C118.213 107.576 118.213 109.672 115.503 112.106L113.505 113.899H104.676C95.3249 113.899 94.0001 114.226 94.0001 116.537C94.0001 118.659 95.5129 119.175 101.738 119.175H107.63L109.628 120.968C111.067 122.26 111.625 123.233 111.625 124.45C111.625 125.666 111.067 126.639 109.628 127.931L107.63 129.725L88.0369 129.721C63.8619 129.715 59.1407 129.266 43.3281 125.466L41.125 124.937V100.802V76.6668L48.4617 74.6327C61.8491 70.9216 73.0833 65.244 79.7567 58.8167C85.5136 53.2725 88.1251 47.5284 88.1251 40.4112C88.1251 36.9813 88.2373 36.6758 90.1226 34.983C92.8597 32.5254 95.1633 32.5459 97.9545 35.0522ZM115.535 34.1543C114.271 35.4082 114.304 36.5081 115.637 37.5916C116.506 38.2974 118.006 38.4646 123.477 38.4646C129.286 38.4646 130.38 38.328 131.215 37.4998C132.479 36.2459 132.446 35.146 131.113 34.0625C130.244 33.3567 128.744 33.1895 123.273 33.1895C117.464 33.1895 116.37 33.3261 115.535 34.1543ZM34.1755 72.5712C35.1901 73.3957 35.25 74.9624 35.25 100.62C35.25 125.167 35.156 127.889 34.2777 128.76C33.3888 129.642 32.131 129.725 19.5902 129.725H5.875V100.711V71.6981H19.488C31.3308 71.6981 33.2408 71.8115 34.1755 72.5712ZM24.423 83.0772C22.6417 84.6771 23.9312 87.5236 26.4375 87.5236C27.8393 87.5236 29.375 86.1447 29.375 84.886C29.375 83.6274 27.8393 82.2484 26.4375 82.2484C25.8377 82.2484 24.9312 82.6214 24.423 83.0772ZM24.423 93.6275C23.6404 94.3307 23.5 96.2081 23.5 105.987C23.5 118.251 23.7056 119.175 26.4375 119.175C29.1694 119.175 29.375 118.251 29.375 105.987C29.375 93.7224 29.1694 92.7988 26.4375 92.7988C25.8377 92.7988 24.9312 93.1717 24.423 93.6275Z" fill="black"/>
</svg>
