<svg width="6" height="120" viewBox="0 0 6 120" fill="none" xmlns="http://www.w3.org/2000/svg">
<path d="M0 5.89286L6 0V11.7857L0 5.89286Z" fill="#292B55"/>
<path d="M0 17.6786L6 11.7857V23.5714L0 17.6786Z" fill="#292B55"/>
<path d="M0 30L6 23.5714V36.4286L0 30Z" fill="#292B55"/>
<path d="M0 42.3214L6 36.4286V48.2143L0 42.3214Z" fill="#292B55"/>
<path d="M0 54.1072L6 48.2143V60L0 54.1072Z" fill="#292B55"/>
<path d="M0 65.8929L6 60V71.7857L0 65.8929Z" fill="#292B55"/>
<path d="M0 77.6786L6 71.7857V83.5714L0 77.6786Z" fill="#292B55"/>
<path d="M0 90L6 83.5714V96.4286L0 90Z" fill="#292B55"/>
<path d="M0 102.321L6 96.4286V108.214L0 102.321Z" fill="#292B55"/>
<path d="M0 114.107L6 108.214V120L0 114.107Z" fill="#292B55"/>
</svg>
