<svg width="36" height="36" viewBox="0 0 36 36" fill="none" xmlns="http://www.w3.org/2000/svg">
<path d="M11.2042 28.3916L11.6634 28.6631C13.5921 29.8056 15.8034 30.4099 18.0586 30.4109H18.0633C24.9888 30.4109 30.625 24.7867 30.6278 17.8741C30.6291 14.5243 29.3234 11.3743 26.9511 9.00475C25.7876 7.83615 24.4034 6.9095 22.8787 6.27843C21.3539 5.64737 19.7189 5.32443 18.0682 5.3283C11.1374 5.3283 5.50103 10.9519 5.49857 17.8641C5.49515 20.2244 6.1611 22.5375 7.41942 24.5359L7.71836 25.0101L6.44882 29.636L11.2042 28.3916ZM2.81915 33.2197L4.96396 25.4038C3.6412 23.1165 2.94531 20.5215 2.94613 17.863C2.94962 9.54633 9.73064 2.78033 18.0635 2.78033C22.1072 2.78239 25.9027 4.353 28.7571 7.20405C31.6116 10.0551 33.1821 13.8447 33.1807 17.8751C33.177 26.1912 26.3949 32.9585 18.0633 32.9585H18.0567C15.5269 32.9574 13.041 32.324 10.8329 31.1223L2.81915 33.2197Z" fill="#B3B3B3"/>
<path d="M2.664 33.0646L4.80881 25.2487C3.48377 22.9558 2.78778 20.3549 2.79098 17.708C2.79447 9.39124 9.57549 2.62524 17.9084 2.62524C21.952 2.62729 25.7475 4.19791 28.602 7.04896C31.4564 9.90001 33.027 13.6897 33.0255 17.7201C33.0218 26.0362 26.2398 32.8034 17.9082 32.8034H17.9016C15.3717 32.8024 12.8859 32.1689 10.6778 30.9672L2.664 33.0646Z" fill="white"/>
<path d="M17.9129 5.17325C10.9821 5.17325 5.34568 10.7968 5.34321 17.709C5.3398 20.0693 6.00575 22.3824 7.26407 24.3809L7.56301 24.8552L6.29347 29.4811L11.0491 28.2366L11.5083 28.5081C13.4369 29.6505 15.6483 30.2546 17.9034 30.2559H17.9082C24.8336 30.2559 30.47 24.6317 30.4727 17.7191C30.4779 16.0715 30.1557 14.4392 29.5245 12.9168C28.8934 11.3943 27.966 10.012 26.796 8.8497C25.6324 7.68108 24.2482 6.75441 22.7234 6.12335C21.1986 5.49228 19.5636 5.16935 17.9129 5.17325Z" fill="url(#paint0_linear_98_5816)"/>
<path fill-rule="evenodd" clip-rule="evenodd" d="M14.13 11.4024C13.8468 10.7746 13.5489 10.7619 13.28 10.7511L12.5559 10.7422C12.304 10.7422 11.8948 10.8366 11.5488 11.2139C11.2028 11.5912 10.2266 12.5032 10.2266 14.358C10.2266 16.2128 11.5802 18.0051 11.7688 18.2569C11.9574 18.5088 14.3819 22.4364 18.2213 23.9476C21.4119 25.2034 22.0612 24.9536 22.754 24.8909C23.4468 24.8281 24.9888 23.9789 25.3033 23.0986C25.6179 22.2182 25.6181 21.464 25.5238 21.3063C25.4295 21.1486 25.1776 21.0549 24.7995 20.8662C24.4215 20.6776 22.5647 19.7656 22.2185 19.6397C21.8723 19.5138 21.6207 19.4513 21.3686 19.8286C21.1165 20.2059 20.3934 21.0547 20.173 21.3063C19.9525 21.5579 19.7325 21.5895 19.3544 21.401C18.9764 21.2126 17.76 20.8143 16.3169 19.53C15.194 18.5307 14.4361 17.2966 14.2154 16.9195C13.9948 16.5424 14.192 16.3381 14.3815 16.1503C14.551 15.9813 14.7591 15.71 14.9483 15.49C15.1375 15.2699 15.1998 15.1126 15.3255 14.8614C15.4513 14.6102 15.3886 14.3896 15.2941 14.2011C15.1996 14.0127 14.4657 12.1482 14.13 11.4026" fill="white"/>
<defs>
<linearGradient id="paint0_linear_98_5816" x1="17.6522" y1="6.67845" x2="17.7791" y2="28.1131" gradientUnits="userSpaceOnUse">
<stop stop-color="#57D163"/>
<stop offset="1" stop-color="#23B33A"/>
</linearGradient>
</defs>
</svg>
