<svg xmlns="http://www.w3.org/2000/svg" width="512" height="512" viewBox="0 0 40 40" fill="none" xmlns:v="https://vecta.io/nano"><style><![CDATA[.B{fill-rule:evenodd}.C{fill:#ffcfca}.D{fill:#211a17}]]></style><path fill="#e5e5e5" d="M0 0h512v512H0z"/><path fill="#fff" d="M-278-498h1920V707H-278z"/><mask id="A" mask-type="alpha" maskUnits="userSpaceOnUse" x="1" y="1" width="38" height="38"><path d="M1.328 20.014a18.66 18.66 0 0 0 18.658 18.658 18.66 18.66 0 0 0 18.658-18.658A18.66 18.66 0 0 0 19.986 1.356 18.66 18.66 0 0 0 1.328 20.014z" fill="#fff" class="B"/></mask><g mask="url(#A)" class="B"><path d="M1.328 20.014a18.66 18.66 0 0 0 18.658 18.658 18.66 18.66 0 0 0 18.658-18.658A18.66 18.66 0 0 0 19.986 1.356 18.66 18.66 0 0 0 1.328 20.014z" fill="#fce3c3"/><path d="M5.921 28.815a4.77 4.77 0 0 1 4.769-4.769c.339 0 .669.036.988.103.384-1.923.052-4.267-.043-5.687-.218-3.293-.112-7.576 2.766-9.936 1.668-1.368 4.242-1.743 6.302-.999 2.352.849 3.774 3.018 4.444 5.194.43 1.394.58 2.833.948 4.217.26-.121.549-.189.854-.189.958 0 1.759.665 1.969 1.559.207-.026.418-.041.633-.041 2.754 0 4.986 2.232 4.986 4.986 0 .587-.103 1.15-.289 1.674 1.342.809 2.24 2.281 2.24 3.963 0 2.328-1.72 4.253-3.959 4.576-.501 2.14-2.42 3.734-4.713 3.734-.101 0-.199-.004-.298-.01-.774 1.952-2.677 3.334-4.905 3.334-2.044 0-3.816-1.164-4.691-2.865a5.25 5.25 0 0 1-2.968.914c-2.853 0-5.175-2.264-5.271-5.093a4.77 4.77 0 0 1-3.762-4.662z" fill="#602826"/><path d="M-8.181 70.421l1.431-3.581 1.458-3.211.864-1.463 4.019-7.39 2.542-4.676 1.539-3.136c.525-1.345.838-2.762 1.123-4.178.583-2.906 1.059-5.85 2.045-8.645.751-2.129 1.823-4.194 3.463-5.745 2.432-2.299 5.855-3.181 9.139-2.958a13.99 13.99 0 0 1 1.692.219c1.536.296 3.021.852 4.378 1.633 1.404.808 2.552 1.799 3.462 3.146.286.422.543.863.779 1.315.894 1.716 1.476 3.573 2.204 5.365 1.292 3.184 3.146 6.197 3.748 9.58.625 3.513-.902 12.027-.892 17.008.1 1.893.798 4.304.965 5.351.129.824.268 1.679.178 2.514-.095.886-.33 1.742-.55 2.601-.035.134-.07.272-.151.385-.147.203-.486.258-.644.038-.344-.477-.157-1.186-.04-1.712.109-.491.246-.98.273-1.483.026-.495-.101-.943-.297-1.394l-.416-.976a3.52 3.52 0 0 0-.134-.267c-.018-.034-.038-.065-.059-.097-.1-.156-.225-.292-.391-.371-.14-.066-.371-.111-.516-.035-.158.082-.151.288-.165.44-.017.181.006.363.033.542.038.24.093.487.095.732a1.34 1.34 0 0 1-.012.199c-.006.052-.016.105-.03.156-.148.551-.895 1.041-1.179.304-.06-.158-.081-.329-.105-.496-.113-.8-.393-1.579-.361-2.39.021-.517.099-1.03.177-1.541.129-.851.509-2.093.598-2.502-.531-5.08-.798-9.394-1.09-14.455-.031-.536-.063-1.077-.216-1.592-.196-.658-.58-1.241-.955-1.815a196.96 196.96 0 0 1-6.588-10.822c-.728-1.286-1.461-2.66-1.428-4.137a7.26 7.26 0 0 1-6.845.845c-2.771 6.211-4.065 13.059-7.387 18.993C4.91 55.48.96 59.228-2.26 63.629c-.117.16-.065.638-.076.841-.035.659.02 1.315-.061 1.972-.082.663-.235 1.318-.459 1.948-.101.286-.376.547-.668.291a.32.32 0 0 1-.075-.062c-.288-.306-.29-.726-.272-1.12.021-.449-.002-.875-.198-1.287-.054-.111-.143-.216-.264-.239-.073-.015-.15.003-.221.027-.24.082-.421.231-.568.415a2.15 2.15 0 0 0-.207.314 4.75 4.75 0 0 0-.163.324l-.187.403-.039.078c-.012.024-.024.048-.036.072l-.23.458-.42.833-.366.727c-.214.423-.443.898-.826 1.198-.286.225-.743-.006-.586-.4z" class="C"/><path d="M15.076 26.983c.388.238.856.292 1.307.339l1.636.093c1.065-.043 2.032-.422 3.042-.761l-.051-1.843.014-2.305.071-.703.279-1.737.257-1.425c-.273.265-.535.403-.87.588l-4.308 2.213c-.438.212-.879.426-1.352.54l-.025 4.999z" class="C"/><path d="M15.087 24.676c1.633-.419 3.206-1.07 4.633-1.961l1.374-.912.279-1.737.257-1.425c-.273.265-.535.403-.87.588l-4.308 2.213c-.438.212-.879.426-1.352.54l-.013 2.692z" fill="#f9bfbb"/><path d="M12.295 14.397a11.11 11.11 0 0 1 .31-1.141c.387-1.175 1.138-2.269 2.161-3.009a5.02 5.02 0 0 1 6.456.556c.398.411.724.884.962 1.398.585 1.26.658 2.634.402 3.967-.223 1.179-.704 2.326-1.308 3.337-.372.621-.808 1.21-1.329 1.721-.299.293-.63.559-.985.788-.714.46-1.524.766-2.374.821-.767.05-1.557-.128-2.218-.512-.746-.433-1.211-1.122-1.553-1.883-.84-1.876-.956-4.038-.524-6.043z" class="C"/><path d="M20.913 19.11a2.37 2.37 0 0 0 2.329-.218 2.33 2.33 0 0 0 .945-1.764 2.21 2.21 0 0 0-.016-.376c-.029-.219-.091-.434-.203-.625-.275-.47-.85-.733-1.39-.672s-1.029.428-1.273.915l-.391 2.741z" class="C"/><path d="M14.473 9.564c.637 1.809 1.967 3.337 3.595 4.35s3.538 1.529 5.453 1.629c.136.007-.259-2.521-.332-2.764-.389-1.29-1.233-2.437-2.348-3.194-.167-.114-.34-.218-.518-.313a5.96 5.96 0 0 0-3.629-.619c-.508.074-1.004.205-1.458.443-.088.046-.802.359-.763.468z" fill="#602826"/><path d="M11.666 46.622l-1.209-8.538c-.514-2.508-1.101-5.161-.147-7.634.402-.425.886-.775 1.387-1.083 4.281-2.64 9.654-2.37 14.399-.704.254 3.926-.257 7.869-.586 11.801-.099.564-.17 1.133-.235 1.701-.415 3.557-.638 7.13-.878 10.702-.113-.016-.228-.026-.346-.03-.803-.027-1.601.105-2.393.239l-6.113 1.022c-.79.133-1.583.266-2.36.454l-1.426-6.137a12.12 12.12 0 0 0-.092-1.794z" class="C"/><path d="M4.972 38.704c.652.818 1.429 1.361 2.321 1.728l.688.26c.889.303 1.547.376 2.647.498l.883 8.846c1.129.338 2.307.481 3.481.522 1.822.063 3.665-.048 5.48-.197 1.674-.136 3.377-.408 4.888-1.178l.131-6.422.195-2.677.003-.032c.22.315.444.556.627.893 2.167-1.435 4.092-3.141 5.794-5.095l-.109-.267a11.54 11.54 0 0 0-.748-1.49l-1.868-3.095-.374-.559c-.86-1.24-1.888-2.371-3.13-3.237a10.28 10.28 0 0 0-2.13-1.142c-.39-.153-2.565-.75-2.587-.713-.265.438-.533.61-1.022.76-1.175.363-2.433.395-3.652.234-.678-.09-1.618-.691-1.618-.691s-2.123.607-3.208 1.262c-.473.284-.915.616-1.339.97-1.287 1.074-2.264 2.403-2.969 3.919-.724 1.556-1.185 3.213-1.724 4.837l-.662 2.068z" fill="#150f84"/><path d="M10.152 36.957l-.011-1.195c.033-.471.131-.932.241-1.387a24.38 24.38 0 0 1 .924-2.964l-.263.463c-.65 1.102-1.266 2.273-1.463 3.581-.151.996-.051 2.036-.286 3.011a4.48 4.48 0 0 1-1.257 2.175l-.057.052c.889.302 1.547.376 2.647.498l-.477-4.233z" fill="#000"/><path d="M23.973 37.676c.339 1.741.698 3.53 1.52 5.084l.195-2.677c-.715-.697-1.459-1.443-1.715-2.407z" fill="#ef5d30"/><path d="M17.759 14.097a1.72 1.72 0 0 0-.318.006l-.562.046c-.063.005-.14.002-.167-.054-.013-.028-.009-.061.002-.09.046-.108.179-.145.295-.159.289-.037.593-.016.863.098.053.022.355.16.333.231-.019.063-.386-.07-.447-.077zm-4.087-.127c.106-.003.212.013.317.03l.557.087c.062.01.139.012.17-.042.016-.027.014-.06.004-.09-.038-.111-.168-.157-.282-.181-.286-.058-.591-.06-.869.034-.054.018-.365.134-.35.206.015.064.391-.042.452-.044z" class="D"/><path d="M14.004 18.899c.211.547.597.924 1.066.963.451.037.879-.248 1.175-.721.203-.325.345-.737.389-1.196l-.088-.007-2.61-.215-.097-.008c-.03.434.034.842.165 1.184z" fill="#ce7872"/><path d="M13.937 17.722c.291.439.733.734 1.25.777s1.002-.177 1.36-.562l-2.61-.215z" fill="#fff"/><path d="M14.004 18.899c.211.547.597.924 1.066.963.451.037.879-.248 1.175-.721a2.72 2.72 0 0 0-.399-.22c-.402-.179-.854-.257-1.288-.187-.193.03-.377.089-.554.165z" fill="#ea8c8b"/><path d="M16.725 15.788c-.011.356.184.65.436.658s.463-.275.473-.63-.184-.65-.435-.658-.464.275-.474.63z" class="D"/><path d="M17.054 15.581c.146.004.139.232-.007.227s-.139-.232.007-.227z" fill="#fff"/><path d="M14.3 15.715c-.011.356-.223.638-.474.63s-.445-.302-.435-.658.222-.638.473-.63.446.302.435.658z" class="D"/><path d="M13.711 15.413c.146.004.14.232-.007.227s-.14-.232.007-.227z" fill="#fff"/><path d="M15.077 16.514c.148-.115.379-.112.519.014l-.406.701c-.113-.007-.205-.101-.247-.206a.45.45 0 0 1 .134-.508z" fill="#ce7872"/><path d="M17.378 17.604c-.038.543.473 1.021 1.142 1.067s1.241-.356 1.278-.899-.473-1.021-1.142-1.067-1.241.356-1.278.899zm-5.154-.569c-.021.305.265.573.64.599s.697-.2.717-.505-.265-.573-.641-.599-.696.2-.717.505z" fill="#f9bfbb"/></g><path d="M20.596.221c.058 0 .104-.045.106-.103s-.044-.108-.103-.109L20.028 0h-.001c-.058 0-.106.047-.106.106s.048.106.106.106l.565.009h.003zm-1.703.021h.006l.565-.023c.058-.002.104-.05.103-.109s-.051-.105-.109-.103l-.57.023c-.058.003-.104.053-.1.112s.05.1.106.1zm2.838.044c.054 0 .101-.042.106-.097s-.039-.11-.097-.115l-.57-.041c-.058-.003-.109.041-.112.1s.041.109.1.112l.564.041h.009zm-3.969.05l.011-.001.562-.055c.059-.005.102-.056.097-.115s-.057-.102-.114-.097l-.568.055c-.058.007-.1.059-.094.117s.052.094.105.094zm5.098.079c.052 0 .097-.038.105-.091.008-.058-.032-.112-.091-.12l-.566-.073c-.058-.007-.11.035-.118.093s.035.111.094.118l.561.073.015.001zm-6.223.079l.018-.002.558-.087c.058-.008.099-.062.09-.12s-.062-.098-.12-.09l-.564.088c-.058.01-.097.065-.087.122.009.052.054.088.105.088zm7.343.115c.049 0 .094-.035.104-.085.011-.058-.026-.114-.083-.125l-.561-.106c-.057-.01-.113.029-.123.087s.029.113.087.123l.556.104.021.002zm-8.457.108c.008 0 .016-.001.024-.003l.552-.119c.058-.012.095-.067.083-.125s-.067-.095-.124-.083l-.559.12c-.057.013-.092.07-.079.127.011.049.054.082.103.082zm9.563.149c.047 0 .09-.032.102-.079.015-.057-.019-.115-.076-.13l-.554-.138c-.057-.013-.114.022-.128.079s.022.114.079.128l.549.136c.009.002.018.004.027.004zm-10.662.137c.01 0 .02-.001.03-.004l.545-.15c.057-.015.091-.073.076-.13S15 .63 14.944.645l-.551.152c-.057.016-.089.075-.072.132.014.046.056.077.102.077zm11.751.184c.044 0 .086-.028.101-.073.018-.056-.012-.116-.068-.134l-.545-.169c-.057-.017-.116.016-.133.072s.016.115.073.132l.539.167c.011.004.022.005.033.005zm-12.834.166c.012 0 .023-.002.035-.006l.537-.182c.056-.018.086-.078.068-.134s-.077-.087-.133-.068l-.543.184c-.055.02-.084.08-.064.136.016.043.057.071.1.071zm13.903.218c.043 0 .082-.026.099-.068.021-.055-.005-.116-.06-.138l-.534-.2c-.055-.02-.116.009-.136.064s.008.116.064.136l.528.198c.013.005.026.007.039.007zm-14.966.194c.014 0 .028-.003.041-.008l.525-.213c.055-.021.082-.083.061-.137s-.082-.082-.137-.061l-.531.215c-.054.023-.079.085-.057.139.017.04.057.065.098.065zm16.008.248c.04 0 .079-.023.097-.062.024-.053.001-.116-.053-.141l-.52-.23c-.054-.023-.117.002-.14.056s.003.116.057.139l.515.228c.014.007.029.01.044.01zm-17.043.224c.016 0 .031-.004.047-.011l.511-.242c.054-.024.077-.087.053-.141s-.087-.077-.141-.053l-.517.245c-.053.026-.075.089-.049.142.018.038.056.059.095.059zm18.059.277c.039 0 .075-.021.094-.057.028-.052.008-.116-.044-.143l-.507-.26c-.053-.026-.116-.004-.142.048s-.004.116.049.142l.501.257c.016.008.033.012.049.012zm-19.066.254c.017 0 .035-.004.052-.014l.497-.271c.052-.027.072-.092.045-.143s-.092-.072-.144-.044l-.502.274c-.051.029-.069.094-.04.145.02.035.056.054.093.054zm20.052.305c.036 0 .071-.018.091-.051.03-.05.014-.115-.036-.146l-.491-.288c-.051-.029-.116-.011-.145.04s-.011.116.04.145l.487.285c.016.01.035.015.054.015zM9.26 3.357c.02 0 .04-.005.058-.017l.48-.299c.05-.03.067-.095.036-.146s-.095-.066-.146-.036l-.486.302c-.049.032-.063.097-.031.147.02.032.054.049.089.049zm21.98.333c.034 0 .067-.016.088-.046.033-.048.021-.114-.028-.148l-.474-.316c-.049-.032-.115-.018-.147.032s-.017.115.032.147l.469.312c.019.013.04.019.06.019zm-22.919.309c.021 0 .044-.007.063-.02l.462-.326c.049-.033.061-.099.028-.148s-.1-.061-.148-.028l-.467.329c-.048.034-.058.101-.024.148.021.029.054.044.086.044zm23.836.359c.032 0 .063-.014.084-.041.036-.046.027-.113-.019-.149l-.456-.343c-.048-.035-.114-.024-.148.023s-.025.114.023.148l.451.339c.02.015.043.022.065.022zm-24.736.335c.024 0 .048-.008.067-.024l.443-.352c.047-.036.055-.102.02-.149s-.103-.055-.149-.019l-.448.355c-.045.037-.052.104-.015.149.021.026.052.039.082.039zm25.615.385c.03 0 .059-.012.08-.037.039-.044.034-.111-.011-.15l-.436-.368c-.045-.037-.112-.03-.149.015s-.03.112.015.149l.431.364c.021.017.045.026.07.026zm-26.474.359c.026 0 .052-.009.072-.028l.422-.376c.044-.038.049-.105.011-.15s-.105-.049-.15-.011l-.426.38c-.043.04-.046.107-.007.15.021.023.049.034.078.034zm27.31.41c.028 0 .055-.011.077-.032.04-.042.039-.109-.002-.15l-.415-.392c-.043-.04-.11-.037-.15.006s-.037.11.007.15l.41.388c.021.02.048.03.074.03zm-28.125.381c.027 0 .055-.011.076-.032l.4-.399c.042-.041.043-.108.002-.15s-.109-.043-.151-.002l-.404.403c-.04.042-.04.109.002.15.021.02.047.03.074.03zm28.917.433c.026 0 .051-.009.072-.028.043-.04.046-.107.007-.15l-.393-.415c-.04-.042-.108-.043-.15-.002s-.043.108-.002.15l.389.411c.021.023.049.034.078.034zm-29.685.402c.03 0 .059-.012.08-.037l.376-.421c.04-.043.037-.11-.006-.15s-.11-.037-.151.006l-.38.425c-.038.044-.034.111.011.15.02.017.045.026.07.026zm30.43.457c.023 0 .047-.008.067-.024.045-.037.053-.104.015-.149l-.368-.437c-.038-.044-.105-.049-.15-.011s-.049.105-.011.15l.365.432c.02.026.051.039.082.039zm-31.15.421c.032 0 .063-.014.084-.041l.352-.441c.037-.045.03-.112-.015-.149s-.113-.031-.15.015l-.356.446c-.035.046-.027.113.019.149.02.015.042.022.065.022zm31.844.479c.022 0 .044-.007.063-.02.048-.034.058-.101.023-.148l-.343-.457c-.035-.047-.102-.055-.149-.019s-.055.102-.019.149l.339.453c.021.029.053.044.086.044zm-32.513.437c.034 0 .067-.016.087-.046l.326-.461c.035-.047.024-.114-.023-.148s-.114-.024-.148.023l-.33.466c-.033.048-.021.114.028.148.018.013.039.019.06.019zm33.154.501c.02 0 .039-.005.058-.017.049-.032.063-.097.032-.147l-.316-.476c-.034-.048-.1-.061-.148-.028s-.06.099-.027.148l.313.471c.02.032.054.049.089.049zm-33.77.452c.036 0 .072-.018.091-.051l.299-.478c.032-.049.018-.115-.031-.147s-.115-.018-.147.032l-.302.483c-.03.05-.014.116.036.146.016.01.036.015.054.015zm34.358.522c.018 0 .036-.004.053-.014.051-.029.069-.094.04-.145l-.289-.494c-.03-.05-.095-.066-.146-.036s-.067.096-.036.146l.286.489c.02.035.055.054.092.054zm-34.917.463c.039 0 .075-.02.095-.056l.271-.494c.029-.051.012-.116-.04-.145s-.116-.011-.145.04l-.274.5c-.028.052-.008.116.044.144.016.008.033.012.049.012zm35.449.543c.016 0 .031-.003.047-.011.053-.026.074-.09.049-.142l-.26-.51c-.027-.052-.091-.072-.143-.044s-.072.092-.044.143l.257.504c.018.038.056.059.096.059zm-35.951.473c.04 0 .078-.023.096-.062l.242-.509c.026-.053.005-.116-.048-.142s-.116-.005-.142.048l-.245.514c-.024.053-.001.116.053.141.014.007.03.01.044.01zm36.424.563c.014 0 .028-.003.041-.008.054-.023.08-.085.057-.139l-.23-.524c-.024-.053-.087-.077-.141-.053s-.077.087-.052.141l.227.519c.017.041.057.065.098.065zm-36.866.479c.042 0 .082-.026.099-.068l.212-.521c.023-.054-.002-.116-.056-.139s-.116.002-.139.056l-.215.527c-.021.055.005.116.06.138.012.005.026.007.039.007zm37.279.583c.012 0 .024-.002.036-.006.055-.02.084-.081.064-.136l-.2-.537c-.02-.055-.082-.082-.137-.06s-.081.083-.06.137l.197.531c.016.043.056.071.1.071zm-37.662.486c.044 0 .086-.028.1-.073l.184-.535c.02-.055-.009-.116-.064-.136s-.116.009-.136.064l-.185.54c-.018.056.012.116.068.134.011.003.021.005.033.005zm38.013.596c.01 0 .02-.001.03-.004.057-.016.089-.075.072-.132l-.168-.546c-.018-.056-.078-.086-.134-.068s-.086.078-.068.134l.166.54c.014.046.056.076.102.076zm-38.335.493c.047 0 .09-.031.103-.079l.151-.544c.016-.056-.016-.115-.072-.132s-.115.016-.132.072l-.154.55c-.015.057.019.115.076.13.009.002.018.004.027.004zm38.621.606c.008 0 .017-.001.024-.003.058-.013.093-.07.08-.127l-.136-.555c-.015-.057-.073-.091-.13-.076s-.091.073-.076.129l.135.549c.011.049.055.082.103.082zm-38.88.5c.049 0 .094-.035.104-.085l.121-.552c.013-.057-.022-.114-.079-.128s-.114.022-.128.079l-.122.558c-.012.057.026.114.082.125l.021.002zm39.104.614l.017-.002c.059-.01.097-.065.087-.123l-.105-.562c-.011-.057-.067-.095-.125-.083s-.095.068-.083.125l.104.556c.008.052.053.088.104.088zm-39.298.505c.052 0 .097-.038.105-.091l.088-.558c.011-.058-.029-.113-.086-.123s-.113.029-.123.086l-.09.564c-.008.058.032.112.09.12l.016.001zm39.457.619l.012-.001c.058-.007.1-.059.093-.117l-.072-.567c-.008-.058-.063-.098-.12-.09s-.099.062-.09.12l.072.561c.006.054.052.094.105.094zm-39.587.509c.054 0 .1-.042.105-.097l.057-.562c.007-.058-.035-.111-.093-.118s-.111.035-.118.093l-.058.568c-.005.058.039.11.097.115h.009zm39.682.623h.006c.059-.003.104-.053.1-.112l-.039-.57c-.005-.058-.056-.102-.114-.097s-.102.056-.097.115l.039.564c.003.057.049.1.105.1zm-39.748.511c.057 0 .104-.045.106-.103l.025-.564c.003-.059-.041-.109-.1-.112s-.109.041-.112.1l-.025.571c-.002.059.044.108.103.109h.003zm39.779.624c.058 0 .106-.047.106-.106V20l-.007-.552c-.002-.059-.054-.104-.109-.103s-.105.05-.103.109l.007.546v.019c0 .059.047.106.106.106zm-39.78.549h.003c.058-.002.105-.051.103-.109L.212 20v-.037c0-.059-.048-.106-.106-.106S0 19.904 0 19.963V20l.007.571c.002.058.049.103.106.103zm39.748.587c.056 0 .103-.044.106-.1l.024-.57c.002-.059-.044-.108-.103-.109s-.107.045-.109.103l-.025.565c-.003.059.041.109.1.112h.007zm-39.684.548h.009c.058-.005.101-.056.096-.115l-.04-.564c-.003-.058-.054-.103-.112-.1s-.103.053-.1.112l.04.57c.005.055.051.097.106.097zm39.586.584c.053 0 .1-.04.105-.094l.057-.568c.005-.058-.038-.11-.096-.115s-.11.038-.115.097l-.056.562c-.007.058.035.111.093.118h.012zm-39.458.545l.015-.001c.058-.008.099-.062.091-.12l-.072-.56c-.007-.058-.059-.101-.118-.094s-.1.059-.093.118l.072.566c.007.053.053.091.105.091zm39.297.58c.051 0 .096-.036.105-.088l.089-.564c.009-.058-.031-.112-.09-.12s-.112.032-.12.09l-.088.558c-.01.058.029.113.087.123l.018.002zm-39.104.54l.021-.002c.058-.012.095-.068.083-.125l-.103-.556c-.01-.058-.066-.096-.123-.087s-.097.065-.087.123l.105.561c.011.05.055.085.105.085zm38.879.574c.049 0 .092-.033.104-.082l.121-.558c.012-.057-.026-.113-.083-.125s-.114.026-.125.083l-.119.552c-.014.057.022.114.079.128.008.002.017.003.024.003zm-38.623.533c.009 0 .018-.001.027-.004.057-.015.091-.073.076-.13l-.135-.549c-.013-.057-.071-.093-.128-.079s-.093.07-.08.127l.137.554c.013.048.056.079.103.079zm38.334.566c.046 0 .088-.03.102-.076l.153-.55c.015-.057-.019-.115-.076-.13s-.114.019-.13.076l-.152.544c-.016.056.016.115.073.132.01.003.02.004.03.004zm-38.015.525c.012 0 .022-.002.033-.005.056-.018.086-.078.068-.134l-.166-.54c-.016-.056-.076-.089-.132-.072s-.089.075-.072.132l.169.546c.014.045.056.074.1.074zm37.663.556c.044 0 .084-.027.1-.071l.185-.54c.018-.056-.012-.116-.068-.134s-.116.012-.134.068l-.183.535c-.02.055.009.116.064.136.012.004.024.006.036.006zm-37.279.518c.012 0 .026-.002.038-.007.055-.021.082-.083.061-.138l-.198-.531c-.02-.055-.081-.084-.136-.064s-.084.081-.064.136l.2.537c.016.042.057.068.1.068zm36.867.539c.041 0 .081-.024.097-.065l.215-.527c.021-.054-.006-.116-.06-.137s-.116.006-.138.06l-.212.521c-.023.054.002.116.056.139a.11.11 0 0 0 .042.008zm-36.423.51c.015 0 .03-.003.044-.01.054-.024.077-.087.053-.141l-.228-.518c-.023-.054-.086-.079-.139-.056s-.08.085-.057.139l.23.524c.018.039.057.062.097.062zm35.952.519c.039 0 .077-.022.095-.059l.245-.514c.025-.053.002-.116-.052-.141s-.116-.001-.141.052l-.242.509c-.026.053-.004.116.049.142.015.007.03.011.047.011zm-35.449.502c.017 0 .034-.004.05-.012.052-.027.072-.092.044-.143l-.257-.504c-.026-.053-.091-.074-.142-.048s-.074.09-.049.142l.26.51c.019.036.056.056.094.056zm34.918.5c.037 0 .073-.019.093-.054l.273-.5c.028-.052.008-.116-.044-.143s-.116-.008-.144.044l-.271.494c-.029.051-.011.116.04.145.017.009.035.014.052.014zm-34.356.49c.018 0 .037-.005.054-.015.05-.03.067-.096.036-.146l-.286-.488c-.03-.051-.095-.069-.145-.04s-.069.094-.04.145l.289.494c.02.033.055.051.091.051zm33.77.48c.035 0 .069-.017.089-.049l.302-.484c.03-.05.014-.115-.036-.146s-.115-.014-.146.036l-.299.478c-.031.049-.017.115.032.147.018.012.038.017.058.017zm-33.154.476c.021 0 .042-.006.06-.019.049-.033.061-.099.027-.148l-.313-.471c-.032-.049-.098-.064-.147-.032s-.064.097-.032.147l.317.476c.021.03.054.046.087.046zm32.513.46c.033 0 .065-.015.086-.044l.329-.466c.033-.048.021-.114-.028-.148s-.114-.021-.147.027l-.326.461c-.034.047-.024.114.024.148.019.014.04.02.063.02zm-31.844.459c.023 0 .046-.007.065-.022.047-.036.055-.103.019-.149l-.339-.452c-.035-.047-.101-.058-.148-.023s-.058.101-.024.148l.343.457c.021.027.053.041.084.041zm31.15.439c.03 0 .061-.013.082-.039l.355-.447c.036-.046.027-.113-.019-.149s-.113-.027-.149.019l-.352.442c-.037.045-.03.112.015.15.02.016.044.024.068.024zm-30.43.44c.025 0 .049-.009.07-.026.044-.038.049-.105.011-.15l-.365-.432c-.037-.045-.104-.052-.15-.015s-.052.104-.015.149l.369.437c.021.024.05.037.08.037zm29.685.417c.029 0 .058-.012.078-.034l.38-.426c.039-.044.034-.111-.011-.15s-.111-.034-.15.011l-.376.421c-.039.043-.036.11.007.15.02.019.046.028.072.028zm-28.917.419c.027 0 .054-.01.074-.03.042-.041.043-.108.002-.15l-.389-.411c-.04-.043-.107-.046-.15-.006s-.046.107-.007.15l.393.415c.021.021.049.032.076.032zm28.125.395c.026 0 .053-.01.073-.03l.404-.404c.041-.042.04-.109-.002-.15s-.109-.04-.15.002l-.399.4c-.042.041-.044.108-.002.15.021.021.049.032.077.032zm-27.31.396c.029 0 .058-.011.078-.034.04-.043.037-.11-.007-.15l-.411-.388c-.042-.041-.109-.04-.15.002s-.04.109.002.15l.415.392c.02.019.046.028.072.028zm26.473.372c.025 0 .049-.008.07-.026l.426-.38c.044-.04.046-.107.007-.15s-.107-.046-.15-.006l-.422.376c-.044.038-.049.105-.01.15.021.024.05.037.08.037zm-25.616.371c.031 0 .062-.013.082-.039.037-.045.03-.112-.015-.149l-.432-.364c-.044-.038-.111-.034-.15.011s-.033.111.011.15l.437.367c.02.016.044.024.067.024zm24.737.349c.022 0 .045-.007.064-.022l.448-.356c.045-.037.052-.104.015-.15s-.104-.052-.15-.015l-.442.352c-.047.036-.055.102-.019.149.021.027.052.041.084.041zm-23.838.344c.033 0 .065-.015.086-.044.035-.047.024-.114-.023-.148l-.452-.338c-.046-.036-.113-.027-.149.019s-.027.113.019.149l.457.342c.019.014.04.02.063.02zm22.918.325c.021 0 .041-.006.06-.018l.467-.33c.048-.035.058-.101.023-.148s-.1-.058-.148-.023l-.462.326c-.049.033-.061.099-.028.148.021.03.054.046.088.046zm-21.982.316c.035 0 .069-.017.089-.049.032-.049.018-.115-.031-.147l-.47-.312c-.049-.033-.114-.021-.147.028s-.021.114.027.148l.475.315c.018.011.038.017.058.017zm21.025.299c.019 0 .038-.005.055-.015l.485-.303c.049-.032.063-.098.032-.147s-.098-.063-.147-.032l-.481.3c-.05.03-.066.096-.035.146.02.033.055.051.091.051zm-20.055.287c.037 0 .072-.019.092-.054.029-.051.011-.116-.04-.145l-.486-.285c-.05-.03-.115-.014-.146.036s-.014.115.036.146l.491.288c.016.009.035.014.053.014zm19.064.274c.017 0 .034-.004.049-.012l.502-.275c.051-.029.069-.094.04-.145s-.094-.069-.145-.04l-.496.272c-.052.027-.072.092-.044.143.019.036.056.057.094.057zm-18.062.256c.04 0 .077-.022.095-.059.025-.053.004-.116-.049-.142l-.502-.256c-.052-.027-.116-.008-.143.044s-.008.116.044.144l.507.259c.015.007.031.011.047.011zm17.041.247c.015 0 .03-.003.044-.01l.517-.245c.053-.026.074-.09.049-.142s-.09-.074-.142-.048l-.511.243c-.053.024-.077.087-.053.141.018.039.056.062.096.062zm-16.011.225c.041 0 .081-.024.098-.065.023-.054-.002-.116-.057-.139l-.515-.227c-.053-.024-.116-.001-.141.052s-.001.116.053.141l.521.23c.013.006.027.008.041.008zm14.963.219c.012 0 .026-.002.039-.007l.53-.215c.054-.023.08-.085.057-.139s-.086-.079-.139-.056l-.525.213c-.054.021-.081.083-.06.137.016.042.056.068.099.068zm-13.905.193c.044 0 .084-.027.1-.071.02-.055-.009-.116-.064-.136l-.529-.198c-.054-.021-.116.006-.137.06s.006.116.06.137l.535.2a.11.11 0 0 0 .036.006zm12.832.189c.011 0 .021-.002.033-.005l.543-.184c.055-.02.084-.081.064-.136s-.081-.084-.136-.064l-.537.183c-.056.018-.087.078-.068.134.015.045.056.074.101.074zm-11.752.162c.046 0 .088-.03.102-.076.017-.056-.016-.115-.072-.132l-.539-.167c-.056-.018-.116.012-.134.068s.012.116.068.134l.546.169c.01.003.02.004.03.004zm10.661.157a.11.11 0 0 0 .027-.004l.551-.152c.056-.017.088-.075.072-.132s-.075-.089-.132-.072l-.544.151c-.057.015-.091.073-.076.13.013.048.056.079.103.079zm-9.562.131c.048 0 .092-.033.103-.082.014-.057-.022-.114-.079-.128l-.548-.136c-.058-.015-.115.019-.13.076s.019.115.076.13l.555.137c.007.002.016.003.024.003zm8.456.124l.021-.002.558-.121c.058-.013.093-.07.08-.127s-.071-.093-.128-.08l-.552.119c-.058.012-.095.068-.083.125.011.05.054.085.104.085zm-7.343.101c.051 0 .096-.037.105-.088.011-.058-.029-.113-.086-.123l-.555-.104c-.058-.012-.114.026-.125.083s.026.114.083.125l.561.105.018.002zm6.223.091l.016-.001.564-.088c.058-.01.097-.065.087-.123s-.066-.097-.123-.087l-.559.087c-.058.008-.098.062-.09.12s.053.091.104.091zm-5.098.07c.053 0 .1-.04.105-.094s-.035-.111-.093-.117l-.561-.072c-.058-.009-.112.032-.12.09s.032.112.091.12l.566.073.012.001zm3.969.058h.009l.569-.056c.058-.007.1-.059.093-.117s-.059-.1-.117-.094l-.562.056c-.058.005-.102.056-.097.115s.051.097.105.097zm-2.837.038c.056 0 .103-.044.106-.1s-.041-.109-.1-.112l-.563-.04c-.057-.005-.109.038-.115.097s.039.11.097.115l.57.04h.006zm1.704.025h.003l.57-.024c.058-.003.104-.053.1-.112s-.053-.103-.112-.1l-.565.023c-.058.002-.104.05-.103.109s.049.103.106.103zM19.99 40c.058 0 .106-.047.106-.106s-.048-.106-.106-.106l-.566-.008c-.058-.001-.107.044-.109.103s.044.108.103.109l.571.008z" fill="#fbb03b" class="B"/><rect x="-19.5" y="-202.5" width="178" height="382" rx="4.5" stroke="#7b61ff" stroke-dasharray="10 5"/></svg>