<svg width="80" height="80" viewBox="0 0 80 80" fill="none" xmlns="http://www.w3.org/2000/svg">
<mask id="mask0_77_6517" style="mask-type:alpha" maskUnits="userSpaceOnUse" x="-1" y="0" width="81" height="80">
<path fill-rule="evenodd" clip-rule="evenodd" d="M-0.000549316 40.0002C-0.000549316 62.0915 17.9072 80 39.9993 80C62.0914 80 79.9991 62.0915 79.9991 40.0002C79.9991 17.9089 62.0914 0 39.9993 0C17.9072 0 -0.000549316 17.9089 -0.000549316 40.0002Z" fill="white"/>
</mask>
<g mask="url(#mask0_77_6517)">
<path fill-rule="evenodd" clip-rule="evenodd" d="M-0.000549316 40.0001C-0.000549316 62.0914 17.9072 79.9999 39.9993 79.9999C62.0914 79.9999 79.9991 62.0914 79.9991 40.0001C79.9991 17.9086 62.0914 0.00012207 39.9993 0.00012207C17.9072 0.00012207 -0.000549316 17.9086 -0.000549316 40.0001Z" fill="#5563DA" fill-opacity="0.2"/>
<path fill-rule="evenodd" clip-rule="evenodd" d="M3.00003 75.9206C3.00003 68.0276 9.28732 61.629 17.041 61.629C18.0396 61.629 19.0116 61.7366 19.9496 61.9376C21.079 56.1762 20.1023 49.1525 19.8235 44.8948C19.1812 35.0267 19.4939 22.1928 27.9674 15.12C32.878 11.0219 40.4572 9.89611 46.5239 12.1253C53.4487 14.6701 57.6346 21.1678 59.6075 27.689C60.8728 31.8675 61.3139 36.1782 62.3973 40.3259C63.1632 39.9628 64.014 39.7585 64.9132 39.7585C67.7345 39.7585 70.0928 41.7524 70.7109 44.4296C71.3217 44.3509 71.9422 44.306 72.5748 44.306C80.6824 44.306 87.2557 50.9952 87.2557 59.2471C87.2557 61.0069 86.9527 62.6944 86.4049 64.2623C90.3557 66.6879 93 71.098 93 76.1372C93 83.113 87.9343 88.8828 81.344 89.8505C79.868 96.2627 74.2181 101.039 67.4679 101.039C67.1722 101.039 66.8813 101.027 66.5905 101.009C64.3121 106.86 58.7083 111 52.1471 111C46.1289 111 40.9105 107.511 38.334 102.414C35.8447 104.142 32.8368 105.153 29.5962 105.153C21.1954 105.153 14.3579 98.3678 14.0767 89.8902C7.74581 88.5046 3.00003 82.778 3.00003 75.9206Z" fill="#ED6262" fill-opacity="0.85"/>
<path fill-rule="evenodd" clip-rule="evenodd" d="M-39.9042 201.054C-38.4806 197.473 -37.057 193.895 -35.631 190.311C-34.2664 186.876 -33.074 183.915 -31.2767 180.677C-30.5367 179.348 -29.5311 177.609 -28.6976 176.288C-24.6949 168.899 -20.6946 161.507 -16.6944 154.117C-14.162 149.44 -11.632 144.764 -9.10205 140.089C-7.43754 137.018 -5.77056 133.936 -4.50436 130.68C-2.93573 126.645 -2.00143 122.393 -1.15073 118.145C0.589996 109.427 2.01356 100.596 4.95657 92.2096C7.19888 85.8227 10.4 79.6269 15.3002 74.9736C22.563 68.0747 32.7862 65.4314 42.5962 66.1004C44.2902 66.216 45.9793 66.4346 47.6488 66.7569C52.2366 67.6435 56.672 69.3143 60.7239 71.6553C64.9184 74.0803 68.3458 77.0529 71.0626 81.0939C71.9157 82.3616 72.6853 83.6836 73.3885 85.0398C76.0586 90.1869 77.7969 95.7589 79.9703 101.137C83.828 110.69 89.3673 119.73 91.1646 129.88C93.0307 140.42 88.4724 165.962 88.5019 180.906C88.7994 186.587 90.8843 193.821 91.3834 196.96C91.7694 199.432 92.1825 201.998 91.9145 204.502C91.6317 207.16 90.9286 209.728 90.2721 212.307C90.1688 212.709 90.0631 213.124 89.8197 213.462C89.3821 214.07 88.3691 214.235 87.897 213.576C86.8693 212.146 87.4274 210.017 87.7766 208.439C88.1011 206.967 88.5117 205.5 88.5928 203.991C88.6715 202.507 88.2904 201.163 87.7053 199.81C87.2848 198.837 86.9037 197.849 86.4612 196.881C86.3383 196.614 86.2079 196.34 86.0604 196.08C86.0063 195.979 85.9473 195.885 85.8859 195.789C85.5859 195.32 85.2122 194.912 84.718 194.678C84.3 194.48 83.6091 194.344 83.1764 194.571C82.7043 194.818 82.724 195.436 82.6847 195.893C82.633 196.436 82.7019 196.982 82.783 197.518C82.8961 198.237 83.0609 198.98 83.0682 199.713C83.0707 199.913 83.0609 200.114 83.0338 200.311C83.0166 200.467 82.9846 200.625 82.9453 200.78C82.5027 202.433 80.2727 203.902 79.4245 201.692C79.245 201.217 79.1835 200.706 79.1122 200.205C78.7754 197.804 77.937 195.468 78.0354 193.035C78.0993 191.484 78.3304 189.946 78.564 188.412C78.95 185.858 80.0859 182.134 80.3514 180.906C78.7656 165.666 77.969 152.722 77.0961 137.539C77.0027 135.932 76.9068 134.307 76.452 132.764C75.8668 130.79 74.7211 129.041 73.5999 127.318C66.696 116.711 60.1338 105.881 53.9233 94.8498C51.7498 90.9908 49.5591 86.8691 49.6599 82.4369C43.8624 86.669 35.8669 87.6599 29.2162 84.9708C20.9403 103.606 17.0753 124.149 7.15216 141.954C-0.806526 156.229 -12.6032 167.474 -22.219 180.677C-22.5681 181.156 -22.4132 182.591 -22.4452 183.201C-22.5509 185.177 -22.3862 187.147 -22.6271 189.118C-22.873 191.109 -23.3303 193.072 -23.9966 194.962C-24.299 195.819 -25.1202 196.604 -25.9906 195.836C-26.0693 195.789 -26.143 195.73 -26.2143 195.651C-27.0749 194.732 -27.0798 193.472 -27.0257 192.289C-26.9642 190.943 -27.0331 189.664 -27.6182 188.427C-27.778 188.093 -28.046 187.78 -28.4075 187.708C-28.6263 187.664 -28.8549 187.718 -29.0688 187.79C-29.7868 188.034 -30.3277 188.481 -30.7653 189.034C-30.9964 189.323 -31.2005 189.642 -31.3824 189.975C-31.5595 190.291 -31.7168 190.62 -31.8692 190.948C-32.061 191.358 -32.2405 191.768 -32.4274 192.159C-32.4667 192.24 -32.5036 192.319 -32.5429 192.393C-32.5773 192.465 -32.6142 192.536 -32.6511 192.608C-32.8798 193.065 -33.1084 193.522 -33.3395 193.981C-33.7575 194.813 -34.1755 195.646 -34.5934 196.481C-34.9573 197.207 -35.3237 197.935 -35.6875 198.661C-36.3268 199.931 -37.0103 201.356 -38.1536 202.255C-39.0092 202.929 -40.3738 202.237 -39.9042 201.054Z" fill="#FFCFCA"/>
<path fill-rule="evenodd" clip-rule="evenodd" d="M30 70.7067C31.124 71.4121 32.4818 71.5704 33.7895 71.7096C35.3669 71.8808 36.9467 72.0512 38.5312 71.9856C41.6191 71.8586 44.4207 70.7364 47.3487 69.733C47.2986 67.9134 47.2532 66.0932 47.2007 64.2738C47.1387 61.9983 47.079 59.7181 47.2413 57.447C47.2914 56.751 47.3582 56.0561 47.4465 55.365C47.6518 53.642 47.9548 51.9327 48.2555 50.2195C48.5037 48.8144 48.7519 47.4053 49 46C48.2078 46.7847 47.4489 47.1946 46.4777 47.743C42.3803 50.0536 38.1971 52.2036 33.99 54.2972C32.7205 54.9264 31.4414 55.5579 30.0716 55.8978L30 70.7067Z" fill="#FFCFCA"/>
<path fill-rule="evenodd" clip-rule="evenodd" d="M30 64C34.7429 62.7493 39.3088 60.8067 43.454 58.151C44.7736 57.3077 46.1409 56.4045 47.4438 55.4317C47.6494 53.6965 47.953 51.975 48.2542 50.2495C48.5028 48.8345 48.7514 47.4153 49 46C48.2064 46.7903 47.4462 47.2031 46.4732 47.7554C42.3687 50.0825 38.1781 52.2478 33.9635 54.3563C32.6918 54.9899 31.4104 55.626 30.0383 55.9683L30 64Z" fill="#F9BFBB"/>
<path fill-rule="evenodd" clip-rule="evenodd" d="M21.7352 33.3851C21.9844 32.2114 22.2977 31.0536 22.6653 29.9245C23.825 26.3612 26.0752 23.0428 29.1421 20.7986C35.0291 16.4942 43.4698 17.2309 48.4932 22.4862C49.6849 23.7313 50.662 25.168 51.375 26.7267C53.1293 30.5478 53.3464 34.7134 52.5815 38.7553C51.9129 42.33 50.472 45.8094 48.661 48.8757C47.5458 50.7596 46.2405 52.5438 44.6763 54.0947C43.7806 54.9824 42.7888 55.7907 41.7254 56.4847C39.5862 57.8784 37.1559 58.8083 34.6096 58.9753C32.3101 59.1256 29.9439 58.5874 27.9602 57.4223C25.7248 56.1083 24.3308 54.0188 23.3069 51.7107C20.7877 46.0231 20.4423 39.465 21.7352 33.3851Z" fill="#FFCFCA"/>
<path fill-rule="evenodd" clip-rule="evenodd" d="M47 47.4069C49.2643 48.3793 52.0839 48.1445 54.1095 46.7871C55.8209 45.6415 56.9015 43.7319 56.9945 41.7766C57.0095 41.4217 56.9945 41.067 56.9442 40.71C56.8562 40.0888 56.6652 39.4763 56.326 38.9346C55.4866 37.6005 53.7325 36.8514 52.0814 37.0247C50.4278 37.1991 48.9401 38.2409 48.1937 39.6233L47 47.4069Z" fill="#FFCFCA"/>
<path fill-rule="evenodd" clip-rule="evenodd" d="M28.0045 18.939C29.8997 24.4021 33.854 29.0188 38.6972 32.0802C43.5379 35.1414 49.2209 36.6981 54.9162 37C55.3202 37.0213 54.1449 29.3843 53.9294 28.6515C52.7737 24.755 50.2615 21.2892 46.9462 19.0032C46.4492 18.6603 45.935 18.3439 45.4061 18.057C42.1276 16.2834 38.281 15.6461 34.6106 16.1865C33.0999 16.4093 31.6234 16.8049 30.2743 17.5258C30.0123 17.6656 27.8895 18.6095 28.0045 18.939Z" fill="#ED6262"/>
<path fill-rule="evenodd" clip-rule="evenodd" d="M19.5855 129.346C18.5107 120.819 17.6972 112.31 15.9643 103.879C14.4261 96.3997 12.666 88.4842 15.523 81.1097C16.726 79.8431 18.1779 78.7996 19.6767 77.8793C32.495 70.004 48.5869 70.8091 62.7956 75.7796C63.5548 87.4895 62.0265 99.2515 61.0404 110.977C60.7446 112.658 60.5326 114.355 60.3354 116.051C59.093 126.659 58.425 137.317 57.7052 147.972C57.3675 147.925 57.0224 147.895 56.6699 147.883C54.2664 147.802 51.8753 148.197 49.5039 148.595C43.4004 149.612 37.2994 150.628 31.1984 151.645C28.8344 152.04 26.4581 152.438 24.131 153C22.7654 146.886 21.311 140.789 19.8615 134.696C19.901 132.931 19.8147 131.153 19.5855 129.346Z" fill="#FFCFCA"/>
<path fill-rule="evenodd" clip-rule="evenodd" d="M-0.999969 106.242C0.969879 108.706 3.31779 110.341 6.01141 111.446C6.76502 111.754 7.44651 112.012 8.09069 112.229C10.7768 113.14 12.7641 113.362 16.0895 113.729L18.7582 140.375C22.1682 141.393 25.7273 141.823 29.2765 141.946C34.7807 142.135 40.3495 141.8 45.8337 141.352C50.8902 140.941 56.0362 140.124 60.6026 137.804C60.4832 131.355 60.62 124.902 60.9981 118.461C61.1523 115.771 61.3488 113.083 61.5876 110.398C61.5925 110.366 61.595 110.334 61.5975 110.302C62.2616 111.249 62.9406 111.976 63.4927 112.992C70.0415 108.669 75.8565 103.532 81 97.6447C80.8881 97.3796 80.7787 97.1126 80.6692 96.8409C80.035 95.2721 79.264 93.8154 78.4109 92.3517C76.5903 89.2141 74.7348 86.0788 72.7674 83.0283C72.4018 82.4597 72.0263 81.8979 71.6383 81.343C69.0392 77.6073 65.9352 74.2027 62.182 71.5928C60.1748 70.1976 58.0234 69.0419 55.7452 68.1515C54.5662 67.6903 47.9951 65.8932 47.9279 66.005C47.1271 67.3248 46.3162 67.8411 44.8413 68.2953C41.2921 69.389 37.4892 69.485 33.8057 69.001C31.7587 68.7315 28.9159 66.9184 28.9159 66.9184C28.9159 66.9184 22.5014 68.7453 19.2233 70.718C17.7957 71.5745 16.4576 72.5744 15.1792 73.6386C11.2892 76.8722 8.33942 80.8751 6.20789 85.4418C4.01917 90.1273 2.62635 95.1191 0.999733 100.013C0.313271 102.081 -0.363251 104.157 -0.999969 106.242Z" fill="#46419E"/>
<path fill-rule="evenodd" clip-rule="evenodd" d="M37.8078 32.7415C37.5275 32.7113 37.2427 32.7349 36.9624 32.7588C36.463 32.8007 35.9636 32.8425 35.4664 32.8846C35.3 32.8985 35.0941 32.8899 35.0218 32.7347C34.9868 32.658 34.9977 32.5652 35.0284 32.4865C35.151 32.188 35.5037 32.0865 35.8125 32.0458C36.5813 31.9447 37.3917 32.0009 38.1101 32.3158C38.2503 32.377 39.0541 32.7579 38.9971 32.9533C38.9468 33.1276 37.9699 32.7588 37.8078 32.7415Z" fill="#211A17"/>
<path fill-rule="evenodd" clip-rule="evenodd" d="M25.1997 32.6601C25.4812 32.6514 25.7606 32.6971 26.0399 32.7429C26.5309 32.8235 27.0242 32.9042 27.5174 32.9849C27.6811 33.0116 27.8862 33.0189 27.9691 32.8679C28.0106 32.7934 28.0062 32.6992 27.9801 32.6176C27.8797 32.3073 27.5348 32.1779 27.2315 32.1128C26.4742 31.9519 25.6645 31.9459 24.9291 32.2078C24.785 32.2588 23.9601 32.5806 24.0015 32.7819C24.0408 32.9614 25.0382 32.6652 25.1997 32.6601Z" fill="#211A17"/>
<path fill-rule="evenodd" clip-rule="evenodd" d="M26.5518 46.8554C27.2285 48.6364 28.4682 49.8622 29.975 49.9895C31.4235 50.1103 32.7981 49.1818 33.7497 47.643C34.4026 46.5864 34.8573 45.2425 35 43.7506L34.7172 43.727L26.335 43.0268L26.0231 43C25.9279 44.412 26.1315 45.7414 26.5518 46.8554Z" fill="#EA5353"/>
<path fill-rule="evenodd" clip-rule="evenodd" d="M26 43C27.0019 44.1215 28.5289 44.8769 30.3113 44.9865C32.0909 45.0959 33.7654 44.5343 35 43.5498L26 43Z" fill="white"/>
<path fill-rule="evenodd" clip-rule="evenodd" d="M27 46.6591C27.6581 48.5513 28.8638 49.8536 30.3291 49.9888C31.7378 50.1172 33.0746 49.1307 34 47.4959C33.6041 47.2046 33.1877 46.9492 32.7532 46.7354C31.4962 46.1167 30.0849 45.8465 28.7301 46.0874C28.126 46.193 27.5527 46.3943 27 46.6591Z" fill="#FF948F"/>
<path fill-rule="evenodd" clip-rule="evenodd" d="M35.001 36.9575C34.9774 38.0619 35.4064 38.976 35.9584 38.9995C36.5104 39.023 36.9756 38.1468 36.9991 37.0425C37.0226 35.9383 36.5955 35.024 36.0435 35.0005C35.4914 34.977 35.0245 35.8532 35.001 36.9575Z" fill="#211A17"/>
<path fill-rule="evenodd" clip-rule="evenodd" d="M35.5169 37.0003C36.1813 37.0198 36.1513 38.0189 35.4831 37.9997C34.8187 37.9802 34.8488 36.9807 35.5169 37.0003Z" fill="white"/>
<path fill-rule="evenodd" clip-rule="evenodd" d="M26.9991 37.0425C26.9756 38.1468 26.5086 39.023 25.9566 38.9995C25.4046 38.976 24.9774 38.0617 25.001 36.9575C25.0245 35.8532 25.4896 34.977 26.0417 35.0005C26.5937 35.024 27.0226 35.9381 26.9991 37.0425Z" fill="#211A17"/>
<path fill-rule="evenodd" clip-rule="evenodd" d="M25.515 37.0003C26.1813 37.0195 26.1514 38.0189 25.4851 37.9997C24.8187 37.9805 24.8487 36.9807 25.515 37.0003Z" fill="white"/>
<path fill-rule="evenodd" clip-rule="evenodd" d="M30.24 39.314C30.4571 38.8805 30.7949 38.8938 31 39.3666L30.4053 42C30.24 41.9725 30.1049 41.6204 30.0434 41.2237C29.942 40.5671 30.0228 39.7475 30.24 39.314Z" fill="#CE7872"/>
<path fill-rule="evenodd" clip-rule="evenodd" d="M37.0057 42.7447C36.8964 44.3954 38.373 45.8478 40.3039 45.989C42.2323 46.1298 43.8873 44.9059 43.9943 43.2553C44.1037 41.6046 42.627 40.1522 40.6962 40.011C38.7677 39.8702 37.1127 41.0941 37.0057 42.7447Z" fill="#F9BFBB"/>
<path fill-rule="evenodd" clip-rule="evenodd" d="M21.0033 40.8298C20.9404 41.9304 21.7831 42.8987 22.8874 42.9926C23.9917 43.0866 24.9362 42.2705 24.9967 41.1702C25.0597 40.0696 24.2169 39.1013 23.1126 39.0074C22.0083 38.9134 21.0639 39.7295 21.0033 40.8298Z" fill="#F9BFBB"/>
</g>
</svg>
