<svg width="25" height="24" viewBox="0 0 25 24" fill="none" xmlns="http://www.w3.org/2000/svg">
<path d="M18.6034 10.6726C19.2902 13.9809 17.2017 17.2119 13.9386 17.8894C10.6754 18.5668 7.47335 16.4341 6.78654 13.1259C6.09974 9.81761 8.18827 6.58657 11.4514 5.90913C14.7145 5.23168 17.9166 7.36438 18.6034 10.6726Z" fill="#5563DA"/>
<path d="M10.2822 12.3818C10.0061 12.3818 9.78223 12.158 9.78223 11.8818C9.78223 11.6057 10.0061 11.3818 10.2822 11.3818H15.2822C15.5584 11.3818 15.7822 11.6057 15.7822 11.8818C15.7822 12.158 15.5584 12.3818 15.2822 12.3818H10.2822Z" fill="white"/>
<path d="M12.2822 9.38184C12.2822 9.10569 12.5061 8.88184 12.7822 8.88184C13.0584 8.88184 13.2822 9.10569 13.2822 9.38184V14.3818C13.2822 14.658 13.0584 14.8818 12.7822 14.8818C12.5061 14.8818 12.2822 14.658 12.2822 14.3818V9.38184Z" fill="white"/>
</svg>
