<svg width="24" height="24" viewBox="0 0 24 24" fill="none" xmlns="http://www.w3.org/2000/svg">
<path d="M17.8065 10.6726C18.4934 13.9809 16.4048 17.2119 13.1417 17.8894C9.87854 18.5668 6.67647 16.4341 5.98967 13.1259C5.30286 9.81761 7.39139 6.58657 10.6545 5.90913C13.9177 5.23168 17.1197 7.36438 17.8065 10.6726Z" fill="#3CC376"/>
<path d="M11.5002 14.2683C11.3011 14.4675 10.9782 14.4675 10.7791 14.2683C10.5799 14.0692 10.5799 13.7463 10.7791 13.5472L14.3848 9.9415C14.5839 9.74236 14.9068 9.74236 15.1059 9.9415C15.3051 10.1406 15.3051 10.4635 15.1059 10.6626L11.5002 14.2683Z" fill="white"/>
<path d="M8.72884 12.6912C8.53612 12.4858 8.54635 12.1631 8.7517 11.9704C8.95705 11.7777 9.27976 11.7879 9.47248 11.9932L11.5662 14.2242L11.2564 14.515C11.0168 14.7398 10.6403 14.7279 10.4155 14.4883L8.72884 12.6912Z" fill="white"/>
</svg>
