<svg width="23" height="23" viewBox="0 0 23 23" fill="none" xmlns="http://www.w3.org/2000/svg">
<path d="M7.55381 17.7832H9.59704C9.77959 17.7832 9.94822 17.6817 10.0394 17.5169C10.1307 17.3521 10.1307 17.1491 10.0394 16.9843C9.94822 16.8195 9.77958 16.718 9.59704 16.718H7.55381C7.14755 16.7175 6.75793 16.549 6.47063 16.2495C6.18341 15.9499 6.02184 15.5437 6.02138 15.1201V9.5274H16.2376V10.06C16.2376 10.2504 16.3349 10.4262 16.493 10.5213C16.651 10.6164 16.8458 10.6164 17.0038 10.5213C17.1618 10.4262 17.2592 10.2504 17.2592 10.06V8.46212C17.2584 7.75603 16.9891 7.07907 16.5103 6.57982C16.0316 6.08057 15.3823 5.79977 14.7051 5.79895H14.1943V5.53263C14.1943 5.34228 14.097 5.16645 13.9389 5.07134C13.7809 4.97622 13.5861 4.97622 13.4281 5.07134C13.2701 5.16645 13.1727 5.34229 13.1727 5.53263V5.79895H9.08623V5.53263C9.08623 5.34228 8.98886 5.16645 8.83083 5.07134C8.6728 4.97622 8.47805 4.97622 8.32002 5.07134C8.16199 5.16645 8.06462 5.34229 8.06462 5.53263V5.79895H7.55381C6.87665 5.79978 6.22742 6.0806 5.74863 6.57982C5.26984 7.07904 5.00054 7.75603 4.99976 8.46212V15.1201C5.00055 15.8262 5.26987 16.5031 5.74863 17.0024C6.2274 17.5016 6.87665 17.7824 7.55381 17.7832ZM7.55381 6.86422H8.06462V7.13054C8.06462 7.32088 8.16199 7.49671 8.32002 7.59183C8.47805 7.68694 8.6728 7.68694 8.83083 7.59183C8.98886 7.49671 9.08623 7.32087 9.08623 7.13054V6.86422H13.1727V7.13054C13.1727 7.32088 13.2701 7.49671 13.4281 7.59183C13.5862 7.68694 13.7809 7.68694 13.9389 7.59183C14.097 7.49671 14.1943 7.32087 14.1943 7.13054V6.86422H14.7051C15.1114 6.86469 15.501 7.03316 15.7883 7.33266C16.0755 7.63227 16.2371 8.03851 16.2376 8.46212H6.02138C6.02183 8.03851 6.1834 7.63225 6.47063 7.33266C6.75796 7.03318 7.14755 6.8647 7.55381 6.86422Z" fill="#5563DA"/>
<path d="M17.0638 11.5126C16.8646 11.3052 16.5945 11.1885 16.3128 11.1885C16.0313 11.1885 15.7612 11.3052 15.562 11.5126L14.5659 12.5513L11.94 15.2885C11.7242 15.5138 11.5908 15.8109 11.5631 16.1281L11.4704 17.1934C11.4526 17.4003 11.5188 17.6054 11.653 17.7589C11.7873 17.9122 11.9772 17.9997 12.1763 18.0001C12.1977 18.0001 12.2195 18.0001 12.2412 17.9971L13.2628 17.9002C13.567 17.8712 13.8518 17.7321 14.0679 17.5069L16.5939 14.8736L17.6892 13.7314V13.7313C17.888 13.5234 17.9996 13.242 17.9996 12.9485C17.9996 12.6549 17.888 12.3734 17.6892 12.1656L17.0638 11.5126ZM13.3448 16.7532C13.2979 16.8021 13.236 16.8325 13.1699 16.8386L12.5217 16.9001L12.5804 16.2242C12.5865 16.1552 12.6155 16.0907 12.6624 16.0415L15.1884 13.4081L15.8708 14.1194L13.3448 16.7532ZM16.966 12.9772L16.5931 13.3663L15.9107 12.655L16.2839 12.2659H16.2838C16.3003 12.2517 16.3241 12.2517 16.3405 12.2659L16.966 12.9181C16.9815 12.9345 16.9815 12.9608 16.966 12.9772L16.966 12.9772Z" fill="#5563DA"/>
</svg>
