<svg width="36" height="36" viewBox="0 0 36 36" fill="none" xmlns="http://www.w3.org/2000/svg">
<g filter="url(#filter0_d_2055_6844)">
<circle cx="18" cy="17" r="14" fill="#F8F8F8"/>
<path d="M19.1554 13.0156L12.7802 19.6644C12.7482 19.698 12.725 19.7403 12.714 19.7858L12.0074 22.7436C11.9862 22.8326 12.0113 22.9273 12.0736 22.9923C12.1208 23.0415 12.185 23.0687 12.2507 23.0687C12.2708 23.0687 12.2914 23.0661 12.3115 23.0608L15.1477 22.3238C15.1919 22.3123 15.2321 22.2883 15.2641 22.2548L21.6398 15.6065L19.1554 13.0156Z" fill="#5563DA"/>
<path d="M23.2189 12.1109L22.5092 11.3708C22.0349 10.8762 21.2083 10.8766 20.7345 11.3708L19.8652 12.2773L22.3496 14.8681L23.2189 13.9616C23.4558 13.7146 23.5863 13.3859 23.5863 13.0363C23.5863 12.6866 23.4558 12.3579 23.2189 12.1109Z" fill="#5563DA"/>
</g>
<defs>
<filter id="filter0_d_2055_6844" x="0" y="0" width="36" height="36" filterUnits="userSpaceOnUse" color-interpolation-filters="sRGB">
<feFlood flood-opacity="0" result="BackgroundImageFix"/>
<feColorMatrix in="SourceAlpha" type="matrix" values="0 0 0 0 0 0 0 0 0 0 0 0 0 0 0 0 0 0 127 0" result="hardAlpha"/>
<feOffset dy="1"/>
<feGaussianBlur stdDeviation="2"/>
<feComposite in2="hardAlpha" operator="out"/>
<feColorMatrix type="matrix" values="0 0 0 0 0 0 0 0 0 0 0 0 0 0 0 0 0 0 0.25 0"/>
<feBlend mode="normal" in2="BackgroundImageFix" result="effect1_dropShadow_2055_6844"/>
<feBlend mode="normal" in="SourceGraphic" in2="effect1_dropShadow_2055_6844" result="shape"/>
</filter>
</defs>
</svg>
