<svg width="12" height="12" viewBox="0 0 12 12" fill="none" xmlns="http://www.w3.org/2000/svg">
<path d="M5.99992 0C2.69151 0 0 2.69163 0 6C0 9.30837 2.69166 12 6.00008 12C9.30849 12 12 9.30837 12 6C12 2.69163 9.30849 0 5.99992 0ZM6.53247 9.51192C6.36688 9.65924 6.17067 9.73391 5.94962 9.73391C5.72654 9.73391 5.52892 9.66049 5.36208 9.51552C5.18711 9.36383 5.09854 9.15372 5.09854 8.89127C5.09854 8.66007 5.18086 8.46043 5.34349 8.29796C5.50596 8.13534 5.70701 8.05301 5.94103 8.05301C6.17411 8.05301 6.3761 8.13487 6.54138 8.29624C6.70806 8.45902 6.79242 8.65929 6.79242 8.89127C6.79242 9.14997 6.70494 9.35883 6.53247 9.51192ZM6.76118 4.60263L6.5759 6.72594C6.55372 7.00495 6.50498 7.2185 6.42734 7.37721C6.32876 7.57873 6.14989 7.68949 5.92369 7.68949C5.69279 7.68949 5.5147 7.57951 5.42253 7.37956C5.35224 7.2274 5.30443 7.01135 5.27616 6.71907L5.13775 4.64763C5.11166 4.24271 5.09854 3.94699 5.09854 3.76765C5.09854 3.47881 5.1793 3.24589 5.33896 3.07545C5.50174 2.90127 5.71591 2.81285 5.97555 2.81285C6.38313 2.81285 6.5659 3.01219 6.64745 3.17934C6.74493 3.37961 6.79242 3.64955 6.79242 4.00479C6.79242 4.19975 6.78196 4.40096 6.76118 4.60263Z" fill="#F1473A"/>
</svg>
