<svg width="12" height="12" viewBox="0 0 12 12" fill="none" xmlns="http://www.w3.org/2000/svg">
<path d="M6.59984 6C6.60078 6.15984 6.53797 6.31328 6.42609 6.42609L4.62578 8.22547C4.37422 8.44172 3.99609 8.41187 3.77984 8.16047C3.58812 7.93578 3.58812 7.60437 3.77984 7.37969L5.40016 5.75391V3C5.40016 2.66875 5.66875 2.40016 6 2.40016C6.33125 2.40016 6.59984 2.66875 6.59984 3V6ZM6 0C2.68672 0 0 2.68578 0 6C0 9.31328 2.68672 12 6 12C9.31422 12 12 9.31328 12 6C12 2.68578 9.31422 0 6 0Z" fill="#F9AD1E"/>
</svg>
