<svg width="16" height="16" viewBox="0 0 16 16" fill="none" xmlns="http://www.w3.org/2000/svg">
<g id="settings_24px">
<path id="icon/action/settings_24px" fill-rule="evenodd" clip-rule="evenodd" d="M13.0015 8.00016C13.0015 8.22683 12.9815 8.44016 12.9548 8.6535L14.3615 9.7535C14.4881 9.8535 14.5215 10.0335 14.4415 10.1802L13.1081 12.4868C13.0481 12.5935 12.9348 12.6535 12.8215 12.6535C12.7815 12.6535 12.7415 12.6468 12.7015 12.6335L11.0415 11.9668C10.6948 12.2268 10.3215 12.4535 9.91481 12.6202L9.66147 14.3868C9.64147 14.5468 9.50147 14.6668 9.33481 14.6668H6.66814C6.50147 14.6668 6.36147 14.5468 6.34147 14.3868L6.08814 12.6202C5.68147 12.4535 5.30814 12.2335 4.96147 11.9668L3.30147 12.6335C3.26814 12.6468 3.22814 12.6535 3.18814 12.6535C3.06814 12.6535 2.95481 12.5935 2.89481 12.4868L1.56147 10.1802C1.48147 10.0335 1.51481 9.8535 1.64147 9.7535L3.04814 8.6535C3.02147 8.44016 3.00147 8.22016 3.00147 8.00016C3.00147 7.78016 3.02147 7.56016 3.04814 7.34683L1.64147 6.24683C1.51481 6.14683 1.47481 5.96683 1.56147 5.82016L2.89481 3.5135C2.95481 3.40683 3.06814 3.34683 3.18147 3.34683C3.22147 3.34683 3.26147 3.3535 3.30147 3.36683L4.96147 4.0335C5.30814 3.7735 5.68147 3.54683 6.08814 3.38016L6.34147 1.6135C6.36147 1.4535 6.50147 1.3335 6.66814 1.3335H9.33481C9.50147 1.3335 9.64147 1.4535 9.66147 1.6135L9.91481 3.38016C10.3215 3.54683 10.6948 3.76683 11.0415 4.0335L12.7015 3.36683C12.7348 3.3535 12.7748 3.34683 12.8148 3.34683C12.9348 3.34683 13.0481 3.40683 13.1081 3.5135L14.4415 5.82016C14.5215 5.96683 14.4881 6.14683 14.3615 6.24683L12.9548 7.34683C12.9815 7.56016 13.0015 7.7735 13.0015 8.00016ZM11.6681 8.00016C11.6681 7.86016 11.6615 7.72016 11.6348 7.5135L11.5415 6.76016L12.1348 6.2935L12.8481 5.72683L12.3815 4.92016L11.5348 5.26016L10.8281 5.54683L10.2215 5.08016C9.95481 4.88016 9.68814 4.72683 9.40147 4.60683L8.69481 4.32016L8.58814 3.56683L8.46147 2.66683H7.53481L7.40147 3.56683L7.29481 4.32016L6.58814 4.60683C6.31481 4.72016 6.04147 4.88016 5.75481 5.0935L5.15481 5.54683L4.46147 5.26683L3.61481 4.92683L3.14814 5.7335L3.86814 6.2935L4.46147 6.76016L4.36814 7.5135C4.34814 7.7135 4.33481 7.86683 4.33481 8.00016C4.33481 8.1335 4.34814 8.28683 4.36814 8.4935L4.46147 9.24683L3.86814 9.7135L3.14814 10.2735L3.61481 11.0802L4.46147 10.7402L5.16814 10.4535L5.77481 10.9202C6.04147 11.1202 6.30814 11.2735 6.59481 11.3935L7.30147 11.6802L7.40814 12.4335L7.53481 13.3335H8.46814L8.60147 12.4335L8.70814 11.6802L9.41481 11.3935C9.68814 11.2802 9.96147 11.1202 10.2481 10.9068L10.8481 10.4535L11.5415 10.7335L12.3881 11.0735L12.8548 10.2668L12.1348 9.70683L11.5415 9.24016L11.6348 8.48683C11.6548 8.28683 11.6681 8.14016 11.6681 8.00016ZM8.00147 5.3335C6.52814 5.3335 5.33481 6.52683 5.33481 8.00016C5.33481 9.4735 6.52814 10.6668 8.00147 10.6668C9.47481 10.6668 10.6681 9.4735 10.6681 8.00016C10.6681 6.52683 9.47481 5.3335 8.00147 5.3335ZM6.66814 8.00016C6.66814 8.7335 7.26814 9.3335 8.00147 9.3335C8.73481 9.3335 9.33481 8.7335 9.33481 8.00016C9.33481 7.26683 8.73481 6.66683 8.00147 6.66683C7.26814 6.66683 6.66814 7.26683 6.66814 8.00016Z"  />
</g>
</svg>
