<svg width="274" height="33" viewBox="0 0 274 33" fill="none" xmlns="http://www.w3.org/2000/svg">
<path d="M160.419 21.3891L143.639 0.244981L143.585 0.19043H137.049V32.5612H143.628V11.3626L160.408 32.5067L160.463 32.5612H166.998V0.19043H160.419V21.3891Z" fill="black"/>
<path d="M6.73661 25.9607H0.157715V32.5396H6.73661V25.9607Z" fill="#0092FF"/>
<path d="M14.3305 0.179688H0.168945V19.4145H6.72602V6.75859H14.145C20.953 6.75859 25.3608 10.5663 25.3608 16.3815C25.3608 22.1966 20.953 26.0043 14.145 26.0043H13.3049V32.5723H14.3305C24.8371 32.5723 32.0051 26.0916 32.0051 16.3815C32.0051 6.6713 24.8262 0.179688 14.3305 0.179688Z" fill="black"/>
<path d="M269.249 4.8166C266.292 1.87083 262.201 0.256104 257.717 0.256104C253.233 0.256104 249.13 1.88174 246.174 4.83842C243.217 7.79511 241.591 11.8974 241.591 16.3815C241.591 20.8656 243.217 24.9679 246.174 27.9246C249.13 30.8813 253.222 32.5069 257.717 32.5069C262.212 32.5069 266.303 30.8813 269.249 27.9355C272.195 24.9897 273.831 20.8765 273.831 16.3706C273.831 11.8646 272.206 7.77329 269.249 4.8166ZM250.876 9.19162C252.622 7.36961 255.055 6.36586 257.717 6.36586C260.379 6.36586 262.801 7.36961 264.557 9.19162C266.314 11.0136 267.285 13.5666 267.285 16.3706C267.285 19.1745 266.314 21.7275 264.557 23.5496C262.801 25.3716 260.379 26.3753 257.717 26.3753C255.055 26.3753 252.622 25.3716 250.876 23.5496C249.13 21.7275 248.148 19.1745 248.148 16.3706C248.148 13.5666 249.119 11.0245 250.876 9.19162Z" fill="black"/>
<path d="M91.0625 0.845255C91.3134 0.910716 91.5535 0.987088 91.7935 1.06346C91.5535 0.976177 91.3134 0.910716 91.0625 0.845255ZM89.8078 0.550677C89.5678 0.507036 89.3169 0.463395 89.0659 0.430664C89.3278 0.474305 89.5678 0.507036 89.8078 0.550677Z" fill="black"/>
<path d="M98.4812 27.2261L98.6012 27.3571C98.4157 27.5644 98.2193 27.7717 98.023 27.968C95.4045 30.5865 91.8586 32.1685 87.9528 32.4849C87.4727 32.5176 86.9818 32.5394 86.4908 32.5394C85.9998 32.5394 85.5089 32.5176 85.0397 32.4849C84.5488 32.4413 84.0687 32.3867 83.5886 32.3103C83.3486 32.2667 83.1195 32.2231 82.8795 32.1794C82.6504 32.1358 82.4103 32.0812 82.1812 32.0158L81.9194 31.9503C81.5812 31.8521 81.232 31.7539 80.9047 31.6448L80.6538 31.5575C80.4574 31.4812 80.2501 31.4048 80.0537 31.3284C79.9228 31.2739 79.7919 31.2193 79.6609 31.1648C79.53 31.1102 79.3991 31.0447 79.2791 30.9902C77.6753 30.2374 76.2133 29.2118 74.9695 27.968C72.0128 25.0114 70.3872 20.8982 70.3872 16.4141C70.3872 11.9299 72.0237 7.81676 74.9695 4.86007C76.6934 3.14716 78.7881 1.87066 81.1011 1.11785L81.3302 1.04148C81.603 0.954193 81.8757 0.877821 82.1485 0.81236C82.334 0.768719 82.5194 0.725078 82.7049 0.681437C83.305 0.550513 83.916 0.45232 84.5269 0.375948C84.7779 0.354128 85.0179 0.321397 85.2688 0.310487C85.6834 0.277756 86.098 0.266846 86.5235 0.266846H86.8399H87.0145C87.1127 0.266846 87.2 0.266846 87.2981 0.277756C87.3636 0.277756 87.44 0.277756 87.5054 0.288667L87.7346 0.299577H87.7782C88.0073 0.321397 88.2364 0.332308 88.4655 0.365038C88.5856 0.375949 88.6947 0.386859 88.8147 0.40868L89.1093 0.452321C89.3602 0.485052 89.6002 0.528693 89.8512 0.572334C90.0257 0.605065 90.1894 0.637796 90.353 0.681437C90.5167 0.725078 90.6912 0.757808 90.8549 0.80145L91.1058 0.866911C91.3568 0.932373 91.5968 1.00875 91.8368 1.08512C94.1825 1.82702 96.31 3.11443 98.0557 4.84916C98.2739 5.06737 98.4812 5.29648 98.6885 5.5256L94.6844 9.37693L94.6189 9.43148L94.0298 10.0206C93.8116 9.73697 93.5825 9.46421 93.3315 9.20236C91.575 7.38035 89.1529 6.3766 86.4908 6.3766C84.0251 6.3766 81.7557 7.23851 80.0428 8.80959L79.9883 8.86414C79.8792 8.97325 79.7591 9.08235 79.65 9.19145C77.8935 11.0244 76.9225 13.5774 76.9225 16.3813C76.9225 19.1853 77.8935 21.7492 79.65 23.5712C79.7482 23.6694 79.8464 23.7785 79.9555 23.8767C81.6794 25.5132 83.9814 26.397 86.4908 26.397C89.1529 26.397 91.575 25.4041 93.3315 23.5712C93.5716 23.3203 93.8007 23.0584 94.008 22.7747L97.4447 26.1788L97.4993 26.2442L98.4812 27.2261Z" fill="black"/>
<path d="M74.9477 27.9136C76.2024 29.1683 77.6644 30.1829 79.2573 30.9357C77.6535 30.1938 76.1915 29.1683 74.9477 27.9136C72.0238 25.0005 70.409 20.9746 70.3545 16.5778C70.3545 16.5233 70.3545 16.4796 70.3545 16.4251C70.3545 16.3596 70.3545 16.2832 70.3545 16.2178C70.3872 11.7882 72.0238 7.75139 74.9368 4.82743C76.6607 3.11452 78.7555 1.83801 81.0685 1.08521C78.7664 1.83801 76.6607 3.11452 74.9368 4.82743C71.9801 7.78412 70.3545 11.8864 70.3545 16.3705C70.3545 20.8546 71.991 24.9569 74.9477 27.9136Z" fill="black"/>
<path d="M80.894 31.6013C81.2323 31.7104 81.5706 31.8195 81.9088 31.9068C81.5706 31.8195 81.2323 31.7104 80.894 31.6013Z" fill="black"/>
<path d="M81.2974 1.01964C81.5701 0.932361 81.8429 0.855989 82.1157 0.790527C81.8429 0.866899 81.5701 0.943271 81.2974 1.01964Z" fill="black"/>
<path d="M82.1812 31.9722C82.4103 32.0267 82.6394 32.0813 82.8794 32.1358C82.6394 32.0813 82.4103 32.0267 82.1812 31.9722Z" fill="black"/>
<path d="M83.5778 32.2667C83.3378 32.223 83.1087 32.1794 82.8687 32.1357C83.1087 32.1794 83.3487 32.223 83.5778 32.2667Z" fill="black"/>
<path d="M173.577 6.73662H184.52V32.4849H191.099V6.73662H202.042V0.157715H173.577V6.73662Z" fill="black"/>
<path d="M235.002 11.7553C235.002 5.07823 229.623 0.19043 222.498 0.19043H208.621V32.5721H215.199V23.222H220.207C220.6 23.222 221.015 23.222 221.418 23.1893L227.714 32.5721H235.002L227.997 21.9564C232.514 20.1781 235.002 16.4358 235.002 11.7553ZM215.199 6.75842H222.215C228.434 6.75842 228.434 10.9261 228.434 11.7444C228.434 12.6063 228.434 16.6322 222.215 16.6322H215.199V6.75842Z" fill="black"/>
<path d="M45.152 19.6326H57.2078V13.0646H45.152V6.76934H63.7213V0.157715H38.584V32.5394H63.7758V25.9823H45.152V19.6326Z" fill="black"/>
<path d="M111.846 19.6326H123.902V13.0646H111.846V6.76934H130.416V0.157715H105.278V32.5394H130.47V25.9823H111.846V19.6326Z" fill="black"/>
</svg>
