<svg xmlns="http://www.w3.org/2000/svg" width="303.593" height="61" viewBox="0 0 80.326 16.14" xmlns:v="https://vecta.io/nano"><g fill="#004a7f"><path d="M14.689 15.848h2.707l2.122-7.907h-2.679zm13.876 0h2.707l2.122-7.907h-2.707zm13.901 0h2.68l2.097-7.907h-2.707zm0 0"/><path d="M26.044 10.647h2.707c.371-1.777-.769-2.679-3.423-2.679-3.078 0-5.147 1.512-5.863 4.086-.611 2.387.637 3.82 3.527 3.82 2.919 0 4.643-.902 5.36-2.945h-2.707c-.398.902-1.087 1.353-2.042 1.353-1.301 0-1.831-.796-1.433-2.307.424-1.566 1.433-2.441 2.733-2.441.849 0 1.22.371 1.14 1.114m13.904-.001h2.707c.371-1.777-.797-2.679-3.45-2.679-3.051 0-5.147 1.512-5.836 4.086-.637 2.387.61 3.82 3.502 3.82s4.616-.902 5.359-2.945h-2.705c-.373.902-1.089 1.353-2.043 1.353-1.3 0-1.83-.796-1.407-2.307.399-1.566 1.407-2.441 2.707-2.441.85 0 1.248.371 1.168 1.114"/></g><path d="M4.262 3.565c3.608-3.582 7.986-4.511 9.737-2.07s.212 7.376-3.396 10.957C6.995 16.06 2.617 16.989.839 14.521-.885 12.054.655 7.145 4.262 3.565" fill="#f06321"/><path d="M6.65 1.654c-.398.292-.796.637-1.193 1.009C2.299 5.792.972 10.09 2.538 12.24c1.618 2.148 5.491 1.353 8.728-1.805 1.752-1.697 2.919-3.661 3.396-5.491.133-1.353-.053-2.547-.663-3.449-1.379-1.91-4.351-1.752-7.349.159" fill="#ae282e"/><path d="M11.213 2.052v.08c-.026.451-.292 1.008-.769 1.485-.716.69-1.671.955-2.07.558-.451-.424-.184-1.354.532-2.097.743-.716 1.697-.955 2.095-.53a.68.68 0 0 1 .212.504M8.455 14.229c-1.699 1.273-3.449 1.911-5.148 1.646.716.027 1.301-.77 1.778-1.831.477-1.087.743-2.095.981-3.051.345-1.512.371-2.573.186-2.811-.292-.373-.928-.292-1.672.133-.371.212-.849.08-.29-.61.583-.69 2.838-2.335 3.633-2.6.903-.239 1.911.106 1.566 1.087-.24.716-3.37 8.887-1.034 8.039" fill="#fff"/><path d="M51.302 14.6l.61-2.281h1.485v-1.22h-1.14l.53-1.937h.61V7.967H51.38l-2.095 7.907h4.112V14.6zm2.095-2.281h.292c1.354 0 1.99.239 1.725 1.167-.212.822-.875 1.114-2.017 1.114v1.274c1.115 0 1.937-.106 2.76-.664.557-.371.956-.928 1.115-1.565.29-1.087-.187-1.831-1.433-1.989 1.167-.212 1.911-.823 2.148-1.778.212-.716.026-1.247-.477-1.591-.424-.292-1.14-.32-2.095-.32h-2.017v1.195h1.036c1.273 0 1.857.159 1.671.955-.239.769-.928.983-2.228.983h-.479zm7.429-1.989v.98a.92.92 0 0 0-.477.558h-1.591c.264-.769.981-1.301 2.069-1.538m0 4.643a2.26 2.26 0 0 1-.61.08c-.716 0-1.034-.293-.875-.823.159-.61.637-.822 1.485-.902V12.4c-1.831.133-2.839.61-3.157 1.803-.292 1.087.399 1.805 1.831 1.805.477 0 .928-.08 1.326-.239zm1.54-1.646l-.027.08c-.212.822-.77 1.38-1.513 1.566v.796a3.41 3.41 0 0 0 1.061-.663l-.133.769h1.593l.265-1.221.61-2.228a2.02 2.02 0 0 0 .08-.557v-.265c-.053-.903-.822-1.38-2.254-1.38-.452 0-.85.053-1.221.107v.98c.239-.131.53-.184.903-.184.821 0 1.14.37.9 1.167l-.025.08h-.85l-.928.027v.928zm2.412 2.548h1.619l.769-2.839c.265-1.008 1.193-1.725 2.175-1.725.955 0 1.301.558.983 1.672l-.77 2.892h1.619l.902-3.37c.371-1.432-.345-2.282-1.936-2.282-1.036 0-1.858.371-2.574 1.114l.186-.981h-1.618l-.32 1.619zm7.827 0h1.593l.796-2.972 2.15 2.972h2.201l-2.441-3.157 3.29-2.362h-2.042L75.1 12.558l1.22-4.59h-1.591zm0 0" fill="#004a7f"/></svg>