<svg width="300" height="108" viewBox="0 0 300 108" fill="none" xmlns="http://www.w3.org/2000/svg">
<path d="M219.766 38.6274C220.423 38.874 220.834 39.3671 221.327 39.8602C227.738 46.5995 234.231 53.3388 240.641 60.078C240.641 53.3388 240.641 46.5173 240.641 39.778C242.367 39.778 244.093 39.778 245.819 39.778C245.983 40.3533 246.065 41.0108 246.065 41.6683C246.065 51.9416 246.065 62.2971 246.065 72.5703C245.901 72.6525 245.654 72.7347 245.572 72.8169C238.669 65.831 232.011 58.5987 225.108 51.5307C225.026 58.2699 225.19 65.0092 225.026 71.8307C223.3 71.7485 221.492 71.8307 219.766 71.8307C219.684 60.6533 219.684 49.6404 219.766 38.6274Z" fill="white"/>
<path d="M82.1039 39.4492C86.131 37.9699 90.4869 39.0383 94.4318 40.2711C94.514 42.8189 94.4318 45.2845 94.4318 47.8322C92.0484 46.3529 89.4185 44.8735 86.4598 44.7913C84.9804 44.7092 83.1723 45.6132 83.1723 47.2569C83.0902 48.4897 83.9942 49.3938 84.9804 49.9691C88.5144 52.1881 92.5416 53.7496 95.2537 56.9549C98.5412 61.4751 96.8152 68.6253 91.8019 71.1731C87.1995 73.6387 81.7752 72.6524 77.0084 71.1731C76.7618 68.3788 76.5975 65.5023 76.4331 62.7079C79.1452 64.4338 82.1861 65.9954 85.4736 65.9132C86.8707 65.831 88.5145 65.4201 89.2541 64.0229C89.9938 62.7901 89.4185 61.1464 88.3501 60.3245C85.227 57.859 81.2821 56.6262 78.5699 53.6675C76.844 51.8594 75.94 49.2294 76.1865 46.6816C76.4331 43.3942 78.9809 40.5177 82.1039 39.4492Z" fill="white"/>
<path d="M197.247 42.3257C197.904 41.0929 198.315 39.6958 199.219 38.5452C204.315 49.5581 209.328 60.6532 214.341 71.6662C212.451 71.6662 210.479 71.6662 208.588 71.6662C207.684 69.7759 206.863 67.8856 206.041 65.9953C201.274 65.9953 196.425 65.9953 191.658 65.9953C190.836 67.8856 190.014 69.7759 189.028 71.6662C187.138 71.6662 185.33 71.6662 183.439 71.6662C188.042 61.9682 192.562 52.1059 197.247 42.3257ZM198.48 50.2978C196.836 53.9962 195.274 57.6945 193.548 61.3929C197 61.5573 200.452 61.3929 203.904 61.4751C202.26 57.6124 200.534 53.6674 198.89 49.8047C198.808 49.8869 198.644 50.2156 198.48 50.2978Z" fill="white"/>
<path d="M15.7798 39.7781C18.7385 39.7781 21.7794 39.7781 24.7381 39.7781C27.0393 43.0655 29.1761 46.5995 31.4773 49.9692C33.8607 46.5995 36.3263 43.1477 38.7919 39.8603C41.4219 39.8603 44.0518 39.8603 46.6818 39.8603C42.7368 45.4489 38.381 50.791 34.5182 56.4619C34.436 61.5574 34.5182 66.653 34.5182 71.7485C32.0526 71.7485 29.5049 71.7485 27.0393 71.7485C27.0393 66.653 27.1215 61.6396 26.9571 56.5441C23.2587 50.8732 19.396 45.4489 15.7798 39.7781Z" fill="white"/>
<path d="M49.8872 71.6663C49.8872 61.0643 49.8872 50.3801 49.8872 39.7781C56.3799 39.7781 62.7904 39.7781 69.2831 39.7781C69.2831 41.9149 69.2831 44.1339 69.2831 46.2708C65.256 46.4352 61.1467 46.1064 57.1196 46.4352C57.1196 48.3254 57.1196 50.2979 57.1196 52.1882C60.5714 52.1882 64.0232 52.106 67.5572 52.1882C67.475 54.325 67.5572 56.4619 67.5572 58.6809C64.1054 58.6809 60.6536 58.6809 57.1196 58.6809C57.1196 60.8177 57.1196 62.8724 57.1196 65.0092C61.2289 65.0092 65.3382 65.0092 69.3653 65.0092C69.3653 67.2282 69.3653 69.5295 69.3653 71.7485C62.9548 71.6663 56.3799 71.6663 49.8872 71.6663Z" fill="white"/>
<path d="M159.112 39.7781C163.139 39.8603 167.167 39.6137 171.194 40.0246C173.824 40.3534 176.618 41.3396 178.015 43.723C179.494 46.353 179.494 49.9692 177.522 52.3526C176.618 53.421 175.385 53.9963 174.152 54.6538C176.454 55.3113 178.508 56.955 179.248 59.3384C180.152 62.2149 179.905 65.5845 178.015 68.0501C175.96 70.6801 172.426 71.4197 169.303 71.6663C165.934 71.7485 162.482 71.6663 159.112 71.7485C159.112 61.0643 159.112 50.4623 159.112 39.7781ZM164.372 44.0518C164.372 47.0105 164.372 50.0513 164.372 53.0922C166.756 53.01 169.386 53.421 171.522 52.106C174.07 50.7088 174.317 46.2708 171.687 44.8736C169.468 43.723 166.838 44.1339 164.372 44.0518ZM164.372 57.3659C164.372 60.6534 164.372 64.023 164.372 67.3104C166.756 67.2283 169.386 67.6392 171.687 66.6529C174.728 65.2558 175.139 60.4068 172.426 58.5165C170.125 56.7906 167.084 57.4481 164.372 57.3659Z" fill="white"/>
<path d="M256.092 71.7486C256.092 61.1466 256.01 50.4624 256.175 39.8604C257.983 39.8604 259.709 39.8604 261.517 39.8604C261.599 44.6271 261.517 49.3939 261.517 54.1607C266.037 49.3939 270.475 44.6271 274.995 39.8604C277.132 39.8604 279.269 39.8604 281.323 39.8604C276.557 45.0381 271.708 50.0514 266.941 55.2292C272.283 60.7356 277.543 66.3243 282.885 71.7486C280.502 71.8308 278.118 71.7486 275.817 71.7486C271.05 66.7352 266.366 61.804 261.599 56.7907C261.599 61.7219 261.599 66.7352 261.599 71.6664C259.708 71.7486 257.9 71.6664 256.092 71.7486Z" fill="white"/>
<path d="M160.263 6.16396C161.824 4.10931 163.222 1.97247 164.865 0C148.592 28.683 132.484 57.4481 116.293 86.2133C112.266 93.4457 108.157 100.678 104.13 107.91C103.801 107.746 103.472 107.5 103.226 107.171C97.5549 101.336 91.8019 95.5825 86.0488 89.7473C90.0759 89.6651 94.1853 89.7473 98.2124 89.7473C118.923 61.9684 139.552 34.1073 160.263 6.16396Z" fill="#C4261B"/>
<path d="M0 23.8339C48.4898 23.7517 96.8975 23.8339 145.387 23.8339C129.279 45.1201 113.253 66.4885 97.0618 87.6925C64.6805 87.6925 32.3813 87.6925 0 87.6925C0 66.4063 0 45.1201 0 23.8339ZM82.104 39.4493C78.9809 40.5177 76.4331 43.3942 76.2688 46.7638C76.0222 49.3116 76.9262 51.9416 78.6521 53.7496C81.3643 56.7083 85.3914 57.9411 88.4323 60.4067C89.5007 61.2286 90.076 62.8723 89.3363 64.1051C88.6789 65.5023 86.953 65.9132 85.5558 65.9954C82.2683 66.0776 79.2275 64.4339 76.5153 62.7901C76.5975 65.5845 76.8441 68.461 77.0906 71.2553C81.7752 72.7347 87.2817 73.7209 91.8841 71.2553C96.8153 68.7075 98.6234 61.5573 95.3359 57.0371C92.6238 53.7496 88.5145 52.1881 85.0627 50.0513C84.1586 49.476 83.1724 48.4897 83.2546 47.3391C83.2546 45.6954 85.0627 44.7914 86.542 44.8735C89.4185 44.9557 92.0485 46.4351 94.5141 47.9144C94.5141 45.3667 94.5141 42.9011 94.5141 40.3533C90.5691 39.0383 86.2133 37.9699 82.104 39.4493ZM15.7797 39.778C19.3959 45.4488 23.2587 50.8731 26.9571 56.4618C27.1214 61.4751 26.9571 66.5707 27.0392 71.6662C29.5048 71.6662 32.0526 71.6662 34.5182 71.6662C34.5182 66.5707 34.436 61.4751 34.5182 56.3796C38.3809 50.7088 42.6546 45.3667 46.6817 39.778C44.0518 39.778 41.4218 39.778 38.7919 39.778C36.3263 43.1476 33.8607 46.5173 31.4773 49.8869C29.1761 46.5173 27.0392 43.0655 24.738 39.6958C21.7793 39.8602 18.7384 39.778 15.7797 39.778ZM49.887 71.6662C56.3797 71.6662 62.9546 71.6662 69.4473 71.6662C69.4473 69.4472 69.4473 67.146 69.4473 64.927C65.338 64.8448 61.2287 64.927 57.2016 64.927C57.2016 62.7901 57.2016 60.7355 57.2016 58.5986C60.6534 58.5986 64.1052 58.5986 67.6392 58.5986C67.6392 56.4618 67.6392 54.2428 67.6392 52.1059C64.1874 52.0237 60.7356 52.1059 57.2016 52.1059C57.2016 50.2156 57.2016 48.2432 57.2016 46.3529C61.2287 46.1063 65.338 46.3529 69.3651 46.1885C69.2829 44.0517 69.3651 41.8327 69.3651 39.6958C62.8724 39.6958 56.4619 39.6958 49.9692 39.6958C49.887 50.4622 49.887 61.0642 49.887 71.6662Z" fill="#005192"/>
<path d="M142.757 42.3258C146.291 36.1618 149.496 29.8335 153.113 23.7517C202.013 23.7517 250.996 23.8339 299.897 23.7517C300.061 45.0379 299.979 66.4063 299.979 87.6925C239.244 87.6925 178.508 87.6925 117.772 87.6925C126.073 72.4881 134.456 57.448 142.757 42.3258ZM219.765 38.6274C219.683 49.6404 219.765 60.6533 219.765 71.6662C221.491 71.6662 223.299 71.5841 225.025 71.6662C225.19 64.927 225.025 58.1877 225.108 51.3663C232.011 58.4343 238.668 65.6667 245.572 72.6525C245.736 72.5703 245.983 72.4881 246.065 72.4059C246.065 62.1326 246.065 51.7772 246.065 41.5039C246.065 40.8464 245.983 40.2711 245.818 39.6136C244.093 39.6958 242.367 39.6136 240.641 39.6136C240.641 46.3529 240.641 53.1744 240.641 59.9136C234.23 53.1744 227.738 46.4351 221.327 39.6958C220.834 39.3671 220.423 38.874 219.765 38.6274ZM197.246 42.3258C192.644 52.1059 188.042 61.9683 183.357 71.6662C185.247 71.6662 187.055 71.6662 188.946 71.6662C189.85 69.776 190.672 67.8857 191.576 65.9954C196.342 65.9954 201.191 65.9954 205.958 65.9954C206.78 67.8857 207.602 69.776 208.506 71.6662C210.396 71.5841 212.369 71.6662 214.259 71.6662C209.246 60.6533 204.314 49.5582 199.137 38.5452C198.315 39.6958 197.822 41.093 197.246 42.3258ZM159.112 39.778C159.112 50.38 159.112 61.0642 159.112 71.6662C162.482 71.6662 165.934 71.7484 169.303 71.584C172.426 71.4197 175.96 70.5978 178.015 67.9679C179.905 65.5023 180.152 62.1326 179.248 59.2561C178.508 56.9549 176.453 55.229 174.152 54.5715C175.385 53.9962 176.618 53.4209 177.522 52.2703C179.494 49.8869 179.494 46.2707 178.015 43.6408C176.618 41.2574 173.823 40.1889 171.193 39.9424C167.166 39.6136 163.139 39.8602 159.112 39.778ZM256.092 71.7484C257.9 71.7484 259.708 71.7484 261.516 71.7484C261.516 66.8173 261.516 61.8039 261.516 56.8727C266.283 61.8039 271.05 66.8173 275.734 71.8306C278.118 71.8306 280.501 71.8306 282.802 71.8306C277.46 66.3242 272.2 60.8177 266.858 55.3112C271.625 50.2157 276.474 45.1201 281.241 39.9424C279.104 39.9424 276.967 39.9424 274.912 39.9424C270.392 44.7092 265.954 49.476 261.434 54.2428C261.434 49.476 261.516 44.7092 261.434 39.9424C259.626 39.9424 257.9 39.9424 256.092 39.9424C256.01 50.4622 256.092 61.0642 256.092 71.7484Z" fill="#005192"/>
<path d="M164.372 44.0519C166.838 44.1341 169.385 43.7232 171.687 44.8738C174.399 46.2709 174.07 50.709 171.522 52.1062C169.385 53.4211 166.755 53.0102 164.372 53.0924C164.372 50.0515 164.454 47.0928 164.372 44.0519Z" fill="#005192"/>
<path d="M198.48 50.298C198.562 50.1336 198.808 49.887 198.89 49.7227C200.534 53.5854 202.26 57.5303 203.904 61.3931C200.452 61.3931 197 61.4753 193.548 61.3109C195.274 57.7769 196.836 53.9963 198.48 50.298Z" fill="#005192"/>
<path d="M164.372 57.366C167.084 57.5304 170.043 56.7907 172.426 58.4344C175.138 60.3247 174.728 65.2559 171.687 66.5708C169.385 67.6392 166.838 67.1461 164.372 67.2283C164.372 63.9409 164.454 60.6534 164.372 57.366Z" fill="#005192"/>
</svg>
