<svg width="20" height="20" viewBox="0 0 20 20" fill="none" xmlns="http://www.w3.org/2000/svg">
<g clip-path="url(#clip0_9_3)">
<g filter="url(#filter0_dd_9_3)">
<path d="M0.878093 5.97471C1.52265 2.85394 3.50588 1.11578 6.59937 0.590691C8.88618 0.202614 11.1738 0.1977 13.4568 0.601589C16.642 1.16505 18.5568 3.00458 19.1668 6.17253C19.6381 8.62082 19.6455 11.0952 19.1594 13.5412C18.5073 16.6403 16.4729 18.5534 13.3909 19.0765C11.104 19.4646 8.81639 19.4695 6.53341 19.0656C3.34822 18.5021 1.4249 16.5708 0.814944 13.4029C0.319625 10.9384 0.367285 8.44838 0.878093 5.97467V5.97471Z" fill="black"/>
</g>
<path d="M0.878093 5.97471C1.52265 2.85394 3.50588 1.11578 6.59937 0.590691C8.88618 0.202614 11.1738 0.1977 13.4568 0.601589C16.642 1.16505 18.5568 3.00458 19.1668 6.17253C19.6381 8.62082 19.6455 11.0952 19.1594 13.5412C18.5073 16.6403 16.4729 18.5534 13.3909 19.0765C11.104 19.4646 8.81639 19.4695 6.53341 19.0656C3.34822 18.5021 1.4249 16.5708 0.814944 13.4029C0.319625 10.9384 0.367285 8.44838 0.878093 5.97467V5.97471Z" fill="#5563DA"/>
<path fill-rule="evenodd" clip-rule="evenodd" d="M14.3459 10.8629L14.3423 10.8125V9.94304H13.5621V10.6067C13.4973 10.9182 13.2993 10.9793 12.743 11.1075C10.494 11.6258 10.3578 11.8828 10.86 14.1524C11.0089 14.8255 10.6047 15.3324 10.0545 15.3383C9.50426 15.3324 9.10001 14.8255 9.24894 14.1524C9.75116 11.8828 9.46448 11.5401 7.2055 11.068C6.77571 10.9781 6.54579 10.8417 6.44158 10.5349V5.27064H13.5621V7.87748H7.73235V8.66099H13.5621C13.993 8.66099 14.3423 8.31022 14.3423 7.87748V5.27064C14.3423 4.83795 13.993 4.48718 13.5621 4.48718H6.44158C6.01073 4.48718 5.66145 4.83795 5.66145 5.27064V10.882C5.64809 11.0757 5.70826 11.2237 5.80775 11.3377C5.94762 11.5335 6.17473 11.662 6.43231 11.665C6.90235 11.7985 7.30886 11.8506 7.84856 12.0327C8.51252 12.2566 8.75962 12.3789 8.63771 13.2397C8.59899 13.5133 8.53324 13.7829 8.46933 14.0517C8.27082 14.8863 8.42694 15.3673 9.04401 15.7976C9.3406 16.0044 9.69494 16.1148 10.0545 16.1308C10.414 16.1148 10.7683 16.0044 11.0649 15.7976C11.682 15.3673 11.8381 14.8863 11.6397 14.0517C11.5757 13.7829 11.51 13.5133 11.4712 13.2397C11.3494 12.3789 11.5965 12.2566 12.2604 12.0327C12.8013 11.8502 13.2415 11.7907 13.6878 11.6623C13.8716 11.6463 14.035 11.5606 14.1528 11.4318C14.286 11.3036 14.3636 11.1206 14.3459 10.8629Z" fill="white"/>
</g>
<defs>
<filter id="filter0_dd_9_3" x="-10.5319" y="-6.70085" width="41.054" height="41.0689" filterUnits="userSpaceOnUse" color-interpolation-filters="sRGB">
<feFlood flood-opacity="0" result="BackgroundImageFix"/>
<feColorMatrix in="SourceAlpha" type="matrix" values="0 0 0 0 0 0 0 0 0 0 0 0 0 0 0 0 0 0 127 0" result="hardAlpha"/>
<feOffset dy="5"/>
<feGaussianBlur stdDeviation="4"/>
<feColorMatrix type="matrix" values="0 0 0 0 0 0 0 0 0 0 0 0 0 0 0 0 0 0 0.078125 0"/>
<feBlend mode="normal" in2="BackgroundImageFix" result="effect1_dropShadow_9_3"/>
<feColorMatrix in="SourceAlpha" type="matrix" values="0 0 0 0 0 0 0 0 0 0 0 0 0 0 0 0 0 0 127 0" result="hardAlpha"/>
<feOffset dy="4"/>
<feGaussianBlur stdDeviation="5.5"/>
<feColorMatrix type="matrix" values="0 0 0 0 0 0 0 0 0 0 0 0 0 0 0 0 0 0 0.210824 0"/>
<feBlend mode="normal" in2="effect1_dropShadow_9_3" result="effect2_dropShadow_9_3"/>
<feBlend mode="normal" in="SourceGraphic" in2="effect2_dropShadow_9_3" result="shape"/>
</filter>
<clipPath id="clip0_9_3">
<rect width="20" height="20" fill="white"/>
</clipPath>
</defs>
</svg>
