<svg width="13" height="16" viewBox="0 0 13 16" fill="none" xmlns="http://www.w3.org/2000/svg">
<path d="M4.83082 0.954845H7.47451V1.39968H8.42923V0.892573C8.42935 0.400427 8.02917 0 7.53726 0H4.76807C4.27616 0 3.87598 0.400427 3.87598 0.892573V1.39968H4.83082V0.954845Z" fill="#999999"/>
<path d="M10.634 5.18262H1.67114C1.42555 5.18262 1.23221 5.39212 1.25201 5.63699L2.00133 14.9026C2.04308 15.4198 2.47453 15.8182 2.99286 15.8182H9.31219C9.83053 15.8182 10.262 15.4198 10.3037 14.9024L11.053 5.63699C11.073 5.39212 10.8796 5.18262 10.634 5.18262Z" fill="#999999"/>
<path d="M12.2853 3.70919L11.9718 2.76931C11.8891 2.52155 11.6571 2.3544 11.3959 2.3544H0.909814C0.648656 2.3544 0.416582 2.52155 0.334035 2.76931L0.0204999 3.70919C-0.0399624 3.89046 0.038723 4.07534 0.185594 4.16754C0.245453 4.20508 0.316294 4.22764 0.394135 4.22764H11.9117C11.9895 4.22764 12.0605 4.20508 12.1202 4.16742C12.2671 4.07522 12.3457 3.89033 12.2853 3.70919Z" fill="#999999"/>
</svg>
