<svg id="Layer_1" height="512" viewBox="0 0 512 512" width="512" xmlns="http://www.w3.org/2000/svg" data-name="Layer 1"><path d="m93.4 160 38.36 305.76a40.213 40.213 0 0 0 39.69 35.24h169.1a40.213 40.213 0 0 0 39.69-35.24l38.36-305.76z" fill="#6d7486"/><path d="m378.81 94.21a38.809 38.809 0 0 0 -38.63-35.21h-168.37a38.806 38.806 0 0 0 -38.62 35.21l-.64 6.79h246.9z" fill="#7cadc2"/><path d="m161.76 465.76-38.36-305.76h-30l38.36 305.76a40.213 40.213 0 0 0 39.69 35.24h30a40.213 40.213 0 0 1 -39.69-35.24z" fill="#555a66"/><path d="m163.19 94.21a38.806 38.806 0 0 1 38.62-35.21h-30a38.806 38.806 0 0 0 -38.62 35.21l-.64 6.79h30z" fill="#6794a3"/><path d="m407.575 101h-302.925a43.93 43.93 0 0 0 -43.65 43.77v16.23h390v-16.23c0-23.97-19.455-43.77-43.425-43.77z" fill="#67909e"/><path d="m134.65 101h-30a43.93 43.93 0 0 0 -43.65 43.77v16.23h30v-16.23a43.93 43.93 0 0 1 43.65-43.77z" fill="#51717a"/><g fill="#284268"><path d="m96.93 130h2.7a6 6 0 0 0 0-12h-2.7a6 6 0 0 0 0 12z"/><path d="m118.989 130h86.711a6 6 0 0 0 0-12h-86.711a6 6 0 0 0 0 12z"/><path d="m256 454.819a6 6 0 0 0 6-6v-219.763a6 6 0 0 0 -12 0v219.763a6 6 0 0 0 6 6z"/><path d="m317.9 454.8c.181.016.36.023.536.023a6 6 0 0 0 5.97-5.47l19.446-219.764a6 6 0 1 0 -11.953-1.059l-19.441 219.76a6 6 0 0 0 5.442 6.51z"/><path d="m186.446 449.349a6 6 0 0 0 5.97 5.47c.177 0 .356-.007.536-.023a6 6 0 0 0 5.447-6.506l-19.445-219.764a6 6 0 0 0 -11.954 1.059z"/><path d="m55 144.772v16.51c0 3.318 2.936 5.718 6.249 5.718h26.8l37.761 299.749a46.081 46.081 0 0 0 45.64 40.251h169.1a46.081 46.081 0 0 0 45.639-40.251l37.761-299.749h26.8c3.313 0 6.249-2.4 6.249-5.718v-16.51c.001-27.24-22.409-49.772-49.649-49.772h-22.439l-.129-1.347a44.609 44.609 0 0 0 -44.598-40.653h-15.184v-19.157c0-15.905-13.336-28.843-29.24-28.843h-79.519c-15.904 0-29.241 12.938-29.241 28.843v19.157h-15.192a44.6 44.6 0 0 0 -44.59 40.64l-.13 1.36h-22.438c-27.24 0-49.65 22.532-49.65 49.772zm319.283 320.477a34.059 34.059 0 0 1 -33.733 29.751h-169.1a34.06 34.06 0 0 1 -33.733-29.751l-37.571-298.249h311.708zm-175.283-431.406c0-9.287 7.954-16.843 17.241-16.843h79.519c9.287 0 17.24 7.556 17.24 16.843v19.157h-114zm-59.835 60.924a32.662 32.662 0 0 1 32.647-29.767h168.369a32.667 32.667 0 0 1 32.655 29.781l.021.219h-233.714zm-34.515 12.233h302.7a37.976 37.976 0 0 1 37.65 37.772v10.228h-378v-10.228a37.976 37.976 0 0 1 37.65-37.772z"/></g></svg>