<svg id="Fill_out_line" height="512" viewBox="0 0 512 512" width="512" xmlns="http://www.w3.org/2000/svg" data-name="Fill out line"><path d="m168 24h320v440h-320z" fill="#65dcff"/><path d="m200 56h80v32h-80z" fill="#a0cc00"/><path d="m200 152h256v32h-256z" fill="#3d9de6"/><path d="m72 248h192v288h-192z" fill="#3ea7ff" transform="matrix(0 -1 1 0 -224 560)"/><path d="m68 332h48v56h-48z" fill="#f2e368" transform="matrix(0 -1 1 0 -268 452)"/><circle cx="256" cy="432" fill="#fc7" r="24"/><circle cx="216" cy="432" fill="#eb352f" r="24"/><path d="m24 496h288a7.99977 7.99977 0 0 0 8-8v-192a7.99977 7.99977 0 0 0 -8-8h-288a7.99977 7.99977 0 0 0 -8 8v192a7.99977 7.99977 0 0 0 8 8zm8-192h272v176h-272z"/><path d="m64 392h56a7.99977 7.99977 0 0 0 8-8v-48a7.99977 7.99977 0 0 0 -8-8h-56a7.99977 7.99977 0 0 0 -8 8v48a7.99977 7.99977 0 0 0 8 8zm8-48h40v32h-40z"/><path d="m48 408h16v16h-16z"/><path d="m80 408h16v16h-16z"/><path d="m112 408h16v16h-16z"/><path d="m144 408h16v16h-16z"/><path d="m48 440h48v16h-48z"/><path d="m112 440h32v16h-32z"/><path d="m256 400a31.92888 31.92888 0 0 0 -20 7.01611 32 32 0 1 0 0 49.96778 32.00126 32.00126 0 1 0 20-56.98389zm0 48a15.98554 15.98554 0 0 1 -13.3374-7.16309 7.99932 7.99932 0 0 0 -13.3252 0 16 16 0 1 1 0-17.67382 7.99932 7.99932 0 0 0 13.3252 0 15.9997 15.9997 0 1 1 13.3374 24.83691z"/><path d="m488 16h-320a7.99977 7.99977 0 0 0 -8 8v248h16v-240h304v424h-144v16h152a7.99977 7.99977 0 0 0 8-8v-440a7.99977 7.99977 0 0 0 -8-8z"/><path d="m192 184a7.99977 7.99977 0 0 0 8 8h16v80h16v-80h64v80h16v-80h40v104h16v-104h40v104h16v-104h32a7.99977 7.99977 0 0 0 8-8v-32a7.99977 7.99977 0 0 0 -8-8h-256a7.99977 7.99977 0 0 0 -8 8zm16-24h240v16h-240z"/><path d="m336 312h128v16h-128z"/><path d="m408 344h56v16h-56z"/><path d="m200 96h80a7.99977 7.99977 0 0 0 8-8v-32a7.99977 7.99977 0 0 0 -8-8h-80a7.99977 7.99977 0 0 0 -8 8v32a7.99977 7.99977 0 0 0 8 8zm8-32h64v16h-64z"/><path d="m368 48h48v16h-48z"/><path d="m432 48h32v16h-32z"/><path d="m368 80h32v16h-32z"/><path d="m416 80h32v16h-32z"/><path d="m320 112h16v16h-16z"/><path d="m352 112h16v16h-16z"/><path d="m384 112h32v16h-32z"/><path d="m336 392h48v16h-48z"/><path d="m400 392h32v16h-32z"/><path d="m336 424h96v16h-96z"/></svg>