<svg width="454" height="512" viewBox="0 0 454 512" fill="none" xmlns="http://www.w3.org/2000/svg">
<rect x="198" y="474" width="54" height="26" rx="4" fill="#5563DA"/>
<ellipse cx="226.5" cy="161" rx="160.5" ry="161" fill="#FBB03B"/>
<ellipse cx="254" cy="161" rx="133" ry="161" fill="#FFE07D"/>
<path fill-rule="evenodd" clip-rule="evenodd" d="M198.041 1.37932C165.61 7.31132 137.177 21.8943 113.468 44.7573C85.9335 71.3103 69.6175 102.879 64.1355 140.203C61.8745 155.604 62.5965 181.267 65.7015 195.786C74.5245 237.052 98.5335 273.909 131.298 296.488C153.47 311.767 152.136 309.337 152.561 335.212L152.888 355.078L150.364 357.712C146.109 362.155 144.733 366.904 144.757 377.065C144.774 384.189 145.246 387.376 146.787 390.774C148.727 395.049 148.735 395.322 147.036 398.774C144.866 403.181 144.059 418.621 145.683 424.654C146.359 427.166 148.457 430.545 150.924 433.095L155.037 437.347L155.136 449.42C155.231 461.009 155.355 461.688 158.235 466.343C162.738 473.621 167.656 475.847 179.233 475.847H188.417L189.679 481.597C194.501 503.555 216.271 516.435 237.609 509.954C251.714 505.67 260.865 494.881 264.208 478.597C264.771 475.852 264.79 475.847 273.504 475.825C283.776 475.799 288.614 474.027 293.451 468.517C297.887 463.465 299.075 458.243 298.447 446.56C297.932 437.011 297.978 436.733 300.367 435.168C301.714 434.285 304.035 431.49 305.525 428.955C308.027 424.699 308.234 423.506 308.234 413.347C308.234 403.993 307.922 401.819 306.15 398.821L304.065 395.294L306.089 391.396C310.619 382.668 308.983 363.247 303.266 357.876L300.734 355.498V336.641C300.734 311.025 300.72 311.057 317.25 299.796C354.761 274.24 378.944 237.99 387.703 194.19C388.82 188.604 389.734 181.549 389.734 178.512C389.734 173.74 389.377 172.711 387.099 170.92C383.714 168.257 381.471 168.302 378.263 171.097C376.07 173.008 375.457 174.853 374.195 183.347C367.838 226.139 344.103 263.851 308.689 287.427C296.451 295.574 292.634 299.317 288.982 306.754C286.321 312.172 286.225 312.948 285.909 331.597L285.581 350.847H269.659H253.735V319.912C253.735 300.457 254.13 287.933 254.8 286.162C255.386 284.614 258.963 279.292 262.75 274.336C274.475 258.991 274.154 260.328 274.561 225.039L274.911 194.73L277.263 193.837C283.871 191.324 282.722 182.082 275.484 179.527C274.522 179.188 273.734 178.028 273.734 176.951C273.734 174.707 269.307 170.847 266.734 170.847C264.171 170.847 260.049 174.455 259.327 177.331L258.697 179.847H226.685C197.069 179.847 194.632 179.716 194.131 178.097C193.064 174.644 192.007 173.326 189.2 171.95C186.757 170.753 185.984 170.754 183.792 171.961C182.386 172.735 180.56 174.768 179.735 176.48C178.91 178.191 177.018 180.052 175.53 180.615C170.462 182.534 170.573 190.699 175.707 193.646L178.608 195.311L178.964 225.829C179.23 248.636 179.666 257.215 180.69 259.783C181.444 261.673 185.508 267.748 189.721 273.283C193.934 278.818 197.911 284.877 198.558 286.746C199.36 289.062 199.735 299.816 199.735 320.496V350.847H183.811H167.888L167.561 331.597C167.27 314.39 167.006 311.851 165.074 307.671C161.925 300.857 155.855 294.799 144.806 287.443C111.703 265.406 89.1175 232.054 80.5345 192.535C77.3275 177.766 77.3275 147.928 80.5345 133.159C87.2195 102.377 101.868 76.2703 124.583 54.6543C145.496 34.7533 170.368 22.3213 201.194 16.3613C210.609 14.5413 213.534 13.5793 214.944 11.8373C217.429 8.76932 217.181 5.20232 214.28 2.30232C211.479 -0.499685 209.064 -0.636685 198.041 1.37932ZM239.189 2.30232C236.207 5.28332 235.972 9.84632 238.673 12.2913C239.864 13.3683 245.936 15.1203 254.423 16.8333C286.399 23.2903 309.49 35.5183 331.785 57.8023C353.393 79.3983 366.679 104.133 372.797 134.156C373.92 139.666 375.278 144.995 375.815 145.998C378.08 150.231 386.249 149.348 388.512 144.626C389.595 142.368 389.468 140.347 387.707 131.649C374.321 65.5453 323.13 14.6093 257.312 1.90832C243.722 -0.714684 242.171 -0.680685 239.189 2.30232ZM276.734 50.8473C274.218 53.3633 274.08 58.9773 276.484 61.0373C277.446 61.8633 281.845 64.6583 286.259 67.2493C308.465 80.2873 327.2 103.72 334.305 127.347C336.517 134.701 339.108 137.847 342.954 137.847C346.361 137.847 350.734 133.897 350.734 130.819C350.734 124.018 340.453 101.351 331.826 89.1323C321.327 74.2623 305.619 60.2483 290.589 52.3433C283.012 48.3573 279.593 47.9883 276.734 50.8473ZM16.2345 96.0023C11.2835 98.7103 10.3785 103.228 13.9845 107.235C16.8425 110.411 42.1505 120.154 45.1635 119.239C48.9255 118.097 50.7345 115.696 50.7345 111.847C50.7345 109.583 50.0575 107.564 48.9845 106.624C47.2635 105.116 21.1795 94.8183 19.2315 94.8773C18.6835 94.8943 17.3345 95.4003 16.2345 96.0023ZM419.234 100.001C412.084 102.754 405.372 105.845 404.318 106.871C400.05 111.024 403.442 119.19 409.428 119.172C410.972 119.167 417.859 117.043 424.734 114.452C436.834 109.892 441.734 106.689 441.734 103.338C441.734 99.2403 437.246 94.6863 433.438 94.9213C432.775 94.9623 426.384 97.2483 419.234 100.001ZM2.46751 153.597C1.60051 154.56 0.584507 156.573 0.210507 158.072C-0.340493 160.277 0.106507 161.373 2.55551 163.822L5.58051 166.847H20.5225C34.1255 166.847 35.7015 166.661 38.0995 164.774C41.4015 162.177 41.7125 156.825 38.7345 153.847C36.8975 152.01 35.4015 151.847 20.3895 151.847C6.09051 151.847 3.84751 152.066 2.46751 153.597ZM414.785 153.605C411.527 156.243 411.697 161.558 415.133 164.514C417.712 166.732 418.578 166.847 432.734 166.847C446.89 166.847 447.757 166.732 450.336 164.514C453.772 161.558 453.942 156.243 450.684 153.605C448.818 152.094 446.298 151.847 432.734 151.847C419.17 151.847 416.651 152.094 414.785 153.605ZM258.73 224.097C258.726 257.455 259.688 253.373 248.33 268.26C238.806 280.743 238.735 281.116 238.735 319.029V350.847H226.795H214.856L214.521 317.097C214.134 278.081 214.876 281.421 203.149 265.926C198.703 260.053 195.163 254.291 194.654 252.101C194.175 250.036 193.772 236.31 193.759 221.597L193.735 194.847H226.235H258.734L258.73 224.097ZM28.2345 203.917C15.0485 208.973 11.7345 211.264 11.7345 215.323C11.7345 218.873 15.4345 222.847 18.7405 222.847C22.5535 222.847 45.6355 214.045 48.4845 211.505C53.1705 207.326 50.1275 198.795 43.9845 198.889C42.4715 198.913 35.3845 201.175 28.2345 203.917ZM405.616 199.854C404.726 200.374 403.452 202.114 402.786 203.721C401.794 206.115 401.853 207.175 403.107 209.6C404.421 212.14 406.587 213.287 418.435 217.718C426.024 220.555 433.268 222.87 434.53 222.862C435.793 222.854 437.981 221.692 439.392 220.281C441.446 218.227 441.834 217.098 441.34 214.626C441 212.927 440.259 210.98 439.694 210.299C438.321 208.645 412.408 198.839 409.512 198.877C408.26 198.894 406.507 199.333 405.616 199.854ZM291.839 367.951C293.686 369.798 293.896 370.973 293.564 377.55C293.263 383.5 292.79 385.333 291.268 386.445C289.673 387.612 278.835 387.847 226.544 387.847C153.345 387.847 159.735 388.899 159.735 376.847C159.735 364.793 153.317 365.847 226.735 365.847C289.44 365.847 289.745 365.857 291.839 367.951ZM292.177 405.07C293.17 406.487 293.734 409.485 293.734 413.347C293.734 417.209 293.17 420.207 292.177 421.624L290.621 423.847H226.75C170.018 423.847 162.702 423.671 161.306 422.276C160.173 421.142 159.735 418.725 159.735 413.604C159.735 401.763 152.976 402.847 226.833 402.847H290.621L292.177 405.07ZM282.177 442.07C283.17 443.487 283.734 446.485 283.734 450.347C283.734 454.209 283.17 457.207 282.177 458.624L280.621 460.847H227.007C164.766 460.847 169.735 461.734 169.735 450.626C169.735 438.682 163.633 439.847 226.213 439.847H280.621L282.177 442.07ZM248.283 479.597C246.645 486.327 236.45 496.5 232.5 498C230.16 497.549 227.007 507 206.5 490.5L198.5 476.847H223.948H236.45H248.952L248.283 479.597Z" fill="black"/>
</svg>
