<svg width="19" height="19" viewBox="0 0 19 19" fill="none" xmlns="http://www.w3.org/2000/svg">
<path fill-rule="evenodd" clip-rule="evenodd" d="M13.1552 0.0880482C14.7989 -0.348974 16.4091 0.895903 16.4091 2.60375V3.38593C17.8401 3.38593 19 4.55104 19 5.98828V16.3977C19 17.8349 17.8401 19 16.4091 19H2.59091C1.15999 19 0 17.8349 0 16.3977V5.5888C0 4.40803 0.79148 3.37524 1.92791 3.07309L13.1552 0.0880482ZM16.4091 5.12083H2.59091C2.11394 5.12083 1.72727 5.5092 1.72727 5.98828V16.3977C1.72727 16.8767 2.11394 17.2651 2.59091 17.2651H16.4091C16.8861 17.2651 17.2727 16.8767 17.2727 16.3977V13.7954H14.6818C13.2509 13.7954 12.0909 12.6302 12.0909 11.1931C12.0909 9.75578 13.2509 8.59071 14.6818 8.59071H17.2727V5.98828C17.2727 5.50921 16.8861 5.12084 16.4091 5.12083ZM17.2727 10.3256H14.6818C14.2048 10.3256 13.8182 10.714 13.8182 11.1931C13.8182 11.6721 14.2048 12.0605 14.6818 12.0605H17.2727V10.3256Z" fill="#5967DC"/>
</svg>
