<svg xmlns="http://www.w3.org/2000/svg" xmlns:xlink="http://www.w3.org/1999/xlink" width="500" zoomAndPan="magnify" viewBox="0 0 375 374.999991" height="500" preserveAspectRatio="xMidYMid meet" version="1.0"><defs><clipPath id="f61f8985ea"><path d="M 37.5 47.625 L 337.5 47.625 L 337.5 327.375 L 37.5 327.375 Z M 37.5 47.625 " clip-rule="nonzero"/></clipPath></defs><g clip-path="url(#f61f8985ea)"><path fill="#ffffff" d="M 143.320312 47.625 C 133.25 47.625 124.117188 53.871094 119.59375 64.015625 L 118.03125 67.605469 L 67.605469 67.605469 C 51.058594 67.605469 37.632812 81.03125 37.632812 97.582031 L 37.632812 237.457031 C 37.632812 254.003906 51.058594 267.429688 67.605469 267.429688 L 141.757812 267.429688 C 139.964844 260.949219 138.636719 254.316406 138.011719 247.445312 L 67.605469 247.445312 C 62.066406 247.445312 57.617188 242.917969 57.617188 237.457031 L 57.617188 97.582031 C 57.617188 92.117188 62.066406 87.589844 67.605469 87.589844 L 130.910156 87.589844 L 137.855469 72.210938 C 139.105469 69.402344 141.292969 67.605469 143.320312 67.605469 L 211.695312 67.605469 C 213.726562 67.605469 215.910156 69.402344 217.160156 72.210938 L 224.109375 87.589844 L 287.410156 87.589844 C 292.953125 87.589844 297.402344 92.117188 297.402344 97.582031 L 297.402344 139.652344 C 304.503906 143.320312 311.296875 147.613281 317.382812 152.6875 L 317.382812 97.582031 C 317.382812 81.03125 303.957031 67.605469 287.410156 67.605469 L 237.066406 67.605469 L 235.425781 64.015625 C 230.898438 53.871094 221.765625 47.625 211.695312 47.625 Z M 77.597656 107.570312 L 77.597656 127.554688 L 97.582031 127.554688 L 97.582031 107.570312 Z M 177.507812 107.570312 C 144.492188 107.570312 117.5625 134.5 117.5625 167.519531 C 117.5625 186.328125 126.460938 203.03125 140.121094 214.039062 C 141.679688 206.703125 144.023438 199.675781 146.988281 192.964844 C 141.214844 186.015625 137.542969 177.273438 137.542969 167.519531 C 137.542969 145.507812 155.496094 127.554688 177.507812 127.554688 C 187.265625 127.554688 196.007812 131.222656 202.953125 137 C 209.667969 134.03125 216.691406 131.691406 224.03125 130.128906 C 213.023438 116.46875 196.320312 107.570312 177.507812 107.570312 Z M 247.445312 147.535156 C 197.882812 147.535156 157.527344 187.890625 157.527344 237.457031 C 157.527344 287.019531 197.882812 327.375 247.445312 327.375 C 297.011719 327.375 337.367188 287.019531 337.367188 237.457031 C 337.367188 187.890625 297.011719 147.535156 247.445312 147.535156 Z M 247.445312 167.519531 C 286.160156 167.519531 317.382812 198.738281 317.382812 237.457031 C 317.382812 276.171875 286.160156 307.394531 247.445312 307.394531 C 208.730469 307.394531 177.507812 276.171875 177.507812 237.457031 C 177.507812 198.738281 208.730469 167.519531 247.445312 167.519531 Z M 237.457031 187.5 L 237.457031 227.464844 L 197.492188 227.464844 L 197.492188 247.445312 L 237.457031 247.445312 L 237.457031 287.410156 L 257.4375 287.410156 L 257.4375 247.445312 L 297.402344 247.445312 L 297.402344 227.464844 L 257.4375 227.464844 L 257.4375 187.5 Z M 237.457031 187.5 " fill-opacity="1" fill-rule="nonzero"/></g></svg>