<svg xmlns="http://www.w3.org/2000/svg" xmlns:xlink="http://www.w3.org/1999/xlink" width="500" zoomAndPan="magnify" viewBox="0 0 375 374.999991" height="500" preserveAspectRatio="xMidYMid meet" version="1.0"><defs><clipPath id="2a0a8ef45b"><path d="M 37.5 47.625 L 337.5 47.625 L 337.5 327.375 L 37.5 327.375 Z M 37.5 47.625 " clip-rule="nonzero"/></clipPath></defs><g clip-path="url(#2a0a8ef45b)"><path fill="#ffffff" d="M 67.605469 47.625 C 51.058594 47.625 37.632812 61.050781 37.632812 77.597656 L 37.632812 257.4375 C 37.632812 273.984375 51.058594 287.410156 67.605469 287.410156 L 149.644531 287.410156 C 146.441406 281.089844 143.789062 274.375 141.757812 267.429688 L 67.605469 267.429688 C 62.066406 267.429688 57.617188 262.980469 57.617188 257.4375 L 57.617188 238.9375 L 128.644531 158.855469 L 151.90625 183.285156 C 155.261719 177.351562 159.164062 171.734375 163.535156 166.582031 L 128.179688 129.347656 L 57.617188 208.808594 L 57.617188 77.597656 C 57.617188 72.054688 62.066406 67.605469 67.605469 67.605469 L 287.410156 67.605469 C 292.953125 67.605469 297.402344 72.054688 297.402344 77.597656 L 297.402344 139.652344 C 304.503906 143.320312 311.296875 147.613281 317.382812 152.6875 L 317.382812 77.597656 C 317.382812 61.050781 303.957031 47.625 287.410156 47.625 Z M 237.457031 87.589844 C 226.449219 87.589844 217.472656 96.566406 217.472656 107.570312 C 217.472656 118.578125 226.449219 127.554688 237.457031 127.554688 C 248.460938 127.554688 257.4375 118.578125 257.4375 107.570312 C 257.4375 96.566406 248.460938 87.589844 237.457031 87.589844 Z M 247.445312 147.535156 C 197.882812 147.535156 157.527344 187.890625 157.527344 237.457031 C 157.527344 287.019531 197.882812 327.375 247.445312 327.375 C 297.011719 327.375 337.367188 287.019531 337.367188 237.457031 C 337.367188 187.890625 297.011719 147.535156 247.445312 147.535156 Z M 247.445312 167.519531 C 286.160156 167.519531 317.382812 198.738281 317.382812 237.457031 C 317.382812 276.171875 286.160156 307.394531 247.445312 307.394531 C 208.730469 307.394531 177.507812 276.171875 177.507812 237.457031 C 177.507812 198.738281 208.730469 167.519531 247.445312 167.519531 Z M 237.457031 187.5 L 237.457031 227.464844 L 197.492188 227.464844 L 197.492188 247.445312 L 237.457031 247.445312 L 237.457031 287.410156 L 257.4375 287.410156 L 257.4375 247.445312 L 297.402344 247.445312 L 297.402344 227.464844 L 257.4375 227.464844 L 257.4375 187.5 Z M 237.457031 187.5 " fill-opacity="1" fill-rule="nonzero"/></g></svg>