<svg width="10" height="12" viewBox="0 0 10 12" fill="none" xmlns="http://www.w3.org/2000/svg">
<path fill-rule="evenodd" clip-rule="evenodd" d="M4.98789 8.87405V8.41741V8.4174C4.98789 7.04003 3.87131 5.92346 2.49395 5.92346C1.11658 5.92346 6.49988e-06 7.04003 0 8.4174V8.41741V8.87405H4.98789Z" fill="#49569E"/>
<path fill-rule="evenodd" clip-rule="evenodd" d="M9.37901 8.41741L9.37901 8.42154V8.87405H4.39111V8.4174H4.39112C4.39112 7.04003 5.5077 5.92346 6.88506 5.92346C8.26243 5.92346 9.37901 7.04004 9.37901 8.41741Z" fill="#5765DE"/>
<path fill-rule="evenodd" clip-rule="evenodd" d="M4.74248 9.04944C6.11985 9.04944 7.23643 10.166 7.23643 11.5434L7.23645 11.5434V12H2.24855V11.5533C2.24854 11.55 2.24854 11.5467 2.24854 11.5434C2.24854 10.166 3.36511 9.04944 4.74248 9.04944Z" fill="#645FB9"/>
<path d="M4.27017 5.38771C4.27017 6.37956 3.47505 7.18362 2.49422 7.18362C1.51338 7.18362 0.718262 6.37956 0.718262 5.38771C0.718262 4.39585 1.51338 3.5918 2.49422 3.5918C3.47505 3.5918 4.27017 4.39585 4.27017 5.38771Z" fill="#FFCFCA"/>
<path d="M6.54605 1.79591C6.54605 2.78776 5.75093 3.59182 4.7701 3.59182C3.78926 3.59182 2.99414 2.78776 2.99414 1.79591C2.99414 0.804057 3.78926 0 4.7701 0C5.75093 0 6.54605 0.804057 6.54605 1.79591Z" fill="#FEC192"/>
<path d="M4.78955 3.59182C5.77038 3.59182 6.56551 2.78776 6.56551 1.79591C6.56551 0.804057 5.77038 0 4.78955 0V3.59182Z" fill="#FFB277"/>
<path d="M4.85372 2.46814L4.52465 1.87661L4.44238 1.75991H4.4861C4.59208 1.75991 4.67289 1.74539 4.72853 1.71636C4.7855 1.68732 4.88064 1.63493 4.88991 1.55919H4.44238V1.37361H4.88793C4.87468 1.30291 4.82842 1.25226 4.77146 1.2207C4.71582 1.18914 4.58678 1.17288 4.4861 1.17288H4.44238V0.987305H5.4296V1.17288H5.03415C5.09774 1.22212 5.12808 1.28903 5.14 1.37361H5.4296V1.55919H5.14397C5.1347 1.65134 5.08318 1.74034 5.01826 1.7921C4.95467 1.8426 4.82789 1.87661 4.77146 1.87661L5.10053 2.46814H4.85372Z" fill="#49569E"/>
<path d="M8.66031 5.38771C8.66031 6.37956 7.86519 7.18362 6.88435 7.18362C5.90352 7.18362 5.1084 6.37956 5.1084 5.38771C5.1084 4.39585 5.90352 3.5918 6.88435 3.5918C7.86519 3.5918 8.66031 4.39585 8.66031 5.38771Z" fill="#FFCFCA"/>
<path d="M6.4167 8.63816C6.4167 9.59231 5.64321 10.3658 4.68906 10.3658C3.73491 10.3658 2.96143 9.59231 2.96143 8.63816C2.96143 7.68401 3.73491 6.91052 4.68906 6.91052C5.64321 6.91052 6.4167 7.68401 6.4167 8.63816Z" fill="#FFCFCA"/>
</svg>
