<svg width="658" height="702" viewBox="0 0 658 702" fill="none" xmlns="http://www.w3.org/2000/svg">
<path d="M328.537 0C204.829 0 104.537 100.292 104.537 224V298.667H97.068C43.6827 298.667 0 342.344 0 395.735V455.469C0 508.855 43.6773 552.537 97.068 552.537H171.735C183.464 552.537 194.136 541.866 194.136 530.136V321.069C194.136 309.34 183.464 298.668 171.735 298.668H149.333V224.001C149.333 124.335 228.869 44.8013 328.533 44.8013C428.2 44.8013 507.733 124.337 507.733 224.001V298.668H485.332C471.04 299.413 463.176 311.626 462.931 321.069V530.136C462.931 541.865 473.603 552.537 485.332 552.537H503.999C499.499 566.163 490.728 578.767 476.233 589.871C456.671 604.855 426.369 616.709 383.597 619.272C374.514 597.767 353.149 582.408 328.529 582.408C295.805 582.408 268.795 609.419 268.795 642.143C268.795 674.867 295.805 701.877 328.529 701.877C353.587 701.877 375.264 686.184 384.06 664.075C434.779 661.408 474.836 647.548 503.529 625.575C528.852 606.179 544.639 580.231 550.196 552.544H559.998C613.383 552.544 657.066 508.867 657.066 455.476V395.741C657.066 342.351 613.389 298.673 559.998 298.673H552.529V224.007C552.529 100.299 452.237 0.00666555 328.529 0.00666555L328.537 0Z" fill="black"/>
</svg>
