<svg width="38" height="38" viewBox="0 0 38 38" fill="none" xmlns="http://www.w3.org/2000/svg">
<rect x="0.0999756" y="0.0999985" width="37.8" height="37.8" rx="18.9" fill="#49569E"/>
<mask id="path-2-outside-1_180_2388" maskUnits="userSpaceOnUse" x="9.30994" y="9.69" width="19" height="19" fill="black">
<rect fill="white" x="9.30994" y="9.69" width="19" height="19"/>
<path fill-rule="evenodd" clip-rule="evenodd" d="M11.4399 18.355C11.0257 18.355 10.6899 18.6908 10.6899 19.105C10.6899 19.5192 11.0257 19.855 11.4399 19.855L18.355 19.855L18.355 26.56C18.355 26.9742 18.6908 27.31 19.105 27.31C19.5192 27.31 19.855 26.9742 19.855 26.56L19.855 19.855H26.5599C26.9741 19.855 27.3099 19.5192 27.3099 19.105C27.3099 18.6908 26.9741 18.355 26.5599 18.355H19.855V11.44C19.855 11.0258 19.5192 10.69 19.105 10.69C18.6908 10.69 18.355 11.0258 18.355 11.44V18.355L11.4399 18.355Z"/>
</mask>
<path fill-rule="evenodd" clip-rule="evenodd" d="M11.4399 18.355C11.0257 18.355 10.6899 18.6908 10.6899 19.105C10.6899 19.5192 11.0257 19.855 11.4399 19.855L18.355 19.855L18.355 26.56C18.355 26.9742 18.6908 27.31 19.105 27.31C19.5192 27.31 19.855 26.9742 19.855 26.56L19.855 19.855H26.5599C26.9741 19.855 27.3099 19.5192 27.3099 19.105C27.3099 18.6908 26.9741 18.355 26.5599 18.355H19.855V11.44C19.855 11.0258 19.5192 10.69 19.105 10.69C18.6908 10.69 18.355 11.0258 18.355 11.44V18.355L11.4399 18.355Z" fill="white"/>
<path d="M18.355 19.855H18.855C18.855 19.5789 18.6312 19.355 18.355 19.355V19.855ZM19.855 19.855V19.355C19.5789 19.355 19.355 19.5789 19.355 19.855H19.855ZM19.855 18.355H19.355C19.355 18.6312 19.5789 18.855 19.855 18.855V18.355ZM18.355 18.355V18.855C18.6312 18.855 18.855 18.6312 18.855 18.355H18.355ZM11.1899 19.105C11.1899 18.9669 11.3019 18.855 11.4399 18.855V17.855C10.7496 17.855 10.1899 18.4147 10.1899 19.105H11.1899ZM11.4399 19.355C11.3019 19.355 11.1899 19.2431 11.1899 19.105H10.1899C10.1899 19.7954 10.7496 20.355 11.4399 20.355V19.355ZM18.355 19.355L11.4399 19.355V20.355L18.355 20.355V19.355ZM18.855 26.56L18.855 19.855H17.855L17.855 26.56H18.855ZM19.105 26.81C18.9669 26.81 18.855 26.6981 18.855 26.56H17.855C17.855 27.2504 18.4147 27.81 19.105 27.81V26.81ZM19.355 26.56C19.355 26.6981 19.2431 26.81 19.105 26.81V27.81C19.7954 27.81 20.355 27.2504 20.355 26.56H19.355ZM19.355 19.855L19.355 26.56H20.355L20.355 19.855H19.355ZM26.5599 19.355H19.855V20.355H26.5599V19.355ZM26.8099 19.105C26.8099 19.2431 26.698 19.355 26.5599 19.355V20.355C27.2503 20.355 27.8099 19.7954 27.8099 19.105H26.8099ZM26.5599 18.855C26.698 18.855 26.8099 18.9669 26.8099 19.105H27.8099C27.8099 18.4147 27.2503 17.855 26.5599 17.855V18.855ZM19.855 18.855H26.5599V17.855H19.855V18.855ZM19.355 11.44V18.355H20.355V11.44H19.355ZM19.105 11.19C19.2431 11.19 19.355 11.3019 19.355 11.44H20.355C20.355 10.7496 19.7954 10.19 19.105 10.19V11.19ZM18.855 11.44C18.855 11.3019 18.9669 11.19 19.105 11.19V10.19C18.4147 10.19 17.855 10.7496 17.855 11.44H18.855ZM18.855 18.355V11.44H17.855V18.355H18.855ZM11.4399 18.855L18.355 18.855V17.855L11.4399 17.855V18.855Z" fill="white" mask="url(#path-2-outside-1_180_2388)"/>
</svg>
