<svg width="44" height="44" viewBox="0 0 44 44" fill="none" xmlns="http://www.w3.org/2000/svg">
<path fill-rule="evenodd" clip-rule="evenodd" d="M1 22C1 33.5979 10.4025 43 22 43C33.5984 43 43 33.5979 43 22C43 10.402 33.5984 1 22 1C10.4025 1 1 10.402 1 22Z" stroke="#CCB9B9"/>
<path d="M28.2045 10.45H16.1772C15.4936 10.45 14.8382 10.7167 14.3547 11.1913C13.8715 11.6661 13.6 12.3098 13.6 12.9812V31.5437C13.6 32.2152 13.8715 32.8589 14.3547 33.3337C14.8382 33.8083 15.4936 34.075 16.1772 34.075H28.2045C28.8882 34.075 29.5436 33.8083 30.027 33.3337C30.5103 32.8589 30.7818 32.2152 30.7818 31.5437V12.9812C30.7818 12.3098 30.5103 11.6661 30.027 11.1913C29.5436 10.7167 28.8882 10.45 28.2045 10.45ZM26.4863 30.7H23.05C22.743 30.7 22.4594 30.5392 22.306 30.2781C22.1525 30.0171 22.1525 29.6954 22.306 29.4344C22.4594 29.1733 22.743 29.0125 23.05 29.0125H26.4863C26.7933 29.0125 27.077 29.1733 27.2304 29.4344C27.3838 29.6954 27.3838 30.0171 27.2304 30.2781C27.077 30.5392 26.7933 30.7 26.4863 30.7ZM26.4863 24.7937H17.8954C17.5884 24.7937 17.3048 24.6329 17.1514 24.3719C16.998 24.1108 16.998 23.7892 17.1514 23.5281C17.3048 23.2671 17.5884 23.1062 17.8954 23.1062H26.4863C26.7933 23.1062 27.077 23.2671 27.2304 23.5281C27.3838 23.7892 27.3838 24.1108 27.2304 24.3719C27.077 24.6329 26.7933 24.7937 26.4863 24.7937ZM26.4863 21.4187H17.8954C17.5884 21.4187 17.3048 21.2579 17.1514 20.9969C16.998 20.7358 16.998 20.4142 17.1514 20.1531C17.3048 19.8921 17.5884 19.7312 17.8954 19.7312H26.4863C26.7933 19.7312 27.077 19.8921 27.2304 20.1531C27.3838 20.4142 27.3838 20.7358 27.2304 20.9969C27.077 21.2579 26.7933 21.4187 26.4863 21.4187ZM26.4863 18.0437H17.8954C17.5884 18.0437 17.3048 17.8829 17.1514 17.6219C16.998 17.3608 16.998 17.0392 17.1514 16.7781C17.3048 16.5171 17.5884 16.3562 17.8954 16.3562H26.4863C26.7933 16.3562 27.077 16.5171 27.2304 16.7781C27.3838 17.0392 27.3838 17.3608 27.2304 17.6219C27.077 17.8829 26.7933 18.0437 26.4863 18.0437Z" fill="#CCB9B9"/>
</svg>
