<svg width="42" height="42" viewBox="0 0 42 42" fill="none" xmlns="http://www.w3.org/2000/svg">
<path fill-rule="evenodd" clip-rule="evenodd" d="M0 21C0 32.5979 9.40252 42 21 42C32.5984 42 42 32.5979 42 21C42 9.40199 32.5984 0 21 0C9.40252 0 0 9.40199 0 21Z" fill="#CCB9B9"/>
<path d="M27.2045 9.45H15.1772C14.4936 9.45 13.8382 9.71668 13.3547 10.1913C12.8715 10.6661 12.6 11.3098 12.6 11.9812V30.5437C12.6 31.2152 12.8715 31.8589 13.3547 32.3337C13.8382 32.8083 14.4936 33.075 15.1772 33.075H27.2045C27.8882 33.075 28.5436 32.8083 29.027 32.3337C29.5103 31.8589 29.7818 31.2152 29.7818 30.5437V11.9812C29.7818 11.3098 29.5103 10.6661 29.027 10.1913C28.5436 9.71668 27.8882 9.45 27.2045 9.45ZM25.4863 29.7H22.05C21.743 29.7 21.4594 29.5392 21.306 29.2781C21.1525 29.0171 21.1525 28.6954 21.306 28.4344C21.4594 28.1733 21.743 28.0125 22.05 28.0125H25.4863C25.7933 28.0125 26.077 28.1733 26.2304 28.4344C26.3838 28.6954 26.3838 29.0171 26.2304 29.2781C26.077 29.5392 25.7933 29.7 25.4863 29.7ZM25.4863 23.7937H16.8954C16.5884 23.7937 16.3048 23.6329 16.1514 23.3719C15.998 23.1108 15.998 22.7892 16.1514 22.5281C16.3048 22.2671 16.5884 22.1062 16.8954 22.1062H25.4863C25.7933 22.1062 26.077 22.2671 26.2304 22.5281C26.3838 22.7892 26.3838 23.1108 26.2304 23.3719C26.077 23.6329 25.7933 23.7937 25.4863 23.7937ZM25.4863 20.4187H16.8954C16.5884 20.4187 16.3048 20.2579 16.1514 19.9969C15.998 19.7358 15.998 19.4142 16.1514 19.1531C16.3048 18.8921 16.5884 18.7312 16.8954 18.7312H25.4863C25.7933 18.7312 26.077 18.8921 26.2304 19.1531C26.3838 19.4142 26.3838 19.7358 26.2304 19.9969C26.077 20.2579 25.7933 20.4187 25.4863 20.4187ZM25.4863 17.0437H16.8954C16.5884 17.0437 16.3048 16.8829 16.1514 16.6219C15.998 16.3608 15.998 16.0392 16.1514 15.7781C16.3048 15.5171 16.5884 15.3562 16.8954 15.3562H25.4863C25.7933 15.3562 26.077 15.5171 26.2304 15.7781C26.3838 16.0392 26.3838 16.3608 26.2304 16.6219C26.077 16.8829 25.7933 17.0437 25.4863 17.0437Z" fill="white"/>
</svg>
