<svg width="44" height="44" viewBox="0 0 44 44" fill="none" xmlns="http://www.w3.org/2000/svg">
<path fill-rule="evenodd" clip-rule="evenodd" d="M1 22C1 33.5979 10.4025 43 22 43C33.5984 43 43 33.5979 43 22C43 10.402 33.5984 1 22 1C10.4025 1 1 10.402 1 22Z" fill="#FFB277" stroke="#FFB277"/>
<path d="M27.637 13.8722C26.7679 11.199 24.4431 9.5 21.5 9.5C18.5569 9.5 16.2332 11.199 15.363 13.8722C14.0062 14.2377 13 15.467 13 16.9375C13 18.3432 13.9201 19.5257 15.1855 19.9486L16.1907 34.0129C16.23 34.5697 16.6932 35 17.25 35H25.75C26.3068 35 26.77 34.5697 26.8093 34.0129L27.8145 19.9486C29.0799 19.5257 30 18.3432 30 16.9375C30 15.467 28.9938 14.2377 27.637 13.8722ZM26.8125 18H16.1875C15.601 18 15.125 17.5229 15.125 16.9375C15.125 16.3521 15.601 15.875 16.1875 15.875H26.8125C27.399 15.875 27.875 16.352 27.875 16.9375C27.875 17.523 27.399 18 26.8125 18Z" fill="white"/>
<path d="M27.637 13.8722C26.7679 11.199 24.4431 9.5 21.5 9.5C18.5569 9.5 16.2332 11.199 15.363 13.8722C14.0062 14.2377 13 15.467 13 16.9375C13 18.3432 13.9201 19.5257 15.1855 19.9486L16.1907 34.0129C16.23 34.5697 16.6932 35 17.25 35H25.75C26.3068 35 26.77 34.5697 26.8093 34.0129L27.8145 19.9486C29.0799 19.5257 30 18.3432 30 16.9375C30 15.467 28.9938 14.2377 27.637 13.8722ZM26.8125 18H16.1875C15.601 18 15.125 17.5229 15.125 16.9375C15.125 16.3521 15.601 15.875 16.1875 15.875H26.8125C27.399 15.875 27.875 16.352 27.875 16.9375C27.875 17.523 27.399 18 26.8125 18Z" fill="white"/>
</svg>
