<svg width="44" height="43" viewBox="0 0 44 43" fill="none" xmlns="http://www.w3.org/2000/svg">
<path fill-rule="evenodd" clip-rule="evenodd" d="M1 21C1 32.5979 10.4025 42 22 42C33.5984 42 43 32.5979 43 21C43 9.40199 33.5984 0 22 0C10.4025 0 1 9.40199 1 21Z" stroke="#FFBABA"/>
<path d="M23.1545 10.7153H23.0403C22.4974 10.7153 22.069 11.1438 22.069 11.6867V21.1148H12.6408C12.098 21.1148 11.6695 21.5433 11.6695 22.0861L11.6693 22.1433C11.6693 28.4573 16.7834 33.5999 23.1259 33.5999C29.4399 33.5999 34.5825 28.4859 34.5825 22.1433C34.6397 15.8579 29.4972 10.7153 23.1545 10.7153L23.1545 10.7153Z" fill="#FFBABA"/>
<path d="M20.326 18.3437V9.34415C20.326 8.80127 19.8975 8.37282 19.3547 8.40134H19.2118H19.0976C14.0978 9.14426 10.1552 13.0868 9.41234 18.1152V18.2294C9.32665 18.7435 9.69813 19.2294 10.2123 19.3151H10.3552H20.3262L20.326 18.3437Z" fill="#FFBABA"/>
</svg>
