<svg width="42" height="42" viewBox="0 0 42 42" fill="none" xmlns="http://www.w3.org/2000/svg">
<path fill-rule="evenodd" clip-rule="evenodd" d="M1.90735e-06 21C1.90735e-06 32.5979 9.40252 42 21 42C32.5984 42 42 32.5979 42 21C42 9.40199 32.5984 0 21 0C9.40252 0 1.90735e-06 9.40199 1.90735e-06 21Z" fill="#FFBABA"/>
<path d="M22.1544 10.7153H22.0402C21.4974 10.7153 21.0689 11.1438 21.0689 11.6867V21.1148H11.6408C11.0979 21.1148 10.6694 21.5433 10.6694 22.0861L10.6693 22.1433C10.6693 28.4573 15.7833 33.5999 22.1258 33.5999C28.4398 33.5999 33.5825 28.4859 33.5825 22.1433C33.6396 15.8579 28.4972 10.7153 22.1544 10.7153L22.1544 10.7153Z" fill="white"/>
<path d="M19.326 18.3437V9.34415C19.326 8.80127 18.8975 8.37282 18.3547 8.40134H18.2118H18.0976C13.0978 9.14426 9.15517 13.0868 8.41234 18.1152V18.2294C8.32665 18.7435 8.69813 19.2294 9.21231 19.3151H9.3552H19.3262L19.326 18.3437Z" fill="white"/>
</svg>
