<svg width="44" height="43" viewBox="0 0 44 43" fill="none" xmlns="http://www.w3.org/2000/svg">
<path fill-rule="evenodd" clip-rule="evenodd" d="M1 21C1 32.5979 10.4025 42 22 42C33.5984 42 43 32.5979 43 21C43 9.40199 33.5984 0 22 0C10.4025 0 1 9.40199 1 21Z" fill="#95DDB8" stroke="#95DDB8"/>
<path d="M10.1905 13.6501C9.98169 13.6494 9.78113 13.7315 9.63276 13.8786C9.48458 14.0257 9.40074 14.2257 9.40004 14.4345V17.6381C9.39898 17.8402 9.47562 18.035 9.61412 18.1821C9.75263 18.3292 9.94247 18.4177 10.1444 18.4286C11.6652 18.5161 12.8483 19.7275 12.8483 21.2708C12.8483 22.814 11.6654 24.0316 10.1444 24.1192C9.94351 24.1302 9.75473 24.2176 9.61624 24.3635C9.47791 24.5094 9.40057 24.7025 9.40004 24.9036V28.1072C9.39916 28.3171 9.48212 28.5187 9.63065 28.667C9.779 28.8156 9.98061 28.8985 10.1905 28.8978H17.1376V13.65L10.1905 13.6501ZM18.7126 13.6501V28.8979H33.8141C34.0233 28.8974 34.2237 28.8139 34.371 28.6655C34.5185 28.5172 34.6009 28.3164 34.6 28.1073V24.9037C34.5995 24.7026 34.5221 24.5094 34.3838 24.3635C34.2453 24.2177 34.0565 24.1303 33.8556 24.1192C32.3349 24.0317 31.1581 22.8141 31.1581 21.2708C31.1581 19.7276 32.3349 18.5161 33.8556 18.4286C34.0576 18.4177 34.2474 18.3293 34.3859 18.1822C34.5244 18.0351 34.6011 17.8403 34.6 17.6382V14.4346C34.5993 14.2265 34.5162 14.0273 34.3689 13.8802C34.2216 13.7333 34.0223 13.6507 33.8141 13.6501L18.7126 13.6501ZM24.0969 17.1168C24.365 17.104 24.6213 17.2286 24.7766 17.4474L25.9471 19.1055L27.8818 19.7068C28.1247 19.7826 28.316 19.9712 28.3954 20.2128C28.4747 20.4545 28.4325 20.7198 28.2817 20.9249L27.0682 22.5522L27.0973 24.5778L27.0975 24.5776C27.1009 24.834 26.9792 25.0761 26.7715 25.2264C26.5635 25.3768 26.2957 25.4164 26.0531 25.3327L24.1321 24.6851L22.2143 25.3341V25.3343C21.9731 25.4151 21.7077 25.3747 21.5017 25.2255C21.2957 25.0762 21.1744 24.8367 21.1761 24.5821L21.1993 22.5536L19.9874 20.9294C19.8368 20.7248 19.794 20.4599 19.8726 20.2184C19.9514 19.9767 20.1419 19.788 20.3843 19.7113L22.319 19.1023L23.4924 17.4504H23.4926C23.632 17.2521 23.8549 17.1291 24.0969 17.1168L24.0969 17.1168ZM24.1339 19.27L23.4494 20.2297C23.3506 20.3716 23.2079 20.4769 23.0434 20.5296L21.9146 20.8803L22.6205 21.8293C22.7238 21.9665 22.7796 22.134 22.7789 22.306L22.7667 23.4856L23.8848 23.1057C24.0471 23.0514 24.2225 23.0514 24.3847 23.1057L25.5059 23.4871L25.4889 22.306C25.4859 22.1323 25.5406 21.9625 25.6443 21.8231L26.3518 20.8819L25.2244 20.5281C25.0588 20.4764 24.915 20.3714 24.8152 20.2298L24.1339 19.27Z" fill="white"/>
</svg>
