<svg width="42" height="42" viewBox="0 0 42 42" fill="none" xmlns="http://www.w3.org/2000/svg">
<path fill-rule="evenodd" clip-rule="evenodd" d="M0 21C0 32.5979 9.40252 42 21 42C32.5984 42 42 32.5979 42 21C42 9.40199 32.5984 0 21 0C9.40252 0 0 9.40199 0 21Z" fill="#FFDDA8"/>
<path d="M29.5895 9.45009C29.1152 9.45009 28.7307 9.83083 28.7307 10.3004V15.4034C28.7307 15.8729 28.3461 16.2537 27.8719 16.2537H27.013L27.0128 10.3007C27.0128 9.83115 26.6283 9.45041 26.154 9.45041C25.6798 9.45041 25.2952 9.83116 25.2952 10.3007V16.2542H24.4364C23.9621 16.2542 23.5776 15.8735 23.5776 15.4039L23.5774 10.3005C23.5774 9.83094 23.1928 9.4502 22.7186 9.4502C22.2443 9.4502 21.8597 9.83094 21.8597 10.3005V16.254C21.8597 18.0803 23.0347 19.6275 24.6703 20.2291L24.0806 31.8304C24.041 32.6118 24.7728 33.2642 25.6896 33.2642H26.6202C27.5371 33.2642 28.2692 32.6122 28.2292 31.8304L27.6379 20.2296C29.2744 19.6287 30.4501 18.0808 30.4501 16.2543L30.4498 10.3003C30.4498 9.83072 30.0653 9.44998 29.591 9.44998L29.5895 9.45009Z" fill="white"/>
<path d="M15.8449 9.45009C13.4726 9.45009 11.55 12.8263 11.55 15.8615C11.55 18.2272 12.7248 19.6744 14.3634 20.2034L13.7709 31.8302C13.7312 32.6115 14.4631 33.2639 15.3798 33.2639H16.3104C17.2274 33.2639 17.9594 32.6119 17.9194 31.8302L17.3269 20.2034C18.9655 19.6746 20.1403 18.2271 20.1403 15.8615C20.1403 12.8263 18.2173 9.45009 15.8454 9.45009H15.8449Z" fill="white"/>
</svg>
