<svg width="44" height="43" viewBox="0 0 44 43" fill="none" xmlns="http://www.w3.org/2000/svg">
<path fill-rule="evenodd" clip-rule="evenodd" d="M1 21C1 32.5979 10.4025 42 22 42C33.5984 42 43 32.5979 43 21C43 9.40199 33.5984 0 22 0C10.4025 0 1 9.40199 1 21Z" stroke="#FFDDA8"/>
<path d="M30.5895 9.45009C30.1152 9.45009 29.7307 9.83083 29.7307 10.3004V15.4034C29.7307 15.8729 29.3461 16.2537 28.8719 16.2537H28.013L28.0128 10.3007C28.0128 9.83115 27.6283 9.45041 27.154 9.45041C26.6798 9.45041 26.2952 9.83116 26.2952 10.3007V16.2542H25.4364C24.9621 16.2542 24.5776 15.8735 24.5776 15.4039L24.5774 10.3005C24.5774 9.83094 24.1928 9.4502 23.7186 9.4502C23.2443 9.4502 22.8597 9.83094 22.8597 10.3005V16.254C22.8597 18.0803 24.0347 19.6275 25.6703 20.2291L25.0806 31.8304C25.041 32.6118 25.7728 33.2642 26.6896 33.2642H27.6202C28.5371 33.2642 29.2692 32.6122 29.2292 31.8304L28.6379 20.2296C30.2744 19.6287 31.4501 18.0808 31.4501 16.2543L31.4498 10.3003C31.4498 9.83072 31.0653 9.44998 30.591 9.44998L30.5895 9.45009Z" fill="#FFDDA8"/>
<path d="M16.845 9.45009C14.4726 9.45009 12.55 12.8263 12.55 15.8615C12.55 18.2272 13.7248 19.6744 15.3634 20.2034L14.7709 31.8302C14.7313 32.6115 15.4631 33.2639 16.3799 33.2639H17.3105C18.2275 33.2639 18.9595 32.6119 18.9195 31.8302L18.327 20.2034C19.9656 19.6746 21.1404 18.2271 21.1404 15.8615C21.1404 12.8263 19.2173 9.45009 16.8454 9.45009H16.845Z" fill="#FFDDA8"/>
</svg>
