<svg
  width="42"
  height="42"
  viewBox="0 0 42 42"
  fill="none"
  xmlns="http://www.w3.org/2000/svg">
  <path
    fill-rule="evenodd"
    clip-rule="evenodd"
    d="M1.90735e-06 21C1.90735e-06 32.5979 9.40252 42 21 42C32.5984 42 42 32.5979 42 21C42 9.40199 32.5984 0 21 0C9.40252 0 1.90735e-06 9.40199 1.90735e-06 21Z"
    fill="#B1D889"
  />
  <path
    d="M26.8936 8.39999L25.7826 9.37547L28.3839 12.3562C26.8123 12.4374 25.593 13.8465 25.7826 15.4452C25.9181 16.6645 26.9206 17.6942 28.1399 17.8838C28.8173 17.965 29.4677 17.8295 29.9824 17.4774V27.9908C29.9824 28.6682 29.4947 29.3186 28.7901 29.3727C28.0044 29.454 27.354 28.8578 27.354 28.0449L27.3541 23.3571C27.3541 21.9752 26.2431 20.8642 24.8613 20.8642H24.2109V12.3288C24.2109 10.4049 22.6393 8.80623 20.6883 8.80623H14.0226C12.0986 8.80623 10.5 10.3778 10.5 12.3288V31.4318C10.5 32.6241 11.4755 33.5996 12.6678 33.5996L22.0973 33.5994C23.2896 33.5994 24.2651 32.6239 24.2651 31.4316V22.3272H24.9155C25.4846 22.3272 25.9452 22.7878 25.9452 23.3569V27.9363C25.9452 29.4266 27.0562 30.7272 28.5193 30.8085C30.1179 30.9168 31.5 29.6434 31.5 28.0175L31.4998 14.9299C31.4998 14.09 31.1747 13.25 30.6326 12.6539L26.8936 8.39999ZM28.6007 16.4476C27.869 16.4476 27.2729 15.8515 27.2729 15.1199C27.2729 14.3882 27.869 13.7921 28.6007 13.7921C29.3323 13.7921 29.9285 14.3882 29.9285 15.1199C29.9283 15.8515 29.2781 16.4476 28.6007 16.4476ZM22.0433 17.3689H12.9389V12.9791C12.9389 12.3287 13.4538 11.8141 14.104 11.8141H20.8239C21.4743 11.8141 21.989 12.3289 21.989 12.9791V17.3687L22.0433 17.3689Z"
    fill="white"
  />
</svg>
