<svg width="44" height="43" viewBox="0 0 44 43" fill="none" xmlns="http://www.w3.org/2000/svg">
<path fill-rule="evenodd" clip-rule="evenodd" d="M1 21C1 32.5979 10.4025 42 22 42C33.5984 42 43 32.5979 43 21C43 9.40199 33.5984 0 22 0C10.4025 0 1 9.40199 1 21Z" stroke="#B1D889"/>
<path d="M27.8936 8.39999L26.7826 9.37547L29.3839 12.3562C27.8123 12.4374 26.593 13.8465 26.7826 15.4452C26.9181 16.6645 27.9206 17.6942 29.1399 17.8838C29.8173 17.965 30.4677 17.8295 30.9824 17.4774V27.9908C30.9824 28.6682 30.4947 29.3186 29.7901 29.3727C29.0044 29.454 28.354 28.8578 28.354 28.0449L28.3541 23.3571C28.3541 21.9752 27.2431 20.8642 25.8613 20.8642H25.2109V12.3288C25.2109 10.4049 23.6393 8.80623 21.6883 8.80623H15.0226C13.0986 8.80623 11.5 10.3778 11.5 12.3288V31.4318C11.5 32.6241 12.4755 33.5996 13.6678 33.5996L23.0973 33.5994C24.2896 33.5994 25.2651 32.6239 25.2651 31.4316V22.3272H25.9155C26.4846 22.3272 26.9452 22.7878 26.9452 23.3569V27.9363C26.9452 29.4266 28.0562 30.7272 29.5193 30.8085C31.1179 30.9168 32.5 29.6434 32.5 28.0175L32.4998 14.9299C32.4998 14.09 32.1747 13.25 31.6326 12.6539L27.8936 8.39999ZM29.6007 16.4476C28.869 16.4476 28.2729 15.8515 28.2729 15.1199C28.2729 14.3882 28.869 13.7921 29.6007 13.7921C30.3323 13.7921 30.9285 14.3882 30.9285 15.1199C30.9283 15.8515 30.2781 16.4476 29.6007 16.4476ZM23.0433 17.3689H13.9389V12.9791C13.9389 12.3287 14.4538 11.8141 15.104 11.8141H21.8239C22.4743 11.8141 22.989 12.3289 22.989 12.9791V17.3687L23.0433 17.3689Z" fill="#B1D889"/>
</svg>
