<svg width="44" height="44" viewBox="0 0 44 44" fill="none" xmlns="http://www.w3.org/2000/svg">
<path d="M21.087 43C33.1892 43 43 34.2694 43 22.4195C43 10.5696 35.0153 1 22.913 1C10.8108 1 1 10.6062 1 22.4561C1 34.306 8.98472 43 21.087 43Z" stroke="#C1BEF8"/>
<path d="M28.721 12.3203L28.2637 13.6464H29.6664H32.6522C33.5918 13.6464 34.3913 14.4263 34.3913 15.4695V30.997C34.3913 32.0403 33.5918 32.8202 32.6522 32.8202H10.7391C9.79959 32.8202 9.00019 32.0405 9 30.9974C9 30.9973 9 30.9971 9 30.997L9.01371 15.4704V15.4695C9.01371 14.4196 9.80592 13.6464 10.7391 13.6464H13.7249H15.1271L14.6703 12.3206C14.5496 11.9703 14.4783 11.6009 14.4783 11.2348C14.4783 9.4151 15.894 8 17.587 8C18.6562 8 19.6015 8.56481 20.1743 9.4394L20.1852 9.45607L20.1968 9.4723L20.8816 10.4322L21.6896 11.5648L22.5056 10.4379L23.1904 9.49213L23.2058 9.47084L23.2201 9.44877C23.7928 8.56338 24.7364 8 25.8043 8C27.4973 8 28.913 9.41511 28.913 11.2348C28.913 11.601 28.8417 11.9703 28.721 12.3203ZM9.73913 30.997V31.997H10.7391H32.6522H33.6522V30.997V28.1738V27.1738H32.6522H10.7391H9.73913V28.1738V30.997ZM10.7391 14.4695H9.73913V15.4695V23.9391V24.9391H10.7391H32.6522H33.6522V23.9391V15.4695V14.4695H32.6522H25.6948H23.7535L24.8806 16.0501L27.1604 19.2472L26.5465 19.7042L22.5099 14.0421L21.6957 12.8999L20.8814 14.0421L16.8448 19.7042L16.2309 19.2472L18.5107 16.0501L19.6378 14.4695H17.6965H10.7391ZM28.1739 11.2348C28.1739 9.93483 27.1382 8.82318 25.8043 8.82318C24.4705 8.82318 23.4348 9.93483 23.4348 11.2348C23.4348 12.5347 24.4705 13.6464 25.8043 13.6464C27.1382 13.6464 28.1739 12.5347 28.1739 11.2348ZM19.9565 11.2348C19.9565 9.93486 18.9209 8.82318 17.587 8.82318C16.253 8.82318 15.2174 9.93486 15.2174 11.2348C15.2174 12.5347 16.253 13.6464 17.587 13.6464C18.9209 13.6464 19.9565 12.5347 19.9565 11.2348Z" stroke="#C1BEF8" stroke-width="2"/>
</svg>
