<svg width="42" height="42" viewBox="0 0 42 42" fill="none" xmlns="http://www.w3.org/2000/svg">
<path d="M20.1304 41C31.6564 41 41 32.6852 41 21.3996C41 10.1139 33.3955 1 21.8696 1C10.3436 1 1 10.1488 1 21.4344C1 32.72 8.60449 41 20.1304 41Z" fill="#C1BEF8" stroke="#C1BEF8"/>
<path d="M27.356 11.7657L26.8986 13.0918H28.3013H31.1449C32.0122 13.0918 32.7536 13.8118 32.7536 14.7805V29.5686C32.7536 30.5372 32.0122 31.2573 31.1449 31.2573H10.2754C9.40822 31.2573 8.66686 30.5374 8.66667 29.5689C8.66667 29.5688 8.66667 29.5687 8.66667 29.5686L8.67973 14.7814V14.7805C8.67973 13.8052 9.41455 13.0918 10.2754 13.0918H13.1189H14.5212L14.0644 11.766C13.9508 11.4366 13.8841 11.09 13.8841 10.7474C13.8841 9.03932 15.2124 7.71429 16.7971 7.71429C17.7978 7.71429 18.6838 8.2428 19.2214 9.06362L19.2323 9.08029L19.2439 9.09651L19.8961 10.0107L20.7041 11.1433L21.5201 10.0164L22.1723 9.11568L22.1877 9.09438L22.202 9.07231C22.7395 8.24137 23.6237 7.71429 24.6232 7.71429C26.2079 7.71429 27.5362 9.03932 27.5362 10.7474C27.5362 11.0901 27.4695 11.4366 27.356 11.7657ZM9.27537 29.5686V30.5686H10.2754H31.1449H32.1449V29.5686V26.8798V25.8798H31.1449H10.2754H9.27537V26.8798V29.5686ZM10.2754 13.7805H9.27537V14.7805V22.8467V23.8467H10.2754H31.1449H32.1449V22.8467V14.7805V13.7805H31.1449H24.5188H22.5775L23.7047 15.3611L25.8488 18.368L25.3406 18.7463L21.5244 13.3934L20.7101 12.2512L19.8959 13.3934L16.0797 18.7463L15.5714 18.3679L17.7156 15.3611L18.8427 13.7805H16.9014H10.2754ZM26.9275 10.7474C26.9275 9.48443 25.9212 8.40303 24.6232 8.40303C23.3252 8.40303 22.3188 9.48443 22.3188 10.7474C22.3188 12.0104 23.3252 13.0918 24.6232 13.0918C25.9211 13.0918 26.9275 12.0104 26.9275 10.7474ZM19.1015 10.7474C19.1015 9.48447 18.0952 8.40303 16.7971 8.40303C15.4991 8.40303 14.4928 9.48447 14.4928 10.7474C14.4928 12.0103 15.4991 13.0918 16.7971 13.0918C18.0952 13.0918 19.1015 12.0103 19.1015 10.7474Z" stroke="white" stroke-width="2"/>
</svg>
