<svg width="44" height="43" viewBox="0 0 44 43" fill="none" xmlns="http://www.w3.org/2000/svg">
<path fill-rule="evenodd" clip-rule="evenodd" d="M1 21C1 32.5979 10.4025 42 22 42C33.5984 42 43 32.5979 43 21C43 9.40199 33.5984 0 22 0C10.4025 0 1 9.40199 1 21Z" stroke="#FF9C9C"/>
<path d="M33.6629 16.5041C33.3174 16.0918 32.7989 15.8267 32.2806 15.8267H30.8406L25.2822 8.81717C24.9366 8.37547 24.3318 8.28714 23.8709 8.61091C23.439 8.96427 23.3526 9.58282 23.6692 10.0541C23.6692 10.0835 23.6979 10.0835 23.6979 10.1131L28.2771 15.8267L15.9507 15.8265L20.5011 10.1129C20.8756 9.70055 20.8466 9.05259 20.4434 8.66966C20.0402 8.28673 19.4066 8.3163 19.0322 8.72862L18.9458 8.81696L13.3874 15.856H12.2355C11.2564 15.856 10.45 16.6806 10.45 17.682C10.45 17.7997 10.45 17.9176 10.4787 18.0353L12.7827 29.9045C13.0132 31.1414 14.0787 32.025 15.3172 32.025H29.1988C30.4371 32.025 31.5028 31.1414 31.7332 29.9045L34.0373 18.0353C34.1522 17.5053 34.0085 16.9458 33.6629 16.5041ZM19.2629 26.1349C19.2629 26.6945 18.8021 27.1658 18.2548 27.1658C17.7076 27.1658 17.2467 26.6945 17.2467 26.1349V21.9527C17.2467 21.3931 17.7076 20.9218 18.2548 20.9218C18.8021 20.9218 19.2629 21.3931 19.2629 21.9527V26.1349ZM23.2661 26.1349C23.2661 26.6945 22.8053 27.1658 22.258 27.1658C21.7108 27.1658 21.2499 26.6945 21.2499 26.1349V21.9527C21.2499 21.3931 21.7108 20.9218 22.258 20.9218C22.8053 20.9218 23.2661 21.3931 23.2661 21.9527V26.1349ZM27.2404 26.1349C27.2404 26.6945 26.7795 27.1658 26.2323 27.1658C25.685 27.1658 25.2242 26.6945 25.2242 26.1349L25.2244 21.9527C25.2244 21.3931 25.6852 20.9218 26.2325 20.9218C26.7797 20.9218 27.2406 21.3931 27.2406 21.9527L27.2404 26.1349Z" fill="#FF9C9C"/>
</svg>
