<svg width="42" height="42" viewBox="0 0 42 42" fill="none" xmlns="http://www.w3.org/2000/svg">
<path fill-rule="evenodd" clip-rule="evenodd" d="M0 21C0 32.5979 9.40252 42 21 42C32.5984 42 42 32.5979 42 21C42 9.40199 32.5984 0 21 0C9.40252 0 0 9.40199 0 21Z" fill="#FF9C9C"/>
<path d="M32.663 16.5041C32.3174 16.0918 31.7989 15.8267 31.2806 15.8267H29.8406L24.2822 8.81717C23.9367 8.37547 23.3318 8.28714 22.871 8.61091C22.4391 8.96427 22.3527 9.58282 22.6693 10.0541C22.6693 10.0835 22.698 10.0835 22.698 10.1131L27.2772 15.8267L14.9508 15.8265L19.5012 10.1129C19.8756 9.70055 19.8467 9.05259 19.4435 8.66966C19.0403 8.28673 18.4067 8.3163 18.0322 8.72862L17.9459 8.81696L12.3875 15.856H11.2356C10.2564 15.856 9.45001 16.6806 9.45001 17.682C9.45001 17.7997 9.45001 17.9176 9.47874 18.0353L11.7828 29.9045C12.0132 31.1414 13.0787 32.025 14.3172 32.025H28.1988C29.4371 32.025 30.5029 31.1414 30.7333 29.9045L33.0373 18.0353C33.1523 17.5053 33.0085 16.9458 32.663 16.5041ZM18.263 26.1349C18.263 26.6945 17.8021 27.1658 17.2549 27.1658C16.7076 27.1658 16.2468 26.6945 16.2468 26.1349V21.9527C16.2468 21.3931 16.7076 20.9218 17.2549 20.9218C17.8021 20.9218 18.263 21.3931 18.263 21.9527V26.1349ZM22.2662 26.1349C22.2662 26.6945 21.8053 27.1658 21.2581 27.1658C20.7108 27.1658 20.25 26.6945 20.25 26.1349V21.9527C20.25 21.3931 20.7108 20.9218 21.2581 20.9218C21.8053 20.9218 22.2662 21.3931 22.2662 21.9527V26.1349ZM26.2404 26.1349C26.2404 26.6945 25.7796 27.1658 25.2323 27.1658C24.6851 27.1658 24.2242 26.6945 24.2242 26.1349L24.2244 21.9527C24.2244 21.3931 24.6853 20.9218 25.2325 20.9218C25.7798 20.9218 26.2406 21.3931 26.2406 21.9527L26.2404 26.1349Z" fill="white"/>
</svg>
