<svg width="42" height="42" viewBox="0 0 42 42" fill="none" xmlns="http://www.w3.org/2000/svg">
<path fill-rule="evenodd" clip-rule="evenodd" d="M1.90735e-06 21C1.90735e-06 32.5979 9.40252 42 21 42C32.5984 42 42 32.5979 42 21C42 9.40199 32.5984 0 21 0C9.40252 0 1.90735e-06 9.40199 1.90735e-06 21Z" fill="#CECC39"/>
<path d="M30.5703 23.7616L21.8511 33.0148C21.114 33.7947 19.8936 33.7947 19.131 33.0148L10.3863 23.7885C10.132 23.5195 9.92882 23.2506 9.72541 22.9547H13.6148C13.9453 22.9547 14.2757 22.7663 14.479 22.4706L15.8516 20.3457L19.4614 25.86C19.6647 26.1559 19.9697 26.344 20.3256 26.344C20.6561 26.344 20.9865 26.1557 21.1899 25.86L23.1218 22.9281H26.2994C26.884 22.9281 27.3416 22.444 27.3416 21.8252C27.3416 21.2065 26.8842 20.7223 26.2994 20.7223L22.5373 20.7221C22.2068 20.7221 21.8765 20.9105 21.6731 21.2062L20.3005 23.3043L16.6906 17.8169C16.4872 17.521 16.1822 17.3328 15.8264 17.3328C15.4958 17.3328 15.1655 17.5212 14.9621 17.8169L13.0302 20.7488L8.68317 20.749C7.99677 18.3012 8.55603 15.5576 10.3863 13.6478C13.03 10.8504 17.3007 10.8504 19.9445 13.6478L20.4784 14.2127L20.9868 13.6478C23.6304 10.8504 27.9012 10.8504 30.5449 13.6478C33.2141 16.4451 33.2141 20.9642 30.5705 23.7617L30.5703 23.7616Z" fill="white"/>
</svg>
