<svg width="44" height="43" viewBox="0 0 44 43" fill="none" xmlns="http://www.w3.org/2000/svg">
<path d="M22 42.5C10.1264 42.5 0.5 32.8741 0.5 21C0.5 9.12584 10.1264 -0.5 22 -0.5C33.8746 -0.5 43.5 9.12585 43.5 21C43.5 32.8741 33.8746 42.5 22 42.5Z" stroke="#CECC39"/>
<path d="M31.5703 23.7616L22.8511 33.0148C22.114 33.7947 20.8936 33.7947 20.131 33.0148L11.3863 23.7885C11.132 23.5195 10.9288 23.2506 10.7254 22.9547H14.6148C14.9453 22.9547 15.2757 22.7663 15.479 22.4706L16.8516 20.3457L20.4614 25.86C20.6647 26.1559 20.9697 26.344 21.3256 26.344C21.6561 26.344 21.9865 26.1557 22.1899 25.86L24.1218 22.9281H27.2994C27.884 22.9281 28.3416 22.444 28.3416 21.8252C28.3416 21.2065 27.8842 20.7223 27.2994 20.7223L23.5373 20.7221C23.2068 20.7221 22.8765 20.9105 22.6731 21.2062L21.3005 23.3043L17.6906 17.8169C17.4872 17.521 17.1822 17.3328 16.8264 17.3328C16.4958 17.3328 16.1655 17.5212 15.9621 17.8169L14.0302 20.7488L9.68317 20.749C8.99677 18.3012 9.55603 15.5576 11.3863 13.6478C14.03 10.8504 18.3007 10.8504 20.9445 13.6478L21.4784 14.2127L21.9868 13.6478C24.6304 10.8504 28.9012 10.8504 31.5449 13.6478C34.2141 16.4451 34.2141 20.9642 31.5705 23.7617L31.5703 23.7616Z" fill="#CECC39"/>
</svg>
