<svg width="44" height="43" viewBox="0 0 44 43" fill="none" xmlns="http://www.w3.org/2000/svg">
<path fill-rule="evenodd" clip-rule="evenodd" d="M1 21C1 32.5979 10.4025 42 22 42C33.5984 42 43 32.5979 43 21C43 9.40199 33.5984 0 22 0C10.4025 0 1 9.40199 1 21Z" stroke="#FF9F82"/>
<path d="M28.7036 23.8874C26.4238 23.8859 24.238 22.983 22.626 21.3774C21.0138 19.7716 20.1076 17.5943 20.1059 15.3235C20.1041 14.9284 20.1316 14.5335 20.1883 14.1424H20.1059C19.9329 14.1424 19.7599 14.1506 19.5952 14.1588C19.209 13.4134 18.6244 12.7881 17.9055 12.3512C17.1866 11.9144 16.3611 11.6827 15.5188 11.6815H15.1647C14.9465 11.682 14.7373 11.7688 14.5831 11.9224C14.4289 12.076 14.3418 12.2844 14.3412 12.5017V16.4967C13.3708 17.4342 12.6517 18.599 12.2495 19.8845H11.0471C10.6107 19.8858 10.1925 20.059 9.88384 20.3664C9.57518 20.6738 9.4013 21.0904 9.40002 21.5251V24.8063C9.40131 25.241 9.57521 25.6576 9.88384 25.965C10.1925 26.2725 10.6107 26.4457 11.0471 26.447H12.2495C12.6517 27.7325 13.3708 28.8972 14.3412 29.8347V33.0094C14.3425 33.4441 14.5164 33.8606 14.825 34.1681C15.1336 34.4755 15.5518 34.6488 15.9883 34.65H17.6353C18.0717 34.6487 18.4899 34.4755 18.7986 34.1681C19.1072 33.8607 19.2811 33.4441 19.2824 33.0094V32.1481C19.5541 32.1726 19.8342 32.1891 20.1059 32.1891H25.0471C25.3188 32.1891 25.5989 32.1726 25.8706 32.1481V33.0094C25.8719 33.4441 26.0458 33.8606 26.3544 34.1681C26.6631 34.4755 27.0812 34.6488 27.5177 34.65H29.1647C29.6011 34.6487 30.0193 34.4755 30.328 34.1681C30.6366 33.8607 30.8105 33.4441 30.8118 33.0094V29.8347C31.5934 29.0726 32.2146 28.1626 32.6388 27.1583C33.0629 26.1541 33.2818 25.0756 33.2824 23.986V22.567C31.9131 23.4314 30.3248 23.8895 28.7035 23.8875L28.7036 23.8874ZM16.8118 20.7047C16.5935 20.7047 16.3839 20.6183 16.2295 20.4645C16.0751 20.3107 15.9883 20.1019 15.9883 19.8844C15.9883 19.6669 16.0751 19.4581 16.2295 19.3043C16.3839 19.1505 16.5935 19.0641 16.8118 19.0641C17.0302 19.0641 17.2398 19.1505 17.3942 19.3043C17.5486 19.4581 17.6354 19.6669 17.6354 19.8844C17.6348 20.1017 17.5477 20.3101 17.3935 20.4637C17.2392 20.6173 17.03 20.7041 16.8119 20.7047L16.8118 20.7047Z" fill="#FF9F82"/>
<path fill-rule="evenodd" clip-rule="evenodd" d="M23.9309 10.2179C25.2345 8.91947 27.0023 8.19 28.8457 8.19C30.6883 8.1931 32.4543 8.92378 33.757 10.2216C35.0598 11.5191 35.7931 13.2782 35.7962 15.1135C35.7962 16.9496 35.064 18.7107 33.7605 20.0091C32.4571 21.3075 30.6892 22.0368 28.8457 22.0368C27.0022 22.0368 25.2344 21.3074 23.9309 20.0091C22.6274 18.7107 21.895 16.9498 21.895 15.1135C21.895 13.2772 22.6273 11.5163 23.9309 10.2179ZM25.8172 13.8352C25.8172 13.5335 26.0261 13.2782 26.2948 13.2782L26.2948 13.2898H29.2897C29.1006 12.8023 28.6827 12.4541 28.1952 12.4541H26.2947C26.036 12.4541 25.8171 12.1988 25.8171 11.8971C25.8171 11.5953 26.0261 11.34 26.2947 11.34H28.1952L31.2896 11.3401C31.5482 11.3401 31.7671 11.5954 31.7671 11.8971C31.7671 12.1989 31.5582 12.4542 31.2896 12.4542H29.9861C30.1254 12.7095 30.2349 12.9881 30.2946 13.2898H31.2896C31.5482 13.2898 31.7671 13.5452 31.7671 13.8469C31.7671 14.1487 31.5582 14.404 31.2896 14.404H30.2946C30.0955 15.4369 29.3394 16.2261 28.424 16.3422C28.3544 16.3538 28.2748 16.3538 28.1952 16.3538H27.6778L29.1902 18.1295L30.1951 19.3133C30.3842 19.5338 30.3842 19.882 30.1951 20.1025C30.1056 20.2069 29.9762 20.265 29.8569 20.265C29.7375 20.265 29.6081 20.2069 29.5186 20.1025L26.1655 16.1913C26.0361 16.0288 25.9963 15.785 26.0659 15.5761C26.1455 15.3672 26.3147 15.2279 26.5137 15.2279H28.1852C28.6728 15.2279 29.0907 14.8798 29.2797 14.3923H26.2948C26.0361 14.3923 25.8172 14.137 25.8172 13.8352Z" fill="#FF9F82"/>
</svg>
