<svg width="42" height="42" viewBox="0 0 42 42" fill="none" xmlns="http://www.w3.org/2000/svg">
<path fill-rule="evenodd" clip-rule="evenodd" d="M1.90735e-06 21C1.90735e-06 32.5979 9.40252 42 21 42C32.5984 42 42 32.5979 42 21C42 9.40199 32.5984 0 21 0C9.40252 0 1.90735e-06 9.40199 1.90735e-06 21Z" fill="#FF9F82"/>
<path d="M27.7036 23.8874C25.4238 23.8859 23.238 22.983 21.626 21.3774C20.0138 19.7716 19.1076 17.5943 19.1059 15.3235C19.1041 14.9284 19.1316 14.5335 19.1883 14.1424H19.1059C18.9329 14.1424 18.7599 14.1506 18.5952 14.1588C18.209 13.4134 17.6244 12.7881 16.9055 12.3512C16.1866 11.9144 15.3611 11.6827 14.5188 11.6815H14.1647C13.9465 11.682 13.7373 11.7688 13.5831 11.9224C13.4289 12.076 13.3418 12.2844 13.3412 12.5017V16.4967C12.3708 17.4342 11.6517 18.599 11.2495 19.8845H10.0471C9.61069 19.8858 9.19249 20.059 8.88384 20.3664C8.57518 20.6738 8.4013 21.0904 8.40002 21.5251V24.8063C8.40131 25.241 8.57521 25.6576 8.88384 25.965C9.19246 26.2725 9.61066 26.4457 10.0471 26.447H11.2495C11.6517 27.7325 12.3708 28.8972 13.3412 29.8347V33.0094C13.3425 33.4441 13.5164 33.8606 13.825 34.1681C14.1336 34.4755 14.5518 34.6488 14.9883 34.65H16.6353C17.0717 34.6487 17.4899 34.4755 17.7986 34.1681C18.1072 33.8607 18.2811 33.4441 18.2824 33.0094V32.1481C18.5541 32.1726 18.8342 32.1891 19.1059 32.1891H24.0471C24.3188 32.1891 24.5989 32.1726 24.8706 32.1481V33.0094C24.8719 33.4441 25.0458 33.8606 25.3544 34.1681C25.6631 34.4755 26.0812 34.6488 26.5177 34.65H28.1647C28.6011 34.6487 29.0193 34.4755 29.328 34.1681C29.6366 33.8607 29.8105 33.4441 29.8118 33.0094V29.8347C30.5934 29.0726 31.2146 28.1626 31.6388 27.1583C32.0629 26.1541 32.2818 25.0756 32.2824 23.986V22.567C30.9131 23.4314 29.3248 23.8895 27.7035 23.8875L27.7036 23.8874ZM15.8118 20.7047C15.5935 20.7047 15.3839 20.6183 15.2295 20.4645C15.0751 20.3107 14.9883 20.1019 14.9883 19.8844C14.9883 19.6669 15.0751 19.4581 15.2295 19.3043C15.3839 19.1505 15.5935 19.0641 15.8118 19.0641C16.0302 19.0641 16.2398 19.1505 16.3942 19.3043C16.5486 19.4581 16.6354 19.6669 16.6354 19.8844C16.6348 20.1017 16.5477 20.3101 16.3935 20.4637C16.2392 20.6173 16.03 20.7041 15.8119 20.7047L15.8118 20.7047Z" fill="white"/>
<path fill-rule="evenodd" clip-rule="evenodd" d="M22.9309 10.2179C24.2345 8.91947 26.0023 8.19 27.8457 8.19C29.6883 8.1931 31.4543 8.92378 32.757 10.2216C34.0598 11.5191 34.7931 13.2782 34.7962 15.1135C34.7962 16.9496 34.064 18.7107 32.7605 20.0091C31.4571 21.3075 29.6892 22.0368 27.8457 22.0368C26.0022 22.0368 24.2344 21.3074 22.9309 20.0091C21.6274 18.7107 20.895 16.9498 20.895 15.1135C20.895 13.2772 21.6273 11.5163 22.9309 10.2179ZM24.8172 13.8352C24.8172 13.5335 25.0261 13.2782 25.2948 13.2782L25.2948 13.2898H28.2897C28.1006 12.8023 27.6827 12.4541 27.1952 12.4541H25.2947C25.036 12.4541 24.8171 12.1988 24.8171 11.8971C24.8171 11.5953 25.0261 11.34 25.2947 11.34H27.1952L30.2896 11.3401C30.5482 11.3401 30.7671 11.5954 30.7671 11.8971C30.7671 12.1989 30.5582 12.4542 30.2896 12.4542H28.9861C29.1254 12.7095 29.2349 12.9881 29.2946 13.2898H30.2896C30.5482 13.2898 30.7671 13.5452 30.7671 13.8469C30.7671 14.1487 30.5582 14.404 30.2896 14.404H29.2946C29.0955 15.4369 28.3394 16.2261 27.424 16.3422C27.3544 16.3538 27.2748 16.3538 27.1952 16.3538H26.6778L28.1902 18.1295L29.1951 19.3133C29.3842 19.5338 29.3842 19.882 29.1951 20.1025C29.1056 20.2069 28.9762 20.265 28.8569 20.265C28.7375 20.265 28.6081 20.2069 28.5186 20.1025L25.1655 16.1913C25.0361 16.0288 24.9963 15.785 25.0659 15.5761C25.1455 15.3672 25.3147 15.2279 25.5137 15.2279H27.1852C27.6728 15.2279 28.0907 14.8798 28.2797 14.3923H25.2948C25.0361 14.3923 24.8172 14.137 24.8172 13.8352Z" fill="white"/>
</svg>
