<svg width="42" height="42" viewBox="0 0 42 42" fill="none" xmlns="http://www.w3.org/2000/svg">
<path d="M21 4.20001C11.76 4.20001 4.19995 11.76 4.19995 21C4.19995 30.24 11.76 37.8 21 37.8C30.24 37.8 37.7999 30.24 37.7999 21C37.7999 11.76 30.24 4.20001 21 4.20001ZM21 35C13.3 35 6.99995 28.7 6.99995 21C6.99995 13.3 13.3 7.00001 21 7.00001C28.7 7.00001 35 13.3 35 21C35 28.7 28.7 35 21 35Z" fill="#B2B2B2"/>
<path d="M13.16 18.3399C11.62 18.3399 10.5 19.5999 10.5 20.9999C10.5 22.5399 11.76 23.6599 13.16 23.6599C14.7 23.6599 15.82 22.3999 15.82 20.9999C15.82 19.4599 14.7 18.3399 13.16 18.3399Z" fill="#B2B2B2"/>
<path d="M20.9998 18.3399C19.4598 18.3399 18.3398 19.5999 18.3398 20.9999C18.3398 22.5399 19.5998 23.6599 20.9998 23.6599C22.5398 23.6599 23.6598 22.3999 23.6598 20.9999C23.6598 19.4599 22.5398 18.3399 20.9998 18.3399Z" fill="#B2B2B2"/>
<path d="M28.8399 18.3399C27.2999 18.3399 26.1799 19.5999 26.1799 20.9999C26.1799 22.5399 27.4399 23.6599 28.8399 23.6599C30.3799 23.6599 31.4999 22.3999 31.4999 20.9999C31.4999 19.4599 30.2399 18.3399 28.8399 18.3399Z" fill="#B2B2B2"/>
</svg>
