<svg width="42" height="42" viewBox="0 0 42 42" fill="none" xmlns="http://www.w3.org/2000/svg">
<path fill-rule="evenodd" clip-rule="evenodd" d="M1.90735e-06 21C1.90735e-06 32.5979 9.40252 42 21 42C32.5984 42 42 32.5979 42 21C42 9.40199 32.5984 0 21 0C9.40252 0 1.90735e-06 9.40199 1.90735e-06 21Z" fill="#B2B2B2"/>
<path d="M21 4.20001C11.76 4.20001 4.20001 11.76 4.20001 21C4.20001 30.24 11.76 37.8 21 37.8C30.24 37.8 37.8 30.24 37.8 21C37.8 11.76 30.24 4.20001 21 4.20001ZM21 35C13.3 35 7.00001 28.7 7.00001 21C7.00001 13.3 13.3 7.00001 21 7.00001C28.7 7.00001 35 13.3 35 21C35 28.7 28.7 35 21 35Z" fill="white"/>
<path d="M13.16 18.3399C11.62 18.3399 10.5 19.5999 10.5 20.9999C10.5 22.5399 11.76 23.6599 13.16 23.6599C14.7 23.6599 15.82 22.3999 15.82 20.9999C15.82 19.4599 14.7 18.3399 13.16 18.3399Z" fill="white"/>
<path d="M21 18.3399C19.46 18.3399 18.34 19.5999 18.34 20.9999C18.34 22.5399 19.6 23.6599 21 23.6599C22.54 23.6599 23.66 22.3999 23.66 20.9999C23.66 19.4599 22.54 18.3399 21 18.3399Z" fill="white"/>
<path d="M28.84 18.3399C27.3 18.3399 26.18 19.5999 26.18 20.9999C26.18 22.5399 27.44 23.6599 28.84 23.6599C30.38 23.6599 31.5 22.3999 31.5 20.9999C31.5 19.4599 30.24 18.3399 28.84 18.3399Z" fill="white"/>
</svg>
