<svg width="40" height="40" viewBox="0 0 40 40" fill="none" xmlns="http://www.w3.org/2000/svg">
<path d="M0 20C0 8.95431 8.95431 0 20 0C31.0457 0 40 8.95431 40 20C40 31.0457 31.0457 40 20 40C8.95431 40 0 31.0457 0 20Z" fill="#FFF1DE"/>
<path fill-rule="evenodd" clip-rule="evenodd" d="M26.2455 30.6861C26.2455 31.5726 25.5268 32.2913 24.6403 32.2913L24.5513 32.2913C24.2039 32.2913 23.8658 32.1786 23.5879 31.9701L23.0867 31.594C22.6154 31.2403 21.9881 31.1734 21.4527 31.4196L20.3065 31.9467C19.8362 32.163 19.2904 32.1392 18.8407 31.8827L18.1075 31.4647C17.623 31.1883 17.0297 31.1834 16.5406 31.4516L15.7963 31.8597C15.3072 32.1279 14.7139 32.1229 14.2293 31.8466L13.5913 31.4828C13.0896 31.1967 12.4729 31.2022 11.9764 31.4971L11.0184 32.0662C10.7704 32.2135 10.4872 32.2913 10.1986 32.2913L10.0152 32.2913C9.12868 32.2913 8.41001 31.5726 8.41001 30.6861L8.41001 21.6897C9.43717 21.4249 10.1936 20.5224 10.1936 19.4498C10.1936 18.3771 9.43718 17.4746 8.41001 17.2098L8.41001 9.10519C8.41001 8.21867 9.12868 7.5 10.0152 7.5L24.6403 7.5C25.5268 7.5 26.2455 8.21867 26.2455 9.10519L26.2455 17.2631C25.3103 17.5814 24.6403 18.4402 24.6403 19.4498C24.6403 20.4593 25.3103 21.3182 26.2455 21.6364L26.2455 30.6861Z" fill="#FEC192"/>
<mask id="mask0_173_2460" style="mask-type:alpha" maskUnits="userSpaceOnUse" x="8" y="7" width="19" height="26">
<path fill-rule="evenodd" clip-rule="evenodd" d="M26.4161 30.9692C26.4161 31.8557 25.6974 32.5744 24.8109 32.5744L24.7219 32.5744C24.3745 32.5744 24.0364 32.4616 23.7585 32.2531L23.2573 31.8771C22.786 31.5234 22.1587 31.4564 21.6233 31.7027L20.4771 32.2297C20.0068 32.446 19.461 32.4222 19.0113 32.1658L18.2781 31.7477C17.7936 31.4714 17.2003 31.4664 16.7112 31.7346L15.9668 32.1428C15.4777 32.411 14.8845 32.406 14.3999 32.1297L13.7619 31.7659C13.2602 31.4798 12.6435 31.4852 12.147 31.7802L11.189 32.3492C10.941 32.4966 10.6578 32.5744 10.3692 32.5744L10.1858 32.5744C9.29927 32.5744 8.5806 31.8557 8.5806 30.9692L8.5806 21.9727C9.60776 21.708 10.3641 20.8055 10.3641 19.7328C10.3641 18.6602 9.60776 17.7577 8.5806 17.4929L8.5806 9.38824C8.5806 8.50172 9.29927 7.78305 10.1858 7.78305L24.8109 7.78305C25.6974 7.78305 26.4161 8.50172 26.4161 9.38824L26.4161 17.5461C25.4809 17.8644 24.8109 18.7233 24.8109 19.7328C24.8109 20.7424 25.4809 21.6012 26.4161 21.9195L26.4161 30.9692Z" fill="#FFB277"/>
</mask>
<g mask="url(#mask0_173_2460)">
<path d="M5.40516 29.9717C5.40516 27.6077 7.32161 25.6912 9.68567 25.6912C12.0497 25.6912 13.9662 27.6077 13.9662 29.9717C13.9662 32.3358 12.0497 34.2523 9.68567 34.2523C7.32161 34.2523 5.40516 32.3358 5.40516 29.9717Z" fill="#FFB882"/>
<path d="M5.40516 9.6393C5.40516 7.27524 7.32161 5.35879 9.68567 5.35879C12.0497 5.35879 13.9662 7.27524 13.9662 9.6393C13.9662 12.0034 12.0497 13.9198 9.68567 13.9198C7.32161 13.9198 5.40516 12.0034 5.40516 9.6393Z" fill="#FFB882"/>
<path d="M20.2089 9.6393C20.2089 7.27523 22.1254 5.35878 24.4894 5.35878C26.8535 5.35878 28.77 7.27523 28.77 9.6393C28.77 12.0034 26.8535 13.9198 24.4894 13.9198C22.1254 13.9198 20.2089 12.0034 20.2089 9.6393Z" fill="#FFB882"/>
<path d="M20.2089 30.3292C20.2089 27.9651 22.1254 26.0487 24.4894 26.0487C26.8535 26.0487 28.77 27.9651 28.77 30.3292C28.77 32.6932 26.8535 34.6097 24.4894 34.6097C22.1254 34.6097 20.2089 32.6932 20.2089 30.3292Z" fill="#FFB882"/>
</g>
<path d="M21.9043 19.6861C22.1506 19.6861 22.3502 19.4864 22.3502 19.2402C22.3502 18.9939 22.1506 18.7943 21.9043 18.7943L12.8082 18.7943C12.562 18.7943 12.3624 18.9939 12.3624 19.2402C12.3624 19.4864 12.562 19.6861 12.8082 19.6861L21.9043 19.6861Z" fill="#49569E"/>
<path d="M18.1593 17.1894C18.4056 17.1894 18.6052 16.9898 18.6052 16.7435C18.6052 16.4972 18.4056 16.2976 18.1593 16.2976L12.8087 16.2976C12.5624 16.2976 12.3628 16.4972 12.3628 16.7435C12.3628 16.9898 12.5624 17.1894 12.8087 17.1894L18.1593 17.1894Z" fill="#49569E"/>
<path d="M20.8346 14.8706C21.0809 14.8706 21.2805 14.671 21.2805 14.4247C21.2805 14.1784 21.0809 13.9788 20.8346 13.9788L12.8087 13.9788C12.5624 13.9788 12.3628 14.1784 12.3628 14.4247C12.3628 14.671 12.5624 14.8706 12.8087 14.8706L20.8346 14.8706Z" fill="#49569E"/>
<path d="M35.406 27.0643C32.8687 30.931 27.72 32.0368 23.906 29.5342C20.092 27.0315 19.0569 21.8681 21.5942 18.0014C24.1314 14.1346 29.2802 13.0288 33.0942 15.5315C36.9082 18.0341 37.9432 23.1975 35.406 27.0643Z" fill="#5563DA"/>
<path fill-rule="evenodd" clip-rule="evenodd" d="M24.3236 28.8977C27.7779 31.1643 32.4575 30.1701 34.7695 26.6466C37.0815 23.1231 36.1308 18.4345 32.6765 16.1679C29.2223 13.9013 24.5427 14.8955 22.2307 18.419C19.9187 21.9425 20.8693 26.6311 24.3236 28.8977ZM23.906 29.5342C27.72 32.0368 32.8687 30.931 35.406 27.0643C37.9432 23.1975 36.9082 18.0341 33.0942 15.5315C29.2802 13.0288 24.1314 14.1346 21.5942 18.0014C19.0569 21.8681 20.092 27.0315 23.906 29.5342Z" fill="white"/>
<path fill-rule="evenodd" clip-rule="evenodd" d="M27.3061 29.7832C30.0931 30.2194 33.024 29.0164 34.6906 26.4766C36.9514 23.0311 36.0291 18.4302 32.6306 16.2002C31.1013 15.1967 29.3312 14.8443 27.6407 15.0741C28.6345 15.2297 29.6101 15.5937 30.5034 16.1799C33.9019 18.4099 34.8242 23.0109 32.5634 26.4564C31.3199 28.3514 29.3724 29.5023 27.3061 29.7832Z" fill="#162079"/>
<path fill-rule="evenodd" clip-rule="evenodd" d="M28 22.006C30.2091 22.006 32 23.8981 32 26.2322L32 27.006H24V26.249C24 26.2434 24 26.2378 24 26.2322C24 23.8981 25.7909 22.006 28 22.006Z" fill="white"/>
<path d="M30 19.506C30 20.6106 29.1046 21.506 28 21.506C26.8954 21.506 26 20.6106 26 19.506C26 18.4014 26.8954 17.506 28 17.506C29.1046 17.506 30 18.4014 30 19.506Z" fill="white"/>
</svg>
