<svg width="42" height="42" viewBox="0 0 42 42" fill="none" xmlns="http://www.w3.org/2000/svg">
<path fill-rule="evenodd" clip-rule="evenodd" d="M1.90735e-06 21C1.90735e-06 32.5979 9.40252 42 21 42C32.5984 42 42 32.5979 42 21C42 9.40199 32.5984 0 21 0C9.40252 0 1.90735e-06 9.40199 1.90735e-06 21Z" fill="#A2DFEC"/>
<path d="M31.5088 14.8927C30.8735 14.1758 29.9408 13.7626 28.9586 13.7631H13.368V12.6973C13.368 11.8494 13.016 11.0362 12.3894 10.4365C11.763 9.83686 10.9132 9.5 10.0271 9.5H8.91358C8.51574 9.5 8.1481 9.70322 7.94918 10.0329C7.75026 10.3627 7.75026 10.7689 7.94918 11.0986C8.1481 11.4284 8.51574 11.6316 8.91358 11.6316H10.0271C10.3224 11.6316 10.6058 11.7438 10.8146 11.9438C11.0234 12.1436 11.1407 12.4147 11.1407 12.6973V23.3551C11.1444 24.3689 11.4503 25.3606 12.0223 26.2138C12.5945 27.0672 13.4088 27.7466 14.3702 28.1723C13.8001 29.1181 13.7736 30.2767 14.2999 31.2454C14.8262 32.214 15.8327 32.8586 16.9692 32.955C18.1055 33.0513 19.2148 32.586 19.9109 31.721C20.6069 30.8559 20.7937 29.7108 20.4059 28.6838H23.0342C22.6449 29.7022 22.8216 30.84 23.5036 31.706C24.1854 32.5721 25.2795 33.0483 26.4097 32.971C27.54 32.8938 28.5522 32.2736 29.0986 31.3237C29.6448 30.3736 29.6508 29.2234 29.1144 28.2682C29.9964 27.7944 30.6064 26.9635 30.7737 26.0087L32.2548 17.4825V17.4827C32.4156 16.5564 32.1426 15.6093 31.5087 14.8928L31.5088 14.8927ZM19.0251 20.1577H24.5933H24.5931C24.991 20.1577 25.3586 20.3607 25.5575 20.6904C25.7565 21.0202 25.7565 21.4266 25.5575 21.7563C25.3586 22.0861 24.991 22.2891 24.5931 22.2891H19.0249H19.0251C18.6271 22.2891 18.2596 22.086 18.0605 21.7563C17.8616 21.4266 17.8616 21.0202 18.0605 20.6904C18.2596 20.3607 18.6271 20.1577 19.0251 20.1577ZM18.3791 29.7495C18.3791 30.0321 18.2619 30.3031 18.0529 30.503C17.8441 30.703 17.5609 30.8152 17.2656 30.8152C16.9701 30.8152 16.6869 30.703 16.4781 30.503C16.2693 30.3031 16.1519 30.0321 16.1519 29.7495C16.1519 29.4667 16.2693 29.1957 16.4781 28.9959C16.6869 28.796 16.9701 28.6836 17.2656 28.6836C17.5609 28.6836 17.8441 28.796 18.0529 28.9959C18.2619 29.1957 18.3791 29.4667 18.3791 29.7495ZM26.1742 30.8152C25.8789 30.8152 25.5958 30.703 25.387 30.503C25.178 30.3031 25.0607 30.0321 25.0607 29.7495C25.0607 29.4667 25.178 29.1957 25.387 28.9959C25.5958 28.796 25.879 28.6836 26.1742 28.6836C26.4697 28.6836 26.7529 28.796 26.9617 28.9959C27.1705 29.1957 27.288 29.4667 27.288 29.7495C27.288 30.0321 27.1705 30.3031 26.9617 30.503C26.7529 30.703 26.4697 30.8152 26.1742 30.8152Z" fill="white"/>
</svg>
