<svg width="44" height="43" viewBox="0 0 44 43" fill="none" xmlns="http://www.w3.org/2000/svg">
<path d="M22 42.5C10.1264 42.5 0.5 32.8741 0.5 21C0.5 9.12584 10.1264 -0.5 22 -0.5C33.8746 -0.5 43.5 9.12585 43.5 21C43.5 32.8741 33.8746 42.5 22 42.5Z" stroke="#A2DFEC"/>
<path d="M32.5089 14.8927C31.8736 14.1758 30.9409 13.7626 29.9587 13.7631H14.368V12.6973C14.368 11.8494 14.016 11.0362 13.3894 10.4365C12.763 9.83686 11.9133 9.5 11.0272 9.5H9.91364C9.5158 9.5 9.14816 9.70322 8.94924 10.0329C8.75032 10.3627 8.75032 10.7689 8.94924 11.0986C9.14816 11.4284 9.5158 11.6316 9.91364 11.6316H11.0272C11.3225 11.6316 11.6059 11.7438 11.8147 11.9438C12.0235 12.1436 12.1407 12.4147 12.1407 12.6973V23.3551C12.1445 24.3689 12.4504 25.3606 13.0224 26.2138C13.5945 27.0672 14.4089 27.7466 15.3703 28.1723C14.8002 29.1181 14.7737 30.2767 15.3 31.2454C15.8263 32.214 16.8328 32.8586 17.9693 32.955C19.1056 33.0513 20.2149 32.586 20.911 31.721C21.6069 30.8559 21.7937 29.7108 21.406 28.6838H24.0342C23.645 29.7022 23.8217 30.84 24.5037 31.706C25.1854 32.5721 26.2796 33.0483 27.4098 32.971C28.5401 32.8938 29.5522 32.2736 30.0986 31.3237C30.6449 30.3736 30.6508 29.2234 30.1145 28.2682C30.9965 27.7944 31.6065 26.9635 31.7737 26.0087L33.2549 17.4825V17.4827C33.4156 16.5564 33.1427 15.6093 32.5088 14.8928L32.5089 14.8927ZM20.0252 20.1577H25.5934H25.5932C25.991 20.1577 26.3587 20.3607 26.5576 20.6904C26.7565 21.0202 26.7565 21.4266 26.5576 21.7563C26.3587 22.0861 25.991 22.2891 25.5932 22.2891H20.025H20.0252C19.6272 22.2891 19.2597 22.086 19.0606 21.7563C18.8617 21.4266 18.8617 21.0202 19.0606 20.6904C19.2597 20.3607 19.6271 20.1577 20.0252 20.1577ZM19.3792 29.7495C19.3792 30.0321 19.2619 30.3031 19.053 30.503C18.8442 30.703 18.5609 30.8152 18.2657 30.8152C17.9702 30.8152 17.687 30.703 17.4782 30.503C17.2694 30.3031 17.1519 30.0321 17.1519 29.7495C17.1519 29.4667 17.2694 29.1957 17.4782 28.9959C17.687 28.796 17.9702 28.6836 18.2657 28.6836C18.561 28.6836 18.8442 28.796 19.053 28.9959C19.2619 29.1957 19.3792 29.4667 19.3792 29.7495ZM27.1743 30.8152C26.879 30.8152 26.5958 30.703 26.387 30.503C26.178 30.3031 26.0608 30.0321 26.0608 29.7495C26.0608 29.4667 26.178 29.1957 26.387 28.9959C26.5958 28.796 26.879 28.6836 27.1743 28.6836C27.4698 28.6836 27.753 28.796 27.9618 28.9959C28.1706 29.1957 28.288 29.4667 28.288 29.7495C28.288 30.0321 28.1706 30.3031 27.9618 30.503C27.753 30.703 27.4698 30.8152 27.1743 30.8152Z" fill="#A2DFEC"/>
</svg>
