<svg width="42" height="42" viewBox="0 0 42 42" fill="none" xmlns="http://www.w3.org/2000/svg">
<path d="M20.1304 41C31.6564 41 41 32.6852 41 21.3996C41 10.1139 33.3955 1 21.8696 1C10.3436 1 1 10.1488 1 21.4344C1 32.72 8.60449 41 20.1304 41Z" fill="#A07133" stroke="#A07133"/>
<path d="M21.3636 23.8333H21.8636V23.3333V14.7667H30.4545C32.691 14.7667 34.5 16.5727 34.5 18.8V28.5H33.2273V25.6V25.1H32.7273H12.2727H11.7727V25.6V28.5H10.5V12.5H11.7727V23.3333V23.8333H12.2727H21.3636ZM23.1364 23.3333V23.8333H23.6364H32.7273H33.2273V23.3333V18.8C33.2273 17.276 31.9794 16.0333 30.4545 16.0333H23.6364H23.1364V16.5333V23.3333ZM19.7273 18.8C19.7273 20.4039 18.4296 21.7 16.8182 21.7C15.2067 21.7 13.9091 20.4039 13.9091 18.8C13.9091 17.1961 15.2067 15.9 16.8182 15.9C18.4296 15.9 19.7273 17.1961 19.7273 18.8ZM18.4545 18.8C18.4545 17.8993 17.7181 17.1667 16.8182 17.1667C15.9183 17.1667 15.1818 17.8993 15.1818 18.8C15.1818 19.7007 15.9183 20.4333 16.8182 20.4333C17.7181 20.4333 18.4545 19.7007 18.4545 18.8Z" stroke="white"/>
</svg>
