<svg width="46" height="46" viewBox="0 0 46 46" fill="none" xmlns="http://www.w3.org/2000/svg">
<path d="M22.0435 45C34.722 45 45 35.8537 45 23.4395C45 11.0253 36.6351 1 23.9565 1C11.278 1 1 11.0637 1 23.4779C1 35.8921 9.36494 45 22.0435 45Z" stroke="#A07133"/>
<path d="M21.3636 25.8333H21.8636V25.3333V16.7667H30.4545C32.691 16.7667 34.5 18.5727 34.5 20.8V30.5H33.2273V27.6V27.1H32.7273H12.2727H11.7727V27.6V30.5H10.5V14.5H11.7727V25.3333V25.8333H12.2727H21.3636ZM23.1364 25.3333V25.8333H23.6364H32.7273H33.2273V25.3333V20.8C33.2273 19.276 31.9794 18.0333 30.4545 18.0333H23.6364H23.1364V18.5333V25.3333ZM19.7273 20.8C19.7273 22.4039 18.4296 23.7 16.8182 23.7C15.2067 23.7 13.9091 22.4039 13.9091 20.8C13.9091 19.1961 15.2067 17.9 16.8182 17.9C18.4296 17.9 19.7273 19.1961 19.7273 20.8ZM18.4545 20.8C18.4545 19.8993 17.7181 19.1667 16.8182 19.1667C15.9183 19.1667 15.1818 19.8993 15.1818 20.8C15.1818 21.7007 15.9183 22.4333 16.8182 22.4333C17.7181 22.4333 18.4545 21.7007 18.4545 20.8Z" stroke="#A07133"/>
</svg>
