<svg width="46" height="46" viewBox="0 0 46 46" fill="none" xmlns="http://www.w3.org/2000/svg">
<path d="M22.0435 45C34.722 45 45 35.8537 45 23.4395C45 11.0253 36.6351 1 23.9565 1C11.278 1 1 11.0637 1 23.4779C1 35.8921 9.36494 45 22.0435 45Z" stroke="#FF82A4"/>
<path fill-rule="evenodd" clip-rule="evenodd" d="M15.6 11H29.4V13.2H15.6V11ZM13.3 15.4H31.7V17.6H13.3V15.4ZM13.3 19.8H31.7C32.965 19.8 34 20.79 34 22V30.8C34 32.01 32.965 33 31.7 33H13.3C12.035 33 11 32.01 11 30.8V22C11 20.79 12.035 19.8 13.3 19.8ZM31.7 30.8H13.3V22H31.7V30.8ZM20.2 29.986V22.803L27.1 26.4L20.2 29.986Z" fill="#FF82A4"/>
</svg>
