<svg width="42" height="42" viewBox="0 0 42 42" fill="none" xmlns="http://www.w3.org/2000/svg">
<path d="M20.1304 41C31.6564 41 41 32.6852 41 21.3996C41 10.1139 33.3955 1 21.8696 1C10.3436 1 1 10.1488 1 21.4344C1 32.72 8.60449 41 20.1304 41Z" fill="#FF82A4" stroke="#FF82A4"/>
<path fill-rule="evenodd" clip-rule="evenodd" d="M14.6 9H28.4V11.2H14.6V9ZM12.3 13.4H30.7V15.6H12.3V13.4ZM12.3 17.8H30.7C31.965 17.8 33 18.79 33 20V28.8C33 30.01 31.965 31 30.7 31H12.3C11.035 31 10 30.01 10 28.8V20C10 18.79 11.035 17.8 12.3 17.8ZM30.7 28.8H12.3V20H30.7V28.8ZM19.2 27.986V20.803L26.1 24.4L19.2 27.986Z" fill="white"/>
</svg>
