<svg width="44" height="43" viewBox="0 0 44 43" fill="none" xmlns="http://www.w3.org/2000/svg">
<path fill-rule="evenodd" clip-rule="evenodd" d="M1 21C1 32.5979 10.4025 42 22 42C33.5984 42 43 32.5979 43 21C43 9.40199 33.5984 0 22 0C10.4025 0 1 9.40199 1 21Z" fill="#97C6B7" stroke="#97C6B7"/>
<g clip-path="url(#clip0_2322_2743)">
<rect width="29" height="29" transform="matrix(0 -1 1 0 7 35)" fill="#97C6B7"/>
<path d="M14.8542 15.0678C14.8542 14.0669 15.6657 13.2553 16.6667 13.2553H26.8338L25.6558 12.0773C24.948 11.3696 24.948 10.2219 25.6558 9.5141C26.3637 8.80626 27.5114 8.80626 28.2191 9.5141L32.4913 13.7863C33.1991 14.494 33.1991 15.6417 32.4913 16.3495L28.2191 20.6216C27.5114 21.3294 26.3637 21.3294 25.6558 20.6216C24.948 19.9137 24.948 18.7662 25.6558 18.0583L26.8338 16.8803H16.6667C15.6657 16.8803 14.8542 16.0688 14.8542 15.0678ZM10.5087 24.6612L14.7808 20.3891C15.4886 19.6813 16.6362 19.6813 17.344 20.3891C18.0518 21.097 18.0518 22.2446 17.344 22.9523L16.166 24.1304H26.3332C27.3342 24.1304 28.1457 24.9418 28.1457 25.9429C28.1457 26.9439 27.3342 27.7554 26.3332 27.7554H16.166L17.344 28.9333C18.0518 29.6412 18.0518 30.7888 17.344 31.4966C16.6362 32.2044 15.4886 32.2044 14.7808 31.4966L10.5087 27.2245C9.80083 26.5167 9.80083 25.3691 10.5087 24.6612Z" fill="white"/>
</g>
<defs>
<clipPath id="clip0_2322_2743">
<rect width="29" height="29" fill="white" transform="matrix(0 -1 1 0 7 35)"/>
</clipPath>
</defs>
</svg>
