<svg width="44" height="43" viewBox="0 0 44 43" fill="none" xmlns="http://www.w3.org/2000/svg">
<path d="M29.4242 14.035H28.4432C28.2501 11.3548 26.2659 9.23921 23.8498 9.23921L20.1499 9.23942C17.7333 9.23942 15.7492 11.3545 15.5568 14.0352H14.5747C12.2975 14.0352 10.45 16.0802 10.45 18.6032V27.4326C10.45 29.9552 12.2971 32 14.5747 32H29.4243C31.703 32 33.55 29.9554 33.55 27.4326L33.5498 18.6026C33.5498 16.0799 31.7031 14.035 29.4242 14.035ZM20.1501 11.5225H23.8501C25.1303 11.5225 25.9451 12.6171 26.1247 14.0352L17.8745 14.035C18.0548 12.6171 18.8704 11.5225 20.1501 11.5225ZM19.1438 27.988C19.1438 28.7634 18.5758 29.393 17.8748 29.393C17.1738 29.393 16.6059 28.7635 16.6059 27.988V18.6941C16.6059 18.4776 16.6536 18.2755 16.7323 18.0922C16.9358 17.6183 17.3688 17.2891 17.8745 17.2891C18.5753 17.2891 19.1434 17.918 19.1434 18.6941L19.1438 27.988ZM27.3936 27.988C27.3936 28.7634 26.8257 29.393 26.1247 29.393C25.4237 29.393 24.8557 28.7635 24.8557 27.988V18.6941C24.8557 17.9182 25.4233 17.2891 26.1247 17.2891C26.6301 17.2891 27.0633 17.6185 27.2669 18.0922C27.3457 18.2751 27.3933 18.4773 27.3933 18.6941L27.3936 27.988Z" fill="#5A9BB8"/>
<path fill-rule="evenodd" clip-rule="evenodd" d="M1 21C1 32.5979 10.4025 42 22 42C33.5984 42 43 32.5979 43 21C43 9.40199 33.5984 0 22 0C10.4025 0 1 9.40199 1 21Z" stroke="#5A9BB8"/>
</svg>
