<svg width="42" height="42" viewBox="0 0 42 42" fill="none" xmlns="http://www.w3.org/2000/svg">
<path fill-rule="evenodd" clip-rule="evenodd" d="M0 21C0 32.5979 9.40252 42 21 42C32.5984 42 42 32.5979 42 21C42 9.40199 32.5984 0 21 0C9.40252 0 0 9.40199 0 21Z" fill="#5A9BB8"/>
<path d="M28.4243 14.035H27.4433C27.2502 11.3548 25.2659 9.23921 22.8499 9.23921L19.15 9.23942C16.7333 9.23942 14.7493 11.3545 14.5569 14.0352H13.5747C11.2976 14.0352 9.45001 16.0802 9.45001 18.6032V27.4326C9.45001 29.9552 11.2972 32 13.5747 32H28.4244C30.703 32 32.55 29.9554 32.55 27.4326L32.5498 18.6026C32.5498 16.0799 30.7031 14.035 28.4243 14.035ZM19.1501 11.5225H22.8502C24.1304 11.5225 24.9451 12.6171 25.1247 14.0352L16.8745 14.035C17.0549 12.6171 17.8705 11.5225 19.1501 11.5225ZM18.1438 27.988C18.1438 28.7634 17.5759 29.393 16.8749 29.393C16.1739 29.393 15.6059 28.7635 15.6059 27.988V18.6941C15.6059 18.4776 15.6536 18.2755 15.7323 18.0922C15.9359 17.6183 16.3689 17.2891 16.8745 17.2891C17.5753 17.2891 18.1435 17.918 18.1435 18.6941L18.1438 27.988ZM26.3937 27.988C26.3937 28.7634 25.8257 29.393 25.1247 29.393C24.4237 29.393 23.8558 28.7635 23.8558 27.988V18.6941C23.8558 17.9182 24.4233 17.2891 25.1247 17.2891C25.6301 17.2891 26.0633 17.6185 26.2669 18.0922C26.3458 18.2751 26.3933 18.4773 26.3933 18.6941L26.3937 27.988Z" fill="white"/>
</svg>
