<svg width="36" height="36" viewBox="0 0 36 36" fill="none" xmlns="http://www.w3.org/2000/svg">
<rect width="36" height="36" rx="18" fill="#A5CD39"/>
<path fill-rule="evenodd" clip-rule="evenodd" d="M10.0009 9.0009C11.0594 8.99946 12.1179 9.00018 13.1761 9.00018C13.179 11.4896 13.1718 13.9791 13.1797 16.4685C13.2772 16.3721 13.3423 16.2497 13.4333 16.1479C14.0727 15.3887 15.0179 14.9257 15.9911 14.7807C16.8475 14.6555 17.747 14.7069 18.5522 15.0426C19.5139 15.446 20.2932 16.2145 20.8088 17.1111C21.1881 17.7742 21.4198 18.5111 21.581 19.2541C21.8782 20.6483 21.7691 22.1155 21.3197 23.4651C21.1067 24.1444 20.7736 24.7881 20.3202 25.3386C19.941 25.7883 19.5096 26.2082 18.9886 26.491C18.3216 26.862 17.5491 27.0066 16.7913 26.9998C16.0642 26.9929 15.319 26.9426 14.6372 26.6687C14.3663 26.5529 14.1065 26.4111 13.8619 26.2478C13.6395 26.0924 13.4193 25.92 13.2725 25.6876C13.1703 25.5289 13.0581 25.3728 13.0009 25.1907C13.0358 25.5645 12.9548 25.9614 12.7116 26.2557C12.422 26.6097 11.9783 26.7918 11.5423 26.8871C11.0393 26.9965 10.5197 27.0077 10.0077 26.9699C9.99225 25.1184 10.0056 23.2661 10.0012 21.4143C10.0012 17.2762 10.0016 13.1386 10.0009 9.0009ZM15.3687 17.1503C14.7542 17.241 14.2238 17.6252 13.8316 18.0915C13.4186 18.5837 13.2185 19.2112 13.0854 19.8297C12.9404 20.5033 12.9332 21.2067 13.0807 21.8809C13.2261 22.5584 13.4636 23.242 13.9396 23.7619C14.3177 24.2178 14.8751 24.5139 15.4626 24.5805C16.0419 24.6489 16.669 24.5697 17.1522 24.2218C17.5394 23.9505 17.7912 23.5349 17.9938 23.1175C18.3363 22.3846 18.4554 21.5661 18.4428 20.7627C18.4331 20.1557 18.3442 19.5487 18.1643 18.9687C17.9769 18.4499 17.6869 17.9559 17.2666 17.5918C16.7428 17.1647 16.0239 17.0417 15.3687 17.1503Z" fill="#EC1C24"/>
<path fill-rule="evenodd" clip-rule="evenodd" d="M17.2693 9.00054C17.9108 8.99982 18.5527 8.99982 19.1942 9.00054C19.1942 10.9265 19.1935 12.8525 19.1946 14.7785C18.6228 14.4126 17.9536 14.1769 17.2693 14.1892C17.2693 12.4596 17.2696 10.7301 17.2693 9.00054ZM19.9275 15.3337C20.6107 14.9368 21.3976 14.7116 22.1892 14.7112C23.3617 14.6918 24.5199 15.1664 25.3795 15.9565C25.9131 16.4401 26.3355 17.0427 26.6226 17.7026C27.1605 18.9936 27.3803 20.4212 27.2105 21.8122C27.1256 22.5163 26.9471 23.2075 26.6956 23.8699C26.465 24.4668 26.1261 25.0212 25.7015 25.4998C25.3374 25.9081 24.9222 26.2816 24.4314 26.5313C23.7791 26.8763 23.0325 27.0066 22.2996 26.9994C21.4087 26.9951 20.4776 26.9066 19.6954 26.4421C20.139 26.0747 20.5388 25.6538 20.8716 25.1831C21.4965 25.4059 22.1956 25.4386 22.8332 25.2479C23.3445 25.0972 23.7917 24.7697 24.1231 24.3556C24.4973 23.889 24.7376 23.3291 24.8952 22.7556C25.1132 21.9475 25.1726 21.1016 25.1121 20.2683C25.0517 19.5023 24.8891 18.7356 24.5537 18.0404C24.2907 17.5015 23.9011 17.0082 23.3768 16.7042C22.6508 16.2807 21.7401 16.2523 20.9525 16.5092C20.6593 16.0781 20.3139 15.6834 19.9275 15.3337Z" fill="#231F20"/>
</svg>
