<svg width="36" height="36" viewBox="0 0 36 36" fill="none" xmlns="http://www.w3.org/2000/svg">
<rect width="36" height="36" rx="18" fill="#FFE141"/>
<path d="M8.26855 16.643C8.70813 16.643 9.1006 16.7528 9.44599 16.9725C9.7945 17.1891 10.0677 17.4966 10.2655 17.8952C10.457 18.2781 10.5528 18.7284 10.5528 19.2463C10.5528 19.7484 10.457 20.1972 10.2655 20.5927C10.074 20.9881 9.80392 21.2973 9.45541 21.5201C9.10375 21.7461 8.70813 21.859 8.26855 21.859C7.9483 21.859 7.64687 21.7931 7.36429 21.6613C7.0817 21.5295 6.83994 21.3443 6.63899 21.1058V21.7413H5V15H6.63899V17.3915C6.83994 17.153 7.0817 16.9693 7.36429 16.8407C7.64687 16.7089 7.9483 16.643 8.26855 16.643ZM7.77874 20.4985C8.01109 20.4985 8.21832 20.4452 8.40043 20.3385C8.58254 20.2318 8.7254 20.0827 8.82901 19.8913C8.93263 19.7029 8.98444 19.488 8.98444 19.2463C8.98444 19.0109 8.93263 18.7975 8.82901 18.606C8.7254 18.4146 8.58254 18.2655 8.40043 18.1588C8.21832 18.0521 8.01109 17.9988 7.77874 17.9988C7.55896 17.9988 7.36272 18.0521 7.19003 18.1588C7.01734 18.2624 6.88233 18.4083 6.78499 18.5966C6.68765 18.7881 6.63899 19.0046 6.63899 19.2463C6.63899 19.488 6.68765 19.7045 6.78499 19.896C6.88233 20.0843 7.01734 20.2318 7.19003 20.3385C7.36272 20.4452 7.55896 20.4985 7.77874 20.4985Z" fill="black"/>
<path d="M10.778 21.7413V15H12.417V21.7413H10.778Z" fill="black"/>
<path d="M12.8771 21.7416V16.7563H14.5067V21.7416H12.8771Z" fill="black"/>
<path d="M18.0543 16.6434C18.4028 16.6434 18.7167 16.725 18.9962 16.8882C19.2756 17.0482 19.4954 17.2742 19.6555 17.566C19.8094 17.8611 19.8863 18.1953 19.8863 18.5688V21.7417H18.3227V18.936C18.3227 18.754 18.2866 18.5924 18.2144 18.4511C18.1453 18.3067 18.0464 18.1953 17.9177 18.1168C17.792 18.0384 17.6445 17.9992 17.475 17.9992C17.3148 17.9992 17.1673 18.0384 17.0323 18.1168C16.8972 18.1922 16.792 18.2958 16.7167 18.4276C16.6382 18.5531 16.5989 18.7006 16.5989 18.8701L16.5895 21.7417H14.96V16.7563H16.5895V17.326C16.7434 17.1126 16.949 16.9462 17.2065 16.827C17.4639 16.7046 17.7465 16.6434 18.0543 16.6434Z" fill="black"/>
<path d="M23.4887 18.9356L25.3397 21.7413H23.4887L22.4055 19.976L21.9063 20.555V21.7413H20.2673V15H21.9063V18.7238L23.4794 16.7559H25.3303L23.4887 18.9356Z" fill="black"/>
<path d="M12.8771 15.0007H14.512V16.2787H12.8771V15.0007Z" fill="black"/>
<path d="M25.5962 21.7267V16.7414H27.2257V21.7267H25.5962Z" fill="#0C831F"/>
<path d="M30.675 20.319L31 21.3688C30.8524 21.51 30.6656 21.6246 30.4395 21.7125C30.2166 21.8003 29.9984 21.8443 29.7849 21.8443C29.4772 21.8443 29.2024 21.7768 28.9607 21.6418C28.7189 21.5038 28.5305 21.3123 28.3954 21.0675C28.2604 20.829 28.193 20.5543 28.193 20.2437V18.0452H27.5383V16.7412H28.193V15.0007H29.7566V16.7412H30.788V18.0452H29.7566V19.9424C29.7566 20.1024 29.7989 20.2327 29.8838 20.3331C29.9685 20.4336 30.0769 20.4838 30.2087 20.4838C30.303 20.4838 30.3908 20.4696 30.4725 20.4414C30.5541 20.4132 30.6216 20.3724 30.675 20.319Z" fill="#0C831F"/>
<path d="M25.5853 15.0007H27.2202V16.2787H25.5853V15.0007Z" fill="#0C831F"/>
</svg>
