<svg width="36" height="36" viewBox="0 0 36 36" fill="none" xmlns="http://www.w3.org/2000/svg">
<path d="M0 18C0 27.9411 8.05887 36 18 36C27.9411 36 36 27.9411 36 18C36 8.05887 27.9411 0 18 0C8.05887 0 0 8.05887 0 18Z" fill="#00FFA8"/>
<path d="M11.6095 9.19545C11.81 9.01625 12.0962 9.01849 12.3493 9.00431C14.5316 9.00431 16.7138 8.9928 18.8978 9.0074C20.1429 9.01582 21.3902 9.29411 22.5025 9.85736C21.2212 12.3942 19.9396 14.931 18.658 17.4678C18.5952 17.5775 18.562 17.712 18.4607 17.7943C18.3239 17.8651 18.1987 17.7368 18.0943 17.6638C17.0618 16.8128 16.0303 15.9599 14.9997 15.105C14.8559 14.9723 14.6585 14.8417 14.4563 14.9201C14.2307 15.0041 14.1528 15.251 14.0511 15.4457C12.4179 18.6523 10.8122 21.8725 9.1901 25.0848C9.16048 25.1463 9.09762 25.2277 9.0189 25.191C8.98572 25.1211 9.0189 25.0454 9.02377 24.9742C9.79277 19.9442 10.5627 14.9149 11.3334 9.88615C11.3728 9.64236 11.4162 9.37109 11.6117 9.19854L11.6095 9.19545ZM25.7759 12.6303C25.8059 12.6147 25.8387 12.6053 25.8724 12.6026C25.9061 12.5998 25.94 12.6038 25.9721 12.6143C26.0043 12.6248 26.034 12.6416 26.0595 12.6637C26.0851 12.6859 26.106 12.7129 26.121 12.7431C26.4786 13.4267 26.6905 14.1767 26.8524 14.928C27.1091 16.1572 27.0051 17.4333 26.7391 18.6518C26.3852 20.2526 25.6202 21.7491 24.5808 23.0123C23.5799 24.2533 22.3181 25.2586 20.8849 25.9569C19.5779 26.5923 18.139 26.987 16.6815 26.9949H10.0463C9.80915 26.9949 9.56489 27.0086 9.33832 26.9316C9.18968 26.8745 9.03482 26.7675 9.00117 26.6016C8.98703 26.4604 9.10474 26.3591 9.17288 26.2476C11.0644 23.6251 12.9904 21.0265 14.9068 18.4244C15.0329 18.2147 15.3417 18.1014 15.5439 18.2735C16.6793 19.2717 17.8483 20.2319 18.9881 21.2252C19.0872 21.3354 19.2805 21.373 19.3863 21.2495C21.485 18.4036 23.5834 15.5581 25.6812 12.7131C25.706 12.6767 25.7386 12.6464 25.7768 12.6246" fill="black"/>
</svg>
