<svg width="36" height="36" viewBox="0 0 36 36" fill="none" xmlns="http://www.w3.org/2000/svg">
<rect width="36" height="36" rx="18" fill="#FC8019"/>
<path d="M18.0291 28.736C18.0157 28.7265 18.0011 28.7136 17.9854 28.7007C17.7356 28.391 16.1905 26.4556 14.6163 23.973C14.1437 23.1822 13.8373 22.5651 13.8967 22.4055C14.0507 21.9905 16.7954 21.7631 17.6404 22.1395C17.8975 22.2537 17.8908 22.4044 17.8908 22.4929C17.8908 22.8726 17.8723 23.8918 17.8723 23.8918C17.8723 24.1024 18.0431 24.2732 18.2542 24.2726C18.4654 24.2726 18.6356 24.1007 18.635 23.8896L18.6311 21.351C18.6311 21.1303 18.3898 21.0754 18.345 21.0665C17.9037 21.0637 17.0082 21.0614 16.0461 21.0614C13.9236 21.0614 13.4487 21.1488 13.0891 20.9125C12.3079 20.4017 11.0305 16.9587 11.0008 15.021C10.9588 12.2881 12.5773 9.922 14.8577 8.74987C15.8097 8.27049 16.885 8 18.0218 8C21.6306 8 24.6032 10.724 24.9986 14.2291C24.9986 14.2319 24.9986 14.2359 24.9992 14.2387C25.072 15.086 20.4019 15.2658 19.4784 15.0193C19.3368 14.9818 19.3009 14.8362 19.3009 14.774C19.3004 14.13 19.2959 12.3167 19.2959 12.3167C19.2953 12.1055 19.1239 11.9353 18.9128 11.9353C18.7022 11.9353 18.5314 12.1072 18.5314 12.3183L18.5398 15.6583C18.5466 15.8689 18.723 15.9255 18.7717 15.9355C19.297 15.9355 20.5251 15.935 21.6693 15.935C23.2155 15.935 23.8651 16.1142 24.2974 16.4429C24.5847 16.6619 24.6956 17.0813 24.5987 17.6268C23.7313 22.4766 18.2374 28.4862 18.0308 28.7366L18.0291 28.736Z" fill="white"/>
</svg>
