<svg width="36" height="36" viewBox="0 0 36 36" fill="none" xmlns="http://www.w3.org/2000/svg">
<rect width="36" height="36" rx="18" fill="#E13746"/>
<path d="M8.31331 16.4163L8.28755 17.2339L6.15665 19.5515C7.04506 19.5515 7.61159 19.5451 7.93348 19.5258C7.83691 19.9635 7.75966 20.324 7.6824 20.8648C7.25751 20.8262 6.58798 20.8197 5.91846 20.8197C5.17167 20.8197 4.52146 20.8262 4 20.8648L4.01931 20.0408L6.15021 17.7361C5.21674 17.7361 4.87554 17.7425 4.48927 17.7554C4.57296 17.3433 4.63734 16.8863 4.69528 16.4292C5.37768 16.4421 5.64807 16.4549 6.52361 16.4549C7.3412 16.4549 7.79828 16.4421 8.31331 16.4163ZM9.82618 18.9785C9.82618 19.5258 10.0064 19.8026 10.3155 19.8026C10.7275 19.8026 11.0494 19.1395 11.0494 18.3283C11.0494 17.7747 10.8691 17.5043 10.573 17.5043C10.1609 17.5043 9.82618 18.1609 9.82618 18.9785ZM12.6266 18.2639C12.6266 19.7511 11.5773 20.9936 10.1803 20.9936C8.93133 20.9936 8.28755 20.1438 8.28755 19.03C8.28755 17.5494 9.34979 16.3133 10.7339 16.3133C12.0021 16.3133 12.6266 17.1631 12.6266 18.2639ZM29.3841 18.9785C29.3841 19.5258 29.5644 19.8026 29.8734 19.8026C30.2854 19.8026 30.6073 19.1395 30.6073 18.3283C30.6073 17.7747 30.427 17.5043 30.1309 17.5043C29.7189 17.5043 29.3841 18.1609 29.3841 18.9785ZM32.2361 18.2382C32.2361 19.7446 31.1674 21 29.7575 21C28.4893 21 27.8455 20.1373 27.8455 19.0107C27.8455 17.5107 28.9206 16.2554 30.324 16.2554C31.6052 16.2554 32.2361 17.118 32.2361 18.2382ZM19.8176 17.7554C19.927 16.9893 19.8691 16.3004 19.0193 16.3004C18.4013 16.3004 17.7382 16.8219 17.2682 17.691C17.3712 16.97 17.3133 16.3004 16.47 16.3004C15.8391 16.3004 15.1502 16.8476 14.6803 17.7554C14.8026 17.1631 14.7768 16.4871 14.7382 16.3455C14.2489 16.4292 13.824 16.4742 13.2253 16.4871C13.2446 16.8991 13.2189 17.4399 13.1416 17.9485L12.9421 19.294C12.8648 19.8219 12.7811 20.4335 12.691 20.8197H14.2811C14.2876 20.588 14.3519 20.221 14.3906 19.8927L14.5258 18.9657C14.6352 18.367 15.118 17.6524 15.485 17.6524C15.6974 17.6524 15.691 17.8584 15.633 18.2446L15.4785 19.2876C15.4013 19.8155 15.3176 20.427 15.2275 20.8133H16.8369C16.8433 20.5815 16.8949 20.2146 16.9399 19.8863L17.0751 18.9592C17.1846 18.3605 17.6674 17.6459 18.0343 17.6459C18.2468 17.6459 18.2403 17.8455 18.2082 18.1094L17.8219 20.8004H19.2897L19.8176 17.7554ZM27.4979 19.5579L27.324 20.6202C27.0601 20.7618 26.5644 20.9678 25.9914 20.9678C25.0193 20.9678 24.8197 20.4464 24.9743 19.3455L25.2253 17.5687H24.7425L24.8777 16.4163L25.3991 16.3906L25.5987 15.5536L27.0794 15L26.8927 16.3906H27.9099C27.8777 16.5322 27.7554 17.324 27.7232 17.5687H26.7318L26.5064 19.2103C26.4485 19.6352 26.4807 19.7833 26.7704 19.7833C26.9893 19.7833 27.3047 19.6545 27.4979 19.5579Z" fill="white"/>
<path d="M21.8903 20.0601C22.4311 19.9957 22.7981 19.4743 22.8882 18.9592L22.9011 18.8176C22.6693 18.7661 22.3345 18.7275 22.0127 18.7661C21.7036 18.8047 21.4461 18.9335 21.3109 19.1202C21.2079 19.2554 21.1564 19.4163 21.1757 19.603C21.2079 19.8863 21.5234 20.1052 21.8903 20.0601ZM21.4268 20.8841C20.6672 20.9807 20.165 20.6781 20.0169 19.9893C19.9204 19.558 20.0556 19.0687 20.2809 18.7726C20.5899 18.3863 21.0856 18.1416 21.6972 18.0644C22.1865 18.0065 22.5985 18.0322 22.9848 18.1095L23.0041 18.0451C23.0169 17.9421 23.0234 17.8326 23.0105 17.7039C22.9719 17.382 22.7144 17.1824 22.0835 17.2597C21.6586 17.3112 21.2466 17.4657 20.9311 17.6395L20.6221 16.7125C21.047 16.4678 21.5878 16.2811 22.2058 16.2039C23.3839 16.0558 24.2144 16.4356 24.3174 17.2983C24.3431 17.5301 24.3496 17.7747 24.3174 17.9936C24.1629 19.0623 24.0663 19.867 24.0277 20.4077C24.0212 20.4914 24.0212 20.6331 24.0277 20.8391H22.5663C22.5985 20.7554 22.6242 20.6395 22.65 20.4979C22.6693 20.4013 22.6757 20.2854 22.6886 20.1374C22.386 20.5623 21.9612 20.8198 21.4268 20.8841Z" fill="white"/>
</svg>
