<svg width="27" height="28" viewBox="0 0 27 28" fill="none" xmlns="http://www.w3.org/2000/svg">
<circle cx="13.5" cy="14" r="13.5" fill="#999999"/>
<path d="M19.8182 12.3183C19.6252 12.3183 19.4403 12.3948 19.3039 12.5313C19.1675 12.6677 19.0908 12.8526 19.0908 13.0455V18.1367C19.0908 18.3295 19.0142 18.5145 18.8779 18.6508C18.7415 18.7873 18.5565 18.8639 18.3636 18.8639H8.18157C7.98871 18.8639 7.80377 18.7873 7.6674 18.6508C7.53092 18.5145 7.45433 18.3295 7.45433 18.1367V12.3183C7.45433 12.1255 7.53092 11.9404 7.6674 11.804C7.80377 11.6677 7.98873 11.5911 8.18157 11.5911H9.63617C9.79482 11.5994 9.95176 11.5554 10.083 11.4662C10.2144 11.3769 10.3129 11.247 10.3634 11.0965L10.7562 9.9038C10.805 9.75928 10.8979 9.63387 11.0219 9.5451C11.1459 9.45634 11.2946 9.40874 11.4472 9.40922H15.4546C15.7144 9.40922 15.9545 9.27055 16.0844 9.04554C16.2143 8.82054 16.2143 8.54332 16.0844 8.31831C15.9545 8.0933 15.7144 7.95462 15.4546 7.95462H11.411C10.954 7.95548 10.5087 8.09988 10.1381 8.36737C9.76744 8.63486 9.49022 9.01207 9.34556 9.44551L9.11289 10.1727L8.18184 10.1729C7.60328 10.1729 7.04831 10.4027 6.63909 10.8118C6.22987 11.2211 6 11.776 6 12.3547V18.1731C6 18.7517 6.22987 19.3066 6.63909 19.7158C7.04831 20.1249 7.60328 20.3548 8.18184 20.3548H18.3639C18.9426 20.3548 19.4975 20.1249 19.9066 19.7158C20.3158 19.3066 20.5457 18.7516 20.5457 18.1729V13.0821C20.5557 12.883 20.4835 12.6884 20.346 12.5442C20.2084 12.3998 20.0175 12.318 19.8182 12.3183ZM13.2727 11.591C12.5011 11.591 11.7611 11.8975 11.2156 12.4431C10.67 12.9886 10.3635 13.7285 10.3635 14.5001C10.3635 15.2717 10.67 16.0115 11.2156 16.5571C11.7611 17.1027 12.5011 17.4092 13.2727 17.4092C14.0442 17.4092 14.7841 17.1027 15.3297 16.5571C15.8753 16.0115 16.1818 15.2717 16.1818 14.5001C16.1818 13.7285 15.8753 12.9886 15.3297 12.4431C14.7841 11.8975 14.0442 11.591 13.2727 11.591ZM13.2727 15.9547C12.8868 15.9547 12.5169 15.8014 12.2441 15.5287C11.9714 15.2558 11.8181 14.8858 11.8181 14.5001C11.8181 14.1144 11.9714 13.7444 12.2441 13.4715C12.5169 13.1988 12.8868 13.0455 13.2727 13.0455C13.6584 13.0455 14.0284 13.1988 14.3011 13.4715C14.574 13.7444 14.7271 14.1144 14.7271 14.5001C14.7271 14.8858 14.574 15.2558 14.3011 15.5287C14.0284 15.8014 13.6584 15.9547 13.2727 15.9547ZM21.2729 7.95451H20.5455V7.22727C20.5455 6.96745 20.4068 6.72735 20.1818 6.59743C19.9568 6.46752 19.6796 6.46752 19.4546 6.59743C19.2296 6.72735 19.0909 6.96744 19.0909 7.22727V7.95451H18.3637C18.1038 7.95451 17.8637 8.09319 17.7338 8.31819C17.6039 8.54319 17.6039 8.82042 17.7338 9.04543C17.8637 9.27044 18.1038 9.40911 18.3637 9.40911H19.0909V10.1363C19.0909 10.3962 19.2296 10.6363 19.4546 10.7662C19.6796 10.8961 19.9568 10.8961 20.1818 10.7662C20.4068 10.6363 20.5455 10.3962 20.5455 10.1363V9.40911H21.2727C21.5326 9.40911 21.7727 9.27043 21.9026 9.04543C22.0325 8.82042 22.0325 8.5432 21.9026 8.31819C21.7727 8.09319 21.5327 7.95451 21.2729 7.95451Z" fill="white"/>
</svg>
