<svg width="22" height="20" viewBox="0 0 22 20" fill="none" xmlns="http://www.w3.org/2000/svg">
<path d="M11.9167 10.9163V16.0359L13.5923 14.3603L14.8894 15.6573L11 19.5458L7.11058 15.6573L8.40767 14.3603L10.0833 16.0359V10.9163H11.9167ZM11 0.833008C12.5739 0.833083 14.0929 1.41153 15.2682 2.45837C16.4435 3.5052 17.1931 4.94743 17.3745 6.51084C18.5151 6.82188 19.5101 7.52385 20.1856 8.49407C20.8611 9.4643 21.1742 10.6411 21.0702 11.8187C20.9661 12.9963 20.4515 14.1 19.6163 14.9367C18.7811 15.7734 17.6784 16.29 16.5009 16.3962V14.55C16.9227 14.4898 17.3283 14.3461 17.694 14.1274C18.0597 13.9087 18.3782 13.6193 18.6309 13.2762C18.8835 12.9331 19.0653 12.5431 19.1656 12.1289C19.2658 11.7148 19.2826 11.2848 19.2149 10.8642C19.1472 10.4435 18.9964 10.0405 18.7712 9.6787C18.5461 9.31693 18.2512 9.00364 17.9036 8.7571C17.5561 8.51057 17.1629 8.33573 16.7471 8.2428C16.3312 8.14987 15.901 8.1407 15.4816 8.21584C15.6251 7.54749 15.6174 6.85548 15.4589 6.19051C15.3004 5.52555 14.9951 4.90446 14.5655 4.37274C14.1358 3.84103 13.5927 3.41215 12.9759 3.11752C12.359 2.82289 11.6841 2.66998 11.0005 2.66998C10.3169 2.66998 9.64192 2.82289 9.02507 3.11752C8.40822 3.41215 7.86509 3.84103 7.43545 4.37274C7.00582 4.90446 6.70057 5.52555 6.54205 6.19051C6.38354 6.85548 6.37577 7.54749 6.51933 8.21584C5.68302 8.05879 4.81857 8.24039 4.11615 8.72071C3.41373 9.20102 2.93089 9.94069 2.77383 10.777C2.61678 11.6133 2.79839 12.4778 3.2787 13.1802C3.75901 13.8826 4.49869 14.3655 5.335 14.5225L5.5 14.55V16.3962C4.3225 16.2901 3.21971 15.7737 2.38437 14.937C1.54904 14.1004 1.0343 12.9968 0.930118 11.8191C0.825936 10.6414 1.13894 9.4646 1.81442 8.4943C2.4899 7.524 3.4849 6.82194 4.6255 6.51084C4.80673 4.94735 5.55629 3.50501 6.73162 2.45813C7.90694 1.41126 9.42604 0.832883 11 0.833008Z" fill="#5866DB"/>
</svg>
