<svg width="19" height="18" viewBox="0 0 19 18" fill="none" xmlns="http://www.w3.org/2000/svg">
<path d="M8.74491 4.5H10.5204V6.3H8.74491V4.5Z" fill="black" fill-opacity="0.54"/>
<path d="M8.74491 8.1H10.5204V13.5H8.74491V8.1Z" fill="black" fill-opacity="0.54"/>
<path fill-rule="evenodd" clip-rule="evenodd" d="M0.755112 9C0.755112 4.032 4.73224 0 9.63266 0C14.5331 0 18.5102 4.032 18.5102 9C18.5102 13.968 14.5331 18 9.63266 18C4.73224 18 0.755112 13.968 0.755112 9ZM2.53062 9C2.53062 12.969 5.71763 16.2 9.63266 16.2C13.5477 16.2 16.7347 12.969 16.7347 9C16.7347 5.031 13.5477 1.8 9.63266 1.8C5.71763 1.8 2.53062 5.031 2.53062 9Z" fill="black" fill-opacity="0.54"/>
</svg>
