<svg width="102" height="103" viewBox="0 0 102 103" fill="none" xmlns="http://www.w3.org/2000/svg">
<g filter="url(#filter0_d_673_4239)">
<path fill-rule="evenodd" clip-rule="evenodd" d="M51.0121 2.5C24.5484 2.5 3 24.0467 3 50.5121C3 76.9776 24.5467 98.5 51.0121 98.5C77.4776 98.5 99 76.9761 99 50.5121C99 24.0484 77.4761 2.5 51.0121 2.5ZM51.0121 10.5008C73.1526 10.5008 91.0004 28.3714 91.0004 50.5109C91.0004 72.6514 73.1536 90.4992 51.0121 90.4992C28.8707 90.4992 11.002 72.6524 11.002 50.5109C11.002 28.3695 28.8726 10.5008 51.0121 10.5008ZM70.9196 31.2288C69.8533 31.3066 68.8638 31.8075 68.1704 32.6196L44.6923 59.8702L33.6843 48.5024C32.9405 47.7397 31.9236 47.3062 30.8582 47.2957C29.7938 47.2853 28.7693 47.6999 28.0112 48.4474C27.2571 49.1892 26.8283 50.1986 26.8159 51.2553C26.8046 52.3121 27.2115 53.3309 27.9486 54.0889L41.981 68.5824C42.7626 69.3906 43.8488 69.8308 44.9719 69.7986C46.0961 69.7663 47.1538 69.2616 47.8881 68.4097L74.2256 37.815C74.9181 37.0125 75.2643 35.9671 75.1866 34.9093C75.1088 33.8506 74.6145 32.8678 73.811 32.1743C73.0103 31.4903 71.9706 31.1511 70.9196 31.2288Z" fill="white"/>
<path fill-rule="evenodd" clip-rule="evenodd" d="M51.0121 10.5008C73.1526 10.5008 91.0004 28.3714 91.0004 50.5109C91.0004 72.6514 73.1536 90.4992 51.0121 90.4992C28.8707 90.4992 11.002 72.6524 11.002 50.5109C11.002 28.3695 28.8726 10.5008 51.0121 10.5008ZM70.9196 31.2288C71.9706 31.1511 73.0103 31.4903 73.811 32.1743C74.6145 32.8678 75.1088 33.8506 75.1866 34.9093C75.2643 35.9671 74.9181 37.0125 74.2256 37.815L47.8881 68.4097C47.1538 69.2616 46.0961 69.7663 44.9719 69.7986C43.8488 69.8308 42.7626 69.3906 41.981 68.5824L27.9486 54.0889C27.2115 53.3309 26.8046 52.3121 26.8159 51.2553C26.8283 50.1986 27.2571 49.1892 28.0112 48.4474C28.7693 47.6999 29.7938 47.2853 30.8582 47.2957C31.9236 47.3062 32.9405 47.7397 33.6843 48.5024L44.6923 59.8702L68.1704 32.6196C68.8638 31.8075 69.8533 31.3066 70.9196 31.2288Z" fill="#21B052"/>
</g>
<defs>
<filter id="filter0_d_673_4239" x="0" y="0.5" width="102" height="102" filterUnits="userSpaceOnUse" color-interpolation-filters="sRGB">
<feFlood flood-opacity="0" result="BackgroundImageFix"/>
<feColorMatrix in="SourceAlpha" type="matrix" values="0 0 0 0 0 0 0 0 0 0 0 0 0 0 0 0 0 0 127 0" result="hardAlpha"/>
<feOffset dy="1"/>
<feGaussianBlur stdDeviation="1.5"/>
<feComposite in2="hardAlpha" operator="out"/>
<feColorMatrix type="matrix" values="0 0 0 0 0 0 0 0 0 0 0 0 0 0 0 0 0 0 0.25 0"/>
<feBlend mode="normal" in2="BackgroundImageFix" result="effect1_dropShadow_673_4239"/>
<feBlend mode="normal" in="SourceGraphic" in2="effect1_dropShadow_673_4239" result="shape"/>
</filter>
</defs>
</svg>
