<svg width="38" height="38" viewBox="0 0 38 38" fill="none" xmlns="http://www.w3.org/2000/svg">
<mask id="mask0_1534_6428" style="mask-type:alpha" maskUnits="userSpaceOnUse" x="0" y="0" width="38" height="38">
<path fill-rule="evenodd" clip-rule="evenodd" d="M0.332199 19.0052C0.332199 29.31 8.68519 37.6638 18.9901 37.6638C29.2945 37.6638 37.6479 29.31 37.6479 19.0052C37.6479 8.70122 29.2945 0.347412 18.9901 0.347412C8.68519 0.347412 0.332199 8.70122 0.332199 19.0052Z" fill="white"/>
</mask>
<g mask="url(#mask0_1534_6428)">
<path fill-rule="evenodd" clip-rule="evenodd" d="M0.332233 19.006C0.332233 29.31 8.68523 37.6638 18.9901 37.6638C29.2946 37.6638 37.6481 29.31 37.6481 19.006C37.6481 8.70122 29.2946 0.347412 18.9901 0.347412C8.68523 0.347412 0.332233 8.70122 0.332233 19.006Z" fill="#E5E5E5"/>
<path d="M33 34C33 41.732 26.732 48 19 48C11.268 48 5 41.732 5 34C5 26.268 11.268 20 19 20C26.732 20 33 26.268 33 34Z" fill="#CDCDCD"/>
<path d="M27 13C27 17.4183 23.4183 21 19 21C14.5817 21 11 17.4183 11 13C11 8.58172 14.5817 5 19 5C23.4183 5 27 8.58172 27 13Z" fill="#999999"/>
</g>
</svg>
