<svg width="36" height="36" viewBox="0 0 36 36" fill="none" xmlns="http://www.w3.org/2000/svg">
<rect x="0.5" y="0.5" width="35" height="35" rx="17.5" fill="#F6F6F6"/>
<path d="M18.1602 10.9C15.8643 10.9 14 12.764 14 15.0602C14 17.3563 15.8641 19.2204 18.1602 19.2204C20.4564 19.2204 22.3204 17.3563 22.3204 15.0602C22.3204 12.7641 20.4564 10.9 18.1602 10.9ZM18.1602 12.22C19.7276 12.22 21.0003 13.4926 21.0003 15.06C21.0003 16.6274 19.7276 17.9001 18.1602 17.9001C16.5928 17.9001 15.3202 16.6274 15.3202 15.06C15.3202 13.4926 16.5928 12.22 18.1602 12.22Z" fill="#4D4D4D" stroke="#4D4D4D" stroke-width="0.2"/>
<path d="M15.5517 17.0685L15.5516 17.0685C13.3976 18.058 11.9 20.2352 11.9 22.7601C11.9 23.1247 12.1954 23.4201 12.56 23.4201C12.9246 23.4201 13.22 23.1247 13.22 22.7601C13.22 20.9095 14.2398 19.2953 15.7482 18.4486C16.4283 18.9344 17.2616 19.2201 18.1602 19.2201C19.0587 19.2201 19.892 18.9345 20.572 18.4488C20.9835 18.68 21.3591 18.9678 21.6868 19.3021L21.6869 19.3021C21.9418 19.5621 22.3601 19.5662 22.62 19.3113L22.62 19.3112C22.8799 19.0562 22.8841 18.638 22.629 18.3781C22.097 17.8354 21.4674 17.3894 20.7689 17.0685L20.7688 17.0685C20.5296 16.9589 20.2485 17.0017 20.0529 17.1766L20.0528 17.1766C19.5504 17.6264 18.8871 17.9001 18.1602 17.9001C17.4333 17.9001 16.77 17.6264 16.2676 17.1766L16.2676 17.1766C16.072 17.0017 15.7909 16.9589 15.5517 17.0685Z" fill="#4D4D4D" stroke="#4D4D4D" stroke-width="0.2"/>
<path d="M21.4203 21.0801V24.4402C21.4203 24.8046 21.7159 25.1 22.0803 25.1C22.4446 25.1 22.7403 24.8046 22.7403 24.4402V21.0801C22.7403 20.7158 22.4446 20.4203 22.0803 20.4203C21.7159 20.4203 21.4203 20.7158 21.4203 21.0801Z" fill="#4D4D4D" stroke="#4D4D4D" stroke-width="0.2"/>
<path d="M23.7599 22.1001H20.3998C20.0355 22.1001 19.74 22.3958 19.74 22.7601C19.74 23.1244 20.0355 23.4201 20.3998 23.4201H23.7599C24.1243 23.4201 24.4197 23.1244 24.4197 22.7601C24.4197 22.3958 24.1243 22.1001 23.7599 22.1001Z" fill="#4D4D4D" stroke="#4D4D4D" stroke-width="0.2"/>
<rect x="0.5" y="0.5" width="35" height="35" rx="17.5" stroke="#CCCCCC"/>
</svg>
