<svg width="142" height="144" viewBox="0 0 142 144" fill="none" xmlns="http://www.w3.org/2000/svg">
<path d="M141.14 73.64C141.146 68.7335 140.731 63.8356 139.9 59H72V86.73H110.89C110.094 91.1589 108.41 95.3808 105.938 99.1411C103.467 102.902 100.26 106.123 96.51 108.61V126.61H119.72C133.31 114.08 141.14 95.55 141.14 73.64Z" fill="#4285F4"/>
<path d="M72 144C91.43 144 107.79 137.62 119.72 126.62L96.51 108.62C90.05 113 81.73 115.5 72 115.5C53.22 115.5 37.28 102.84 31.58 85.78H7.67004V104.33C13.6627 116.255 22.8518 126.279 34.2115 133.284C45.5711 140.289 58.6542 143.999 72 144V144Z" fill="#34A853"/>
<path d="M31.58 85.7799C28.5666 76.8404 28.5666 67.1595 31.58 58.2199V39.6699H7.67001C2.62877 49.7015 0.0032959 60.7729 0.0032959 71.9999C0.0032959 83.2269 2.62877 94.2984 7.67001 104.33L31.58 85.7799Z" fill="#FBBC04"/>
<path d="M72 28.5001C82.2679 28.3323 92.1894 32.2118 99.62 39.3001L120.17 18.7501C107.139 6.51084 89.8762 -0.208705 72 8.52016e-05C58.6542 0.000693453 45.5711 3.71063 34.2115 10.7157C22.8518 17.7208 13.6627 27.7453 7.67004 39.6701L31.58 58.2201C37.28 41.1601 53.22 28.5001 72 28.5001Z" fill="#EA4335"/>
</svg>
