<svg width="1054" height="290" viewBox="0 0 1054 290" fill="none" xmlns="http://www.w3.org/2000/svg">
<path d="M1049.99 85.6781C1040.43 61.7215 1014.38 44.5185 983.781 44.5185H983.141C963.25 44.5185 945.325 51.775 932.564 63.4242C919.782 51.775 901.855 44.5185 881.986 44.5185H881.346C863.862 44.5185 847.879 50.13 835.604 59.4188V54.6971C835.185 49.9945 830.769 46.299 825.316 46.299H778.382C772.642 46.299 768.006 50.3626 768.006 55.4129V278.82C768.006 283.87 772.642 287.934 778.382 287.934H825.316C830.548 287.934 834.853 284.509 835.538 280.077L835.516 119.697C835.511 119.16 835.54 118.624 835.604 118.091C836.354 110.931 842.337 105.048 851.786 104.313H860.439C864.391 104.622 867.725 105.842 870.352 107.68C874.436 110.524 876.71 114.898 876.71 119.697L876.886 279.284C876.886 284.335 881.544 288.417 887.262 288.417H934.196C939.738 288.417 944.241 284.547 944.507 279.729L944.485 119.484C944.462 114.22 947.244 109.46 952.123 106.635C954.529 105.28 957.422 104.371 960.755 104.1H969.409C979.564 104.874 985.701 111.627 985.679 119.484L985.856 278.859C985.856 283.909 990.514 287.972 996.231 287.972H1043.17C1048.88 287.972 1053.54 283.909 1053.54 278.859V107.448C1053.54 95.7595 1052.04 90.7865 1049.99 85.6781H1049.99ZM732.251 46.881H705.406V8.64351C705.405 4.05724 701.167 0.342041 695.935 0.342041C695.316 0.342041 694.721 0.418835 694.147 0.515925C664.387 7.6759 670.348 43.8043 616.018 46.881H610.742C609.947 46.881 609.196 46.9776 608.468 47.1131H608.424L608.468 47.1323C603.832 48.0423 600.344 51.6412 600.344 55.9762V97.116C600.344 102.128 605.002 106.211 610.742 106.211H639.066L639.022 280.66C639.022 285.633 643.614 289.658 649.287 289.658H695.692C701.343 289.658 705.936 285.633 705.936 280.66L705.957 106.211H732.251C737.968 106.211 742.626 102.128 742.626 97.116V55.9762C742.626 50.9643 737.968 46.8816 732.251 46.8816" fill="#00BAF2"/>
<path d="M563.393 46.881H516.458C510.741 46.881 506.104 50.9642 506.104 55.9756V141.043C505.994 146.306 501.137 150.525 495.11 150.525H475.462C469.369 150.525 464.446 146.229 464.446 140.888L464.27 55.9762C464.27 50.9642 459.611 46.8815 453.894 46.8815H406.959C401.22 46.8815 396.584 50.9642 396.584 55.9762V149.209C396.584 184.621 425.393 209.874 465.815 209.874C465.815 209.874 496.148 209.874 497.075 210.029C502.55 210.571 506.811 214.595 506.811 219.549C506.811 224.445 502.639 228.451 497.23 229.051C496.965 229.089 496.722 229.147 496.435 229.186L427.799 229.399C422.06 229.399 417.424 233.482 417.424 238.494V279.615C417.424 284.646 422.06 288.71 427.799 288.71H504.537C544.981 288.71 573.768 263.476 573.768 228.045V55.9762C573.768 50.9642 569.132 46.8815 563.393 46.8815V46.881ZM109.1 122.263V147.652C109.1 152.972 104.177 157.307 98.1058 157.307L68.3245 157.327V106.453H98.1058C104.177 106.453 109.1 110.749 109.1 116.09V122.263ZM113.228 46.8711H10.6387C5.00915 46.8711 0.461548 50.877 0.461548 55.7919V96.1001C0.461548 96.1774 0.48345 96.2548 0.48345 96.3321C0.48345 96.5257 0.461548 96.7194 0.461548 96.8933V279.334C0.461548 284.288 4.70001 288.333 9.95476 288.448H57.7712C63.4891 288.448 68.1468 284.385 68.1468 279.354L68.3239 216.831H113.227C150.801 216.831 176.984 193.977 176.984 160.906V102.873C176.984 69.8024 150.801 46.8716 113.227 46.8716L113.228 46.8711ZM303.837 218.847V225.271C303.837 225.794 303.75 226.297 303.662 226.781C303.551 227.235 303.404 227.681 303.22 228.116C301.762 231.716 297.657 234.328 292.777 234.328H273.24C267.147 234.328 262.18 230.264 262.18 225.271V217.512C262.18 217.415 262.157 217.318 262.157 217.222L262.18 196.574V190.111L262.202 190.053C262.224 185.079 267.147 181.055 273.24 181.055H292.777C298.893 181.055 303.838 185.099 303.838 190.111L303.837 218.847ZM296.377 47.1075H231.251C225.489 47.1075 220.832 50.939 220.832 55.641V71.6444C220.832 71.7409 220.854 71.8572 220.854 71.9538C220.854 72.0701 220.831 72.1858 220.831 72.3021V94.2269C220.831 99.2004 225.777 103.264 231.87 103.264H293.882C298.783 103.941 302.669 107.076 303.22 111.972V117.274C302.669 121.938 298.827 125.343 294.147 125.73H263.439C222.598 125.73 193.501 149.513 193.501 182.912V230.748C193.501 263.954 218.514 287.581 259.067 287.581H344.172C359.449 287.581 371.834 277.442 371.834 264.96V108.856C371.834 71.0059 349.581 47.1075 296.376 47.1075H296.377Z" fill="#1F336B"/>
</svg>
