<svg width="259" height="259" viewBox="0 0 259 259" fill="none" xmlns="http://www.w3.org/2000/svg">
<path d="M124.479 258.179C120.599 257.799 116.699 257.539 112.839 257.029C87.5793 253.679 65.0793 243.959 45.6593 227.429C25.3587 210.343 10.8762 187.365 4.21928 161.679C0.513102 147.82 -0.765782 133.425 0.43928 119.129C2.43928 94.1794 10.7693 71.5194 25.9393 51.6194C47.1793 23.7494 75.2693 6.71938 109.939 1.56938C147.779 -4.06062 181.939 5.48939 211.449 29.6994C236.879 50.5294 252.219 77.6394 256.879 110.159C262.379 148.509 252.519 182.949 227.499 212.599C206.429 237.599 179.259 252.029 146.969 256.899C142.919 257.519 138.809 257.759 134.729 258.179H124.479ZM100.699 87.1794C90.2693 87.1794 79.8493 87.1794 69.4193 87.1794C66.6393 87.1794 65.6493 88.0194 65.4193 90.7594C65.1643 93.4231 65.2146 96.1071 65.5693 98.7594C65.8461 100.994 66.9339 103.05 68.6262 104.535C70.3185 106.021 72.4974 106.834 74.7493 106.819C77.1493 106.869 79.5493 106.819 81.9493 106.819C84.9493 106.819 84.9493 106.819 84.9493 109.769C84.9493 120.936 84.9493 132.103 84.9493 143.269C84.9429 147.726 85.5246 152.165 86.6793 156.469C89.8893 168.469 96.8893 177.059 109.039 180.639C119.189 183.639 129.379 182.909 139.399 179.639C141.749 178.869 141.789 178.869 141.799 181.359C141.799 188.279 141.749 195.199 141.799 202.119C141.779 203.601 142.056 205.072 142.615 206.444C143.174 207.816 144.002 209.063 145.051 210.109C146.1 211.155 147.349 211.98 148.723 212.535C150.096 213.09 151.568 213.364 153.049 213.339C156.339 213.339 159.639 213.399 162.929 213.339C163.497 213.352 164.061 213.249 164.588 213.037C165.115 212.825 165.593 212.509 165.994 212.107C166.395 211.705 166.71 211.226 166.921 210.699C167.131 210.171 167.233 209.607 167.219 209.039C167.219 208.219 167.219 207.399 167.219 206.579C167.219 174.299 167.219 142.029 167.219 109.769C167.219 106.089 167.219 106.089 170.799 106.089C174.979 106.089 179.169 106.089 183.349 106.089C186.449 106.089 187.349 105.139 187.349 101.989C187.349 99.9427 187.349 97.886 187.349 95.8194C187.279 90.2194 183.519 86.4894 177.869 86.4394C172.929 86.3994 167.993 86.3994 163.059 86.4394C162.411 86.4836 161.762 86.3692 161.168 86.1061C160.573 85.843 160.052 85.4391 159.649 84.9294C157.799 82.7294 155.879 80.5794 153.989 78.4194C143.229 65.9861 132.446 53.5727 121.639 41.1794C120.372 39.5911 118.758 38.3146 116.92 37.4478C115.083 36.581 113.071 36.1471 111.039 36.1794C104.369 36.2594 98.4493 39.1794 92.2993 41.2494C90.4293 41.8694 90.2293 44.2494 91.5393 45.7494C92.0007 46.2574 92.4881 46.7414 92.9993 47.1994C106.279 59.8061 119.563 72.406 132.849 84.9994C133.329 85.4494 134.209 85.8794 133.989 86.5694C133.709 87.4694 132.699 87.0994 131.989 87.0994C121.559 87.0994 111.139 87.0994 100.709 87.0994L100.699 87.1794Z" fill="#5F259F"/>
<path d="M141.849 132.339C141.849 139.949 141.799 147.549 141.849 155.149C141.942 155.888 141.758 156.635 141.331 157.245C140.904 157.855 140.265 158.284 139.539 158.449C134.656 160.129 129.472 160.756 124.329 160.289C115.579 159.459 110.689 154.289 109.949 145.419C109.269 137.279 109.769 129.129 109.629 120.979C109.569 116.979 109.629 113.039 109.629 109.069C109.629 107.419 110.169 106.749 111.899 106.759C121.089 106.819 130.279 106.839 139.459 106.759C141.459 106.759 141.879 107.569 141.869 109.339C141.809 117.009 141.869 124.679 141.869 132.339" fill="#5F259F"/>
</svg>
